<svg width="606" height="287" viewBox="0 0 606 287" fill="none" xmlns="http://www.w3.org/2000/svg">
<path opacity="0.05" d="M0 168.746C4.31713 163.307 8.40232 158.067 12.5929 152.907C26.2665 136.061 40.1719 119.404 53.5977 102.368C63.2177 90.1603 72.1893 77.4518 83.0269 66.2297C95.3721 53.4527 110.574 46.6688 127.922 43.9912C142.059 41.8089 156.234 41.5348 170.882 42.5943C170.355 43.5168 169.933 44.3021 169.47 45.0612C160.329 60.1417 149.065 73.6408 138.032 87.3087C128.486 99.1369 119.014 111.018 111.202 124.116C110.759 124.854 110.369 125.624 109.805 126.647C115.382 127.975 120.727 129.192 126.051 130.526C153.271 137.342 179.77 146.118 204.449 159.754C217.801 167.128 230.199 175.836 241.585 186.009C256.713 199.524 271.705 213.203 287.149 226.343C297.123 234.83 308.429 241.582 321.507 243.901C345.154 248.097 368.532 248.208 390.444 236.169C397.682 232.194 403.838 226.934 409.763 219.855C406.759 219.855 404.476 219.807 402.204 219.865C391.578 220.118 380.956 220.466 370.335 220.661C352.924 220.983 337.331 216.081 323.874 204.684C309.468 192.477 294.777 180.606 280.381 168.383C253.777 145.796 224.596 127.648 191.714 115.567C179.875 111.218 168.368 105.973 156.365 100.992C157.641 99.0262 158.6 97.4976 159.607 96.0006C174.635 73.6619 191.682 53.0943 212.514 35.8685C231.301 20.3294 252.048 8.41154 276.048 3.1563C306.59 -3.53267 335.819 0.399536 363.577 15.0531C381.135 24.3196 397.033 36.0213 412.857 47.8654C428.323 59.4459 443.583 71.3268 460.383 80.9887C483.692 94.3982 508.767 103.19 534.823 109.437C554.542 114.159 574.547 117.259 594.63 119.873C598.267 120.348 601.931 120.669 606 121.107C603.981 123.832 602.226 126.314 600.355 128.708C585.379 147.884 570.472 167.112 555.354 186.178C546.029 197.938 536.652 209.681 526.758 220.956C519.352 229.395 510.269 235.952 499.854 240.438C492.247 243.717 484.156 245.05 476.001 245.277C464.415 245.598 452.813 245.245 441.217 245.171C440.9 245.171 440.584 245.04 439.978 244.908C458.427 216.529 481.399 191.686 499.353 162.769C494.361 161.446 489.654 160.192 484.941 158.958C463.73 153.392 442.687 147.304 422.662 138.18C400.069 127.891 380.329 113.358 361.642 97.2077C348.29 85.6694 335.038 73.9835 321.165 63.0882C309.225 53.711 295.91 46.4053 280.803 43.3586C253.809 37.9136 229.387 43.0951 208.471 61.781C207.949 62.2501 207.464 62.7614 206.985 63.2727C206.879 63.3834 206.848 63.5731 206.595 64.1793C212.451 64.6853 218.155 65.2124 223.863 65.671C235.845 66.6356 247.805 67.6318 259.439 70.9895C271.584 74.4947 281.999 81.2417 291.651 89.0007C306.294 100.771 320.769 112.794 334.749 125.345C359.449 147.52 387.535 163.528 419.004 173.865C429.91 177.449 440.647 181.555 451.459 185.429C452.102 185.661 452.724 185.962 453.678 186.368C452.36 188.492 451.158 190.495 449.893 192.45C431.502 220.84 409.241 245.514 381.135 264.68C367.409 274.036 352.744 281.046 336.33 284.14C322.894 286.671 309.362 287.445 295.71 286.765C285.695 286.265 275.743 285.527 266.054 282.744C251.732 278.632 238.57 271.98 226.436 263.509C210.669 252.503 195.262 240.976 179.733 229.632C152.133 209.465 122.661 192.904 89.948 182.446C75.5049 177.828 60.6664 175.372 45.6645 173.696C30.9315 172.051 16.1774 170.581 1.43377 169.031C1.10696 168.994 0.785411 168.91 0 168.752L0 168.746Z" fill="white"/>
</svg>
