<svg width="48" height="49" viewBox="0 0 48 49" fill="none" xmlns="http://www.w3.org/2000/svg">
<g filter="url(#filter0_d_16611_153358)">
<path d="M43.4516 21.2359C43.4534 17.783 42.5253 14.3934 40.7648 11.4231C39.0043 8.45281 36.4764 6.01143 33.4466 4.35544C30.4168 2.69945 26.9969 1.88996 23.5462 2.01202C20.0955 2.13407 16.7414 3.18316 13.8361 5.04909C10.9309 6.91501 8.58177 9.5289 7.03553 12.6162C5.48929 15.7034 4.80301 19.1502 5.04877 22.5942C5.29453 26.0383 6.46326 29.3527 8.4322 32.1891C10.4011 35.0255 13.0976 37.2794 16.2384 38.7139L23.0723 45.5653C23.3912 45.8455 23.8013 46 24.2258 46C24.6504 46 25.0604 45.8455 25.3794 45.5653L32.2133 38.7139C35.5641 37.1834 38.4047 34.7225 40.3971 31.624C42.3895 28.5254 43.4497 24.9197 43.4516 21.2359Z" fill="url(#paint0_linear_16611_153358)"/>
<path d="M16.3092 38.6433L16.2964 38.6304L16.2799 38.6229C13.1555 37.1959 10.473 34.9538 8.51435 32.1321C6.55565 29.3104 5.393 26.0133 5.14851 22.5871C4.90403 19.1609 5.58675 15.7322 7.12495 12.661C8.66314 9.58974 11.0001 6.98945 13.8902 5.13323C16.7803 3.27701 20.117 2.23338 23.5497 2.11196C26.9825 1.99054 30.3846 2.79581 33.3986 4.44319C36.4127 6.09057 38.9275 8.51925 40.6788 11.4741C42.4302 14.429 43.3534 17.8009 43.3516 21.2358C43.3497 24.9005 42.295 28.4874 40.313 31.5699C38.331 34.6523 35.5051 37.1004 32.1717 38.6229L32.1553 38.6304L32.1425 38.6433L25.3109 45.4923C25.0106 45.7551 24.625 45.9 24.2258 45.9C23.8266 45.9 23.4411 45.7551 23.1407 45.4923L16.3092 38.6433Z" stroke="#284104" stroke-width="0.2"/>
</g>
<g filter="url(#filter1_i_16611_153358)">
<path d="M24.2258 36.9663C32.9134 36.9663 39.956 29.9236 39.956 21.2361C39.956 12.5485 32.9134 5.50586 24.2258 5.50586C15.5383 5.50586 8.49561 12.5485 8.49561 21.2361C8.49561 29.9236 15.5383 36.9663 24.2258 36.9663Z" fill="#272525"/>
</g>
<path d="M39.806 21.2361C39.806 29.8408 32.8305 36.8163 24.2258 36.8163C15.6211 36.8163 8.64561 29.8408 8.64561 21.2361C8.64561 12.6314 15.6211 5.65586 24.2258 5.65586C32.8305 5.65586 39.806 12.6314 39.806 21.2361Z" stroke="#F1F1F1" stroke-width="0.3"/>
<path fill-rule="evenodd" clip-rule="evenodd" d="M24.068 12C24.0455 12 24.0228 12.0001 24 12.0003C23.9772 12.0001 23.9545 12 23.932 12H24.068ZM24 12.0003C25.5814 12.0135 27.7246 12.4815 28.6188 12.8724C29.526 13.269 30.1307 13.6656 30.3197 14.657L31 20.1531V27.7263H29.8283V28.9139C29.8283 30.362 27.8086 30.362 27.8086 28.9139V27.7263H23.932H23.9201H20.1914V28.9139C20.1914 30.362 18.1717 30.362 18.1717 28.9139V27.7263H17V20.1531L17.6803 14.657C17.8693 13.6656 18.474 13.269 19.3812 12.8724C20.2754 12.4815 22.4186 12.0135 24 12.0003ZM28.8177 25.3522C29.3527 25.3522 29.7865 24.897 29.7865 24.3357C29.7865 23.7743 29.3527 23.3191 28.8177 23.3191C28.2826 23.3191 27.8488 23.7743 27.8488 24.3357C27.8488 24.897 28.2826 25.3522 28.8177 25.3522ZM18.2135 24.3357C18.2135 24.897 18.6473 25.3522 19.1824 25.3522C19.7174 25.3522 20.1512 24.897 20.1512 24.3357C20.1512 23.7743 19.7174 23.3191 19.1824 23.3191C18.6473 23.3191 18.2135 23.7743 18.2135 24.3357ZM23.9251 14.2802H21.1199C20.5529 14.2802 20.5529 13.388 21.1199 13.388H23.932H26.8801C27.4471 13.388 27.4471 14.2802 26.8801 14.2802H23.9251ZM19.5914 15.1811H23.9251H28.4086C29.0075 15.1811 29.164 15.5004 29.2367 15.9847L29.7662 19.9709C29.8156 20.353 29.7103 20.7323 29.2071 20.7323H23.932H18.7929C18.2897 20.7323 18.1844 20.353 18.2338 19.9709L18.7633 15.9847C18.836 15.5004 18.9925 15.1811 19.5914 15.1811Z" fill="#E9E9E9"/>
<defs>
<filter id="filter0_d_16611_153358" x="3" y="1" width="42.4517" height="48" filterUnits="userSpaceOnUse" color-interpolation-filters="sRGB">
<feFlood flood-opacity="0" result="BackgroundImageFix"/>
<feColorMatrix in="SourceAlpha" type="matrix" values="0 0 0 0 0 0 0 0 0 0 0 0 0 0 0 0 0 0 127 0" result="hardAlpha"/>
<feOffset dy="1"/>
<feGaussianBlur stdDeviation="1"/>
<feComposite in2="hardAlpha" operator="out"/>
<feColorMatrix type="matrix" values="0 0 0 0 0 0 0 0 0 0 0 0 0 0 0 0 0 0 0.1 0"/>
<feBlend mode="normal" in2="BackgroundImageFix" result="effect1_dropShadow_16611_153358"/>
<feBlend mode="normal" in="SourceGraphic" in2="effect1_dropShadow_16611_153358" result="shape"/>
</filter>
<filter id="filter1_i_16611_153358" x="8.49561" y="5.50586" width="31.4604" height="32.46" filterUnits="userSpaceOnUse" color-interpolation-filters="sRGB">
<feFlood flood-opacity="0" result="BackgroundImageFix"/>
<feBlend mode="normal" in="SourceGraphic" in2="BackgroundImageFix" result="shape"/>
<feColorMatrix in="SourceAlpha" type="matrix" values="0 0 0 0 0 0 0 0 0 0 0 0 0 0 0 0 0 0 127 0" result="hardAlpha"/>
<feOffset dy="1"/>
<feGaussianBlur stdDeviation="1"/>
<feComposite in2="hardAlpha" operator="arithmetic" k2="-1" k3="1"/>
<feColorMatrix type="matrix" values="0 0 0 0 0 0 0 0 0 0 0 0 0 0 0 0 0 0 0.15 0"/>
<feBlend mode="normal" in2="shape" result="effect1_innerShadow_16611_153358"/>
</filter>
<linearGradient id="paint0_linear_16611_153358" x1="24.2258" y1="2" x2="24.2258" y2="46" gradientUnits="userSpaceOnUse">
<stop stop-color="#D1F06C"/>
<stop offset="0.48" stop-color="#5DAC15"/>
<stop offset="1" stop-color="#308C03"/>
</linearGradient>
</defs>
</svg>
