<svg width="48" height="48" viewBox="0 0 48 48" fill="none" xmlns="http://www.w3.org/2000/svg">
<path fill-rule="evenodd" clip-rule="evenodd" d="M8 43.3168V3.68406C8 3.30778 8.35664 3 8.79265 3H38.8892C39.3252 3 39.6818 3.30778 39.6818 3.68406V43.3168C39.6818 43.6931 39.3252 44 38.8892 44H8.79265C8.35664 44 8 43.6922 8 43.3168Z" fill="black"/>
<path fill-rule="evenodd" clip-rule="evenodd" d="M8.39697 43.1729V3.82714C8.39697 3.5341 8.67425 3.29395 9.01482 3.29395H38.6683C39.0079 3.29395 39.2861 3.5341 39.2861 3.82714V43.1729C39.2861 43.466 39.0079 43.7061 38.6683 43.7061H9.01482C8.67425 43.7061 8.39697 43.466 8.39697 43.1729Z" fill="#0C242E"/>
<path fill-rule="evenodd" clip-rule="evenodd" d="M10.2622 22.5239V18.6191H37.41V22.5239H10.2622Z" fill="url(#paint0_linear_16611_153003)"/>
<path fill-rule="evenodd" clip-rule="evenodd" d="M10.2622 22.5236V4.95215H37.41V22.5236H10.2622Z" fill="url(#paint1_linear_16611_153003)"/>
<path fill-rule="evenodd" clip-rule="evenodd" d="M10.2622 42.0472V22.5234H37.41V42.0472H10.2622Z" fill="url(#paint2_linear_16611_153003)"/>
<path opacity="0.2" fill-rule="evenodd" clip-rule="evenodd" d="M37.41 42.048V11.7861L10.2622 16.9823V42.048H37.41Z" fill="url(#paint3_linear_16611_153003)"/>
<path opacity="0.2" fill-rule="evenodd" clip-rule="evenodd" d="M12.9026 23.748H34.7793C35.4474 23.748 35.9949 24.1209 35.9949 24.5769V39.4961C35.9949 39.9521 35.4484 40.3249 34.7793 40.3249H12.9026C12.2345 40.3249 11.687 39.9521 11.687 39.4961V24.5769C11.687 24.1209 12.2345 23.748 12.9026 23.748Z" fill="#606060"/>
<path opacity="0.2" fill-rule="evenodd" clip-rule="evenodd" d="M12.9031 23.748H34.7798C35.4478 23.748 35.9954 24.1209 35.9954 24.5769C35.5835 24.4148 35.3775 24.1321 32.1456 24.133L14.4251 24.1347C12.6178 24.1347 11.9517 24.3966 11.6885 24.5778C11.6885 24.1217 12.236 23.7489 12.9041 23.7489L12.9031 23.748Z" fill="#606060"/>
<path d="M13.707 27.4288V25.4824H15.9614" stroke="#606161" stroke-miterlimit="10"/>
<path d="M31.731 25.5674H33.9853V27.5129" stroke="#606161" stroke-miterlimit="10"/>
<path d="M33.9853 36.6455V38.591H31.731" stroke="#606161" stroke-miterlimit="10"/>
<path d="M15.9614 38.506H13.707V36.5596" stroke="#606161" stroke-miterlimit="10"/>
<path fill-rule="evenodd" clip-rule="evenodd" d="M37.7276 1.81055C42.2446 1.81055 45.9181 5.48402 45.9181 10.001C45.9181 14.518 42.2446 18.1915 37.7276 18.1915C33.2106 18.1915 29.5371 14.518 29.5371 10.001C29.5371 5.48402 33.2106 1.81055 37.7276 1.81055Z" fill="#004976"/>
<path fill-rule="evenodd" clip-rule="evenodd" d="M39.1837 1.40149C39.0748 1.38789 39.0068 1.29265 39.0068 1.19741V0.245031C39.0068 0.122582 38.9116 0.0273438 38.7891 0.0273438H37.1973C37.0748 0.0273438 36.9796 0.122582 36.9796 0.245031V1.19741C36.9796 1.30625 36.898 1.38789 36.7891 1.40149C36.0544 1.49673 35.3469 1.68721 34.6939 1.95932C34.5986 2.00013 34.4898 1.95932 34.4354 1.86408L33.9592 1.03415C33.9048 0.938908 33.7687 0.898092 33.6735 0.952514L32.2993 1.74163C32.2041 1.79605 32.1633 1.93211 32.2177 2.02734L32.6939 2.85728C32.7483 2.95251 32.7211 3.06136 32.6395 3.12938C32.068 3.57836 31.551 4.09537 31.102 4.6668C31.034 4.74843 30.9252 4.77564 30.8299 4.72122L30 4.24503C29.9048 4.19061 29.7687 4.21782 29.7143 4.32666L28.9252 5.70081C28.8707 5.79605 28.898 5.93211 29.0068 5.98653L29.8367 6.46272C29.932 6.51714 29.9728 6.62598 29.932 6.72122C29.6599 7.38789 29.4694 8.09537 29.3741 8.81646C29.3605 8.9253 29.2653 8.99333 29.1701 8.99333H28.2177C28.0952 8.99333 28 9.08857 28 9.21102V10.8029C28 10.9253 28.0952 11.0205 28.2177 11.0205H29.1701C29.2789 11.0205 29.3605 11.1022 29.3741 11.1974C29.4694 11.9321 29.6599 12.6396 29.932 13.2927C29.9728 13.3879 29.932 13.4967 29.8367 13.5512L29.0068 14.0273C28.9116 14.0818 28.8707 14.2178 28.9252 14.3131L29.7143 15.6872C29.7687 15.7824 29.9048 15.8233 30 15.7688L30.8299 15.2927C30.9252 15.2382 31.034 15.2654 31.102 15.3471C31.551 15.9185 32.068 16.4355 32.6395 16.8845C32.7211 16.9525 32.7483 17.0614 32.6939 17.1566L32.2177 17.9865C32.1633 18.0818 32.1905 18.2178 32.2993 18.2722L33.6735 19.0614C33.7687 19.1158 33.9048 19.0886 33.9592 18.9797L34.4354 18.1498C34.4898 18.0546 34.5986 18.0137 34.6939 18.0546C35.3605 18.3267 36.068 18.5171 36.7891 18.6124C36.898 18.626 36.9796 18.7212 36.9796 18.8165V19.7688C36.9796 19.8913 37.0748 19.9865 37.1973 19.9865H38.7891C38.9116 19.9865 39.0068 19.8913 39.0068 19.7688V18.8165C39.0068 18.7076 39.0884 18.626 39.1837 18.6124C39.9184 18.5171 40.6259 18.3267 41.2789 18.0546C41.3742 18.0137 41.483 18.0546 41.5374 18.1498L42.0136 18.9797C42.068 19.075 42.2041 19.1158 42.2993 19.0614L43.6735 18.2722C43.7687 18.2178 43.8095 18.0818 43.7551 17.9865L43.2789 17.1566C43.2245 17.0614 43.2517 16.9525 43.3333 16.8845C43.9048 16.4355 44.4218 15.9185 44.8707 15.3471C44.9388 15.2654 45.0476 15.2382 45.1429 15.2927L45.9728 15.7688C46.068 15.8233 46.2041 15.7961 46.2585 15.6872L47.0476 14.3131C47.102 14.2178 47.0748 14.0818 46.966 14.0273L46.1361 13.5512C46.0408 13.4967 46 13.3879 46.0408 13.2927C46.3129 12.626 46.5034 11.9185 46.5986 11.1974C46.6122 11.0886 46.7075 11.0205 46.8027 11.0205H47.7551C47.8776 11.0205 47.9728 10.9253 47.9728 10.8029V9.21102C47.9728 9.08857 47.8776 8.99333 47.7551 8.99333H46.8027C46.6939 8.99333 46.6122 8.9117 46.5986 8.81646C46.5034 8.08177 46.3129 7.37428 46.0408 6.72122C46 6.62598 46.0408 6.51714 46.1361 6.46272L46.966 5.98653C47.0612 5.93211 47.102 5.79605 47.0476 5.70081L46.2585 4.32666C46.2041 4.23143 46.068 4.19061 45.9728 4.24503L45.1429 4.72122C45.0476 4.77564 44.9388 4.74843 44.8707 4.6668C44.4218 4.09537 43.9048 3.57836 43.3333 3.12938C43.2517 3.06136 43.2245 2.95251 43.2789 2.85728L43.7551 2.02734C43.8095 1.93211 43.7823 1.79605 43.6735 1.74163L42.2993 0.952514C42.2041 0.898092 42.068 0.925303 42.0136 1.03415L41.5374 1.86408C41.483 1.95932 41.3742 2.00013 41.2789 1.95932C40.6122 1.68721 39.9048 1.49673 39.1837 1.40149Z" fill="url(#paint4_radial_16611_153003)"/>
<path fill-rule="evenodd" clip-rule="evenodd" d="M37.9999 1.32031C42.8162 1.32031 46.721 5.22507 46.721 10.0278C46.721 14.8305 42.8162 18.7489 37.9999 18.7489C33.1836 18.7489 29.2788 14.8441 29.2788 10.0278C29.2788 5.21147 33.1836 1.32031 37.9999 1.32031Z" fill="url(#paint5_linear_16611_153003)"/>
<path fill-rule="evenodd" clip-rule="evenodd" d="M37.9989 18.5584C33.2915 18.5584 29.4819 14.7489 29.4819 10.0414C29.4819 5.33394 33.2915 1.52441 37.9989 1.52441C42.7064 1.52441 46.5159 5.33394 46.5159 10.0414C46.5159 14.7489 42.7064 18.5584 37.9989 18.5584Z" fill="url(#paint6_linear_16611_153003)"/>
<path fill-rule="evenodd" clip-rule="evenodd" d="M37.9999 18.3533C33.4012 18.3533 29.6733 14.6254 29.6733 10.0267C29.6733 5.42809 33.4012 1.7002 37.9999 1.7002C42.5985 1.7002 46.3264 5.42809 46.3264 10.0267C46.3264 14.6254 42.5985 18.3533 37.9999 18.3533Z" fill="url(#paint7_linear_16611_153003)"/>
<path fill-rule="evenodd" clip-rule="evenodd" d="M37.9994 18.1629C33.5096 18.1629 29.877 14.5166 29.877 10.0404C29.877 5.56423 33.5232 1.91797 37.9994 1.91797C42.4756 1.91797 46.1219 5.56423 46.1219 10.0404C46.1219 14.5166 42.4756 18.1629 37.9994 18.1629Z" fill="url(#paint8_linear_16611_153003)"/>
<path fill-rule="evenodd" clip-rule="evenodd" d="M38.0003 17.9587C33.6194 17.9587 30.0684 14.4077 30.0684 10.0267C30.0684 5.64575 33.6194 2.09473 38.0003 2.09473C42.3813 2.09473 45.9323 5.64575 45.9323 10.0267C45.9323 14.4077 42.3813 17.9587 38.0003 17.9587Z" fill="url(#paint9_linear_16611_153003)"/>
<path fill-rule="evenodd" clip-rule="evenodd" d="M38.0003 17.7692C33.7282 17.7692 30.2588 14.2998 30.2588 10.0277C30.2588 5.75559 33.7282 2.2998 38.0003 2.2998C42.2724 2.2998 45.7418 5.76919 45.7418 10.0277C45.7418 14.2862 42.2724 17.7692 38.0003 17.7692Z" fill="url(#paint10_linear_16611_153003)"/>
<path fill-rule="evenodd" clip-rule="evenodd" d="M38.0008 17.5787C33.8375 17.5787 30.4634 14.2046 30.4634 10.0413C30.4634 5.87806 33.8375 2.50391 38.0008 2.50391C42.1641 2.50391 45.5382 5.87806 45.5382 10.0413C45.5382 14.2046 42.1641 17.5787 38.0008 17.5787Z" fill="url(#paint11_linear_16611_153003)"/>
<path fill-rule="evenodd" clip-rule="evenodd" d="M37.9998 17.3745C33.9453 17.3745 30.6528 14.082 30.6528 10.0276C30.6528 5.97318 33.9453 2.68066 37.9998 2.68066C42.0542 2.68066 45.3467 5.97318 45.3467 10.0276C45.3467 14.082 42.0542 17.3745 37.9998 17.3745Z" fill="url(#paint12_linear_16611_153003)"/>
<path fill-rule="evenodd" clip-rule="evenodd" d="M37.9998 17.1842C34.0542 17.1842 30.8569 13.9869 30.8569 10.0413C30.8569 6.09572 34.0542 2.89844 37.9998 2.89844C41.9454 2.89844 45.1426 6.09572 45.1426 10.0413C45.1426 13.9869 41.9454 17.1842 37.9998 17.1842Z" fill="url(#paint13_linear_16611_153003)"/>
<path fill-rule="evenodd" clip-rule="evenodd" d="M37.9993 16.98C34.1625 16.98 31.0469 13.8643 31.0469 10.0276C31.0469 6.19084 34.1625 3.0752 37.9993 3.0752C41.836 3.0752 44.9516 6.19084 44.9516 10.0276C44.9516 13.8643 41.836 16.98 37.9993 16.98Z" fill="url(#paint14_linear_16611_153003)"/>
<path fill-rule="evenodd" clip-rule="evenodd" d="M38.0002 16.7885C34.2723 16.7885 31.2383 13.7545 31.2383 10.0266C31.2383 6.29873 34.2723 3.27832 38.0002 3.27832C41.7281 3.27832 44.7621 6.31233 44.7621 10.0266C44.7621 13.7409 41.7281 16.7885 38.0002 16.7885Z" fill="url(#paint15_linear_16611_153003)"/>
<path fill-rule="evenodd" clip-rule="evenodd" d="M38.0007 16.5854C34.3816 16.5854 31.4429 13.6466 31.4429 10.0276C31.4429 6.4085 34.3816 3.46973 38.0007 3.46973C41.6197 3.46973 44.5585 6.4085 44.5585 10.0276C44.5585 13.6466 41.6197 16.5854 38.0007 16.5854Z" fill="url(#paint16_linear_16611_153003)"/>
<path fill-rule="evenodd" clip-rule="evenodd" d="M38.0002 16.3949C34.49 16.3949 31.6328 13.5377 31.6328 10.0275C31.6328 6.5173 34.49 3.66016 38.0002 3.66016C41.5104 3.66016 44.3675 6.5173 44.3675 10.0275C44.3675 13.5377 41.5104 16.3949 38.0002 16.3949Z" fill="url(#paint17_linear_16611_153003)"/>
<path fill-rule="evenodd" clip-rule="evenodd" d="M37.9992 16.2045C34.5978 16.2045 31.8359 13.4426 31.8359 10.0412C31.8359 6.63984 34.5978 3.87793 37.9992 3.87793C41.4006 3.87793 44.1625 6.63984 44.1625 10.0412C44.1625 13.4426 41.4006 16.2045 37.9992 16.2045Z" fill="url(#paint18_linear_16611_153003)"/>
<path fill-rule="evenodd" clip-rule="evenodd" d="M38.0001 16.0003C34.7076 16.0003 32.0273 13.32 32.0273 10.0275C32.0273 6.73496 34.7076 4.05469 38.0001 4.05469C41.2927 4.05469 43.9729 6.73496 43.9729 10.0275C43.9729 13.32 41.2927 16.0003 38.0001 16.0003Z" fill="url(#paint19_linear_16611_153003)"/>
<path fill-rule="evenodd" clip-rule="evenodd" d="M38.0001 15.8098C34.8164 15.8098 32.2178 13.2248 32.2178 10.0275C32.2178 6.83022 34.8028 4.25879 38.0001 4.25879C41.1974 4.25879 43.7824 6.84382 43.7824 10.0275C43.7824 13.2112 41.1974 15.8098 38.0001 15.8098Z" fill="url(#paint20_linear_16611_153003)"/>
<path fill-rule="evenodd" clip-rule="evenodd" d="M37.9996 15.6057C34.9248 15.6057 32.4214 13.1023 32.4214 10.0275C32.4214 6.95262 34.9248 4.44922 37.9996 4.44922C41.0744 4.44922 43.5778 6.95262 43.5778 10.0275C43.5778 13.1023 41.0744 15.6057 37.9996 15.6057Z" fill="url(#paint21_linear_16611_153003)"/>
<path fill-rule="evenodd" clip-rule="evenodd" d="M37.9996 15.4152C35.0336 15.4152 32.6118 12.9934 32.6118 10.0274C32.6118 7.06142 35.0336 4.63965 37.9996 4.63965C40.9656 4.63965 43.3873 7.06142 43.3873 10.0274C43.3873 12.9934 40.9656 15.4152 37.9996 15.4152Z" fill="url(#paint22_linear_16611_153003)"/>
<path fill-rule="evenodd" clip-rule="evenodd" d="M38.0006 15.2248C35.1434 15.2248 32.8169 12.8982 32.8169 10.0411C32.8169 7.18395 35.1434 4.85742 38.0006 4.85742C40.8577 4.85742 43.1842 7.18395 43.1842 10.0411C43.1842 12.8982 40.8577 15.2248 38.0006 15.2248Z" fill="url(#paint23_linear_16611_153003)"/>
<path fill-rule="evenodd" clip-rule="evenodd" d="M38.0005 15.0206C35.2522 15.0206 33.0073 12.7757 33.0073 10.0274C33.0073 7.27908 35.2522 5.03418 38.0005 5.03418C40.7488 5.03418 42.9937 7.27908 42.9937 10.0274C42.9937 12.7757 40.7488 15.0206 38.0005 15.0206Z" fill="url(#paint24_linear_16611_153003)"/>
<path fill-rule="evenodd" clip-rule="evenodd" d="M37.999 14.8302C35.3596 14.8302 33.1963 12.6805 33.1963 10.0411C33.1963 7.40161 35.3459 5.25195 37.999 5.25195C40.6521 5.25195 42.7881 7.40161 42.7881 10.0411C42.7881 12.6805 40.6385 14.8302 37.999 14.8302Z" fill="url(#paint25_linear_16611_153003)"/>
<path fill-rule="evenodd" clip-rule="evenodd" d="M37.9995 14.626C40.5301 14.626 42.5982 12.558 42.5982 10.0274C42.5982 7.49674 40.5301 5.42871 37.9995 5.42871C35.4689 5.42871 33.4009 7.49674 33.4009 10.0274C33.4009 12.558 35.4689 14.626 37.9995 14.626Z" fill="url(#paint26_linear_16611_153003)"/>
<path fill-rule="evenodd" clip-rule="evenodd" d="M38.0005 2.68066C42.0413 2.68066 45.3066 5.94597 45.3066 9.98679C45.3066 14.0276 42.0413 17.2929 38.0005 17.2929C33.9596 17.2929 30.6943 14.0276 30.6943 9.98679C30.6943 5.94597 33.9596 2.68066 38.0005 2.68066Z" fill="url(#paint27_linear_16611_153003)"/>
<path fill-rule="evenodd" clip-rule="evenodd" d="M38.0002 17.2787C33.9866 17.2787 30.7349 14.027 30.7349 10.0134C30.7349 5.99975 33.9866 2.74805 38.0002 2.74805C42.0138 2.74805 45.2655 5.99975 45.2655 10.0134C45.2655 14.027 42.0138 17.2787 38.0002 17.2787Z" fill="url(#paint28_linear_16611_153003)"/>
<path fill-rule="evenodd" clip-rule="evenodd" d="M38.0008 17.2789C34.0008 17.2789 30.7627 14.0408 30.7627 10.0408C30.7627 6.04083 34.0008 2.80273 38.0008 2.80273C42.0008 2.80273 45.2389 6.04083 45.2389 10.0408C45.2389 14.0408 42.0008 17.2789 38.0008 17.2789Z" fill="url(#paint29_linear_16611_153003)"/>
<path fill-rule="evenodd" clip-rule="evenodd" d="M38.0005 17.2657C34.0277 17.2657 30.8032 14.0412 30.8032 10.0684C30.8032 6.09558 34.0277 2.87109 38.0005 2.87109C41.9733 2.87109 45.1978 6.09558 45.1978 10.0684C45.1978 14.0412 41.9733 17.2657 38.0005 17.2657Z" fill="url(#paint30_linear_16611_153003)"/>
<path fill-rule="evenodd" clip-rule="evenodd" d="M38.0007 17.2651C34.0415 17.2651 30.8442 14.0542 30.8442 10.1086C30.8442 6.16303 34.0551 2.95215 38.0007 2.95215C41.9463 2.95215 45.1572 6.16303 45.1572 10.1086C45.1572 14.0542 41.9463 17.2651 38.0007 17.2651Z" fill="url(#paint31_linear_16611_153003)"/>
<path fill-rule="evenodd" clip-rule="evenodd" d="M37.9999 17.2517C34.0679 17.2517 30.8706 14.0544 30.8706 10.1224C30.8706 6.19044 34.0679 2.99316 37.9999 2.99316C41.9318 2.99316 45.1291 6.19044 45.1291 10.1224C45.1291 14.0544 41.9318 17.2517 37.9999 17.2517Z" fill="url(#paint32_linear_16611_153003)"/>
<path fill-rule="evenodd" clip-rule="evenodd" d="M38.0005 17.2521C34.0822 17.2521 30.9121 14.0684 30.9121 10.1636C30.9121 6.25887 34.0958 3.0752 38.0005 3.0752C41.9053 3.0752 45.089 6.25887 45.089 10.1636C45.089 14.0684 41.9053 17.2521 38.0005 17.2521Z" fill="url(#paint33_linear_16611_153003)"/>
<path fill-rule="evenodd" clip-rule="evenodd" d="M38.0003 17.2378C34.1091 17.2378 30.9526 14.0814 30.9526 10.1902C30.9526 6.29904 34.1091 3.14258 38.0003 3.14258C41.8914 3.14258 45.0479 6.29904 45.0479 10.1902C45.0479 14.0814 41.8914 17.2378 38.0003 17.2378Z" fill="url(#paint34_linear_16611_153003)"/>
<path fill-rule="evenodd" clip-rule="evenodd" d="M37.9999 17.2254C34.1223 17.2254 30.9795 14.0825 30.9795 10.205C30.9795 6.32743 34.1223 3.18457 37.9999 3.18457C41.8775 3.18457 45.0203 6.32743 45.0203 10.205C45.0203 14.0825 41.8775 17.2254 37.9999 17.2254Z" fill="url(#paint35_linear_16611_153003)"/>
<path fill-rule="evenodd" clip-rule="evenodd" d="M38.0006 17.2248C34.1502 17.2248 31.021 14.0956 31.021 10.2452C31.021 6.39488 34.1502 3.26562 38.0006 3.26562C41.8509 3.26562 44.9802 6.39488 44.9802 10.2452C44.9802 14.0956 41.8509 17.2248 38.0006 17.2248Z" fill="url(#paint36_linear_16611_153003)"/>
<path fill-rule="evenodd" clip-rule="evenodd" d="M38.0008 17.2115C34.1641 17.2115 31.062 14.0959 31.062 10.2728C31.062 6.44963 34.1777 3.33398 38.0008 3.33398C41.8239 3.33398 44.9396 6.44963 44.9396 10.2728C44.9396 14.0959 41.8239 17.2115 38.0008 17.2115Z" fill="url(#paint37_linear_16611_153003)"/>
<path fill-rule="evenodd" clip-rule="evenodd" d="M38.0004 17.2108C34.1909 17.2108 31.0889 14.1088 31.0889 10.2993C31.0889 6.48974 34.1909 3.3877 38.0004 3.3877C41.81 3.3877 44.912 6.48974 44.912 10.2993C44.912 14.1088 41.81 17.2108 38.0004 17.2108Z" fill="url(#paint38_linear_16611_153003)"/>
<path fill-rule="evenodd" clip-rule="evenodd" d="M38.0001 17.1966C34.2042 17.1966 31.1294 14.1081 31.1294 10.3258C31.1294 6.54351 34.2178 3.45508 38.0001 3.45508C41.7825 3.45508 44.8709 6.54351 44.8709 10.3258C44.8709 14.1081 41.7825 17.1966 38.0001 17.1966Z" fill="url(#paint39_linear_16611_153003)"/>
<path fill-rule="evenodd" clip-rule="evenodd" d="M38.0008 17.1979C34.2321 17.1979 31.1572 14.1367 31.1572 10.3543C31.1572 6.57203 34.2185 3.52441 38.0008 3.52441C41.7831 3.52441 44.8307 6.58564 44.8307 10.3543C44.8307 14.1231 41.7695 17.1979 38.0008 17.1979Z" fill="url(#paint40_linear_16611_153003)"/>
<path fill-rule="evenodd" clip-rule="evenodd" d="M38 17.1836C34.2449 17.1836 31.1973 14.1359 31.1973 10.3808C31.1973 6.62575 34.2449 3.57812 38 3.57812C41.7551 3.57812 44.8027 6.62575 44.8027 10.3808C44.8027 14.1359 41.7551 17.1836 38 17.1836Z" fill="url(#paint41_linear_16611_153003)"/>
<path fill-rule="evenodd" clip-rule="evenodd" d="M38.0002 17.184C34.2723 17.184 31.2383 14.15 31.2383 10.4221C31.2383 6.69417 34.2723 3.66016 38.0002 3.66016C41.7281 3.66016 44.7621 6.69417 44.7621 10.4221C44.7621 14.15 41.7281 17.184 38.0002 17.184Z" fill="url(#paint42_linear_16611_153003)"/>
<path fill-rule="evenodd" clip-rule="evenodd" d="M38.0003 17.1706C34.286 17.1706 31.2656 14.1502 31.2656 10.4359C31.2656 6.72158 34.286 3.70117 38.0003 3.70117C41.7146 3.70117 44.735 6.72158 44.735 10.4359C44.735 14.1502 41.7146 17.1706 38.0003 17.1706Z" fill="url(#paint43_linear_16611_153003)"/>
<path fill-rule="evenodd" clip-rule="evenodd" d="M38.0005 17.1563C34.3134 17.1563 31.3066 14.1495 31.3066 10.4624C31.3066 6.77536 34.3134 3.76855 38.0005 3.76855C41.6876 3.76855 44.6944 6.77536 44.6944 10.4624C44.6944 14.1495 41.6876 17.1563 38.0005 17.1563Z" fill="url(#paint44_linear_16611_153003)"/>
<path fill-rule="evenodd" clip-rule="evenodd" d="M38.0002 17.1567C34.3268 17.1567 31.3472 14.1635 31.3472 10.5036C31.3472 6.84378 34.3404 3.85059 38.0002 3.85059C41.6601 3.85059 44.6533 6.84378 44.6533 10.5036C44.6533 14.1635 41.6601 17.1567 38.0002 17.1567Z" fill="url(#paint45_linear_16611_153003)"/>
<path fill-rule="evenodd" clip-rule="evenodd" d="M38.0009 17.1433C34.3546 17.1433 31.375 14.1637 31.375 10.5175C31.375 6.87119 34.341 3.8916 38.0009 3.8916C41.6607 3.8916 44.6267 6.87119 44.6267 10.5175C44.6267 14.1637 41.6607 17.1433 38.0009 17.1433Z" fill="url(#paint46_linear_16611_153003)"/>
<path fill-rule="evenodd" clip-rule="evenodd" d="M38.0001 17.1437C34.3674 17.1437 31.415 14.1913 31.415 10.5587C31.415 6.92601 34.3674 3.97363 38.0001 3.97363C41.6327 3.97363 44.5851 6.92601 44.5851 10.5587C44.5851 14.1913 41.6327 17.1437 38.0001 17.1437Z" fill="url(#paint47_linear_16611_153003)"/>
<path fill-rule="evenodd" clip-rule="evenodd" d="M38.0008 17.1294C41.6062 17.1294 44.545 14.1907 44.545 10.5852C44.545 6.97979 41.6062 4.04102 38.0008 4.04102C34.3953 4.04102 31.4565 6.97979 31.4565 10.5852C31.4565 14.1907 34.3953 17.1294 38.0008 17.1294Z" fill="url(#paint48_linear_16611_153003)"/>
<path fill-rule="evenodd" clip-rule="evenodd" d="M38.0132 17.0753C41.5915 17.0753 44.503 14.1637 44.503 10.5855C44.503 7.00727 41.5915 4.0957 38.0132 4.0957C34.435 4.0957 31.5234 7.00727 31.5234 10.5855C31.5234 14.1637 34.435 17.0753 38.0132 17.0753Z" fill="url(#paint49_linear_16611_153003)"/>
<path fill-rule="evenodd" clip-rule="evenodd" d="M38.0135 17.0348C41.5509 17.0348 44.4489 14.1369 44.4489 10.5994C44.4489 7.06202 41.5645 4.16406 38.0135 4.16406C34.4625 4.16406 31.5781 7.06202 31.5781 10.5994C31.5781 14.1369 34.4625 17.0348 38.0135 17.0348Z" fill="url(#paint50_linear_16611_153003)"/>
<path fill-rule="evenodd" clip-rule="evenodd" d="M38.0275 16.9797C41.5377 16.9797 44.3948 14.1089 44.3948 10.5987C44.3948 7.08852 41.5377 4.21777 38.0275 4.21777C34.5173 4.21777 31.6602 7.08852 31.6602 10.5987C31.6602 14.1089 34.5173 16.9797 38.0275 16.9797Z" fill="url(#paint51_linear_16611_153003)"/>
<path fill-rule="evenodd" clip-rule="evenodd" d="M38.0273 16.9255C41.5103 16.9255 44.3402 14.082 44.3402 10.599C44.3402 7.116 41.5103 4.27246 38.0273 4.27246C34.5443 4.27246 31.7144 7.116 31.7144 10.599C31.7144 14.082 34.5443 16.9255 38.0273 16.9255Z" fill="url(#paint52_linear_16611_153003)"/>
<path fill-rule="evenodd" clip-rule="evenodd" d="M38.0412 16.8704C41.4834 16.8704 44.2997 14.0541 44.2997 10.5983C44.2997 7.1425 41.4834 4.32617 38.0412 4.32617C34.599 4.32617 31.7827 7.1425 31.7827 10.5983C31.7827 14.0541 34.599 16.8704 38.0412 16.8704Z" fill="url(#paint53_linear_16611_153003)"/>
<path fill-rule="evenodd" clip-rule="evenodd" d="M38.0552 16.8172C41.4701 16.8172 44.2592 14.0281 44.2592 10.5995C44.2592 7.17095 41.4701 4.38184 38.0552 4.38184C34.6402 4.38184 31.8511 7.17095 31.8511 10.5995C31.8511 14.0281 34.6402 16.8172 38.0552 16.8172Z" fill="url(#paint54_linear_16611_153003)"/>
<path fill-rule="evenodd" clip-rule="evenodd" d="M38.055 16.7621C41.4428 16.7621 44.1911 13.9866 44.1911 10.5988C44.1911 7.21106 41.4291 4.43555 38.055 4.43555C34.6808 4.43555 31.9189 7.21106 31.9189 10.5988C31.9189 13.9866 34.6808 16.7621 38.055 16.7621Z" fill="url(#paint55_linear_16611_153003)"/>
<path fill-rule="evenodd" clip-rule="evenodd" d="M38.0689 16.7206C41.4159 16.7206 44.1506 13.9723 44.1506 10.6118C44.1506 7.25123 41.4159 4.50293 38.0689 4.50293C34.722 4.50293 31.9873 7.25123 31.9873 10.6118C31.9873 13.9723 34.722 16.7206 38.0689 16.7206Z" fill="url(#paint56_linear_16611_153003)"/>
<path fill-rule="evenodd" clip-rule="evenodd" d="M38.0682 16.6674C41.388 16.6674 44.0954 13.9463 44.0954 10.613C44.0954 7.27968 41.388 4.55859 38.0682 4.55859C34.7485 4.55859 32.041 7.27968 32.041 10.613C32.041 13.9463 34.7485 16.6674 38.0682 16.6674Z" fill="url(#paint57_linear_16611_153003)"/>
<path fill-rule="evenodd" clip-rule="evenodd" d="M38.0822 16.6123C41.3611 16.6123 44.0414 13.9184 44.0414 10.6123C44.0414 7.30618 41.3611 4.6123 38.0822 4.6123C34.8033 4.6123 32.123 7.30618 32.123 10.6123C32.123 13.9184 34.8033 16.6123 38.0822 16.6123Z" fill="url(#paint58_linear_16611_153003)"/>
<path fill-rule="evenodd" clip-rule="evenodd" d="M38.0962 16.5572C41.3479 16.5572 44.0009 13.8905 44.0009 10.6116C44.0009 7.33268 41.3479 4.66602 38.0962 4.66602C34.8445 4.66602 32.1914 7.33268 32.1914 10.6116C32.1914 13.8905 34.8445 16.5572 38.0962 16.5572Z" fill="url(#paint59_linear_16611_153003)"/>
<path fill-rule="evenodd" clip-rule="evenodd" d="M38.0955 16.504C41.3199 16.504 43.9458 13.8509 43.9458 10.6128C43.9458 7.37474 41.3199 4.72168 38.0955 4.72168C34.871 4.72168 32.2451 7.37474 32.2451 10.6128C32.2451 13.8509 34.871 16.504 38.0955 16.504Z" fill="url(#paint60_linear_16611_153003)"/>
<path fill-rule="evenodd" clip-rule="evenodd" d="M38.1094 16.4498C41.2931 16.4498 43.9053 13.824 43.9053 10.6131C43.9053 7.40222 41.3067 4.77637 38.1094 4.77637C34.9121 4.77637 32.3135 7.40222 32.3135 10.6131C32.3135 13.824 34.9121 16.4498 38.1094 16.4498Z" fill="url(#paint61_linear_16611_153003)"/>
<path fill-rule="evenodd" clip-rule="evenodd" d="M38.1097 16.3947C41.2662 16.3947 43.8376 13.7961 43.8376 10.6124C43.8376 7.42872 41.2662 4.83008 38.1097 4.83008C34.9533 4.83008 32.3818 7.42872 32.3818 10.6124C32.3818 13.7961 34.9533 16.3947 38.1097 16.3947Z" fill="url(#paint62_linear_16611_153003)"/>
<path fill-rule="evenodd" clip-rule="evenodd" d="M38.1227 16.3542C41.2519 16.3542 43.7962 13.7828 43.7962 10.6263C43.7962 7.46987 41.2519 4.89844 38.1227 4.89844C34.9934 4.89844 32.4492 7.46987 32.4492 10.6263C32.4492 13.7828 34.9934 16.3542 38.1227 16.3542Z" fill="url(#paint63_linear_16611_153003)"/>
<path fill-rule="evenodd" clip-rule="evenodd" d="M38.1366 16.2991C41.2251 16.2991 43.7557 13.7549 43.7557 10.6256C43.7557 7.49637 41.2387 4.95215 38.1366 4.95215C35.0346 4.95215 32.5176 7.49637 32.5176 10.6256C32.5176 13.7549 35.0346 16.2991 38.1366 16.2991Z" fill="url(#paint64_linear_16611_153003)"/>
<path fill-rule="evenodd" clip-rule="evenodd" d="M38.1365 16.2449C41.1977 16.2449 43.6875 13.7143 43.6875 10.6259C43.6875 7.53745 41.1841 5.00684 38.1365 5.00684C35.0889 5.00684 32.5854 7.53745 32.5854 10.6259C32.5854 13.7143 35.0889 16.2449 38.1365 16.2449Z" fill="url(#paint65_linear_16611_153003)"/>
<path fill-rule="evenodd" clip-rule="evenodd" d="M38.1504 16.1918C41.1844 16.1918 43.647 13.6883 43.647 10.6271C43.647 7.5659 41.1708 5.0625 38.1504 5.0625C35.13 5.0625 32.6538 7.5659 32.6538 10.6271C32.6538 13.6883 35.13 16.1918 38.1504 16.1918Z" fill="url(#paint66_linear_16611_153003)"/>
<path fill-rule="evenodd" clip-rule="evenodd" d="M38.1643 16.1356C41.1575 16.1356 43.6065 13.6595 43.6065 10.6254C43.6065 7.59142 41.1575 5.11523 38.1643 5.11523C35.1711 5.11523 32.7222 7.59142 32.7222 10.6254C32.7222 13.6595 35.1711 16.1356 38.1643 16.1356Z" fill="url(#paint67_linear_16611_153003)"/>
<path fill-rule="evenodd" clip-rule="evenodd" d="M38.1636 16.0815C41.1296 16.0815 43.5514 13.6325 43.5514 10.6257C43.5514 7.6189 41.1296 5.16992 38.1636 5.16992C35.1976 5.16992 32.7759 7.6189 32.7759 10.6257C32.7759 13.6325 35.1976 16.0815 38.1636 16.0815Z" fill="url(#paint68_linear_16611_153003)"/>
<path fill-rule="evenodd" clip-rule="evenodd" d="M38.1776 16.041C41.1164 16.041 43.4974 13.6192 43.4974 10.6396C43.4974 7.66005 41.1028 5.23828 38.1776 5.23828C35.2525 5.23828 32.8579 7.67366 32.8579 10.6396C32.8579 13.6056 35.2525 16.041 38.1776 16.041Z" fill="url(#paint69_linear_16611_153003)"/>
<path fill-rule="evenodd" clip-rule="evenodd" d="M38.136 15.9458C41.0204 15.9458 43.3741 13.5377 43.3741 10.5989C43.3741 7.66012 41.0204 5.25195 38.136 5.25195C35.2517 5.25195 32.8979 7.66012 32.8979 10.5989C32.8979 13.5377 35.2517 15.9458 38.136 15.9458Z" fill="url(#paint70_linear_16611_153003)"/>
<path fill-rule="evenodd" clip-rule="evenodd" d="M38.096 15.8634C40.9259 15.8634 43.2388 13.4824 43.2388 10.5708C43.2388 7.65927 40.9259 5.27832 38.096 5.27832C35.2661 5.27832 32.9531 7.65927 32.9531 10.5708C32.9531 13.4824 35.2661 15.8634 38.096 15.8634Z" fill="url(#paint71_linear_16611_153003)"/>
<path fill-rule="evenodd" clip-rule="evenodd" d="M38.0681 15.7828C40.8572 15.7828 43.1157 13.4291 43.1157 10.5447C43.1157 7.66038 40.8436 5.30664 38.0681 5.30664C35.2926 5.30664 33.0205 7.66038 33.0205 10.5447C33.0205 13.4291 35.2926 15.7828 38.0681 15.7828Z" fill="url(#paint72_linear_16611_153003)"/>
<path fill-rule="evenodd" clip-rule="evenodd" d="M38.028 15.6868C40.7627 15.6868 42.994 13.3603 42.994 10.5167C42.994 7.67321 40.7627 5.34668 38.028 5.34668C35.2933 5.34668 33.062 7.67321 33.062 10.5167C33.062 13.3603 35.2933 15.6868 38.028 15.6868Z" fill="url(#paint73_linear_16611_153003)"/>
<path fill-rule="evenodd" clip-rule="evenodd" d="M37.986 15.6063C40.6663 15.6063 42.8567 13.307 42.8567 10.4906C42.8567 7.67432 40.6663 5.375 37.986 5.375C35.3057 5.375 33.1152 7.67432 33.1152 10.4906C33.1152 13.307 35.3057 15.6063 37.986 15.6063Z" fill="url(#paint74_linear_16611_153003)"/>
<path fill-rule="evenodd" clip-rule="evenodd" d="M37.9595 15.5238C40.599 15.5238 42.7486 13.2517 42.7486 10.4626C42.7486 7.67348 40.599 5.40137 37.9595 5.40137C35.3201 5.40137 33.1704 7.67348 33.1704 10.4626C33.1704 13.2517 35.3201 15.5238 37.9595 15.5238Z" fill="url(#paint75_linear_16611_153003)"/>
<path fill-rule="evenodd" clip-rule="evenodd" d="M37.918 15.4288C40.503 15.4288 42.6119 13.1839 42.6119 10.4356C42.6119 7.68728 40.503 5.44238 37.918 5.44238C35.333 5.44238 33.2241 7.68728 33.2241 10.4356C33.2241 13.1839 35.333 15.4288 37.918 15.4288Z" fill="url(#paint76_linear_16611_153003)"/>
<path fill-rule="evenodd" clip-rule="evenodd" d="M37.8779 15.3463C40.4085 15.3463 42.4766 13.1286 42.4766 10.4075C42.4766 7.68644 40.4085 5.46875 37.8779 5.46875C35.3473 5.46875 33.2793 7.68644 33.2793 10.4075C33.2793 13.1286 35.3473 15.3463 37.8779 15.3463Z" fill="url(#paint77_linear_16611_153003)"/>
<path fill-rule="evenodd" clip-rule="evenodd" d="M37.8368 15.2648C40.3266 15.2648 42.3538 13.0743 42.3538 10.3804C42.3538 7.68657 40.3266 5.49609 37.8368 5.49609C35.347 5.49609 33.3198 7.68657 33.3198 10.3804C33.3198 13.0743 35.347 15.2648 37.8368 15.2648Z" fill="url(#paint78_linear_16611_153003)"/>
<path fill-rule="evenodd" clip-rule="evenodd" d="M37.81 15.1706C40.2453 15.1706 42.2317 13.0073 42.2317 10.3407C42.2317 7.67401 40.2453 5.51074 37.81 5.51074C35.3746 5.51074 33.3882 7.67401 33.3882 10.3407C33.3882 13.0073 35.3746 15.1706 37.81 15.1706Z" fill="url(#paint79_linear_16611_153003)"/>
<path fill-rule="evenodd" clip-rule="evenodd" d="M37.7694 15.0883C40.1504 15.0883 42.0959 12.9522 42.0959 10.3264C42.0959 7.70051 40.1504 5.56445 37.7694 5.56445C35.3884 5.56445 33.4429 7.70051 33.4429 10.3264C33.4429 12.9522 35.3884 15.0883 37.7694 15.0883Z" fill="url(#paint80_linear_16611_153003)"/>
<path fill-rule="evenodd" clip-rule="evenodd" d="M37.7288 15.0068C40.0689 15.0068 41.9737 12.8979 41.9737 10.2993C41.9737 7.70064 40.0689 5.5918 37.7288 5.5918C35.3886 5.5918 33.4839 7.70064 33.4839 10.2993C33.4839 12.8979 35.3886 15.0068 37.7288 15.0068Z" fill="url(#paint81_linear_16611_153003)"/>
<path fill-rule="evenodd" clip-rule="evenodd" d="M37.7004 14.9116C39.9862 14.9116 41.8501 12.8164 41.8501 10.2585C41.8501 7.70071 39.9862 5.60547 37.7004 5.60547C35.4147 5.60547 33.5508 7.70071 33.5508 10.2585C33.5508 12.8164 35.4147 14.9116 37.7004 14.9116Z" fill="url(#paint82_linear_16611_153003)"/>
<path fill-rule="evenodd" clip-rule="evenodd" d="M37.6604 14.8302C39.8917 14.8302 41.7284 12.7621 41.7284 10.2315C41.7284 7.70091 39.9053 5.64648 37.6604 5.64648C35.4155 5.64648 33.606 7.71451 33.606 10.2315C33.606 12.7485 35.4291 14.8302 37.6604 14.8302Z" fill="url(#paint83_linear_16611_153003)"/>
<path fill-rule="evenodd" clip-rule="evenodd" d="M37.6193 14.7487C39.8098 14.7487 41.5921 12.7079 41.5921 10.2181C41.5921 7.72832 39.8098 5.6875 37.6193 5.6875C35.4288 5.6875 33.6465 7.72832 33.6465 10.2181C33.6465 12.7079 35.4288 14.7487 37.6193 14.7487Z" fill="url(#paint84_linear_16611_153003)"/>
<path fill-rule="evenodd" clip-rule="evenodd" d="M37.5924 14.6536C39.7284 14.6536 41.4699 12.6399 41.4699 10.1774C41.4699 7.71478 39.7284 5.70117 37.5924 5.70117C35.4563 5.70117 33.7148 7.71478 33.7148 10.1774C33.7148 12.6399 35.4563 14.6536 37.5924 14.6536Z" fill="url(#paint85_linear_16611_153003)"/>
<path fill-rule="evenodd" clip-rule="evenodd" d="M37.5513 14.5721C39.6329 14.5721 41.3472 12.5857 41.3472 10.1503C41.3472 7.71491 39.6465 5.72852 37.5513 5.72852C35.4561 5.72852 33.7554 7.71491 33.7554 10.1503C33.7554 12.5857 35.4561 14.5721 37.5513 14.5721Z" fill="url(#paint86_linear_16611_153003)"/>
<path fill-rule="evenodd" clip-rule="evenodd" d="M37.5112 14.476C39.552 14.476 41.2119 12.5169 41.2119 10.1223C41.2119 7.72774 39.552 5.76855 37.5112 5.76855C35.4704 5.76855 33.8105 7.72774 33.8105 10.1223C33.8105 12.5169 35.4704 14.476 37.5112 14.476Z" fill="url(#paint87_linear_16611_153003)"/>
<path fill-rule="evenodd" clip-rule="evenodd" d="M37.4702 14.3945C39.4566 14.3945 41.0756 12.4626 41.0756 10.0952C41.0756 7.72787 39.4566 5.7959 37.4702 5.7959C35.4838 5.7959 33.8647 7.72787 33.8647 10.0952C33.8647 12.4626 35.4838 14.3945 37.4702 14.3945Z" fill="url(#paint88_linear_16611_153003)"/>
<path fill-rule="evenodd" clip-rule="evenodd" d="M37.4428 14.313C39.3883 14.313 40.9666 12.4083 40.9666 10.0681C40.9666 7.728 39.3883 5.82324 37.4428 5.82324C35.4972 5.82324 33.9189 7.728 33.9189 10.0681C33.9189 12.4083 35.4972 14.313 37.4428 14.313Z" fill="url(#paint89_linear_16611_153003)"/>
<path fill-rule="evenodd" clip-rule="evenodd" d="M37.4017 14.2179C39.2929 14.2179 40.8303 12.3403 40.8303 10.0274C40.8303 7.71447 39.2929 5.83691 37.4017 5.83691C35.5106 5.83691 33.9731 7.71447 33.9731 10.0274C33.9731 12.3403 35.5106 14.2179 37.4017 14.2179Z" fill="#00609B"/>
<path fill-rule="evenodd" clip-rule="evenodd" d="M37.9999 1.30664C42.7618 1.30664 46.6122 5.1978 46.6122 9.98691V10.0549C46.5714 5.29303 42.7346 1.4563 37.9999 1.4563C33.2652 1.4563 29.4149 5.30664 29.3877 10.0549V9.98691C29.3877 5.1978 33.2516 1.30664 37.9999 1.30664Z" fill="url(#paint90_linear_16611_153003)"/>
<path fill-rule="evenodd" clip-rule="evenodd" d="M37.9999 18.7893C42.7618 18.7893 46.6122 14.8982 46.6122 10.109V10.041C46.5714 14.8029 42.7346 18.6397 37.9999 18.6397C33.2652 18.6397 29.4149 14.7893 29.3877 10.041V10.109C29.3877 14.8982 33.2516 18.7893 37.9999 18.7893Z" fill="url(#paint91_linear_16611_153003)"/>
<path fill-rule="evenodd" clip-rule="evenodd" d="M39.1837 1.40136C39.9184 1.4966 40.6259 1.68707 41.2789 1.95918C41.3742 2 41.483 1.95918 41.5374 1.86395L42.0136 1.03401C42.068 0.938775 42.2041 0.897959 42.2993 0.952381L43.6735 1.7415C43.7551 1.78231 43.7823 1.86395 43.7823 1.95918C43.7823 1.89116 43.7415 1.83673 43.6735 1.80952L42.2993 1.02041C42.2041 0.965986 42.068 0.993197 42.0136 1.10204L41.5374 1.93197C41.483 2.02721 41.3742 2.06803 41.2789 2.02721C40.6122 1.7551 39.9048 1.56463 39.1837 1.46939C39.0748 1.45578 39.0068 1.36054 39.0068 1.26531V1.21088C39.0068 1.31973 39.0884 1.40136 39.1837 1.41497V1.40136ZM43.2653 3.0068C43.2653 3.0068 43.3061 3.11565 43.3469 3.14286C43.9184 3.59184 44.4354 4.10884 44.8844 4.68027C44.9524 4.7619 45.0612 4.78912 45.1565 4.73469L45.9864 4.2585C46.0816 4.20408 46.2177 4.23129 46.2721 4.34014L47.0612 5.71429C47.0612 5.71429 47.0884 5.80952 47.0884 5.85034C47.0884 5.82313 47.0884 5.79592 47.0612 5.76871L46.2721 4.39456C46.2177 4.29932 46.0816 4.2585 45.9864 4.31292L45.1565 4.78912C45.0612 4.84354 44.9524 4.81633 44.8844 4.73469C44.4354 4.16327 43.9184 3.64626 43.3469 3.19728C43.2789 3.14286 43.2517 3.07483 43.2653 3.0068ZM46.0544 6.69388C46.0544 6.69388 46.0544 6.73469 46.068 6.7483C46.3401 7.41497 46.5306 8.12245 46.6259 8.84354C46.6395 8.95238 46.7347 9.02041 46.8299 9.02041H47.7823C47.9048 9.02041 48 9.11565 48 9.2381V9.29252C48 9.17007 47.9048 9.07483 47.7823 9.07483H46.8299C46.7211 9.07483 46.6395 8.9932 46.6259 8.89796C46.5306 8.16327 46.3401 7.45578 46.068 6.80272C46.0544 6.76191 46.0544 6.73469 46.0544 6.69388ZM46.0544 13.4286C46.0544 13.4286 46.0952 13.551 46.1633 13.5782L46.9932 14.0544C47.0748 14.0952 47.102 14.1905 47.102 14.2721C47.102 14.2041 47.0612 14.1497 46.9932 14.1224L46.1633 13.6463C46.0816 13.6054 46.0544 13.5238 46.0544 13.4422V13.4286ZM43.2653 17.1156C43.2653 17.1156 43.2653 17.1701 43.2925 17.1973L43.7687 18.0272C43.7687 18.0272 43.7959 18.1088 43.7959 18.1633C43.7959 18.1361 43.7959 18.1088 43.7687 18.0816L43.2925 17.2517C43.2925 17.2517 43.2653 17.1565 43.2653 17.1156ZM32.2041 18.1497C32.2041 18.1497 32.2041 18.0544 32.2313 18.0136L32.7075 17.1837C32.7075 17.1837 32.7347 17.1293 32.7347 17.102C32.7347 17.1429 32.7347 17.1973 32.7075 17.2381L32.2313 18.068C32.2313 18.068 32.2041 18.1224 32.2041 18.1497ZM28.9116 14.2721C28.9116 14.1905 28.9388 14.1088 29.0204 14.0544L29.8503 13.5782C29.8503 13.5782 29.9456 13.483 29.9592 13.4286C29.9592 13.5102 29.932 13.5918 29.8503 13.6463L29.0204 14.1224C29.0204 14.1224 28.9252 14.2177 28.9116 14.2721ZM28 9.29252V9.2381C28 9.11565 28.0952 9.02041 28.2177 9.02041H29.1701C29.2789 9.02041 29.3605 8.93878 29.3741 8.84354C29.4694 8.10884 29.6599 7.40136 29.932 6.7483C29.932 6.73469 29.932 6.70748 29.9456 6.69388C29.9456 6.73469 29.9456 6.76191 29.932 6.80272C29.6599 7.46939 29.4694 8.17687 29.3741 8.89796C29.3605 9.0068 29.2653 9.07483 29.1701 9.07483H28.2177C28.0952 9.07483 28 9.17007 28 9.29252ZM28.9116 5.83674C28.9116 5.83674 28.9116 5.7415 28.9388 5.70068L29.7279 4.32653C29.7823 4.23129 29.9184 4.19048 30.0136 4.2449L30.8435 4.72109C30.9388 4.77551 31.0476 4.7483 31.1156 4.66667C31.5646 4.09524 32.0816 3.57823 32.6531 3.12925C32.6939 3.08844 32.7211 3.04762 32.7347 2.9932C32.7347 3.06122 32.7211 3.14286 32.6531 3.18367C32.0816 3.63265 31.5646 4.14966 31.1156 4.72109C31.0476 4.80272 30.9388 4.82993 30.8435 4.77551L30.0136 4.29932C29.9184 4.2449 29.7823 4.27211 29.7279 4.38095L28.9388 5.7551C28.9388 5.7551 28.9116 5.80952 28.9116 5.83674ZM32.2041 1.95918C32.2041 1.87755 32.2313 1.79592 32.3129 1.7415L33.6871 0.952381C33.7823 0.897959 33.9184 0.92517 33.9728 1.03401L34.449 1.86395C34.5034 1.95918 34.6122 2 34.7075 1.95918C35.3741 1.68707 36.0816 1.4966 36.8027 1.40136C36.9116 1.38775 36.9932 1.29252 36.9932 1.19728V1.2517C36.9932 1.36054 36.9116 1.44218 36.8027 1.45578C36.068 1.55102 35.3605 1.7415 34.7075 2.01361C34.6122 2.05442 34.5034 2.01361 34.449 1.91837L33.9728 1.08844C33.9184 0.993197 33.7823 0.952381 33.6871 1.0068L32.3129 1.79592C32.3129 1.79592 32.2177 1.89116 32.2041 1.94558V1.95918ZM36.9932 0.272109V0.217687C36.9932 0.0952379 37.0884 0 37.2109 0H38.8027C38.9252 0 39.0204 0.0952379 39.0204 0.217687V0.272109C39.0204 0.14966 38.9252 0.0544217 38.8027 0.0544217H37.2109C37.0884 0.0544217 36.9932 0.14966 36.9932 0.272109Z" fill="url(#paint92_linear_16611_153003)"/>
<path fill-rule="evenodd" clip-rule="evenodd" d="M37.9997 14.8305C40.6255 14.8305 42.7616 12.6944 42.7616 10.0685C42.7616 7.4427 40.6255 5.30664 37.9997 5.30664C35.3738 5.30664 33.2378 7.4427 33.2378 10.0685C33.2378 12.6944 35.3738 14.8305 37.9997 14.8305Z" fill="url(#paint93_linear_16611_153003)"/>
<path fill-rule="evenodd" clip-rule="evenodd" d="M37.9991 14.6536C40.5161 14.6536 42.5705 12.5992 42.5705 10.0822C42.5705 7.56516 40.5161 5.51074 37.9991 5.51074C35.4821 5.51074 33.4141 7.56516 33.4141 10.0822C33.4141 12.5992 35.4685 14.6536 37.9991 14.6536Z" fill="url(#paint94_linear_16611_153003)"/>
<path fill-rule="evenodd" clip-rule="evenodd" d="M38 14.4629C40.4218 14.4629 42.3946 12.4902 42.3946 10.0684C42.3946 7.64662 40.4218 5.67383 38 5.67383C35.5783 5.67383 33.6055 7.64662 33.6055 10.0684C33.6055 12.4902 35.5783 14.4629 38 14.4629Z" fill="url(#paint95_linear_16611_153003)"/>
<path fill-rule="evenodd" clip-rule="evenodd" d="M37.9999 14.2869C40.3264 14.2869 42.2176 12.3958 42.2176 10.0692C42.2176 7.74272 40.3264 5.85156 37.9999 5.85156C35.6734 5.85156 33.7822 7.74272 33.7822 10.0692C33.7822 12.3958 35.6734 14.2869 37.9999 14.2869Z" fill="url(#paint96_linear_16611_153003)"/>
<path fill-rule="evenodd" clip-rule="evenodd" d="M37.9988 14.11C40.2301 14.11 42.0396 12.3004 42.0396 10.0691C42.0396 7.83784 40.2301 6.02832 37.9988 6.02832C35.7675 6.02832 33.958 7.83784 33.958 10.0691C33.958 12.3004 35.7675 14.11 37.9988 14.11Z" fill="url(#paint97_linear_16611_153003)"/>
<path fill-rule="evenodd" clip-rule="evenodd" d="M37.9997 13.933C40.1221 13.933 41.8636 12.2051 41.8636 10.069C41.8636 7.93297 40.1357 6.20508 37.9997 6.20508C35.8636 6.20508 34.1357 7.93297 34.1357 10.069C34.1357 12.2051 35.8636 13.933 37.9997 13.933Z" fill="url(#paint98_linear_16611_153003)"/>
<path fill-rule="evenodd" clip-rule="evenodd" d="M37.9996 13.756C40.0268 13.756 41.6867 12.0961 41.6867 10.0689C41.6867 8.0417 40.0268 6.38184 37.9996 6.38184C35.9724 6.38184 34.3125 8.0417 34.3125 10.0689C34.3125 12.0961 35.9724 13.756 37.9996 13.756Z" fill="url(#paint99_linear_16611_153003)"/>
<path fill-rule="evenodd" clip-rule="evenodd" d="M37.9999 13.5791C39.9319 13.5791 41.4965 12.0008 41.4965 10.0825C41.4965 8.1641 39.9183 6.57227 37.9999 6.57227C36.0816 6.57227 34.4897 8.1505 34.4897 10.0825C34.4897 12.0144 36.068 13.5791 37.9999 13.5791Z" fill="url(#paint100_linear_16611_153003)"/>
<path fill-rule="evenodd" clip-rule="evenodd" d="M37.9994 13.3875C39.8361 13.3875 41.3191 11.8909 41.3191 10.0678C41.3191 8.24464 39.8225 6.74805 37.9994 6.74805C36.1763 6.74805 34.6797 8.24464 34.6797 10.0678C34.6797 11.8909 36.1763 13.3875 37.9994 13.3875Z" fill="url(#paint101_linear_16611_153003)"/>
<path fill-rule="evenodd" clip-rule="evenodd" d="M38.0003 13.2115C39.7282 13.2115 41.1431 11.7965 41.1431 10.0686C41.1431 8.34075 39.7282 6.92578 38.0003 6.92578C36.2724 6.92578 34.8574 8.34075 34.8574 10.0686C34.8574 11.7965 36.2724 13.2115 38.0003 13.2115Z" fill="url(#paint102_linear_16611_153003)"/>
<path fill-rule="evenodd" clip-rule="evenodd" d="M37.9997 13.0345C39.6323 13.0345 40.9657 11.7012 40.9657 10.0685C40.9657 8.43587 39.6323 7.10254 37.9997 7.10254C36.367 7.10254 35.0337 8.43587 35.0337 10.0685C35.0337 11.7012 36.367 13.0345 37.9997 13.0345Z" fill="url(#paint103_linear_16611_153003)"/>
<path fill-rule="evenodd" clip-rule="evenodd" d="M37.9996 12.8585C39.537 12.8585 40.7887 11.6068 40.7887 10.0694C40.7887 8.53197 39.537 7.28027 37.9996 7.28027C36.4622 7.28027 35.2104 8.53197 35.2104 10.0694C35.2104 11.6068 36.4622 12.8585 37.9996 12.8585Z" fill="url(#paint104_linear_16611_153003)"/>
<path fill-rule="evenodd" clip-rule="evenodd" d="M38.0004 12.6805C39.4426 12.6805 40.6127 11.5105 40.6127 10.0683C40.6127 8.62612 39.4426 7.45605 38.0004 7.45605C36.5583 7.45605 35.3882 8.62612 35.3882 10.0683C35.3882 11.5105 36.5583 12.6805 38.0004 12.6805Z" fill="url(#paint105_linear_16611_153003)"/>
<path fill-rule="evenodd" clip-rule="evenodd" d="M37.9993 12.5036C39.3327 12.5036 40.4347 11.4151 40.4347 10.0682C40.4347 8.72125 39.3463 7.63281 37.9993 7.63281C36.6524 7.63281 35.564 8.72125 35.564 10.0682C35.564 11.4151 36.6524 12.5036 37.9993 12.5036Z" fill="url(#paint106_linear_16611_153003)"/>
<path fill-rule="evenodd" clip-rule="evenodd" d="M37.9998 12.314C39.2379 12.314 40.2447 11.3072 40.2447 10.0691C40.2447 8.83102 39.2379 7.82422 37.9998 7.82422C36.7617 7.82422 35.7549 8.83102 35.7549 10.0691C35.7549 11.3072 36.7617 12.314 37.9998 12.314Z" fill="url(#paint107_linear_16611_153003)"/>
<path fill-rule="evenodd" clip-rule="evenodd" d="M38.0002 12.137C39.143 12.137 40.0682 11.2119 40.0682 10.069C40.0682 8.92615 39.143 8.00098 38.0002 8.00098C36.8573 8.00098 35.9321 8.92615 35.9321 10.069C35.9321 11.2119 36.8573 12.137 38.0002 12.137Z" fill="url(#paint108_linear_16611_153003)"/>
<path fill-rule="evenodd" clip-rule="evenodd" d="M37.9996 11.96C39.0472 11.96 39.8907 11.1165 39.8907 10.0689C39.8907 9.02127 39.0472 8.17773 37.9996 8.17773C36.9519 8.17773 36.1084 9.02127 36.1084 10.0689C36.1084 11.1165 36.9519 11.96 37.9996 11.96Z" fill="url(#paint109_linear_16611_153003)"/>
<path fill-rule="evenodd" clip-rule="evenodd" d="M37.9994 11.7831C38.9382 11.7831 39.7137 11.0076 39.7137 10.0688C39.7137 9.13 38.9382 8.35449 37.9994 8.35449C37.0607 8.35449 36.2852 9.13 36.2852 10.0688C36.2852 11.0076 37.0607 11.7831 37.9994 11.7831Z" fill="url(#paint110_linear_16611_153003)"/>
<path fill-rule="evenodd" clip-rule="evenodd" d="M37.9998 11.6061C38.8434 11.6061 39.5372 10.9122 39.5372 10.0687C39.5372 9.22513 38.8434 8.53125 37.9998 8.53125C37.1563 8.53125 36.4624 9.22513 36.4624 10.0687C36.4624 10.9122 37.1563 11.6061 37.9998 11.6061Z" fill="url(#paint111_linear_16611_153003)"/>
<path fill-rule="evenodd" clip-rule="evenodd" d="M37.9997 11.4291C38.748 11.4291 39.3602 10.8169 39.3602 10.0686C39.3602 9.32025 38.748 8.70801 37.9997 8.70801C37.2514 8.70801 36.6392 9.32025 36.6392 10.0686C36.6392 10.8169 37.2514 11.4291 37.9997 11.4291Z" fill="url(#paint112_linear_16611_153003)"/>
<path fill-rule="evenodd" clip-rule="evenodd" d="M38.0001 11.2396C38.6532 11.2396 39.1702 10.7089 39.1702 10.0695C39.1702 9.43003 38.6396 8.89941 38.0001 8.89941C37.3607 8.89941 36.8301 9.43003 36.8301 10.0695C36.8301 10.7089 37.3607 11.2396 38.0001 11.2396Z" fill="url(#paint113_linear_16611_153003)"/>
<path fill-rule="evenodd" clip-rule="evenodd" d="M37.9995 11.0626C38.5438 11.0626 38.9927 10.6136 38.9927 10.0694C38.9927 9.52515 38.5438 9.07617 37.9995 9.07617C37.4553 9.07617 37.0063 9.52515 37.0063 10.0694C37.0063 10.6136 37.4553 11.0626 37.9995 11.0626Z" fill="url(#paint114_linear_16611_153003)"/>
<path fill-rule="evenodd" clip-rule="evenodd" d="M37.9997 5.30664C40.6255 5.30664 42.7616 7.4427 42.7616 10.0685C42.7616 12.6944 40.6255 14.8305 37.9997 14.8305C35.3738 14.8305 33.2378 12.6944 33.2378 10.0685C33.2378 7.4427 35.3738 5.30664 37.9997 5.30664ZM37.9997 5.67399C35.5779 5.67399 33.6051 7.64678 33.6051 10.0685C33.6051 12.4903 35.5779 14.4631 37.9997 14.4631C40.4215 14.4631 42.3943 12.4903 42.3943 10.0685C42.3943 7.64678 40.4215 5.67399 37.9997 5.67399Z" fill="url(#paint115_linear_16611_153003)"/>
<path fill-rule="evenodd" clip-rule="evenodd" d="M37.9997 5.30664C40.6255 5.30664 42.7616 7.4427 42.7616 10.0685V10.1094C42.7344 7.49712 40.6119 5.38827 37.9997 5.38827C35.3875 5.38827 33.265 7.49712 33.2378 10.1094V10.0685C33.2378 7.4427 35.3738 5.30664 37.9997 5.30664Z" fill="url(#paint116_linear_16611_153003)"/>
<path fill-rule="evenodd" clip-rule="evenodd" d="M37.9997 14.8984C40.6255 14.8984 42.7616 12.7624 42.7616 10.1365V10.0957C42.7344 12.7079 40.6119 14.8168 37.9997 14.8168C35.3875 14.8168 33.265 12.7079 33.2378 10.0957V10.1365C33.2378 12.7624 35.3738 14.8984 37.9997 14.8984Z" fill="url(#paint117_linear_16611_153003)"/>
<path fill-rule="evenodd" clip-rule="evenodd" d="M37.9996 2.59961C42.0812 2.59961 45.3873 5.90573 45.3873 9.98737C45.3873 14.069 42.0812 17.3751 37.9996 17.3751C33.9179 17.3751 30.6118 14.069 30.6118 9.98737C30.6118 5.90573 33.9179 2.59961 37.9996 2.59961ZM37.9996 2.76287C34.0132 2.76287 30.7751 6.00097 30.7751 9.98737C30.7751 13.9738 34.0132 17.2119 37.9996 17.2119C41.986 17.2119 45.2241 13.9738 45.2241 9.98737C45.2241 6.00097 41.986 2.76287 37.9996 2.76287Z" fill="url(#paint118_linear_16611_153003)"/>
<path fill-rule="evenodd" clip-rule="evenodd" d="M38.0012 12.6264C39.4161 12.6264 40.559 11.4699 40.559 10.0686C40.559 8.6672 39.4025 7.51074 38.0012 7.51074C36.5998 7.51074 35.4434 8.6672 35.4434 10.0686C35.4434 11.4699 36.5998 12.6264 38.0012 12.6264Z" fill="url(#paint119_linear_16611_153003)"/>
<path fill-rule="evenodd" clip-rule="evenodd" d="M38.0001 12.5452C39.3607 12.5452 40.4763 11.4295 40.4763 10.069C40.4763 8.70842 39.3607 7.59277 38.0001 7.59277C36.6396 7.59277 35.5239 8.70842 35.5239 10.069C35.5239 11.4295 36.6396 12.5452 38.0001 12.5452Z" fill="url(#paint120_radial_16611_153003)"/>
<defs>
<linearGradient id="paint0_linear_16611_153003" x1="37.1009" y1="20.6159" x2="9.78152" y2="20.5007" gradientUnits="userSpaceOnUse">
<stop stop-color="#134280"/>
<stop offset="1" stop-color="#134280"/>
</linearGradient>
<linearGradient id="paint1_linear_16611_153003" x1="37.1225" y1="13.7932" x2="9.75878" y2="13.7009" gradientUnits="userSpaceOnUse">
<stop stop-color="#194B8C"/>
<stop offset="1" stop-color="#1367D4"/>
</linearGradient>
<linearGradient id="paint2_linear_16611_153003" x1="37.1333" y1="32.3298" x2="9.74718" y2="32.2126" gradientUnits="userSpaceOnUse">
<stop stop-color="#D6D9E8"/>
<stop offset="1" stop-color="#8A91A1"/>
</linearGradient>
<linearGradient id="paint3_linear_16611_153003" x1="41.323" y1="32.544" x2="9.28593" y2="19.3551" gradientUnits="userSpaceOnUse">
<stop stop-color="#D6D9E8"/>
<stop offset="1" stop-color="#F7F9FC" stop-opacity="0.2"/>
</linearGradient>
<radialGradient id="paint4_radial_16611_153003" cx="0" cy="0" r="1" gradientUnits="userSpaceOnUse" gradientTransform="translate(39.1973 17.6464) scale(20.8844)">
<stop stop-color="#A7A9AC"/>
<stop offset="0.22" stop-color="#6D6E71"/>
<stop offset="0.45" stop-color="#A7A9AC"/>
<stop offset="0.54" stop-color="#D1D3D4"/>
<stop offset="0.79" stop-color="#AFB1B4"/>
<stop offset="1" stop-color="#C9CBCD"/>
</radialGradient>
<linearGradient id="paint5_linear_16611_153003" x1="28.7482" y1="1.40195" x2="47.2516" y2="18.6673" gradientUnits="userSpaceOnUse">
<stop stop-color="#E6E7E8"/>
<stop offset="0.21" stop-color="#A7A9AC"/>
<stop offset="0.46" stop-color="#E6E7E8"/>
<stop offset="0.55" stop-color="#BABCBE"/>
<stop offset="0.64" stop-color="#AAABAD"/>
<stop offset="0.71" stop-color="#E6E7E8"/>
<stop offset="0.87" stop-color="#E6E7E8"/>
<stop offset="1" stop-color="#E6E7E8"/>
</linearGradient>
<linearGradient id="paint6_linear_16611_153003" x1="28.9513" y1="1.59244" x2="47.0466" y2="18.4632" gradientUnits="userSpaceOnUse">
<stop stop-color="#E5E6E7"/>
<stop offset="0.21" stop-color="#A7AAAC"/>
<stop offset="0.46" stop-color="#E6E7E8"/>
<stop offset="0.55" stop-color="#BBBDBF"/>
<stop offset="0.64" stop-color="#ABACAE"/>
<stop offset="0.71" stop-color="#E4E5E6"/>
<stop offset="0.87" stop-color="#E2E2E4"/>
<stop offset="1" stop-color="#E6E7E8"/>
</linearGradient>
<linearGradient id="paint7_linear_16611_153003" x1="29.1563" y1="1.79543" x2="46.8434" y2="18.2716" gradientUnits="userSpaceOnUse">
<stop stop-color="#E3E4E5"/>
<stop offset="0.21" stop-color="#A8AAAD"/>
<stop offset="0.46" stop-color="#E6E7E8"/>
<stop offset="0.55" stop-color="#BCBEC0"/>
<stop offset="0.64" stop-color="#ACADAF"/>
<stop offset="0.71" stop-color="#E1E2E3"/>
<stop offset="0.87" stop-color="#DEDEE0"/>
<stop offset="1" stop-color="#E6E7E8"/>
</linearGradient>
<linearGradient id="paint8_linear_16611_153003" x1="29.3736" y1="1.986" x2="46.6253" y2="18.0812" gradientUnits="userSpaceOnUse">
<stop stop-color="#E2E3E4"/>
<stop offset="0.21" stop-color="#A8AAAD"/>
<stop offset="0.46" stop-color="#E6E7E8"/>
<stop offset="0.55" stop-color="#BDBEC1"/>
<stop offset="0.64" stop-color="#ADAEB0"/>
<stop offset="0.71" stop-color="#DFE0E1"/>
<stop offset="0.87" stop-color="#DBDBDC"/>
<stop offset="1" stop-color="#E6E7E8"/>
</linearGradient>
<linearGradient id="paint9_linear_16611_153003" x1="29.5786" y1="2.17636" x2="46.4221" y2="17.8906" gradientUnits="userSpaceOnUse">
<stop stop-color="#E0E2E3"/>
<stop offset="0.21" stop-color="#A9ABAD"/>
<stop offset="0.46" stop-color="#E6E7E8"/>
<stop offset="0.55" stop-color="#BDBFC1"/>
<stop offset="0.64" stop-color="#AEAFB1"/>
<stop offset="0.71" stop-color="#DDDDDF"/>
<stop offset="0.87" stop-color="#D7D7D9"/>
<stop offset="1" stop-color="#E6E7E8"/>
</linearGradient>
<linearGradient id="paint10_linear_16611_153003" x1="29.7826" y1="2.36783" x2="46.218" y2="17.6876" gradientUnits="userSpaceOnUse">
<stop stop-color="#DFE0E2"/>
<stop offset="0.21" stop-color="#A9ABAE"/>
<stop offset="0.46" stop-color="#E6E7E8"/>
<stop offset="0.55" stop-color="#BEC0C2"/>
<stop offset="0.64" stop-color="#AEB0B2"/>
<stop offset="0.71" stop-color="#DBDBDC"/>
<stop offset="0.87" stop-color="#D4D4D6"/>
<stop offset="1" stop-color="#E6E7E8"/>
</linearGradient>
<linearGradient id="paint11_linear_16611_153003" x1="29.9872" y1="2.57193" x2="46.0008" y2="17.4971" gradientUnits="userSpaceOnUse">
<stop stop-color="#DDDFE0"/>
<stop offset="0.21" stop-color="#A9ACAE"/>
<stop offset="0.46" stop-color="#E6E7E8"/>
<stop offset="0.55" stop-color="#BFC1C3"/>
<stop offset="0.64" stop-color="#AFB1B3"/>
<stop offset="0.71" stop-color="#D9D9DB"/>
<stop offset="0.87" stop-color="#D1D1D3"/>
<stop offset="1" stop-color="#E6E7E8"/>
</linearGradient>
<linearGradient id="paint12_linear_16611_153003" x1="30.2039" y1="2.7623" x2="45.7957" y2="17.3065" gradientUnits="userSpaceOnUse">
<stop stop-color="#DCDDDF"/>
<stop offset="0.21" stop-color="#AAACAE"/>
<stop offset="0.46" stop-color="#E6E7E8"/>
<stop offset="0.55" stop-color="#C0C2C4"/>
<stop offset="0.64" stop-color="#B0B2B4"/>
<stop offset="0.71" stop-color="#D7D7D9"/>
<stop offset="0.87" stop-color="#CFCED0"/>
<stop offset="1" stop-color="#E6E7E8"/>
</linearGradient>
<linearGradient id="paint13_linear_16611_153003" x1="30.408" y1="2.95286" x2="45.5916" y2="17.1161" gradientUnits="userSpaceOnUse">
<stop stop-color="#DBDCDE"/>
<stop offset="0.21" stop-color="#AAACAF"/>
<stop offset="0.46" stop-color="#E6E7E8"/>
<stop offset="0.55" stop-color="#C1C3C5"/>
<stop offset="0.64" stop-color="#B1B3B5"/>
<stop offset="0.71" stop-color="#D5D5D7"/>
<stop offset="0.87" stop-color="#CCCBCD"/>
<stop offset="1" stop-color="#E6E7E8"/>
</linearGradient>
<linearGradient id="paint14_linear_16611_153003" x1="30.6115" y1="3.14322" x2="45.387" y2="16.9119" gradientUnits="userSpaceOnUse">
<stop stop-color="#D9DBDC"/>
<stop offset="0.21" stop-color="#ABADAF"/>
<stop offset="0.46" stop-color="#E6E7E8"/>
<stop offset="0.55" stop-color="#C2C4C6"/>
<stop offset="0.64" stop-color="#B2B4B5"/>
<stop offset="0.71" stop-color="#D3D4D5"/>
<stop offset="0.87" stop-color="#C9C8CB"/>
<stop offset="1" stop-color="#E6E7E8"/>
</linearGradient>
<linearGradient id="paint15_linear_16611_153003" x1="30.8301" y1="3.34635" x2="45.1703" y2="16.7205" gradientUnits="userSpaceOnUse">
<stop stop-color="#D8D9DB"/>
<stop offset="0.21" stop-color="#ABADB0"/>
<stop offset="0.46" stop-color="#E6E7E8"/>
<stop offset="0.55" stop-color="#C3C5C7"/>
<stop offset="0.64" stop-color="#B3B5B6"/>
<stop offset="0.71" stop-color="#D2D2D3"/>
<stop offset="0.87" stop-color="#C6C6C8"/>
<stop offset="1" stop-color="#E6E7E8"/>
</linearGradient>
<linearGradient id="paint16_linear_16611_153003" x1="31.0347" y1="3.53775" x2="44.9667" y2="16.531" gradientUnits="userSpaceOnUse">
<stop stop-color="#D6D8DA"/>
<stop offset="0.21" stop-color="#ABADB0"/>
<stop offset="0.46" stop-color="#E6E7E8"/>
<stop offset="0.55" stop-color="#C4C6C8"/>
<stop offset="0.64" stop-color="#B4B5B7"/>
<stop offset="0.71" stop-color="#D0D0D1"/>
<stop offset="0.87" stop-color="#C3C3C5"/>
<stop offset="1" stop-color="#E6E7E8"/>
</linearGradient>
<linearGradient id="paint17_linear_16611_153003" x1="31.2383" y1="3.72818" x2="44.7621" y2="16.3404" gradientUnits="userSpaceOnUse">
<stop stop-color="#D5D7D9"/>
<stop offset="0.21" stop-color="#ACAEB0"/>
<stop offset="0.46" stop-color="#E6E7E8"/>
<stop offset="0.55" stop-color="#C5C6C9"/>
<stop offset="0.64" stop-color="#B5B6B8"/>
<stop offset="0.71" stop-color="#CECED0"/>
<stop offset="0.87" stop-color="#C1C0C3"/>
<stop offset="1" stop-color="#E6E7E8"/>
</linearGradient>
<linearGradient id="paint18_linear_16611_153003" x1="31.4414" y1="3.91875" x2="44.5434" y2="16.1364" gradientUnits="userSpaceOnUse">
<stop stop-color="#D4D6D7"/>
<stop offset="0.21" stop-color="#ACAEB1"/>
<stop offset="0.46" stop-color="#E6E7E8"/>
<stop offset="0.55" stop-color="#C6C7C9"/>
<stop offset="0.64" stop-color="#B6B7B9"/>
<stop offset="0.71" stop-color="#CCCCCE"/>
<stop offset="0.87" stop-color="#BEBDC0"/>
<stop offset="1" stop-color="#E6E7E8"/>
</linearGradient>
<linearGradient id="paint19_linear_16611_153003" x1="31.66" y1="4.12271" x2="44.3403" y2="15.9458" gradientUnits="userSpaceOnUse">
<stop stop-color="#D2D4D6"/>
<stop offset="0.21" stop-color="#ADAFB1"/>
<stop offset="0.46" stop-color="#E6E7E8"/>
<stop offset="0.55" stop-color="#C7C8CA"/>
<stop offset="0.64" stop-color="#B7B8BA"/>
<stop offset="0.71" stop-color="#CBCBCC"/>
<stop offset="0.87" stop-color="#BBBBBE"/>
<stop offset="1" stop-color="#E6E7E8"/>
</linearGradient>
<linearGradient id="paint20_linear_16611_153003" x1="31.864" y1="4.31321" x2="44.1361" y2="15.7554" gradientUnits="userSpaceOnUse">
<stop stop-color="#D1D3D5"/>
<stop offset="0.21" stop-color="#ADAFB2"/>
<stop offset="0.46" stop-color="#E6E7E8"/>
<stop offset="0.55" stop-color="#C7C9CB"/>
<stop offset="0.64" stop-color="#B8B9BB"/>
<stop offset="0.71" stop-color="#C9C9CB"/>
<stop offset="0.87" stop-color="#B8B8BB"/>
<stop offset="1" stop-color="#E6E7E8"/>
</linearGradient>
<linearGradient id="paint21_linear_16611_153003" x1="32.0676" y1="4.50364" x2="43.918" y2="15.5649" gradientUnits="userSpaceOnUse">
<stop stop-color="#D0D2D3"/>
<stop offset="0.21" stop-color="#ADAFB2"/>
<stop offset="0.46" stop-color="#E6E7E8"/>
<stop offset="0.55" stop-color="#C8CACC"/>
<stop offset="0.64" stop-color="#B9BABC"/>
<stop offset="0.71" stop-color="#C7C7C9"/>
<stop offset="0.87" stop-color="#B6B5B9"/>
<stop offset="1" stop-color="#E6E7E8"/>
</linearGradient>
<linearGradient id="paint22_linear_16611_153003" x1="32.2853" y1="4.69407" x2="43.7139" y2="15.3607" gradientUnits="userSpaceOnUse">
<stop stop-color="#CED0D2"/>
<stop offset="0.21" stop-color="#AEB0B2"/>
<stop offset="0.46" stop-color="#E6E7E8"/>
<stop offset="0.55" stop-color="#C9CBCD"/>
<stop offset="0.64" stop-color="#BABBBD"/>
<stop offset="0.71" stop-color="#C6C5C7"/>
<stop offset="0.87" stop-color="#B3B2B6"/>
<stop offset="1" stop-color="#E6E7E8"/>
</linearGradient>
<linearGradient id="paint23_linear_16611_153003" x1="32.4904" y1="4.89824" x2="43.5108" y2="15.1703" gradientUnits="userSpaceOnUse">
<stop stop-color="#CDCFD1"/>
<stop offset="0.21" stop-color="#AEB0B3"/>
<stop offset="0.46" stop-color="#E6E7E8"/>
<stop offset="0.55" stop-color="#CACCCE"/>
<stop offset="0.64" stop-color="#BABCBD"/>
<stop offset="0.71" stop-color="#C4C4C6"/>
<stop offset="0.87" stop-color="#B0B0B4"/>
<stop offset="1" stop-color="#E6E7E8"/>
</linearGradient>
<linearGradient id="paint24_linear_16611_153003" x1="32.6944" y1="5.0886" x2="43.3066" y2="14.9798" gradientUnits="userSpaceOnUse">
<stop stop-color="#CCCED0"/>
<stop offset="0.21" stop-color="#AFB1B3"/>
<stop offset="0.46" stop-color="#E6E7E8"/>
<stop offset="0.55" stop-color="#CBCDCF"/>
<stop offset="0.64" stop-color="#BBBDBE"/>
<stop offset="0.71" stop-color="#C2C2C4"/>
<stop offset="0.87" stop-color="#AEADB1"/>
<stop offset="1" stop-color="#E6E7E8"/>
</linearGradient>
<linearGradient id="paint25_linear_16611_153003" x1="32.9106" y1="5.27916" x2="43.0874" y2="14.7758" gradientUnits="userSpaceOnUse">
<stop stop-color="#CACDCF"/>
<stop offset="0.21" stop-color="#AFB1B3"/>
<stop offset="0.46" stop-color="#E6E7E8"/>
<stop offset="0.55" stop-color="#CCCECF"/>
<stop offset="0.64" stop-color="#BCBEBF"/>
<stop offset="0.71" stop-color="#C1C0C3"/>
<stop offset="0.87" stop-color="#ABABAF"/>
<stop offset="1" stop-color="#E6E7E8"/>
</linearGradient>
<linearGradient id="paint26_linear_16611_153003" x1="33.1152" y1="5.48313" x2="42.8839" y2="14.5852" gradientUnits="userSpaceOnUse">
<stop stop-color="#C9CBCD"/>
<stop offset="0.21" stop-color="#AFB1B4"/>
<stop offset="0.46" stop-color="#E6E7E8"/>
<stop offset="0.55" stop-color="#CDCFD0"/>
<stop offset="0.64" stop-color="#BDBEC0"/>
<stop offset="0.71" stop-color="#BFBFC1"/>
<stop offset="0.87" stop-color="#A9A8AC"/>
<stop offset="1" stop-color="#E6E7E8"/>
</linearGradient>
<linearGradient id="paint27_linear_16611_153003" x1="38.0005" y1="17.3745" x2="38.0005" y2="2.54461" gradientUnits="userSpaceOnUse">
<stop stop-color="#007FBF"/>
<stop offset="1" stop-color="#007FBF"/>
</linearGradient>
<linearGradient id="paint28_linear_16611_153003" x1="38.0002" y1="17.3739" x2="38.0002" y2="2.65281" gradientUnits="userSpaceOnUse">
<stop stop-color="#007FBF"/>
<stop offset="1" stop-color="#0082C1"/>
</linearGradient>
<linearGradient id="paint29_linear_16611_153003" x1="38.0008" y1="17.3742" x2="38.0008" y2="2.74831" gradientUnits="userSpaceOnUse">
<stop stop-color="#007FBF"/>
<stop offset="1" stop-color="#0084C2"/>
</linearGradient>
<linearGradient id="paint30_linear_16611_153003" x1="38.0005" y1="17.3745" x2="38.0005" y2="2.85749" gradientUnits="userSpaceOnUse">
<stop stop-color="#007FBF"/>
<stop offset="1" stop-color="#0087C4"/>
</linearGradient>
<linearGradient id="paint31_linear_16611_153003" x1="38.0007" y1="17.3739" x2="38.0007" y2="2.95215" gradientUnits="userSpaceOnUse">
<stop stop-color="#007FBF"/>
<stop offset="1" stop-color="#0089C6"/>
</linearGradient>
<linearGradient id="paint32_linear_16611_153003" x1="37.9999" y1="17.3605" x2="37.9999" y2="3.04759" gradientUnits="userSpaceOnUse">
<stop stop-color="#007FBF"/>
<stop offset="1" stop-color="#008CC8"/>
</linearGradient>
<linearGradient id="paint33_linear_16611_153003" x1="38.0005" y1="17.3609" x2="38.0005" y2="3.14322" gradientUnits="userSpaceOnUse">
<stop stop-color="#007FBF"/>
<stop offset="1" stop-color="#008ECA"/>
</linearGradient>
<linearGradient id="paint34_linear_16611_153003" x1="38.0003" y1="17.3603" x2="38.0003" y2="3.25142" gradientUnits="userSpaceOnUse">
<stop stop-color="#007FBF"/>
<stop offset="1" stop-color="#0091CC"/>
</linearGradient>
<linearGradient id="paint35_linear_16611_153003" x1="37.9999" y1="17.3614" x2="37.9999" y2="3.34784" gradientUnits="userSpaceOnUse">
<stop stop-color="#007FBF"/>
<stop offset="1" stop-color="#0094CE"/>
</linearGradient>
<linearGradient id="paint36_linear_16611_153003" x1="38.0006" y1="17.3473" x2="38.0006" y2="3.4425" gradientUnits="userSpaceOnUse">
<stop stop-color="#007FBF"/>
<stop offset="1" stop-color="#0096D0"/>
</linearGradient>
<linearGradient id="paint37_linear_16611_153003" x1="38.0008" y1="17.3476" x2="38.0008" y2="3.53807" gradientUnits="userSpaceOnUse">
<stop stop-color="#007FBF"/>
<stop offset="1" stop-color="#0099D2"/>
</linearGradient>
<linearGradient id="paint38_linear_16611_153003" x1="38.0004" y1="17.3469" x2="38.0004" y2="3.63259" gradientUnits="userSpaceOnUse">
<stop stop-color="#007FBF"/>
<stop offset="1" stop-color="#009BD3"/>
</linearGradient>
<linearGradient id="paint39_linear_16611_153003" x1="38.0001" y1="17.3462" x2="38.0001" y2="3.74079" gradientUnits="userSpaceOnUse">
<stop stop-color="#007FBF"/>
<stop offset="1" stop-color="#009ED5"/>
</linearGradient>
<linearGradient id="paint40_linear_16611_153003" x1="38.0008" y1="17.3339" x2="38.0008" y2="3.83734" gradientUnits="userSpaceOnUse">
<stop stop-color="#007FBF"/>
<stop offset="1" stop-color="#00A1D7"/>
</linearGradient>
<linearGradient id="paint41_linear_16611_153003" x1="38" y1="17.3332" x2="38" y2="3.93187" gradientUnits="userSpaceOnUse">
<stop stop-color="#007FBF"/>
<stop offset="1" stop-color="#00A3D9"/>
</linearGradient>
<linearGradient id="paint42_linear_16611_153003" x1="38.0002" y1="17.3336" x2="38.0002" y2="4.0275" gradientUnits="userSpaceOnUse">
<stop stop-color="#007FBF"/>
<stop offset="1" stop-color="#00A6DB"/>
</linearGradient>
<linearGradient id="paint43_linear_16611_153003" x1="38.0003" y1="17.3338" x2="38.0003" y2="4.12294" gradientUnits="userSpaceOnUse">
<stop stop-color="#007FBF"/>
<stop offset="1" stop-color="#00A9DD"/>
</linearGradient>
<linearGradient id="paint44_linear_16611_153003" x1="38.0005" y1="17.3196" x2="38.0005" y2="4.21753" gradientUnits="userSpaceOnUse">
<stop stop-color="#007FBF"/>
<stop offset="1" stop-color="#00ACDF"/>
</linearGradient>
<linearGradient id="paint45_linear_16611_153003" x1="38.0002" y1="17.32" x2="38.0002" y2="4.31317" gradientUnits="userSpaceOnUse">
<stop stop-color="#007FBF"/>
<stop offset="1" stop-color="#00AEE1"/>
</linearGradient>
<linearGradient id="paint46_linear_16611_153003" x1="38.0009" y1="17.3202" x2="38.0009" y2="4.40861" gradientUnits="userSpaceOnUse">
<stop stop-color="#007FBF"/>
<stop offset="1" stop-color="#00B1E3"/>
</linearGradient>
<linearGradient id="paint47_linear_16611_153003" x1="38.0001" y1="17.3206" x2="38.0001" y2="4.50424" gradientUnits="userSpaceOnUse">
<stop stop-color="#007FBF"/>
<stop offset="1" stop-color="#00B5E5"/>
</linearGradient>
<linearGradient id="paint48_linear_16611_153003" x1="38.0008" y1="17.3063" x2="38.0008" y2="4.58523" gradientUnits="userSpaceOnUse">
<stop stop-color="#007FBF"/>
<stop offset="1" stop-color="#00B9E8"/>
</linearGradient>
<linearGradient id="paint49_linear_16611_153003" x1="38.0132" y1="17.1841" x2="38.0132" y2="4.62632" gradientUnits="userSpaceOnUse">
<stop stop-color="#007FBF"/>
<stop offset="1" stop-color="#00B9E8"/>
</linearGradient>
<linearGradient id="paint50_linear_16611_153003" x1="38.0135" y1="17.0756" x2="38.0135" y2="4.66746" gradientUnits="userSpaceOnUse">
<stop stop-color="#007FBF"/>
<stop offset="1" stop-color="#00B9E8"/>
</linearGradient>
<linearGradient id="paint51_linear_16611_153003" x1="38.0275" y1="16.9525" x2="38.0275" y2="4.70757" gradientUnits="userSpaceOnUse">
<stop stop-color="#007FBF"/>
<stop offset="1" stop-color="#00B9E8"/>
</linearGradient>
<linearGradient id="paint52_linear_16611_153003" x1="38.0273" y1="16.8303" x2="38.0273" y2="4.74865" gradientUnits="userSpaceOnUse">
<stop stop-color="#007FBF"/>
<stop offset="1" stop-color="#00B9E8"/>
</linearGradient>
<linearGradient id="paint53_linear_16611_153003" x1="38.0412" y1="16.7071" x2="38.0412" y2="4.78876" gradientUnits="userSpaceOnUse">
<stop stop-color="#007FBF"/>
<stop offset="1" stop-color="#00B9E8"/>
</linearGradient>
<linearGradient id="paint54_linear_16611_153003" x1="38.0552" y1="16.5995" x2="38.0552" y2="4.83082" gradientUnits="userSpaceOnUse">
<stop stop-color="#007FBF"/>
<stop offset="1" stop-color="#00B9E8"/>
</linearGradient>
<linearGradient id="paint55_linear_16611_153003" x1="38.055" y1="16.4764" x2="38.055" y2="4.87092" gradientUnits="userSpaceOnUse">
<stop stop-color="#007FBF"/>
<stop offset="1" stop-color="#00B9E8"/>
</linearGradient>
<linearGradient id="paint56_linear_16611_153003" x1="38.0689" y1="16.3669" x2="38.0689" y2="4.91109" gradientUnits="userSpaceOnUse">
<stop stop-color="#007FBF"/>
<stop offset="1" stop-color="#00B9E8"/>
</linearGradient>
<linearGradient id="paint57_linear_16611_153003" x1="38.0682" y1="16.2593" x2="38.0682" y2="4.95315" gradientUnits="userSpaceOnUse">
<stop stop-color="#007FBF"/>
<stop offset="1" stop-color="#00B9E8"/>
</linearGradient>
<linearGradient id="paint58_linear_16611_153003" x1="38.0822" y1="16.1361" x2="38.0822" y2="4.99326" gradientUnits="userSpaceOnUse">
<stop stop-color="#007FBF"/>
<stop offset="1" stop-color="#00B9E8"/>
</linearGradient>
<linearGradient id="paint59_linear_16611_153003" x1="38.0962" y1="16.0266" x2="38.0962" y2="5.03336" gradientUnits="userSpaceOnUse">
<stop stop-color="#007FBF"/>
<stop offset="1" stop-color="#00B9E8"/>
</linearGradient>
<linearGradient id="paint60_linear_16611_153003" x1="38.0955" y1="15.919" x2="38.0955" y2="5.07542" gradientUnits="userSpaceOnUse">
<stop stop-color="#007FBF"/>
<stop offset="1" stop-color="#00B9E8"/>
</linearGradient>
<linearGradient id="paint61_linear_16611_153003" x1="38.1094" y1="15.8104" x2="38.1094" y2="5.1165" gradientUnits="userSpaceOnUse">
<stop stop-color="#007FBF"/>
<stop offset="1" stop-color="#00B9E8"/>
</linearGradient>
<linearGradient id="paint62_linear_16611_153003" x1="38.1097" y1="15.7008" x2="38.1097" y2="5.15661" gradientUnits="userSpaceOnUse">
<stop stop-color="#007FBF"/>
<stop offset="1" stop-color="#00B9E8"/>
</linearGradient>
<linearGradient id="paint63_linear_16611_153003" x1="38.1227" y1="15.6059" x2="38.1227" y2="5.19776" gradientUnits="userSpaceOnUse">
<stop stop-color="#007FBF"/>
<stop offset="1" stop-color="#00B9E8"/>
</linearGradient>
<linearGradient id="paint64_linear_16611_153003" x1="38.1366" y1="15.4964" x2="38.1366" y2="5.23786" gradientUnits="userSpaceOnUse">
<stop stop-color="#007FBF"/>
<stop offset="1" stop-color="#00B9E8"/>
</linearGradient>
<linearGradient id="paint65_linear_16611_153003" x1="38.1365" y1="15.3878" x2="38.1365" y2="5.27895" gradientUnits="userSpaceOnUse">
<stop stop-color="#007FBF"/>
<stop offset="1" stop-color="#00B9E8"/>
</linearGradient>
<linearGradient id="paint66_linear_16611_153003" x1="38.1504" y1="15.2938" x2="38.1504" y2="5.321" gradientUnits="userSpaceOnUse">
<stop stop-color="#007FBF"/>
<stop offset="1" stop-color="#00B9E8"/>
</linearGradient>
<linearGradient id="paint67_linear_16611_153003" x1="38.1643" y1="15.1833" x2="38.1643" y2="5.36013" gradientUnits="userSpaceOnUse">
<stop stop-color="#007FBF"/>
<stop offset="1" stop-color="#00B9E8"/>
</linearGradient>
<linearGradient id="paint68_linear_16611_153003" x1="38.1636" y1="15.0883" x2="38.1636" y2="5.40121" gradientUnits="userSpaceOnUse">
<stop stop-color="#007FBF"/>
<stop offset="1" stop-color="#00B9E8"/>
</linearGradient>
<linearGradient id="paint69_linear_16611_153003" x1="38.1776" y1="14.9934" x2="38.1776" y2="5.44236" gradientUnits="userSpaceOnUse">
<stop stop-color="#007FBF"/>
<stop offset="1" stop-color="#00B9E8"/>
</linearGradient>
<linearGradient id="paint70_linear_16611_153003" x1="38.136" y1="14.9118" x2="38.136" y2="5.48325" gradientUnits="userSpaceOnUse">
<stop stop-color="#007EBD"/>
<stop offset="1" stop-color="#00B2E3"/>
</linearGradient>
<linearGradient id="paint71_linear_16611_153003" x1="38.096" y1="14.8429" x2="38.096" y2="5.50961" gradientUnits="userSpaceOnUse">
<stop stop-color="#007CBB"/>
<stop offset="1" stop-color="#00AEDE"/>
</linearGradient>
<linearGradient id="paint72_linear_16611_153003" x1="38.0681" y1="14.7624" x2="38.0681" y2="5.53793" gradientUnits="userSpaceOnUse">
<stop stop-color="#007AB9"/>
<stop offset="1" stop-color="#00A9DA"/>
</linearGradient>
<linearGradient id="paint73_linear_16611_153003" x1="38.028" y1="14.6936" x2="38.028" y2="5.56437" gradientUnits="userSpaceOnUse">
<stop stop-color="#0079B7"/>
<stop offset="1" stop-color="#00A4D6"/>
</linearGradient>
<linearGradient id="paint74_linear_16611_153003" x1="37.986" y1="14.6131" x2="37.986" y2="5.59269" gradientUnits="userSpaceOnUse">
<stop stop-color="#0077B5"/>
<stop offset="1" stop-color="#00A0D2"/>
</linearGradient>
<linearGradient id="paint75_linear_16611_153003" x1="37.9595" y1="14.5442" x2="37.9595" y2="5.61905" gradientUnits="userSpaceOnUse">
<stop stop-color="#0076B3"/>
<stop offset="1" stop-color="#009BCE"/>
</linearGradient>
<linearGradient id="paint76_linear_16611_153003" x1="37.918" y1="14.4628" x2="37.918" y2="5.64646" gradientUnits="userSpaceOnUse">
<stop stop-color="#0074B1"/>
<stop offset="1" stop-color="#0097CA"/>
</linearGradient>
<linearGradient id="paint77_linear_16611_153003" x1="37.8779" y1="14.3939" x2="37.8779" y2="5.67283" gradientUnits="userSpaceOnUse">
<stop stop-color="#0073B0"/>
<stop offset="1" stop-color="#0093C6"/>
</linearGradient>
<linearGradient id="paint78_linear_16611_153003" x1="37.8368" y1="14.3124" x2="37.8368" y2="5.70018" gradientUnits="userSpaceOnUse">
<stop stop-color="#0071AE"/>
<stop offset="1" stop-color="#008EC2"/>
</linearGradient>
<linearGradient id="paint79_linear_16611_153003" x1="37.81" y1="14.2454" x2="37.81" y2="5.72843" gradientUnits="userSpaceOnUse">
<stop stop-color="#0070AC"/>
<stop offset="1" stop-color="#008ABF"/>
</linearGradient>
<linearGradient id="paint80_linear_16611_153003" x1="37.7694" y1="14.1631" x2="37.7694" y2="5.75493" gradientUnits="userSpaceOnUse">
<stop stop-color="#006EAA"/>
<stop offset="1" stop-color="#0086BB"/>
</linearGradient>
<linearGradient id="paint81_linear_16611_153003" x1="37.7288" y1="14.0952" x2="37.7288" y2="5.78227" gradientUnits="userSpaceOnUse">
<stop stop-color="#006DA9"/>
<stop offset="1" stop-color="#0082B7"/>
</linearGradient>
<linearGradient id="paint82_linear_16611_153003" x1="37.7004" y1="14.0136" x2="37.7004" y2="5.80955" gradientUnits="userSpaceOnUse">
<stop stop-color="#006BA7"/>
<stop offset="1" stop-color="#007EB4"/>
</linearGradient>
<linearGradient id="paint83_linear_16611_153003" x1="37.6604" y1="13.9322" x2="37.6604" y2="5.83696" gradientUnits="userSpaceOnUse">
<stop stop-color="#006AA5"/>
<stop offset="1" stop-color="#007AB0"/>
</linearGradient>
<linearGradient id="paint84_linear_16611_153003" x1="37.6193" y1="13.8644" x2="37.6193" y2="5.86437" gradientUnits="userSpaceOnUse">
<stop stop-color="#0068A4"/>
<stop offset="1" stop-color="#0076AD"/>
</linearGradient>
<linearGradient id="paint85_linear_16611_153003" x1="37.5924" y1="13.7828" x2="37.5924" y2="5.89165" gradientUnits="userSpaceOnUse">
<stop stop-color="#0067A2"/>
<stop offset="1" stop-color="#0072AA"/>
</linearGradient>
<linearGradient id="paint86_linear_16611_153003" x1="37.5513" y1="13.7149" x2="37.5513" y2="5.91899" gradientUnits="userSpaceOnUse">
<stop stop-color="#0065A1"/>
<stop offset="1" stop-color="#006EA6"/>
</linearGradient>
<linearGradient id="paint87_linear_16611_153003" x1="37.5112" y1="13.6325" x2="37.5112" y2="5.94543" gradientUnits="userSpaceOnUse">
<stop stop-color="#00649F"/>
<stop offset="1" stop-color="#006BA3"/>
</linearGradient>
<linearGradient id="paint88_linear_16611_153003" x1="37.4702" y1="13.5646" x2="37.4702" y2="5.97277" gradientUnits="userSpaceOnUse">
<stop stop-color="#00639E"/>
<stop offset="1" stop-color="#0067A0"/>
</linearGradient>
<linearGradient id="paint89_linear_16611_153003" x1="37.4428" y1="13.4831" x2="37.4428" y2="6.00011" gradientUnits="userSpaceOnUse">
<stop stop-color="#00619C"/>
<stop offset="1" stop-color="#00639D"/>
</linearGradient>
<linearGradient id="paint90_linear_16611_153003" x1="37.9999" y1="9.30664" x2="37.9999" y2="-13.8362" gradientUnits="userSpaceOnUse">
<stop stop-color="#D1D3D4"/>
<stop offset="1" stop-color="white"/>
</linearGradient>
<linearGradient id="paint91_linear_16611_153003" x1="37.9999" y1="10.939" x2="37.9999" y2="19.0206" gradientUnits="userSpaceOnUse">
<stop stop-color="#D1D3D4"/>
<stop offset="1" stop-color="#58595B"/>
</linearGradient>
<linearGradient id="paint92_linear_16611_153003" x1="39.1156" y1="19.932" x2="37.0884" y2="0.571429" gradientUnits="userSpaceOnUse">
<stop stop-color="#E6E7E8"/>
<stop offset="1" stop-color="white"/>
</linearGradient>
<linearGradient id="paint93_linear_16611_153003" x1="32.9521" y1="5.36106" x2="43.0473" y2="14.776" gradientUnits="userSpaceOnUse">
<stop stop-color="#E6E7E8"/>
<stop offset="0.21" stop-color="#A7A9AC"/>
<stop offset="0.46" stop-color="#E6E7E8"/>
<stop offset="0.55" stop-color="#BABCBE"/>
<stop offset="0.64" stop-color="#AAABAD"/>
<stop offset="0.71" stop-color="#E6E7E8"/>
<stop offset="0.87" stop-color="#E6E7E8"/>
<stop offset="1" stop-color="#E6E7E8"/>
</linearGradient>
<linearGradient id="paint94_linear_16611_153003" x1="33.142" y1="5.53795" x2="42.8562" y2="14.5992" gradientUnits="userSpaceOnUse">
<stop stop-color="#E5E6E7"/>
<stop offset="0.21" stop-color="#A7AAAC"/>
<stop offset="0.46" stop-color="#E6E7E8"/>
<stop offset="0.55" stop-color="#BBBDBF"/>
<stop offset="0.64" stop-color="#ABACAE"/>
<stop offset="0.71" stop-color="#E4E5E6"/>
<stop offset="0.87" stop-color="#E2E2E4"/>
<stop offset="1" stop-color="#E6E7E8"/>
</linearGradient>
<linearGradient id="paint95_linear_16611_153003" x1="33.3334" y1="5.71464" x2="42.6667" y2="14.4221" gradientUnits="userSpaceOnUse">
<stop stop-color="#E3E4E5"/>
<stop offset="0.21" stop-color="#A8AAAD"/>
<stop offset="0.46" stop-color="#E6E7E8"/>
<stop offset="0.55" stop-color="#BCBEC0"/>
<stop offset="0.64" stop-color="#ACADAF"/>
<stop offset="0.71" stop-color="#E1E2E3"/>
<stop offset="0.87" stop-color="#DEDEE0"/>
<stop offset="1" stop-color="#E6E7E8"/>
</linearGradient>
<linearGradient id="paint96_linear_16611_153003" x1="33.5237" y1="5.89238" x2="42.4761" y2="14.2461" gradientUnits="userSpaceOnUse">
<stop stop-color="#E2E3E4"/>
<stop offset="0.21" stop-color="#A8AAAD"/>
<stop offset="0.46" stop-color="#E6E7E8"/>
<stop offset="0.55" stop-color="#BDBEC1"/>
<stop offset="0.64" stop-color="#ADAEB0"/>
<stop offset="0.71" stop-color="#DFE0E1"/>
<stop offset="0.87" stop-color="#DBDBDC"/>
<stop offset="1" stop-color="#E6E7E8"/>
</linearGradient>
<linearGradient id="paint97_linear_16611_153003" x1="33.7131" y1="6.06914" x2="42.2845" y2="14.0691" gradientUnits="userSpaceOnUse">
<stop stop-color="#E0E2E3"/>
<stop offset="0.21" stop-color="#A9ABAD"/>
<stop offset="0.46" stop-color="#E6E7E8"/>
<stop offset="0.55" stop-color="#BDBFC1"/>
<stop offset="0.64" stop-color="#AEAFB1"/>
<stop offset="0.71" stop-color="#DDDDDF"/>
<stop offset="0.87" stop-color="#D7D7D9"/>
<stop offset="1" stop-color="#E6E7E8"/>
</linearGradient>
<linearGradient id="paint98_linear_16611_153003" x1="33.9044" y1="6.24589" x2="42.0949" y2="13.8922" gradientUnits="userSpaceOnUse">
<stop stop-color="#DFE0E2"/>
<stop offset="0.21" stop-color="#A9ABAE"/>
<stop offset="0.46" stop-color="#E6E7E8"/>
<stop offset="0.55" stop-color="#BEC0C2"/>
<stop offset="0.64" stop-color="#AEB0B2"/>
<stop offset="0.71" stop-color="#DBDBDC"/>
<stop offset="0.87" stop-color="#D4D4D6"/>
<stop offset="1" stop-color="#E6E7E8"/>
</linearGradient>
<linearGradient id="paint99_linear_16611_153003" x1="34.0812" y1="6.42265" x2="41.9043" y2="13.7152" gradientUnits="userSpaceOnUse">
<stop stop-color="#DDDFE0"/>
<stop offset="0.21" stop-color="#A9ACAE"/>
<stop offset="0.46" stop-color="#E6E7E8"/>
<stop offset="0.55" stop-color="#BFC1C3"/>
<stop offset="0.64" stop-color="#AFB1B3"/>
<stop offset="0.71" stop-color="#D9D9DB"/>
<stop offset="0.87" stop-color="#D1D1D3"/>
<stop offset="1" stop-color="#E6E7E8"/>
</linearGradient>
<linearGradient id="paint100_linear_16611_153003" x1="34.2721" y1="6.59948" x2="41.7142" y2="13.5383" gradientUnits="userSpaceOnUse">
<stop stop-color="#DCDDDF"/>
<stop offset="0.21" stop-color="#AAACAE"/>
<stop offset="0.46" stop-color="#E6E7E8"/>
<stop offset="0.55" stop-color="#C0C2C4"/>
<stop offset="0.64" stop-color="#B0B2B4"/>
<stop offset="0.71" stop-color="#D7D7D9"/>
<stop offset="0.87" stop-color="#CFCED0"/>
<stop offset="1" stop-color="#E6E7E8"/>
</linearGradient>
<linearGradient id="paint101_linear_16611_153003" x1="34.462" y1="6.77526" x2="41.5232" y2="13.3603" gradientUnits="userSpaceOnUse">
<stop stop-color="#DBDCDE"/>
<stop offset="0.21" stop-color="#AAACAF"/>
<stop offset="0.46" stop-color="#E6E7E8"/>
<stop offset="0.55" stop-color="#C1C3C5"/>
<stop offset="0.64" stop-color="#B1B3B5"/>
<stop offset="0.71" stop-color="#D5D5D7"/>
<stop offset="0.87" stop-color="#CCCBCD"/>
<stop offset="1" stop-color="#E6E7E8"/>
</linearGradient>
<linearGradient id="paint102_linear_16611_153003" x1="34.6533" y1="6.95299" x2="41.3336" y2="13.1843" gradientUnits="userSpaceOnUse">
<stop stop-color="#D9DBDC"/>
<stop offset="0.21" stop-color="#ABADAF"/>
<stop offset="0.46" stop-color="#E6E7E8"/>
<stop offset="0.55" stop-color="#C2C4C6"/>
<stop offset="0.64" stop-color="#B2B4B5"/>
<stop offset="0.71" stop-color="#D3D4D5"/>
<stop offset="0.87" stop-color="#C9C8CB"/>
<stop offset="1" stop-color="#E6E7E8"/>
</linearGradient>
<linearGradient id="paint103_linear_16611_153003" x1="34.8432" y1="7.12975" x2="41.1425" y2="13.0073" gradientUnits="userSpaceOnUse">
<stop stop-color="#D8D9DB"/>
<stop offset="0.21" stop-color="#ABADB0"/>
<stop offset="0.46" stop-color="#E6E7E8"/>
<stop offset="0.55" stop-color="#C3C5C7"/>
<stop offset="0.64" stop-color="#B3B5B6"/>
<stop offset="0.71" stop-color="#D2D2D3"/>
<stop offset="0.87" stop-color="#C6C6C8"/>
<stop offset="1" stop-color="#E6E7E8"/>
</linearGradient>
<linearGradient id="paint104_linear_16611_153003" x1="35.0336" y1="7.30748" x2="40.9519" y2="12.8313" gradientUnits="userSpaceOnUse">
<stop stop-color="#D6D8DA"/>
<stop offset="0.21" stop-color="#ABADB0"/>
<stop offset="0.46" stop-color="#E6E7E8"/>
<stop offset="0.55" stop-color="#C4C6C8"/>
<stop offset="0.64" stop-color="#B4B5B7"/>
<stop offset="0.71" stop-color="#D0D0D1"/>
<stop offset="0.87" stop-color="#C3C3C5"/>
<stop offset="1" stop-color="#E6E7E8"/>
</linearGradient>
<linearGradient id="paint105_linear_16611_153003" x1="35.2249" y1="7.48327" x2="40.7623" y2="12.6533" gradientUnits="userSpaceOnUse">
<stop stop-color="#D5D7D9"/>
<stop offset="0.21" stop-color="#ACAEB0"/>
<stop offset="0.46" stop-color="#E6E7E8"/>
<stop offset="0.55" stop-color="#C5C6C9"/>
<stop offset="0.64" stop-color="#B5B6B8"/>
<stop offset="0.71" stop-color="#CECED0"/>
<stop offset="0.87" stop-color="#C1C0C3"/>
<stop offset="1" stop-color="#E6E7E8"/>
</linearGradient>
<linearGradient id="paint106_linear_16611_153003" x1="35.4143" y1="7.66002" x2="40.5844" y2="12.4764" gradientUnits="userSpaceOnUse">
<stop stop-color="#D4D6D7"/>
<stop offset="0.21" stop-color="#ACAEB1"/>
<stop offset="0.46" stop-color="#E6E7E8"/>
<stop offset="0.55" stop-color="#C6C7C9"/>
<stop offset="0.64" stop-color="#B6B7B9"/>
<stop offset="0.71" stop-color="#CCCCCE"/>
<stop offset="0.87" stop-color="#BEBDC0"/>
<stop offset="1" stop-color="#E6E7E8"/>
</linearGradient>
<linearGradient id="paint107_linear_16611_153003" x1="35.6052" y1="7.83782" x2="40.3943" y2="12.3004" gradientUnits="userSpaceOnUse">
<stop stop-color="#D2D4D6"/>
<stop offset="0.21" stop-color="#ADAFB1"/>
<stop offset="0.46" stop-color="#E6E7E8"/>
<stop offset="0.55" stop-color="#C7C8CA"/>
<stop offset="0.64" stop-color="#B7B8BA"/>
<stop offset="0.71" stop-color="#CBCBCC"/>
<stop offset="0.87" stop-color="#BBBBBE"/>
<stop offset="1" stop-color="#E6E7E8"/>
</linearGradient>
<linearGradient id="paint108_linear_16611_153003" x1="35.7961" y1="8.01458" x2="40.2042" y2="12.1234" gradientUnits="userSpaceOnUse">
<stop stop-color="#D1D3D5"/>
<stop offset="0.21" stop-color="#ADAFB2"/>
<stop offset="0.46" stop-color="#E6E7E8"/>
<stop offset="0.55" stop-color="#C7C9CB"/>
<stop offset="0.64" stop-color="#B8B9BB"/>
<stop offset="0.71" stop-color="#C9C9CB"/>
<stop offset="0.87" stop-color="#B8B8BB"/>
<stop offset="1" stop-color="#E6E7E8"/>
</linearGradient>
<linearGradient id="paint109_linear_16611_153003" x1="35.9859" y1="8.19134" x2="40.0132" y2="11.9464" gradientUnits="userSpaceOnUse">
<stop stop-color="#D0D2D3"/>
<stop offset="0.21" stop-color="#ADAFB2"/>
<stop offset="0.46" stop-color="#E6E7E8"/>
<stop offset="0.55" stop-color="#C8CACC"/>
<stop offset="0.64" stop-color="#B9BABC"/>
<stop offset="0.71" stop-color="#C7C7C9"/>
<stop offset="0.87" stop-color="#B6B5B9"/>
<stop offset="1" stop-color="#E6E7E8"/>
</linearGradient>
<linearGradient id="paint110_linear_16611_153003" x1="36.1763" y1="8.3681" x2="39.8226" y2="11.7695" gradientUnits="userSpaceOnUse">
<stop stop-color="#CED0D2"/>
<stop offset="0.21" stop-color="#AEB0B2"/>
<stop offset="0.46" stop-color="#E6E7E8"/>
<stop offset="0.55" stop-color="#C9CBCD"/>
<stop offset="0.64" stop-color="#BABBBD"/>
<stop offset="0.71" stop-color="#C6C5C7"/>
<stop offset="0.87" stop-color="#B3B2B6"/>
<stop offset="1" stop-color="#E6E7E8"/>
</linearGradient>
<linearGradient id="paint111_linear_16611_153003" x1="36.3672" y1="8.54486" x2="39.6325" y2="11.5925" gradientUnits="userSpaceOnUse">
<stop stop-color="#CDCFD1"/>
<stop offset="0.21" stop-color="#AEB0B3"/>
<stop offset="0.46" stop-color="#E6E7E8"/>
<stop offset="0.55" stop-color="#CACCCE"/>
<stop offset="0.64" stop-color="#BABCBD"/>
<stop offset="0.71" stop-color="#C4C4C6"/>
<stop offset="0.87" stop-color="#B0B0B4"/>
<stop offset="1" stop-color="#E6E7E8"/>
</linearGradient>
<linearGradient id="paint112_linear_16611_153003" x1="36.5575" y1="8.72161" x2="39.4419" y2="11.4155" gradientUnits="userSpaceOnUse">
<stop stop-color="#CCCED0"/>
<stop offset="0.21" stop-color="#AFB1B3"/>
<stop offset="0.46" stop-color="#E6E7E8"/>
<stop offset="0.55" stop-color="#CBCDCF"/>
<stop offset="0.64" stop-color="#BBBDBE"/>
<stop offset="0.71" stop-color="#C2C2C4"/>
<stop offset="0.87" stop-color="#AEADB1"/>
<stop offset="1" stop-color="#E6E7E8"/>
</linearGradient>
<linearGradient id="paint113_linear_16611_153003" x1="36.7484" y1="8.89941" x2="39.2518" y2="11.2396" gradientUnits="userSpaceOnUse">
<stop stop-color="#CACDCF"/>
<stop offset="0.21" stop-color="#AFB1B3"/>
<stop offset="0.46" stop-color="#E6E7E8"/>
<stop offset="0.55" stop-color="#CCCECF"/>
<stop offset="0.64" stop-color="#BCBEBF"/>
<stop offset="0.71" stop-color="#C1C0C3"/>
<stop offset="0.87" stop-color="#ABABAF"/>
<stop offset="1" stop-color="#E6E7E8"/>
</linearGradient>
<linearGradient id="paint114_linear_16611_153003" x1="36.9383" y1="9.08978" x2="39.0608" y2="11.0626" gradientUnits="userSpaceOnUse">
<stop stop-color="#C9CBCD"/>
<stop offset="0.21" stop-color="#AFB1B4"/>
<stop offset="0.46" stop-color="#E6E7E8"/>
<stop offset="0.55" stop-color="#CDCFD0"/>
<stop offset="0.64" stop-color="#BDBEC0"/>
<stop offset="0.71" stop-color="#BFBFC1"/>
<stop offset="0.87" stop-color="#A9A8AC"/>
<stop offset="1" stop-color="#E6E7E8"/>
</linearGradient>
<linearGradient id="paint115_linear_16611_153003" x1="32.9521" y1="5.36106" x2="43.0473" y2="14.776" gradientUnits="userSpaceOnUse">
<stop stop-color="#EDEDEE"/>
<stop offset="0.21" stop-color="#BCBEC0"/>
<stop offset="0.46" stop-color="#EDEDEE"/>
<stop offset="0.55" stop-color="#CBCCCE"/>
<stop offset="0.64" stop-color="#B9BBBC"/>
<stop offset="0.71" stop-color="#E6E7E8"/>
<stop offset="0.87" stop-color="#EDEDEE"/>
<stop offset="1" stop-color="#EDEDEE"/>
</linearGradient>
<linearGradient id="paint116_linear_16611_153003" x1="37.9997" y1="9.7148" x2="37.9997" y2="3.9461" gradientUnits="userSpaceOnUse">
<stop stop-color="#D1D3D4"/>
<stop offset="1" stop-color="white"/>
</linearGradient>
<linearGradient id="paint117_linear_16611_153003" x1="37.9997" y1="10.5991" x2="37.9997" y2="15.0209" gradientUnits="userSpaceOnUse">
<stop stop-color="#D1D3D4"/>
<stop offset="1" stop-color="#58595B"/>
</linearGradient>
<linearGradient id="paint118_linear_16611_153003" x1="31.9043" y1="1.59281" x2="43.1832" y2="17.1166" gradientUnits="userSpaceOnUse">
<stop stop-color="#E4E5E6"/>
<stop offset="0.21" stop-color="#BCBEC0"/>
<stop offset="0.46" stop-color="#E9E9EA"/>
<stop offset="0.55" stop-color="#C4C6C8"/>
<stop offset="0.71" stop-color="white"/>
<stop offset="0.78" stop-color="white"/>
<stop offset="1" stop-color="#E9E9EA"/>
</linearGradient>
<linearGradient id="paint119_linear_16611_153003" x1="35.8379" y1="7.08897" x2="39.8515" y2="12.6128" gradientUnits="userSpaceOnUse">
<stop stop-color="#E4E5E6"/>
<stop offset="0.21" stop-color="#BCBEC0"/>
<stop offset="0.71" stop-color="#E9E9EA"/>
<stop offset="1" stop-color="#E9E9EA"/>
</linearGradient>
<radialGradient id="paint120_radial_16611_153003" cx="0" cy="0" r="1" gradientUnits="userSpaceOnUse" gradientTransform="translate(38.6396 11.2118) scale(4.76191)">
<stop stop-color="#0062A2"/>
<stop offset="0.54" stop-color="#0F4472"/>
<stop offset="1" stop-color="#001116"/>
</radialGradient>
</defs>
</svg>
