<svg width="48" height="48" viewBox="0 0 48 48" fill="none" xmlns="http://www.w3.org/2000/svg">
<path d="M40 41.076C40 42.6862 38.4861 43.9998 36.6308 43.9998H11.3692C9.51391 43.9998 8 42.6862 8 41.076V7.12056C8 5.51036 9.51391 4.19678 11.3692 4.19678H36.6308C38.4861 4.19678 40 5.51036 40 7.12056V41.076Z" fill="#383838"/>
<path d="M39.2579 40.6674C39.2579 42.2776 37.7885 43.577 35.9629 43.577H11.295C9.48423 43.577 8 42.2776 8 40.6674V6.90966C8.01484 5.29946 9.48423 4 11.295 4H35.9629C37.7737 4 39.2579 5.29946 39.2579 6.90966V40.6674Z" fill="url(#paint0_linear_4220_35675)"/>
<path d="M38.0113 5.49658C37.4473 5.12934 36.6013 4.71973 35.6514 4.71973H12.3489C11.399 4.71973 10.553 5.11521 9.98901 5.49658H38.0113Z" fill="white"/>
<path d="M33.9149 8.26465H27.414L17.9446 40.4404H33.9149C35.414 40.4404 36.631 39.494 36.631 38.3358V10.3692C36.631 9.21099 35.414 8.26465 33.9149 8.26465Z" fill="url(#paint1_linear_4220_35675)"/>
<path d="M14.085 8.26465C12.586 8.26465 11.3689 9.21099 11.3689 10.3692V38.3358C11.3689 39.494 12.586 40.4404 14.085 40.4404H17.944L27.4134 8.26465H14.085Z" fill="url(#paint2_linear_4220_35675)"/>
<path fill-rule="evenodd" clip-rule="evenodd" d="M23.7882 17.4487C27.4043 17.4487 30.345 20.3895 30.345 24.0055C30.345 27.6215 27.4043 30.5623 23.7882 30.5623C20.1722 30.5623 17.2314 27.6215 17.2314 24.0055C17.2314 20.3895 20.1722 17.4487 23.7882 17.4487Z" fill="#004976"/>
<path fill-rule="evenodd" clip-rule="evenodd" d="M24.9529 17.1219C24.8658 17.111 24.8114 17.0348 24.8114 16.9585V16.1961C24.8114 16.0981 24.7351 16.0219 24.6371 16.0219H23.3628C23.2647 16.0219 23.1885 16.0981 23.1885 16.1961V16.9585C23.1885 17.0457 23.1231 17.111 23.036 17.1219C22.4479 17.1982 21.8815 17.3506 21.3587 17.5685C21.2825 17.6011 21.1953 17.5685 21.1518 17.4922L20.7705 16.8278C20.727 16.7516 20.6181 16.7189 20.5418 16.7625L19.4418 17.3942C19.3655 17.4378 19.3328 17.5467 19.3764 17.6229L19.7576 18.2873C19.8012 18.3636 19.7794 18.4507 19.7141 18.5051C19.2566 18.8646 18.8427 19.2785 18.4833 19.7359C18.4288 19.8013 18.3417 19.823 18.2655 19.7795L17.6011 19.3983C17.5248 19.3547 17.4159 19.3765 17.3723 19.4636L16.7406 20.5637C16.6971 20.6399 16.7189 20.7488 16.806 20.7924L17.4704 21.1736C17.5466 21.2172 17.5793 21.3043 17.5466 21.3805C17.3288 21.9142 17.1763 22.4806 17.1001 23.0579C17.0892 23.145 17.0129 23.1995 16.9367 23.1995H16.1743C16.0762 23.1995 16 23.2757 16 23.3737V24.648C16 24.7461 16.0762 24.8223 16.1743 24.8223H16.9367C17.0238 24.8223 17.0892 24.8877 17.1001 24.9639C17.1763 25.5521 17.3288 26.1184 17.5466 26.6412C17.5793 26.7175 17.5466 26.8046 17.4704 26.8482L16.806 27.2294C16.7297 27.2729 16.6971 27.3819 16.7406 27.4581L17.3723 28.5582C17.4159 28.6344 17.5248 28.6671 17.6011 28.6235L18.2655 28.2423C18.3417 28.1987 18.4288 28.2205 18.4833 28.2859C18.8427 28.7433 19.2566 29.1572 19.7141 29.5166C19.7794 29.5711 19.8012 29.6582 19.7576 29.7345L19.3764 30.3988C19.3328 30.4751 19.3546 30.584 19.4418 30.6276L20.5418 31.2593C20.6181 31.3029 20.727 31.2811 20.7705 31.1939L21.1518 30.5295C21.1953 30.4533 21.2825 30.4206 21.3587 30.4533C21.8924 30.6711 22.4588 30.8236 23.036 30.8999C23.1231 30.9108 23.1885 30.987 23.1885 31.0632V31.8257C23.1885 31.9237 23.2647 31.9999 23.3628 31.9999H24.6371C24.7351 31.9999 24.8114 31.9237 24.8114 31.8257V31.0632C24.8114 30.9761 24.8767 30.9108 24.9529 30.8999C25.5411 30.8236 26.1075 30.6711 26.6303 30.4533C26.7065 30.4206 26.7936 30.4533 26.8372 30.5295L27.2184 31.1939C27.262 31.2702 27.3709 31.3029 27.4471 31.2593L28.5472 30.6276C28.6234 30.584 28.6561 30.4751 28.6125 30.3988L28.2313 29.7345C28.1878 29.6582 28.2096 29.5711 28.2749 29.5166C28.7324 29.1572 29.1462 28.7433 29.5057 28.2859C29.5601 28.2205 29.6473 28.1987 29.7235 28.2423L30.3879 28.6235C30.4641 28.6671 30.573 28.6453 30.6166 28.5582L31.2483 27.4581C31.2919 27.3819 31.2701 27.2729 31.183 27.2294L30.5186 26.8482C30.4423 26.8046 30.4097 26.7175 30.4423 26.6412C30.6602 26.1075 30.8127 25.5412 30.8889 24.9639C30.8998 24.8768 30.976 24.8223 31.0523 24.8223H31.8147C31.9127 24.8223 31.989 24.7461 31.989 24.648V23.3737C31.989 23.2757 31.9127 23.1995 31.8147 23.1995H31.0523C30.9651 23.1995 30.8998 23.1341 30.8889 23.0579C30.8127 22.4697 30.6602 21.9033 30.4423 21.3805C30.4097 21.3043 30.4423 21.2172 30.5186 21.1736L31.183 20.7924C31.2592 20.7488 31.2919 20.6399 31.2483 20.5637L30.6166 19.4636C30.573 19.3874 30.4641 19.3547 30.3879 19.3983L29.7235 19.7795C29.6473 19.823 29.5601 19.8013 29.5057 19.7359C29.1462 19.2785 28.7324 18.8646 28.2749 18.5051C28.2096 18.4507 28.1878 18.3636 28.2313 18.2873L28.6125 17.6229C28.6561 17.5467 28.6343 17.4378 28.5472 17.3942L27.4471 16.7625C27.3709 16.7189 27.262 16.7407 27.2184 16.8278L26.8372 17.4922C26.7936 17.5685 26.7065 17.6011 26.6303 17.5685C26.0966 17.3506 25.5302 17.1982 24.9529 17.1219Z" fill="url(#paint3_radial_4220_35675)"/>
<path fill-rule="evenodd" clip-rule="evenodd" d="M24.0055 17.0566C27.8611 17.0566 30.987 20.1825 30.987 24.0273C30.987 27.8721 27.8611 31.0089 24.0055 31.0089C20.1498 31.0089 17.0239 27.883 17.0239 24.0273C17.0239 20.1717 20.1498 17.0566 24.0055 17.0566Z" fill="url(#paint4_linear_4220_35675)"/>
<path fill-rule="evenodd" clip-rule="evenodd" d="M24.0049 30.8568C20.2364 30.8568 17.1868 27.8072 17.1868 24.0386C17.1868 20.2701 20.2364 17.2205 24.0049 17.2205C27.7735 17.2205 30.8231 20.2701 30.8231 24.0386C30.8231 27.8072 27.7735 30.8568 24.0049 30.8568Z" fill="url(#paint5_linear_4220_35675)"/>
<path fill-rule="evenodd" clip-rule="evenodd" d="M24.0053 30.6928C20.3239 30.6928 17.3396 27.7085 17.3396 24.0271C17.3396 20.3458 20.3239 17.3615 24.0053 17.3615C27.6867 17.3615 30.671 20.3458 30.671 24.0271C30.671 27.7085 27.6867 30.6928 24.0053 30.6928Z" fill="url(#paint6_linear_4220_35675)"/>
<path fill-rule="evenodd" clip-rule="evenodd" d="M24.0053 30.5408C20.411 30.5408 17.5029 27.6218 17.5029 24.0385C17.5029 20.4551 20.4219 17.5361 24.0053 17.5361C27.5886 17.5361 30.5076 20.4551 30.5076 24.0385C30.5076 27.6218 27.5886 30.5408 24.0053 30.5408Z" fill="url(#paint7_linear_4220_35675)"/>
<path fill-rule="evenodd" clip-rule="evenodd" d="M24.0056 30.3773C20.4985 30.3773 17.6558 27.5346 17.6558 24.0275C17.6558 20.5203 20.4985 17.6776 24.0056 17.6776C27.5127 17.6776 30.3554 20.5203 30.3554 24.0275C30.3554 27.5346 27.5127 30.3773 24.0056 30.3773Z" fill="url(#paint8_linear_4220_35675)"/>
<path fill-rule="evenodd" clip-rule="evenodd" d="M24.0059 30.2251C20.586 30.2251 17.8086 27.4478 17.8086 24.0278C17.8086 20.6078 20.586 17.8413 24.0059 17.8413C27.4259 17.8413 30.2033 20.6187 30.2033 24.0278C30.2033 27.4369 27.4259 30.2251 24.0059 30.2251Z" fill="url(#paint9_linear_4220_35675)"/>
<path fill-rule="evenodd" clip-rule="evenodd" d="M24.0059 30.0726C20.6731 30.0726 17.9719 27.3715 17.9719 24.0386C17.9719 20.7058 20.6731 18.0046 24.0059 18.0046C27.3388 18.0046 30.0399 20.7058 30.0399 24.0386C30.0399 27.3715 27.3388 30.0726 24.0059 30.0726Z" fill="url(#paint10_linear_4220_35675)"/>
<path fill-rule="evenodd" clip-rule="evenodd" d="M24.0048 29.9091C20.7591 29.9091 18.1233 27.2733 18.1233 24.0276C18.1233 20.7819 20.7591 18.1461 24.0048 18.1461C27.2505 18.1461 29.8863 20.7819 29.8863 24.0276C29.8863 27.2733 27.2505 29.9091 24.0048 29.9091Z" fill="url(#paint11_linear_4220_35675)"/>
<path fill-rule="evenodd" clip-rule="evenodd" d="M24.0052 29.7566C20.8467 29.7566 18.2871 27.197 18.2871 24.0384C18.2871 20.8799 20.8467 18.3203 24.0052 18.3203C27.1638 18.3203 29.7234 20.8799 29.7234 24.0384C29.7234 27.197 27.1638 29.7566 24.0052 29.7566Z" fill="url(#paint12_linear_4220_35675)"/>
<path fill-rule="evenodd" clip-rule="evenodd" d="M24.0051 29.5931C20.9336 29.5931 18.4395 27.0989 18.4395 24.0274C18.4395 20.956 20.9336 18.4618 24.0051 18.4618C27.0765 18.4618 29.5707 20.956 29.5707 24.0274C29.5707 27.0989 27.0765 29.5931 24.0051 29.5931Z" fill="url(#paint13_linear_4220_35675)"/>
<path fill-rule="evenodd" clip-rule="evenodd" d="M24.0054 29.4404C21.0211 29.4404 18.5923 27.0116 18.5923 24.0273C18.5923 21.0429 21.0211 18.625 24.0054 18.625C26.9898 18.625 29.4186 21.0538 29.4186 24.0273C29.4186 27.0007 26.9898 29.4404 24.0054 29.4404Z" fill="url(#paint14_linear_4220_35675)"/>
<path fill-rule="evenodd" clip-rule="evenodd" d="M24.0054 29.278C21.1082 29.278 18.7556 26.9254 18.7556 24.0282C18.7556 21.131 21.1082 18.7784 24.0054 18.7784C26.9026 18.7784 29.2552 21.131 29.2552 24.0282C29.2552 26.9254 26.9026 29.278 24.0054 29.278Z" fill="url(#paint15_linear_4220_35675)"/>
<path fill-rule="evenodd" clip-rule="evenodd" d="M24.0053 29.1249C21.1952 29.1249 18.908 26.8376 18.908 24.0276C18.908 21.2175 21.1952 18.9303 24.0053 18.9303C26.8153 18.9303 29.1026 21.2175 29.1026 24.0276C29.1026 26.8376 26.8153 29.1249 24.0053 29.1249Z" fill="url(#paint16_linear_4220_35675)"/>
<path fill-rule="evenodd" clip-rule="evenodd" d="M24.0052 28.9723C21.2823 28.9723 19.0713 26.7613 19.0713 24.0384C19.0713 21.3155 21.2823 19.1045 24.0052 19.1045C26.7281 19.1045 28.9391 21.3155 28.9391 24.0384C28.9391 26.7613 26.7281 28.9723 24.0052 28.9723Z" fill="url(#paint17_linear_4220_35675)"/>
<path fill-rule="evenodd" clip-rule="evenodd" d="M24.0056 28.8089C21.3698 28.8089 19.2241 26.6632 19.2241 24.0274C19.2241 21.3916 21.3698 19.246 24.0056 19.246C26.6413 19.246 28.787 21.3916 28.787 24.0274C28.787 26.6632 26.6413 28.8089 24.0056 28.8089Z" fill="url(#paint18_linear_4220_35675)"/>
<path fill-rule="evenodd" clip-rule="evenodd" d="M24.0054 28.6567C21.4568 28.6567 19.3765 26.5873 19.3765 24.0277C19.3765 21.4682 21.4459 19.4097 24.0054 19.4097C26.565 19.4097 28.6344 21.4791 28.6344 24.0277C28.6344 26.5764 26.565 28.6567 24.0054 28.6567Z" fill="url(#paint19_linear_4220_35675)"/>
<path fill-rule="evenodd" clip-rule="evenodd" d="M24.0054 28.4928C21.5439 28.4928 19.5398 26.4887 19.5398 24.0272C19.5398 21.5657 21.5439 19.5616 24.0054 19.5616C26.4669 19.5616 28.471 21.5657 28.471 24.0272C28.471 26.4887 26.4669 28.4928 24.0054 28.4928Z" fill="url(#paint20_linear_4220_35675)"/>
<path fill-rule="evenodd" clip-rule="evenodd" d="M24.0052 28.3407C21.6309 28.3407 19.6921 26.402 19.6921 24.0276C19.6921 21.6532 21.6309 19.7145 24.0052 19.7145C26.3796 19.7145 28.3183 21.6532 28.3183 24.0276C28.3183 26.402 26.3796 28.3407 24.0052 28.3407Z" fill="url(#paint21_linear_4220_35675)"/>
<path fill-rule="evenodd" clip-rule="evenodd" d="M24.0062 28.1881C21.7189 28.1881 19.8564 26.3256 19.8564 24.0384C19.8564 21.7511 21.7189 19.8887 24.0062 19.8887C26.2934 19.8887 28.1559 21.7511 28.1559 24.0384C28.1559 26.3256 26.2934 28.1881 24.0062 28.1881Z" fill="url(#paint22_linear_4220_35675)"/>
<path fill-rule="evenodd" clip-rule="evenodd" d="M24.0055 28.0246C21.8054 28.0246 20.0083 26.2275 20.0083 24.0274C20.0083 21.8273 21.8054 20.0302 24.0055 20.0302C26.2057 20.0302 28.0028 21.8273 28.0028 24.0274C28.0028 26.2275 26.2057 28.0246 24.0055 28.0246Z" fill="url(#paint23_linear_4220_35675)"/>
<path fill-rule="evenodd" clip-rule="evenodd" d="M24.0054 27.8726C21.8924 27.8726 20.1606 26.1517 20.1606 24.0387C20.1606 21.9257 21.8815 20.2048 24.0054 20.2048C26.1293 20.2048 27.8393 21.9257 27.8393 24.0387C27.8393 26.1517 26.1184 27.8726 24.0054 27.8726Z" fill="url(#paint24_linear_4220_35675)"/>
<path fill-rule="evenodd" clip-rule="evenodd" d="M24.0049 27.7091C26.0307 27.7091 27.6863 26.0535 27.6863 24.0277C27.6863 22.0018 26.0307 20.3463 24.0049 20.3463C21.979 20.3463 20.3235 22.0018 20.3235 24.0277C20.3235 26.0535 21.979 27.7091 24.0049 27.7091Z" fill="url(#paint25_linear_4220_35675)"/>
<path fill-rule="evenodd" clip-rule="evenodd" d="M24.0058 18.1461C27.2406 18.1461 29.8546 20.7601 29.8546 23.9949C29.8546 27.2298 27.2406 29.8438 24.0058 29.8438C20.771 29.8438 18.157 27.2298 18.157 23.9949C18.157 20.7601 20.771 18.1461 24.0058 18.1461Z" fill="url(#paint26_linear_4220_35675)"/>
<path fill-rule="evenodd" clip-rule="evenodd" d="M24.0051 29.8326C20.7921 29.8326 18.189 27.2295 18.189 24.0165C18.189 20.8034 20.7921 18.2003 24.0051 18.2003C27.2182 18.2003 29.8213 20.8034 29.8213 24.0165C29.8213 27.2295 27.2182 29.8326 24.0051 29.8326Z" fill="url(#paint27_linear_4220_35675)"/>
<path fill-rule="evenodd" clip-rule="evenodd" d="M24.0058 29.8327C20.8036 29.8327 18.2114 27.2405 18.2114 24.0384C18.2114 20.8362 20.8036 18.244 24.0058 18.244C27.2079 18.244 29.8002 20.8362 29.8002 24.0384C29.8002 27.2405 27.2079 29.8327 24.0058 29.8327Z" fill="url(#paint28_linear_4220_35675)"/>
<path fill-rule="evenodd" clip-rule="evenodd" d="M24.0058 29.8225C20.8255 29.8225 18.2441 27.2411 18.2441 24.0608C18.2441 20.8804 20.8255 18.2991 24.0058 18.2991C27.1862 18.2991 29.7675 20.8804 29.7675 24.0608C29.7675 27.2411 27.1862 29.8225 24.0058 29.8225Z" fill="url(#paint29_linear_4220_35675)"/>
<path fill-rule="evenodd" clip-rule="evenodd" d="M24.0054 29.8222C20.8359 29.8222 18.2764 27.2517 18.2764 24.0932C18.2764 20.9346 20.8468 18.3641 24.0054 18.3641C27.164 18.3641 29.7344 20.9346 29.7344 24.0932C29.7344 27.2517 27.164 29.8222 24.0054 29.8222Z" fill="url(#paint30_linear_4220_35675)"/>
<path fill-rule="evenodd" clip-rule="evenodd" d="M24.0051 29.8108C20.8574 29.8108 18.2979 27.2513 18.2979 24.1036C18.2979 20.9559 20.8574 18.3964 24.0051 18.3964C27.1528 18.3964 29.7123 20.9559 29.7123 24.1036C29.7123 27.2513 27.1528 29.8108 24.0051 29.8108Z" fill="url(#paint31_linear_4220_35675)"/>
<path fill-rule="evenodd" clip-rule="evenodd" d="M24.0061 29.811C20.8693 29.811 18.3315 27.2624 18.3315 24.1365C18.3315 21.0106 20.8802 18.4619 24.0061 18.4619C27.132 18.4619 29.6807 21.0106 29.6807 24.1365C29.6807 27.2624 27.132 29.811 24.0061 29.811Z" fill="url(#paint32_linear_4220_35675)"/>
<path fill-rule="evenodd" clip-rule="evenodd" d="M24.0057 29.8002C20.8906 29.8002 18.3638 27.2734 18.3638 24.1584C18.3638 21.0433 20.8906 18.5165 24.0057 18.5165C27.1207 18.5165 29.6475 21.0433 29.6475 24.1584C29.6475 27.2734 27.1207 29.8002 24.0057 29.8002Z" fill="url(#paint33_linear_4220_35675)"/>
<path fill-rule="evenodd" clip-rule="evenodd" d="M24.0051 29.7894C20.901 29.7894 18.385 27.2734 18.385 24.1693C18.385 21.0652 20.901 18.5492 24.0051 18.5492C27.1092 18.5492 29.6252 21.0652 29.6252 24.1693C29.6252 27.2734 27.1092 29.7894 24.0051 29.7894Z" fill="url(#paint34_linear_4220_35675)"/>
<path fill-rule="evenodd" clip-rule="evenodd" d="M24.0061 29.7896C20.9238 29.7896 18.4187 27.2845 18.4187 24.2022C18.4187 21.1198 20.9238 18.6147 24.0061 18.6147C27.0885 18.6147 29.5935 21.1198 29.5935 24.2022C29.5935 27.2845 27.0885 29.7896 24.0061 29.7896Z" fill="url(#paint35_linear_4220_35675)"/>
<path fill-rule="evenodd" clip-rule="evenodd" d="M24.0054 29.7783C20.934 29.7783 18.4507 27.2841 18.4507 24.2236C18.4507 21.163 20.9449 18.6688 24.0054 18.6688C27.066 18.6688 29.5602 21.163 29.5602 24.2236C29.5602 27.2841 27.066 29.7783 24.0054 29.7783Z" fill="url(#paint36_linear_4220_35675)"/>
<path fill-rule="evenodd" clip-rule="evenodd" d="M24.0054 29.7785C20.9557 29.7785 18.4724 27.2952 18.4724 24.2455C18.4724 21.1958 20.9557 18.7125 24.0054 18.7125C27.055 18.7125 29.5383 21.1958 29.5383 24.2455C29.5383 27.2952 27.055 29.7785 24.0054 29.7785Z" fill="url(#paint37_linear_4220_35675)"/>
<path fill-rule="evenodd" clip-rule="evenodd" d="M24.0054 29.7672C20.9666 29.7672 18.5051 27.2948 18.5051 24.2669C18.5051 21.239 20.9775 18.7666 24.0054 18.7666C27.0333 18.7666 29.5057 21.239 29.5057 24.2669C29.5057 27.2948 27.0333 29.7672 24.0054 29.7672Z" fill="url(#paint38_linear_4220_35675)"/>
<path fill-rule="evenodd" clip-rule="evenodd" d="M24.0056 29.7678C20.9886 29.7678 18.5271 27.3172 18.5271 24.2893C18.5271 21.2614 20.9777 18.8217 24.0056 18.8217C27.0335 18.8217 29.4732 21.2723 29.4732 24.2893C29.4732 27.3063 27.0226 29.7678 24.0056 29.7678Z" fill="url(#paint39_linear_4220_35675)"/>
<path fill-rule="evenodd" clip-rule="evenodd" d="M24.0056 29.757C20.9995 29.757 18.5598 27.3173 18.5598 24.3112C18.5598 21.3051 20.9995 18.8654 24.0056 18.8654C27.0117 18.8654 29.4515 21.3051 29.4515 24.3112C29.4515 27.3173 27.0117 29.757 24.0056 29.757Z" fill="url(#paint40_linear_4220_35675)"/>
<path fill-rule="evenodd" clip-rule="evenodd" d="M24.0052 29.7567C21.0209 29.7567 18.592 27.3279 18.592 24.3436C18.592 21.3593 21.0209 18.9304 24.0052 18.9304C26.9895 18.9304 29.4184 21.3593 29.4184 24.3436C29.4184 27.3279 26.9895 29.7567 24.0052 29.7567Z" fill="url(#paint41_linear_4220_35675)"/>
<path fill-rule="evenodd" clip-rule="evenodd" d="M24.0056 29.7459C21.0322 29.7459 18.6143 27.3279 18.6143 24.3545C18.6143 21.3811 21.0322 18.9631 24.0056 18.9631C26.9791 18.9631 29.397 21.3811 29.397 24.3545C29.397 27.3279 26.9791 29.7459 24.0056 29.7459Z" fill="url(#paint42_linear_4220_35675)"/>
<path fill-rule="evenodd" clip-rule="evenodd" d="M24.0054 29.7347C21.0538 29.7347 18.6467 27.3277 18.6467 24.376C18.6467 21.4244 21.0538 19.0173 24.0054 19.0173C26.9571 19.0173 29.3641 21.4244 29.3641 24.376C29.3641 27.3277 26.9571 29.7347 24.0054 29.7347Z" fill="url(#paint43_linear_4220_35675)"/>
<path fill-rule="evenodd" clip-rule="evenodd" d="M24.0055 29.7348C21.0647 29.7348 18.6794 27.3386 18.6794 24.4088C18.6794 21.4789 21.0756 19.0828 24.0055 19.0828C26.9353 19.0828 29.3315 21.4789 29.3315 24.4088C29.3315 27.3386 26.9353 29.7348 24.0055 29.7348Z" fill="url(#paint44_linear_4220_35675)"/>
<path fill-rule="evenodd" clip-rule="evenodd" d="M24.0054 29.724C21.0864 29.724 18.7012 27.3387 18.7012 24.4197C18.7012 21.5008 21.0756 19.1155 24.0054 19.1155C26.9353 19.1155 29.3097 21.5008 29.3097 24.4197C29.3097 27.3387 26.9353 29.724 24.0054 29.724Z" fill="url(#paint45_linear_4220_35675)"/>
<path fill-rule="evenodd" clip-rule="evenodd" d="M24.005 29.7242C21.0969 29.7242 18.7334 27.3607 18.7334 24.4526C18.7334 21.5445 21.0969 19.181 24.005 19.181C26.913 19.181 29.2765 21.5445 29.2765 24.4526C29.2765 27.3607 26.913 29.7242 24.005 29.7242Z" fill="url(#paint46_linear_4220_35675)"/>
<path fill-rule="evenodd" clip-rule="evenodd" d="M24.0057 29.7129C26.892 29.7129 29.2446 27.3603 29.2446 24.474C29.2446 21.5877 26.892 19.2351 24.0057 19.2351C21.1194 19.2351 18.7668 21.5877 18.7668 24.474C18.7668 27.3603 21.1194 29.7129 24.0057 29.7129Z" fill="url(#paint47_linear_4220_35675)"/>
<path fill-rule="evenodd" clip-rule="evenodd" d="M24.0161 29.6699C26.8806 29.6699 29.2114 27.3391 29.2114 24.4746C29.2114 21.6101 26.8806 19.2793 24.0161 19.2793C21.1516 19.2793 18.8208 21.6101 18.8208 24.4746C18.8208 27.3391 21.1516 29.6699 24.0161 29.6699Z" fill="url(#paint48_linear_4220_35675)"/>
<path fill-rule="evenodd" clip-rule="evenodd" d="M24.0167 29.6369C26.8486 29.6369 29.1685 27.317 29.1685 24.4851C29.1685 21.6533 26.8595 19.3334 24.0167 19.3334C21.174 19.3334 18.865 21.6533 18.865 24.4851C18.865 27.317 21.174 29.6369 24.0167 29.6369Z" fill="url(#paint49_linear_4220_35675)"/>
<path fill-rule="evenodd" clip-rule="evenodd" d="M24.0272 29.5935C26.8373 29.5935 29.1245 27.2953 29.1245 24.4853C29.1245 21.6752 26.8373 19.3771 24.0272 19.3771C21.2172 19.3771 18.9299 21.6752 18.9299 24.4853C18.9299 27.2953 21.2172 29.5935 24.0272 29.5935Z" fill="url(#paint50_linear_4220_35675)"/>
<path fill-rule="evenodd" clip-rule="evenodd" d="M24.0269 29.5495C26.8151 29.5495 29.0806 27.2732 29.0806 24.4849C29.0806 21.6966 26.8151 19.4203 24.0269 19.4203C21.2386 19.4203 18.9731 21.6966 18.9731 24.4849C18.9731 27.2732 21.2386 29.5495 24.0269 29.5495Z" fill="url(#paint51_linear_4220_35675)"/>
<path fill-rule="evenodd" clip-rule="evenodd" d="M24.038 29.5061C26.7936 29.5061 29.0482 27.2515 29.0482 24.485C29.0482 21.7186 26.7936 19.464 24.038 19.464C21.2824 19.464 19.0278 21.7186 19.0278 24.485C19.0278 27.2515 21.2824 29.5061 24.038 29.5061Z" fill="url(#paint52_linear_4220_35675)"/>
<path fill-rule="evenodd" clip-rule="evenodd" d="M24.0491 29.4622C26.7829 29.4622 29.0157 27.2294 29.0157 24.4847C29.0157 21.74 26.7829 19.5072 24.0491 19.5072C21.3153 19.5072 19.0825 21.74 19.0825 24.4847C19.0825 27.2294 21.3153 29.4622 24.0491 29.4622Z" fill="url(#paint53_linear_4220_35675)"/>
<path fill-rule="evenodd" clip-rule="evenodd" d="M24.0496 29.4191C26.7616 29.4191 28.9617 27.1972 28.9617 24.4852C28.9617 21.7732 26.7507 19.5513 24.0496 19.5513C21.3485 19.5513 19.1375 21.7732 19.1375 24.4852C19.1375 27.1972 21.3485 29.4191 24.0496 29.4191Z" fill="url(#paint54_linear_4220_35675)"/>
<path fill-rule="evenodd" clip-rule="evenodd" d="M24.0607 29.3862C26.7401 29.3862 28.9293 27.1861 28.9293 24.4958C28.9293 21.8056 26.7401 19.6055 24.0607 19.6055C21.3814 19.6055 19.1921 21.8056 19.1921 24.4958C19.1921 27.1861 21.3814 29.3862 24.0607 29.3862Z" fill="url(#paint55_linear_4220_35675)"/>
<path fill-rule="evenodd" clip-rule="evenodd" d="M24.0599 29.3426C26.7174 29.3426 28.8849 27.1643 28.8849 24.4958C28.8849 21.8274 26.7174 19.649 24.0599 19.649C21.4023 19.649 19.2349 21.8274 19.2349 24.4958C19.2349 27.1643 21.4023 29.3426 24.0599 29.3426Z" fill="url(#paint56_linear_4220_35675)"/>
<path fill-rule="evenodd" clip-rule="evenodd" d="M24.0708 29.2992C26.6957 29.2992 28.8414 27.1426 28.8414 24.496C28.8414 21.8493 26.6957 19.6927 24.0708 19.6927C21.446 19.6927 19.3003 21.8493 19.3003 24.496C19.3003 27.1426 21.446 29.2992 24.0708 29.2992Z" fill="url(#paint57_linear_4220_35675)"/>
<path fill-rule="evenodd" clip-rule="evenodd" d="M24.082 29.2558C26.6851 29.2558 28.8089 27.121 28.8089 24.4961C28.8089 21.8712 26.6851 19.7365 24.082 19.7365C21.4789 19.7365 19.355 21.8712 19.355 24.4961C19.355 27.121 21.4789 29.2558 24.082 29.2558Z" fill="url(#paint58_linear_4220_35675)"/>
<path fill-rule="evenodd" clip-rule="evenodd" d="M24.0816 29.2123C26.6629 29.2123 28.765 27.0885 28.765 24.4962C28.765 21.904 26.6629 19.7802 24.0816 19.7802C21.5003 19.7802 19.3982 21.904 19.3982 24.4962C19.3982 27.0885 21.5003 29.2123 24.0816 29.2123Z" fill="url(#paint59_linear_4220_35675)"/>
<path fill-rule="evenodd" clip-rule="evenodd" d="M24.0925 29.1688C26.6411 29.1688 28.7323 27.0667 28.7323 24.4963C28.7323 21.9258 26.652 19.8237 24.0925 19.8237C21.5329 19.8237 19.4526 21.9258 19.4526 24.4963C19.4526 27.0667 21.5329 29.1688 24.0925 29.1688Z" fill="url(#paint60_linear_4220_35675)"/>
<path fill-rule="evenodd" clip-rule="evenodd" d="M24.0927 29.1249C26.6196 29.1249 28.6781 27.0446 28.6781 24.4959C28.6781 21.9473 26.6196 19.8669 24.0927 19.8669C21.5658 19.8669 19.5073 21.9473 19.5073 24.4959C19.5073 27.0446 21.5658 29.1249 24.0927 29.1249Z" fill="url(#paint61_linear_4220_35675)"/>
<path fill-rule="evenodd" clip-rule="evenodd" d="M24.1031 29.0919C26.6082 29.0919 28.6449 27.0334 28.6449 24.5065C28.6449 21.9797 26.6082 19.9211 24.1031 19.9211C21.598 19.9211 19.5613 21.9797 19.5613 24.5065C19.5613 27.0334 21.598 29.0919 24.1031 29.0919Z" fill="url(#paint62_linear_4220_35675)"/>
<path fill-rule="evenodd" clip-rule="evenodd" d="M24.1142 29.0489C26.5866 29.0489 28.6125 27.0121 28.6125 24.507C28.6125 22.002 26.5975 19.9652 24.1142 19.9652C21.6309 19.9652 19.616 22.002 19.616 24.507C19.616 27.0121 21.6309 29.0489 24.1142 29.0489Z" fill="url(#paint63_linear_4220_35675)"/>
<path fill-rule="evenodd" clip-rule="evenodd" d="M24.1145 29.0049C26.5651 29.0049 28.5583 26.9791 28.5583 24.5067C28.5583 22.0343 26.5542 20.0084 24.1145 20.0084C21.6747 20.0084 19.6707 22.0343 19.6707 24.5067C19.6707 26.9791 21.6747 29.0049 24.1145 29.0049Z" fill="url(#paint64_linear_4220_35675)"/>
<path fill-rule="evenodd" clip-rule="evenodd" d="M24.1253 28.962C26.5542 28.962 28.5256 26.9579 28.5256 24.5073C28.5256 22.0567 26.5433 20.0526 24.1253 20.0526C21.7074 20.0526 19.7251 22.0567 19.7251 24.5073C19.7251 26.9579 21.7074 28.962 24.1253 28.962Z" fill="url(#paint65_linear_4220_35675)"/>
<path fill-rule="evenodd" clip-rule="evenodd" d="M24.1365 28.9181C26.5326 28.9181 28.4931 26.9358 28.4931 24.5069C28.4931 22.0781 26.5326 20.0958 24.1365 20.0958C21.7403 20.0958 19.7798 22.0781 19.7798 24.5069C19.7798 26.9358 21.7403 28.9181 24.1365 28.9181Z" fill="url(#paint66_linear_4220_35675)"/>
<path fill-rule="evenodd" clip-rule="evenodd" d="M24.1366 28.8745C26.511 28.8745 28.4497 26.914 28.4497 24.507C28.4497 22.0999 26.511 20.1394 24.1366 20.1394C21.7622 20.1394 19.8235 22.0999 19.8235 24.507C19.8235 26.914 21.7622 28.8745 24.1366 28.8745Z" fill="url(#paint67_linear_4220_35675)"/>
<path fill-rule="evenodd" clip-rule="evenodd" d="M24.1471 28.8416C26.4997 28.8416 28.4057 26.9029 28.4057 24.5176C28.4057 22.1323 26.4888 20.1936 24.1471 20.1936C21.8054 20.1936 19.8884 22.1432 19.8884 24.5176C19.8884 26.892 21.8054 28.8416 24.1471 28.8416Z" fill="url(#paint68_linear_4220_35675)"/>
<path fill-rule="evenodd" clip-rule="evenodd" d="M24.1139 28.7658C26.423 28.7658 28.3072 26.838 28.3072 24.4854C28.3072 22.1328 26.423 20.205 24.1139 20.205C21.8049 20.205 19.9207 22.1328 19.9207 24.4854C19.9207 26.838 21.8049 28.7658 24.1139 28.7658Z" fill="url(#paint69_linear_4220_35675)"/>
<path fill-rule="evenodd" clip-rule="evenodd" d="M24.0824 28.7C26.3478 28.7 28.1994 26.794 28.1994 24.4632C28.1994 22.1324 26.3478 20.2263 24.0824 20.2263C21.8169 20.2263 19.9653 22.1324 19.9653 24.4632C19.9653 26.794 21.8169 28.7 24.0824 28.7Z" fill="url(#paint70_linear_4220_35675)"/>
<path fill-rule="evenodd" clip-rule="evenodd" d="M24.0599 28.6352C26.2926 28.6352 28.1007 26.751 28.1007 24.4419C28.1007 22.1329 26.2818 20.2487 24.0599 20.2487C21.838 20.2487 20.019 22.1329 20.019 24.4419C20.019 26.751 21.838 28.6352 24.0599 28.6352Z" fill="url(#paint71_linear_4220_35675)"/>
<path fill-rule="evenodd" clip-rule="evenodd" d="M24.0282 28.5581C26.2174 28.5581 28.0036 26.6956 28.0036 24.4192C28.0036 22.1429 26.2174 20.2804 24.0282 20.2804C21.839 20.2804 20.0527 22.1429 20.0527 24.4192C20.0527 26.6956 21.839 28.5581 24.0282 28.5581Z" fill="url(#paint72_linear_4220_35675)"/>
<path fill-rule="evenodd" clip-rule="evenodd" d="M23.9942 28.4938C26.1398 28.4938 27.8934 26.6531 27.8934 24.3985C27.8934 22.1439 26.1398 20.3032 23.9942 20.3032C21.8485 20.3032 20.095 22.1439 20.095 24.3985C20.095 26.6531 21.8485 28.4938 23.9942 28.4938Z" fill="url(#paint73_linear_4220_35675)"/>
<path fill-rule="evenodd" clip-rule="evenodd" d="M23.973 28.428C26.086 28.428 27.8069 26.6091 27.8069 24.3763C27.8069 22.1435 26.086 20.3246 23.973 20.3246C21.86 20.3246 20.1392 22.1435 20.1392 24.3763C20.1392 26.6091 21.86 28.428 23.973 28.428Z" fill="url(#paint74_linear_4220_35675)"/>
<path fill-rule="evenodd" clip-rule="evenodd" d="M23.94 28.3518C26.0094 28.3518 27.6976 26.5547 27.6976 24.3545C27.6976 22.1544 26.0094 20.3573 23.94 20.3573C21.8706 20.3573 20.1824 22.1544 20.1824 24.3545C20.1824 26.5547 21.8706 28.3518 23.94 28.3518Z" fill="url(#paint75_linear_4220_35675)"/>
<path fill-rule="evenodd" clip-rule="evenodd" d="M23.9075 28.286C25.9333 28.286 27.5888 26.5107 27.5888 24.3323C27.5888 22.154 25.9333 20.3787 23.9075 20.3787C21.8816 20.3787 20.2261 22.154 20.2261 24.3323C20.2261 26.5107 21.8816 28.286 23.9075 28.286Z" fill="url(#paint76_linear_4220_35675)"/>
<path fill-rule="evenodd" clip-rule="evenodd" d="M23.8748 28.2207C25.868 28.2207 27.4909 26.4672 27.4909 24.3106C27.4909 22.1541 25.868 20.4005 23.8748 20.4005C21.8816 20.4005 20.2588 22.1541 20.2588 24.3106C20.2588 26.4672 21.8816 28.2207 23.8748 28.2207Z" fill="url(#paint77_linear_4220_35675)"/>
<path fill-rule="evenodd" clip-rule="evenodd" d="M23.853 28.1449C25.8026 28.1449 27.3928 26.4132 27.3928 24.2784C27.3928 22.1436 25.8026 20.4119 23.853 20.4119C21.9034 20.4119 20.3132 22.1436 20.3132 24.2784C20.3132 26.4132 21.9034 28.1449 23.853 28.1449Z" fill="url(#paint78_linear_4220_35675)"/>
<path fill-rule="evenodd" clip-rule="evenodd" d="M23.8205 28.0792C25.7265 28.0792 27.284 26.3693 27.284 24.2672C27.284 22.1651 25.7265 20.4551 23.8205 20.4551C21.9144 20.4551 20.3569 22.1651 20.3569 24.2672C20.3569 26.3693 21.9144 28.0792 23.8205 28.0792Z" fill="url(#paint79_linear_4220_35675)"/>
<path fill-rule="evenodd" clip-rule="evenodd" d="M23.7874 28.014C25.6607 28.014 27.1856 26.3258 27.1856 24.2454C27.1856 22.1651 25.6607 20.4769 23.7874 20.4769C21.914 20.4769 20.3892 22.1651 20.3892 24.2454C20.3892 26.3258 21.914 28.014 23.7874 28.014Z" fill="url(#paint80_linear_4220_35675)"/>
<path fill-rule="evenodd" clip-rule="evenodd" d="M23.7663 27.9378C25.5961 27.9378 27.0883 26.2605 27.0883 24.2129C27.0883 22.1652 25.5961 20.4879 23.7663 20.4879C21.9365 20.4879 20.4443 22.1652 20.4443 24.2129C20.4443 26.2605 21.9365 27.9378 23.7663 27.9378Z" fill="url(#paint81_linear_4220_35675)"/>
<path fill-rule="evenodd" clip-rule="evenodd" d="M23.7338 27.8725C25.52 27.8725 26.9904 26.217 26.9904 24.1911C26.9904 22.1653 25.5309 20.5206 23.7338 20.5206C21.9366 20.5206 20.488 22.1762 20.488 24.1911C20.488 26.2061 21.9475 27.8725 23.7338 27.8725Z" fill="url(#paint82_linear_4220_35675)"/>
<path fill-rule="evenodd" clip-rule="evenodd" d="M23.7006 27.8072C25.4542 27.8072 26.881 26.1734 26.881 24.1803C26.881 22.1871 25.4542 20.5533 23.7006 20.5533C21.9471 20.5533 20.5203 22.1871 20.5203 24.1803C20.5203 26.1734 21.9471 27.8072 23.7006 27.8072Z" fill="url(#paint83_linear_4220_35675)"/>
<path fill-rule="evenodd" clip-rule="evenodd" d="M23.6791 27.731C25.3891 27.731 26.7832 26.1191 26.7832 24.1477C26.7832 22.1763 25.3891 20.5643 23.6791 20.5643C21.9691 20.5643 20.575 22.1763 20.575 24.1477C20.575 26.1191 21.9691 27.731 23.6791 27.731Z" fill="url(#paint84_linear_4220_35675)"/>
<path fill-rule="evenodd" clip-rule="evenodd" d="M23.646 27.6658C25.3124 27.6658 26.6847 26.0756 26.6847 24.126C26.6847 22.1764 25.3233 20.5862 23.646 20.5862C21.9686 20.5862 20.6072 22.1764 20.6072 24.126C20.6072 26.0756 21.9686 27.6658 23.646 27.6658Z" fill="url(#paint85_linear_4220_35675)"/>
<path fill-rule="evenodd" clip-rule="evenodd" d="M23.6139 27.5891C25.2476 27.5891 26.5764 26.0207 26.5764 24.1037C26.5764 22.1868 25.2476 20.6184 23.6139 20.6184C21.9802 20.6184 20.6514 22.1868 20.6514 24.1037C20.6514 26.0207 21.9802 27.5891 23.6139 27.5891Z" fill="url(#paint86_linear_4220_35675)"/>
<path fill-rule="evenodd" clip-rule="evenodd" d="M23.5809 27.5238C25.1711 27.5238 26.4672 25.9772 26.4672 24.082C26.4672 22.1869 25.1711 20.6403 23.5809 20.6403C21.9907 20.6403 20.6946 22.1869 20.6946 24.082C20.6946 25.9772 21.9907 27.5238 23.5809 27.5238Z" fill="url(#paint87_linear_4220_35675)"/>
<path fill-rule="evenodd" clip-rule="evenodd" d="M23.5595 27.459C25.117 27.459 26.3804 25.9342 26.3804 24.0608C26.3804 22.1874 25.117 20.6626 23.5595 20.6626C22.002 20.6626 20.7385 22.1874 20.7385 24.0608C20.7385 25.9342 22.002 27.459 23.5595 27.459Z" fill="url(#paint88_linear_4220_35675)"/>
<path fill-rule="evenodd" clip-rule="evenodd" d="M23.5259 27.3818C25.0399 27.3818 26.2706 25.8787 26.2706 24.0271C26.2706 22.1755 25.0399 20.6725 23.5259 20.6725C22.012 20.6725 20.7812 22.1755 20.7812 24.0271C20.7812 25.8787 22.012 27.3818 23.5259 27.3818Z" fill="#00609B"/>
<path fill-rule="evenodd" clip-rule="evenodd" d="M24.0058 17.0458C27.8178 17.0458 30.9002 20.1608 30.9002 23.9947V24.0491C30.8675 20.237 27.7961 17.1656 24.0058 17.1656C20.2155 17.1656 17.1331 20.2479 17.1113 24.0491V23.9947C17.1113 20.1608 20.2046 17.0458 24.0058 17.0458Z" fill="url(#paint89_linear_4220_35675)"/>
<path fill-rule="evenodd" clip-rule="evenodd" d="M24.0058 31.0418C27.8178 31.0418 30.9002 27.9268 30.9002 24.0929V24.0385C30.8675 27.8505 27.7961 30.922 24.0058 30.922C20.2155 30.922 17.1331 27.8396 17.1113 24.0385V24.0929C17.1113 27.9268 20.2046 31.0418 24.0058 31.0418Z" fill="url(#paint90_linear_4220_35675)"/>
<path fill-rule="evenodd" clip-rule="evenodd" d="M24.9529 17.1218C25.5411 17.1981 26.1075 17.3506 26.6303 17.5684C26.7065 17.6011 26.7936 17.5684 26.8372 17.4922L27.2184 16.8278C27.262 16.7515 27.3709 16.7188 27.4471 16.7624L28.5472 17.3941C28.6125 17.4268 28.6343 17.4922 28.6343 17.5684C28.6343 17.5139 28.6017 17.4704 28.5472 17.4486L27.4471 16.8169C27.3709 16.7733 27.262 16.7951 27.2184 16.8822L26.8372 17.5466C26.7936 17.6229 26.7065 17.6555 26.6303 17.6229C26.0966 17.405 25.5302 17.2525 24.9529 17.1763C24.8658 17.1654 24.8114 17.0892 24.8114 17.0129V16.9694C24.8114 17.0565 24.8767 17.1218 24.9529 17.1327V17.1218ZM28.2204 18.4071C28.2204 18.4071 28.2531 18.4942 28.2858 18.516C28.7432 18.8754 29.1571 19.2893 29.5166 19.7467C29.571 19.8121 29.6581 19.8339 29.7344 19.7903L30.3988 19.4091C30.475 19.3655 30.5839 19.3873 30.6275 19.4744L31.2592 20.5745C31.2592 20.5745 31.281 20.6507 31.281 20.6834C31.281 20.6616 31.281 20.6398 31.2592 20.6181L30.6275 19.518C30.5839 19.4418 30.475 19.4091 30.3988 19.4527L29.7344 19.8339C29.6581 19.8774 29.571 19.8556 29.5166 19.7903C29.1571 19.3328 28.7432 18.919 28.2858 18.5595C28.2313 18.516 28.2096 18.4615 28.2204 18.4071ZM30.4532 21.3587C30.4532 21.3587 30.4532 21.3914 30.4641 21.4023C30.682 21.936 30.8344 22.5023 30.9107 23.0796C30.9216 23.1667 30.9978 23.2212 31.0741 23.2212H31.8365C31.9345 23.2212 32.0107 23.2974 32.0107 23.3954V23.439C32.0107 23.341 31.9345 23.2647 31.8365 23.2647H31.0741C30.9869 23.2647 30.9216 23.1994 30.9107 23.1231C30.8344 22.535 30.682 21.9686 30.4641 21.4458C30.4532 21.4132 30.4532 21.3914 30.4532 21.3587ZM30.4532 26.7501C30.4532 26.7501 30.4859 26.8481 30.5404 26.8699L31.2048 27.2511C31.2701 27.2838 31.2919 27.36 31.2919 27.4254C31.2919 27.3709 31.2592 27.3273 31.2048 27.3055L30.5404 26.9243C30.475 26.8917 30.4532 26.8263 30.4532 26.761V26.7501ZM28.2204 29.7017C28.2204 29.7017 28.2204 29.7453 28.2422 29.7671L28.6234 30.4315C28.6234 30.4315 28.6452 30.4968 28.6452 30.5404C28.6452 30.5186 28.6452 30.4968 28.6234 30.475L28.2422 29.8106C28.2422 29.8106 28.2204 29.7344 28.2204 29.7017ZM19.3655 30.5295C19.3655 30.5295 19.3655 30.4532 19.3873 30.4206L19.7685 29.7562C19.7685 29.7562 19.7903 29.7126 19.7903 29.6908C19.7903 29.7235 19.7903 29.7671 19.7685 29.7997L19.3873 30.4641C19.3873 30.4641 19.3655 30.5077 19.3655 30.5295ZM16.7297 27.4254C16.7297 27.36 16.7515 27.2947 16.8169 27.2511L17.4813 26.8699C17.4813 26.8699 17.5575 26.7936 17.5684 26.7501C17.5684 26.8154 17.5466 26.8808 17.4813 26.9243L16.8169 27.3055C16.8169 27.3055 16.7406 27.3818 16.7297 27.4254ZM16 23.439V23.3954C16 23.2974 16.0762 23.2212 16.1743 23.2212H16.9367C17.0238 23.2212 17.0892 23.1558 17.1001 23.0796C17.1763 22.4914 17.3288 21.9251 17.5466 21.4023C17.5466 21.3914 17.5466 21.3696 17.5575 21.3587C17.5575 21.3914 17.5575 21.4132 17.5466 21.4458C17.3288 21.9795 17.1763 22.5459 17.1001 23.1231C17.0892 23.2103 17.0129 23.2647 16.9367 23.2647H16.1743C16.0762 23.2647 16 23.341 16 23.439ZM16.7297 20.6725C16.7297 20.6725 16.7297 20.5963 16.7515 20.5636L17.3832 19.4635C17.4268 19.3873 17.5357 19.3546 17.612 19.3982L18.2764 19.7794C18.3526 19.823 18.4397 19.8012 18.4942 19.7358C18.8536 19.2784 19.2675 18.8645 19.725 18.5051C19.7576 18.4724 19.7794 18.4397 19.7903 18.3962C19.7903 18.4506 19.7794 18.516 19.725 18.5486C19.2675 18.9081 18.8536 19.322 18.4942 19.7794C18.4397 19.8448 18.3526 19.8665 18.2764 19.823L17.612 19.4418C17.5357 19.3982 17.4268 19.42 17.3832 19.5071L16.7515 20.6072C16.7515 20.6072 16.7297 20.6507 16.7297 20.6725ZM19.3655 17.5684C19.3655 17.503 19.3873 17.4377 19.4527 17.3941L20.5527 16.7624C20.629 16.7188 20.7379 16.7406 20.7814 16.8278L21.1626 17.4922C21.2062 17.5684 21.2933 17.6011 21.3696 17.5684C21.9033 17.3506 22.4696 17.1981 23.0469 17.1218C23.134 17.1109 23.1994 17.0347 23.1994 16.9585V17.002C23.1994 17.0892 23.134 17.1545 23.0469 17.1654C22.4588 17.2416 21.8924 17.3941 21.3696 17.612C21.2933 17.6446 21.2062 17.612 21.1626 17.5357L20.7814 16.8713C20.7379 16.7951 20.629 16.7624 20.5527 16.806L19.4527 17.4377C19.4527 17.4377 19.3764 17.5139 19.3655 17.5575V17.5684ZM23.1994 16.2178V16.1743C23.1994 16.0762 23.2756 16 23.3737 16H24.648C24.746 16 24.8222 16.0762 24.8222 16.1743V16.2178C24.8222 16.1198 24.746 16.0436 24.648 16.0436H23.3737C23.2756 16.0436 23.1994 16.1198 23.1994 16.2178Z" fill="url(#paint91_linear_4220_35675)"/>
<path fill-rule="evenodd" clip-rule="evenodd" d="M24.0054 27.8722C26.1075 27.8722 27.8175 26.1622 27.8175 24.0601C27.8175 21.958 26.1075 20.248 24.0054 20.248C21.9034 20.248 20.1934 21.958 20.1934 24.0601C20.1934 26.1622 21.9034 27.8722 24.0054 27.8722Z" fill="url(#paint92_linear_4220_35675)"/>
<path fill-rule="evenodd" clip-rule="evenodd" d="M24.005 27.7301C26.0199 27.7301 27.6646 26.0854 27.6646 24.0705C27.6646 22.0555 26.0199 20.4109 24.005 20.4109C21.99 20.4109 20.3345 22.0555 20.3345 24.0705C20.3345 26.0854 21.9791 27.7301 24.005 27.7301Z" fill="url(#paint93_linear_4220_35675)"/>
<path fill-rule="evenodd" clip-rule="evenodd" d="M24.0058 27.5779C25.9445 27.5779 27.5238 25.9986 27.5238 24.0599C27.5238 22.1212 25.9445 20.5419 24.0058 20.5419C22.0671 20.5419 20.4878 22.1212 20.4878 24.0599C20.4878 25.9986 22.0671 27.5779 24.0058 27.5779Z" fill="url(#paint94_linear_4220_35675)"/>
<path fill-rule="evenodd" clip-rule="evenodd" d="M24.0051 27.4362C25.8676 27.4362 27.3815 25.9222 27.3815 24.0598C27.3815 22.1973 25.8676 20.6833 24.0051 20.6833C22.1426 20.6833 20.6287 22.1973 20.6287 24.0598C20.6287 25.9222 22.1426 27.4362 24.0051 27.4362Z" fill="url(#paint95_linear_4220_35675)"/>
<path fill-rule="evenodd" clip-rule="evenodd" d="M24.0051 27.2945C25.7913 27.2945 27.2399 25.8459 27.2399 24.0597C27.2399 22.2734 25.7913 20.8248 24.0051 20.8248C22.2189 20.8248 20.7703 22.2734 20.7703 24.0597C20.7703 25.8459 22.2189 27.2945 24.0051 27.2945Z" fill="url(#paint96_linear_4220_35675)"/>
<path fill-rule="evenodd" clip-rule="evenodd" d="M24.0053 27.1536C25.7044 27.1536 27.0986 25.7704 27.0986 24.0604C27.0986 22.3504 25.7153 20.9672 24.0053 20.9672C22.2954 20.9672 20.9121 22.3504 20.9121 24.0604C20.9121 25.7704 22.2954 27.1536 24.0053 27.1536Z" fill="url(#paint97_linear_4220_35675)"/>
<path fill-rule="evenodd" clip-rule="evenodd" d="M24.0056 27.0119C25.6285 27.0119 26.9572 25.6831 26.9572 24.0603C26.9572 22.4374 25.6285 21.1086 24.0056 21.1086C22.3827 21.1086 21.054 22.4374 21.054 24.0603C21.054 25.6831 22.3827 27.0119 24.0056 27.0119Z" fill="url(#paint98_linear_4220_35675)"/>
<path fill-rule="evenodd" clip-rule="evenodd" d="M24.0051 26.8702C25.5517 26.8702 26.8043 25.6068 26.8043 24.071C26.8043 22.5353 25.5408 21.261 24.0051 21.261C22.4694 21.261 21.1951 22.5244 21.1951 24.071C21.1951 25.6177 22.4585 26.8702 24.0051 26.8702Z" fill="url(#paint99_linear_4220_35675)"/>
<path fill-rule="evenodd" clip-rule="evenodd" d="M24.005 26.7176C25.4754 26.7176 26.6625 25.5195 26.6625 24.06C26.6625 22.6005 25.4645 21.4025 24.005 21.4025C22.5455 21.4025 21.3474 22.6005 21.3474 24.06C21.3474 25.5195 22.5455 26.7176 24.005 26.7176Z" fill="url(#paint100_linear_4220_35675)"/>
<path fill-rule="evenodd" clip-rule="evenodd" d="M24.0052 26.5759C25.3885 26.5759 26.5212 25.4432 26.5212 24.0599C26.5212 22.6767 25.3885 21.5439 24.0052 21.5439C22.622 21.5439 21.4893 22.6767 21.4893 24.0599C21.4893 25.4432 22.622 26.5759 24.0052 26.5759Z" fill="url(#paint101_linear_4220_35675)"/>
<path fill-rule="evenodd" clip-rule="evenodd" d="M24.0052 26.4342C25.3122 26.4342 26.3796 25.3668 26.3796 24.0598C26.3796 22.7528 25.3122 21.6854 24.0052 21.6854C22.6982 21.6854 21.6309 22.7528 21.6309 24.0598C21.6309 25.3668 22.6982 26.4342 24.0052 26.4342Z" fill="url(#paint102_linear_4220_35675)"/>
<path fill-rule="evenodd" clip-rule="evenodd" d="M24.0055 26.2933C25.2363 26.2933 26.2383 25.2913 26.2383 24.0606C26.2383 22.8298 25.2363 21.8278 24.0055 21.8278C22.7747 21.8278 21.7727 22.8298 21.7727 24.0606C21.7727 25.2913 22.7747 26.2933 24.0055 26.2933Z" fill="url(#paint103_linear_4220_35675)"/>
<path fill-rule="evenodd" clip-rule="evenodd" d="M24.0055 26.1511C25.16 26.1511 26.0967 25.2145 26.0967 24.0599C26.0967 22.9054 25.16 21.9688 24.0055 21.9688C22.851 21.9688 21.9143 22.9054 21.9143 24.0599C21.9143 25.2145 22.851 26.1511 24.0055 26.1511Z" fill="url(#paint104_linear_4220_35675)"/>
<path fill-rule="evenodd" clip-rule="evenodd" d="M24.0048 26.009C25.0722 26.009 25.9544 25.1376 25.9544 24.0593C25.9544 22.9811 25.0831 22.1097 24.0048 22.1097C22.9265 22.1097 22.0552 22.9811 22.0552 24.0593C22.0552 25.1376 22.9265 26.009 24.0048 26.009Z" fill="url(#paint105_linear_4220_35675)"/>
<path fill-rule="evenodd" clip-rule="evenodd" d="M24.0051 25.8568C24.9963 25.8568 25.8023 25.0508 25.8023 24.0597C25.8023 23.0686 24.9963 22.2626 24.0051 22.2626C23.014 22.2626 22.208 23.0686 22.208 24.0597C22.208 25.0508 23.014 25.8568 24.0051 25.8568Z" fill="url(#paint106_linear_4220_35675)"/>
<path fill-rule="evenodd" clip-rule="evenodd" d="M24.0056 25.7156C24.9205 25.7156 25.6612 24.975 25.6612 24.0601C25.6612 23.1452 24.9205 22.4045 24.0056 22.4045C23.0907 22.4045 22.3501 23.1452 22.3501 24.0601C22.3501 24.975 23.0907 25.7156 24.0056 25.7156Z" fill="url(#paint107_linear_4220_35675)"/>
<path fill-rule="evenodd" clip-rule="evenodd" d="M24.0054 25.5739C24.8441 25.5739 25.5193 24.8986 25.5193 24.06C25.5193 23.2213 24.8441 22.546 24.0054 22.546C23.1667 22.546 22.4915 23.2213 22.4915 24.06C22.4915 24.8986 23.1667 25.5739 24.0054 25.5739Z" fill="url(#paint108_linear_4220_35675)"/>
<path fill-rule="evenodd" clip-rule="evenodd" d="M24.0056 25.4327C24.7572 25.4327 25.378 24.8119 25.378 24.0603C25.378 23.3088 24.7572 22.688 24.0056 22.688C23.2541 22.688 22.6333 23.3088 22.6333 24.0603C22.6333 24.8119 23.2541 25.4327 24.0056 25.4327Z" fill="url(#paint109_linear_4220_35675)"/>
<path fill-rule="evenodd" clip-rule="evenodd" d="M24.0047 25.2905C24.68 25.2905 25.2354 24.735 25.2354 24.0597C25.2354 23.3845 24.68 22.829 24.0047 22.829C23.3294 22.829 22.7739 23.3845 22.7739 24.0597C22.7739 24.735 23.3294 25.2905 24.0047 25.2905Z" fill="url(#paint110_linear_4220_35675)"/>
<path fill-rule="evenodd" clip-rule="evenodd" d="M24.0049 25.1488C24.604 25.1488 25.0941 24.6587 25.0941 24.0596C25.0941 23.4606 24.604 22.9705 24.0049 22.9705C23.4059 22.9705 22.9158 23.4606 22.9158 24.0596C22.9158 24.6587 23.4059 25.1488 24.0049 25.1488Z" fill="url(#paint111_linear_4220_35675)"/>
<path fill-rule="evenodd" clip-rule="evenodd" d="M24.0053 24.9967C24.5281 24.9967 24.942 24.5719 24.942 24.06C24.942 23.5481 24.5172 23.1233 24.0053 23.1233C23.4934 23.1233 23.0686 23.5481 23.0686 24.06C23.0686 24.5719 23.4934 24.9967 24.0053 24.9967Z" fill="url(#paint112_linear_4220_35675)"/>
<path fill-rule="evenodd" clip-rule="evenodd" d="M24.0053 24.8553C24.441 24.8553 24.8004 24.4959 24.8004 24.0602C24.8004 23.6246 24.441 23.2651 24.0053 23.2651C23.5696 23.2651 23.2102 23.6246 23.2102 24.0602C23.2102 24.4959 23.5696 24.8553 24.0053 24.8553Z" fill="url(#paint113_linear_4220_35675)"/>
<path fill-rule="evenodd" clip-rule="evenodd" d="M24.0054 20.248C26.1075 20.248 27.8175 21.958 27.8175 24.0601C27.8175 26.1622 26.1075 27.8722 24.0054 27.8722C21.9034 27.8722 20.1934 26.1622 20.1934 24.0601C20.1934 21.958 21.9034 20.248 24.0054 20.248ZM24.0054 20.5421C22.0667 20.5421 20.4874 22.1214 20.4874 24.0601C20.4874 25.9988 22.0667 27.5781 24.0054 27.5781C25.9442 27.5781 27.5234 25.9988 27.5234 24.0601C27.5234 22.1214 25.9442 20.5421 24.0054 20.5421Z" fill="url(#paint114_linear_4220_35675)"/>
<path fill-rule="evenodd" clip-rule="evenodd" d="M24.0054 20.248C26.1075 20.248 27.8175 21.958 27.8175 24.0601V24.0928C27.7957 22.0016 26.0966 20.3134 24.0054 20.3134C21.9142 20.3134 20.2151 22.0016 20.1934 24.0928V24.0601C20.1934 21.958 21.9034 20.248 24.0054 20.248Z" fill="url(#paint115_linear_4220_35675)"/>
<path fill-rule="evenodd" clip-rule="evenodd" d="M24.0054 27.9264C26.1075 27.9264 27.8175 26.2164 27.8175 24.1143V24.0817C27.7957 26.1729 26.0966 27.8611 24.0054 27.8611C21.9142 27.8611 20.2151 26.1729 20.1934 24.0817V24.1143C20.1934 26.2164 21.9034 27.9264 24.0054 27.9264Z" fill="url(#paint116_linear_4220_35675)"/>
<path fill-rule="evenodd" clip-rule="evenodd" d="M24.0052 18.0806C27.2727 18.0806 29.9194 20.7272 29.9194 23.9947C29.9194 27.2622 27.2727 29.9089 24.0052 29.9089C20.7377 29.9089 18.0911 27.2622 18.0911 23.9947C18.0911 20.7272 20.7377 18.0806 24.0052 18.0806ZM24.0052 18.2113C20.814 18.2113 18.2218 20.8035 18.2218 23.9947C18.2218 27.186 20.814 29.7782 24.0052 29.7782C27.1965 29.7782 29.7887 27.186 29.7887 23.9947C29.7887 20.8035 27.1965 18.2113 24.0052 18.2113Z" fill="url(#paint117_linear_4220_35675)"/>
<path fill-rule="evenodd" clip-rule="evenodd" d="M24.0059 26.1077C25.1386 26.1077 26.0535 25.1819 26.0535 24.0601C26.0535 22.9382 25.1277 22.0125 24.0059 22.0125C22.884 22.0125 21.9583 22.9382 21.9583 24.0601C21.9583 25.1819 22.884 26.1077 24.0059 26.1077Z" fill="url(#paint118_linear_4220_35675)"/>
<path fill-rule="evenodd" clip-rule="evenodd" d="M24.0052 26.0426C25.0944 26.0426 25.9875 25.1495 25.9875 24.0603C25.9875 22.9711 25.0944 22.078 24.0052 22.078C22.9161 22.078 22.0229 22.9711 22.0229 24.0603C22.0229 25.1495 22.9161 26.0426 24.0052 26.0426Z" fill="url(#paint119_radial_4220_35675)"/>
<defs>
<linearGradient id="paint0_linear_4220_35675" x1="23.6289" y1="36.9385" x2="23.6289" y2="44.82" gradientUnits="userSpaceOnUse">
<stop stop-color="#D8D9DA"/>
<stop offset="1" stop-color="#383838"/>
</linearGradient>
<linearGradient id="paint1_linear_4220_35675" x1="20.631" y1="14.2535" x2="27.2265" y2="26.1902" gradientUnits="userSpaceOnUse">
<stop stop-color="#303030"/>
<stop offset="1"/>
</linearGradient>
<linearGradient id="paint2_linear_4220_35675" x1="11.3689" y1="24.3525" x2="36.6453" y2="24.3525" gradientUnits="userSpaceOnUse">
<stop stop-color="#212121"/>
<stop offset="1"/>
</linearGradient>
<radialGradient id="paint3_radial_4220_35675" cx="0" cy="0" r="1" gradientUnits="userSpaceOnUse" gradientTransform="translate(24.9638 30.1266) scale(16.7187)">
<stop stop-color="#A7A9AC"/>
<stop offset="0.22" stop-color="#6D6E71"/>
<stop offset="0.45" stop-color="#A7A9AC"/>
<stop offset="0.54" stop-color="#D1D3D4"/>
<stop offset="0.79" stop-color="#AFB1B4"/>
<stop offset="1" stop-color="#C9CBCD"/>
</radialGradient>
<linearGradient id="paint4_linear_4220_35675" x1="16.5992" y1="17.122" x2="31.4118" y2="30.9435" gradientUnits="userSpaceOnUse">
<stop stop-color="#E6E7E8"/>
<stop offset="0.21" stop-color="#A7A9AC"/>
<stop offset="0.46" stop-color="#E6E7E8"/>
<stop offset="0.55" stop-color="#BABCBE"/>
<stop offset="0.64" stop-color="#AAABAD"/>
<stop offset="0.71" stop-color="#E6E7E8"/>
<stop offset="0.87" stop-color="#E6E7E8"/>
<stop offset="1" stop-color="#E6E7E8"/>
</linearGradient>
<linearGradient id="paint5_linear_4220_35675" x1="16.762" y1="17.2749" x2="31.2479" y2="30.7806" gradientUnits="userSpaceOnUse">
<stop stop-color="#E5E6E7"/>
<stop offset="0.21" stop-color="#A7AAAC"/>
<stop offset="0.46" stop-color="#E6E7E8"/>
<stop offset="0.55" stop-color="#BBBDBF"/>
<stop offset="0.64" stop-color="#ABACAE"/>
<stop offset="0.71" stop-color="#E4E5E6"/>
<stop offset="0.87" stop-color="#E2E2E4"/>
<stop offset="1" stop-color="#E6E7E8"/>
</linearGradient>
<linearGradient id="paint6_linear_4220_35675" x1="16.9257" y1="17.4377" x2="31.0849" y2="30.6275" gradientUnits="userSpaceOnUse">
<stop stop-color="#E3E4E5"/>
<stop offset="0.21" stop-color="#A8AAAD"/>
<stop offset="0.46" stop-color="#E6E7E8"/>
<stop offset="0.55" stop-color="#BCBEC0"/>
<stop offset="0.64" stop-color="#ACADAF"/>
<stop offset="0.71" stop-color="#E1E2E3"/>
<stop offset="0.87" stop-color="#DEDEE0"/>
<stop offset="1" stop-color="#E6E7E8"/>
</linearGradient>
<linearGradient id="paint7_linear_4220_35675" x1="17.0999" y1="17.5906" x2="30.9106" y2="30.4754" gradientUnits="userSpaceOnUse">
<stop stop-color="#E2E3E4"/>
<stop offset="0.21" stop-color="#A8AAAD"/>
<stop offset="0.46" stop-color="#E6E7E8"/>
<stop offset="0.55" stop-color="#BDBEC1"/>
<stop offset="0.64" stop-color="#ADAEB0"/>
<stop offset="0.71" stop-color="#DFE0E1"/>
<stop offset="0.87" stop-color="#DBDBDC"/>
<stop offset="1" stop-color="#E6E7E8"/>
</linearGradient>
<linearGradient id="paint8_linear_4220_35675" x1="17.2637" y1="17.743" x2="30.7475" y2="30.3228" gradientUnits="userSpaceOnUse">
<stop stop-color="#E0E2E3"/>
<stop offset="0.21" stop-color="#A9ABAD"/>
<stop offset="0.46" stop-color="#E6E7E8"/>
<stop offset="0.55" stop-color="#BDBFC1"/>
<stop offset="0.64" stop-color="#AEAFB1"/>
<stop offset="0.71" stop-color="#DDDDDF"/>
<stop offset="0.87" stop-color="#D7D7D9"/>
<stop offset="1" stop-color="#E6E7E8"/>
</linearGradient>
<linearGradient id="paint9_linear_4220_35675" x1="17.4274" y1="17.8958" x2="30.5845" y2="30.1598" gradientUnits="userSpaceOnUse">
<stop stop-color="#DFE0E2"/>
<stop offset="0.21" stop-color="#A9ABAE"/>
<stop offset="0.46" stop-color="#E6E7E8"/>
<stop offset="0.55" stop-color="#BEC0C2"/>
<stop offset="0.64" stop-color="#AEB0B2"/>
<stop offset="0.71" stop-color="#DBDBDC"/>
<stop offset="0.87" stop-color="#D4D4D6"/>
<stop offset="1" stop-color="#E6E7E8"/>
</linearGradient>
<linearGradient id="paint10_linear_4220_35675" x1="17.5907" y1="18.0591" x2="30.4102" y2="30.0073" gradientUnits="userSpaceOnUse">
<stop stop-color="#DDDFE0"/>
<stop offset="0.21" stop-color="#A9ACAE"/>
<stop offset="0.46" stop-color="#E6E7E8"/>
<stop offset="0.55" stop-color="#BFC1C3"/>
<stop offset="0.64" stop-color="#AFB1B3"/>
<stop offset="0.71" stop-color="#D9D9DB"/>
<stop offset="0.87" stop-color="#D1D1D3"/>
<stop offset="1" stop-color="#E6E7E8"/>
</linearGradient>
<linearGradient id="paint11_linear_4220_35675" x1="17.7639" y1="18.2115" x2="30.2457" y2="29.8547" gradientUnits="userSpaceOnUse">
<stop stop-color="#DCDDDF"/>
<stop offset="0.21" stop-color="#AAACAE"/>
<stop offset="0.46" stop-color="#E6E7E8"/>
<stop offset="0.55" stop-color="#C0C2C4"/>
<stop offset="0.64" stop-color="#B0B2B4"/>
<stop offset="0.71" stop-color="#D7D7D9"/>
<stop offset="0.87" stop-color="#CFCED0"/>
<stop offset="1" stop-color="#E6E7E8"/>
</linearGradient>
<linearGradient id="paint12_linear_4220_35675" x1="17.9277" y1="18.3639" x2="30.0828" y2="29.7021" gradientUnits="userSpaceOnUse">
<stop stop-color="#DBDCDE"/>
<stop offset="0.21" stop-color="#AAACAF"/>
<stop offset="0.46" stop-color="#E6E7E8"/>
<stop offset="0.55" stop-color="#C1C3C5"/>
<stop offset="0.64" stop-color="#B1B3B5"/>
<stop offset="0.71" stop-color="#D5D5D7"/>
<stop offset="0.87" stop-color="#CCCBCD"/>
<stop offset="1" stop-color="#E6E7E8"/>
</linearGradient>
<linearGradient id="paint13_linear_4220_35675" x1="18.0909" y1="18.5163" x2="29.9193" y2="29.5386" gradientUnits="userSpaceOnUse">
<stop stop-color="#D9DBDC"/>
<stop offset="0.21" stop-color="#ABADAF"/>
<stop offset="0.46" stop-color="#E6E7E8"/>
<stop offset="0.55" stop-color="#C2C4C6"/>
<stop offset="0.64" stop-color="#B2B4B5"/>
<stop offset="0.71" stop-color="#D3D4D5"/>
<stop offset="0.87" stop-color="#C9C8CB"/>
<stop offset="1" stop-color="#E6E7E8"/>
</linearGradient>
<linearGradient id="paint14_linear_4220_35675" x1="18.2655" y1="18.6795" x2="29.7453" y2="29.386" gradientUnits="userSpaceOnUse">
<stop stop-color="#D8D9DB"/>
<stop offset="0.21" stop-color="#ABADB0"/>
<stop offset="0.46" stop-color="#E6E7E8"/>
<stop offset="0.55" stop-color="#C3C5C7"/>
<stop offset="0.64" stop-color="#B3B5B6"/>
<stop offset="0.71" stop-color="#D2D2D3"/>
<stop offset="0.87" stop-color="#C6C6C8"/>
<stop offset="1" stop-color="#E6E7E8"/>
</linearGradient>
<linearGradient id="paint15_linear_4220_35675" x1="18.4289" y1="18.8329" x2="29.5819" y2="29.2344" gradientUnits="userSpaceOnUse">
<stop stop-color="#D6D8DA"/>
<stop offset="0.21" stop-color="#ABADB0"/>
<stop offset="0.46" stop-color="#E6E7E8"/>
<stop offset="0.55" stop-color="#C4C6C8"/>
<stop offset="0.64" stop-color="#B4B5B7"/>
<stop offset="0.71" stop-color="#D0D0D1"/>
<stop offset="0.87" stop-color="#C3C3C5"/>
<stop offset="1" stop-color="#E6E7E8"/>
</linearGradient>
<linearGradient id="paint16_linear_4220_35675" x1="18.5921" y1="18.9848" x2="29.4184" y2="29.0813" gradientUnits="userSpaceOnUse">
<stop stop-color="#D5D7D9"/>
<stop offset="0.21" stop-color="#ACAEB0"/>
<stop offset="0.46" stop-color="#E6E7E8"/>
<stop offset="0.55" stop-color="#C5C6C9"/>
<stop offset="0.64" stop-color="#B5B6B8"/>
<stop offset="0.71" stop-color="#CECED0"/>
<stop offset="0.87" stop-color="#C1C0C3"/>
<stop offset="1" stop-color="#E6E7E8"/>
</linearGradient>
<linearGradient id="paint17_linear_4220_35675" x1="18.7554" y1="19.1372" x2="29.2441" y2="28.9179" gradientUnits="userSpaceOnUse">
<stop stop-color="#D4D6D7"/>
<stop offset="0.21" stop-color="#ACAEB1"/>
<stop offset="0.46" stop-color="#E6E7E8"/>
<stop offset="0.55" stop-color="#C6C7C9"/>
<stop offset="0.64" stop-color="#B6B7B9"/>
<stop offset="0.71" stop-color="#CCCCCE"/>
<stop offset="0.87" stop-color="#BEBDC0"/>
<stop offset="1" stop-color="#E6E7E8"/>
</linearGradient>
<linearGradient id="paint18_linear_4220_35675" x1="18.93" y1="19.3004" x2="29.0811" y2="28.7653" gradientUnits="userSpaceOnUse">
<stop stop-color="#D2D4D6"/>
<stop offset="0.21" stop-color="#ADAFB1"/>
<stop offset="0.46" stop-color="#E6E7E8"/>
<stop offset="0.55" stop-color="#C7C8CA"/>
<stop offset="0.64" stop-color="#B7B8BA"/>
<stop offset="0.71" stop-color="#CBCBCC"/>
<stop offset="0.87" stop-color="#BBBBBE"/>
<stop offset="1" stop-color="#E6E7E8"/>
</linearGradient>
<linearGradient id="paint19_linear_4220_35675" x1="19.0933" y1="19.4532" x2="28.9176" y2="28.6131" gradientUnits="userSpaceOnUse">
<stop stop-color="#D1D3D5"/>
<stop offset="0.21" stop-color="#ADAFB2"/>
<stop offset="0.46" stop-color="#E6E7E8"/>
<stop offset="0.55" stop-color="#C7C9CB"/>
<stop offset="0.64" stop-color="#B8B9BB"/>
<stop offset="0.71" stop-color="#C9C9CB"/>
<stop offset="0.87" stop-color="#B8B8BB"/>
<stop offset="1" stop-color="#E6E7E8"/>
</linearGradient>
<linearGradient id="paint20_linear_4220_35675" x1="19.2566" y1="19.6052" x2="28.7433" y2="28.4601" gradientUnits="userSpaceOnUse">
<stop stop-color="#D0D2D3"/>
<stop offset="0.21" stop-color="#ADAFB2"/>
<stop offset="0.46" stop-color="#E6E7E8"/>
<stop offset="0.55" stop-color="#C8CACC"/>
<stop offset="0.64" stop-color="#B9BABC"/>
<stop offset="0.71" stop-color="#C7C7C9"/>
<stop offset="0.87" stop-color="#B6B5B9"/>
<stop offset="1" stop-color="#E6E7E8"/>
</linearGradient>
<linearGradient id="paint21_linear_4220_35675" x1="19.4307" y1="19.758" x2="28.5797" y2="28.2971" gradientUnits="userSpaceOnUse">
<stop stop-color="#CED0D2"/>
<stop offset="0.21" stop-color="#AEB0B2"/>
<stop offset="0.46" stop-color="#E6E7E8"/>
<stop offset="0.55" stop-color="#C9CBCD"/>
<stop offset="0.64" stop-color="#BABBBD"/>
<stop offset="0.71" stop-color="#C6C5C7"/>
<stop offset="0.87" stop-color="#B3B2B6"/>
<stop offset="1" stop-color="#E6E7E8"/>
</linearGradient>
<linearGradient id="paint22_linear_4220_35675" x1="19.595" y1="19.9213" x2="28.4173" y2="28.1446" gradientUnits="userSpaceOnUse">
<stop stop-color="#CDCFD1"/>
<stop offset="0.21" stop-color="#AEB0B3"/>
<stop offset="0.46" stop-color="#E6E7E8"/>
<stop offset="0.55" stop-color="#CACCCE"/>
<stop offset="0.64" stop-color="#BABCBD"/>
<stop offset="0.71" stop-color="#C4C4C6"/>
<stop offset="0.87" stop-color="#B0B0B4"/>
<stop offset="1" stop-color="#E6E7E8"/>
</linearGradient>
<linearGradient id="paint23_linear_4220_35675" x1="19.7578" y1="20.0737" x2="28.2533" y2="27.992" gradientUnits="userSpaceOnUse">
<stop stop-color="#CCCED0"/>
<stop offset="0.21" stop-color="#AFB1B3"/>
<stop offset="0.46" stop-color="#E6E7E8"/>
<stop offset="0.55" stop-color="#CBCDCF"/>
<stop offset="0.64" stop-color="#BBBDBE"/>
<stop offset="0.71" stop-color="#C2C2C4"/>
<stop offset="0.87" stop-color="#AEADB1"/>
<stop offset="1" stop-color="#E6E7E8"/>
</linearGradient>
<linearGradient id="paint24_linear_4220_35675" x1="19.9319" y1="20.2266" x2="28.0789" y2="27.829" gradientUnits="userSpaceOnUse">
<stop stop-color="#CACDCF"/>
<stop offset="0.21" stop-color="#AFB1B3"/>
<stop offset="0.46" stop-color="#E6E7E8"/>
<stop offset="0.55" stop-color="#CCCECF"/>
<stop offset="0.64" stop-color="#BCBEBF"/>
<stop offset="0.71" stop-color="#C1C0C3"/>
<stop offset="0.87" stop-color="#ABABAF"/>
<stop offset="1" stop-color="#E6E7E8"/>
</linearGradient>
<linearGradient id="paint25_linear_4220_35675" x1="20.0948" y1="20.3899" x2="27.915" y2="27.6764" gradientUnits="userSpaceOnUse">
<stop stop-color="#C9CBCD"/>
<stop offset="0.21" stop-color="#AFB1B4"/>
<stop offset="0.46" stop-color="#E6E7E8"/>
<stop offset="0.55" stop-color="#CDCFD0"/>
<stop offset="0.64" stop-color="#BDBEC0"/>
<stop offset="0.71" stop-color="#BFBFC1"/>
<stop offset="0.87" stop-color="#A9A8AC"/>
<stop offset="1" stop-color="#E6E7E8"/>
</linearGradient>
<linearGradient id="paint26_linear_4220_35675" x1="24.0058" y1="29.9091" x2="24.0058" y2="18.0372" gradientUnits="userSpaceOnUse">
<stop stop-color="#007FBF"/>
<stop offset="1" stop-color="#007FBF"/>
</linearGradient>
<linearGradient id="paint27_linear_4220_35675" x1="24.0051" y1="29.9089" x2="24.0051" y2="18.1241" gradientUnits="userSpaceOnUse">
<stop stop-color="#007FBF"/>
<stop offset="1" stop-color="#0082C1"/>
</linearGradient>
<linearGradient id="paint28_linear_4220_35675" x1="24.0058" y1="29.909" x2="24.0058" y2="18.2005" gradientUnits="userSpaceOnUse">
<stop stop-color="#007FBF"/>
<stop offset="1" stop-color="#0084C2"/>
</linearGradient>
<linearGradient id="paint29_linear_4220_35675" x1="24.0058" y1="29.9096" x2="24.0058" y2="18.2882" gradientUnits="userSpaceOnUse">
<stop stop-color="#007FBF"/>
<stop offset="1" stop-color="#0087C4"/>
</linearGradient>
<linearGradient id="paint30_linear_4220_35675" x1="24.0054" y1="29.9093" x2="24.0054" y2="18.3641" gradientUnits="userSpaceOnUse">
<stop stop-color="#007FBF"/>
<stop offset="1" stop-color="#0089C6"/>
</linearGradient>
<linearGradient id="paint31_linear_4220_35675" x1="24.0051" y1="29.898" x2="24.0051" y2="18.4399" gradientUnits="userSpaceOnUse">
<stop stop-color="#007FBF"/>
<stop offset="1" stop-color="#008CC8"/>
</linearGradient>
<linearGradient id="paint32_linear_4220_35675" x1="24.0061" y1="29.8982" x2="24.0061" y2="18.5164" gradientUnits="userSpaceOnUse">
<stop stop-color="#007FBF"/>
<stop offset="1" stop-color="#008ECA"/>
</linearGradient>
<linearGradient id="paint33_linear_4220_35675" x1="24.0057" y1="29.8983" x2="24.0057" y2="18.6036" gradientUnits="userSpaceOnUse">
<stop stop-color="#007FBF"/>
<stop offset="1" stop-color="#0091CC"/>
</linearGradient>
<linearGradient id="paint34_linear_4220_35675" x1="24.0051" y1="29.8983" x2="24.0051" y2="18.6799" gradientUnits="userSpaceOnUse">
<stop stop-color="#007FBF"/>
<stop offset="1" stop-color="#0094CE"/>
</linearGradient>
<linearGradient id="paint35_linear_4220_35675" x1="24.0061" y1="29.8876" x2="24.0061" y2="18.7563" gradientUnits="userSpaceOnUse">
<stop stop-color="#007FBF"/>
<stop offset="1" stop-color="#0096D0"/>
</linearGradient>
<linearGradient id="paint36_linear_4220_35675" x1="24.0054" y1="29.8872" x2="24.0054" y2="18.8322" gradientUnits="userSpaceOnUse">
<stop stop-color="#007FBF"/>
<stop offset="1" stop-color="#0099D2"/>
</linearGradient>
<linearGradient id="paint37_linear_4220_35675" x1="24.0054" y1="29.8874" x2="24.0054" y2="18.9086" gradientUnits="userSpaceOnUse">
<stop stop-color="#007FBF"/>
<stop offset="1" stop-color="#009BD3"/>
</linearGradient>
<linearGradient id="paint38_linear_4220_35675" x1="24.0054" y1="29.887" x2="24.0054" y2="18.9953" gradientUnits="userSpaceOnUse">
<stop stop-color="#007FBF"/>
<stop offset="1" stop-color="#009ED5"/>
</linearGradient>
<linearGradient id="paint39_linear_4220_35675" x1="24.0056" y1="29.8767" x2="24.0056" y2="19.0722" gradientUnits="userSpaceOnUse">
<stop stop-color="#007FBF"/>
<stop offset="1" stop-color="#00A1D7"/>
</linearGradient>
<linearGradient id="paint40_linear_4220_35675" x1="24.0056" y1="29.8768" x2="24.0056" y2="19.1485" gradientUnits="userSpaceOnUse">
<stop stop-color="#007FBF"/>
<stop offset="1" stop-color="#00A3D9"/>
</linearGradient>
<linearGradient id="paint41_linear_4220_35675" x1="24.0052" y1="29.8765" x2="24.0052" y2="19.2245" gradientUnits="userSpaceOnUse">
<stop stop-color="#007FBF"/>
<stop offset="1" stop-color="#00A6DB"/>
</linearGradient>
<linearGradient id="paint42_linear_4220_35675" x1="24.0056" y1="29.8766" x2="24.0056" y2="19.3008" gradientUnits="userSpaceOnUse">
<stop stop-color="#007FBF"/>
<stop offset="1" stop-color="#00A9DD"/>
</linearGradient>
<linearGradient id="paint43_linear_4220_35675" x1="24.0054" y1="29.8654" x2="24.0054" y2="19.3768" gradientUnits="userSpaceOnUse">
<stop stop-color="#007FBF"/>
<stop offset="1" stop-color="#00ACDF"/>
</linearGradient>
<linearGradient id="paint44_linear_4220_35675" x1="24.0055" y1="29.8655" x2="24.0055" y2="19.4531" gradientUnits="userSpaceOnUse">
<stop stop-color="#007FBF"/>
<stop offset="1" stop-color="#00AEE1"/>
</linearGradient>
<linearGradient id="paint45_linear_4220_35675" x1="24.0054" y1="29.8656" x2="24.0054" y2="19.5294" gradientUnits="userSpaceOnUse">
<stop stop-color="#007FBF"/>
<stop offset="1" stop-color="#00B1E3"/>
</linearGradient>
<linearGradient id="paint46_linear_4220_35675" x1="24.005" y1="29.8658" x2="24.005" y2="19.6058" gradientUnits="userSpaceOnUse">
<stop stop-color="#007FBF"/>
<stop offset="1" stop-color="#00B5E5"/>
</linearGradient>
<linearGradient id="paint47_linear_4220_35675" x1="24.0057" y1="29.8545" x2="24.0057" y2="19.6708" gradientUnits="userSpaceOnUse">
<stop stop-color="#007FBF"/>
<stop offset="1" stop-color="#00B9E8"/>
</linearGradient>
<linearGradient id="paint48_linear_4220_35675" x1="24.0161" y1="29.7571" x2="24.0161" y2="19.7041" gradientUnits="userSpaceOnUse">
<stop stop-color="#007FBF"/>
<stop offset="1" stop-color="#00B9E8"/>
</linearGradient>
<linearGradient id="paint49_linear_4220_35675" x1="24.0167" y1="29.6696" x2="24.0167" y2="19.7364" gradientUnits="userSpaceOnUse">
<stop stop-color="#007FBF"/>
<stop offset="1" stop-color="#00B9E8"/>
</linearGradient>
<linearGradient id="paint50_linear_4220_35675" x1="24.0272" y1="29.5717" x2="24.0272" y2="19.7692" gradientUnits="userSpaceOnUse">
<stop stop-color="#007FBF"/>
<stop offset="1" stop-color="#00B9E8"/>
</linearGradient>
<linearGradient id="paint51_linear_4220_35675" x1="24.0269" y1="29.4733" x2="24.0269" y2="19.8015" gradientUnits="userSpaceOnUse">
<stop stop-color="#007FBF"/>
<stop offset="1" stop-color="#00B9E8"/>
</linearGradient>
<linearGradient id="paint52_linear_4220_35675" x1="24.038" y1="29.3754" x2="24.038" y2="19.8343" gradientUnits="userSpaceOnUse">
<stop stop-color="#007FBF"/>
<stop offset="1" stop-color="#00B9E8"/>
</linearGradient>
<linearGradient id="paint53_linear_4220_35675" x1="24.0491" y1="29.2879" x2="24.0491" y2="19.8666" gradientUnits="userSpaceOnUse">
<stop stop-color="#007FBF"/>
<stop offset="1" stop-color="#00B9E8"/>
</linearGradient>
<linearGradient id="paint54_linear_4220_35675" x1="24.0496" y1="29.1904" x2="24.0496" y2="19.8998" gradientUnits="userSpaceOnUse">
<stop stop-color="#007FBF"/>
<stop offset="1" stop-color="#00B9E8"/>
</linearGradient>
<linearGradient id="paint55_linear_4220_35675" x1="24.0607" y1="29.103" x2="24.0607" y2="19.9322" gradientUnits="userSpaceOnUse">
<stop stop-color="#007FBF"/>
<stop offset="1" stop-color="#00B9E8"/>
</linearGradient>
<linearGradient id="paint56_linear_4220_35675" x1="24.0599" y1="29.0159" x2="24.0599" y2="19.9649" gradientUnits="userSpaceOnUse">
<stop stop-color="#007FBF"/>
<stop offset="1" stop-color="#00B9E8"/>
</linearGradient>
<linearGradient id="paint57_linear_4220_35675" x1="24.0708" y1="28.918" x2="24.0708" y2="19.9977" gradientUnits="userSpaceOnUse">
<stop stop-color="#007FBF"/>
<stop offset="1" stop-color="#00B9E8"/>
</linearGradient>
<linearGradient id="paint58_linear_4220_35675" x1="24.082" y1="28.831" x2="24.082" y2="20.0305" gradientUnits="userSpaceOnUse">
<stop stop-color="#007FBF"/>
<stop offset="1" stop-color="#00B9E8"/>
</linearGradient>
<linearGradient id="paint59_linear_4220_35675" x1="24.0816" y1="28.744" x2="24.0816" y2="20.0633" gradientUnits="userSpaceOnUse">
<stop stop-color="#007FBF"/>
<stop offset="1" stop-color="#00B9E8"/>
</linearGradient>
<linearGradient id="paint60_linear_4220_35675" x1="24.0925" y1="28.6569" x2="24.0925" y2="20.096" gradientUnits="userSpaceOnUse">
<stop stop-color="#007FBF"/>
<stop offset="1" stop-color="#00B9E8"/>
</linearGradient>
<linearGradient id="paint61_linear_4220_35675" x1="24.0927" y1="28.5694" x2="24.0927" y2="20.1283" gradientUnits="userSpaceOnUse">
<stop stop-color="#007FBF"/>
<stop offset="1" stop-color="#00B9E8"/>
</linearGradient>
<linearGradient id="paint62_linear_4220_35675" x1="24.1031" y1="28.4929" x2="24.1031" y2="20.1608" gradientUnits="userSpaceOnUse">
<stop stop-color="#007FBF"/>
<stop offset="1" stop-color="#00B9E8"/>
</linearGradient>
<linearGradient id="paint63_linear_4220_35675" x1="24.1142" y1="28.4063" x2="24.1142" y2="20.1939" gradientUnits="userSpaceOnUse">
<stop stop-color="#007FBF"/>
<stop offset="1" stop-color="#00B9E8"/>
</linearGradient>
<linearGradient id="paint64_linear_4220_35675" x1="24.1145" y1="28.3188" x2="24.1145" y2="20.2263" gradientUnits="userSpaceOnUse">
<stop stop-color="#007FBF"/>
<stop offset="1" stop-color="#00B9E8"/>
</linearGradient>
<linearGradient id="paint65_linear_4220_35675" x1="24.1253" y1="28.2431" x2="24.1253" y2="20.2596" gradientUnits="userSpaceOnUse">
<stop stop-color="#007FBF"/>
<stop offset="1" stop-color="#00B9E8"/>
</linearGradient>
<linearGradient id="paint66_linear_4220_35675" x1="24.1365" y1="28.1557" x2="24.1365" y2="20.2919" gradientUnits="userSpaceOnUse">
<stop stop-color="#007FBF"/>
<stop offset="1" stop-color="#00B9E8"/>
</linearGradient>
<linearGradient id="paint67_linear_4220_35675" x1="24.1366" y1="28.0794" x2="24.1366" y2="20.3246" gradientUnits="userSpaceOnUse">
<stop stop-color="#007FBF"/>
<stop offset="1" stop-color="#00B9E8"/>
</linearGradient>
<linearGradient id="paint68_linear_4220_35675" x1="24.1471" y1="28.0029" x2="24.1471" y2="20.357" gradientUnits="userSpaceOnUse">
<stop stop-color="#007FBF"/>
<stop offset="1" stop-color="#00B9E8"/>
</linearGradient>
<linearGradient id="paint69_linear_4220_35675" x1="24.1139" y1="27.938" x2="24.1139" y2="20.3901" gradientUnits="userSpaceOnUse">
<stop stop-color="#007EBD"/>
<stop offset="1" stop-color="#00B2E3"/>
</linearGradient>
<linearGradient id="paint70_linear_4220_35675" x1="24.0824" y1="27.8832" x2="24.0824" y2="20.4115" gradientUnits="userSpaceOnUse">
<stop stop-color="#007CBB"/>
<stop offset="1" stop-color="#00AEDE"/>
</linearGradient>
<linearGradient id="paint71_linear_4220_35675" x1="24.0599" y1="27.8184" x2="24.0599" y2="20.4338" gradientUnits="userSpaceOnUse">
<stop stop-color="#007AB9"/>
<stop offset="1" stop-color="#00A9DA"/>
</linearGradient>
<linearGradient id="paint72_linear_4220_35675" x1="24.0282" y1="27.763" x2="24.0282" y2="20.4547" gradientUnits="userSpaceOnUse">
<stop stop-color="#0079B7"/>
<stop offset="1" stop-color="#00A4D6"/>
</linearGradient>
<linearGradient id="paint73_linear_4220_35675" x1="23.9942" y1="27.6987" x2="23.9942" y2="20.4775" gradientUnits="userSpaceOnUse">
<stop stop-color="#0077B5"/>
<stop offset="1" stop-color="#00A0D2"/>
</linearGradient>
<linearGradient id="paint74_linear_4220_35675" x1="23.973" y1="27.6438" x2="23.973" y2="20.4989" gradientUnits="userSpaceOnUse">
<stop stop-color="#0076B3"/>
<stop offset="1" stop-color="#009BCE"/>
</linearGradient>
<linearGradient id="paint75_linear_4220_35675" x1="23.94" y1="27.5785" x2="23.94" y2="20.5207" gradientUnits="userSpaceOnUse">
<stop stop-color="#0074B1"/>
<stop offset="1" stop-color="#0097CA"/>
</linearGradient>
<linearGradient id="paint76_linear_4220_35675" x1="23.9075" y1="27.5236" x2="23.9075" y2="20.542" gradientUnits="userSpaceOnUse">
<stop stop-color="#0073B0"/>
<stop offset="1" stop-color="#0093C6"/>
</linearGradient>
<linearGradient id="paint77_linear_4220_35675" x1="23.8748" y1="27.4583" x2="23.8748" y2="20.5639" gradientUnits="userSpaceOnUse">
<stop stop-color="#0071AE"/>
<stop offset="1" stop-color="#008EC2"/>
</linearGradient>
<linearGradient id="paint78_linear_4220_35675" x1="23.853" y1="27.4043" x2="23.853" y2="20.5861" gradientUnits="userSpaceOnUse">
<stop stop-color="#0070AC"/>
<stop offset="1" stop-color="#008ABF"/>
</linearGradient>
<linearGradient id="paint79_linear_4220_35675" x1="23.8205" y1="27.3386" x2="23.8205" y2="20.6076" gradientUnits="userSpaceOnUse">
<stop stop-color="#006EAA"/>
<stop offset="1" stop-color="#0086BB"/>
</linearGradient>
<linearGradient id="paint80_linear_4220_35675" x1="23.7874" y1="27.2842" x2="23.7874" y2="20.6294" gradientUnits="userSpaceOnUse">
<stop stop-color="#006DA9"/>
<stop offset="1" stop-color="#0082B7"/>
</linearGradient>
<linearGradient id="paint81_linear_4220_35675" x1="23.7663" y1="27.219" x2="23.7663" y2="20.6513" gradientUnits="userSpaceOnUse">
<stop stop-color="#006BA7"/>
<stop offset="1" stop-color="#007EB4"/>
</linearGradient>
<linearGradient id="paint82_linear_4220_35675" x1="23.7338" y1="27.1537" x2="23.7338" y2="20.6731" gradientUnits="userSpaceOnUse">
<stop stop-color="#006AA5"/>
<stop offset="1" stop-color="#007AB0"/>
</linearGradient>
<linearGradient id="paint83_linear_4220_35675" x1="23.7006" y1="27.0992" x2="23.7006" y2="20.6949" gradientUnits="userSpaceOnUse">
<stop stop-color="#0068A4"/>
<stop offset="1" stop-color="#0076AD"/>
</linearGradient>
<linearGradient id="paint84_linear_4220_35675" x1="23.6791" y1="27.034" x2="23.6791" y2="20.7168" gradientUnits="userSpaceOnUse">
<stop stop-color="#0067A2"/>
<stop offset="1" stop-color="#0072AA"/>
</linearGradient>
<linearGradient id="paint85_linear_4220_35675" x1="23.646" y1="26.9796" x2="23.646" y2="20.7387" gradientUnits="userSpaceOnUse">
<stop stop-color="#0065A1"/>
<stop offset="1" stop-color="#006EA6"/>
</linearGradient>
<linearGradient id="paint86_linear_4220_35675" x1="23.6139" y1="26.9138" x2="23.6139" y2="20.76" gradientUnits="userSpaceOnUse">
<stop stop-color="#00649F"/>
<stop offset="1" stop-color="#006BA3"/>
</linearGradient>
<linearGradient id="paint87_linear_4220_35675" x1="23.5809" y1="26.8594" x2="23.5809" y2="20.7819" gradientUnits="userSpaceOnUse">
<stop stop-color="#00639E"/>
<stop offset="1" stop-color="#0067A0"/>
</linearGradient>
<linearGradient id="paint88_linear_4220_35675" x1="23.5595" y1="26.7946" x2="23.5595" y2="20.8042" gradientUnits="userSpaceOnUse">
<stop stop-color="#00619C"/>
<stop offset="1" stop-color="#00639D"/>
</linearGradient>
<linearGradient id="paint89_linear_4220_35675" x1="24.0058" y1="23.4501" x2="24.0058" y2="4.92336" gradientUnits="userSpaceOnUse">
<stop stop-color="#D1D3D4"/>
<stop offset="1" stop-color="white"/>
</linearGradient>
<linearGradient id="paint90_linear_4220_35675" x1="24.0058" y1="24.7573" x2="24.0058" y2="31.227" gradientUnits="userSpaceOnUse">
<stop stop-color="#D1D3D4"/>
<stop offset="1" stop-color="#58595B"/>
</linearGradient>
<linearGradient id="paint91_linear_4220_35675" x1="24.8985" y1="31.9563" x2="23.2756" y2="16.4575" gradientUnits="userSpaceOnUse">
<stop stop-color="#E6E7E8"/>
<stop offset="1" stop-color="white"/>
</linearGradient>
<linearGradient id="paint92_linear_4220_35675" x1="19.9646" y1="20.2916" x2="28.0462" y2="27.8286" gradientUnits="userSpaceOnUse">
<stop stop-color="#E6E7E8"/>
<stop offset="0.21" stop-color="#A7A9AC"/>
<stop offset="0.46" stop-color="#E6E7E8"/>
<stop offset="0.55" stop-color="#BABCBE"/>
<stop offset="0.64" stop-color="#AAABAD"/>
<stop offset="0.71" stop-color="#E6E7E8"/>
<stop offset="0.87" stop-color="#E6E7E8"/>
<stop offset="1" stop-color="#E6E7E8"/>
</linearGradient>
<linearGradient id="paint93_linear_4220_35675" x1="20.1166" y1="20.4327" x2="27.8933" y2="27.6865" gradientUnits="userSpaceOnUse">
<stop stop-color="#E5E6E7"/>
<stop offset="0.21" stop-color="#A7AAAC"/>
<stop offset="0.46" stop-color="#E6E7E8"/>
<stop offset="0.55" stop-color="#BBBDBF"/>
<stop offset="0.64" stop-color="#ABACAE"/>
<stop offset="0.71" stop-color="#E4E5E6"/>
<stop offset="0.87" stop-color="#E2E2E4"/>
<stop offset="1" stop-color="#E6E7E8"/>
</linearGradient>
<linearGradient id="paint94_linear_4220_35675" x1="20.27" y1="20.5745" x2="27.7416" y2="27.5452" gradientUnits="userSpaceOnUse">
<stop stop-color="#E3E4E5"/>
<stop offset="0.21" stop-color="#A8AAAD"/>
<stop offset="0.46" stop-color="#E6E7E8"/>
<stop offset="0.55" stop-color="#BCBEC0"/>
<stop offset="0.64" stop-color="#ACADAF"/>
<stop offset="0.71" stop-color="#E1E2E3"/>
<stop offset="0.87" stop-color="#DEDEE0"/>
<stop offset="1" stop-color="#E6E7E8"/>
</linearGradient>
<linearGradient id="paint95_linear_4220_35675" x1="20.4217" y1="20.716" x2="27.5884" y2="27.4035" gradientUnits="userSpaceOnUse">
<stop stop-color="#E2E3E4"/>
<stop offset="0.21" stop-color="#A8AAAD"/>
<stop offset="0.46" stop-color="#E6E7E8"/>
<stop offset="0.55" stop-color="#BDBEC1"/>
<stop offset="0.64" stop-color="#ADAEB0"/>
<stop offset="0.71" stop-color="#DFE0E1"/>
<stop offset="0.87" stop-color="#DBDBDC"/>
<stop offset="1" stop-color="#E6E7E8"/>
</linearGradient>
<linearGradient id="paint96_linear_4220_35675" x1="20.5742" y1="20.8575" x2="27.436" y2="27.2618" gradientUnits="userSpaceOnUse">
<stop stop-color="#E0E2E3"/>
<stop offset="0.21" stop-color="#A9ABAD"/>
<stop offset="0.46" stop-color="#E6E7E8"/>
<stop offset="0.55" stop-color="#BDBFC1"/>
<stop offset="0.64" stop-color="#AEAFB1"/>
<stop offset="0.71" stop-color="#DDDDDF"/>
<stop offset="0.87" stop-color="#D7D7D9"/>
<stop offset="1" stop-color="#E6E7E8"/>
</linearGradient>
<linearGradient id="paint97_linear_4220_35675" x1="20.727" y1="20.9998" x2="27.2837" y2="27.121" gradientUnits="userSpaceOnUse">
<stop stop-color="#DFE0E2"/>
<stop offset="0.21" stop-color="#A9ABAE"/>
<stop offset="0.46" stop-color="#E6E7E8"/>
<stop offset="0.55" stop-color="#BEC0C2"/>
<stop offset="0.64" stop-color="#AEB0B2"/>
<stop offset="0.71" stop-color="#DBDBDC"/>
<stop offset="0.87" stop-color="#D4D4D6"/>
<stop offset="1" stop-color="#E6E7E8"/>
</linearGradient>
<linearGradient id="paint98_linear_4220_35675" x1="20.8688" y1="21.1413" x2="27.1315" y2="26.9792" gradientUnits="userSpaceOnUse">
<stop stop-color="#DDDFE0"/>
<stop offset="0.21" stop-color="#A9ACAE"/>
<stop offset="0.46" stop-color="#E6E7E8"/>
<stop offset="0.55" stop-color="#BFC1C3"/>
<stop offset="0.64" stop-color="#AFB1B3"/>
<stop offset="0.71" stop-color="#D9D9DB"/>
<stop offset="0.87" stop-color="#D1D1D3"/>
<stop offset="1" stop-color="#E6E7E8"/>
</linearGradient>
<linearGradient id="paint99_linear_4220_35675" x1="21.0208" y1="21.2828" x2="26.9785" y2="26.8375" gradientUnits="userSpaceOnUse">
<stop stop-color="#DCDDDF"/>
<stop offset="0.21" stop-color="#AAACAE"/>
<stop offset="0.46" stop-color="#E6E7E8"/>
<stop offset="0.55" stop-color="#C0C2C4"/>
<stop offset="0.64" stop-color="#B0B2B4"/>
<stop offset="0.71" stop-color="#D7D7D9"/>
<stop offset="0.87" stop-color="#CFCED0"/>
<stop offset="1" stop-color="#E6E7E8"/>
</linearGradient>
<linearGradient id="paint100_linear_4220_35675" x1="21.1731" y1="21.4242" x2="26.8259" y2="26.6958" gradientUnits="userSpaceOnUse">
<stop stop-color="#DBDCDE"/>
<stop offset="0.21" stop-color="#AAACAF"/>
<stop offset="0.46" stop-color="#E6E7E8"/>
<stop offset="0.55" stop-color="#C1C3C5"/>
<stop offset="0.64" stop-color="#B1B3B5"/>
<stop offset="0.71" stop-color="#D5D5D7"/>
<stop offset="0.87" stop-color="#CCCBCD"/>
<stop offset="1" stop-color="#E6E7E8"/>
</linearGradient>
<linearGradient id="paint101_linear_4220_35675" x1="21.3259" y1="21.5657" x2="26.6737" y2="26.5541" gradientUnits="userSpaceOnUse">
<stop stop-color="#D9DBDC"/>
<stop offset="0.21" stop-color="#ABADAF"/>
<stop offset="0.46" stop-color="#E6E7E8"/>
<stop offset="0.55" stop-color="#C2C4C6"/>
<stop offset="0.64" stop-color="#B2B4B5"/>
<stop offset="0.71" stop-color="#D3D4D5"/>
<stop offset="0.87" stop-color="#C9C8CB"/>
<stop offset="1" stop-color="#E6E7E8"/>
</linearGradient>
<linearGradient id="paint102_linear_4220_35675" x1="21.4784" y1="21.7072" x2="26.5212" y2="26.4124" gradientUnits="userSpaceOnUse">
<stop stop-color="#D8D9DB"/>
<stop offset="0.21" stop-color="#ABADB0"/>
<stop offset="0.46" stop-color="#E6E7E8"/>
<stop offset="0.55" stop-color="#C3C5C7"/>
<stop offset="0.64" stop-color="#B3B5B6"/>
<stop offset="0.71" stop-color="#D2D2D3"/>
<stop offset="0.87" stop-color="#C6C6C8"/>
<stop offset="1" stop-color="#E6E7E8"/>
</linearGradient>
<linearGradient id="paint103_linear_4220_35675" x1="21.6311" y1="21.8495" x2="26.369" y2="26.2716" gradientUnits="userSpaceOnUse">
<stop stop-color="#D6D8DA"/>
<stop offset="0.21" stop-color="#ABADB0"/>
<stop offset="0.46" stop-color="#E6E7E8"/>
<stop offset="0.55" stop-color="#C4C6C8"/>
<stop offset="0.64" stop-color="#B4B5B7"/>
<stop offset="0.71" stop-color="#D0D0D1"/>
<stop offset="0.87" stop-color="#C3C3C5"/>
<stop offset="1" stop-color="#E6E7E8"/>
</linearGradient>
<linearGradient id="paint104_linear_4220_35675" x1="21.7836" y1="21.9905" x2="26.2165" y2="26.1294" gradientUnits="userSpaceOnUse">
<stop stop-color="#D5D7D9"/>
<stop offset="0.21" stop-color="#ACAEB0"/>
<stop offset="0.46" stop-color="#E6E7E8"/>
<stop offset="0.55" stop-color="#C5C6C9"/>
<stop offset="0.64" stop-color="#B5B6B8"/>
<stop offset="0.71" stop-color="#CECED0"/>
<stop offset="0.87" stop-color="#C1C0C3"/>
<stop offset="1" stop-color="#E6E7E8"/>
</linearGradient>
<linearGradient id="paint105_linear_4220_35675" x1="21.9354" y1="22.1315" x2="26.0742" y2="25.9872" gradientUnits="userSpaceOnUse">
<stop stop-color="#D4D6D7"/>
<stop offset="0.21" stop-color="#ACAEB1"/>
<stop offset="0.46" stop-color="#E6E7E8"/>
<stop offset="0.55" stop-color="#C6C7C9"/>
<stop offset="0.64" stop-color="#B6B7B9"/>
<stop offset="0.71" stop-color="#CCCCCE"/>
<stop offset="0.87" stop-color="#BEBDC0"/>
<stop offset="1" stop-color="#E6E7E8"/>
</linearGradient>
<linearGradient id="paint106_linear_4220_35675" x1="22.0882" y1="22.2735" x2="25.9221" y2="25.8459" gradientUnits="userSpaceOnUse">
<stop stop-color="#D2D4D6"/>
<stop offset="0.21" stop-color="#ADAFB1"/>
<stop offset="0.46" stop-color="#E6E7E8"/>
<stop offset="0.55" stop-color="#C7C8CA"/>
<stop offset="0.64" stop-color="#B7B8BA"/>
<stop offset="0.71" stop-color="#CBCBCC"/>
<stop offset="0.87" stop-color="#BBBBBE"/>
<stop offset="1" stop-color="#E6E7E8"/>
</linearGradient>
<linearGradient id="paint107_linear_4220_35675" x1="22.2412" y1="22.4154" x2="25.7701" y2="25.7047" gradientUnits="userSpaceOnUse">
<stop stop-color="#D1D3D5"/>
<stop offset="0.21" stop-color="#ADAFB2"/>
<stop offset="0.46" stop-color="#E6E7E8"/>
<stop offset="0.55" stop-color="#C7C9CB"/>
<stop offset="0.64" stop-color="#B8B9BB"/>
<stop offset="0.71" stop-color="#C9C9CB"/>
<stop offset="0.87" stop-color="#B8B8BB"/>
<stop offset="1" stop-color="#E6E7E8"/>
</linearGradient>
<linearGradient id="paint108_linear_4220_35675" x1="22.3934" y1="22.5569" x2="25.6174" y2="25.563" gradientUnits="userSpaceOnUse">
<stop stop-color="#D0D2D3"/>
<stop offset="0.21" stop-color="#ADAFB2"/>
<stop offset="0.46" stop-color="#E6E7E8"/>
<stop offset="0.55" stop-color="#C8CACC"/>
<stop offset="0.64" stop-color="#B9BABC"/>
<stop offset="0.71" stop-color="#C7C7C9"/>
<stop offset="0.87" stop-color="#B6B5B9"/>
<stop offset="1" stop-color="#E6E7E8"/>
</linearGradient>
<linearGradient id="paint109_linear_4220_35675" x1="22.5462" y1="22.6989" x2="25.4651" y2="25.4218" gradientUnits="userSpaceOnUse">
<stop stop-color="#CED0D2"/>
<stop offset="0.21" stop-color="#AEB0B2"/>
<stop offset="0.46" stop-color="#E6E7E8"/>
<stop offset="0.55" stop-color="#C9CBCD"/>
<stop offset="0.64" stop-color="#BABBBD"/>
<stop offset="0.71" stop-color="#C6C5C7"/>
<stop offset="0.87" stop-color="#B3B2B6"/>
<stop offset="1" stop-color="#E6E7E8"/>
</linearGradient>
<linearGradient id="paint110_linear_4220_35675" x1="22.6977" y1="22.8399" x2="25.3117" y2="25.2796" gradientUnits="userSpaceOnUse">
<stop stop-color="#CDCFD1"/>
<stop offset="0.21" stop-color="#AEB0B3"/>
<stop offset="0.46" stop-color="#E6E7E8"/>
<stop offset="0.55" stop-color="#CACCCE"/>
<stop offset="0.64" stop-color="#BABCBD"/>
<stop offset="0.71" stop-color="#C4C4C6"/>
<stop offset="0.87" stop-color="#B0B0B4"/>
<stop offset="1" stop-color="#E6E7E8"/>
</linearGradient>
<linearGradient id="paint111_linear_4220_35675" x1="22.8504" y1="22.9814" x2="25.1595" y2="25.1379" gradientUnits="userSpaceOnUse">
<stop stop-color="#CCCED0"/>
<stop offset="0.21" stop-color="#AFB1B3"/>
<stop offset="0.46" stop-color="#E6E7E8"/>
<stop offset="0.55" stop-color="#CBCDCF"/>
<stop offset="0.64" stop-color="#BBBDBE"/>
<stop offset="0.71" stop-color="#C2C2C4"/>
<stop offset="0.87" stop-color="#AEADB1"/>
<stop offset="1" stop-color="#E6E7E8"/>
</linearGradient>
<linearGradient id="paint112_linear_4220_35675" x1="23.0033" y1="23.1233" x2="25.0073" y2="24.9967" gradientUnits="userSpaceOnUse">
<stop stop-color="#CACDCF"/>
<stop offset="0.21" stop-color="#AFB1B3"/>
<stop offset="0.46" stop-color="#E6E7E8"/>
<stop offset="0.55" stop-color="#CCCECF"/>
<stop offset="0.64" stop-color="#BCBEBF"/>
<stop offset="0.71" stop-color="#C1C0C3"/>
<stop offset="0.87" stop-color="#ABABAF"/>
<stop offset="1" stop-color="#E6E7E8"/>
</linearGradient>
<linearGradient id="paint113_linear_4220_35675" x1="23.1557" y1="23.276" x2="24.8548" y2="24.8553" gradientUnits="userSpaceOnUse">
<stop stop-color="#C9CBCD"/>
<stop offset="0.21" stop-color="#AFB1B4"/>
<stop offset="0.46" stop-color="#E6E7E8"/>
<stop offset="0.55" stop-color="#CDCFD0"/>
<stop offset="0.64" stop-color="#BDBEC0"/>
<stop offset="0.71" stop-color="#BFBFC1"/>
<stop offset="0.87" stop-color="#A9A8AC"/>
<stop offset="1" stop-color="#E6E7E8"/>
</linearGradient>
<linearGradient id="paint114_linear_4220_35675" x1="19.9646" y1="20.2916" x2="28.0462" y2="27.8286" gradientUnits="userSpaceOnUse">
<stop stop-color="#EDEDEE"/>
<stop offset="0.21" stop-color="#BCBEC0"/>
<stop offset="0.46" stop-color="#EDEDEE"/>
<stop offset="0.55" stop-color="#CBCCCE"/>
<stop offset="0.64" stop-color="#B9BBBC"/>
<stop offset="0.71" stop-color="#E6E7E8"/>
<stop offset="0.87" stop-color="#EDEDEE"/>
<stop offset="1" stop-color="#EDEDEE"/>
</linearGradient>
<linearGradient id="paint115_linear_4220_35675" x1="24.0054" y1="23.7769" x2="24.0054" y2="19.1589" gradientUnits="userSpaceOnUse">
<stop stop-color="#D1D3D4"/>
<stop offset="1" stop-color="white"/>
</linearGradient>
<linearGradient id="paint116_linear_4220_35675" x1="24.0054" y1="24.4847" x2="24.0054" y2="28.0244" gradientUnits="userSpaceOnUse">
<stop stop-color="#D1D3D4"/>
<stop offset="1" stop-color="#58595B"/>
</linearGradient>
<linearGradient id="paint117_linear_4220_35675" x1="19.1258" y1="17.2746" x2="28.155" y2="29.702" gradientUnits="userSpaceOnUse">
<stop stop-color="#E4E5E6"/>
<stop offset="0.21" stop-color="#BCBEC0"/>
<stop offset="0.46" stop-color="#E9E9EA"/>
<stop offset="0.55" stop-color="#C4C6C8"/>
<stop offset="0.71" stop-color="white"/>
<stop offset="0.78" stop-color="white"/>
<stop offset="1" stop-color="#E9E9EA"/>
</linearGradient>
<linearGradient id="paint118_linear_4220_35675" x1="22.2741" y1="21.6748" x2="25.4872" y2="26.0968" gradientUnits="userSpaceOnUse">
<stop stop-color="#E4E5E6"/>
<stop offset="0.21" stop-color="#BCBEC0"/>
<stop offset="0.71" stop-color="#E9E9EA"/>
<stop offset="1" stop-color="#E9E9EA"/>
</linearGradient>
<radialGradient id="paint119_radial_4220_35675" cx="0" cy="0" r="1" gradientUnits="userSpaceOnUse" gradientTransform="translate(24.5171 24.9752) scale(3.81208)">
<stop stop-color="#0062A2"/>
<stop offset="0.54" stop-color="#0F4472"/>
<stop offset="1" stop-color="#001116"/>
</radialGradient>
</defs>
</svg>
