<svg width="24" height="16" viewBox="0 0 24 16" fill="none" xmlns="http://www.w3.org/2000/svg">
<path d="M23.549 5.85357C23.6862 5.77369 23.8 5.65922 23.8792 5.52158C23.9583 5.38395 24 5.22796 24 5.06919V1.1936C24 1.07443 23.9765 0.956421 23.9309 0.846317C23.8853 0.736213 23.8185 0.63617 23.7342 0.551902C23.65 0.467633 23.5499 0.40079 23.4398 0.355189C23.3297 0.309588 23.2117 0.286122 23.0925 0.286133H16.9411V1.79875C16.9411 2.03943 16.8455 2.27024 16.6753 2.44043C16.5051 2.61061 16.2743 2.70622 16.0336 2.70622C15.793 2.70622 15.5622 2.61061 15.392 2.44043C15.2218 2.27024 15.1262 2.03943 15.1262 1.79875V0.286133H0.90747C0.788296 0.286122 0.670287 0.309586 0.560183 0.355187C0.450079 0.400788 0.350035 0.467631 0.265767 0.5519C0.181498 0.636168 0.114655 0.736211 0.0690544 0.846315C0.0234537 0.95642 -1.11496e-05 1.07443 3.97436e-09 1.1936V5.06919C1.95295e-05 5.22796 0.0416797 5.38395 0.120823 5.52158C0.199965 5.65922 0.313823 5.77369 0.451031 5.85357C0.830764 6.06889 1.14659 6.38108 1.3663 6.75829C1.58602 7.1355 1.70175 7.56424 1.7017 8.00077C1.70165 8.43731 1.58582 8.86602 1.36602 9.24318C1.14622 9.62034 0.83032 9.93245 0.450537 10.1477C0.313392 10.2276 0.19961 10.3421 0.120552 10.4797C0.041495 10.6174 -7.0757e-05 10.7733 5.36923e-06 10.9321V14.8072C-5.78423e-06 14.9263 0.0234588 15.0443 0.0690591 15.1544C0.114659 15.2646 0.181502 15.3646 0.26577 15.4489C0.350038 15.5331 0.450081 15.6 0.560185 15.6456C0.670288 15.6912 0.788296 15.7146 0.90747 15.7146H15.1262V14.202C15.1262 13.9613 15.2218 13.7305 15.392 13.5603C15.5622 13.3902 15.793 13.2945 16.0336 13.2945C16.2743 13.2945 16.5051 13.3902 16.6753 13.5603C16.8455 13.7305 16.9411 13.9613 16.9411 14.202V15.7146H23.0925C23.2117 15.7146 23.3297 15.6912 23.4398 15.6456C23.5499 15.6 23.65 15.5331 23.7342 15.4489C23.8185 15.3646 23.8853 15.2646 23.9309 15.1544C23.9765 15.0443 24 14.9263 24 14.8072V10.9321C24 10.7733 23.9583 10.6173 23.8792 10.4797C23.8 10.342 23.6862 10.2276 23.549 10.1477C23.1693 9.93236 22.8535 9.62019 22.6338 9.24301C22.4141 8.86583 22.2983 8.43713 22.2983 8.00063C22.2983 7.56412 22.4141 7.13543 22.6338 6.75825C22.8535 6.38107 23.1693 6.0689 23.549 5.85357ZM16.9411 11.0761C16.9411 11.3168 16.8455 11.5476 16.6753 11.7178C16.5051 11.8879 16.2743 11.9835 16.0336 11.9835C15.793 11.9835 15.5621 11.8879 15.392 11.7178C15.2218 11.5476 15.1262 11.3168 15.1262 11.0761V9.56346C15.1262 9.32279 15.2218 9.09197 15.392 8.92178C15.5621 8.7516 15.793 8.65599 16.0336 8.65599C16.2743 8.65599 16.5051 8.7516 16.6753 8.92178C16.8455 9.09197 16.9411 9.32279 16.9411 9.56346V11.0761ZM16.9411 6.43729C16.9411 6.67797 16.8455 6.90878 16.6753 7.07897C16.5051 7.24915 16.2743 7.34476 16.0336 7.34476C15.793 7.34476 15.5621 7.24915 15.392 7.07897C15.2218 6.90878 15.1262 6.67797 15.1262 6.43729V4.92467C15.1262 4.684 15.2218 4.45318 15.392 4.28299C15.5621 4.11281 15.793 4.0172 16.0336 4.0172C16.2743 4.0172 16.5051 4.11281 16.6753 4.28299C16.8455 4.45318 16.9411 4.684 16.9411 4.92467V6.43729Z" fill="white"/>
</svg>
