<svg width="48" height="49" viewBox="0 0 48 49" fill="none" xmlns="http://www.w3.org/2000/svg">
<g opacity="0.4" filter="url(#filter0_f_4220_35927)">
<rect x="42" y="10.2163" width="24" height="0.999999" transform="rotate(90 42 10.2163)" fill="#FFF0B0"/>
</g>
<path d="M6 4H42L44 22H4L6 4Z" fill="url(#paint0_linear_4220_35927)"/>
<path opacity="0.3" d="M40.9937 8L7 7.84458V6.7708C7 5.79121 8.08946 5 9.43082 5H38.5692C39.9105 5 41 5.79592 41 6.7708V7.99529L40.9937 8Z" fill="url(#paint1_linear_4220_35927)"/>
<rect x="4" y="22" width="40" height="18" fill="url(#paint2_linear_4220_35927)"/>
<g filter="url(#filter1_i_4220_35927)">
<path d="M38 40L9 40L9 33C9 30.7909 10.7909 29 13 29L34 29C36.2091 29 38 30.7909 38 33L38 40Z" fill="url(#paint3_linear_4220_35927)"/>
</g>
<g filter="url(#filter2_d_4220_35927)">
<path d="M13.0808 32.541H35.1349V42.2167C35.1349 43.3213 34.2394 44.2167 33.1349 44.2167H15.0808C13.9762 44.2167 13.0808 43.3213 13.0808 42.2167L13.0808 32.541Z" fill="url(#paint4_linear_4220_35927)"/>
</g>
<rect x="15.9999" y="34.0002" width="17" height="2" fill="url(#paint5_linear_4220_35927)"/>
<rect width="14" height="2" transform="matrix(-1 0 0 1 29.9999 38.0002)" fill="url(#paint6_linear_4220_35927)"/>
<circle cx="41" cy="25" r="1" fill="#84B94C"/>
<circle cx="38" cy="25" r="1" fill="#F2F2F2"/>
<defs>
<filter id="filter0_f_4220_35927" x="37" y="6.21631" width="9" height="32" filterUnits="userSpaceOnUse" color-interpolation-filters="sRGB">
<feFlood flood-opacity="0" result="BackgroundImageFix"/>
<feBlend mode="normal" in="SourceGraphic" in2="BackgroundImageFix" result="shape"/>
<feGaussianBlur stdDeviation="2" result="effect1_foregroundBlur_4220_35927"/>
</filter>
<filter id="filter1_i_4220_35927" x="9" y="29" width="29" height="15" filterUnits="userSpaceOnUse" color-interpolation-filters="sRGB">
<feFlood flood-opacity="0" result="BackgroundImageFix"/>
<feBlend mode="normal" in="SourceGraphic" in2="BackgroundImageFix" result="shape"/>
<feColorMatrix in="SourceAlpha" type="matrix" values="0 0 0 0 0 0 0 0 0 0 0 0 0 0 0 0 0 0 127 0" result="hardAlpha"/>
<feOffset dy="4"/>
<feGaussianBlur stdDeviation="2"/>
<feComposite in2="hardAlpha" operator="arithmetic" k2="-1" k3="1"/>
<feColorMatrix type="matrix" values="0 0 0 0 0 0 0 0 0 0 0 0 0 0 0 0 0 0 0.25 0"/>
<feBlend mode="normal" in2="shape" result="effect1_innerShadow_4220_35927"/>
</filter>
<filter id="filter2_d_4220_35927" x="11.0808" y="32.541" width="26.0541" height="15.6757" filterUnits="userSpaceOnUse" color-interpolation-filters="sRGB">
<feFlood flood-opacity="0" result="BackgroundImageFix"/>
<feColorMatrix in="SourceAlpha" type="matrix" values="0 0 0 0 0 0 0 0 0 0 0 0 0 0 0 0 0 0 127 0" result="hardAlpha"/>
<feOffset dy="2"/>
<feGaussianBlur stdDeviation="1"/>
<feComposite in2="hardAlpha" operator="out"/>
<feColorMatrix type="matrix" values="0 0 0 0 0 0 0 0 0 0 0 0 0 0 0 0 0 0 0.1 0"/>
<feBlend mode="normal" in2="BackgroundImageFix" result="effect1_dropShadow_4220_35927"/>
<feBlend mode="normal" in="SourceGraphic" in2="effect1_dropShadow_4220_35927" result="shape"/>
</filter>
<linearGradient id="paint0_linear_4220_35927" x1="23.9974" y1="4" x2="23.9974" y2="22" gradientUnits="userSpaceOnUse">
<stop stop-color="#51170B"/>
<stop offset="0.02" stop-color="#681E0D"/>
<stop offset="0.04" stop-color="#79230E"/>
<stop offset="0.06" stop-color="#83260F"/>
<stop offset="0.09" stop-color="#872710"/>
<stop offset="1" stop-color="#CE492E"/>
</linearGradient>
<linearGradient id="paint1_linear_4220_35927" x1="23.9969" y1="5" x2="23.9969" y2="8" gradientUnits="userSpaceOnUse">
<stop stop-color="white"/>
<stop offset="0.99" stop-color="#952E16"/>
</linearGradient>
<linearGradient id="paint2_linear_4220_35927" x1="24.0026" y1="40" x2="24.0026" y2="22" gradientUnits="userSpaceOnUse">
<stop stop-color="#51170B"/>
<stop offset="0.02" stop-color="#681E0D"/>
<stop offset="0.04" stop-color="#79230E"/>
<stop offset="0.06" stop-color="#83260F"/>
<stop offset="0.09" stop-color="#872710"/>
<stop offset="0.54" stop-color="#CD543A"/>
<stop offset="1" stop-color="#A73018"/>
</linearGradient>
<linearGradient id="paint3_linear_4220_35927" x1="30" y1="26" x2="9.04444" y2="30.025" gradientUnits="userSpaceOnUse">
<stop stop-color="#292727"/>
<stop offset="1" stop-color="#343434"/>
</linearGradient>
<linearGradient id="paint4_linear_4220_35927" x1="15.0268" y1="33.097" x2="20.0362" y2="50.0644" gradientUnits="userSpaceOnUse">
<stop stop-color="#C5C5C5"/>
<stop offset="0.222158" stop-color="white"/>
<stop offset="0.393464" stop-color="#EEEEEE"/>
<stop offset="1" stop-color="#999999"/>
</linearGradient>
<linearGradient id="paint5_linear_4220_35927" x1="15.9999" y1="35.0002" x2="32.9999" y2="35.0002" gradientUnits="userSpaceOnUse">
<stop/>
<stop offset="1" stop-color="#433423"/>
</linearGradient>
<linearGradient id="paint6_linear_4220_35927" x1="0" y1="1" x2="14" y2="1" gradientUnits="userSpaceOnUse">
<stop/>
<stop offset="1" stop-color="#433423"/>
</linearGradient>
</defs>
</svg>
