<svg width="48" height="48" viewBox="0 0 48 48" fill="none" xmlns="http://www.w3.org/2000/svg">
<path d="M7.71564 22.9473C7.28383 23.391 6 24.1248 6 24.9553V41.5511C6 42.902 6.74961 43.9999 7.67145 43.9999H40.118C41.0399 43.9999 41.7895 42.902 41.7895 41.5511V24.9553C41.7895 24.1248 40.5056 23.391 40.0738 22.9473C35.5301 27.4524 30.5066 30.1971 23.896 30.1971C17.2853 30.1971 12.2594 27.4524 7.71564 22.9473Z" fill="#333333"/>
<path d="M7.93475 21.8945C7.58749 21.8945 7.26401 22.6979 7 23C11.4525 27.933 17.3607 30.3156 23.8421 30.3156C30.3235 30.3156 36.2317 27.3103 40.6842 22.3772C40.4178 22.072 40.0967 21.8945 39.7495 21.8945H7.93475Z" fill="#808080"/>
<path d="M7.6732 22C7.27832 22.2603 7 22.8807 7 23.604V41.2629C7 42.2222 7.48765 43 8.09186 43H39.9081C40.5123 43 41 42.2222 41 41.2629V23.604C41 22.8807 40.7217 22.2633 40.3268 22C35.9356 26.473 30.236 29.1816 23.9988 29.1816C17.7616 29.1816 12.0621 26.473 7.6732 22Z" fill="url(#paint0_linear_16611_164613)"/>
<circle cx="37.579" cy="29.2636" r="1.05263" fill="#84B94C"/>
<circle cx="34.4213" cy="29.2636" r="1.05263" fill="#F2F2F2"/>
<g filter="url(#filter0_i_16611_164613)">
<path d="M38.6313 42.9473L9.15766 42.9473L9.15766 35.3683C9.15766 33.1592 10.9485 31.3683 13.1577 31.3683L34.6313 31.3683C36.8405 31.3683 38.6313 33.1592 38.6313 35.3683L38.6313 42.9473Z" fill="url(#paint1_linear_16611_164613)"/>
</g>
<g filter="url(#filter1_d_16611_164613)">
<path d="M11.2632 34H36.5263V38.3158C36.5263 39.4204 35.6309 40.3158 34.5263 40.3158H13.2632C12.1586 40.3158 11.2632 39.4204 11.2632 38.3158V34Z" fill="url(#paint2_linear_16611_164613)"/>
</g>
<path d="M7.48458 22.9473C7.33245 22.9473 7.18523 22.996 7.05273 23.0814C11.5822 27.5872 17.4613 30.3157 23.8948 30.3157C30.3284 30.3157 36.2074 27.5872 40.7369 23.0814C40.6044 22.996 40.4572 22.9473 40.3051 22.9473H7.48458Z" fill="#666666"/>
<path d="M7.43185 22.9473C7.27972 22.9473 7.1325 22.996 7 23.0814C11.5295 27.5872 17.4085 30.3157 23.8421 30.3157C30.2757 30.3157 36.1547 27.5872 40.6842 23.0814C40.5517 22.996 40.4045 22.9473 40.2524 22.9473H7.43185Z" fill="url(#paint3_linear_16611_164613)"/>
<path d="M37.8781 19.0176H9.91162V26.5664H37.8781V19.0176Z" fill="#666666"/>
<path d="M37.2957 26.5667H10.4937V14.1317L19.1356 4H36.3482C36.8704 4 37.2957 4.54512 37.2957 5.21866V26.5667Z" fill="url(#paint4_linear_16611_164613)"/>
<path fill-rule="evenodd" clip-rule="evenodd" d="M20 16C20 13.7909 21.7909 12 24 12V16H20Z" fill="#FED000"/>
<path fill-rule="evenodd" clip-rule="evenodd" d="M28 16C28 18.2091 26.2091 20 24 20L24 16L28 16Z" fill="#C80000"/>
<path fill-rule="evenodd" clip-rule="evenodd" d="M24 20C21.7909 20 20 18.2091 20 16L24 16L24 20Z" fill="#017A8D"/>
<path fill-rule="evenodd" clip-rule="evenodd" d="M24 12C26.2091 12 28 13.7909 28 16L24 16L24 12Z" fill="#61A600"/>
<path d="M24 10V22" stroke="black" stroke-linecap="round"/>
<path d="M30 16L18 16" stroke="black" stroke-linecap="round"/>
<path d="M18.719 8.61494C18.719 11.1607 18.6591 12.445 18.6591 12.445C18.5649 12.9873 18.1853 13.207 17.7772 13.1871C17.7772 13.1871 16.4929 13.1814 14.3695 13.3383C12.2689 13.4953 10.4966 13.989 10.4966 14.1289C10.4966 14.1289 12.58 11.0437 14.4522 8.86324C16.9752 5.92361 19.1357 4 19.1357 4C19.0672 4 18.719 6.07201 18.719 8.61494Z" fill="url(#paint5_linear_16611_164613)"/>
<defs>
<filter id="filter0_i_16611_164613" x="9.15771" y="31.3682" width="29.4736" height="15.5791" filterUnits="userSpaceOnUse" color-interpolation-filters="sRGB">
<feFlood flood-opacity="0" result="BackgroundImageFix"/>
<feBlend mode="normal" in="SourceGraphic" in2="BackgroundImageFix" result="shape"/>
<feColorMatrix in="SourceAlpha" type="matrix" values="0 0 0 0 0 0 0 0 0 0 0 0 0 0 0 0 0 0 127 0" result="hardAlpha"/>
<feOffset dy="4"/>
<feGaussianBlur stdDeviation="2"/>
<feComposite in2="hardAlpha" operator="arithmetic" k2="-1" k3="1"/>
<feColorMatrix type="matrix" values="0 0 0 0 0 0 0 0 0 0 0 0 0 0 0 0 0 0 0.25 0"/>
<feBlend mode="normal" in2="shape" result="effect1_innerShadow_16611_164613"/>
</filter>
<filter id="filter1_d_16611_164613" x="9.26318" y="34" width="29.2632" height="10.3154" filterUnits="userSpaceOnUse" color-interpolation-filters="sRGB">
<feFlood flood-opacity="0" result="BackgroundImageFix"/>
<feColorMatrix in="SourceAlpha" type="matrix" values="0 0 0 0 0 0 0 0 0 0 0 0 0 0 0 0 0 0 127 0" result="hardAlpha"/>
<feOffset dy="2"/>
<feGaussianBlur stdDeviation="1"/>
<feComposite in2="hardAlpha" operator="out"/>
<feColorMatrix type="matrix" values="0 0 0 0 0 0 0 0 0 0 0 0 0 0 0 0 0 0 0.1 0"/>
<feBlend mode="normal" in2="BackgroundImageFix" result="effect1_dropShadow_16611_164613"/>
<feBlend mode="normal" in="SourceGraphic" in2="effect1_dropShadow_16611_164613" result="shape"/>
</filter>
<linearGradient id="paint0_linear_16611_164613" x1="24.0022" y1="43" x2="24.0022" y2="22" gradientUnits="userSpaceOnUse">
<stop stop-color="#51170B"/>
<stop offset="0.02" stop-color="#681E0D"/>
<stop offset="0.04" stop-color="#79230E"/>
<stop offset="0.06" stop-color="#83260F"/>
<stop offset="0.09" stop-color="#872710"/>
<stop offset="0.54" stop-color="#CD543A"/>
<stop offset="1" stop-color="#A73018"/>
</linearGradient>
<linearGradient id="paint1_linear_16611_164613" x1="30.5007" y1="28.2104" x2="9.15135" y2="32.1696" gradientUnits="userSpaceOnUse">
<stop stop-color="#292727"/>
<stop offset="1" stop-color="#343434"/>
</linearGradient>
<linearGradient id="paint2_linear_16611_164613" x1="13.4923" y1="34.3008" x2="14.8569" y2="44.0888" gradientUnits="userSpaceOnUse">
<stop stop-color="#C5C5C5"/>
<stop offset="0.222158" stop-color="white"/>
<stop offset="0.393464" stop-color="#EEEEEE"/>
<stop offset="1" stop-color="#999999"/>
</linearGradient>
<linearGradient id="paint3_linear_16611_164613" x1="23.8399" y1="22.9473" x2="23.8399" y2="30.3157" gradientUnits="userSpaceOnUse">
<stop stop-color="#51170B"/>
<stop offset="0.02" stop-color="#681E0D"/>
<stop offset="0.04" stop-color="#79230E"/>
<stop offset="0.06" stop-color="#83260F"/>
<stop offset="0.09" stop-color="#872710"/>
<stop offset="1" stop-color="#CE492E"/>
</linearGradient>
<linearGradient id="paint4_linear_16611_164613" x1="23.8961" y1="24.2549" x2="23.8961" y2="6.95961" gradientUnits="userSpaceOnUse">
<stop stop-color="white"/>
<stop offset="1" stop-color="#8E8E8E"/>
</linearGradient>
<linearGradient id="paint5_linear_16611_164613" x1="14.4094" y1="8.6606" x2="18.562" y2="12.8132" gradientUnits="userSpaceOnUse">
<stop stop-color="#CCCCCC"/>
<stop offset="1" stop-color="white"/>
</linearGradient>
</defs>
</svg>
