<svg width="48" height="48" viewBox="0 0 48 48" fill="none" xmlns="http://www.w3.org/2000/svg">
<path d="M44 15.7726V14.2163C42.2882 14.2163 40.9 12.5465 40.9 10.4877L7.19429 10.4877C7.19429 12.5465 5.80602 14.2163 4.09425 14.2163C4.06368 14.2163 4.03057 14.2163 4 14.2163L4 15.7757C4.69286 15.7757 5.25326 16.4589 5.25326 17.2984C5.25326 18.1379 4.69286 18.8211 4 18.8211L4 20.2304C4.69286 20.2304 5.25326 20.9136 5.25326 21.7531C5.25326 22.5926 4.69286 23.2758 4 23.2758V24.6851C4.69286 24.6851 5.25326 25.3683 5.25326 26.2078C5.25326 27.0473 4.69286 27.7305 4 27.7305L4 29.1398C4.69286 29.1398 5.25326 29.823 5.25326 30.6625C5.25326 31.502 4.69286 32.1852 4 32.1852V33.7691C4.03057 33.7691 4.06368 33.7691 4.09425 33.7691C5.80602 33.7691 7.19429 35.4389 7.19429 37.4977C7.19429 37.6693 7.18411 37.8347 7.16627 38.0002L40.928 38.0002C40.9101 37.8347 40.9 37.6693 40.9 37.4977C40.9 35.4389 42.2882 33.7691 44 33.7691L44 32.1882C43.3071 32.1882 42.7467 31.505 42.7467 30.6656C42.7467 29.8261 43.3071 29.1429 44 29.1429V27.7335C43.3071 27.7335 42.7467 27.0503 42.7467 26.2109C42.7467 25.3714 43.3071 24.6882 44 24.6882V23.2788C43.3071 23.2788 42.7467 22.5956 42.7467 21.7562C42.7467 20.9167 43.3071 20.2335 44 20.2335V18.8241C43.3071 18.8241 42.7467 18.1409 42.7467 17.3015C42.7467 16.462 43.3071 15.7788 44 15.7788V15.7726Z" fill="#703E19"/>
<path d="M44 15.285V13.7286C42.2882 13.7286 40.9 12.0588 40.9 10L7.19429 10C7.19429 12.0588 5.80602 13.7286 4.09425 13.7286C4.06368 13.7286 4.03057 13.7286 4 13.7286L4 15.288C4.69286 15.288 5.25326 15.9713 5.25326 16.8107C5.25326 17.6502 4.69286 18.3334 4 18.3334L4 19.7427C4.69286 19.7427 5.25326 20.426 5.25326 21.2654C5.25326 22.1049 4.69286 22.7881 4 22.7881V24.1974C4.69286 24.1974 5.25326 24.8807 5.25326 25.7201C5.25326 26.5596 4.69286 27.2428 4 27.2428L4 28.6521C4.69286 28.6521 5.25326 29.3354 5.25326 30.1748C5.25326 31.0143 4.69286 31.6975 4 31.6975V33.2815C4.03057 33.2815 4.06368 33.2815 4.09425 33.2815C5.80602 33.2815 7.19429 34.9512 7.19429 37.0101C7.19429 37.1816 7.18411 37.3471 7.16627 37.5125L40.928 37.5125C40.9101 37.3471 40.9 37.1816 40.9 37.0101C40.9 34.9512 42.2882 33.2815 44 33.2815L44 31.7006C43.3071 31.7006 42.7467 31.0174 42.7467 30.1779C42.7467 29.3384 43.3071 28.6552 44 28.6552V27.2459C43.3071 27.2459 42.7467 26.5627 42.7467 25.7232C42.7467 24.8837 43.3071 24.2005 44 24.2005V22.7912C43.3071 22.7912 42.7467 22.108 42.7467 21.2685C42.7467 20.429 43.3071 19.7458 44 19.7458V18.3365C43.3071 18.3365 42.7467 17.6533 42.7467 16.8138C42.7467 15.9743 43.3071 15.2911 44 15.2911V15.285Z" fill="url(#paint0_linear_4220_40060)"/>
<path d="M32.25 30.6657V30.4414L32.027 30.4172L29.9015 30.1859L26.3726 24.6557C27.5878 24.1693 28.5271 23.4902 29.1738 22.6098C29.872 21.6592 30.2141 20.4942 30.2141 19.13C30.2141 17.3876 29.7501 16.0501 28.7747 15.1719C28.2338 14.6788 27.4341 14.3262 26.4038 14.0953C25.3703 13.8637 24.0846 13.75 22.5514 13.75H16.2349H16.0305L15.9899 13.9504C15.8496 14.6435 15.7684 15.21 15.7502 15.6453L15.7422 15.8369L15.9253 15.8943L17.9194 16.5189C17.9376 17.6349 17.9714 19.6828 18.0208 22.6627C18.0715 25.7181 18.114 28.3389 18.1482 30.5252C17.6937 30.6493 17.0119 30.9023 16.1128 31.2763L15.9313 31.3518L15.9618 31.546L16.1968 33.0389L16.23 33.25H16.4437H22.8907H23.0479L23.116 33.1083C23.5286 32.2502 23.741 31.426 23.741 30.6386V30.4154L23.5193 30.3902L21.8388 30.1987L21.9104 25.1343H22.3612L27.4035 33.1333L27.4771 33.25H27.615H31.3997H31.5522L31.622 33.1143C32.0381 32.3053 32.25 31.4883 32.25 30.6657ZM22.9385 22.0558L22.9376 22.0558L21.9142 22.0775C21.9162 20.8801 21.9324 19.1759 21.9627 16.9643H22.447C23.3424 16.9643 24.0426 17.0272 24.5552 17.1474C25.068 17.2726 25.4293 17.5015 25.6654 17.82C25.9031 18.1405 26.0338 18.5786 26.0338 19.1571C26.0338 20.3587 25.7352 21.0866 25.2258 21.4503C24.6889 21.8277 23.9349 22.0382 22.9385 22.0558Z" fill="url(#paint1_linear_4220_40060)" stroke="#FFF379" stroke-width="0.5"/>
<path d="M38.9821 35.8335H9.0031V35.6834C9.0031 33.7992 8.04022 32.4328 6.71564 32.4328H6.59082L6.59082 15.72H6.71564C8.17014 15.72 9.44633 14.2004 9.44633 12.4693V12.3192L38.5134 12.3192L38.5185 12.4632C38.5822 14.1973 39.8736 15.72 41.2848 15.72H41.4096V32.4328H41.2848C39.9501 32.4328 38.9821 33.7992 38.9821 35.6834V35.8335ZM9.25273 35.5333H38.7325C38.7579 34.6295 38.9999 33.7992 39.4228 33.1834C39.6495 32.8525 39.922 32.5951 40.2303 32.4144C40.5155 32.2489 40.8289 32.154 41.1575 32.1356V16.0172C40.8238 15.9988 40.4926 15.9038 40.1717 15.7353C39.8252 15.5515 39.5043 15.2941 39.2241 14.9663C38.9413 14.6354 38.7146 14.2586 38.5516 13.8388C38.3962 13.4467 38.3045 13.0392 38.2739 12.6225L9.69341 12.6225C9.67813 13.0453 9.59407 13.462 9.44378 13.8572C9.28585 14.277 9.06169 14.6569 8.77894 14.9847C8.24146 15.6066 7.54096 15.9804 6.84045 16.0202L6.84045 32.1386C7.16905 32.157 7.47982 32.252 7.76512 32.4174C8.07079 32.5951 8.34335 32.8556 8.56751 33.1864C8.98781 33.7992 9.22726 34.6295 9.25019 35.5363L9.25273 35.5333Z" fill="#FFF379"/>
<path d="M38.7554 35.5181H9.24509V35.368C9.24509 33.5757 8.11155 32.1173 6.71564 32.1173H6.59082L6.59082 15.4046H6.71564C8.109 15.4046 9.24509 13.9462 9.24509 12.1539V12.0038L38.7579 12.0038V12.1539C38.7579 13.9462 39.8915 15.4046 41.2874 15.4046H41.4122V32.1173H41.2874C39.894 32.1173 38.7579 33.5757 38.7579 35.368V35.5181H38.7554ZM9.49218 35.2179H38.5083C38.5363 34.3263 38.8216 33.496 39.3183 32.8618C39.815 32.2276 40.4646 31.86 41.16 31.8232V15.7048C40.4621 15.665 39.8125 15.3004 39.3183 14.6662C38.8242 14.032 38.5389 13.1986 38.5083 12.3102L9.49218 12.3102C9.46416 13.2017 9.17886 14.032 8.68214 14.6662C8.18542 15.3004 7.53586 15.668 6.84045 15.7048L6.84045 31.8232C7.53841 31.863 8.18797 32.2276 8.68214 32.8618C9.17631 33.496 9.46161 34.3294 9.49218 35.2179Z" fill="#703E19"/>
<defs>
<linearGradient id="paint0_linear_4220_40060" x1="3.54404" y1="23.7593" x2="44.4458" y2="23.7593" gradientUnits="userSpaceOnUse">
<stop offset="0.14" stop-color="#FED524"/>
<stop offset="0.42" stop-color="#FFD10F"/>
<stop offset="0.52" stop-color="#F3C62F"/>
<stop offset="0.53" stop-color="#F4CA40"/>
<stop offset="0.55" stop-color="#F8D76C"/>
<stop offset="0.57" stop-color="#FBE18E"/>
<stop offset="0.6" stop-color="#FDE9A7"/>
<stop offset="0.62" stop-color="#FEEDB6"/>
<stop offset="0.63" stop-color="#FFEFBC"/>
<stop offset="0.67" stop-color="#F8DF95"/>
<stop offset="0.74" stop-color="#EFC657"/>
<stop offset="0.78" stop-color="#E9B630"/>
<stop offset="0.81" stop-color="#E7B122"/>
</linearGradient>
<linearGradient id="paint1_linear_4220_40060" x1="24.0126" y1="-12.6531" x2="24.0126" y2="-12.6531" gradientUnits="userSpaceOnUse">
<stop offset="0.07" stop-color="#AC6D29"/>
<stop offset="0.41" stop-color="#7A491D"/>
<stop offset="0.8" stop-color="#492511"/>
<stop offset="1" stop-color="#36170D"/>
</linearGradient>
</defs>
</svg>
