<svg width="24" height="16" viewBox="0 0 24 16" fill="none" xmlns="http://www.w3.org/2000/svg">
<path d="M23.549 5.56744C23.6862 5.48755 23.8 5.37308 23.8792 5.23545C23.9583 5.09781 24 4.94183 24 4.78306V0.90747C24 0.788296 23.9765 0.670288 23.9309 0.560184C23.8853 0.45008 23.8185 0.350037 23.7342 0.265769C23.65 0.1815 23.5499 0.114657 23.4398 0.0690559C23.3297 0.0234549 23.2117 -1.04525e-05 23.0925 3.97437e-09H16.9411V1.51262C16.9411 1.75329 16.8455 1.98411 16.6753 2.1543C16.5051 2.32448 16.2743 2.42009 16.0336 2.42009C15.793 2.42009 15.5622 2.32448 15.392 2.1543C15.2218 1.98411 15.1262 1.75329 15.1262 1.51262V3.97437e-09H0.90747C0.788296 -1.11496e-05 0.670287 0.0234536 0.560183 0.0690543C0.450079 0.114655 0.350035 0.181498 0.265767 0.265767C0.181498 0.350035 0.114655 0.450078 0.0690544 0.560183C0.0234537 0.670287 -1.11496e-05 0.788296 3.97436e-09 0.90747V4.78306C1.95295e-05 4.94183 0.0416797 5.09781 0.120823 5.23545C0.199965 5.37308 0.313823 5.48755 0.451031 5.56744C0.830764 5.78276 1.14659 6.09495 1.3663 6.47216C1.58602 6.84937 1.70175 7.27811 1.7017 7.71464C1.70165 8.15117 1.58582 8.57988 1.36602 8.95704C1.14622 9.3342 0.83032 9.64632 0.450537 9.86156C0.313392 9.94146 0.19961 10.056 0.120552 10.1936C0.041495 10.3312 -7.0757e-05 10.4872 5.36923e-06 10.6459V14.521C-5.78423e-06 14.6402 0.0234588 14.7582 0.0690591 14.8683C0.114659 14.9784 0.181502 15.0785 0.26577 15.1627C0.350038 15.247 0.450081 15.3138 0.560185 15.3594C0.670288 15.405 0.788296 15.4285 0.90747 15.4285H15.1262V13.9159C15.1262 13.6752 15.2218 13.4444 15.392 13.2742C15.5622 13.104 15.793 13.0084 16.0336 13.0084C16.2743 13.0084 16.5051 13.104 16.6753 13.2742C16.8455 13.4444 16.9411 13.6752 16.9411 13.9159V15.4285H23.0925C23.2117 15.4285 23.3297 15.405 23.4398 15.3594C23.5499 15.3138 23.65 15.247 23.7342 15.1627C23.8185 15.0785 23.8853 14.9784 23.9309 14.8683C23.9765 14.7582 24 14.6402 24 14.521V10.6459C24 10.4872 23.9583 10.3312 23.8792 10.1935C23.8 10.0559 23.6862 9.94144 23.549 9.86156C23.1693 9.64622 22.8535 9.33405 22.6338 8.95687C22.4141 8.5797 22.2983 8.151 22.2983 7.71449C22.2983 7.27799 22.4141 6.84929 22.6338 6.47212C22.8535 6.09494 23.1693 5.78277 23.549 5.56744ZM16.9411 10.7899C16.9411 11.0306 16.8455 11.2614 16.6753 11.4316C16.5051 11.6018 16.2743 11.6974 16.0336 11.6974C15.793 11.6974 15.5621 11.6018 15.392 11.4316C15.2218 11.2614 15.1262 11.0306 15.1262 10.7899V9.27733C15.1262 9.03665 15.2218 8.80584 15.392 8.63565C15.5621 8.46547 15.793 8.36986 16.0336 8.36986C16.2743 8.36986 16.5051 8.46547 16.6753 8.63565C16.8455 8.80584 16.9411 9.03665 16.9411 9.27733V10.7899ZM16.9411 6.15116C16.9411 6.39183 16.8455 6.62265 16.6753 6.79284C16.5051 6.96302 16.2743 7.05863 16.0336 7.05863C15.793 7.05863 15.5621 6.96302 15.392 6.79284C15.2218 6.62265 15.1262 6.39183 15.1262 6.15116V4.63854C15.1262 4.39786 15.2218 4.16705 15.392 3.99686C15.5621 3.82668 15.793 3.73107 16.0336 3.73107C16.2743 3.73107 16.5051 3.82668 16.6753 3.99686C16.8455 4.16705 16.9411 4.39786 16.9411 4.63854V6.15116Z" fill="white"/>
</svg>
