<svg width="48" height="48" viewBox="0 0 48 48" fill="none" xmlns="http://www.w3.org/2000/svg">
<g style="mix-blend-mode:multiply">
<path d="M43.416 13.7438C43.416 17.0252 40.7109 19.6864 37.3723 19.6864C34.0338 19.6864 31.3286 17.0263 31.3286 13.7438C31.3286 10.4613 34.0349 7.80127 37.3723 7.80127C40.7098 7.80127 43.416 10.4613 43.416 13.7438Z" fill="#ABBBC2"/>
</g>
<path d="M43.8947 40.7368H24V45.1579H43.8947V40.7368Z" fill="#FFD740"/>
<path d="M33.9474 40.7368H24V45.1579H33.9474V40.7368Z" fill="#FFE57F"/>
<path d="M43.8947 44.0527H24V45.1579H43.8947V44.0527Z" fill="#FFC400"/>
<path d="M26.2105 40.7369H25.1053V44.0527H26.2105V40.7369Z" fill="white"/>
<path d="M37.2632 40.7369H36.1579V44.0527H37.2632V40.7369Z" fill="#FFC400"/>
<path d="M39.4737 40.7369H38.3684V44.0527H39.4737V40.7369Z" fill="#FFC400"/>
<path d="M41.6842 40.7369H40.5789V44.0527H41.6842V40.7369Z" fill="#FFC400"/>
<path d="M43.8947 40.7368L42.7895 40.7369V44.0527H43.8947V40.7368Z" fill="#FFC400"/>
<path d="M42.7895 36.3158H22.8947V40.7368L42.7895 40.7369V36.3158Z" fill="#FFD740"/>
<path d="M32.8421 36.3158H22.8947V40.7368H32.8421V36.3158Z" fill="#FFE57F"/>
<path d="M42.7897 39.6314H22.8949L22.8947 40.7368L42.7895 40.7369L42.7897 39.6314Z" fill="#FFC400"/>
<path d="M25.1055 36.3157H24.0002V39.6314H25.1055V36.3157Z" fill="white"/>
<path d="M36.1581 36.3157H35.0528V39.6314H36.1581V36.3157Z" fill="#FFC400"/>
<path d="M38.3686 36.3157H37.2634V39.6314H38.3686V36.3157Z" fill="#FFC400"/>
<path d="M40.5792 36.3157H39.4739V39.6314H40.5792V36.3157Z" fill="#FFC400"/>
<path d="M42.7895 36.3158L41.6844 36.3157V39.6314H42.7897L42.7895 36.3158Z" fill="#FFC400"/>
<path d="M24 31.8947H4.10526V36.3158L24.0002 36.3157L24 31.8947Z" fill="#FFD740"/>
<path d="M14.0526 31.8947H4.10526V36.3158H14.0526V31.8947Z" fill="#FFE57F"/>
<path d="M23.9998 35.2107H4.10506L4.10526 36.3158L24.0002 36.3157L23.9998 35.2107Z" fill="#FFC400"/>
<path d="M6.31558 31.8949H5.21032V35.2107H6.31558V31.8949Z" fill="white"/>
<path d="M17.3682 31.8949H16.263V35.2107H17.3682V31.8949Z" fill="#FFC400"/>
<path d="M19.5787 31.8949H18.4735V35.2107H19.5787V31.8949Z" fill="#FFC400"/>
<path d="M21.7893 31.8949H20.684V35.2107H21.7893V31.8949Z" fill="#FFC400"/>
<path d="M24 31.8947L22.8945 31.8949V35.2107H23.9998L24 31.8947Z" fill="#FFC400"/>
<path d="M28.4088 33.0124C24.7471 29.3496 24.7471 23.3889 28.4088 19.7261C32.0717 16.0643 38.0324 16.0643 41.6952 19.7261C45.357 23.3889 45.357 29.3496 41.6952 33.0124C38.0324 36.6742 32.0728 36.6742 28.4088 33.0124Z" fill="#FFD740"/>
<path d="M35.0526 17.5263C39.9279 17.5263 43.8947 21.4931 43.8947 26.3684C43.8947 31.2437 39.9279 35.2105 35.0526 35.2105C30.1773 35.2105 26.2105 31.2437 26.2105 26.3684C26.2105 21.4931 30.1773 17.5263 35.0526 17.5263ZM35.0526 16.4211C29.5584 16.4211 25.1053 20.8753 25.1053 26.3684C25.1053 31.8616 29.5586 36.3157 35.0528 36.3157C40.5471 36.3157 45 31.8616 45 26.3684C45 20.8753 40.5469 16.4211 35.0526 16.4211Z" fill="#FDD835"/>
<path d="M27.4627 31.4118C25.9518 27.8927 26.6161 23.665 29.4909 20.7914C32.5126 17.7696 37.0365 17.1849 40.654 19.0163C40.654 18.9135 40.6551 18.8107 40.6617 18.7079C36.9447 16.4311 32.0263 16.8931 28.8078 20.1105C25.7363 23.182 25.1704 27.8109 27.1068 31.4583C27.224 31.4373 27.3422 31.4196 27.4627 31.4118Z" fill="white"/>
<path d="M35.0523 33.553C31.091 33.553 27.8681 30.3301 27.8681 26.3688C27.8681 22.4075 31.091 19.1846 35.0523 19.1846C39.0136 19.1846 42.2365 22.4075 42.2365 26.3688C42.2365 30.3301 39.0136 33.553 35.0523 33.553Z" fill="#FFE57F"/>
<path d="M35.0524 19.737C38.7097 19.737 41.684 22.7113 41.684 26.3686C41.684 30.0259 38.7097 33.0002 35.0524 33.0002C31.3951 33.0002 28.4208 30.0259 28.4208 26.3686C28.4208 22.7113 31.3951 19.737 35.0524 19.737ZM35.0524 18.6317C30.7806 18.6317 27.3156 22.0989 27.3156 26.3686C27.3156 30.6382 30.7806 34.1054 35.0524 34.1054C39.3243 34.1054 42.7893 30.6382 42.7893 26.3686C42.7893 22.0989 39.3243 18.6317 35.0524 18.6317Z" fill="#FFC400"/>
<path d="M35.0524 23.0528C35.8471 23.0528 36.1577 23.6286 36.1577 24.158H38.3682C38.3682 23.2584 37.6233 22.3686 36.1577 22.0647V20.8423H33.9472V22.0492C32.4816 22.3145 31.7366 23.1644 31.7366 24.7107C31.7366 26.1619 32.8762 27.4738 35.0524 27.4738C35.6902 27.4738 36.1577 27.9579 36.1577 28.5791C36.1577 29.2367 35.7885 29.6844 35.0524 29.6844C34.3163 29.6844 33.9472 29.2787 33.9472 28.5791H31.7366C31.7366 29.9552 32.4926 30.5465 33.9472 30.7233V31.8949H36.1577V30.7067C37.6233 30.4857 38.3958 29.7407 38.3682 28.0265C38.3682 26.5067 37.263 25.2644 35.0524 25.2644C34.4302 25.2644 33.9472 24.9185 33.9472 24.158C33.9472 23.5855 34.2577 23.0528 35.0524 23.0528Z" fill="#FFAB00"/>
<path d="M35.0526 17.5263C39.9279 17.5263 43.8947 21.4931 43.8947 26.3684C43.8947 31.2437 39.9279 35.2105 35.0526 35.2105C30.1773 35.2105 26.2105 31.2437 26.2105 26.3684C26.2105 21.4931 30.1773 17.5263 35.0526 17.5263ZM35.0526 16.4211C29.5584 16.4211 25.1053 20.8753 25.1053 26.3684C25.1053 31.8616 29.5586 36.3157 35.0528 36.3157C40.5471 36.3157 45 31.8616 45 26.3684C45 20.8753 40.5469 16.4211 35.0526 16.4211Z" fill="#FFC400"/>
<path d="M24 40.7368H4.10526V45.1579H24V40.7368Z" fill="#FFD740"/>
<path d="M14.0526 40.7368H4.10526V45.1579H14.0526V40.7368Z" fill="#FFE57F"/>
<path d="M24 44.0527H4.10506L4.10526 45.1579H24V44.0527Z" fill="#FFC400"/>
<path d="M6.31558 40.7369H5.21032V44.0527H6.31558V40.7369Z" fill="white"/>
<path d="M17.3682 40.7369H16.263V44.0527H17.3682V40.7369Z" fill="#FFC400"/>
<path d="M19.5787 40.7369H18.4735V44.0527H19.5787V40.7369Z" fill="#FFC400"/>
<path d="M21.7893 40.7369H20.684V44.0527H21.7893V40.7369Z" fill="#FFC400"/>
<path d="M24 40.7368H22.8947L22.8945 44.0527H24V40.7368Z" fill="#FFC400"/>
<path d="M22.8947 36.3158H3V40.7368H22.8947V36.3158Z" fill="#FFD740"/>
<path d="M12.9474 36.3158H3V40.7368H12.9474V36.3158Z" fill="#FFE57F"/>
<path d="M22.8949 39.6314H3V40.7368H22.8947L22.8949 39.6314Z" fill="#FFC400"/>
<path d="M5.21053 36.3157L4.10526 36.3158V39.6314H5.21053V36.3157Z" fill="white"/>
<path d="M16.2632 36.3157H15.1579V39.6314H16.2632V36.3157Z" fill="#FFC400"/>
<path d="M18.4737 36.3157H17.3684V39.6314H18.4737V36.3157Z" fill="#FFC400"/>
<path d="M20.6842 36.3157H19.5789V39.6314H20.6842V36.3157Z" fill="#FFC400"/>
<path d="M22.8947 36.3158L21.7895 36.3157V39.6314H22.8949L22.8947 36.3158Z" fill="#FFC400"/>
<path d="M7.40885 28.5912C3.74711 24.9284 3.74711 18.9677 7.40885 15.3049C11.0717 11.6431 17.0324 11.6431 20.6952 15.3049C24.357 18.9677 24.357 24.9284 20.6952 28.5912C17.0324 32.253 11.0728 32.253 7.40885 28.5912Z" fill="#FFD740"/>
<path d="M14.0526 13.1053C18.9279 13.1053 22.8947 17.0721 22.8947 21.9474C22.8947 26.8227 18.9279 30.7895 14.0526 30.7895C9.17732 30.7895 5.21053 26.8227 5.21053 21.9474C5.21053 17.0721 9.17732 13.1053 14.0526 13.1053ZM14.0526 12C8.55837 12 4.10526 16.4542 4.10526 21.9474C4.10526 27.4405 8.55837 31.8947 14.0526 31.8947C19.5469 31.8947 24 27.4405 24 21.9474C24 16.4542 19.5469 12 14.0526 12Z" fill="#FDD835"/>
<path d="M6.4638 26.9907C4.9518 23.4704 5.61606 19.2428 8.49085 16.3691C11.5126 13.3473 16.0365 12.7626 19.6551 14.594C19.654 14.4912 19.6551 14.3884 19.6629 14.2857C15.9447 12.0088 11.0263 12.4708 7.8078 15.6882C4.73627 18.7598 4.17038 23.3886 6.1068 27.036C6.22396 27.0161 6.34333 26.9984 6.4638 26.9907Z" fill="white"/>
<path d="M14.0523 29.1317C10.091 29.1317 6.86809 25.9087 6.86809 21.9474C6.86809 17.9862 10.091 14.7632 14.0523 14.7632C18.0136 14.7632 21.2365 17.9862 21.2365 21.9474C21.2365 25.9087 18.0136 29.1317 14.0523 29.1317Z" fill="#FFE57F"/>
<path d="M14.0524 15.3158C17.7097 15.3158 20.684 18.2901 20.684 21.9474C20.684 25.6047 17.7097 28.5789 14.0524 28.5789C10.3951 28.5789 7.42085 25.6047 7.42085 21.9474C7.42085 18.2901 10.3951 15.3158 14.0524 15.3158ZM14.0524 14.2105C9.78058 14.2105 6.31558 17.6777 6.31558 21.9474C6.31558 26.217 9.78058 29.6842 14.0524 29.6842C18.3243 29.6842 21.7893 26.217 21.7893 21.9474C21.7893 17.6777 18.3243 14.2105 14.0524 14.2105Z" fill="#FFC400"/>
<path d="M14.0524 18.6316C14.8471 18.6316 15.1577 19.2074 15.1577 19.7368H17.3682C17.3682 18.8372 16.6233 17.9474 15.1577 17.6435V16.4211H12.9472V17.628C11.4816 17.8933 10.7366 18.7432 10.7366 20.2895C10.7366 21.7407 11.8762 23.0526 14.0524 23.0526C14.6902 23.0526 15.1577 23.5367 15.1577 24.1579C15.1577 24.8155 14.7885 25.2632 14.0524 25.2632C13.3163 25.2632 12.9472 24.8575 12.9472 24.1579H10.7366C10.7366 25.5339 11.4926 26.1253 12.9472 26.3021V27.4737H15.1577V26.2855C16.6233 26.0645 17.3958 25.3195 17.3682 23.6053C17.3682 22.0855 16.263 20.8432 14.0524 20.8432C13.4302 20.8432 12.9472 20.4973 12.9472 19.7368C12.9472 19.1643 13.2577 18.6316 14.0524 18.6316Z" fill="#FFAB00"/>
<path d="M14.0526 13.1053C18.9279 13.1053 22.8947 17.0721 22.8947 21.9474C22.8947 26.8227 18.9279 30.7895 14.0526 30.7895C9.17732 30.7895 5.21053 26.8227 5.21053 21.9474C5.21053 17.0721 9.17732 13.1053 14.0526 13.1053ZM14.0526 12C8.55837 12 4.10526 16.4542 4.10526 21.9474C4.10526 27.4405 8.55837 31.8947 14.0526 31.8947C19.5469 31.8947 24 27.4405 24 21.9474C24 16.4542 19.5469 12 14.0526 12Z" fill="#FFC400"/>
<path d="M34.9753 2C29.7284 2 25.4746 6.25382 25.4746 11.4993C25.4746 16.7447 29.7284 21 34.9753 21C40.2222 21 44.4746 16.7462 44.4746 11.4993C44.4746 6.25237 40.2208 2 34.9753 2Z" fill="url(#paint0_linear_3732_85855)"/>
<path d="M35.9756 5.93761H33.3504V9.87581H29.4122V12.5011H33.3504V16.4386H35.9756V12.5011H39.9132V9.87581L35.9756 9.87581V5.93761Z" fill="url(#paint1_linear_3732_85855)"/>
<defs>
<linearGradient id="paint0_linear_3732_85855" x1="4.05021" y1="6.49561" x2="50.0155" y2="19.9179" gradientUnits="userSpaceOnUse">
<stop stop-color="#139727"/>
<stop offset="0.42" stop-color="#1DA43A"/>
<stop offset="1" stop-color="#0E5F24"/>
</linearGradient>
<linearGradient id="paint1_linear_3732_85855" x1="30.3387" y1="6.43755" x2="37.3959" y2="19.0924" gradientUnits="userSpaceOnUse">
<stop offset="0.185" stop-color="#C5C5C5"/>
<stop offset="0.38" stop-color="white"/>
<stop offset="0.665" stop-color="#EEEEEE"/>
<stop offset="1" stop-color="#999999"/>
</linearGradient>
</defs>
</svg>
