<svg width="48" height="48" viewBox="0 0 48 48" fill="none" xmlns="http://www.w3.org/2000/svg">
<path d="M10.3441 4H37.718C38.9751 4 40.0001 5.0036 40.0001 6.23454V41.7655C40.0001 42.9964 38.9751 44 37.718 44H10.3441C9.08697 44 8.06201 42.9964 8.06201 41.7655V6.23454C8.06201 5.0036 9.08697 4 10.3441 4Z" fill="url(#paint0_linear_4220_51534)"/>
<path d="M39.1907 8.36356L8.62305 8.18059V6.91638C8.62305 5.76307 9.60271 4.83154 10.8089 4.83154H37.0105C38.2167 4.83154 39.1964 5.76861 39.1964 6.91638V8.35802L39.1907 8.36356Z" fill="url(#paint1_linear_4220_51534)"/>
<path d="M23.7199 25.9298C37.6843 25.8411 39.9381 27.5711 39.9381 27.5711V41.7601C39.9381 42.9966 38.9188 43.9947 37.656 43.9947H10.2821C9.0193 43.9947 8 42.9966 8 41.7601V27.2051C8 27.2051 9.75546 26.013 23.7199 25.9298Z" fill="url(#paint2_linear_4220_51534)"/>
<path d="M28.6408 9.69482H10.8823V16.8143H28.6408V9.69482Z" fill="url(#paint3_linear_4220_51534)"/>
<path d="M28.6408 15.6829H10.8823V16.7863H28.6408V15.6829Z" fill="url(#paint4_linear_4220_51534)"/>
<path d="M37.1746 19.5586H10.8823V21.3274H37.1746V19.5586Z" fill="url(#paint5_linear_4220_51534)"/>
<path d="M37.1746 23.3457H10.8823V25.1145H37.1746V23.3457Z" fill="url(#paint6_linear_4220_51534)"/>
<path d="M37.1746 27.1329H10.8823V28.9017H37.1746V27.1329Z" fill="url(#paint7_linear_4220_51534)"/>
<path d="M37.1746 30.9196H10.8823V32.6883H37.1746V30.9196Z" fill="url(#paint8_linear_4220_51534)"/>
<path d="M37.1746 34.7068H10.8823V36.4756H37.1746V34.7068Z" fill="url(#paint9_linear_4220_51534)"/>
<path d="M29.5242 38.4994H10.8823V40.2682H29.5242V38.4994Z" fill="url(#paint10_linear_4220_51534)"/>
<path d="M33.4028 17.0248C33.4028 16.9805 33.3745 16.9638 33.3462 16.9638C32.6043 16.8807 31.7209 16.6644 31.4321 16.5868C31.2509 16.3484 31.1094 15.4002 31.0811 14.9788C31.098 14.9344 31.5058 14.8513 31.5964 14.8568C32.106 16.1099 32.6949 16.3373 33.4368 16.4814C33.4651 16.4925 33.4991 16.4814 33.5104 16.4593L33.8445 14.4077C33.8162 14.3467 33.8049 14.3356 33.7709 14.3245C32.3948 13.6481 31.4944 13.1546 31.5284 12.0234C31.5681 10.8369 32.7459 10.1382 34.4391 10.1604C34.4674 10.1604 34.4957 10.1604 34.5127 10.1382L34.6429 9.33976C34.7335 9.29541 35.1243 9.26214 35.2262 9.27877L35.079 10.1382C35.079 10.1826 35.1356 10.1881 35.1526 10.1881C35.515 10.2214 35.9341 10.2935 36.3135 10.3545C36.6193 10.3988 36.925 10.4321 37.0949 10.4487C36.9477 10.9089 36.8288 11.4412 36.7382 11.9735C36.7099 12.0068 36.2568 12.0179 36.2285 11.9791C36.1719 11.0919 35.951 10.7592 35.0507 10.6151C35.0337 10.6151 35.0054 10.6151 34.994 10.6483L34.6769 12.7221C34.6882 12.7942 34.7166 12.7942 34.7449 12.8052C36.0077 13.3708 37.2308 13.8532 37.1912 15.0509C37.1516 16.2596 35.9567 16.9361 34.0597 16.9749C34.0314 16.9749 34.003 16.986 33.9861 17.0193L33.8558 17.8399C33.7822 17.8843 33.3575 17.9175 33.2726 17.8898L33.4028 17.0193V17.0248ZM34.0653 12.5502C34.0653 12.5502 34.1106 12.5724 34.139 12.528L34.4221 10.6151C34.4108 10.5818 34.3938 10.5818 34.3655 10.5762C33.5614 10.6428 33.1819 11.0032 33.165 11.5133C33.148 11.9458 33.4764 12.2563 34.0597 12.5446L34.0653 12.5502ZM34.0653 16.4759C34.0653 16.4759 34.105 16.5258 34.122 16.5258C34.6599 16.5313 35.3395 16.2985 35.3621 15.6553C35.3791 15.1451 35.079 14.9012 34.4221 14.5629C34.3938 14.5519 34.3598 14.5851 34.3598 14.5962L34.0653 16.4759Z" fill="url(#paint11_linear_4220_51534)"/>
<defs>
<linearGradient id="paint0_linear_4220_51534" x1="24.031" y1="44" x2="24.031" y2="4" gradientUnits="userSpaceOnUse">
<stop stop-color="#F0C01A"/>
<stop offset="0.99" stop-color="#FFD61F"/>
</linearGradient>
<linearGradient id="paint1_linear_4220_51534" x1="23.9069" y1="4.83154" x2="23.9069" y2="8.36356" gradientUnits="userSpaceOnUse">
<stop stop-color="white"/>
<stop offset="0.99" stop-color="#FFD61F"/>
</linearGradient>
<linearGradient id="paint2_linear_4220_51534" x1="23.969" y1="44.0002" x2="23.969" y2="25.9298" gradientUnits="userSpaceOnUse">
<stop stop-color="#A89400"/>
<stop offset="0.99" stop-color="#FFD61F"/>
</linearGradient>
<linearGradient id="paint3_linear_4220_51534" x1="19.7616" y1="9.69482" x2="19.7616" y2="16.8199" gradientUnits="userSpaceOnUse">
<stop stop-color="#5F3600"/>
<stop offset="1" stop-color="#5F3600"/>
</linearGradient>
<linearGradient id="paint4_linear_4220_51534" x1="19.7616" y1="15.6829" x2="19.7616" y2="16.7863" gradientUnits="userSpaceOnUse">
<stop stop-color="white"/>
<stop offset="0.99" stop-color="#FFD61F"/>
</linearGradient>
<linearGradient id="paint5_linear_4220_51534" x1="24.0256" y1="19.5586" x2="24.0256" y2="21.3274" gradientUnits="userSpaceOnUse">
<stop stop-color="#5F3600"/>
<stop offset="1" stop-color="#5F3600"/>
</linearGradient>
<linearGradient id="paint6_linear_4220_51534" x1="24.0256" y1="23.3457" x2="24.0256" y2="25.1145" gradientUnits="userSpaceOnUse">
<stop stop-color="#5F3600"/>
<stop offset="1" stop-color="#5F3600"/>
</linearGradient>
<linearGradient id="paint7_linear_4220_51534" x1="24.0256" y1="27.1329" x2="24.0256" y2="28.9017" gradientUnits="userSpaceOnUse">
<stop stop-color="#5F3600"/>
<stop offset="1" stop-color="#5F3600"/>
</linearGradient>
<linearGradient id="paint8_linear_4220_51534" x1="24.0256" y1="30.9196" x2="24.0256" y2="32.6883" gradientUnits="userSpaceOnUse">
<stop stop-color="#5F3600"/>
<stop offset="1" stop-color="#5F3600"/>
</linearGradient>
<linearGradient id="paint9_linear_4220_51534" x1="24.0256" y1="34.7068" x2="24.0256" y2="36.4756" gradientUnits="userSpaceOnUse">
<stop stop-color="#5F3600"/>
<stop offset="1" stop-color="#5F3600"/>
</linearGradient>
<linearGradient id="paint10_linear_4220_51534" x1="20.2033" y1="38.4994" x2="20.2033" y2="40.2626" gradientUnits="userSpaceOnUse">
<stop stop-color="#5F3600"/>
<stop offset="1" stop-color="#5F3600"/>
</linearGradient>
<linearGradient id="paint11_linear_4220_51534" x1="30.8343" y1="14.4178" x2="37.6681" y2="12.6971" gradientUnits="userSpaceOnUse">
<stop stop-color="#5F3600"/>
<stop offset="1" stop-color="#5F3600"/>
</linearGradient>
</defs>
</svg>
