<svg width="20" height="20" viewBox="0 0 20 20" fill="none" xmlns="http://www.w3.org/2000/svg">
<path fill-rule="evenodd" clip-rule="evenodd" d="M14.5577 6.61368L13.8302 7.75272C13.9844 8.05053 14.1074 8.36563 14.1975 8.69379L15.4693 8.95292V11.0461L14.1985 11.3043C14.1105 11.6301 13.9872 11.9464 13.8302 12.2486L14.5578 13.3874L13.1639 14.8685L12.0919 14.0956C11.8077 14.2622 11.5101 14.3934 11.2034 14.4871L10.9601 15.8371H8.98974L8.7463 14.4858C8.43745 14.3902 8.14088 14.2594 7.86044 14.0952L6.78841 14.8685L5.3945 13.3874L6.12216 12.2486C5.96514 11.9464 5.84187 11.6301 5.75381 11.3043L4.48303 11.0461V8.95292L5.75485 8.69379C5.84498 8.36563 5.96795 8.05053 6.12216 7.75272L5.39464 6.61368L6.78841 5.13281L7.86044 5.90579C8.14073 5.74195 8.4373 5.61129 8.7463 5.51553L8.98974 4.16406H10.9601L11.2034 5.51427C11.5101 5.60798 11.8077 5.73912 12.0919 5.90579L13.1639 5.13281L14.5577 6.61368ZM11.8811 9.52351C12.1292 10.6403 11.4783 11.7595 10.4271 12.0231C9.37597 12.2867 8.32269 11.5951 8.07456 10.4783C7.82642 9.36143 8.47739 8.24233 9.52853 7.97868C10.5797 7.71503 11.633 8.40668 11.8811 9.52351Z" fill="white"/>
<path d="M11.3358 17.9396C10.8903 18.0233 10.4357 18.0684 9.978 18.0684C5.83488 18.0684 2.46461 14.4875 2.46461 10.0854C2.46461 8.04702 3.18595 6.1052 4.50131 4.62068L3.5648 3.68359C2.02514 5.42574 1.17651 7.696 1.17651 10.0854C1.17651 15.2411 5.12566 19.437 9.978 19.437C10.5114 19.437 11.0479 19.3855 11.5661 19.2825L11.6904 20.0006L14.209 17.9911L11.1843 17.0605L11.3358 17.9396Z" fill="white"/>
<path d="M9.97658 0.735481C9.58378 0.735481 9.18778 0.762822 8.80142 0.817578L8.70161 0L6.09375 1.87802L9.06865 2.96925L8.97206 2.17563C9.30367 2.12775 9.64171 2.10381 9.97658 2.10381C14.1202 2.10381 17.4879 5.68537 17.4879 10.0845C17.4879 11.8907 16.9373 13.5909 15.8909 15.0071L16.9051 15.852C18.1286 14.1929 18.7757 12.1986 18.7757 10.0845C18.7757 4.92938 14.8285 0.735481 9.97658 0.735481Z" fill="white"/>
</svg>
