<svg width="23" height="22" viewBox="0 0 23 22" fill="none" xmlns="http://www.w3.org/2000/svg">
<path fill-rule="evenodd" clip-rule="evenodd" d="M20.614 4.61675L19.2542 6.76346C19.5424 7.32474 19.7723 7.91861 19.9408 8.53708L22.3179 9.02546V12.9704L19.9427 13.457C19.7781 14.071 19.5477 14.6673 19.2542 15.2368L20.6143 17.383L18.0089 20.1745L16.0052 18.7177C15.4741 19.0318 14.9179 19.279 14.3444 19.4556L13.8897 22H10.207L9.75194 19.4532C9.17466 19.273 8.62034 19.0265 8.09617 18.7171L6.09243 20.1745L3.48707 17.383L4.84715 15.2368C4.55367 14.6673 4.32325 14.071 4.15867 13.457L1.78345 12.9704V9.02546L4.16061 8.53708C4.32906 7.91861 4.55892 7.32474 4.84715 6.76346L3.48734 4.61675L6.09243 1.82578L8.09617 3.28261C8.62006 2.97381 9.17439 2.72756 9.75194 2.54708L10.207 0H13.8897L14.3444 2.54471C14.9179 2.72133 15.4741 2.96848 16.0052 3.28261L18.0089 1.82578L20.614 4.61675ZM15.6112 10.1009C16.075 12.2057 14.8583 14.3149 12.8936 14.8118C10.9289 15.3087 8.96018 14.0051 8.49638 11.9002C8.03259 9.79537 9.24931 7.68622 11.214 7.18933C13.1787 6.69244 15.1474 7.99597 15.6112 10.1009Z" fill="white"/>
</svg>
