<svg width="48" height="48" viewBox="0 0 48 48" fill="none" xmlns="http://www.w3.org/2000/svg">
<path d="M42.4404 13H5.55957C4.69799 13 4 13.7416 4 14.6577V40.3525C4 41.265 4.69799 42.0066 5.55957 42.0066H42.4404C43.302 42.0066 44 41.265 44 40.3525V14.6577C44 13.7416 43.302 13 42.4404 13Z" fill="url(#paint0_linear_4220_63562)"/>
<path d="M43.5203 14.2432C43.5566 14.3195 43.593 14.3995 43.6148 14.4867L27.7355 28.243C25.8124 29.908 22.6823 29.9189 20.7447 28.2648L4.42547 14.3413C4.3564 14.5158 4.31641 14.7049 4.31641 14.9048V40.2724C4.31641 41.0722 4.93078 41.7229 5.69058 41.7229H42.306C43.0658 41.7229 43.6802 41.0722 43.6802 40.2724V14.9084C43.6802 14.6685 43.6184 14.4431 43.5203 14.2432Z" fill="url(#paint1_linear_4220_63562)"/>
<path d="M42.9782 13.8032C43.0146 13.8796 43.0473 13.9632 43.0691 14.0468L27.6297 27.8321C25.7611 29.5008 22.7183 29.5117 20.8352 27.8539L4.96675 13.9014C4.89768 14.0759 4.86133 14.2649 4.86133 14.4685V39.8834C4.86133 40.6868 5.45753 41.3375 6.19551 41.3375H41.8003C42.5383 41.3375 43.1345 40.6868 43.1345 39.8834V14.4685C43.1345 14.2286 43.0764 14.0032 42.9782 13.8032Z" fill="url(#paint2_linear_4220_63562)"/>
<path d="M13.0593 27.3452L5.06152 41.5522C5.25056 41.6576 5.46141 41.7194 5.69044 41.7194H42.3059C42.5204 41.7194 42.724 41.6613 42.9057 41.5704L32.8903 23.7789L27.7353 28.2431C25.8122 29.9081 22.6822 29.919 20.7445 28.2649L15.2188 23.5535L13.0557 27.3488L13.0593 27.3452Z" fill="url(#paint3_linear_4220_63562)"/>
<path d="M13.3974 27.5086L5.65039 41.2758C5.83579 41.3776 6.03938 41.4394 6.26113 41.4394H41.7387C41.9496 41.4394 42.1423 41.3849 42.3168 41.294L32.6139 24.055L27.7353 27.9667C25.874 29.5808 22.8203 29.7989 20.9408 28.1994L15.4913 23.8369L13.3974 27.5159V27.5086Z" fill="url(#paint4_linear_4220_63562)"/>
<path d="M14.9531 24.7823C14.9531 24.7823 15.7856 25.7821 17.018 27.0108C18.8248 28.814 20.6498 31.3405 24.2379 31.4023C27.357 31.4569 28.9711 29.232 30.7234 27.5343C32.1521 26.1492 33.0827 24.8805 33.0827 24.8805L32.6174 24.0516L27.7387 27.9633C25.8774 29.5774 22.8237 29.7955 20.9442 28.1959L15.4948 23.8335L14.9531 24.7823Z" fill="url(#paint5_linear_4220_63562)"/>
<path d="M14.4882 24.2043L9.23877 18.4277L15.0445 23.1864L14.4882 24.2043Z" fill="url(#paint6_linear_4220_63562)"/>
<path d="M33.5887 24.3134L38.8381 18.5332L33.0288 23.2955L33.5887 24.3134Z" fill="url(#paint7_linear_4220_63562)"/>
<path d="M32.9414 23.2483L32.7051 23.4482L42.9059 41.5669C43.1713 41.4288 43.1277 41.5996 43.2622 41.3197L32.9414 23.2446V23.2483Z" fill="#F6901E"/>
<path d="M15.0152 23.248L15.2515 23.448L5.0506 41.5703C4.78522 41.4322 4.82884 41.603 4.69434 41.3231L15.0152 23.248Z" fill="#F6901E"/>
<path d="M42.9751 13.647L27.5284 27.0288C25.7179 28.5992 22.7697 28.6065 20.9447 27.0506L5.149 13.5779C4.82545 13.7269 4.56371 13.9996 4.4292 14.3449L20.7448 28.2648C22.6824 29.9189 25.8125 29.908 27.7356 28.243L43.6149 14.4867C43.5095 14.1268 43.2804 13.8287 42.9751 13.647Z" fill="url(#paint8_linear_4220_63562)"/>
<path d="M42.1462 13.3994H5.85424C5.3671 13.3994 4.94176 13.643 4.6582 14.0138L20.6393 27.6464C22.6424 29.3551 25.8779 29.3442 27.8628 27.6246L43.4294 14.1374C43.1568 13.6939 42.6842 13.3994 42.1425 13.3994H42.1462Z" fill="url(#paint9_linear_4220_63562)"/>
<path d="M42.2184 13.6875H5.86836C5.58116 13.6875 5.31578 13.7784 5.09766 13.9383L20.8933 27.2474C22.7728 28.8325 25.8084 28.8216 27.677 27.2256L43.0982 14.0292C42.8583 13.8184 42.5565 13.6875 42.2221 13.6875H42.2184Z" fill="url(#paint10_linear_4220_63562)"/>
<path d="M42.9604 13.9089H5.27972C4.98162 13.9089 12.6413 19.8964 12.6413 19.8964C12.6413 19.8964 17.8072 21.4378 24.071 21.4632C31.5344 21.496 35.7078 19.9073 35.7078 19.9073C35.7078 19.9073 43.3093 13.9089 42.964 13.9089H42.9604Z" fill="url(#paint11_linear_4220_63562)"/>
<path fill-rule="evenodd" clip-rule="evenodd" d="M24.2152 5.90015C28.9581 5.90015 32.8152 9.75729 32.8152 14.5001C32.8152 19.243 28.9581 23.1001 24.2152 23.1001C19.4724 23.1001 15.6152 19.243 15.6152 14.5001C15.6152 9.75729 19.4724 5.90015 24.2152 5.90015Z" fill="#004976"/>
<path fill-rule="evenodd" clip-rule="evenodd" d="M25.7429 5.47167C25.6286 5.45738 25.5571 5.35738 25.5571 5.25738V4.25738C25.5571 4.12881 25.4571 4.02881 25.3286 4.02881H23.6571C23.5286 4.02881 23.4286 4.12881 23.4286 4.25738V5.25738C23.4286 5.37167 23.3429 5.45738 23.2286 5.47167C22.4571 5.57167 21.7143 5.77167 21.0286 6.05738C20.9286 6.10024 20.8143 6.05738 20.7571 5.95738L20.2571 5.08595C20.2 4.98595 20.0571 4.94309 19.9571 5.00024L18.5143 5.82881C18.4143 5.88595 18.3714 6.02881 18.4286 6.12881L18.9286 7.00024C18.9857 7.10024 18.9571 7.21452 18.8714 7.28595C18.2714 7.75738 17.7286 8.30024 17.2571 8.90024C17.1857 8.98595 17.0714 9.01452 16.9714 8.95738L16.1 8.45738C16 8.40024 15.8571 8.42881 15.8 8.54309L14.9714 9.98595C14.9143 10.086 14.9429 10.2288 15.0571 10.286L15.9286 10.786C16.0286 10.8431 16.0714 10.9574 16.0286 11.0574C15.7429 11.7574 15.5429 12.5002 15.4429 13.2574C15.4286 13.3717 15.3286 13.4431 15.2286 13.4431H14.2286C14.1 13.4431 14 13.5431 14 13.6717V15.3431C14 15.4717 14.1 15.5717 14.2286 15.5717H15.2286C15.3429 15.5717 15.4286 15.6574 15.4429 15.7574C15.5429 16.5288 15.7429 17.2717 16.0286 17.9574C16.0714 18.0574 16.0286 18.1717 15.9286 18.2288L15.0571 18.7288C14.9571 18.786 14.9143 18.9288 14.9714 19.0288L15.8 20.4717C15.8571 20.5717 16 20.6145 16.1 20.5574L16.9714 20.0574C17.0714 20.0002 17.1857 20.0288 17.2571 20.1145C17.7286 20.7145 18.2714 21.2574 18.8714 21.7288C18.9571 21.8002 18.9857 21.9145 18.9286 22.0145L18.4286 22.886C18.3714 22.986 18.4 23.1288 18.5143 23.186L19.9571 24.0145C20.0571 24.0717 20.2 24.0431 20.2571 23.9288L20.7571 23.0574C20.8143 22.9574 20.9286 22.9145 21.0286 22.9574C21.7286 23.2431 22.4714 23.4431 23.2286 23.5431C23.3429 23.5574 23.4286 23.6574 23.4286 23.7574V24.7574C23.4286 24.886 23.5286 24.986 23.6571 24.986H25.3286C25.4571 24.986 25.5571 24.886 25.5571 24.7574V23.7574C25.5571 23.6431 25.6429 23.5574 25.7429 23.5431C26.5143 23.4431 27.2571 23.2431 27.9429 22.9574C28.0429 22.9145 28.1571 22.9574 28.2143 23.0574L28.7143 23.9288C28.7714 24.0288 28.9143 24.0717 29.0143 24.0145L30.4571 23.186C30.5571 23.1288 30.6 22.986 30.5429 22.886L30.0429 22.0145C29.9857 21.9145 30.0143 21.8002 30.1 21.7288C30.7 21.2574 31.2429 20.7145 31.7143 20.1145C31.7857 20.0288 31.9 20.0002 32 20.0574L32.8714 20.5574C32.9714 20.6145 33.1143 20.586 33.1714 20.4717L34 19.0288C34.0571 18.9288 34.0286 18.786 33.9143 18.7288L33.0429 18.2288C32.9429 18.1717 32.9 18.0574 32.9429 17.9574C33.2286 17.2574 33.4286 16.5145 33.5286 15.7574C33.5429 15.6431 33.6429 15.5717 33.7429 15.5717H34.7429C34.8714 15.5717 34.9714 15.4717 34.9714 15.3431V13.6717C34.9714 13.5431 34.8714 13.4431 34.7429 13.4431H33.7429C33.6286 13.4431 33.5429 13.3574 33.5286 13.2574C33.4286 12.486 33.2286 11.7431 32.9429 11.0574C32.9 10.9574 32.9429 10.8431 33.0429 10.786L33.9143 10.286C34.0143 10.2288 34.0571 10.086 34 9.98595L33.1714 8.54309C33.1143 8.44309 32.9714 8.40024 32.8714 8.45738L32 8.95738C31.9 9.01452 31.7857 8.98595 31.7143 8.90024C31.2429 8.30024 30.7 7.75738 30.1 7.28595C30.0143 7.21452 29.9857 7.10024 30.0429 7.00024L30.5429 6.12881C30.6 6.02881 30.5714 5.88595 30.4571 5.82881L29.0143 5.00024C28.9143 4.94309 28.7714 4.97167 28.7143 5.08595L28.2143 5.95738C28.1571 6.05738 28.0429 6.10024 27.9429 6.05738C27.2429 5.77167 26.5 5.57167 25.7429 5.47167Z" fill="url(#paint12_radial_4220_63562)"/>
<path fill-rule="evenodd" clip-rule="evenodd" d="M24.5002 5.38599C29.5573 5.38599 33.6573 9.48599 33.6573 14.5288C33.6573 19.5717 29.5573 23.686 24.5002 23.686C19.443 23.686 15.343 19.586 15.343 14.5288C15.343 9.4717 19.443 5.38599 24.5002 5.38599Z" fill="url(#paint13_linear_4220_63562)"/>
<path fill-rule="evenodd" clip-rule="evenodd" d="M24.4993 23.4863C19.5564 23.4863 15.5564 19.4863 15.5564 14.5434C15.5564 9.60059 19.5564 5.60059 24.4993 5.60059C29.4421 5.60059 33.4421 9.60059 33.4421 14.5434C33.4421 19.4863 29.4421 23.4863 24.4993 23.4863Z" fill="url(#paint14_linear_4220_63562)"/>
<path fill-rule="evenodd" clip-rule="evenodd" d="M24.4999 23.2714C19.6714 23.2714 15.7571 19.3571 15.7571 14.5285C15.7571 9.69993 19.6714 5.78564 24.4999 5.78564C29.3285 5.78564 33.2428 9.69993 33.2428 14.5285C33.2428 19.3571 29.3285 23.2714 24.4999 23.2714Z" fill="url(#paint15_linear_4220_63562)"/>
<path fill-rule="evenodd" clip-rule="evenodd" d="M24.5 23.0723C19.7857 23.0723 15.9714 19.2437 15.9714 14.5437C15.9714 9.84371 19.8 6.01514 24.5 6.01514C29.2 6.01514 33.0286 9.84371 33.0286 14.5437C33.0286 19.2437 29.2 23.0723 24.5 23.0723Z" fill="url(#paint16_linear_4220_63562)"/>
<path fill-rule="evenodd" clip-rule="evenodd" d="M24.5004 22.8578C19.9004 22.8578 16.1719 19.1293 16.1719 14.5293C16.1719 9.92926 19.9004 6.20068 24.5004 6.20068C29.1004 6.20068 32.829 9.92926 32.829 14.5293C32.829 19.1293 29.1004 22.8578 24.5004 22.8578Z" fill="url(#paint17_linear_4220_63562)"/>
<path fill-rule="evenodd" clip-rule="evenodd" d="M24.5009 22.6581C20.0152 22.6581 16.3723 19.0153 16.3723 14.5296C16.3723 10.0439 20.0152 6.41528 24.5009 6.41528C28.9866 6.41528 32.6295 10.0581 32.6295 14.5296C32.6295 19.001 28.9866 22.6581 24.5009 22.6581Z" fill="url(#paint18_linear_4220_63562)"/>
<path fill-rule="evenodd" clip-rule="evenodd" d="M24.5007 22.4577C20.1293 22.4577 16.5864 18.9149 16.5864 14.5434C16.5864 10.172 20.1293 6.62915 24.5007 6.62915C28.8721 6.62915 32.415 10.172 32.415 14.5434C32.415 18.9149 28.8721 22.4577 24.5007 22.4577Z" fill="url(#paint19_linear_4220_63562)"/>
<path fill-rule="evenodd" clip-rule="evenodd" d="M24.4997 22.2435C20.2425 22.2435 16.7854 18.7864 16.7854 14.5292C16.7854 10.2721 20.2425 6.81494 24.4997 6.81494C28.7568 6.81494 32.214 10.2721 32.214 14.5292C32.214 18.7864 28.7568 22.2435 24.4997 22.2435Z" fill="url(#paint20_linear_4220_63562)"/>
<path fill-rule="evenodd" clip-rule="evenodd" d="M24.5 22.0435C20.3571 22.0435 17 18.6863 17 14.5435C17 10.4006 20.3571 7.04346 24.5 7.04346C28.6429 7.04346 32 10.4006 32 14.5435C32 18.6863 28.6429 22.0435 24.5 22.0435Z" fill="url(#paint21_linear_4220_63562)"/>
<path fill-rule="evenodd" clip-rule="evenodd" d="M24.5 21.8293C20.4714 21.8293 17.2 18.5578 17.2 14.5292C17.2 10.5007 20.4714 7.22925 24.5 7.22925C28.5285 7.22925 31.8 10.5007 31.8 14.5292C31.8 18.5578 28.5285 21.8293 24.5 21.8293Z" fill="url(#paint22_linear_4220_63562)"/>
<path fill-rule="evenodd" clip-rule="evenodd" d="M24.5004 21.6288C20.5861 21.6288 17.4004 18.4431 17.4004 14.5288C17.4004 10.6145 20.5861 7.44312 24.5004 7.44312C28.4147 7.44312 31.6004 10.6288 31.6004 14.5288C31.6004 18.4288 28.4147 21.6288 24.5004 21.6288Z" fill="url(#paint23_linear_4220_63562)"/>
<path fill-rule="evenodd" clip-rule="evenodd" d="M24.5 21.4157C20.7 21.4157 17.6143 18.33 17.6143 14.53C17.6143 10.73 20.7 7.64429 24.5 7.64429C28.3 7.64429 31.3857 10.73 31.3857 14.53C31.3857 18.33 28.3 21.4157 24.5 21.4157Z" fill="url(#paint24_linear_4220_63562)"/>
<path fill-rule="evenodd" clip-rule="evenodd" d="M24.5004 21.2149C20.8147 21.2149 17.8147 18.2149 17.8147 14.5292C17.8147 10.8435 20.8147 7.84351 24.5004 7.84351C28.1861 7.84351 31.1861 10.8435 31.1861 14.5292C31.1861 18.2149 28.1861 21.2149 24.5004 21.2149Z" fill="url(#paint25_linear_4220_63562)"/>
<path fill-rule="evenodd" clip-rule="evenodd" d="M24.5 21.0149C20.9286 21.0149 18.0286 18.1149 18.0286 14.5435C18.0286 10.972 20.9286 8.07202 24.5 8.07202C28.0714 8.07202 30.9714 10.972 30.9714 14.5435C30.9714 18.1149 28.0714 21.0149 24.5 21.0149Z" fill="url(#paint26_linear_4220_63562)"/>
<path fill-rule="evenodd" clip-rule="evenodd" d="M24.5004 20.8007C21.0433 20.8007 18.229 17.9864 18.229 14.5292C18.229 11.0721 21.0433 8.25781 24.5004 8.25781C27.9576 8.25781 30.7719 11.0721 30.7719 14.5292C30.7719 17.9864 27.9576 20.8007 24.5004 20.8007Z" fill="url(#paint27_linear_4220_63562)"/>
<path fill-rule="evenodd" clip-rule="evenodd" d="M24.5004 20.601C21.1575 20.601 18.429 17.8867 18.429 14.5296C18.429 11.1724 21.1432 8.47241 24.5004 8.47241C27.8575 8.47241 30.5718 11.1867 30.5718 14.5296C30.5718 17.8724 27.8575 20.601 24.5004 20.601Z" fill="url(#paint28_linear_4220_63562)"/>
<path fill-rule="evenodd" clip-rule="evenodd" d="M24.5 20.3859C21.2714 20.3859 18.6428 17.7573 18.6428 14.5288C18.6428 11.3002 21.2714 8.67163 24.5 8.67163C27.7285 8.67163 30.3571 11.3002 30.3571 14.5288C30.3571 17.7573 27.7285 20.3859 24.5 20.3859Z" fill="url(#paint29_linear_4220_63562)"/>
<path fill-rule="evenodd" clip-rule="evenodd" d="M24.5004 20.1864C21.3861 20.1864 18.8433 17.6435 18.8433 14.5292C18.8433 11.4149 21.3861 8.87207 24.5004 8.87207C27.6147 8.87207 30.1575 11.4149 30.1575 14.5292C30.1575 17.6435 27.6147 20.1864 24.5004 20.1864Z" fill="url(#paint30_linear_4220_63562)"/>
<path fill-rule="evenodd" clip-rule="evenodd" d="M24.5012 19.9863C21.5012 19.9863 19.0583 17.5434 19.0583 14.5434C19.0583 11.5434 21.5012 9.10059 24.5012 9.10059C27.5012 9.10059 29.9441 11.5434 29.9441 14.5434C29.9441 17.5434 27.5012 19.9863 24.5012 19.9863Z" fill="url(#paint31_linear_4220_63562)"/>
<path fill-rule="evenodd" clip-rule="evenodd" d="M24.5004 19.7721C21.6147 19.7721 19.2576 17.4149 19.2576 14.5292C19.2576 11.6435 21.6147 9.28638 24.5004 9.28638C27.3861 9.28638 29.7433 11.6435 29.7433 14.5292C29.7433 17.4149 27.3861 19.7721 24.5004 19.7721Z" fill="url(#paint32_linear_4220_63562)"/>
<path fill-rule="evenodd" clip-rule="evenodd" d="M24.5004 19.5728C21.7289 19.5728 19.4575 17.3156 19.4575 14.5442C19.4575 11.7728 21.7147 9.51562 24.5004 9.51562C27.2861 9.51562 29.5289 11.7728 29.5289 14.5442C29.5289 17.3156 27.2718 19.5728 24.5004 19.5728Z" fill="url(#paint33_linear_4220_63562)"/>
<path fill-rule="evenodd" clip-rule="evenodd" d="M24.5 19.3578C27.1571 19.3578 29.3285 17.1864 29.3285 14.5293C29.3285 11.8721 27.1571 9.70068 24.5 9.70068C21.8428 9.70068 19.6714 11.8721 19.6714 14.5293C19.6714 17.1864 21.8428 19.3578 24.5 19.3578Z" fill="url(#paint34_linear_4220_63562)"/>
<path fill-rule="evenodd" clip-rule="evenodd" d="M24.5008 6.8147C28.7436 6.8147 32.1722 10.2433 32.1722 14.4861C32.1722 18.729 28.7436 22.1576 24.5008 22.1576C20.2579 22.1576 16.8293 18.729 16.8293 14.4861C16.8293 10.2433 20.2579 6.8147 24.5008 6.8147Z" fill="url(#paint35_linear_4220_63562)"/>
<path fill-rule="evenodd" clip-rule="evenodd" d="M24.5002 22.1431C20.2859 22.1431 16.8716 18.7288 16.8716 14.5146C16.8716 10.3003 20.2859 6.88599 24.5002 6.88599C28.7144 6.88599 32.1287 10.3003 32.1287 14.5146C32.1287 18.7288 28.7144 22.1431 24.5002 22.1431Z" fill="url(#paint36_linear_4220_63562)"/>
<path fill-rule="evenodd" clip-rule="evenodd" d="M24.5004 22.1431C20.3004 22.1431 16.9004 18.7431 16.9004 14.5431C16.9004 10.3431 20.3004 6.94312 24.5004 6.94312C28.7004 6.94312 32.1004 10.3431 32.1004 14.5431C32.1004 18.7431 28.7004 22.1431 24.5004 22.1431Z" fill="url(#paint37_linear_4220_63562)"/>
<path fill-rule="evenodd" clip-rule="evenodd" d="M24.5003 22.1297C20.3288 22.1297 16.9431 18.744 16.9431 14.5725C16.9431 10.4011 20.3288 7.01538 24.5003 7.01538C28.6717 7.01538 32.0574 10.4011 32.0574 14.5725C32.0574 18.744 28.6717 22.1297 24.5003 22.1297Z" fill="url(#paint38_linear_4220_63562)"/>
<path fill-rule="evenodd" clip-rule="evenodd" d="M24.5004 22.1292C20.3432 22.1292 16.9861 18.7577 16.9861 14.6149C16.9861 10.472 20.3575 7.10059 24.5004 7.10059C28.6432 7.10059 32.0147 10.472 32.0147 14.6149C32.0147 18.7577 28.6432 22.1292 24.5004 22.1292Z" fill="url(#paint39_linear_4220_63562)"/>
<path fill-rule="evenodd" clip-rule="evenodd" d="M24.4994 22.115C20.3708 22.115 17.0137 18.7578 17.0137 14.6293C17.0137 10.5007 20.3708 7.14355 24.4994 7.14355C28.628 7.14355 31.9851 10.5007 31.9851 14.6293C31.9851 18.7578 28.628 22.115 24.4994 22.115Z" fill="url(#paint40_linear_4220_63562)"/>
<path fill-rule="evenodd" clip-rule="evenodd" d="M24.5007 22.115C20.3864 22.115 17.0579 18.7721 17.0579 14.6721C17.0579 10.5721 20.4007 7.22925 24.5007 7.22925C28.6007 7.22925 31.9436 10.5721 31.9436 14.6721C31.9436 18.7721 28.6007 22.115 24.5007 22.115Z" fill="url(#paint41_linear_4220_63562)"/>
<path fill-rule="evenodd" clip-rule="evenodd" d="M24.5001 22.1003C20.4144 22.1003 17.1001 18.786 17.1001 14.7003C17.1001 10.6146 20.4144 7.30029 24.5001 7.30029C28.5858 7.30029 31.9001 10.6146 31.9001 14.7003C31.9001 18.786 28.5858 22.1003 24.5001 22.1003Z" fill="url(#paint42_linear_4220_63562)"/>
<path fill-rule="evenodd" clip-rule="evenodd" d="M24.4998 22.0869C20.4284 22.0869 17.1284 18.7869 17.1284 14.7154C17.1284 10.644 20.4284 7.34399 24.4998 7.34399C28.5713 7.34399 31.8713 10.644 31.8713 14.7154C31.8713 18.7869 28.5713 22.0869 24.4998 22.0869Z" fill="url(#paint43_linear_4220_63562)"/>
<path fill-rule="evenodd" clip-rule="evenodd" d="M24.5012 22.0868C20.4583 22.0868 17.1726 18.8011 17.1726 14.7583C17.1726 10.7154 20.4583 7.42969 24.5012 7.42969C28.544 7.42969 31.8298 10.7154 31.8298 14.7583C31.8298 18.8011 28.544 22.0868 24.5012 22.0868Z" fill="url(#paint44_linear_4220_63562)"/>
<path fill-rule="evenodd" clip-rule="evenodd" d="M24.4998 22.0722C20.4713 22.0722 17.2141 18.8007 17.2141 14.7864C17.2141 10.7722 20.4855 7.50073 24.4998 7.50073C28.5141 7.50073 31.7855 10.7722 31.7855 14.7864C31.7855 18.8007 28.5141 22.0722 24.4998 22.0722Z" fill="url(#paint45_linear_4220_63562)"/>
<path fill-rule="evenodd" clip-rule="evenodd" d="M24.5001 22.0721C20.5001 22.0721 17.2429 18.815 17.2429 14.815C17.2429 10.815 20.5001 7.55786 24.5001 7.55786C28.5001 7.55786 31.7572 10.815 31.7572 14.815C31.7572 18.815 28.5001 22.0721 24.5001 22.0721Z" fill="url(#paint46_linear_4220_63562)"/>
<path fill-rule="evenodd" clip-rule="evenodd" d="M24.5002 22.0575C20.5145 22.0575 17.2859 18.8146 17.2859 14.8432C17.2859 10.8718 20.5287 7.62891 24.5002 7.62891C28.4716 7.62891 31.7145 10.8718 31.7145 14.8432C31.7145 18.8146 28.4716 22.0575 24.5002 22.0575Z" fill="url(#paint47_linear_4220_63562)"/>
<path fill-rule="evenodd" clip-rule="evenodd" d="M24.5004 22.0586C20.5433 22.0586 17.3147 18.8443 17.3147 14.8728C17.3147 10.9014 20.529 7.70142 24.5004 7.70142C28.4718 7.70142 31.6718 10.9157 31.6718 14.8728C31.6718 18.83 28.4576 22.0586 24.5004 22.0586Z" fill="url(#paint48_linear_4220_63562)"/>
<path fill-rule="evenodd" clip-rule="evenodd" d="M24.5005 22.044C20.5577 22.044 17.3577 18.844 17.3577 14.9012C17.3577 10.9583 20.5577 7.7583 24.5005 7.7583C28.4434 7.7583 31.6434 10.9583 31.6434 14.9012C31.6434 18.844 28.4434 22.044 24.5005 22.044Z" fill="url(#paint49_linear_4220_63562)"/>
<path fill-rule="evenodd" clip-rule="evenodd" d="M24.4999 22.0435C20.5856 22.0435 17.3999 18.8578 17.3999 14.9435C17.3999 11.0292 20.5856 7.84351 24.4999 7.84351C28.4142 7.84351 31.5999 11.0292 31.5999 14.9435C31.5999 18.8578 28.4142 22.0435 24.4999 22.0435Z" fill="url(#paint50_linear_4220_63562)"/>
<path fill-rule="evenodd" clip-rule="evenodd" d="M24.5006 22.0293C20.6006 22.0293 17.4292 18.8579 17.4292 14.9579C17.4292 11.0579 20.6006 7.88647 24.5006 7.88647C28.4006 7.88647 31.5721 11.0579 31.5721 14.9579C31.5721 18.8579 28.4006 22.0293 24.5006 22.0293Z" fill="url(#paint51_linear_4220_63562)"/>
<path fill-rule="evenodd" clip-rule="evenodd" d="M24.5003 22.0147C20.6288 22.0147 17.4717 18.8575 17.4717 14.9861C17.4717 11.1147 20.6288 7.95752 24.5003 7.95752C28.3717 7.95752 31.5288 11.1147 31.5288 14.9861C31.5288 18.8575 28.3717 22.0147 24.5003 22.0147Z" fill="url(#paint52_linear_4220_63562)"/>
<path fill-rule="evenodd" clip-rule="evenodd" d="M24.5001 22.0146C20.643 22.0146 17.5144 18.8718 17.5144 15.0289C17.5144 11.1861 20.6573 8.04321 24.5001 8.04321C28.343 8.04321 31.4858 11.1861 31.4858 15.0289C31.4858 18.8718 28.343 22.0146 24.5001 22.0146Z" fill="url(#paint53_linear_4220_63562)"/>
<path fill-rule="evenodd" clip-rule="evenodd" d="M24.5004 22.0005C20.6718 22.0005 17.5432 18.8719 17.5432 15.0433C17.5432 11.2148 20.6575 8.08618 24.5004 8.08618C28.3432 8.08618 31.4575 11.2148 31.4575 15.0433C31.4575 18.8719 28.3432 22.0005 24.5004 22.0005Z" fill="url(#paint54_linear_4220_63562)"/>
<path fill-rule="evenodd" clip-rule="evenodd" d="M24.5 22.0012C20.6857 22.0012 17.5857 18.9012 17.5857 15.0869C17.5857 11.2726 20.6857 8.17261 24.5 8.17261C28.3143 8.17261 31.4143 11.2726 31.4143 15.0869C31.4143 18.9012 28.3143 22.0012 24.5 22.0012Z" fill="url(#paint55_linear_4220_63562)"/>
<path fill-rule="evenodd" clip-rule="evenodd" d="M24.5006 21.986C28.2863 21.986 31.372 18.9003 31.372 15.1146C31.372 11.3289 28.2863 8.24316 24.5006 8.24316C20.7149 8.24316 17.6292 11.3289 17.6292 15.1146C17.6292 18.9003 20.7149 21.986 24.5006 21.986Z" fill="url(#paint56_linear_4220_63562)"/>
<path fill-rule="evenodd" clip-rule="evenodd" d="M24.5145 21.9301C28.2716 21.9301 31.3288 18.8729 31.3288 15.1158C31.3288 11.3587 28.2716 8.30151 24.5145 8.30151C20.7573 8.30151 17.7002 11.3587 17.7002 15.1158C17.7002 18.8729 20.7573 21.9301 24.5145 21.9301Z" fill="url(#paint57_linear_4220_63562)"/>
<path fill-rule="evenodd" clip-rule="evenodd" d="M24.515 21.8868C28.2292 21.8868 31.2721 18.844 31.2721 15.1297C31.2721 11.4154 28.2435 8.37256 24.515 8.37256C20.7864 8.37256 17.7578 11.4154 17.7578 15.1297C17.7578 18.844 20.7864 21.8868 24.515 21.8868Z" fill="url(#paint58_linear_4220_63562)"/>
<path fill-rule="evenodd" clip-rule="evenodd" d="M24.5287 21.8294C28.2144 21.8294 31.2144 18.8152 31.2144 15.1294C31.2144 11.4437 28.2144 8.42944 24.5287 8.42944C20.843 8.42944 17.843 11.4437 17.843 15.1294C17.843 18.8152 20.843 21.8294 24.5287 21.8294Z" fill="url(#paint59_linear_4220_63562)"/>
<path fill-rule="evenodd" clip-rule="evenodd" d="M24.5287 21.7723C28.1859 21.7723 31.1573 18.7866 31.1573 15.1294C31.1573 11.4723 28.1859 8.48657 24.5287 8.48657C20.8716 8.48657 17.9001 11.4723 17.9001 15.1294C17.9001 18.7866 20.8716 21.7723 24.5287 21.7723Z" fill="url(#paint60_linear_4220_63562)"/>
<path fill-rule="evenodd" clip-rule="evenodd" d="M24.5426 21.7149C28.1569 21.7149 31.114 18.7577 31.114 15.1292C31.114 11.5006 28.1569 8.54346 24.5426 8.54346C20.9283 8.54346 17.9712 11.5006 17.9712 15.1292C17.9712 18.7577 20.9283 21.7149 24.5426 21.7149Z" fill="url(#paint61_linear_4220_63562)"/>
<path fill-rule="evenodd" clip-rule="evenodd" d="M24.5573 21.657C28.143 21.657 31.0715 18.7284 31.0715 15.1284C31.0715 11.5284 28.143 8.59985 24.5573 8.59985C20.9715 8.59985 18.043 11.5284 18.043 15.1284C18.043 18.7284 20.9715 21.657 24.5573 21.657Z" fill="url(#paint62_linear_4220_63562)"/>
<path fill-rule="evenodd" clip-rule="evenodd" d="M24.5581 21.6011C28.1152 21.6011 31.0009 18.6868 31.0009 15.1296C31.0009 11.5725 28.1009 8.6582 24.5581 8.6582C21.0152 8.6582 18.1152 11.5725 18.1152 15.1296C18.1152 18.6868 21.0152 21.6011 24.5581 21.6011Z" fill="url(#paint63_linear_4220_63562)"/>
<path fill-rule="evenodd" clip-rule="evenodd" d="M24.5727 21.5578C28.087 21.5578 30.9584 18.6721 30.9584 15.1435C30.9584 11.615 28.087 8.72925 24.5727 8.72925C21.0584 8.72925 18.187 11.615 18.187 15.1435C18.187 18.6721 21.0584 21.5578 24.5727 21.5578Z" fill="url(#paint64_linear_4220_63562)"/>
<path fill-rule="evenodd" clip-rule="evenodd" d="M24.5712 21.5004C28.057 21.5004 30.8998 18.6433 30.8998 15.1433C30.8998 11.6433 28.057 8.78613 24.5712 8.78613C21.0855 8.78613 18.2427 11.6433 18.2427 15.1433C18.2427 18.6433 21.0855 21.5004 24.5712 21.5004Z" fill="url(#paint65_linear_4220_63562)"/>
<path fill-rule="evenodd" clip-rule="evenodd" d="M24.5862 21.4437C28.0291 21.4437 30.8434 18.6152 30.8434 15.1438C30.8434 11.6723 28.0291 8.84375 24.5862 8.84375C21.1434 8.84375 18.3291 11.6723 18.3291 15.1438C18.3291 18.6152 21.1434 21.4437 24.5862 21.4437Z" fill="url(#paint66_linear_4220_63562)"/>
<path fill-rule="evenodd" clip-rule="evenodd" d="M24.6001 21.3866C28.0144 21.3866 30.8001 18.5866 30.8001 15.1437C30.8001 11.7009 28.0144 8.90088 24.6001 8.90088C21.1859 8.90088 18.4001 11.7009 18.4001 15.1437C18.4001 18.5866 21.1859 21.3866 24.6001 21.3866Z" fill="url(#paint67_linear_4220_63562)"/>
<path fill-rule="evenodd" clip-rule="evenodd" d="M24.6001 21.3292C27.9858 21.3292 30.743 18.5435 30.743 15.1435C30.743 11.7435 27.9858 8.95776 24.6001 8.95776C21.2144 8.95776 18.4573 11.7435 18.4573 15.1435C18.4573 18.5435 21.2144 21.3292 24.6001 21.3292Z" fill="url(#paint68_linear_4220_63562)"/>
<path fill-rule="evenodd" clip-rule="evenodd" d="M24.6148 21.2725C27.9576 21.2725 30.7005 18.5154 30.7005 15.144C30.7005 11.7725 27.9719 9.01538 24.6148 9.01538C21.2576 9.01538 18.5291 11.7725 18.5291 15.144C18.5291 18.5154 21.2576 21.2725 24.6148 21.2725Z" fill="url(#paint69_linear_4220_63562)"/>
<path fill-rule="evenodd" clip-rule="evenodd" d="M24.6144 21.2146C27.9287 21.2146 30.6287 18.4861 30.6287 15.1432C30.6287 11.8003 27.9287 9.07178 24.6144 9.07178C21.3001 9.07178 18.6001 11.8003 18.6001 15.1432C18.6001 18.4861 21.3001 21.2146 24.6144 21.2146Z" fill="url(#paint70_linear_4220_63562)"/>
<path fill-rule="evenodd" clip-rule="evenodd" d="M24.6283 21.1714C27.914 21.1714 30.5854 18.4714 30.5854 15.1571C30.5854 11.8428 27.914 9.14282 24.6283 9.14282C21.3426 9.14282 18.6711 11.8428 18.6711 15.1571C18.6711 18.4714 21.3426 21.1714 24.6283 21.1714Z" fill="url(#paint71_linear_4220_63562)"/>
<path fill-rule="evenodd" clip-rule="evenodd" d="M24.6429 21.1155C27.8858 21.1155 30.5429 18.444 30.5429 15.1583C30.5429 11.8726 27.9001 9.20117 24.6429 9.20117C21.3858 9.20117 18.7429 11.8726 18.7429 15.1583C18.7429 18.444 21.3858 21.1155 24.6429 21.1155Z" fill="url(#paint72_linear_4220_63562)"/>
<path fill-rule="evenodd" clip-rule="evenodd" d="M24.6433 21.0576C27.8576 21.0576 30.4718 18.4004 30.4718 15.1576C30.4718 11.9147 27.8433 9.25757 24.6433 9.25757C21.4433 9.25757 18.8147 11.9147 18.8147 15.1576C18.8147 18.4004 21.4433 21.0576 24.6433 21.0576Z" fill="url(#paint73_linear_4220_63562)"/>
<path fill-rule="evenodd" clip-rule="evenodd" d="M24.6577 21.0009C27.8434 21.0009 30.4291 18.3723 30.4291 15.158C30.4291 11.9438 27.8291 9.31519 24.6577 9.31519C21.4862 9.31519 18.8862 11.9438 18.8862 15.158C18.8862 18.3723 21.4862 21.0009 24.6577 21.0009Z" fill="url(#paint74_linear_4220_63562)"/>
<path fill-rule="evenodd" clip-rule="evenodd" d="M24.6716 20.9437C27.8144 20.9437 30.3858 18.3437 30.3858 15.158C30.3858 11.9723 27.8144 9.37231 24.6716 9.37231C21.5287 9.37231 18.9573 11.9723 18.9573 15.158C18.9573 18.3437 21.5287 20.9437 24.6716 20.9437Z" fill="url(#paint75_linear_4220_63562)"/>
<path fill-rule="evenodd" clip-rule="evenodd" d="M24.6723 20.8863C27.7866 20.8863 30.3294 18.3149 30.3294 15.1578C30.3294 12.0006 27.7866 9.4292 24.6723 9.4292C21.558 9.4292 19.0151 12.0006 19.0151 15.1578C19.0151 18.3149 21.558 20.8863 24.6723 20.8863Z" fill="url(#paint76_linear_4220_63562)"/>
<path fill-rule="evenodd" clip-rule="evenodd" d="M24.6858 20.8431C27.7715 20.8431 30.2715 18.3002 30.2715 15.1717C30.2715 12.0431 27.7572 9.50024 24.6858 9.50024C21.6144 9.50024 19.1001 12.0574 19.1001 15.1717C19.1001 18.286 21.6144 20.8431 24.6858 20.8431Z" fill="url(#paint77_linear_4220_63562)"/>
<path fill-rule="evenodd" clip-rule="evenodd" d="M24.6426 20.7442C27.6712 20.7442 30.1426 18.2156 30.1426 15.1299C30.1426 12.0442 27.6712 9.51562 24.6426 9.51562C21.614 9.51562 19.1426 12.0442 19.1426 15.1299C19.1426 18.2156 21.614 20.7442 24.6426 20.7442Z" fill="url(#paint78_linear_4220_63562)"/>
<path fill-rule="evenodd" clip-rule="evenodd" d="M24.6014 20.6575C27.5728 20.6575 30.0014 18.1575 30.0014 15.1004C30.0014 12.0432 27.5728 9.54321 24.6014 9.54321C21.63 9.54321 19.2014 12.0432 19.2014 15.1004C19.2014 18.1575 21.63 20.6575 24.6014 20.6575Z" fill="url(#paint79_linear_4220_63562)"/>
<path fill-rule="evenodd" clip-rule="evenodd" d="M24.5712 20.5728C27.4998 20.5728 29.8712 18.1013 29.8712 15.0728C29.8712 12.0442 27.4855 9.57275 24.5712 9.57275C21.657 9.57275 19.2712 12.0442 19.2712 15.0728C19.2712 18.1013 21.657 20.5728 24.5712 20.5728Z" fill="url(#paint80_linear_4220_63562)"/>
<path fill-rule="evenodd" clip-rule="evenodd" d="M24.5297 20.4714C27.4011 20.4714 29.744 18.0285 29.744 15.0428C29.744 12.0571 27.4011 9.61426 24.5297 9.61426C21.6583 9.61426 19.3154 12.0571 19.3154 15.0428C19.3154 18.0285 21.6583 20.4714 24.5297 20.4714Z" fill="url(#paint81_linear_4220_63562)"/>
<path fill-rule="evenodd" clip-rule="evenodd" d="M24.4854 20.3871C27.2997 20.3871 29.5997 17.9729 29.5997 15.0157C29.5997 12.0586 27.2997 9.64429 24.4854 9.64429C21.6711 9.64429 19.3711 12.0586 19.3711 15.0157C19.3711 17.9729 21.6711 20.3871 24.4854 20.3871Z" fill="url(#paint82_linear_4220_63562)"/>
<path fill-rule="evenodd" clip-rule="evenodd" d="M24.4573 20.3004C27.2287 20.3004 29.4859 17.9147 29.4859 14.9862C29.4859 12.0576 27.2287 9.67188 24.4573 9.67188C21.6859 9.67188 19.4287 12.0576 19.4287 14.9862C19.4287 17.9147 21.6859 20.3004 24.4573 20.3004Z" fill="url(#paint83_linear_4220_63562)"/>
<path fill-rule="evenodd" clip-rule="evenodd" d="M24.4144 20.2013C27.1287 20.2013 29.343 17.8441 29.343 14.9584C29.343 12.0727 27.1287 9.71558 24.4144 9.71558C21.7001 9.71558 19.4858 12.0727 19.4858 14.9584C19.4858 17.8441 21.7001 20.2013 24.4144 20.2013Z" fill="url(#paint84_linear_4220_63562)"/>
<path fill-rule="evenodd" clip-rule="evenodd" d="M24.3713 20.1144C27.0284 20.1144 29.1999 17.7858 29.1999 14.9286C29.1999 12.0715 27.0284 9.74292 24.3713 9.74292C21.7142 9.74292 19.5427 12.0715 19.5427 14.9286C19.5427 17.7858 21.7142 20.1144 24.3713 20.1144Z" fill="url(#paint85_linear_4220_63562)"/>
<path fill-rule="evenodd" clip-rule="evenodd" d="M24.3285 20.0289C26.9428 20.0289 29.0714 17.7289 29.0714 14.9003C29.0714 12.0717 26.9428 9.77173 24.3285 9.77173C21.7143 9.77173 19.5857 12.0717 19.5857 14.9003C19.5857 17.7289 21.7143 20.0289 24.3285 20.0289Z" fill="url(#paint86_linear_4220_63562)"/>
<path fill-rule="evenodd" clip-rule="evenodd" d="M24.3003 19.9295C26.8575 19.9295 28.9432 17.658 28.9432 14.858C28.9432 12.058 26.8575 9.78662 24.3003 9.78662C21.7432 9.78662 19.6575 12.058 19.6575 14.858C19.6575 17.658 21.7432 19.9295 24.3003 19.9295Z" fill="url(#paint87_linear_4220_63562)"/>
<path fill-rule="evenodd" clip-rule="evenodd" d="M24.2579 19.8435C26.7579 19.8435 28.8008 17.6006 28.8008 14.8435C28.8008 12.0864 26.7579 9.84351 24.2579 9.84351C21.7579 9.84351 19.7151 12.0864 19.7151 14.8435C19.7151 17.6006 21.7579 19.8435 24.2579 19.8435Z" fill="url(#paint88_linear_4220_63562)"/>
<path fill-rule="evenodd" clip-rule="evenodd" d="M24.2145 19.758C26.6716 19.758 28.6716 17.5437 28.6716 14.8152C28.6716 12.0866 26.6716 9.87231 24.2145 9.87231C21.7573 9.87231 19.7573 12.0866 19.7573 14.8152C19.7573 17.5437 21.7573 19.758 24.2145 19.758Z" fill="url(#paint89_linear_4220_63562)"/>
<path fill-rule="evenodd" clip-rule="evenodd" d="M24.1862 19.6579C26.5862 19.6579 28.5434 17.4579 28.5434 14.7722C28.5434 12.0865 26.5862 9.88647 24.1862 9.88647C21.7862 9.88647 19.8291 12.0865 19.8291 14.7722C19.8291 17.4579 21.7862 19.6579 24.1862 19.6579Z" fill="url(#paint90_linear_4220_63562)"/>
<path fill-rule="evenodd" clip-rule="evenodd" d="M24.1439 19.5723C26.4867 19.5723 28.4153 17.4009 28.4153 14.7437C28.4153 12.0866 26.501 9.92944 24.1439 9.92944C21.7867 9.92944 19.8867 12.1009 19.8867 14.7437C19.8867 17.3866 21.801 19.5723 24.1439 19.5723Z" fill="url(#paint91_linear_4220_63562)"/>
<path fill-rule="evenodd" clip-rule="evenodd" d="M24.1004 19.4867C26.4004 19.4867 28.2718 17.3438 28.2718 14.7296C28.2718 12.1153 26.4004 9.97241 24.1004 9.97241C21.8004 9.97241 19.929 12.1153 19.929 14.7296C19.929 17.3438 21.8004 19.4867 24.1004 19.4867Z" fill="url(#paint92_linear_4220_63562)"/>
<path fill-rule="evenodd" clip-rule="evenodd" d="M24.0722 19.3863C26.315 19.3863 28.1436 17.272 28.1436 14.6863C28.1436 12.1006 26.315 9.98633 24.0722 9.98633C21.8293 9.98633 20.0007 12.1006 20.0007 14.6863C20.0007 17.272 21.8293 19.3863 24.0722 19.3863Z" fill="url(#paint93_linear_4220_63562)"/>
<path fill-rule="evenodd" clip-rule="evenodd" d="M24.0287 19.3009C26.2144 19.3009 28.0144 17.2151 28.0144 14.658C28.0144 12.1009 26.2287 10.0151 24.0287 10.0151C21.8287 10.0151 20.043 12.1009 20.043 14.658C20.043 17.2151 21.8287 19.3009 24.0287 19.3009Z" fill="url(#paint94_linear_4220_63562)"/>
<path fill-rule="evenodd" clip-rule="evenodd" d="M23.9863 19.2002C26.1292 19.2002 27.872 17.1431 27.872 14.6288C27.872 12.1145 26.1292 10.0574 23.9863 10.0574C21.8434 10.0574 20.1006 12.1145 20.1006 14.6288C20.1006 17.1431 21.8434 19.2002 23.9863 19.2002Z" fill="url(#paint95_linear_4220_63562)"/>
<path fill-rule="evenodd" clip-rule="evenodd" d="M23.9432 19.1148C26.0289 19.1148 27.7289 17.0862 27.7289 14.6005C27.7289 12.1148 26.0289 10.0862 23.9432 10.0862C21.8575 10.0862 20.1575 12.1148 20.1575 14.6005C20.1575 17.0862 21.8575 19.1148 23.9432 19.1148Z" fill="url(#paint96_linear_4220_63562)"/>
<path fill-rule="evenodd" clip-rule="evenodd" d="M23.9153 19.03C25.9582 19.03 27.6153 17.03 27.6153 14.5729C27.6153 12.1157 25.9582 10.1157 23.9153 10.1157C21.8725 10.1157 20.2153 12.1157 20.2153 14.5729C20.2153 17.03 21.8725 19.03 23.9153 19.03Z" fill="url(#paint97_linear_4220_63562)"/>
<path fill-rule="evenodd" clip-rule="evenodd" d="M23.8715 18.9287C25.8572 18.9287 27.4715 16.9572 27.4715 14.5287C27.4715 12.1001 25.8572 10.1287 23.8715 10.1287C21.8858 10.1287 20.2715 12.1001 20.2715 14.5287C20.2715 16.9572 21.8858 18.9287 23.8715 18.9287Z" fill="#00609B"/>
<path fill-rule="evenodd" clip-rule="evenodd" d="M24.5004 5.37183C29.5004 5.37183 33.5432 9.45754 33.5432 14.4861V14.5575C33.5004 9.55754 29.4718 5.52897 24.5004 5.52897C19.5289 5.52897 15.4861 9.57183 15.4575 14.5575V14.4861C15.4575 9.45754 19.5147 5.37183 24.5004 5.37183Z" fill="url(#paint98_linear_4220_63562)"/>
<path fill-rule="evenodd" clip-rule="evenodd" d="M24.5004 23.7292C29.5004 23.7292 33.5432 19.6435 33.5432 14.6149V14.5435C33.5004 19.5435 29.4718 23.572 24.5004 23.572C19.5289 23.572 15.4861 19.5292 15.4575 14.5435V14.6149C15.4575 19.6435 19.5147 23.7292 24.5004 23.7292Z" fill="url(#paint99_linear_4220_63562)"/>
<path fill-rule="evenodd" clip-rule="evenodd" d="M25.7429 5.47143C26.5143 5.57143 27.2571 5.77143 27.9429 6.05714C28.0429 6.1 28.1571 6.05714 28.2143 5.95714L28.7143 5.08571C28.7714 4.98571 28.9143 4.94286 29.0143 5L30.4571 5.82857C30.5429 5.87143 30.5714 5.95714 30.5714 6.05714C30.5714 5.98571 30.5286 5.92857 30.4571 5.9L29.0143 5.07143C28.9143 5.01429 28.7714 5.04286 28.7143 5.15714L28.2143 6.02857C28.1571 6.12857 28.0429 6.17143 27.9429 6.12857C27.2429 5.84286 26.5 5.64286 25.7429 5.54286C25.6286 5.52857 25.5571 5.42857 25.5571 5.32857V5.27143C25.5571 5.38571 25.6429 5.47143 25.7429 5.48571V5.47143ZM30.0286 7.15714C30.0286 7.15714 30.0714 7.27143 30.1143 7.3C30.7143 7.77143 31.2571 8.31429 31.7286 8.91429C31.8 9 31.9143 9.02857 32.0143 8.97143L32.8857 8.47143C32.9857 8.41429 33.1286 8.44286 33.1857 8.55714L34.0143 10C34.0143 10 34.0429 10.1 34.0429 10.1429C34.0429 10.1143 34.0429 10.0857 34.0143 10.0571L33.1857 8.61429C33.1286 8.51429 32.9857 8.47143 32.8857 8.52857L32.0143 9.02857C31.9143 9.08571 31.8 9.05714 31.7286 8.97143C31.2571 8.37143 30.7143 7.82857 30.1143 7.35714C30.0429 7.3 30.0143 7.22857 30.0286 7.15714ZM32.9571 11.0286C32.9571 11.0286 32.9571 11.0714 32.9714 11.0857C33.2571 11.7857 33.4571 12.5286 33.5571 13.2857C33.5714 13.4 33.6714 13.4714 33.7714 13.4714H34.7714C34.9 13.4714 35 13.5714 35 13.7V13.7571C35 13.6286 34.9 13.5286 34.7714 13.5286H33.7714C33.6571 13.5286 33.5714 13.4429 33.5571 13.3429C33.4571 12.5714 33.2571 11.8286 32.9714 11.1429C32.9571 11.1 32.9571 11.0714 32.9571 11.0286ZM32.9571 18.1C32.9571 18.1 33 18.2286 33.0714 18.2571L33.9429 18.7571C34.0286 18.8 34.0571 18.9 34.0571 18.9857C34.0571 18.9143 34.0143 18.8571 33.9429 18.8286L33.0714 18.3286C32.9857 18.2857 32.9571 18.2 32.9571 18.1143V18.1ZM30.0286 21.9714C30.0286 21.9714 30.0286 22.0286 30.0571 22.0571L30.5571 22.9286C30.5571 22.9286 30.5857 23.0143 30.5857 23.0714C30.5857 23.0429 30.5857 23.0143 30.5571 22.9857L30.0571 22.1143C30.0571 22.1143 30.0286 22.0143 30.0286 21.9714ZM18.4143 23.0571C18.4143 23.0571 18.4143 22.9571 18.4429 22.9143L18.9429 22.0429C18.9429 22.0429 18.9714 21.9857 18.9714 21.9571C18.9714 22 18.9714 22.0571 18.9429 22.1L18.4429 22.9714C18.4429 22.9714 18.4143 23.0286 18.4143 23.0571ZM14.9571 18.9857C14.9571 18.9 14.9857 18.8143 15.0714 18.7571L15.9429 18.2571C15.9429 18.2571 16.0429 18.1571 16.0571 18.1C16.0571 18.1857 16.0286 18.2714 15.9429 18.3286L15.0714 18.8286C15.0714 18.8286 14.9714 18.9286 14.9571 18.9857ZM14 13.7571V13.7C14 13.5714 14.1 13.4714 14.2286 13.4714H15.2286C15.3429 13.4714 15.4286 13.3857 15.4429 13.2857C15.5429 12.5143 15.7429 11.7714 16.0286 11.0857C16.0286 11.0714 16.0286 11.0429 16.0429 11.0286C16.0429 11.0714 16.0429 11.1 16.0286 11.1429C15.7429 11.8429 15.5429 12.5857 15.4429 13.3429C15.4286 13.4571 15.3286 13.5286 15.2286 13.5286H14.2286C14.1 13.5286 14 13.6286 14 13.7571ZM14.9571 10.1286C14.9571 10.1286 14.9571 10.0286 14.9857 9.98571L15.8143 8.54286C15.8714 8.44286 16.0143 8.4 16.1143 8.45714L16.9857 8.95714C17.0857 9.01429 17.2 8.98571 17.2714 8.9C17.7429 8.3 18.2857 7.75714 18.8857 7.28571C18.9286 7.24286 18.9571 7.2 18.9714 7.14286C18.9714 7.21429 18.9571 7.3 18.8857 7.34286C18.2857 7.81429 17.7429 8.35714 17.2714 8.95714C17.2 9.04286 17.0857 9.07143 16.9857 9.01429L16.1143 8.51429C16.0143 8.45714 15.8714 8.48571 15.8143 8.6L14.9857 10.0429C14.9857 10.0429 14.9571 10.1 14.9571 10.1286ZM18.4143 6.05714C18.4143 5.97143 18.4429 5.88571 18.5286 5.82857L19.9714 5C20.0714 4.94286 20.2143 4.97143 20.2714 5.08571L20.7714 5.95714C20.8286 6.05714 20.9429 6.1 21.0429 6.05714C21.7429 5.77143 22.4857 5.57143 23.2429 5.47143C23.3571 5.45714 23.4429 5.35714 23.4429 5.25714V5.31429C23.4429 5.42857 23.3571 5.51429 23.2429 5.52857C22.4714 5.62857 21.7286 5.82857 21.0429 6.11429C20.9429 6.15714 20.8286 6.11429 20.7714 6.01429L20.2714 5.14286C20.2143 5.04286 20.0714 5 19.9714 5.05714L18.5286 5.88571C18.5286 5.88571 18.4286 5.98571 18.4143 6.04286V6.05714ZM23.4429 4.28571V4.22857C23.4429 4.1 23.5429 4 23.6714 4H25.3429C25.4714 4 25.5714 4.1 25.5714 4.22857V4.28571C25.5714 4.15714 25.4714 4.05714 25.3429 4.05714H23.6714C23.5429 4.05714 23.4429 4.15714 23.4429 4.28571Z" fill="url(#paint100_linear_4220_63562)"/>
<path fill-rule="evenodd" clip-rule="evenodd" d="M24.5 19.5718C27.2571 19.5718 29.5 17.3289 29.5 14.5718C29.5 11.8146 27.2571 9.57178 24.5 9.57178C21.7429 9.57178 19.5 11.8146 19.5 14.5718C19.5 17.3289 21.7429 19.5718 24.5 19.5718Z" fill="url(#paint101_linear_4220_63562)"/>
<path fill-rule="evenodd" clip-rule="evenodd" d="M24.4993 19.3852C27.1422 19.3852 29.2993 17.228 29.2993 14.5852C29.2993 11.9423 27.1422 9.78516 24.4993 9.78516C21.8565 9.78516 19.6851 11.9423 19.6851 14.5852C19.6851 17.228 21.8422 19.3852 24.4993 19.3852Z" fill="url(#paint102_linear_4220_63562)"/>
<path fill-rule="evenodd" clip-rule="evenodd" d="M24.5005 19.1858C27.0434 19.1858 29.1148 17.1144 29.1148 14.5716C29.1148 12.0287 27.0434 9.95728 24.5005 9.95728C21.9577 9.95728 19.8862 12.0287 19.8862 14.5716C19.8862 17.1144 21.9577 19.1858 24.5005 19.1858Z" fill="url(#paint103_linear_4220_63562)"/>
<path fill-rule="evenodd" clip-rule="evenodd" d="M24.4999 18.9995C26.9427 18.9995 28.9284 17.0138 28.9284 14.5709C28.9284 12.128 26.9427 10.1423 24.4999 10.1423C22.057 10.1423 20.0713 12.128 20.0713 14.5709C20.0713 17.0138 22.057 18.9995 24.4999 18.9995Z" fill="url(#paint104_linear_4220_63562)"/>
<path fill-rule="evenodd" clip-rule="evenodd" d="M24.4992 18.8138C26.8421 18.8138 28.7421 16.9138 28.7421 14.571C28.7421 12.2281 26.8421 10.3281 24.4992 10.3281C22.1563 10.3281 20.2563 12.2281 20.2563 14.571C20.2563 16.9138 22.1563 18.8138 24.4992 18.8138Z" fill="url(#paint105_linear_4220_63562)"/>
<path fill-rule="evenodd" clip-rule="evenodd" d="M24.5 18.6294C26.7286 18.6294 28.5572 16.8151 28.5572 14.5723C28.5572 12.3294 26.7429 10.5151 24.5 10.5151C22.2572 10.5151 20.4429 12.3294 20.4429 14.5723C20.4429 16.8151 22.2572 18.6294 24.5 18.6294Z" fill="url(#paint106_linear_4220_63562)"/>
<path fill-rule="evenodd" clip-rule="evenodd" d="M24.5006 18.4438C26.6291 18.4438 28.372 16.7009 28.372 14.5724C28.372 12.4438 26.6291 10.7009 24.5006 10.7009C22.372 10.7009 20.6292 12.4438 20.6292 14.5724C20.6292 16.7009 22.372 18.4438 24.5006 18.4438Z" fill="url(#paint107_linear_4220_63562)"/>
<path fill-rule="evenodd" clip-rule="evenodd" d="M24.4994 18.2578C26.528 18.2578 28.1709 16.6006 28.1709 14.5863C28.1709 12.5721 26.5137 10.9006 24.4994 10.9006C22.4851 10.9006 20.8137 12.5578 20.8137 14.5863C20.8137 16.6149 22.4709 18.2578 24.4994 18.2578Z" fill="url(#paint108_linear_4220_63562)"/>
<path fill-rule="evenodd" clip-rule="evenodd" d="M24.4999 18.0571C26.4284 18.0571 27.9856 16.4857 27.9856 14.5714C27.9856 12.6571 26.4142 11.0857 24.4999 11.0857C22.5856 11.0857 21.0142 12.6571 21.0142 14.5714C21.0142 16.4857 22.5856 18.0571 24.4999 18.0571Z" fill="url(#paint109_linear_4220_63562)"/>
<path fill-rule="evenodd" clip-rule="evenodd" d="M24.4997 17.8715C26.314 17.8715 27.7997 16.3858 27.7997 14.5715C27.7997 12.7572 26.314 11.2715 24.4997 11.2715C22.6854 11.2715 21.1997 12.7572 21.1997 14.5715C21.1997 16.3858 22.6854 17.8715 24.4997 17.8715Z" fill="url(#paint110_linear_4220_63562)"/>
<path fill-rule="evenodd" clip-rule="evenodd" d="M24.4998 17.6858C26.2141 17.6858 27.6141 16.2858 27.6141 14.5716C27.6141 12.8573 26.2141 11.4573 24.4998 11.4573C22.7855 11.4573 21.3855 12.8573 21.3855 14.5716C21.3855 16.2858 22.7855 17.6858 24.4998 17.6858Z" fill="url(#paint111_linear_4220_63562)"/>
<path fill-rule="evenodd" clip-rule="evenodd" d="M24.5006 17.5007C26.1149 17.5007 27.4292 16.1864 27.4292 14.5721C27.4292 12.9578 26.1149 11.6436 24.5006 11.6436C22.8863 11.6436 21.572 12.9578 21.572 14.5721C21.572 16.1864 22.8863 17.5007 24.5006 17.5007Z" fill="url(#paint112_linear_4220_63562)"/>
<path fill-rule="evenodd" clip-rule="evenodd" d="M24.4999 17.3143C26.0142 17.3143 27.2428 16.0858 27.2428 14.5715C27.2428 13.0572 26.0142 11.8286 24.4999 11.8286C22.9857 11.8286 21.7571 13.0572 21.7571 14.5715C21.7571 16.0858 22.9857 17.3143 24.4999 17.3143Z" fill="url(#paint113_linear_4220_63562)"/>
<path fill-rule="evenodd" clip-rule="evenodd" d="M24.4993 17.128C25.8993 17.128 27.0564 15.9851 27.0564 14.5708C27.0564 13.1565 25.9136 12.0137 24.4993 12.0137C23.085 12.0137 21.9421 13.1565 21.9421 14.5708C21.9421 15.9851 23.085 17.128 24.4993 17.128Z" fill="url(#paint114_linear_4220_63562)"/>
<path fill-rule="evenodd" clip-rule="evenodd" d="M24.4997 16.9286C25.7997 16.9286 26.8569 15.8715 26.8569 14.5715C26.8569 13.2715 25.7997 12.2144 24.4997 12.2144C23.1997 12.2144 22.1426 13.2715 22.1426 14.5715C22.1426 15.8715 23.1997 16.9286 24.4997 16.9286Z" fill="url(#paint115_linear_4220_63562)"/>
<path fill-rule="evenodd" clip-rule="evenodd" d="M24.5003 16.7435C25.7003 16.7435 26.6717 15.7721 26.6717 14.5721C26.6717 13.3721 25.7003 12.4006 24.5003 12.4006C23.3003 12.4006 22.3289 13.3721 22.3289 14.5721C22.3289 15.7721 23.3003 16.7435 24.5003 16.7435Z" fill="url(#paint116_linear_4220_63562)"/>
<path fill-rule="evenodd" clip-rule="evenodd" d="M24.4996 16.5571C25.5996 16.5571 26.4853 15.6714 26.4853 14.5714C26.4853 13.4714 25.5996 12.5857 24.4996 12.5857C23.3996 12.5857 22.5139 13.4714 22.5139 14.5714C22.5139 15.6714 23.3996 16.5571 24.4996 16.5571Z" fill="url(#paint117_linear_4220_63562)"/>
<path fill-rule="evenodd" clip-rule="evenodd" d="M24.5004 16.372C25.4862 16.372 26.3004 15.5577 26.3004 14.572C26.3004 13.5863 25.4862 12.772 24.5004 12.772C23.5147 12.772 22.7004 13.5863 22.7004 14.572C22.7004 15.5577 23.5147 16.372 24.5004 16.372Z" fill="url(#paint118_linear_4220_63562)"/>
<path fill-rule="evenodd" clip-rule="evenodd" d="M24.4991 16.1856C25.3848 16.1856 26.1133 15.457 26.1133 14.5713C26.1133 13.6856 25.3848 12.957 24.4991 12.957C23.6133 12.957 22.8848 13.6856 22.8848 14.5713C22.8848 15.457 23.6133 16.1856 24.4991 16.1856Z" fill="url(#paint119_linear_4220_63562)"/>
<path fill-rule="evenodd" clip-rule="evenodd" d="M24.4999 15.9995C25.2856 15.9995 25.9284 15.3566 25.9284 14.5709C25.9284 13.7852 25.2856 13.1423 24.4999 13.1423C23.7141 13.1423 23.0713 13.7852 23.0713 14.5709C23.0713 15.3566 23.7141 15.9995 24.4999 15.9995Z" fill="url(#paint120_linear_4220_63562)"/>
<path fill-rule="evenodd" clip-rule="evenodd" d="M24.5003 15.7999C25.186 15.7999 25.7289 15.2428 25.7289 14.5713C25.7289 13.8999 25.1717 13.3428 24.5003 13.3428C23.8289 13.3428 23.2717 13.8999 23.2717 14.5713C23.2717 15.2428 23.8289 15.7999 24.5003 15.7999Z" fill="url(#paint121_linear_4220_63562)"/>
<path fill-rule="evenodd" clip-rule="evenodd" d="M24.4996 15.6148C25.0711 15.6148 25.5425 15.1433 25.5425 14.5719C25.5425 14.0005 25.0711 13.5291 24.4996 13.5291C23.9282 13.5291 23.4568 14.0005 23.4568 14.5719C23.4568 15.1433 23.9282 15.6148 24.4996 15.6148Z" fill="url(#paint122_linear_4220_63562)"/>
<path fill-rule="evenodd" clip-rule="evenodd" d="M24.5 9.57178C27.2571 9.57178 29.5 11.8146 29.5 14.5718C29.5 17.3289 27.2571 19.5718 24.5 19.5718C21.7429 19.5718 19.5 17.3289 19.5 14.5718C19.5 11.8146 21.7429 9.57178 24.5 9.57178ZM24.5 9.95749C21.9571 9.95749 19.8857 12.0289 19.8857 14.5718C19.8857 17.1146 21.9571 19.1861 24.5 19.1861C27.0429 19.1861 29.1143 17.1146 29.1143 14.5718C29.1143 12.0289 27.0429 9.95749 24.5 9.95749Z" fill="url(#paint123_linear_4220_63562)"/>
<path fill-rule="evenodd" clip-rule="evenodd" d="M24.5 9.57178C27.2571 9.57178 29.5 11.8146 29.5 14.5718V14.6146C29.4714 11.8718 27.2429 9.65749 24.5 9.65749C21.7571 9.65749 19.5286 11.8718 19.5 14.6146V14.5718C19.5 11.8146 21.7429 9.57178 24.5 9.57178Z" fill="url(#paint124_linear_4220_63562)"/>
<path fill-rule="evenodd" clip-rule="evenodd" d="M24.5 19.6427C27.2571 19.6427 29.5 17.3999 29.5 14.6427V14.5999C29.4714 17.3427 27.2429 19.557 24.5 19.557C21.7571 19.557 19.5286 17.3427 19.5 14.5999V14.6427C19.5 17.3999 21.7429 19.6427 24.5 19.6427Z" fill="url(#paint125_linear_4220_63562)"/>
<path fill-rule="evenodd" clip-rule="evenodd" d="M24.4996 6.729C28.7853 6.729 32.2567 10.2004 32.2567 14.4861C32.2567 18.7719 28.7853 22.2433 24.4996 22.2433C20.2139 22.2433 16.7424 18.7719 16.7424 14.4861C16.7424 10.2004 20.2139 6.729 24.4996 6.729ZM24.4996 6.90043C20.3139 6.90043 16.9139 10.3004 16.9139 14.4861C16.9139 18.6719 20.3139 22.0719 24.4996 22.0719C28.6853 22.0719 32.0853 18.6719 32.0853 14.4861C32.0853 10.3004 28.6853 6.90043 24.4996 6.90043Z" fill="url(#paint126_linear_4220_63562)"/>
<path fill-rule="evenodd" clip-rule="evenodd" d="M24.5009 17.2579C25.9866 17.2579 27.1866 16.0436 27.1866 14.5722C27.1866 13.1008 25.9723 11.8865 24.5009 11.8865C23.0295 11.8865 21.8152 13.1008 21.8152 14.5722C21.8152 16.0436 23.0295 17.2579 24.5009 17.2579Z" fill="url(#paint127_linear_4220_63562)"/>
<path fill-rule="evenodd" clip-rule="evenodd" d="M24.4999 17.1722C25.9285 17.1722 27.0999 16.0007 27.0999 14.5722C27.0999 13.1436 25.9285 11.9722 24.4999 11.9722C23.0713 11.9722 21.8999 13.1436 21.8999 14.5722C21.8999 16.0007 23.0713 17.1722 24.4999 17.1722Z" fill="url(#paint128_radial_4220_63562)"/>
<defs>
<linearGradient id="paint0_linear_4220_63562" x1="23.9982" y1="42.0103" x2="23.9982" y2="13" gradientUnits="userSpaceOnUse">
<stop stop-color="#ED7123"/>
<stop offset="0.4" stop-color="#EC7423"/>
<stop offset="0.75" stop-color="#EA7F23"/>
<stop offset="1" stop-color="#E98C23"/>
</linearGradient>
<linearGradient id="paint1_linear_4220_63562" x1="23.9983" y1="41.7193" x2="23.9983" y2="14.2432" gradientUnits="userSpaceOnUse">
<stop stop-color="#FCF8CA"/>
<stop offset="0.07" stop-color="#FCF5B4"/>
<stop offset="0.16" stop-color="#FCF4A3"/>
<stop offset="0.25" stop-color="#FCF399"/>
<stop offset="0.36" stop-color="#FCF396"/>
<stop offset="0.49" stop-color="#FCF399"/>
<stop offset="0.62" stop-color="#FCF4A5"/>
<stop offset="0.74" stop-color="#FCF6B8"/>
<stop offset="0.85" stop-color="#FDF9D2"/>
<stop offset="0.97" stop-color="#FEFDF4"/>
<stop offset="1" stop-color="white"/>
</linearGradient>
<linearGradient id="paint2_linear_4220_63562" x1="23.9979" y1="41.3375" x2="23.9979" y2="13.8032" gradientUnits="userSpaceOnUse">
<stop stop-color="#FBEB47"/>
<stop offset="0.07" stop-color="#FCD428"/>
<stop offset="0.14" stop-color="#FEC311"/>
<stop offset="0.2" stop-color="#FEB904"/>
<stop offset="0.25" stop-color="#FFB600"/>
<stop offset="0.31" stop-color="#FEBA03"/>
<stop offset="0.76" stop-color="#FCDF1A"/>
<stop offset="1" stop-color="#FCED23"/>
</linearGradient>
<linearGradient id="paint3_linear_4220_63562" x1="23.9836" y1="41.7194" x2="23.9836" y2="23.5498" gradientUnits="userSpaceOnUse">
<stop stop-color="white"/>
<stop offset="0.5" stop-color="#FDEA41"/>
<stop offset="0.74" stop-color="#FCF4A5"/>
<stop offset="0.8" stop-color="#FCF2A1"/>
<stop offset="0.85" stop-color="#FCEF96"/>
<stop offset="0.9" stop-color="#FCEA85"/>
<stop offset="0.94" stop-color="#FDE26C"/>
<stop offset="0.99" stop-color="#FED84C"/>
<stop offset="1" stop-color="#FFD541"/>
</linearGradient>
<linearGradient id="paint4_linear_4220_63562" x1="23.9836" y1="41.4394" x2="23.9836" y2="23.8333" gradientUnits="userSpaceOnUse">
<stop stop-color="#FAF076"/>
<stop offset="0.01" stop-color="#FAEC6A"/>
<stop offset="0.06" stop-color="#FBE04A"/>
<stop offset="0.11" stop-color="#FBD72F"/>
<stop offset="0.16" stop-color="#FCD01A"/>
<stop offset="0.22" stop-color="#FCCA0B"/>
<stop offset="0.29" stop-color="#FCC702"/>
<stop offset="0.4" stop-color="#FDC700"/>
<stop offset="0.45" stop-color="#FDCA05"/>
<stop offset="0.81" stop-color="#FEE12E"/>
<stop offset="1" stop-color="#FFEB3E"/>
</linearGradient>
<linearGradient id="paint5_linear_4220_63562" x1="24.0161" y1="31.4023" x2="24.0161" y2="23.8335" gradientUnits="userSpaceOnUse">
<stop stop-color="#FDC600"/>
<stop offset="0.13" stop-color="#FDC40B"/>
<stop offset="0.37" stop-color="#FEC31C"/>
<stop offset="0.65" stop-color="#FEC225"/>
<stop offset="1" stop-color="#FFC229"/>
</linearGradient>
<linearGradient id="paint6_linear_4220_63562" x1="15.0445" y1="21.3179" x2="9.23877" y2="21.3179" gradientUnits="userSpaceOnUse">
<stop stop-color="#FFB806"/>
<stop offset="0.39" stop-color="#FEB304"/>
<stop offset="0.84" stop-color="#FBA501"/>
<stop offset="1" stop-color="#FA9F00"/>
</linearGradient>
<linearGradient id="paint7_linear_4220_63562" x1="35.9335" y1="24.3134" x2="35.9335" y2="18.5332" gradientUnits="userSpaceOnUse">
<stop stop-color="#FFB806"/>
<stop offset="0.39" stop-color="#FEB304"/>
<stop offset="0.84" stop-color="#FBA501"/>
<stop offset="1" stop-color="#FA9F00"/>
</linearGradient>
<linearGradient id="paint8_linear_4220_63562" x1="24.0202" y1="29.4972" x2="24.0202" y2="13.5779" gradientUnits="userSpaceOnUse">
<stop stop-color="#FCB614"/>
<stop offset="0.27" stop-color="#F9A817"/>
<stop offset="0.66" stop-color="#F7991B"/>
<stop offset="1" stop-color="#F7951D"/>
</linearGradient>
<linearGradient id="paint9_linear_4220_63562" x1="24.0456" y1="28.9188" x2="24.0456" y2="13.3994" gradientUnits="userSpaceOnUse">
<stop stop-color="white"/>
<stop offset="0.5" stop-color="#FDEA3F"/>
<stop offset="1" stop-color="white"/>
</linearGradient>
<linearGradient id="paint10_linear_4220_63562" x1="24.0961" y1="28.4326" x2="24.0961" y2="13.6875" gradientUnits="userSpaceOnUse">
<stop stop-color="#FCF397"/>
<stop offset="0.4" stop-color="#FFDF0D"/>
<stop offset="0.57" stop-color="#FEDF0F"/>
<stop offset="0.68" stop-color="#FEE118"/>
<stop offset="0.78" stop-color="#FCE527"/>
<stop offset="0.86" stop-color="#FBEA3D"/>
<stop offset="0.9" stop-color="#FAEE4A"/>
<stop offset="1" stop-color="white"/>
</linearGradient>
<linearGradient id="paint11_linear_4220_63562" x1="24.1219" y1="21.4632" x2="24.1219" y2="13.9089" gradientUnits="userSpaceOnUse">
<stop stop-color="#FDE954"/>
<stop offset="0.14" stop-color="#FDEB65"/>
<stop offset="0.43" stop-color="#FDF193"/>
<stop offset="0.82" stop-color="#FEFADB"/>
<stop offset="1" stop-color="white"/>
</linearGradient>
<radialGradient id="paint12_radial_4220_63562" cx="0" cy="0" r="1" gradientUnits="userSpaceOnUse" gradientTransform="translate(25.7571 22.5288) scale(21.9286)">
<stop stop-color="#A7A9AC"/>
<stop offset="0.22" stop-color="#6D6E71"/>
<stop offset="0.45" stop-color="#A7A9AC"/>
<stop offset="0.54" stop-color="#D1D3D4"/>
<stop offset="0.79" stop-color="#AFB1B4"/>
<stop offset="1" stop-color="#C9CBCD"/>
</radialGradient>
<linearGradient id="paint13_linear_4220_63562" x1="14.7859" y1="5.4717" x2="34.2144" y2="23.6003" gradientUnits="userSpaceOnUse">
<stop stop-color="#E6E7E8"/>
<stop offset="0.21" stop-color="#A7A9AC"/>
<stop offset="0.46" stop-color="#E6E7E8"/>
<stop offset="0.55" stop-color="#BABCBE"/>
<stop offset="0.64" stop-color="#AAABAD"/>
<stop offset="0.71" stop-color="#E6E7E8"/>
<stop offset="0.87" stop-color="#E6E7E8"/>
<stop offset="1" stop-color="#E6E7E8"/>
</linearGradient>
<linearGradient id="paint14_linear_4220_63562" x1="14.9993" y1="5.67201" x2="33.9993" y2="23.3863" gradientUnits="userSpaceOnUse">
<stop stop-color="#E5E6E7"/>
<stop offset="0.21" stop-color="#A7AAAC"/>
<stop offset="0.46" stop-color="#E6E7E8"/>
<stop offset="0.55" stop-color="#BBBDBF"/>
<stop offset="0.64" stop-color="#ABACAE"/>
<stop offset="0.71" stop-color="#E4E5E6"/>
<stop offset="0.87" stop-color="#E2E2E4"/>
<stop offset="1" stop-color="#E6E7E8"/>
</linearGradient>
<linearGradient id="paint15_linear_4220_63562" x1="15.2142" y1="5.88564" x2="33.7857" y2="23.1856" gradientUnits="userSpaceOnUse">
<stop stop-color="#E3E4E5"/>
<stop offset="0.21" stop-color="#A8AAAD"/>
<stop offset="0.46" stop-color="#E6E7E8"/>
<stop offset="0.55" stop-color="#BCBEC0"/>
<stop offset="0.64" stop-color="#ACADAF"/>
<stop offset="0.71" stop-color="#E1E2E3"/>
<stop offset="0.87" stop-color="#DEDEE0"/>
<stop offset="1" stop-color="#E6E7E8"/>
</linearGradient>
<linearGradient id="paint16_linear_4220_63562" x1="15.4429" y1="6.08657" x2="33.5572" y2="22.9866" gradientUnits="userSpaceOnUse">
<stop stop-color="#E2E3E4"/>
<stop offset="0.21" stop-color="#A8AAAD"/>
<stop offset="0.46" stop-color="#E6E7E8"/>
<stop offset="0.55" stop-color="#BDBEC1"/>
<stop offset="0.64" stop-color="#ADAEB0"/>
<stop offset="0.71" stop-color="#DFE0E1"/>
<stop offset="0.87" stop-color="#DBDBDC"/>
<stop offset="1" stop-color="#E6E7E8"/>
</linearGradient>
<linearGradient id="paint17_linear_4220_63562" x1="15.6576" y1="6.2864" x2="33.3433" y2="22.7864" gradientUnits="userSpaceOnUse">
<stop stop-color="#E0E2E3"/>
<stop offset="0.21" stop-color="#A9ABAD"/>
<stop offset="0.46" stop-color="#E6E7E8"/>
<stop offset="0.55" stop-color="#BDBFC1"/>
<stop offset="0.64" stop-color="#AEAFB1"/>
<stop offset="0.71" stop-color="#DDDDDF"/>
<stop offset="0.87" stop-color="#D7D7D9"/>
<stop offset="1" stop-color="#E6E7E8"/>
</linearGradient>
<linearGradient id="paint18_linear_4220_63562" x1="15.8723" y1="6.48671" x2="33.1295" y2="22.5724" gradientUnits="userSpaceOnUse">
<stop stop-color="#DFE0E2"/>
<stop offset="0.21" stop-color="#A9ABAE"/>
<stop offset="0.46" stop-color="#E6E7E8"/>
<stop offset="0.55" stop-color="#BEC0C2"/>
<stop offset="0.64" stop-color="#AEB0B2"/>
<stop offset="0.71" stop-color="#DBDBDC"/>
<stop offset="0.87" stop-color="#D4D4D6"/>
<stop offset="1" stop-color="#E6E7E8"/>
</linearGradient>
<linearGradient id="paint19_linear_4220_63562" x1="16.0864" y1="6.70058" x2="32.9007" y2="22.372" gradientUnits="userSpaceOnUse">
<stop stop-color="#DDDFE0"/>
<stop offset="0.21" stop-color="#A9ACAE"/>
<stop offset="0.46" stop-color="#E6E7E8"/>
<stop offset="0.55" stop-color="#BFC1C3"/>
<stop offset="0.64" stop-color="#AFB1B3"/>
<stop offset="0.71" stop-color="#D9D9DB"/>
<stop offset="0.87" stop-color="#D1D1D3"/>
<stop offset="1" stop-color="#E6E7E8"/>
</linearGradient>
<linearGradient id="paint20_linear_4220_63562" x1="16.314" y1="6.90066" x2="32.6854" y2="22.1721" gradientUnits="userSpaceOnUse">
<stop stop-color="#DCDDDF"/>
<stop offset="0.21" stop-color="#AAACAE"/>
<stop offset="0.46" stop-color="#E6E7E8"/>
<stop offset="0.55" stop-color="#C0C2C4"/>
<stop offset="0.64" stop-color="#B0B2B4"/>
<stop offset="0.71" stop-color="#D7D7D9"/>
<stop offset="0.87" stop-color="#CFCED0"/>
<stop offset="1" stop-color="#E6E7E8"/>
</linearGradient>
<linearGradient id="paint21_linear_4220_63562" x1="16.5286" y1="7.1006" x2="32.4714" y2="21.972" gradientUnits="userSpaceOnUse">
<stop stop-color="#DBDCDE"/>
<stop offset="0.21" stop-color="#AAACAF"/>
<stop offset="0.46" stop-color="#E6E7E8"/>
<stop offset="0.55" stop-color="#C1C3C5"/>
<stop offset="0.64" stop-color="#B1B3B5"/>
<stop offset="0.71" stop-color="#D5D5D7"/>
<stop offset="0.87" stop-color="#CCCBCD"/>
<stop offset="1" stop-color="#E6E7E8"/>
</linearGradient>
<linearGradient id="paint22_linear_4220_63562" x1="16.7428" y1="7.30068" x2="32.2571" y2="21.7578" gradientUnits="userSpaceOnUse">
<stop stop-color="#D9DBDC"/>
<stop offset="0.21" stop-color="#ABADAF"/>
<stop offset="0.46" stop-color="#E6E7E8"/>
<stop offset="0.55" stop-color="#C2C4C6"/>
<stop offset="0.64" stop-color="#B2B4B5"/>
<stop offset="0.71" stop-color="#D3D4D5"/>
<stop offset="0.87" stop-color="#C9C8CB"/>
<stop offset="1" stop-color="#E6E7E8"/>
</linearGradient>
<linearGradient id="paint23_linear_4220_63562" x1="16.9718" y1="7.51454" x2="32.029" y2="21.5574" gradientUnits="userSpaceOnUse">
<stop stop-color="#D8D9DB"/>
<stop offset="0.21" stop-color="#ABADB0"/>
<stop offset="0.46" stop-color="#E6E7E8"/>
<stop offset="0.55" stop-color="#C3C5C7"/>
<stop offset="0.64" stop-color="#B3B5B6"/>
<stop offset="0.71" stop-color="#D2D2D3"/>
<stop offset="0.87" stop-color="#C6C6C8"/>
<stop offset="1" stop-color="#E6E7E8"/>
</linearGradient>
<linearGradient id="paint24_linear_4220_63562" x1="17.1857" y1="7.71572" x2="31.8143" y2="21.3586" gradientUnits="userSpaceOnUse">
<stop stop-color="#D6D8DA"/>
<stop offset="0.21" stop-color="#ABADB0"/>
<stop offset="0.46" stop-color="#E6E7E8"/>
<stop offset="0.55" stop-color="#C4C6C8"/>
<stop offset="0.64" stop-color="#B4B5B7"/>
<stop offset="0.71" stop-color="#D0D0D1"/>
<stop offset="0.87" stop-color="#C3C3C5"/>
<stop offset="1" stop-color="#E6E7E8"/>
</linearGradient>
<linearGradient id="paint25_linear_4220_63562" x1="17.4004" y1="7.91493" x2="31.6004" y2="21.1578" gradientUnits="userSpaceOnUse">
<stop stop-color="#D5D7D9"/>
<stop offset="0.21" stop-color="#ACAEB0"/>
<stop offset="0.46" stop-color="#E6E7E8"/>
<stop offset="0.55" stop-color="#C5C6C9"/>
<stop offset="0.64" stop-color="#B5B6B8"/>
<stop offset="0.71" stop-color="#CECED0"/>
<stop offset="0.87" stop-color="#C1C0C3"/>
<stop offset="1" stop-color="#E6E7E8"/>
</linearGradient>
<linearGradient id="paint26_linear_4220_63562" x1="17.6143" y1="8.11488" x2="31.3714" y2="20.9435" gradientUnits="userSpaceOnUse">
<stop stop-color="#D4D6D7"/>
<stop offset="0.21" stop-color="#ACAEB1"/>
<stop offset="0.46" stop-color="#E6E7E8"/>
<stop offset="0.55" stop-color="#C6C7C9"/>
<stop offset="0.64" stop-color="#B6B7B9"/>
<stop offset="0.71" stop-color="#CCCCCE"/>
<stop offset="0.87" stop-color="#BEBDC0"/>
<stop offset="1" stop-color="#E6E7E8"/>
</linearGradient>
<linearGradient id="paint27_linear_4220_63562" x1="17.8433" y1="8.32924" x2="31.1576" y2="20.7435" gradientUnits="userSpaceOnUse">
<stop stop-color="#D2D4D6"/>
<stop offset="0.21" stop-color="#ADAFB1"/>
<stop offset="0.46" stop-color="#E6E7E8"/>
<stop offset="0.55" stop-color="#C7C8CA"/>
<stop offset="0.64" stop-color="#B7B8BA"/>
<stop offset="0.71" stop-color="#CBCBCC"/>
<stop offset="0.87" stop-color="#BBBBBE"/>
<stop offset="1" stop-color="#E6E7E8"/>
</linearGradient>
<linearGradient id="paint28_linear_4220_63562" x1="18.0575" y1="8.52956" x2="30.9432" y2="20.5438" gradientUnits="userSpaceOnUse">
<stop stop-color="#D1D3D5"/>
<stop offset="0.21" stop-color="#ADAFB2"/>
<stop offset="0.46" stop-color="#E6E7E8"/>
<stop offset="0.55" stop-color="#C7C9CB"/>
<stop offset="0.64" stop-color="#B8B9BB"/>
<stop offset="0.71" stop-color="#C9C9CB"/>
<stop offset="0.87" stop-color="#B8B8BB"/>
<stop offset="1" stop-color="#E6E7E8"/>
</linearGradient>
<linearGradient id="paint29_linear_4220_63562" x1="18.2714" y1="8.72877" x2="30.7143" y2="20.3431" gradientUnits="userSpaceOnUse">
<stop stop-color="#D0D2D3"/>
<stop offset="0.21" stop-color="#ADAFB2"/>
<stop offset="0.46" stop-color="#E6E7E8"/>
<stop offset="0.55" stop-color="#C8CACC"/>
<stop offset="0.64" stop-color="#B9BABC"/>
<stop offset="0.71" stop-color="#C7C7C9"/>
<stop offset="0.87" stop-color="#B6B5B9"/>
<stop offset="1" stop-color="#E6E7E8"/>
</linearGradient>
<linearGradient id="paint30_linear_4220_63562" x1="18.5004" y1="8.92921" x2="30.5004" y2="20.1292" gradientUnits="userSpaceOnUse">
<stop stop-color="#CED0D2"/>
<stop offset="0.21" stop-color="#AEB0B2"/>
<stop offset="0.46" stop-color="#E6E7E8"/>
<stop offset="0.55" stop-color="#C9CBCD"/>
<stop offset="0.64" stop-color="#BABBBD"/>
<stop offset="0.71" stop-color="#C6C5C7"/>
<stop offset="0.87" stop-color="#B3B2B6"/>
<stop offset="1" stop-color="#E6E7E8"/>
</linearGradient>
<linearGradient id="paint31_linear_4220_63562" x1="18.7155" y1="9.14344" x2="30.2869" y2="19.9292" gradientUnits="userSpaceOnUse">
<stop stop-color="#CDCFD1"/>
<stop offset="0.21" stop-color="#AEB0B3"/>
<stop offset="0.46" stop-color="#E6E7E8"/>
<stop offset="0.55" stop-color="#CACCCE"/>
<stop offset="0.64" stop-color="#BABCBD"/>
<stop offset="0.71" stop-color="#C4C4C6"/>
<stop offset="0.87" stop-color="#B0B0B4"/>
<stop offset="1" stop-color="#E6E7E8"/>
</linearGradient>
<linearGradient id="paint32_linear_4220_63562" x1="18.929" y1="9.34352" x2="30.0719" y2="19.7292" gradientUnits="userSpaceOnUse">
<stop stop-color="#CCCED0"/>
<stop offset="0.21" stop-color="#AFB1B3"/>
<stop offset="0.46" stop-color="#E6E7E8"/>
<stop offset="0.55" stop-color="#CBCDCF"/>
<stop offset="0.64" stop-color="#BBBDBE"/>
<stop offset="0.71" stop-color="#C2C2C4"/>
<stop offset="0.87" stop-color="#AEADB1"/>
<stop offset="1" stop-color="#E6E7E8"/>
</linearGradient>
<linearGradient id="paint33_linear_4220_63562" x1="19.1575" y1="9.5442" x2="29.8432" y2="19.5156" gradientUnits="userSpaceOnUse">
<stop stop-color="#CACDCF"/>
<stop offset="0.21" stop-color="#AFB1B3"/>
<stop offset="0.46" stop-color="#E6E7E8"/>
<stop offset="0.55" stop-color="#CCCECF"/>
<stop offset="0.64" stop-color="#BCBEBF"/>
<stop offset="0.71" stop-color="#C1C0C3"/>
<stop offset="0.87" stop-color="#ABABAF"/>
<stop offset="1" stop-color="#E6E7E8"/>
</linearGradient>
<linearGradient id="paint34_linear_4220_63562" x1="19.3714" y1="9.75783" x2="29.6285" y2="19.315" gradientUnits="userSpaceOnUse">
<stop stop-color="#C9CBCD"/>
<stop offset="0.21" stop-color="#AFB1B4"/>
<stop offset="0.46" stop-color="#E6E7E8"/>
<stop offset="0.55" stop-color="#CDCFD0"/>
<stop offset="0.64" stop-color="#BDBEC0"/>
<stop offset="0.71" stop-color="#BFBFC1"/>
<stop offset="0.87" stop-color="#A9A8AC"/>
<stop offset="1" stop-color="#E6E7E8"/>
</linearGradient>
<linearGradient id="paint35_linear_4220_63562" x1="24.5008" y1="22.2433" x2="24.5008" y2="6.67184" gradientUnits="userSpaceOnUse">
<stop stop-color="#007FBF"/>
<stop offset="1" stop-color="#007FBF"/>
</linearGradient>
<linearGradient id="paint36_linear_4220_63562" x1="24.5002" y1="22.2431" x2="24.5002" y2="6.78599" gradientUnits="userSpaceOnUse">
<stop stop-color="#007FBF"/>
<stop offset="1" stop-color="#0082C1"/>
</linearGradient>
<linearGradient id="paint37_linear_4220_63562" x1="24.5004" y1="22.2431" x2="24.5004" y2="6.88597" gradientUnits="userSpaceOnUse">
<stop stop-color="#007FBF"/>
<stop offset="1" stop-color="#0084C2"/>
</linearGradient>
<linearGradient id="paint38_linear_4220_63562" x1="24.5003" y1="22.244" x2="24.5003" y2="7.00109" gradientUnits="userSpaceOnUse">
<stop stop-color="#007FBF"/>
<stop offset="1" stop-color="#0087C4"/>
</linearGradient>
<linearGradient id="paint39_linear_4220_63562" x1="24.5004" y1="22.2434" x2="24.5004" y2="7.10059" gradientUnits="userSpaceOnUse">
<stop stop-color="#007FBF"/>
<stop offset="1" stop-color="#0089C6"/>
</linearGradient>
<linearGradient id="paint40_linear_4220_63562" x1="24.4994" y1="22.2293" x2="24.4994" y2="7.2007" gradientUnits="userSpaceOnUse">
<stop stop-color="#007FBF"/>
<stop offset="1" stop-color="#008CC8"/>
</linearGradient>
<linearGradient id="paint41_linear_4220_63562" x1="24.5007" y1="22.2292" x2="24.5007" y2="7.30068" gradientUnits="userSpaceOnUse">
<stop stop-color="#007FBF"/>
<stop offset="1" stop-color="#008ECA"/>
</linearGradient>
<linearGradient id="paint42_linear_4220_63562" x1="24.5001" y1="22.2289" x2="24.5001" y2="7.41458" gradientUnits="userSpaceOnUse">
<stop stop-color="#007FBF"/>
<stop offset="1" stop-color="#0091CC"/>
</linearGradient>
<linearGradient id="paint43_linear_4220_63562" x1="24.4998" y1="22.2297" x2="24.4998" y2="7.51542" gradientUnits="userSpaceOnUse">
<stop stop-color="#007FBF"/>
<stop offset="1" stop-color="#0094CE"/>
</linearGradient>
<linearGradient id="paint44_linear_4220_63562" x1="24.5012" y1="22.2154" x2="24.5012" y2="7.6154" gradientUnits="userSpaceOnUse">
<stop stop-color="#007FBF"/>
<stop offset="1" stop-color="#0096D0"/>
</linearGradient>
<linearGradient id="paint45_linear_4220_63562" x1="24.4998" y1="22.215" x2="24.4998" y2="7.71502" gradientUnits="userSpaceOnUse">
<stop stop-color="#007FBF"/>
<stop offset="1" stop-color="#0099D2"/>
</linearGradient>
<linearGradient id="paint46_linear_4220_63562" x1="24.5001" y1="22.215" x2="24.5001" y2="7.815" gradientUnits="userSpaceOnUse">
<stop stop-color="#007FBF"/>
<stop offset="1" stop-color="#009BD3"/>
</linearGradient>
<linearGradient id="paint47_linear_4220_63562" x1="24.5002" y1="22.2146" x2="24.5002" y2="7.92891" gradientUnits="userSpaceOnUse">
<stop stop-color="#007FBF"/>
<stop offset="1" stop-color="#009ED5"/>
</linearGradient>
<linearGradient id="paint48_linear_4220_63562" x1="24.5004" y1="22.2014" x2="24.5004" y2="8.02999" gradientUnits="userSpaceOnUse">
<stop stop-color="#007FBF"/>
<stop offset="1" stop-color="#00A1D7"/>
</linearGradient>
<linearGradient id="paint49_linear_4220_63562" x1="24.5005" y1="22.2012" x2="24.5005" y2="8.12973" gradientUnits="userSpaceOnUse">
<stop stop-color="#007FBF"/>
<stop offset="1" stop-color="#00A3D9"/>
</linearGradient>
<linearGradient id="paint50_linear_4220_63562" x1="24.4999" y1="22.2007" x2="24.4999" y2="8.22922" gradientUnits="userSpaceOnUse">
<stop stop-color="#007FBF"/>
<stop offset="1" stop-color="#00A6DB"/>
</linearGradient>
<linearGradient id="paint51_linear_4220_63562" x1="24.5006" y1="22.2008" x2="24.5006" y2="8.32933" gradientUnits="userSpaceOnUse">
<stop stop-color="#007FBF"/>
<stop offset="1" stop-color="#00A9DD"/>
</linearGradient>
<linearGradient id="paint52_linear_4220_63562" x1="24.5003" y1="22.1861" x2="24.5003" y2="8.42895" gradientUnits="userSpaceOnUse">
<stop stop-color="#007FBF"/>
<stop offset="1" stop-color="#00ACDF"/>
</linearGradient>
<linearGradient id="paint53_linear_4220_63562" x1="24.5001" y1="22.1861" x2="24.5001" y2="8.52893" gradientUnits="userSpaceOnUse">
<stop stop-color="#007FBF"/>
<stop offset="1" stop-color="#00AEE1"/>
</linearGradient>
<linearGradient id="paint54_linear_4220_63562" x1="24.5004" y1="22.1862" x2="24.5004" y2="8.62904" gradientUnits="userSpaceOnUse">
<stop stop-color="#007FBF"/>
<stop offset="1" stop-color="#00B1E3"/>
</linearGradient>
<linearGradient id="paint55_linear_4220_63562" x1="24.5" y1="22.1869" x2="24.5" y2="8.72975" gradientUnits="userSpaceOnUse">
<stop stop-color="#007FBF"/>
<stop offset="1" stop-color="#00B5E5"/>
</linearGradient>
<linearGradient id="paint56_linear_4220_63562" x1="24.5006" y1="22.1717" x2="24.5006" y2="8.81459" gradientUnits="userSpaceOnUse">
<stop stop-color="#007FBF"/>
<stop offset="1" stop-color="#00B9E8"/>
</linearGradient>
<linearGradient id="paint57_linear_4220_63562" x1="24.5145" y1="22.0444" x2="24.5145" y2="8.85866" gradientUnits="userSpaceOnUse">
<stop stop-color="#007FBF"/>
<stop offset="1" stop-color="#00B9E8"/>
</linearGradient>
<linearGradient id="paint58_linear_4220_63562" x1="24.515" y1="21.9297" x2="24.515" y2="8.90113" gradientUnits="userSpaceOnUse">
<stop stop-color="#007FBF"/>
<stop offset="1" stop-color="#00B9E8"/>
</linearGradient>
<linearGradient id="paint59_linear_4220_63562" x1="24.5287" y1="21.8009" x2="24.5287" y2="8.94373" gradientUnits="userSpaceOnUse">
<stop stop-color="#007FBF"/>
<stop offset="1" stop-color="#00B9E8"/>
</linearGradient>
<linearGradient id="paint60_linear_4220_63562" x1="24.5287" y1="21.6723" x2="24.5287" y2="8.98657" gradientUnits="userSpaceOnUse">
<stop stop-color="#007FBF"/>
<stop offset="1" stop-color="#00B9E8"/>
</linearGradient>
<linearGradient id="paint61_linear_4220_63562" x1="24.5426" y1="21.5435" x2="24.5426" y2="9.02917" gradientUnits="userSpaceOnUse">
<stop stop-color="#007FBF"/>
<stop offset="1" stop-color="#00B9E8"/>
</linearGradient>
<linearGradient id="paint62_linear_4220_63562" x1="24.5573" y1="21.4284" x2="24.5573" y2="9.07128" gradientUnits="userSpaceOnUse">
<stop stop-color="#007FBF"/>
<stop offset="1" stop-color="#00B9E8"/>
</linearGradient>
<linearGradient id="paint63_linear_4220_63562" x1="24.5581" y1="21.3011" x2="24.5581" y2="9.11535" gradientUnits="userSpaceOnUse">
<stop stop-color="#007FBF"/>
<stop offset="1" stop-color="#00B9E8"/>
</linearGradient>
<linearGradient id="paint64_linear_4220_63562" x1="24.5727" y1="21.1864" x2="24.5727" y2="9.15782" gradientUnits="userSpaceOnUse">
<stop stop-color="#007FBF"/>
<stop offset="1" stop-color="#00B9E8"/>
</linearGradient>
<linearGradient id="paint65_linear_4220_63562" x1="24.5712" y1="21.0718" x2="24.5712" y2="9.20042" gradientUnits="userSpaceOnUse">
<stop stop-color="#007FBF"/>
<stop offset="1" stop-color="#00B9E8"/>
</linearGradient>
<linearGradient id="paint66_linear_4220_63562" x1="24.5862" y1="20.9437" x2="24.5862" y2="9.24375" gradientUnits="userSpaceOnUse">
<stop stop-color="#007FBF"/>
<stop offset="1" stop-color="#00B9E8"/>
</linearGradient>
<linearGradient id="paint67_linear_4220_63562" x1="24.6001" y1="20.8295" x2="24.6001" y2="9.28659" gradientUnits="userSpaceOnUse">
<stop stop-color="#007FBF"/>
<stop offset="1" stop-color="#00B9E8"/>
</linearGradient>
<linearGradient id="paint68_linear_4220_63562" x1="24.6001" y1="20.7149" x2="24.6001" y2="9.32919" gradientUnits="userSpaceOnUse">
<stop stop-color="#007FBF"/>
<stop offset="1" stop-color="#00B9E8"/>
</linearGradient>
<linearGradient id="paint69_linear_4220_63562" x1="24.6148" y1="20.6011" x2="24.6148" y2="9.37252" gradientUnits="userSpaceOnUse">
<stop stop-color="#007FBF"/>
<stop offset="1" stop-color="#00B9E8"/>
</linearGradient>
<linearGradient id="paint70_linear_4220_63562" x1="24.6144" y1="20.4861" x2="24.6144" y2="9.41463" gradientUnits="userSpaceOnUse">
<stop stop-color="#007FBF"/>
<stop offset="1" stop-color="#00B9E8"/>
</linearGradient>
<linearGradient id="paint71_linear_4220_63562" x1="24.6283" y1="20.3857" x2="24.6283" y2="9.45711" gradientUnits="userSpaceOnUse">
<stop stop-color="#007FBF"/>
<stop offset="1" stop-color="#00B9E8"/>
</linearGradient>
<linearGradient id="paint72_linear_4220_63562" x1="24.6429" y1="20.2726" x2="24.6429" y2="9.50117" gradientUnits="userSpaceOnUse">
<stop stop-color="#007FBF"/>
<stop offset="1" stop-color="#00B9E8"/>
</linearGradient>
<linearGradient id="paint73_linear_4220_63562" x1="24.6433" y1="20.1576" x2="24.6433" y2="9.54328" gradientUnits="userSpaceOnUse">
<stop stop-color="#007FBF"/>
<stop offset="1" stop-color="#00B9E8"/>
</linearGradient>
<linearGradient id="paint74_linear_4220_63562" x1="24.6577" y1="20.058" x2="24.6577" y2="9.58661" gradientUnits="userSpaceOnUse">
<stop stop-color="#007FBF"/>
<stop offset="1" stop-color="#00B9E8"/>
</linearGradient>
<linearGradient id="paint75_linear_4220_63562" x1="24.6716" y1="19.9437" x2="24.6716" y2="9.62946" gradientUnits="userSpaceOnUse">
<stop stop-color="#007FBF"/>
<stop offset="1" stop-color="#00B9E8"/>
</linearGradient>
<linearGradient id="paint76_linear_4220_63562" x1="24.6723" y1="19.8435" x2="24.6723" y2="9.67206" gradientUnits="userSpaceOnUse">
<stop stop-color="#007FBF"/>
<stop offset="1" stop-color="#00B9E8"/>
</linearGradient>
<linearGradient id="paint77_linear_4220_63562" x1="24.6858" y1="19.7431" x2="24.6858" y2="9.71453" gradientUnits="userSpaceOnUse">
<stop stop-color="#007FBF"/>
<stop offset="1" stop-color="#00B9E8"/>
</linearGradient>
<linearGradient id="paint78_linear_4220_63562" x1="24.6426" y1="19.6585" x2="24.6426" y2="9.75848" gradientUnits="userSpaceOnUse">
<stop stop-color="#007EBD"/>
<stop offset="1" stop-color="#00B2E3"/>
</linearGradient>
<linearGradient id="paint79_linear_4220_63562" x1="24.6014" y1="19.5861" x2="24.6014" y2="9.78607" gradientUnits="userSpaceOnUse">
<stop stop-color="#007CBB"/>
<stop offset="1" stop-color="#00AEDE"/>
</linearGradient>
<linearGradient id="paint80_linear_4220_63562" x1="24.5712" y1="19.5013" x2="24.5712" y2="9.81561" gradientUnits="userSpaceOnUse">
<stop stop-color="#007AB9"/>
<stop offset="1" stop-color="#00A9DA"/>
</linearGradient>
<linearGradient id="paint81_linear_4220_63562" x1="24.5297" y1="19.4285" x2="24.5297" y2="9.84283" gradientUnits="userSpaceOnUse">
<stop stop-color="#0079B7"/>
<stop offset="1" stop-color="#00A4D6"/>
</linearGradient>
<linearGradient id="paint82_linear_4220_63562" x1="24.4854" y1="19.3443" x2="24.4854" y2="9.87286" gradientUnits="userSpaceOnUse">
<stop stop-color="#0077B5"/>
<stop offset="1" stop-color="#00A0D2"/>
</linearGradient>
<linearGradient id="paint83_linear_4220_63562" x1="24.4573" y1="19.2719" x2="24.4573" y2="9.90045" gradientUnits="userSpaceOnUse">
<stop stop-color="#0076B3"/>
<stop offset="1" stop-color="#009BCE"/>
</linearGradient>
<linearGradient id="paint84_linear_4220_63562" x1="24.4144" y1="19.187" x2="24.4144" y2="9.92986" gradientUnits="userSpaceOnUse">
<stop stop-color="#0074B1"/>
<stop offset="1" stop-color="#0097CA"/>
</linearGradient>
<linearGradient id="paint85_linear_4220_63562" x1="24.3713" y1="19.1143" x2="24.3713" y2="9.95721" gradientUnits="userSpaceOnUse">
<stop stop-color="#0073B0"/>
<stop offset="1" stop-color="#0093C6"/>
</linearGradient>
<linearGradient id="paint86_linear_4220_63562" x1="24.3285" y1="19.0289" x2="24.3285" y2="9.98601" gradientUnits="userSpaceOnUse">
<stop stop-color="#0071AE"/>
<stop offset="1" stop-color="#008EC2"/>
</linearGradient>
<linearGradient id="paint87_linear_4220_63562" x1="24.3003" y1="18.958" x2="24.3003" y2="10.0152" gradientUnits="userSpaceOnUse">
<stop stop-color="#0070AC"/>
<stop offset="1" stop-color="#008ABF"/>
</linearGradient>
<linearGradient id="paint88_linear_4220_63562" x1="24.2579" y1="18.8721" x2="24.2579" y2="10.0435" gradientUnits="userSpaceOnUse">
<stop stop-color="#006EAA"/>
<stop offset="1" stop-color="#0086BB"/>
</linearGradient>
<linearGradient id="paint89_linear_4220_63562" x1="24.2145" y1="18.8009" x2="24.2145" y2="10.0723" gradientUnits="userSpaceOnUse">
<stop stop-color="#006DA9"/>
<stop offset="1" stop-color="#0082B7"/>
</linearGradient>
<linearGradient id="paint90_linear_4220_63562" x1="24.1862" y1="18.715" x2="24.1862" y2="10.1008" gradientUnits="userSpaceOnUse">
<stop stop-color="#006BA7"/>
<stop offset="1" stop-color="#007EB4"/>
</linearGradient>
<linearGradient id="paint91_linear_4220_63562" x1="24.1439" y1="18.6294" x2="24.1439" y2="10.1294" gradientUnits="userSpaceOnUse">
<stop stop-color="#006AA5"/>
<stop offset="1" stop-color="#007AB0"/>
</linearGradient>
<linearGradient id="paint92_linear_4220_63562" x1="24.1004" y1="18.5581" x2="24.1004" y2="10.1581" gradientUnits="userSpaceOnUse">
<stop stop-color="#0068A4"/>
<stop offset="1" stop-color="#0076AD"/>
</linearGradient>
<linearGradient id="paint93_linear_4220_63562" x1="24.0722" y1="18.472" x2="24.0722" y2="10.1863" gradientUnits="userSpaceOnUse">
<stop stop-color="#0067A2"/>
<stop offset="1" stop-color="#0072AA"/>
</linearGradient>
<linearGradient id="paint94_linear_4220_63562" x1="24.0287" y1="18.4009" x2="24.0287" y2="10.2151" gradientUnits="userSpaceOnUse">
<stop stop-color="#0065A1"/>
<stop offset="1" stop-color="#006EA6"/>
</linearGradient>
<linearGradient id="paint95_linear_4220_63562" x1="23.9863" y1="18.3145" x2="23.9863" y2="10.2431" gradientUnits="userSpaceOnUse">
<stop stop-color="#00649F"/>
<stop offset="1" stop-color="#006BA3"/>
</linearGradient>
<linearGradient id="paint96_linear_4220_63562" x1="23.9432" y1="18.2433" x2="23.9432" y2="10.2719" gradientUnits="userSpaceOnUse">
<stop stop-color="#00639E"/>
<stop offset="1" stop-color="#0067A0"/>
</linearGradient>
<linearGradient id="paint97_linear_4220_63562" x1="23.9153" y1="18.1586" x2="23.9153" y2="10.3014" gradientUnits="userSpaceOnUse">
<stop stop-color="#00619C"/>
<stop offset="1" stop-color="#00639D"/>
</linearGradient>
<linearGradient id="paint98_linear_4220_63562" x1="24.5004" y1="13.7718" x2="24.5004" y2="-10.5282" gradientUnits="userSpaceOnUse">
<stop stop-color="#D1D3D4"/>
<stop offset="1" stop-color="white"/>
</linearGradient>
<linearGradient id="paint99_linear_4220_63562" x1="24.5004" y1="15.4863" x2="24.5004" y2="23.972" gradientUnits="userSpaceOnUse">
<stop stop-color="#D1D3D4"/>
<stop offset="1" stop-color="#58595B"/>
</linearGradient>
<linearGradient id="paint100_linear_4220_63562" x1="25.6714" y1="24.9286" x2="23.5429" y2="4.6" gradientUnits="userSpaceOnUse">
<stop stop-color="#E6E7E8"/>
<stop offset="1" stop-color="white"/>
</linearGradient>
<linearGradient id="paint101_linear_4220_63562" x1="19.2" y1="9.62892" x2="29.8" y2="19.5146" gradientUnits="userSpaceOnUse">
<stop stop-color="#E6E7E8"/>
<stop offset="0.21" stop-color="#A7A9AC"/>
<stop offset="0.46" stop-color="#E6E7E8"/>
<stop offset="0.55" stop-color="#BABCBE"/>
<stop offset="0.64" stop-color="#AAABAD"/>
<stop offset="0.71" stop-color="#E6E7E8"/>
<stop offset="0.87" stop-color="#E6E7E8"/>
<stop offset="1" stop-color="#E6E7E8"/>
</linearGradient>
<linearGradient id="paint102_linear_4220_63562" x1="19.3993" y1="9.81373" x2="29.5993" y2="19.328" gradientUnits="userSpaceOnUse">
<stop stop-color="#E5E6E7"/>
<stop offset="0.21" stop-color="#A7AAAC"/>
<stop offset="0.46" stop-color="#E6E7E8"/>
<stop offset="0.55" stop-color="#BBBDBF"/>
<stop offset="0.64" stop-color="#ABACAE"/>
<stop offset="0.71" stop-color="#E4E5E6"/>
<stop offset="0.87" stop-color="#E2E2E4"/>
<stop offset="1" stop-color="#E6E7E8"/>
</linearGradient>
<linearGradient id="paint103_linear_4220_63562" x1="19.6005" y1="10.0001" x2="29.4005" y2="19.143" gradientUnits="userSpaceOnUse">
<stop stop-color="#E3E4E5"/>
<stop offset="0.21" stop-color="#A8AAAD"/>
<stop offset="0.46" stop-color="#E6E7E8"/>
<stop offset="0.55" stop-color="#BCBEC0"/>
<stop offset="0.64" stop-color="#ACADAF"/>
<stop offset="0.71" stop-color="#E1E2E3"/>
<stop offset="0.87" stop-color="#DEDEE0"/>
<stop offset="1" stop-color="#E6E7E8"/>
</linearGradient>
<linearGradient id="paint104_linear_4220_63562" x1="19.7999" y1="10.1852" x2="29.1999" y2="18.9566" gradientUnits="userSpaceOnUse">
<stop stop-color="#E2E3E4"/>
<stop offset="0.21" stop-color="#A8AAAD"/>
<stop offset="0.46" stop-color="#E6E7E8"/>
<stop offset="0.55" stop-color="#BDBEC1"/>
<stop offset="0.64" stop-color="#ADAEB0"/>
<stop offset="0.71" stop-color="#DFE0E1"/>
<stop offset="0.87" stop-color="#DBDBDC"/>
<stop offset="1" stop-color="#E6E7E8"/>
</linearGradient>
<linearGradient id="paint105_linear_4220_63562" x1="19.9992" y1="10.371" x2="28.9992" y2="18.771" gradientUnits="userSpaceOnUse">
<stop stop-color="#E0E2E3"/>
<stop offset="0.21" stop-color="#A9ABAD"/>
<stop offset="0.46" stop-color="#E6E7E8"/>
<stop offset="0.55" stop-color="#BDBFC1"/>
<stop offset="0.64" stop-color="#AEAFB1"/>
<stop offset="0.71" stop-color="#DDDDDF"/>
<stop offset="0.87" stop-color="#D7D7D9"/>
<stop offset="1" stop-color="#E6E7E8"/>
</linearGradient>
<linearGradient id="paint106_linear_4220_63562" x1="20.2" y1="10.558" x2="28.8" y2="18.5866" gradientUnits="userSpaceOnUse">
<stop stop-color="#DFE0E2"/>
<stop offset="0.21" stop-color="#A9ABAE"/>
<stop offset="0.46" stop-color="#E6E7E8"/>
<stop offset="0.55" stop-color="#BEC0C2"/>
<stop offset="0.64" stop-color="#AEB0B2"/>
<stop offset="0.71" stop-color="#DBDBDC"/>
<stop offset="0.87" stop-color="#D4D4D6"/>
<stop offset="1" stop-color="#E6E7E8"/>
</linearGradient>
<linearGradient id="paint107_linear_4220_63562" x1="20.3863" y1="10.7438" x2="28.6006" y2="18.4009" gradientUnits="userSpaceOnUse">
<stop stop-color="#DDDFE0"/>
<stop offset="0.21" stop-color="#A9ACAE"/>
<stop offset="0.46" stop-color="#E6E7E8"/>
<stop offset="0.55" stop-color="#BFC1C3"/>
<stop offset="0.64" stop-color="#AFB1B3"/>
<stop offset="0.71" stop-color="#D9D9DB"/>
<stop offset="0.87" stop-color="#D1D1D3"/>
<stop offset="1" stop-color="#E6E7E8"/>
</linearGradient>
<linearGradient id="paint108_linear_4220_63562" x1="20.5851" y1="10.9292" x2="28.3994" y2="18.2149" gradientUnits="userSpaceOnUse">
<stop stop-color="#DCDDDF"/>
<stop offset="0.21" stop-color="#AAACAE"/>
<stop offset="0.46" stop-color="#E6E7E8"/>
<stop offset="0.55" stop-color="#C0C2C4"/>
<stop offset="0.64" stop-color="#B0B2B4"/>
<stop offset="0.71" stop-color="#D7D7D9"/>
<stop offset="0.87" stop-color="#CFCED0"/>
<stop offset="1" stop-color="#E6E7E8"/>
</linearGradient>
<linearGradient id="paint109_linear_4220_63562" x1="20.7856" y1="11.1143" x2="28.1999" y2="18.0285" gradientUnits="userSpaceOnUse">
<stop stop-color="#DBDCDE"/>
<stop offset="0.21" stop-color="#AAACAF"/>
<stop offset="0.46" stop-color="#E6E7E8"/>
<stop offset="0.55" stop-color="#C1C3C5"/>
<stop offset="0.64" stop-color="#B1B3B5"/>
<stop offset="0.71" stop-color="#D5D5D7"/>
<stop offset="0.87" stop-color="#CCCBCD"/>
<stop offset="1" stop-color="#E6E7E8"/>
</linearGradient>
<linearGradient id="paint110_linear_4220_63562" x1="20.9854" y1="11.3001" x2="27.9997" y2="17.8429" gradientUnits="userSpaceOnUse">
<stop stop-color="#D9DBDC"/>
<stop offset="0.21" stop-color="#ABADAF"/>
<stop offset="0.46" stop-color="#E6E7E8"/>
<stop offset="0.55" stop-color="#C2C4C6"/>
<stop offset="0.64" stop-color="#B2B4B5"/>
<stop offset="0.71" stop-color="#D3D4D5"/>
<stop offset="0.87" stop-color="#C9C8CB"/>
<stop offset="1" stop-color="#E6E7E8"/>
</linearGradient>
<linearGradient id="paint111_linear_4220_63562" x1="21.1855" y1="11.4858" x2="27.7998" y2="17.6573" gradientUnits="userSpaceOnUse">
<stop stop-color="#D8D9DB"/>
<stop offset="0.21" stop-color="#ABADB0"/>
<stop offset="0.46" stop-color="#E6E7E8"/>
<stop offset="0.55" stop-color="#C3C5C7"/>
<stop offset="0.64" stop-color="#B3B5B6"/>
<stop offset="0.71" stop-color="#D2D2D3"/>
<stop offset="0.87" stop-color="#C6C6C8"/>
<stop offset="1" stop-color="#E6E7E8"/>
</linearGradient>
<linearGradient id="paint112_linear_4220_63562" x1="21.3863" y1="11.6721" x2="27.6006" y2="17.4721" gradientUnits="userSpaceOnUse">
<stop stop-color="#D6D8DA"/>
<stop offset="0.21" stop-color="#ABADB0"/>
<stop offset="0.46" stop-color="#E6E7E8"/>
<stop offset="0.55" stop-color="#C4C6C8"/>
<stop offset="0.64" stop-color="#B4B5B7"/>
<stop offset="0.71" stop-color="#D0D0D1"/>
<stop offset="0.87" stop-color="#C3C3C5"/>
<stop offset="1" stop-color="#E6E7E8"/>
</linearGradient>
<linearGradient id="paint113_linear_4220_63562" x1="21.5857" y1="11.8572" x2="27.3999" y2="17.2858" gradientUnits="userSpaceOnUse">
<stop stop-color="#D5D7D9"/>
<stop offset="0.21" stop-color="#ACAEB0"/>
<stop offset="0.46" stop-color="#E6E7E8"/>
<stop offset="0.55" stop-color="#C5C6C9"/>
<stop offset="0.64" stop-color="#B5B6B8"/>
<stop offset="0.71" stop-color="#CECED0"/>
<stop offset="0.87" stop-color="#C1C0C3"/>
<stop offset="1" stop-color="#E6E7E8"/>
</linearGradient>
<linearGradient id="paint114_linear_4220_63562" x1="21.785" y1="12.0422" x2="27.2136" y2="17.0994" gradientUnits="userSpaceOnUse">
<stop stop-color="#D4D6D7"/>
<stop offset="0.21" stop-color="#ACAEB1"/>
<stop offset="0.46" stop-color="#E6E7E8"/>
<stop offset="0.55" stop-color="#C6C7C9"/>
<stop offset="0.64" stop-color="#B6B7B9"/>
<stop offset="0.71" stop-color="#CCCCCE"/>
<stop offset="0.87" stop-color="#BEBDC0"/>
<stop offset="1" stop-color="#E6E7E8"/>
</linearGradient>
<linearGradient id="paint115_linear_4220_63562" x1="21.9854" y1="12.2286" x2="27.014" y2="16.9144" gradientUnits="userSpaceOnUse">
<stop stop-color="#D2D4D6"/>
<stop offset="0.21" stop-color="#ADAFB1"/>
<stop offset="0.46" stop-color="#E6E7E8"/>
<stop offset="0.55" stop-color="#C7C8CA"/>
<stop offset="0.64" stop-color="#B7B8BA"/>
<stop offset="0.71" stop-color="#CBCBCC"/>
<stop offset="0.87" stop-color="#BBBBBE"/>
<stop offset="1" stop-color="#E6E7E8"/>
</linearGradient>
<linearGradient id="paint116_linear_4220_63562" x1="22.186" y1="12.4149" x2="26.8146" y2="16.7292" gradientUnits="userSpaceOnUse">
<stop stop-color="#D1D3D5"/>
<stop offset="0.21" stop-color="#ADAFB2"/>
<stop offset="0.46" stop-color="#E6E7E8"/>
<stop offset="0.55" stop-color="#C7C9CB"/>
<stop offset="0.64" stop-color="#B8B9BB"/>
<stop offset="0.71" stop-color="#C9C9CB"/>
<stop offset="0.87" stop-color="#B8B8BB"/>
<stop offset="1" stop-color="#E6E7E8"/>
</linearGradient>
<linearGradient id="paint117_linear_4220_63562" x1="22.3853" y1="12.6" x2="26.6139" y2="16.5428" gradientUnits="userSpaceOnUse">
<stop stop-color="#D0D2D3"/>
<stop offset="0.21" stop-color="#ADAFB2"/>
<stop offset="0.46" stop-color="#E6E7E8"/>
<stop offset="0.55" stop-color="#C8CACC"/>
<stop offset="0.64" stop-color="#B9BABC"/>
<stop offset="0.71" stop-color="#C7C7C9"/>
<stop offset="0.87" stop-color="#B6B5B9"/>
<stop offset="1" stop-color="#E6E7E8"/>
</linearGradient>
<linearGradient id="paint118_linear_4220_63562" x1="22.5862" y1="12.7863" x2="26.4147" y2="16.3577" gradientUnits="userSpaceOnUse">
<stop stop-color="#CED0D2"/>
<stop offset="0.21" stop-color="#AEB0B2"/>
<stop offset="0.46" stop-color="#E6E7E8"/>
<stop offset="0.55" stop-color="#C9CBCD"/>
<stop offset="0.64" stop-color="#BABBBD"/>
<stop offset="0.71" stop-color="#C6C5C7"/>
<stop offset="0.87" stop-color="#B3B2B6"/>
<stop offset="1" stop-color="#E6E7E8"/>
</linearGradient>
<linearGradient id="paint119_linear_4220_63562" x1="22.7848" y1="12.9713" x2="26.2133" y2="16.1713" gradientUnits="userSpaceOnUse">
<stop stop-color="#CDCFD1"/>
<stop offset="0.21" stop-color="#AEB0B3"/>
<stop offset="0.46" stop-color="#E6E7E8"/>
<stop offset="0.55" stop-color="#CACCCE"/>
<stop offset="0.64" stop-color="#BABCBD"/>
<stop offset="0.71" stop-color="#C4C4C6"/>
<stop offset="0.87" stop-color="#B0B0B4"/>
<stop offset="1" stop-color="#E6E7E8"/>
</linearGradient>
<linearGradient id="paint120_linear_4220_63562" x1="22.9856" y1="13.1566" x2="26.0141" y2="15.9852" gradientUnits="userSpaceOnUse">
<stop stop-color="#CCCED0"/>
<stop offset="0.21" stop-color="#AFB1B3"/>
<stop offset="0.46" stop-color="#E6E7E8"/>
<stop offset="0.55" stop-color="#CBCDCF"/>
<stop offset="0.64" stop-color="#BBBDBE"/>
<stop offset="0.71" stop-color="#C2C2C4"/>
<stop offset="0.87" stop-color="#AEADB1"/>
<stop offset="1" stop-color="#E6E7E8"/>
</linearGradient>
<linearGradient id="paint121_linear_4220_63562" x1="23.186" y1="13.3428" x2="25.8146" y2="15.7999" gradientUnits="userSpaceOnUse">
<stop stop-color="#CACDCF"/>
<stop offset="0.21" stop-color="#AFB1B3"/>
<stop offset="0.46" stop-color="#E6E7E8"/>
<stop offset="0.55" stop-color="#CCCECF"/>
<stop offset="0.64" stop-color="#BCBEBF"/>
<stop offset="0.71" stop-color="#C1C0C3"/>
<stop offset="0.87" stop-color="#ABABAF"/>
<stop offset="1" stop-color="#E6E7E8"/>
</linearGradient>
<linearGradient id="paint122_linear_4220_63562" x1="23.3854" y1="13.5433" x2="25.6139" y2="15.6148" gradientUnits="userSpaceOnUse">
<stop stop-color="#C9CBCD"/>
<stop offset="0.21" stop-color="#AFB1B4"/>
<stop offset="0.46" stop-color="#E6E7E8"/>
<stop offset="0.55" stop-color="#CDCFD0"/>
<stop offset="0.64" stop-color="#BDBEC0"/>
<stop offset="0.71" stop-color="#BFBFC1"/>
<stop offset="0.87" stop-color="#A9A8AC"/>
<stop offset="1" stop-color="#E6E7E8"/>
</linearGradient>
<linearGradient id="paint123_linear_4220_63562" x1="19.2" y1="9.62892" x2="29.8" y2="19.5146" gradientUnits="userSpaceOnUse">
<stop stop-color="#EDEDEE"/>
<stop offset="0.21" stop-color="#BCBEC0"/>
<stop offset="0.46" stop-color="#EDEDEE"/>
<stop offset="0.55" stop-color="#CBCCCE"/>
<stop offset="0.64" stop-color="#B9BBBC"/>
<stop offset="0.71" stop-color="#E6E7E8"/>
<stop offset="0.87" stop-color="#EDEDEE"/>
<stop offset="1" stop-color="#EDEDEE"/>
</linearGradient>
<linearGradient id="paint124_linear_4220_63562" x1="24.5" y1="14.2003" x2="24.5" y2="8.14321" gradientUnits="userSpaceOnUse">
<stop stop-color="#D1D3D4"/>
<stop offset="1" stop-color="white"/>
</linearGradient>
<linearGradient id="paint125_linear_4220_63562" x1="24.5" y1="15.1284" x2="24.5" y2="19.7713" gradientUnits="userSpaceOnUse">
<stop stop-color="#D1D3D4"/>
<stop offset="1" stop-color="#58595B"/>
</linearGradient>
<linearGradient id="paint126_linear_4220_63562" x1="18.0996" y1="5.67186" x2="29.9424" y2="21.9719" gradientUnits="userSpaceOnUse">
<stop stop-color="#E4E5E6"/>
<stop offset="0.21" stop-color="#BCBEC0"/>
<stop offset="0.46" stop-color="#E9E9EA"/>
<stop offset="0.55" stop-color="#C4C6C8"/>
<stop offset="0.71" stop-color="white"/>
<stop offset="0.78" stop-color="white"/>
<stop offset="1" stop-color="#E9E9EA"/>
</linearGradient>
<linearGradient id="paint127_linear_4220_63562" x1="22.2295" y1="11.4436" x2="26.4438" y2="17.2436" gradientUnits="userSpaceOnUse">
<stop stop-color="#E4E5E6"/>
<stop offset="0.21" stop-color="#BCBEC0"/>
<stop offset="0.71" stop-color="#E9E9EA"/>
<stop offset="1" stop-color="#E9E9EA"/>
</linearGradient>
<radialGradient id="paint128_radial_4220_63562" cx="0" cy="0" r="1" gradientUnits="userSpaceOnUse" gradientTransform="translate(25.1713 15.7722) scale(5)">
<stop stop-color="#0062A2"/>
<stop offset="0.54" stop-color="#0F4472"/>
<stop offset="1" stop-color="#001116"/>
</radialGradient>
</defs>
</svg>
