<svg width="53" height="48" viewBox="0 0 53 48" fill="none" xmlns="http://www.w3.org/2000/svg">
<g filter="url(#filter0_d_9641_60002)">
<mask id="path-1-inside-1_9641_60002" fill="white">
<path fill-rule="evenodd" clip-rule="evenodd" d="M4 8C2.89543 8 2 8.89543 2 10V15.2558C6.71434 15.5661 10.4421 19.4883 10.4421 24.2811C10.4421 29.074 6.71434 32.9962 2 33.3065V38.5625C2 39.6671 2.89543 40.5625 4 40.5625H48.2407C49.3453 40.5625 50.2407 39.6671 50.2407 38.5625V10C50.2407 8.89543 49.3453 8 48.2407 8H4Z"/>
</mask>
<path fill-rule="evenodd" clip-rule="evenodd" d="M4 8C2.89543 8 2 8.89543 2 10V15.2558C6.71434 15.5661 10.4421 19.4883 10.4421 24.2811C10.4421 29.074 6.71434 32.9962 2 33.3065V38.5625C2 39.6671 2.89543 40.5625 4 40.5625H48.2407C49.3453 40.5625 50.2407 39.6671 50.2407 38.5625V10C50.2407 8.89543 49.3453 8 48.2407 8H4Z" fill="url(#paint0_linear_9641_60002)"/>
<path d="M2 15.2558H1.5V15.7239L1.96716 15.7547L2 15.2558ZM2 33.3065L1.96716 32.8076L1.5 32.8383V33.3065H2ZM2.5 10C2.5 9.17157 3.17157 8.5 4 8.5V7.5C2.61929 7.5 1.5 8.61929 1.5 10H2.5ZM2.5 15.2558V10H1.5V15.2558H2.5ZM1.96716 15.7547C6.42042 16.0478 9.94211 19.7534 9.94211 24.2811H10.9421C10.9421 19.2231 7.00826 15.0843 2.03284 14.7569L1.96716 15.7547ZM9.94211 24.2811C9.94211 28.8088 6.42042 32.5144 1.96716 32.8076L2.03284 33.8054C7.00826 33.4779 10.9421 29.3391 10.9421 24.2811H9.94211ZM2.5 38.5625V33.3065H1.5V38.5625H2.5ZM4 40.0625C3.17157 40.0625 2.5 39.3909 2.5 38.5625H1.5C1.5 39.9432 2.61929 41.0625 4 41.0625V40.0625ZM48.2407 40.0625H4V41.0625H48.2407V40.0625ZM49.7407 38.5625C49.7407 39.3909 49.0692 40.0625 48.2407 40.0625V41.0625C49.6214 41.0625 50.7407 39.9432 50.7407 38.5625H49.7407ZM49.7407 10V38.5625H50.7407V10H49.7407ZM48.2407 8.5C49.0692 8.5 49.7407 9.17157 49.7407 10H50.7407C50.7407 8.61929 49.6214 7.5 48.2407 7.5V8.5ZM4 8.5H48.2407V7.5H4V8.5Z" fill="#E7B122" mask="url(#path-1-inside-1_9641_60002)"/>
</g>
<path d="M37.8164 14.7939C36.7191 14.3409 34.1583 13.8116 32.2327 13.7825V13.7812H32.0686V13.7825C30.1429 13.8116 27.5821 14.3409 26.4848 14.7939C25.9337 15.0214 25.4443 15.2604 25.0632 15.6008C24.6737 15.9488 24.4081 16.3928 24.2839 17.0081L24.2822 17.0166L24.2811 17.0251L23.4606 23.2853L23.4585 23.3014V23.3178V31.9438V32.1938H23.7085H24.8715V33.2965C24.8715 33.7754 25.0507 34.1535 25.3346 34.4099C25.6142 34.6623 25.9806 34.7836 26.3395 34.7836C26.6983 34.7836 27.0647 34.6623 27.3443 34.4099C27.6282 34.1535 27.8074 33.7754 27.8074 33.2965V32.1938H32.0543H32.0686H36.4939V33.2965C36.4939 33.7754 36.673 34.1535 36.9569 34.4099C37.2366 34.6623 37.603 34.7836 37.9618 34.7836C38.3206 34.7836 38.687 34.6623 38.9666 34.4099C39.2506 34.1535 39.4297 33.7754 39.4297 33.2965V32.1938H40.5928H40.8428V31.9438V23.3178V23.3014L40.8406 23.2853L40.0202 17.0251L40.019 17.0166L40.0173 17.0081C39.8932 16.3928 39.6276 15.9488 39.238 15.6008C38.857 15.2604 38.3675 15.0214 37.8164 14.7939ZM38.8792 28.0818C38.8792 28.581 38.4701 28.9897 37.9608 28.9897C37.4515 28.9897 37.0424 28.581 37.0424 28.0818C37.0424 27.5826 37.4515 27.1739 37.9608 27.1739C38.4701 27.1739 38.8792 27.5826 38.8792 28.0818ZM26.3405 28.9897C25.8311 28.9897 25.422 28.581 25.422 28.0818C25.422 27.5826 25.8311 27.1739 26.3405 27.1739C26.8498 27.1739 27.2589 27.5826 27.2589 28.0818C27.2589 28.581 26.8498 28.9897 26.3405 28.9897ZM32.0603 16.3785H28.6772C28.5733 16.3785 28.5141 16.3423 28.4786 16.3027C28.4392 16.2588 28.4143 16.1935 28.4143 16.1203C28.4143 16.0472 28.4392 15.9819 28.4786 15.9379C28.5141 15.8984 28.5733 15.8622 28.6772 15.8622H32.0686H35.6241C35.728 15.8622 35.7871 15.8984 35.8226 15.9379C35.8621 15.9819 35.8869 16.0472 35.8869 16.1203C35.8869 16.1935 35.8621 16.2588 35.8226 16.3027C35.7871 16.3423 35.728 16.3785 35.6241 16.3785H32.0603ZM26.8338 17.9046H32.0603H37.4675C37.787 17.9046 37.9366 17.9839 38.0216 18.0754C38.1165 18.1776 38.1766 18.342 38.2189 18.6069L38.8571 23.1442C38.8571 23.1444 38.8572 23.1445 38.8572 23.1447C38.8833 23.3363 38.8611 23.4845 38.8047 23.5759C38.7601 23.6482 38.6682 23.7275 38.4305 23.7275H32.0686H25.8707C25.633 23.7275 25.5411 23.6482 25.4965 23.5759C25.4401 23.4845 25.4179 23.3362 25.4441 23.1446C25.4441 23.1445 25.4441 23.1443 25.4441 23.1442L26.0823 18.6069C26.1246 18.342 26.1848 18.1776 26.2796 18.0754C26.3646 17.9839 26.5142 17.9046 26.8338 17.9046Z" fill="url(#paint1_linear_9641_60002)" stroke="#FFF379" stroke-width="0.5"/>
<path fill-rule="evenodd" clip-rule="evenodd" d="M15.2663 12.2227V13.4588H14.0603V12.2227H15.2663ZM15.2663 15.9312V18.4035H14.0603V15.9312H15.2663ZM15.2663 20.8758V23.3482H14.0603V20.8758H15.2663ZM15.2663 25.8205V28.2929H14.0603V25.8205H15.2663ZM15.2663 30.7652V33.2375H14.0603V30.7652H15.2663ZM15.2663 35.7099V36.946H14.0603V35.7099H15.2663Z" fill="#6F411B"/>
<defs>
<filter id="filter0_d_9641_60002" x="0" y="8" width="52.2407" height="36.5625" filterUnits="userSpaceOnUse" color-interpolation-filters="sRGB">
<feFlood flood-opacity="0" result="BackgroundImageFix"/>
<feColorMatrix in="SourceAlpha" type="matrix" values="0 0 0 0 0 0 0 0 0 0 0 0 0 0 0 0 0 0 127 0" result="hardAlpha"/>
<feOffset dy="2"/>
<feGaussianBlur stdDeviation="1"/>
<feComposite in2="hardAlpha" operator="out"/>
<feColorMatrix type="matrix" values="0 0 0 0 0 0 0 0 0 0 0 0 0 0 0 0 0 0 0.15 0"/>
<feBlend mode="normal" in2="BackgroundImageFix" result="effect1_dropShadow_9641_60002"/>
<feBlend mode="normal" in="SourceGraphic" in2="effect1_dropShadow_9641_60002" result="shape"/>
</filter>
<linearGradient id="paint0_linear_9641_60002" x1="66.522" y1="59.2558" x2="2.28369" y2="55.901" gradientUnits="userSpaceOnUse">
<stop offset="0.14" stop-color="#FED524"/>
<stop offset="0.42" stop-color="#FFD10F"/>
<stop offset="0.52" stop-color="#F3C62F"/>
<stop offset="0.53" stop-color="#F4CA40"/>
<stop offset="0.55" stop-color="#F8D76C"/>
<stop offset="0.57" stop-color="#FBE18E"/>
<stop offset="0.6" stop-color="#FDE9A7"/>
<stop offset="0.62" stop-color="#FEEDB6"/>
<stop offset="0.63" stop-color="#FFEFBC"/>
<stop offset="0.67" stop-color="#F8DF95"/>
<stop offset="0.74" stop-color="#EFC657"/>
<stop offset="0.78" stop-color="#E9B630"/>
<stop offset="0.81" stop-color="#E7B122"/>
</linearGradient>
<linearGradient id="paint1_linear_9641_60002" x1="32.1639" y1="-14.7293" x2="32.1639" y2="-14.7293" gradientUnits="userSpaceOnUse">
<stop offset="0.07" stop-color="#AC6D29"/>
<stop offset="0.41" stop-color="#7A491D"/>
<stop offset="0.8" stop-color="#492511"/>
<stop offset="1" stop-color="#36170D"/>
</linearGradient>
</defs>
</svg>
