<svg width="48" height="49" viewBox="0 0 48 49" fill="none" xmlns="http://www.w3.org/2000/svg">
<path d="M45.8013 21.0379C45.602 20.9918 45.5339 20.8869 45.5276 20.7736C45.5139 20.5765 45.6975 20.3478 45.6975 20.3478C45.1951 17.3514 44.0834 14.5574 42.4955 12.099C42.2438 12.0497 42.118 11.9668 42.0634 11.8808C41.9565 11.713 42.1148 11.5274 42.1148 11.5274C38.1421 5.77675 31.5033 2 23.9992 2C16.4952 2 9.85852 5.77675 5.88573 11.5284C5.88573 11.5284 6.05669 11.7088 5.92769 11.8819C5.86686 11.9626 5.741 12.0423 5.50293 12.1011C3.91717 14.5595 2.80546 17.3524 2.3031 20.3478C2.3031 20.3478 2.30415 20.351 2.30624 20.352C2.33246 20.3803 2.56005 20.6331 2.5181 20.8261C2.49607 20.9205 2.40798 21.0033 2.19927 21.0358C2.06817 22.006 2 22.995 2 23.9998C2 29.5553 4.06925 34.6357 7.47883 38.5111C7.47883 38.5111 7.83647 38.2436 7.9403 38.6663C7.96337 38.7565 7.97491 38.8813 7.96652 39.047C9.61625 40.8058 11.5523 42.2941 13.6981 43.4352C13.6981 43.4352 14.3043 43.3681 14.5466 43.5422C14.6441 43.6124 14.6829 43.7205 14.6011 43.8893C17.4527 45.2423 20.6389 45.9995 23.9982 45.9995C27.3574 45.9995 30.5436 45.2423 33.3953 43.8893C33.2537 43.7152 33.2956 43.6062 33.4183 43.538C33.6784 43.3932 34.2983 43.4352 34.2983 43.4352C36.4451 42.2941 38.3812 40.8058 40.0309 39.047C40.0309 39.047 40.0278 38.94 40.0445 38.8142C40.0771 38.5813 40.1809 38.2866 40.5186 38.5111C43.9282 34.6347 45.9974 29.5553 45.9974 23.9998C45.9974 22.995 45.9293 22.006 45.7982 21.0379H45.8013ZM21.3081 39.5494C21.2787 40.8216 20.0411 41.7235 18.8214 41.3596C12.9912 39.6165 8.38498 35.0112 6.64191 29.1798C6.27798 27.9611 7.17783 26.7235 8.45001 26.692C11.9162 26.6081 14.8434 27.336 16.7658 28.001C17.1402 28.13 17.4779 28.2579 17.7737 28.3754C18.3925 28.624 18.8298 28.8337 19.049 28.9459C19.1581 29.1609 19.3689 29.5972 19.6216 30.2244C19.7768 30.6104 19.9467 31.0656 20.1177 31.5868C20.747 33.504 21.3867 36.2886 21.3091 39.5494H21.3081ZM41.3576 29.1798C39.6145 35.0101 35.0093 39.6165 29.1781 41.3596C27.9594 41.7235 26.7219 40.8216 26.6915 39.5494C26.6138 36.2886 27.2526 33.504 27.8829 31.5868C28.0538 31.0656 28.2237 30.6083 28.3789 30.2234C28.6307 29.5972 28.8425 29.1609 28.9516 28.947C29.1708 28.8348 29.6081 28.625 30.2269 28.3764C30.5227 28.2579 30.8593 28.131 31.2348 28.002C33.1561 27.336 36.0843 26.6092 39.5506 26.6931C40.8227 26.7246 41.7226 27.9622 41.3587 29.1809L41.3576 29.1798ZM39.5296 21.3106C35.4268 21.4071 32.0801 20.3667 30.2657 19.6409C30.2531 19.6367 30.2405 19.6315 30.2279 19.6273C29.3029 19.256 28.788 18.9707 28.788 18.9707L29.9416 24.0008L28.831 28.8411L24.0003 29.9486L19.1675 28.8411L18.0568 24.0019L19.2105 18.9707C19.2105 18.9707 18.6955 19.255 17.7705 19.6273C17.7579 19.6315 17.7454 19.6367 17.7328 19.6409C15.9184 20.3667 12.5717 21.4071 8.46888 21.3106C7.19042 21.2813 6.27169 20.0531 6.63876 18.8291C8.86952 11.3533 15.8062 5.88793 23.9971 5.88793C32.1881 5.88793 39.1258 11.3533 41.3566 18.8291C41.7215 20.0531 40.8049 21.2813 39.5264 21.3106H39.5296Z" fill="url(#paint0_linear_9641_451729)"/>
<path d="M45.4697 24.1274C45.4697 24.3697 45.4655 24.6109 45.4571 24.85C45.0764 13.3247 35.6154 4.10151 23.999 4.10151C12.3827 4.10151 2.92064 13.3258 2.53993 24.85C2.53259 24.6109 2.52734 24.3697 2.52734 24.1274C2.52734 12.2686 12.1405 2.65625 23.998 2.65625C35.8555 2.65625 45.4687 12.2686 45.4687 24.1274H45.4697Z" fill="#536279"/>
<path d="M42.7984 25.4245C42.7984 35.8066 34.3819 44.2233 24 44.2233C13.6181 44.2233 5.20166 35.8066 5.20166 25.4245C5.20166 25.2084 5.20481 24.9923 5.21425 24.7773C5.5551 34.8595 13.8363 42.928 24 42.928C34.1638 42.928 42.4449 34.8595 42.7858 24.7773C42.7952 24.9923 42.7984 25.2084 42.7984 25.4245Z" fill="#536279"/>
<path d="M31.9902 24.6019C31.9902 25.8175 31.7196 26.9701 31.233 28.0011C30.8586 28.1301 30.5209 28.258 30.2251 28.3755C29.6063 28.6241 29.169 28.8338 28.9498 28.946C28.8407 29.1611 28.6299 29.5963 28.3772 30.2224C28.2219 30.6084 28.052 31.0657 27.8811 31.5859C26.7316 32.2267 25.407 32.5917 23.9975 32.5917C22.5879 32.5917 21.2643 32.2278 20.1149 31.5859C19.9439 31.0646 19.774 30.6095 19.6188 30.2235C19.3671 29.5974 19.1552 29.16 19.0462 28.945C18.827 28.8328 18.3896 28.623 17.7708 28.3744C17.4751 28.2559 17.1384 28.129 16.763 28C16.2763 26.969 16.0057 25.8175 16.0057 24.6008C16.0057 22.7256 16.6507 21.0024 17.732 19.6389C17.7446 19.6347 17.7572 19.6295 17.7698 19.6253C18.6948 19.254 19.2098 18.9688 19.2098 18.9688L18.0561 23.9999L19.1668 28.8391L23.9995 29.9466L28.8302 28.8391L29.9409 23.9988L28.7872 18.9688C28.7872 18.9688 29.3022 19.253 30.2272 19.6253C30.2398 19.6295 30.2524 19.6347 30.265 19.6389C31.3452 21.0024 31.9913 22.7256 31.9913 24.6008L31.9902 24.6019Z" fill="#06070B"/>
<g filter="url(#filter0_d_9641_451729)">
<path d="M42.0627 11.8808C41.9169 11.884 41.7722 11.8808 41.6317 11.8714C41.5971 11.8703 41.5646 11.8682 41.532 11.8651C41.0391 11.8263 40.5871 11.6679 40.1623 11.4361C39.2856 10.9621 38.5262 10.1786 37.7806 9.48428C34.0836 6.0463 29.0411 4.12174 23.9985 4.11649C18.956 4.12069 13.9134 6.0463 10.2165 9.48428C9.47289 10.1765 8.71462 10.9568 7.84099 11.433C7.41518 11.6658 6.95896 11.8252 6.46499 11.8651C6.43352 11.8682 6.40101 11.8693 6.3706 11.8714C6.22586 11.8808 6.07694 11.884 5.92696 11.8808C6.05596 11.7078 5.88501 11.5274 5.88501 11.5274C9.85779 5.77675 16.4955 2 23.9985 2C31.5015 2 38.1413 5.77675 42.1141 11.5284C42.1141 11.5284 41.9557 11.713 42.0627 11.8819V11.8808Z" fill="url(#paint1_linear_9641_451729)"/>
<path d="M41.9551 11.6055C41.9365 11.6532 41.9214 11.7149 41.9267 11.7819L6.0726 11.7819C6.08103 11.7143 6.06696 11.6516 6.04725 11.6021C6.03542 11.5725 6.0213 11.5466 6.00803 11.5254C9.96756 5.83364 16.5555 2.1 23.9985 2.1C31.4425 2.1 38.0333 5.83463 41.9927 11.5287C41.9801 11.5499 41.9667 11.5759 41.9551 11.6055Z" stroke="#284104" stroke-width="0.2"/>
</g>
<g filter="url(#filter1_d_9641_451729)">
<path d="M7.94122 38.6694C7.8374 38.2467 7.47976 38.5141 7.47976 38.5141C4.06912 34.6378 1.99988 29.5573 1.99988 24.0018C1.99988 22.9971 2.06805 22.008 2.19915 21.04C2.40785 21.0054 2.49595 20.9236 2.51798 20.8281C4.16037 21.9913 5.14412 24.0868 4.87039 26.0931C4.67322 27.5426 3.90132 29.0162 4.39005 30.3953C4.71203 31.3047 5.51225 31.9392 6.15305 32.6629C7.58149 34.278 8.20971 36.5361 7.94122 38.6694Z" fill="url(#paint2_linear_9641_451729)"/>
<path d="M6.07814 32.7291C7.42405 34.2509 8.0509 36.3546 7.87192 38.3776C7.80035 38.3314 7.72287 38.3253 7.65798 38.3342C7.59581 38.3427 7.54015 38.3654 7.50009 38.3856C4.13747 34.5347 2.09988 29.5023 2.09988 24.0018C2.09988 23.0259 2.16449 22.0649 2.28885 21.1236C2.40768 21.0942 2.49671 21.0451 2.5531 20.9771C4.11111 22.1324 5.03448 24.1507 4.77131 26.0796L4.77131 26.0797C4.72281 26.4361 4.63878 26.7955 4.54651 27.1582C4.52275 27.2517 4.49839 27.3455 4.47397 27.4396C4.40406 27.7089 4.33366 27.9801 4.27528 28.2494C4.11758 28.9768 4.04196 29.7124 4.29579 30.4287C4.46299 30.9009 4.75308 31.2981 5.07704 31.6649C5.23904 31.8483 5.41083 32.0256 5.58073 32.2007L5.5836 32.2037C5.75307 32.3785 5.92061 32.5512 6.07814 32.7291Z" stroke="#284104" stroke-width="0.2"/>
</g>
<g filter="url(#filter2_d_9641_451729)">
<path d="M46.0024 24.0006C46.0024 29.5561 43.9332 34.6366 40.5236 38.5119C40.1859 38.2885 40.0821 38.5822 40.0495 38.815C39.7328 36.6377 40.3558 34.3135 41.8188 32.6606C42.4575 31.938 43.2588 31.3035 43.5808 30.3931C44.0695 29.0139 43.2976 27.5403 43.1004 26.0909C42.8225 24.052 43.8419 21.924 45.5305 20.7734C45.5368 20.8867 45.6049 20.9916 45.8042 21.0377C45.9353 22.0068 46.0035 22.9959 46.0035 23.9996L46.0024 24.0006Z" fill="url(#paint3_linear_9641_451729)"/>
<path d="M45.7138 21.1161C45.8369 22.0467 45.9016 22.9956 45.9034 23.9582L45.9024 23.9592V24.0006C45.9024 29.5013 43.8646 34.534 40.5028 38.384C40.4368 38.3505 40.3732 38.3325 40.312 38.3323C40.2253 38.3319 40.1553 38.3672 40.1029 38.4201C39.9109 36.3828 40.5364 34.2604 41.8937 32.7269L41.8938 32.7268C42.0515 32.5484 42.2194 32.3751 42.3895 32.1997L42.3901 32.1991C42.5598 32.024 42.7315 31.8469 42.8935 31.6635C43.2175 31.2967 43.5079 30.8992 43.675 30.4265C43.9289 29.7102 43.8533 28.9745 43.6956 28.2472C43.6372 27.9779 43.5668 27.7067 43.4969 27.4374C43.4725 27.3433 43.4481 27.2495 43.4243 27.156C43.3321 26.7932 43.248 26.4339 43.1995 26.0774L43.1995 26.0774C42.9332 24.1238 43.8828 22.0816 45.4747 20.9346C45.4873 20.9568 45.5027 20.9783 45.5216 20.9987C45.5691 21.05 45.6333 21.089 45.7138 21.1161Z" stroke="#284104" stroke-width="0.2"/>
</g>
<g filter="url(#filter3_d_9641_451729)">
<path d="M33.3955 43.8908C30.5438 45.2438 27.3576 46.001 23.9984 46.001C20.6391 46.001 17.4529 45.2438 14.6013 43.8908C14.6841 43.723 14.6453 43.6139 14.5468 43.5437C15.5158 43.3696 16.5352 43.2206 17.5977 43.1021C18.9286 42.9511 20.3276 42.8472 21.776 42.7959C22.5049 42.7675 23.2464 42.7539 23.9994 42.7539C24.7524 42.7539 25.4939 42.7675 26.2228 42.7959C27.6723 42.8472 29.0713 42.9511 30.4022 43.1021C31.4531 43.2206 32.462 43.3664 33.4206 43.5395C33.2979 43.6076 33.256 43.7167 33.3976 43.8908H33.3955Z" fill="url(#paint4_linear_9641_451729)"/>
<path d="M30.391 43.2015C31.3753 43.3125 32.3224 43.4474 33.2254 43.6063C33.2187 43.6234 33.2137 43.6417 33.211 43.6614C33.2021 43.7241 33.2173 43.7869 33.2496 43.849C30.4374 45.1653 27.3021 45.901 23.9984 45.901C20.6874 45.901 17.5456 45.1621 14.7287 43.8403C14.7472 43.778 14.7517 43.7178 14.74 43.6606C14.7366 43.644 14.732 43.6283 14.7263 43.6133C15.6446 43.4519 16.6075 43.3132 17.6087 43.2015L17.6089 43.2015C18.9372 43.0507 20.3337 42.9471 21.7795 42.8958L21.7799 42.8958C22.5074 42.8675 23.2476 42.8539 23.9994 42.8539C24.7512 42.8539 25.4914 42.8675 26.219 42.8958L26.2193 42.8958C27.6662 42.9471 29.0627 43.0507 30.391 43.2015L30.391 43.2015Z" stroke="#284104" stroke-width="0.2"/>
</g>
<path d="M23.9999 31.6109C28.2027 31.6109 31.6098 28.2037 31.6098 24.0008C31.6098 19.7978 28.2027 16.3906 23.9999 16.3906C19.797 16.3906 16.3899 19.7978 16.3899 24.0008C16.3899 28.2037 19.797 31.6109 23.9999 31.6109Z" fill="#353C4C"/>
<path d="M30.6372 21.3577C29.3514 19.1416 26.8584 17.6355 23.9995 17.6355C21.1405 17.6355 18.6507 19.1405 17.3649 21.3546C18.4189 18.7242 20.9957 16.8594 23.9995 16.8594C27.0032 16.8594 29.5832 18.7252 30.6372 21.3577Z" fill="#5F6F87"/>
<path d="M31.145 24.002C31.145 27.9402 27.9409 31.1454 24.0007 31.1454C20.0604 31.1454 16.8574 27.9413 16.8574 24.002C16.8574 23.8405 16.8616 23.6789 16.8732 23.5195C17.1238 27.2344 20.2251 30.1795 24.0007 30.1795C27.7763 30.1795 30.8796 27.2344 31.1292 23.5195C31.1397 23.6779 31.145 23.8394 31.145 24.002Z" fill="#141822"/>
<path d="M41.6352 11.8721C41.6006 11.8711 41.5681 11.869 41.5355 11.8658C41.0426 11.827 40.5906 11.6686 40.1658 11.4369C36.2287 6.94167 30.4478 4.10255 24.0031 4.10255C17.5583 4.10255 11.7806 6.93957 7.84344 11.4337C7.41763 11.6665 6.96141 11.826 6.46744 11.8658C6.43597 11.869 6.40346 11.87 6.37305 11.8721C10.2504 6.30085 16.7014 2.65625 24.0031 2.65625C31.3047 2.65625 37.7568 6.30085 41.6352 11.8721Z" fill="white" fill-opacity="0.2"/>
<path d="M30.4011 43.0992C28.4032 43.8239 26.248 44.2183 23.9994 44.2183C21.7508 44.2183 19.5945 43.8229 17.5966 43.0992C18.9275 42.9482 20.3265 42.8444 21.7749 42.793C22.5038 42.88 23.2474 42.9241 23.9994 42.9241C24.7513 42.9241 25.4939 42.88 26.2217 42.793C27.6712 42.8444 29.0702 42.9482 30.4011 43.0992Z" fill="white" fill-opacity="0.2"/>
<g filter="url(#filter4_d_9641_451729)">
<path d="M23.9986 29.6374C27.1722 29.6374 29.7449 27.0646 29.7449 23.8909C29.7449 20.7173 27.1722 18.1445 23.9986 18.1445C20.825 18.1445 18.2523 20.7173 18.2523 23.8909C18.2523 27.0646 20.825 29.6374 23.9986 29.6374Z" fill="url(#paint5_linear_9641_451729)"/>
<path d="M29.6449 23.8909C29.6449 27.0094 27.1169 29.5374 23.9986 29.5374C20.8802 29.5374 18.3523 27.0094 18.3523 23.8909C18.3523 20.7725 20.8802 18.2445 23.9986 18.2445C27.1169 18.2445 29.6449 20.7725 29.6449 23.8909Z" stroke="#284104" stroke-width="0.2"/>
</g>
<path d="M43.6937 27.0275C44.0094 28.1739 44.3356 29.3569 43.8185 30.6364C43.5228 31.3685 42.991 31.9066 42.4268 32.4771C41.4546 33.463 40.4488 34.4814 40.3355 36.7185C40.304 37.3236 40.3701 37.9298 40.5232 38.5109C40.0051 38.1658 40.0345 39.0468 40.0345 39.0468C39.7839 38.2896 39.6737 37.4862 39.7146 36.687C39.8405 34.2118 40.9784 33.0581 41.9842 32.0398C42.5233 31.4923 42.9921 31.0182 43.2406 30.4026C43.679 29.3191 43.3948 28.2861 43.0928 27.1922C42.5516 25.2288 41.9454 23.0295 45.699 20.3477C45.699 20.3477 45.2512 20.9056 45.8028 21.0378C42.6827 23.3588 43.1756 25.147 43.6927 27.0275H43.6937Z" fill="#06070B"/>
<path d="M7.96954 39.0465C8.01045 38.1131 7.48081 38.5106 7.48081 38.5106C7.63498 37.9296 7.70001 37.3223 7.66854 36.7182C7.55527 34.4811 6.54949 33.4627 5.57727 32.4768C5.01303 31.9063 4.4813 31.3682 4.18554 30.6362C3.66744 29.3566 3.99466 28.1736 4.31034 27.0272C4.82844 25.1478 5.32137 23.3595 2.2002 21.0375C2.83471 20.9368 2.34598 20.3935 2.30717 20.3516C6.05761 23.0302 5.45142 25.2275 4.91025 27.1919C4.6082 28.2868 4.32398 29.3189 4.76237 30.4023C5.01093 31.0179 5.47869 31.492 6.01881 32.0395C7.02459 33.0579 8.16252 34.2115 8.28942 36.6867C8.33032 37.4859 8.21915 38.2893 7.96954 39.0465Z" fill="#06070B"/>
<path d="M34.3022 43.4352C31.3321 42.7692 27.8103 42.3906 24.0011 42.3906C20.1919 42.3906 16.6701 42.7703 13.7 43.4352C13.7 43.4352 14.8914 43.3031 14.603 43.8894C17.4326 43.3167 20.6502 43.0126 24 43.0126C27.3498 43.0126 30.5675 43.3178 33.3971 43.8894C32.9566 43.345 34.3001 43.4352 34.3001 43.4352H34.3022Z" fill="#06070B"/>
<path d="M42.1166 11.5281C41.5145 11.5868 40.6545 11.4641 39.6121 10.7551C39.2649 10.5191 38.8412 10.1363 38.3493 9.69265C36.5905 8.11 33.6487 5.45861 28.4373 4.24095L28.3922 4.23151C26.9575 3.89904 25.4787 3.73438 24.0009 3.73438C22.5232 3.73438 21.0455 3.89904 19.6087 4.23151L19.5646 4.24095C14.3532 5.45861 11.4114 8.11 9.65257 9.69265C9.16174 10.1363 8.73698 10.5181 8.39193 10.7551C7.3484 11.4641 6.4884 11.5868 5.88744 11.5281C5.88744 11.5281 6.25557 11.914 5.50464 12.1007C6.22935 12.2454 7.36308 12.2077 8.74223 11.269C9.12189 11.011 9.56133 10.6145 10.07 10.1562C11.8938 8.51274 14.6521 6.02916 19.7072 4.84926L19.7492 4.83982C22.5306 4.19585 25.4724 4.19585 28.2527 4.83877L28.2968 4.84926C33.3519 6.02916 36.1102 8.51274 37.934 10.1562C38.4427 10.6145 38.8821 11.011 39.2618 11.269C40.2801 11.9623 41.1632 12.1626 41.847 12.1626C42.0914 12.1626 42.3085 12.1374 42.4983 12.0986C41.7537 11.9528 42.1176 11.5281 42.1176 11.5281H42.1166Z" fill="#06070B"/>
<path d="M23.9999 29.7957C20.7445 29.7957 18.0963 27.1475 18.0963 23.892C18.0963 20.6365 20.7445 17.9883 23.9999 17.9883C27.2553 17.9883 29.9035 20.6365 29.9035 23.892C29.9035 27.1475 27.2553 29.7957 23.9999 29.7957ZM23.9999 18.3784C20.9595 18.3784 18.4854 20.8526 18.4854 23.8931C18.4854 26.9336 20.9595 29.4077 23.9999 29.4077C27.0403 29.4077 29.5144 26.9336 29.5144 23.8931C29.5144 20.8526 27.0403 18.3784 23.9999 18.3784Z" fill="#06070B"/>
<path d="M28.9396 22.68C28.067 20.9537 26.1824 19.7602 23.9988 19.7602C21.8153 19.7602 19.9285 20.9558 19.0559 22.6853C19.5971 20.4587 21.6044 18.8047 23.9988 18.8047C26.3932 18.8047 28.3974 20.4555 28.9396 22.6811V22.68Z" fill="white" fill-opacity="0.25"/>
<path d="M29.0955 24.6758C28.764 27.1929 26.6088 29.1364 24.0015 29.1364C21.3943 29.1364 19.239 27.1929 18.9076 24.6758C19.7959 26.4409 21.7424 27.6659 24.0015 27.6659C26.2606 27.6659 28.2071 26.4409 29.0955 24.6758Z" fill="white" fill-opacity="0.25"/>
<defs>
<filter id="filter0_d_9641_451729" x="3.88501" y="1" width="40.2291" height="13.8828" filterUnits="userSpaceOnUse" color-interpolation-filters="sRGB">
<feFlood flood-opacity="0" result="BackgroundImageFix"/>
<feColorMatrix in="SourceAlpha" type="matrix" values="0 0 0 0 0 0 0 0 0 0 0 0 0 0 0 0 0 0 127 0" result="hardAlpha"/>
<feOffset dy="1"/>
<feGaussianBlur stdDeviation="1"/>
<feComposite in2="hardAlpha" operator="out"/>
<feColorMatrix type="matrix" values="0 0 0 0 0 0 0 0 0 0 0 0 0 0 0 0 0 0 0.1 0"/>
<feBlend mode="normal" in2="BackgroundImageFix" result="effect1_dropShadow_9641_451729"/>
<feBlend mode="normal" in="SourceGraphic" in2="effect1_dropShadow_9641_451729" result="shape"/>
</filter>
<filter id="filter1_d_9641_451729" x="-0.00012207" y="19.8281" width="10.002" height="21.8398" filterUnits="userSpaceOnUse" color-interpolation-filters="sRGB">
<feFlood flood-opacity="0" result="BackgroundImageFix"/>
<feColorMatrix in="SourceAlpha" type="matrix" values="0 0 0 0 0 0 0 0 0 0 0 0 0 0 0 0 0 0 127 0" result="hardAlpha"/>
<feOffset dy="1"/>
<feGaussianBlur stdDeviation="1"/>
<feComposite in2="hardAlpha" operator="out"/>
<feColorMatrix type="matrix" values="0 0 0 0 0 0 0 0 0 0 0 0 0 0 0 0 0 0 0.1 0"/>
<feBlend mode="normal" in2="BackgroundImageFix" result="effect1_dropShadow_9641_451729"/>
<feBlend mode="normal" in="SourceGraphic" in2="effect1_dropShadow_9641_451729" result="shape"/>
</filter>
<filter id="filter2_d_9641_451729" x="37.969" y="19.7734" width="10.0344" height="22.043" filterUnits="userSpaceOnUse" color-interpolation-filters="sRGB">
<feFlood flood-opacity="0" result="BackgroundImageFix"/>
<feColorMatrix in="SourceAlpha" type="matrix" values="0 0 0 0 0 0 0 0 0 0 0 0 0 0 0 0 0 0 127 0" result="hardAlpha"/>
<feOffset dy="1"/>
<feGaussianBlur stdDeviation="1"/>
<feComposite in2="hardAlpha" operator="out"/>
<feColorMatrix type="matrix" values="0 0 0 0 0 0 0 0 0 0 0 0 0 0 0 0 0 0 0.1 0"/>
<feBlend mode="normal" in2="BackgroundImageFix" result="effect1_dropShadow_9641_451729"/>
<feBlend mode="normal" in="SourceGraphic" in2="effect1_dropShadow_9641_451729" result="shape"/>
</filter>
<filter id="filter3_d_9641_451729" x="12.5468" y="41.7539" width="22.8739" height="7.24609" filterUnits="userSpaceOnUse" color-interpolation-filters="sRGB">
<feFlood flood-opacity="0" result="BackgroundImageFix"/>
<feColorMatrix in="SourceAlpha" type="matrix" values="0 0 0 0 0 0 0 0 0 0 0 0 0 0 0 0 0 0 127 0" result="hardAlpha"/>
<feOffset dy="1"/>
<feGaussianBlur stdDeviation="1"/>
<feComposite in2="hardAlpha" operator="out"/>
<feColorMatrix type="matrix" values="0 0 0 0 0 0 0 0 0 0 0 0 0 0 0 0 0 0 0.1 0"/>
<feBlend mode="normal" in2="BackgroundImageFix" result="effect1_dropShadow_9641_451729"/>
<feBlend mode="normal" in="SourceGraphic" in2="effect1_dropShadow_9641_451729" result="shape"/>
</filter>
<filter id="filter4_d_9641_451729" x="16.2523" y="17.1445" width="15.4926" height="15.4922" filterUnits="userSpaceOnUse" color-interpolation-filters="sRGB">
<feFlood flood-opacity="0" result="BackgroundImageFix"/>
<feColorMatrix in="SourceAlpha" type="matrix" values="0 0 0 0 0 0 0 0 0 0 0 0 0 0 0 0 0 0 127 0" result="hardAlpha"/>
<feOffset dy="1"/>
<feGaussianBlur stdDeviation="1"/>
<feComposite in2="hardAlpha" operator="out"/>
<feColorMatrix type="matrix" values="0 0 0 0 0 0 0 0 0 0 0 0 0 0 0 0 0 0 0.1 0"/>
<feBlend mode="normal" in2="BackgroundImageFix" result="effect1_dropShadow_9641_451729"/>
<feBlend mode="normal" in="SourceGraphic" in2="effect1_dropShadow_9641_451729" result="shape"/>
</filter>
<linearGradient id="paint0_linear_9641_451729" x1="23.9987" y1="2" x2="23.9987" y2="45.9995" gradientUnits="userSpaceOnUse">
<stop stop-color="white"/>
<stop offset="1" stop-color="#6C7B9B"/>
</linearGradient>
<linearGradient id="paint1_linear_9641_451729" x1="23.9996" y1="2" x2="23.9996" y2="11.882" gradientUnits="userSpaceOnUse">
<stop stop-color="#D1F06C"/>
<stop offset="0.48" stop-color="#5DAC15"/>
<stop offset="1" stop-color="#308C03"/>
</linearGradient>
<linearGradient id="paint2_linear_9641_451729" x1="5.00086" y1="20.8281" x2="5.00086" y2="38.6694" gradientUnits="userSpaceOnUse">
<stop stop-color="#D1F06C"/>
<stop offset="0.48" stop-color="#5DAC15"/>
<stop offset="1" stop-color="#308C03"/>
</linearGradient>
<linearGradient id="paint3_linear_9641_451729" x1="42.9862" y1="20.7734" x2="42.9862" y2="38.815" gradientUnits="userSpaceOnUse">
<stop stop-color="#D1F06C"/>
<stop offset="0.48" stop-color="#5DAC15"/>
<stop offset="1" stop-color="#308C03"/>
</linearGradient>
<linearGradient id="paint4_linear_9641_451729" x1="23.9837" y1="42.7539" x2="23.9837" y2="46.001" gradientUnits="userSpaceOnUse">
<stop stop-color="#D1F06C"/>
<stop offset="0.48" stop-color="#5DAC15"/>
<stop offset="1" stop-color="#308C03"/>
</linearGradient>
<linearGradient id="paint5_linear_9641_451729" x1="23.9986" y1="18.1445" x2="23.9986" y2="29.6374" gradientUnits="userSpaceOnUse">
<stop stop-color="#D1F06C"/>
<stop offset="0.48" stop-color="#5DAC15"/>
<stop offset="1" stop-color="#308C03"/>
</linearGradient>
</defs>
</svg>
