<svg width="40" height="40" viewBox="0 0 40 40" fill="none" xmlns="http://www.w3.org/2000/svg">
<path fill-rule="evenodd" clip-rule="evenodd" d="M21.1347 9.9651L19.0224 10.0113L18.0148 8.13512C16.6326 7.919 14.9922 8.70928 14.2008 9.31145L14.4635 11.7587C12.0154 13.809 13.275 12.4359 10.7418 12.2629C10.0155 12.823 8.94327 14.2439 8.88915 15.6114L10.4496 17.0227C10.4451 19.8474 9.98222 18.9632 8.03112 19.8917C7.89903 21.2387 8.20182 22.7575 8.66698 23.7666L10.9678 23.8328L12.0363 25.5175L10.9254 27.542C11.4155 28.489 12.867 29.7486 13.9045 30.0536L15.7129 28.7293C18.4266 29.1097 17.469 29.6744 18.1598 31.6826C19.6737 32.0267 21.8742 32.3662 22.3129 30.825C22.4143 30.4688 22.4488 29.7486 22.4889 29.3534L23.5142 28.9666C23.3473 28.3304 21.7978 26.6862 21.3587 26.2585C17.2775 26.1704 14.971 25.0849 13.9109 21.9048C11.4704 14.5826 21.3459 10.0275 25.5198 16.1969C27.9459 19.7826 25.2931 21.1543 27.0141 23.0566C27.6181 23.7242 27.7817 23.9384 28.3611 24.6068C29.3951 24.2079 28.3959 24.0501 29.5295 23.8234C30.2282 23.6837 32.6142 24.8544 32.1664 19.914L30.0526 19.0919L29.6188 16.9168C30.3622 16.5084 30.6756 16.2699 31.2702 15.6114C31.2656 14.4388 30.1869 12.9116 29.4901 12.2682C27.7688 12.2447 27.7888 13.3809 26.5588 12.4593C25.0089 11.2981 26.0705 11.1221 25.8639 9.28685C25.0524 8.66992 23.6546 8.02914 22.2917 8C21.8281 8.48333 21.4095 9.34363 21.1347 9.9651ZM15.6235 18.475C15.0414 20.6361 15.9014 22.5384 17.1916 23.6167C19.3119 25.3884 20.947 23.8131 22.4408 25.5977C23.5589 26.9338 24.5074 28.0556 25.6209 29.4215C26.3646 30.3341 28.0492 33.1406 29.9954 31.4904C31.8386 29.9276 29.511 27.9121 28.7419 26.9788C27.6 25.5935 26.6269 24.4445 25.4426 23.0501C23.8344 21.1566 25.4755 19.7024 24.1664 17.3092C23.4378 15.977 21.6911 14.4263 19.4247 15.0168C19.5201 16.2839 22.8507 18.0749 20.6779 20.3356C20.0556 20.9828 18.497 21.169 17.8138 20.523C16.5603 19.3375 16.991 18.8391 15.6243 18.4761L15.6235 18.475Z" fill="white"/>
</svg>
