<svg width="57" height="36" viewBox="0 0 57 36" fill="none" xmlns="http://www.w3.org/2000/svg">
<g filter="url(#filter0_d_4084_104928)">
<path d="M11.3975 1.79319C12.1382 0.673478 13.3912 0 14.7337 0H50.9184C53.1276 0 54.9185 1.79086 54.9185 4V28C54.9185 30.2091 53.1276 32 50.9185 32H14.7337C13.3912 32 12.1382 31.3265 11.3975 30.2068L3.45976 18.2068C2.57465 16.8687 2.57465 15.1313 3.45976 13.7932L11.3975 1.79319Z" fill="white"/>
</g>
<path fill-rule="evenodd" clip-rule="evenodd" d="M36.4393 10.4393C37.0251 9.85355 37.9749 9.85355 38.5607 10.4393C39.1464 11.0251 39.1464 11.9749 38.5607 12.5607L34.6213 16.5L38.5607 20.4393C39.1464 21.0251 39.1464 21.9749 38.5607 22.5607C37.9749 23.1464 37.0251 23.1464 36.4393 22.5607L32.5 18.6213L28.5607 22.5607C27.9749 23.1464 27.0251 23.1464 26.4393 22.5607C25.8536 21.9749 25.8536 21.0251 26.4393 20.4393L30.3787 16.5L26.4393 12.5607C25.8536 11.9749 25.8536 11.0251 26.4393 10.4393C27.0251 9.85355 27.9749 9.85355 28.5607 10.4393L32.5 14.3787L36.4393 10.4393Z" fill="#000D10"/>
<defs>
<filter id="filter0_d_4084_104928" x="0.795898" y="0" width="56.1226" height="36" filterUnits="userSpaceOnUse" color-interpolation-filters="sRGB">
<feFlood flood-opacity="0" result="BackgroundImageFix"/>
<feColorMatrix in="SourceAlpha" type="matrix" values="0 0 0 0 0 0 0 0 0 0 0 0 0 0 0 0 0 0 127 0" result="hardAlpha"/>
<feOffset dy="2"/>
<feGaussianBlur stdDeviation="1"/>
<feComposite in2="hardAlpha" operator="out"/>
<feColorMatrix type="matrix" values="0 0 0 0 0 0 0 0 0 0 0 0 0 0 0 0 0 0 0.15 0"/>
<feBlend mode="normal" in2="BackgroundImageFix" result="effect1_dropShadow_4084_104928"/>
<feBlend mode="normal" in="SourceGraphic" in2="effect1_dropShadow_4084_104928" result="shape"/>
</filter>
</defs>
</svg>
