<svg width="58" height="37" viewBox="0 0 58 37" fill="none" xmlns="http://www.w3.org/2000/svg">
<g filter="url(#filter0_d_10984_70053)">
<path d="M11.5357 1.83701C12.2778 0.725821 13.5258 0.0585938 14.862 0.0585938H51.5546C53.7638 0.0585938 55.5546 1.84945 55.5546 4.05859V28.1239C55.5546 30.333 53.7638 32.1239 51.5546 32.1239H14.862C13.5258 32.1239 12.2778 31.4566 11.5357 30.3455L3.49936 18.3128C2.60116 16.9679 2.60116 15.2145 3.49936 13.8697L11.5357 1.83701Z" fill="#000D10"/>
</g>
<path fill-rule="evenodd" clip-rule="evenodd" d="M36.8762 10.5163C37.4648 9.93332 38.4145 9.93789 38.9975 10.5265C39.5804 11.1151 39.5758 12.0648 38.9872 12.6478L35.0047 16.5922L38.9872 20.5367C39.5758 21.1196 39.5804 22.0694 38.9975 22.658C38.4145 23.2466 37.4648 23.2511 36.8762 22.6682L32.8731 18.7034L28.87 22.6682C28.2814 23.2511 27.3317 23.2466 26.7487 22.658C26.1657 22.0694 26.1703 21.1196 26.7589 20.5367L30.7415 16.5922L26.7589 12.6478C26.1703 12.0648 26.1657 11.1151 26.7487 10.5265C27.3317 9.93789 28.2814 9.93332 28.87 10.5163L32.8731 14.481L36.8762 10.5163Z" fill="white"/>
<defs>
<filter id="filter0_d_10984_70053" x="0.826172" y="0.0585938" width="56.7285" height="36.0664" filterUnits="userSpaceOnUse" color-interpolation-filters="sRGB">
<feFlood flood-opacity="0" result="BackgroundImageFix"/>
<feColorMatrix in="SourceAlpha" type="matrix" values="0 0 0 0 0 0 0 0 0 0 0 0 0 0 0 0 0 0 127 0" result="hardAlpha"/>
<feOffset dy="2"/>
<feGaussianBlur stdDeviation="1"/>
<feComposite in2="hardAlpha" operator="out"/>
<feColorMatrix type="matrix" values="0 0 0 0 0 0 0 0 0 0 0 0 0 0 0 0 0 0 0.15 0"/>
<feBlend mode="normal" in2="BackgroundImageFix" result="effect1_dropShadow_10984_70053"/>
<feBlend mode="normal" in="SourceGraphic" in2="effect1_dropShadow_10984_70053" result="shape"/>
</filter>
</defs>
</svg>
