<svg width="23" height="16" viewBox="0 0 23 16" fill="none" xmlns="http://www.w3.org/2000/svg">
<path d="M19.6449 2.46094H4.73741C3.97809 2.46094 3.24987 2.69596 2.71295 3.11431C2.17603 3.53267 1.87439 4.10007 1.87439 4.69171V10.7686C1.87439 11.3399 2.16563 11.8877 2.68403 12.2916C3.20244 12.6956 3.90555 12.9225 4.63868 12.9225H5.03358V14.4486C5.03358 14.8599 5.24327 15.2544 5.61653 15.5452C5.98978 15.836 6.49602 15.9994 7.02388 15.9994H17.2597C17.7875 15.9994 18.2938 15.836 18.667 15.5452C19.0403 15.2544 19.25 14.8599 19.25 14.4486V12.9225H19.6449C20.378 12.9225 21.0811 12.6956 21.5995 12.2916C22.1179 11.8877 22.4091 11.3399 22.4091 10.7686V4.61478C22.4091 4.04355 22.1179 3.49571 21.5995 3.09178C21.0811 2.68786 20.378 2.46094 19.6449 2.46094ZM17.6704 14.4486C17.67 14.5334 17.6266 14.6146 17.5496 14.6746C17.4727 14.7345 17.3685 14.7683 17.2597 14.7686H7.02388C6.91507 14.7683 6.81084 14.7345 6.7339 14.6746C6.65697 14.6146 6.61357 14.5334 6.61318 14.4486V8.3194C6.61357 8.23462 6.65697 8.15341 6.7339 8.09346C6.81084 8.03352 6.91507 7.9997 7.02388 7.9994H17.2597C17.3685 7.9997 17.4727 8.03352 17.5496 8.09346C17.6266 8.15341 17.67 8.23462 17.6704 8.3194V14.4486ZM18.9538 6.15017C18.7122 6.1653 18.4704 6.12231 18.2611 6.02701C18.0518 5.93171 17.8851 5.78867 17.7834 5.61721C17.6817 5.44575 17.65 5.25411 17.6925 5.06816C17.735 4.88221 17.8497 4.7109 18.0212 4.57735C18.1926 4.44379 18.4124 4.35442 18.6511 4.32129C18.8897 4.28816 19.1357 4.31288 19.3557 4.39209C19.5758 4.47131 19.7594 4.60122 19.8817 4.76429C20.004 4.92736 20.0592 5.11574 20.0398 5.30401C20.0172 5.52257 19.8956 5.72773 19.6966 5.88277C19.4976 6.03781 19.2343 6.1326 18.9538 6.15017Z" fill="white"/>
<path d="M16.4851 0H7.79731C7.1329 0.000770881 6.49099 0.187678 5.98876 0.526605C5.48653 0.865532 5.15747 1.33388 5.06165 1.84615H19.2208C19.1249 1.33388 18.7959 0.865532 18.2936 0.526605C17.7914 0.187678 17.1495 0.000770881 16.4851 0Z" fill="white"/>
</svg>
