<svg width="48" height="48" viewBox="0 0 48 48" fill="none" xmlns="http://www.w3.org/2000/svg">
<mask id="path-1-inside-1_4220_63485" fill="white">
<path fill-rule="evenodd" clip-rule="evenodd" d="M15.6704 5.33276C14.9921 5.84454 14.9164 6.81036 15.206 7.59928L15.2075 7.59674C15.4088 8.14941 15.4901 8.73684 15.4461 9.32175C15.4021 9.90666 15.2338 10.4763 14.9519 10.9945C14.67 11.5127 14.2806 11.9681 13.8085 12.3319C13.3364 12.6957 12.7918 12.9599 12.2094 13.1077C11.599 13.2615 10.9617 13.2841 10.3415 13.1742C9.72129 13.0643 9.13301 12.8244 8.61735 12.4711C7.93871 12.0047 7.01149 11.8114 6.3308 12.2744L5.14942 13.0785C4.53734 13.5343 4.1344 14.2069 4.02804 14.9504C3.92167 15.6938 4.12046 16.4481 4.58127 17.0496L15.76 31.7252L16.2583 30.6219L25.0775 10.7813L20.7366 5.09321C20.2824 4.52809 19.6261 4.1507 18.8989 4.03639C18.1716 3.92209 17.4268 4.07928 16.8132 4.47657L15.6704 5.33276Z"/>
</mask>
<path fill-rule="evenodd" clip-rule="evenodd" d="M15.6704 5.33276C14.9921 5.84454 14.9164 6.81036 15.206 7.59928L15.2075 7.59674C15.4088 8.14941 15.4901 8.73684 15.4461 9.32175C15.4021 9.90666 15.2338 10.4763 14.9519 10.9945C14.67 11.5127 14.2806 11.9681 13.8085 12.3319C13.3364 12.6957 12.7918 12.9599 12.2094 13.1077C11.599 13.2615 10.9617 13.2841 10.3415 13.1742C9.72129 13.0643 9.13301 12.8244 8.61735 12.4711C7.93871 12.0047 7.01149 11.8114 6.3308 12.2744L5.14942 13.0785C4.53734 13.5343 4.1344 14.2069 4.02804 14.9504C3.92167 15.6938 4.12046 16.4481 4.58127 17.0496L15.76 31.7252L16.2583 30.6219L25.0775 10.7813L20.7366 5.09321C20.2824 4.52809 19.6261 4.1507 18.8989 4.03639C18.1716 3.92209 17.4268 4.07928 16.8132 4.47657L15.6704 5.33276Z" fill="url(#paint0_linear_4220_63485)"/>
<path d="M15.206 7.59928L14.7366 7.77156L15.0994 8.76008L15.6361 7.85413L15.206 7.59928ZM15.6704 5.33276L15.3706 4.9326L15.3693 4.93362L15.6704 5.33276ZM15.2075 7.59674L15.6773 7.42557L15.3157 6.43315L14.7773 7.34188L15.2075 7.59674ZM15.4461 9.32175L14.9475 9.28425L14.9475 9.28425L15.4461 9.32175ZM14.9519 10.9945L15.3911 11.2334L15.3911 11.2334L14.9519 10.9945ZM13.8085 12.3319L13.5033 11.9358L13.5033 11.9358L13.8085 12.3319ZM12.2094 13.1077L12.3315 13.5926L12.3324 13.5924L12.2094 13.1077ZM10.3415 13.1742L10.2542 13.6665L10.2542 13.6665L10.3415 13.1742ZM8.61735 12.4711L8.33417 12.8832L8.33475 12.8836L8.61735 12.4711ZM6.3308 12.2744L6.04957 11.861L6.04948 11.8611L6.3308 12.2744ZM5.14942 13.0785L4.8681 12.6651L4.85931 12.6711L4.85078 12.6774L5.14942 13.0785ZM4.02804 14.9504L4.523 15.0212L4.523 15.0212L4.02804 14.9504ZM4.58127 17.0496L4.97902 16.7467L4.97818 16.7456L4.58127 17.0496ZM15.76 31.7252L15.3622 32.0282L15.8704 32.6954L16.2156 31.9311L15.76 31.7252ZM16.2583 30.6219L16.714 30.8277L16.7152 30.825L16.2583 30.6219ZM25.0775 10.7813L25.5344 10.9844L25.6548 10.7136L25.475 10.478L25.0775 10.7813ZM20.7366 5.09321L21.1342 4.78978L21.1263 4.77998L20.7366 5.09321ZM18.8989 4.03639L18.9765 3.54246L18.9765 3.54246L18.8989 4.03639ZM16.8132 4.47657L16.5415 4.05687L16.5271 4.06617L16.5134 4.07642L16.8132 4.47657ZM15.6754 7.42699C15.4244 6.74331 15.5424 6.05572 15.9716 5.73189L15.3693 4.93362C14.4419 5.63335 14.4084 6.87741 14.7366 7.77156L15.6754 7.42699ZM14.7773 7.34188L14.7758 7.34443L15.6361 7.85413L15.6377 7.85159L14.7773 7.34188ZM15.9447 9.35925C15.994 8.70332 15.9029 8.04476 15.6773 7.42557L14.7377 7.76791C14.9148 8.25405 14.9862 8.77036 14.9475 9.28425L15.9447 9.35925ZM15.3911 11.2334C15.7067 10.6534 15.8954 10.0152 15.9447 9.35925L14.9475 9.28425C14.9089 9.79816 14.761 10.2992 14.5127 10.7555L15.3911 11.2334ZM14.1137 12.728C14.6404 12.3222 15.0756 11.8134 15.3911 11.2334L14.5127 10.7555C14.2644 11.212 13.9209 11.6141 13.5033 11.9358L14.1137 12.728ZM12.3324 13.5924C12.9804 13.4279 13.5871 13.1338 14.1137 12.728L13.5033 11.9358C13.0857 12.2576 12.6032 12.4919 12.0864 12.6231L12.3324 13.5924ZM10.2542 13.6665C10.9439 13.7888 11.6526 13.7636 12.3315 13.5926L12.0872 12.6229C11.5454 12.7593 10.9795 12.7795 10.4288 12.6819L10.2542 13.6665ZM8.33475 12.8836C8.90956 13.2774 9.56453 13.5443 10.2542 13.6665L10.4288 12.6819C9.87805 12.5843 9.35646 12.3714 8.89995 12.0586L8.33475 12.8836ZM6.61204 12.6878C7.05025 12.3897 7.73996 12.4748 8.33417 12.8832L8.90053 12.059C8.13746 11.5346 6.97273 11.233 6.04957 11.861L6.61204 12.6878ZM5.43075 13.4918L6.61212 12.6878L6.04948 11.8611L4.8681 12.6651L5.43075 13.4918ZM4.523 15.0212C4.61017 14.4119 4.94084 13.8572 5.44807 13.4795L4.85078 12.6774C4.13384 13.2114 3.65864 14.0019 3.53308 14.8796L4.523 15.0212ZM4.97818 16.7456C4.5983 16.2497 4.43586 15.6302 4.523 15.0212L3.53308 14.8796C3.40749 15.7574 3.64263 16.6466 4.18436 17.3537L4.97818 16.7456ZM16.1577 31.4223L4.97902 16.7467L4.18352 17.3526L15.3622 32.0282L16.1577 31.4223ZM16.2156 31.9311L16.714 30.8277L15.8027 30.4161L15.3043 31.5194L16.2156 31.9311ZM16.7152 30.825L25.5344 10.9844L24.6206 10.5782L15.8014 30.4188L16.7152 30.825ZM20.3391 5.39654L24.68 11.0847L25.475 10.478L21.1341 4.78987L20.3391 5.39654ZM18.8212 4.53033C19.4277 4.62565 19.9719 4.93992 20.3469 5.40644L21.1263 4.77998C20.5929 4.11625 19.8246 3.67575 18.9765 3.54246L18.8212 4.53033ZM17.085 4.89627C17.5944 4.56642 18.2146 4.43499 18.8212 4.53033L18.9765 3.54246C18.1286 3.40918 17.2592 3.59213 16.5415 4.05687L17.085 4.89627ZM15.9702 5.73291L17.113 4.87673L16.5134 4.07642L15.3706 4.9326L15.9702 5.73291Z" fill="#E7B122" mask="url(#path-1-inside-1_4220_63485)"/>
<path d="M20.6454 17.5867C18.8408 16.3423 16.4842 18.1527 17.3052 20.1528C17.5866 20.8383 17.3717 21.6241 16.7749 22.0826L16.6733 22.1607C14.9664 23.4719 15.9049 26.1532 18.0859 26.1671L18.5714 26.1703C19.3018 26.1749 19.9556 26.6098 20.2263 27.2694L20.4424 27.7958C21.2407 29.7408 24.1251 29.5183 24.6101 27.4898C24.7889 26.7421 25.4756 26.2145 26.2635 26.2196C28.4012 26.2333 29.296 23.5523 27.5412 22.3421L27.0663 22.0146C26.4711 21.6042 26.1897 20.8833 26.3554 20.1902L26.4655 19.7295C26.9604 17.6598 24.5035 16.1451 22.7966 17.4564L22.6951 17.5344C22.0982 17.993 21.2639 18.0133 20.6454 17.5867Z" fill="url(#paint1_linear_4220_63485)" stroke="#FFF379" stroke-width="0.5"/>
<path d="M38.9277 14.2152L39.0018 14.1317C39.5266 13.5889 40.2834 13.2938 40.9176 13.5427C40.9177 13.5428 40.9178 13.5428 40.9179 13.5429L42.2563 14.074C42.8647 14.3662 43.334 14.866 43.574 15.4718C43.8145 16.0788 43.8082 16.75 43.5564 17.3528L32.3912 42.179L32.391 42.1793C32.1106 42.805 31.5831 43.3022 30.9199 43.5598C30.2566 43.8173 29.5138 43.8132 28.8538 43.5483C28.8536 43.5482 28.8535 43.5481 28.8533 43.5481L15.3595 38.0252C15.3595 38.0252 15.3594 38.0251 15.3593 38.0251C14.7027 37.7539 14.1869 37.2464 13.9207 36.6156C13.655 35.9859 13.6581 35.2816 13.9294 34.6541L15.3911 31.4637L15.3917 31.4623L25.1016 9.92517L25.1019 9.92453C25.3818 9.29899 25.9087 8.80169 26.5713 8.54369C27.2325 8.28621 27.9731 8.28898 28.6321 8.5512L29.947 9.14198C30.5709 9.42245 30.8505 10.1655 30.7798 10.9118L30.7798 10.9122C30.7195 11.5596 30.8064 12.2118 31.0342 12.8234C31.262 13.4349 31.6251 13.9908 32.0977 14.4529L32.0981 14.4532C32.5502 14.8936 33.0921 15.2384 33.689 15.4662C34.286 15.694 34.9254 15.8 35.5668 15.7776C36.2082 15.7553 36.838 15.6052 37.4165 15.3365C37.995 15.0677 38.5097 14.6861 38.9277 14.2152Z" fill="url(#paint2_linear_4220_63485)" stroke="#E7B122" stroke-width="0.5"/>
<path d="M32.3319 24.002C32.4967 21.8534 29.6937 20.8199 28.3572 22.5364C27.9006 23.1229 27.0986 23.3502 26.3849 23.087L26.2639 23.0424C24.2389 22.2957 22.3528 24.4557 23.4686 26.291L23.716 26.6981C24.0883 27.3105 24.042 28.0787 23.6029 28.6428L23.2512 29.0944C21.9436 30.774 23.6412 33.0553 25.6627 32.419C26.4138 32.1826 27.234 32.485 27.6363 33.1467C28.7189 34.9276 31.5414 34.313 31.7026 32.2107L31.7459 31.6454C31.8 30.9394 32.2873 30.3338 32.9825 30.115L33.4445 29.9695C35.5278 29.3138 35.5819 26.4783 33.5569 25.7316L33.436 25.687C32.7223 25.4238 32.2756 24.7361 32.3319 24.002Z" fill="url(#paint3_linear_4220_63485)" stroke="#FFF379" stroke-width="0.5"/>
<path d="M14.3097 36.0001C14.4905 36.479 14.8179 37.068 15.3688 37.3074L28.8837 43.1815C29.4347 43.4209 30.083 43.2715 30.5621 43.0639L14.3097 36.0001Z" fill="url(#paint4_linear_4220_63485)"/>
<path fill-rule="evenodd" clip-rule="evenodd" d="M10.3204 19.8494L9.66225 20.3514L9.17464 19.6881L9.83282 19.1861L10.3204 19.8494ZM12.9531 17.8415L11.6368 18.8454L11.1492 18.1821L12.4655 17.1782L12.9531 17.8415ZM15.5859 15.8336L14.2695 16.8376L13.7819 16.1743L15.0983 15.1703L15.5859 15.8336ZM18.2186 13.8257L16.9022 14.8297L16.4146 14.1664L17.731 13.1624L18.2186 13.8257ZM20.8513 11.8179L19.535 12.8218L19.0473 12.1585L20.3637 11.1546L20.8513 11.8179ZM22.8259 10.3119L22.1677 10.8139L21.6801 10.1506L22.3382 9.64864L22.8259 10.3119Z" fill="#725300"/>
<path fill-rule="evenodd" clip-rule="evenodd" d="M24.8305 15.1758L24.0002 14.8166L24.3948 14L25.225 14.3592L24.8305 15.1758ZM28.1516 16.6125L26.4911 15.8941L26.8856 15.0775L28.5461 15.7958L28.1516 16.6125ZM31.4727 18.0491L29.8122 17.3308L30.2067 16.5142L31.8672 17.2325L31.4727 18.0491ZM34.7938 19.4858L33.1333 18.7675L33.5278 17.9509L35.1883 18.6692L34.7938 19.4858ZM38.1149 20.9225L36.4544 20.2042L36.8489 19.3875L38.5094 20.1059L38.1149 20.9225ZM40.6057 22L39.7755 21.6408L40.17 20.8242L41.0002 21.1834L40.6057 22Z" fill="#725300"/>
<g filter="url(#filter0_f_4220_63485)">
<rect width="17.4962" height="1.02946" transform="matrix(0.431239 -0.902238 0.894319 0.447429 30.0002 38.7859)" fill="white"/>
</g>
<g opacity="0.4" filter="url(#filter1_f_4220_63485)">
<rect width="17.1813" height="1.04835" transform="matrix(0.409049 -0.912512 0.920141 0.391588 12.0002 25.6782)" fill="white"/>
</g>
<defs>
<filter id="filter0_f_4220_63485" x="26.0002" y="19" width="16.4658" height="24.2466" filterUnits="userSpaceOnUse" color-interpolation-filters="sRGB">
<feFlood flood-opacity="0" result="BackgroundImageFix"/>
<feBlend mode="normal" in="SourceGraphic" in2="BackgroundImageFix" result="shape"/>
<feGaussianBlur stdDeviation="2" result="effect1_foregroundBlur_4220_63485"/>
</filter>
<filter id="filter1_f_4220_63485" x="8.00024" y="6" width="15.9927" height="24.0889" filterUnits="userSpaceOnUse" color-interpolation-filters="sRGB">
<feFlood flood-opacity="0" result="BackgroundImageFix"/>
<feBlend mode="normal" in="SourceGraphic" in2="BackgroundImageFix" result="shape"/>
<feGaussianBlur stdDeviation="2" result="effect1_foregroundBlur_4220_63485"/>
</filter>
<linearGradient id="paint0_linear_4220_63485" x1="28.681" y1="42.4408" x2="8.89606" y2="10.0317" gradientUnits="userSpaceOnUse">
<stop offset="0.14" stop-color="#FED524"/>
<stop offset="0.42" stop-color="#FFD10F"/>
<stop offset="0.52" stop-color="#F3C62F"/>
<stop offset="0.53" stop-color="#F4CA40"/>
<stop offset="0.55" stop-color="#F8D76C"/>
<stop offset="0.57" stop-color="#FBE18E"/>
<stop offset="0.6" stop-color="#FDE9A7"/>
<stop offset="0.62" stop-color="#FEEDB6"/>
<stop offset="0.63" stop-color="#FFEFBC"/>
<stop offset="0.67" stop-color="#F8DF95"/>
<stop offset="0.74" stop-color="#EFC657"/>
<stop offset="0.78" stop-color="#E9B630"/>
<stop offset="0.81" stop-color="#E7B122"/>
</linearGradient>
<linearGradient id="paint1_linear_4220_63485" x1="7.72734" y1="4.95524" x2="7.72734" y2="4.95524" gradientUnits="userSpaceOnUse">
<stop offset="0.07" stop-color="#AC6D29"/>
<stop offset="0.41" stop-color="#7A491D"/>
<stop offset="0.8" stop-color="#492511"/>
<stop offset="1" stop-color="#36170D"/>
</linearGradient>
<linearGradient id="paint2_linear_4220_63485" x1="30" y1="47.5" x2="46.5" y2="13" gradientUnits="userSpaceOnUse">
<stop offset="0.14" stop-color="#FED524"/>
<stop offset="0.42" stop-color="#FFD10F"/>
<stop offset="0.52" stop-color="#F3C62F"/>
<stop offset="0.53" stop-color="#F4CA40"/>
<stop offset="0.55" stop-color="#F8D76C"/>
<stop offset="0.57" stop-color="#FBE18E"/>
<stop offset="0.6" stop-color="#FDE9A7"/>
<stop offset="0.62" stop-color="#FEEDB6"/>
<stop offset="0.63" stop-color="#FFEFBC"/>
<stop offset="0.67" stop-color="#F8DF95"/>
<stop offset="0.74" stop-color="#EFC657"/>
<stop offset="0.78" stop-color="#E9B630"/>
<stop offset="0.81" stop-color="#E7B122"/>
</linearGradient>
<linearGradient id="paint3_linear_4220_63485" x1="36.7869" y1="6.70796" x2="36.7869" y2="6.70796" gradientUnits="userSpaceOnUse">
<stop offset="0.07" stop-color="#AC6D29"/>
<stop offset="0.41" stop-color="#7A491D"/>
<stop offset="0.8" stop-color="#492511"/>
<stop offset="1" stop-color="#36170D"/>
</linearGradient>
<linearGradient id="paint4_linear_4220_63485" x1="22" y1="38.5" x2="21" y2="41" gradientUnits="userSpaceOnUse">
<stop stop-color="white"/>
<stop offset="1" stop-color="#F0C01A"/>
</linearGradient>
</defs>
</svg>
