<svg width="248" height="249" viewBox="0 0 248 249" fill="none" xmlns="http://www.w3.org/2000/svg">
<path fill-rule="evenodd" clip-rule="evenodd" d="M124 14.3221C63.1785 14.3221 13.8729 63.6277 13.8729 124.449C13.8729 185.271 63.1785 234.576 124 234.576C184.821 234.576 234.127 185.271 234.127 124.449C234.127 63.6277 184.821 14.3221 124 14.3221ZM0.0664062 124.449C0.0664062 56.0026 55.5534 0.515625 124 0.515625C192.447 0.515625 247.934 56.0026 247.934 124.449C247.934 192.896 192.447 248.383 124 248.383C55.5534 248.383 0.0664062 192.896 0.0664062 124.449Z" fill="#C30808"/>
<path d="M39.7247 40.1707L29.9891 49.9063L198.302 218.219L208.038 208.483L39.7247 40.1707Z" fill="#C30808"/>
</svg>
