<svg width="43" height="39" viewBox="0 0 43 39" fill="none" xmlns="http://www.w3.org/2000/svg">
<path d="M9.10912 3.84405L6.40973 1.12551C0.101562 7.39155 0.101562 11.9327 0.101562 17.8005H2.01603L3.93049 17.6799C3.93049 12.0743 3.93049 8.9863 9.10912 3.84405ZM35.9097 1.12551L33.2142 3.84405C38.3909 8.9863 38.3909 12.0743 38.3909 17.8005L42.2198 17.6799C42.2198 11.9327 42.2198 7.39155 35.9097 1.12551ZM21.1607 38.8596C22.3463 38.8611 23.5029 38.4932 24.4698 37.807C25.4367 37.1208 26.1657 36.1504 26.5556 35.0307H15.7657C16.1556 36.1504 16.8847 37.1208 17.8515 37.807C18.8184 38.4932 19.9751 38.8611 21.1607 38.8596ZM34.5619 24.6658V15.886C34.5619 9.7272 30.3788 4.539 24.712 2.97871C24.1511 1.56583 22.7803 0.570312 21.1607 0.570312C19.541 0.570312 18.1703 1.56583 17.6094 2.97871C11.9406 4.539 7.75942 9.7272 7.75942 15.886V24.6658L4.49143 27.9338C4.3133 28.1112 4.17204 28.3222 4.07577 28.5545C3.9795 28.7868 3.93013 29.0358 3.93049 29.2873V31.2018C3.93049 31.7095 4.1322 32.1965 4.49123 32.5555C4.85026 32.9145 5.33721 33.1162 5.84496 33.1162H36.4764C36.9842 33.1162 37.4711 32.9145 37.8301 32.5555C38.1892 32.1965 38.3909 31.7095 38.3909 31.2018V29.2873C38.3912 29.0358 38.3419 28.7868 38.2456 28.5545C38.1493 28.3222 38.0081 28.1112 37.8299 27.9338L34.5619 24.6658Z" fill="white"/>
</svg>
