<svg width="24" height="24" viewBox="0 0 24 24" fill="none" xmlns="http://www.w3.org/2000/svg">
<path d="M8.72726 22.4945L9.08726 19.6909C9.24252 18.4927 9.79122 17.3799 10.6473 16.5272L16.8436 10.32C17.6117 9.57246 18.5831 9.06782 19.6363 8.86908V5.45454C19.6363 4.73824 19.4952 4.02895 19.2211 3.36718C18.947 2.7054 18.5452 2.1041 18.0387 1.5976C17.5322 1.0911 16.9309 0.689318 16.2692 0.415202C15.6074 0.141086 14.8981 0 14.1818 0H5.45454C4.73824 0 4.02895 0.141086 3.36718 0.415202C2.7054 0.689318 2.1041 1.0911 1.5976 1.5976C0.574673 2.62052 0 4.0079 0 5.45454V18.5454C0 19.2617 0.141086 19.971 0.415202 20.6328C0.689318 21.2946 1.0911 21.8959 1.5976 22.4024C2.62052 23.4253 4.0079 24 5.45454 24H8.92362C8.73863 23.5211 8.67129 23.0048 8.72726 22.4945ZM4.36363 6.54544H13.0909C13.3802 6.54544 13.6577 6.66038 13.8623 6.86496C14.0669 7.06955 14.1818 7.34702 14.1818 7.63635C14.1818 7.92568 14.0669 8.20315 13.8623 8.40774C13.6577 8.61232 13.3802 8.72726 13.0909 8.72726H4.36363C4.0743 8.72726 3.79683 8.61232 3.59224 8.40774C3.38766 8.20315 3.27272 7.92568 3.27272 7.63635C3.27272 7.34702 3.38766 7.06955 3.59224 6.86496C3.79683 6.66038 4.0743 6.54544 4.36363 6.54544ZM4.36363 10.9091H10.9091C11.1984 10.9091 11.4759 11.024 11.6805 11.2286C11.885 11.4332 12 11.7107 12 12C12 12.2893 11.885 12.5668 11.6805 12.7714C11.4759 12.976 11.1984 13.0909 10.9091 13.0909H4.36363C4.0743 13.0909 3.79683 12.976 3.59224 12.7714C3.38766 12.5668 3.27272 12.2893 3.27272 12C3.27272 11.7107 3.38766 11.4332 3.59224 11.2286C3.79683 11.024 4.0743 10.9091 4.36363 10.9091ZM6.54544 17.4545H4.36363C4.0743 17.4545 3.79683 17.3396 3.59224 17.135C3.38766 16.9304 3.27272 16.6529 3.27272 16.3636C3.27272 16.0743 3.38766 15.7968 3.59224 15.5922C3.79683 15.3876 4.0743 15.2727 4.36363 15.2727H6.54544C6.83477 15.2727 7.11225 15.3876 7.31683 15.5922C7.52142 15.7968 7.63635 16.0743 7.63635 16.3636C7.63635 16.6529 7.52142 16.9304 7.31683 17.135C7.11225 17.3396 6.83477 17.4545 6.54544 17.4545ZM23.04 16.4945L16.8327 22.7018C16.3234 23.2171 15.6541 23.544 14.9345 23.6291L12.1418 24H12C11.844 24.0013 11.6895 23.9691 11.547 23.9057C11.4044 23.8422 11.2772 23.7489 11.1738 23.6321C11.0704 23.5152 10.9932 23.3776 10.9476 23.2284C10.9019 23.0792 10.8888 22.9219 10.9091 22.7672L11.2691 19.9745C11.3541 19.255 11.6811 18.5857 12.1963 18.0763L18.4036 11.8691C19.0279 11.2767 19.8557 10.9465 20.7163 10.9465C21.5769 10.9465 22.4048 11.2767 23.0291 11.8691C23.6434 12.4813 23.9896 13.3123 23.9916 14.1795C23.9937 15.0468 23.6514 15.8794 23.04 16.4945Z" fill="white"/>
</svg>
