<svg width="53" height="37" viewBox="0 0 53 37" fill="none" xmlns="http://www.w3.org/2000/svg">
<g filter="url(#filter0_d_17949_293456)">
<mask id="path-1-inside-1_17949_293456" fill="white">
<path fill-rule="evenodd" clip-rule="evenodd" d="M4 0C2.89543 0 2 0.89543 2 2V7.25577C6.71434 7.56608 10.4421 11.4883 10.4421 16.2811C10.4421 21.074 6.71434 24.9962 2 25.3065V30.5625C2 31.6671 2.89543 32.5625 4 32.5625H48.2407C49.3453 32.5625 50.2407 31.6671 50.2407 30.5625V2C50.2407 0.895431 49.3453 0 48.2407 0H4Z"/>
</mask>
<path fill-rule="evenodd" clip-rule="evenodd" d="M4 0C2.89543 0 2 0.89543 2 2V7.25577C6.71434 7.56608 10.4421 11.4883 10.4421 16.2811C10.4421 21.074 6.71434 24.9962 2 25.3065V30.5625C2 31.6671 2.89543 32.5625 4 32.5625H48.2407C49.3453 32.5625 50.2407 31.6671 50.2407 30.5625V2C50.2407 0.895431 49.3453 0 48.2407 0H4Z" fill="url(#paint0_linear_17949_293456)"/>
<path d="M2 7.25577H1.5V7.72394L1.96716 7.75469L2 7.25577ZM2 25.3065L1.96716 24.8076L1.5 24.8383V25.3065H2ZM2.5 2C2.5 1.17157 3.17157 0.5 4 0.5V-0.5C2.61929 -0.5 1.5 0.619287 1.5 2H2.5ZM2.5 7.25577V2H1.5V7.25577H2.5ZM1.96716 7.75469C6.42042 8.04782 9.94211 11.7534 9.94211 16.2811H10.9421C10.9421 11.2231 7.00826 7.08435 2.03284 6.75685L1.96716 7.75469ZM9.94211 16.2811C9.94211 20.8088 6.42042 24.5144 1.96716 24.8076L2.03284 25.8054C7.00826 25.4779 10.9421 21.3391 10.9421 16.2811H9.94211ZM2.5 30.5625V25.3065H1.5V30.5625H2.5ZM4 32.0625C3.17157 32.0625 2.5 31.3909 2.5 30.5625H1.5C1.5 31.9432 2.61929 33.0625 4 33.0625V32.0625ZM48.2407 32.0625H4V33.0625H48.2407V32.0625ZM49.7407 30.5625C49.7407 31.3909 49.0692 32.0625 48.2407 32.0625V33.0625C49.6214 33.0625 50.7407 31.9432 50.7407 30.5625H49.7407ZM49.7407 2V30.5625H50.7407V2H49.7407ZM48.2407 0.5C49.0692 0.5 49.7407 1.17157 49.7407 2H50.7407C50.7407 0.619288 49.6214 -0.5 48.2407 -0.5V0.5ZM4 0.5H48.2407V-0.5H4V0.5Z" fill="#E7B122" mask="url(#path-1-inside-1_17949_293456)"/>
</g>
<path d="M37.8164 6.7939C36.7191 6.34086 34.1583 5.81161 32.2327 5.78251V5.78125H32.0686V5.78251C30.1429 5.81161 27.5821 6.34086 26.4848 6.7939C25.9337 7.02144 25.4443 7.26035 25.0632 7.60078C24.6737 7.94881 24.4081 8.39285 24.2839 9.00813L24.2822 9.01657L24.2811 9.0251L23.4606 15.2853L23.4585 15.3014V15.3178V23.9438V24.1938H23.7085H24.8715V25.2965C24.8715 25.7754 25.0507 26.1535 25.3346 26.4099C25.6142 26.6623 25.9806 26.7836 26.3395 26.7836C26.6983 26.7836 27.0647 26.6623 27.3443 26.4099C27.6282 26.1535 27.8074 25.7754 27.8074 25.2965V24.1938H32.0543H32.0686H36.4939V25.2965C36.4939 25.7754 36.673 26.1535 36.9569 26.4099C37.2366 26.6623 37.603 26.7836 37.9618 26.7836C38.3206 26.7836 38.687 26.6623 38.9666 26.4099C39.2506 26.1535 39.4297 25.7754 39.4297 25.2965V24.1938H40.5928H40.8428V23.9438V15.3178V15.3014L40.8406 15.2853L40.0202 9.0251L40.019 9.01657L40.0173 9.00813C39.8932 8.39285 39.6276 7.94881 39.238 7.60078C38.857 7.26035 38.3675 7.02144 37.8164 6.7939ZM38.8792 20.0818C38.8792 20.581 38.4701 20.9897 37.9608 20.9897C37.4515 20.9897 37.0424 20.581 37.0424 20.0818C37.0424 19.5826 37.4515 19.1739 37.9608 19.1739C38.4701 19.1739 38.8792 19.5826 38.8792 20.0818ZM26.3405 20.9897C25.8311 20.9897 25.422 20.581 25.422 20.0818C25.422 19.5826 25.8311 19.1739 26.3405 19.1739C26.8498 19.1739 27.2589 19.5826 27.2589 20.0818C27.2589 20.581 26.8498 20.9897 26.3405 20.9897ZM32.0603 8.37846H28.6772C28.5733 8.37846 28.5141 8.34225 28.4786 8.30272C28.4392 8.25876 28.4143 8.19345 28.4143 8.12031C28.4143 8.04716 28.4392 7.98186 28.4786 7.93789C28.5141 7.89836 28.5733 7.86216 28.6772 7.86216H32.0686H35.6241C35.728 7.86216 35.7871 7.89836 35.8226 7.93789C35.8621 7.98186 35.8869 8.04716 35.8869 8.12031C35.8869 8.19345 35.8621 8.25875 35.8226 8.30272C35.7871 8.34225 35.728 8.37846 35.6241 8.37846H32.0603ZM26.8338 9.90456H32.0603H37.4675C37.787 9.90456 37.9366 9.98388 38.0216 10.0754C38.1165 10.1776 38.1766 10.342 38.2189 10.6069L38.8571 15.1442C38.8571 15.1444 38.8572 15.1445 38.8572 15.1447C38.8833 15.3363 38.8611 15.4845 38.8047 15.5759C38.7601 15.6482 38.6682 15.7275 38.4305 15.7275H32.0686H25.8707C25.633 15.7275 25.5411 15.6482 25.4965 15.5759C25.4401 15.4845 25.4179 15.3362 25.4441 15.1446C25.4441 15.1445 25.4441 15.1443 25.4441 15.1442L26.0823 10.6069C26.1246 10.342 26.1848 10.1776 26.2796 10.0754C26.3646 9.98388 26.5142 9.90456 26.8338 9.90456Z" fill="url(#paint1_linear_17949_293456)" stroke="#FFF379" stroke-width="0.5"/>
<path fill-rule="evenodd" clip-rule="evenodd" d="M15.2663 4.21875V5.45492H14.0603V4.21875H15.2663ZM15.2663 7.92726V10.3996H14.0603V7.92726H15.2663ZM15.2663 12.8719V15.3443H14.0603V12.8719H15.2663ZM15.2663 17.8166V20.2889H14.0603V17.8166H15.2663ZM15.2663 22.7613V25.2336H14.0603V22.7613H15.2663ZM15.2663 27.706V28.9421H14.0603V27.706H15.2663Z" fill="#6F411B"/>
<defs>
<filter id="filter0_d_17949_293456" x="0" y="0" width="52.2407" height="36.5625" filterUnits="userSpaceOnUse" color-interpolation-filters="sRGB">
<feFlood flood-opacity="0" result="BackgroundImageFix"/>
<feColorMatrix in="SourceAlpha" type="matrix" values="0 0 0 0 0 0 0 0 0 0 0 0 0 0 0 0 0 0 127 0" result="hardAlpha"/>
<feOffset dy="2"/>
<feGaussianBlur stdDeviation="1"/>
<feComposite in2="hardAlpha" operator="out"/>
<feColorMatrix type="matrix" values="0 0 0 0 0 0 0 0 0 0 0 0 0 0 0 0 0 0 0.15 0"/>
<feBlend mode="normal" in2="BackgroundImageFix" result="effect1_dropShadow_17949_293456"/>
<feBlend mode="normal" in="SourceGraphic" in2="effect1_dropShadow_17949_293456" result="shape"/>
</filter>
<linearGradient id="paint0_linear_17949_293456" x1="66.522" y1="51.2558" x2="2.28369" y2="47.901" gradientUnits="userSpaceOnUse">
<stop offset="0.14" stop-color="#FED524"/>
<stop offset="0.42" stop-color="#FFD10F"/>
<stop offset="0.52" stop-color="#F3C62F"/>
<stop offset="0.53" stop-color="#F4CA40"/>
<stop offset="0.55" stop-color="#F8D76C"/>
<stop offset="0.57" stop-color="#FBE18E"/>
<stop offset="0.6" stop-color="#FDE9A7"/>
<stop offset="0.62" stop-color="#FEEDB6"/>
<stop offset="0.63" stop-color="#FFEFBC"/>
<stop offset="0.67" stop-color="#F8DF95"/>
<stop offset="0.74" stop-color="#EFC657"/>
<stop offset="0.78" stop-color="#E9B630"/>
<stop offset="0.81" stop-color="#E7B122"/>
</linearGradient>
<linearGradient id="paint1_linear_17949_293456" x1="32.1639" y1="-22.7293" x2="32.1639" y2="-22.7293" gradientUnits="userSpaceOnUse">
<stop offset="0.07" stop-color="#AC6D29"/>
<stop offset="0.41" stop-color="#7A491D"/>
<stop offset="0.8" stop-color="#492511"/>
<stop offset="1" stop-color="#36170D"/>
</linearGradient>
</defs>
</svg>
