<svg width="48" height="49" viewBox="0 0 48 49" fill="none" xmlns="http://www.w3.org/2000/svg">
<path d="M45.8013 21.0379C45.602 20.9918 45.5339 20.8869 45.5276 20.7736C45.5139 20.5765 45.6975 20.3478 45.6975 20.3478C45.1951 17.3514 44.0834 14.5574 42.4955 12.099C42.2438 12.0497 42.118 11.9668 42.0634 11.8808C41.9565 11.713 42.1148 11.5274 42.1148 11.5274C38.1421 5.77675 31.5033 2 23.9992 2C16.4952 2 9.85852 5.77675 5.88573 11.5284C5.88573 11.5284 6.05669 11.7088 5.92769 11.8819C5.86686 11.9626 5.741 12.0423 5.50293 12.1011C3.91717 14.5595 2.80546 17.3524 2.3031 20.3478C2.3031 20.3478 2.30415 20.351 2.30624 20.352C2.33246 20.3803 2.56005 20.6331 2.5181 20.8261C2.49607 20.9205 2.40798 21.0033 2.19927 21.0358C2.06817 22.006 2 22.995 2 23.9998C2 29.5553 4.06925 34.6357 7.47883 38.5111C7.47883 38.5111 7.83647 38.2436 7.9403 38.6663C7.96337 38.7565 7.97491 38.8813 7.96652 39.047C9.61625 40.8058 11.5523 42.2941 13.6981 43.4352C13.6981 43.4352 14.3043 43.3681 14.5466 43.5422C14.6441 43.6124 14.6829 43.7205 14.6011 43.8893C17.4527 45.2423 20.6389 45.9995 23.9982 45.9995C27.3574 45.9995 30.5436 45.2423 33.3953 43.8893C33.2537 43.7152 33.2956 43.6062 33.4183 43.538C33.6784 43.3932 34.2983 43.4352 34.2983 43.4352C36.4451 42.2941 38.3812 40.8058 40.0309 39.047C40.0309 39.047 40.0278 38.94 40.0445 38.8142C40.0771 38.5813 40.1809 38.2866 40.5186 38.5111C43.9282 34.6347 45.9974 29.5553 45.9974 23.9998C45.9974 22.995 45.9293 22.006 45.7982 21.0379H45.8013ZM21.3081 39.5494C21.2787 40.8216 20.0411 41.7235 18.8214 41.3596C12.9912 39.6165 8.38498 35.0112 6.64191 29.1798C6.27798 27.9611 7.17783 26.7235 8.45001 26.692C11.9162 26.6081 14.8434 27.336 16.7658 28.001C17.1402 28.13 17.4779 28.2579 17.7737 28.3754C18.3925 28.624 18.8298 28.8337 19.049 28.9459C19.1581 29.1609 19.3689 29.5972 19.6216 30.2244C19.7768 30.6104 19.9467 31.0656 20.1177 31.5868C20.747 33.504 21.3867 36.2886 21.3091 39.5494H21.3081ZM41.3576 29.1798C39.6145 35.0101 35.0093 39.6165 29.1781 41.3596C27.9594 41.7235 26.7219 40.8216 26.6915 39.5494C26.6138 36.2886 27.2526 33.504 27.8829 31.5868C28.0538 31.0656 28.2237 30.6083 28.3789 30.2234C28.6307 29.5972 28.8425 29.1609 28.9516 28.947C29.1708 28.8348 29.6081 28.625 30.2269 28.3764C30.5227 28.2579 30.8593 28.131 31.2348 28.002C33.1561 27.336 36.0843 26.6092 39.5506 26.6931C40.8227 26.7246 41.7226 27.9622 41.3587 29.1809L41.3576 29.1798ZM39.5296 21.3106C35.4268 21.4071 32.0801 20.3667 30.2657 19.6409C30.2531 19.6367 30.2405 19.6315 30.2279 19.6273C29.3029 19.256 28.788 18.9707 28.788 18.9707L29.9416 24.0008L28.831 28.8411L24.0003 29.9486L19.1675 28.8411L18.0568 24.0019L19.2105 18.9707C19.2105 18.9707 18.6955 19.255 17.7705 19.6273C17.7579 19.6315 17.7454 19.6367 17.7328 19.6409C15.9184 20.3667 12.5717 21.4071 8.46888 21.3106C7.19042 21.2813 6.27169 20.0531 6.63876 18.8291C8.86952 11.3533 15.8062 5.88793 23.9971 5.88793C32.1881 5.88793 39.1258 11.3533 41.3566 18.8291C41.7215 20.0531 40.8049 21.2813 39.5264 21.3106H39.5296Z" fill="url(#paint0_linear_17949_260425)"/>
<path d="M45.4697 24.1274C45.4697 24.3697 45.4655 24.6109 45.4571 24.85C45.0764 13.3247 35.6154 4.10151 23.999 4.10151C12.3827 4.10151 2.92064 13.3258 2.53993 24.85C2.53259 24.6109 2.52734 24.3697 2.52734 24.1274C2.52734 12.2686 12.1405 2.65625 23.998 2.65625C35.8555 2.65625 45.4687 12.2686 45.4687 24.1274H45.4697Z" fill="#536279"/>
<path d="M42.7984 25.4206C42.7984 35.8027 34.3819 44.2194 24 44.2194C13.6181 44.2194 5.20166 35.8027 5.20166 25.4206C5.20166 25.2045 5.20481 24.9884 5.21425 24.7734C5.5551 34.8556 13.8363 42.9241 24 42.9241C34.1638 42.9241 42.4449 34.8556 42.7858 24.7734C42.7952 24.9884 42.7984 25.2045 42.7984 25.4206Z" fill="#536279"/>
<path d="M31.9901 24.6019C31.9901 25.8175 31.7195 26.9701 31.2329 28.0011C30.8585 28.1301 30.5208 28.258 30.225 28.3755C29.6062 28.6241 29.1689 28.8338 28.9497 28.946C28.8406 29.1611 28.6298 29.5963 28.377 30.2224C28.2218 30.6084 28.0519 31.0657 27.881 31.5859C26.7315 32.2267 25.4069 32.5917 23.9973 32.5917C22.5878 32.5917 21.2642 32.2278 20.1147 31.5859C19.9438 31.0646 19.7739 30.6095 19.6187 30.2235C19.367 29.5974 19.1551 29.16 19.046 28.945C18.8268 28.8328 18.3895 28.623 17.7707 28.3744C17.475 28.2559 17.1383 28.129 16.7628 28C16.2762 26.969 16.0056 25.8175 16.0056 24.6008C16.0056 22.7256 16.6506 21.0024 17.7319 19.6389C17.7445 19.6347 17.7571 19.6295 17.7697 19.6253C18.6947 19.254 19.2096 18.9688 19.2096 18.9688L18.056 23.9999L19.1666 28.8391L23.9994 29.9466L28.8301 28.8391L29.9408 23.9988L28.7871 18.9688C28.7871 18.9688 29.3021 19.253 30.2271 19.6253C30.2397 19.6295 30.2523 19.6347 30.2648 19.6389C31.3451 21.0024 31.9911 22.7256 31.9911 24.6008L31.9901 24.6019Z" fill="#06070B"/>
<g filter="url(#filter0_d_17949_260425)">
<path d="M42.0627 11.8808C41.9169 11.884 41.7722 11.8808 41.6317 11.8714C41.5971 11.8703 41.5646 11.8682 41.532 11.8651C41.0391 11.8263 40.5871 11.6679 40.1623 11.4361C39.2856 10.9621 38.5262 10.1786 37.7806 9.48428C34.0836 6.0463 29.0411 4.12174 23.9985 4.11649C18.956 4.12069 13.9134 6.0463 10.2165 9.48428C9.47289 10.1765 8.71462 10.9568 7.84099 11.433C7.41518 11.6658 6.95896 11.8252 6.46499 11.8651C6.43352 11.8682 6.40101 11.8693 6.3706 11.8714C6.22586 11.8808 6.07694 11.884 5.92696 11.8808C6.05596 11.7078 5.88501 11.5274 5.88501 11.5274C9.85779 5.77675 16.4955 2 23.9985 2C31.5015 2 38.1413 5.77675 42.1141 11.5284C42.1141 11.5284 41.9557 11.713 42.0627 11.8819V11.8808Z" fill="url(#paint1_linear_17949_260425)"/>
<path d="M41.9551 11.6055C41.9365 11.6532 41.9214 11.7149 41.9267 11.7819L6.0726 11.7819C6.08103 11.7143 6.06696 11.6516 6.04725 11.6021C6.03542 11.5725 6.0213 11.5466 6.00803 11.5254C9.96756 5.83364 16.5555 2.1 23.9985 2.1C31.4425 2.1 38.0333 5.83463 41.9927 11.5287C41.9801 11.5499 41.9667 11.5759 41.9551 11.6055Z" stroke="#284104" stroke-width="0.2"/>
</g>
<g filter="url(#filter1_d_17949_260425)">
<path d="M7.94135 38.6694C7.83752 38.2467 7.47988 38.5141 7.47988 38.5141C4.06925 34.6378 2 29.5573 2 24.0018C2 22.9971 2.06817 22.008 2.19927 21.04C2.40798 21.0054 2.49607 20.9236 2.5181 20.8281C4.16049 21.9913 5.14425 24.0868 4.87051 26.0931C4.67334 27.5426 3.90144 29.0162 4.39017 30.3953C4.71215 31.3047 5.51237 31.9392 6.15317 32.6629C7.58161 34.278 8.20983 36.5361 7.94135 38.6694Z" fill="url(#paint2_linear_17949_260425)"/>
<path d="M6.07827 32.7291C7.42417 34.2509 8.05102 36.3546 7.87204 38.3776C7.80047 38.3314 7.72299 38.3253 7.6581 38.3342C7.59594 38.3427 7.54028 38.3654 7.50021 38.3856C4.13759 34.5347 2.1 29.5023 2.1 24.0018C2.1 23.0259 2.16461 22.0649 2.28897 21.1236C2.4078 21.0942 2.49683 21.0451 2.55322 20.9771C4.11124 22.1324 5.0346 24.1507 4.77143 26.0796L4.77143 26.0797C4.72294 26.4361 4.63891 26.7955 4.54664 27.1582C4.52287 27.2517 4.49851 27.3455 4.47409 27.4396C4.40418 27.7089 4.33378 27.9801 4.2754 28.2494C4.1177 28.9768 4.04208 29.7124 4.29592 30.4287C4.46311 30.9009 4.7532 31.2981 5.07716 31.6649C5.23916 31.8483 5.41095 32.0256 5.58086 32.2007L5.58372 32.2037C5.7532 32.3785 5.92073 32.5512 6.07827 32.7291Z" stroke="#284104" stroke-width="0.2"/>
</g>
<g filter="url(#filter2_d_17949_260425)">
<path d="M46.0024 24.0006C46.0024 29.5561 43.9332 34.6366 40.5236 38.5119C40.1859 38.2885 40.0821 38.5822 40.0495 38.815C39.7328 36.6377 40.3558 34.3135 41.8188 32.6606C42.4575 31.938 43.2588 31.3035 43.5808 30.3931C44.0695 29.0139 43.2976 27.5403 43.1004 26.0909C42.8225 24.052 43.8419 21.924 45.5305 20.7734C45.5368 20.8867 45.6049 20.9916 45.8042 21.0377C45.9353 22.0068 46.0035 22.9959 46.0035 23.9996L46.0024 24.0006Z" fill="url(#paint3_linear_17949_260425)"/>
<path d="M45.7138 21.1161C45.8369 22.0467 45.9016 22.9956 45.9034 23.9582L45.9024 23.9592V24.0006C45.9024 29.5013 43.8646 34.534 40.5028 38.384C40.4368 38.3505 40.3732 38.3325 40.312 38.3323C40.2253 38.3319 40.1553 38.3672 40.1029 38.4201C39.9109 36.3828 40.5364 34.2604 41.8937 32.7269L41.8938 32.7268C42.0515 32.5484 42.2194 32.3751 42.3895 32.1997L42.3901 32.1991C42.5598 32.024 42.7315 31.8469 42.8935 31.6635C43.2175 31.2967 43.5079 30.8992 43.675 30.4265C43.9289 29.7102 43.8533 28.9745 43.6956 28.2472C43.6372 27.9779 43.5668 27.7067 43.4969 27.4374C43.4725 27.3433 43.4481 27.2495 43.4243 27.156C43.3321 26.7932 43.248 26.4339 43.1995 26.0774L43.1995 26.0774C42.9332 24.1238 43.8828 22.0816 45.4747 20.9346C45.4873 20.9568 45.5027 20.9783 45.5216 20.9987C45.5691 21.05 45.6333 21.089 45.7138 21.1161Z" stroke="#284104" stroke-width="0.2"/>
</g>
<g filter="url(#filter3_d_17949_260425)">
<path d="M33.3956 43.8869C30.5439 45.2399 27.3577 45.9971 23.9985 45.9971C20.6392 45.9971 17.453 45.2399 14.6014 43.8869C14.6843 43.7191 14.6455 43.61 14.5469 43.5398C15.5159 43.3656 16.5354 43.2167 17.5978 43.0982C18.9287 42.9472 20.3278 42.8433 21.7761 42.792C22.505 42.7636 23.2465 42.75 23.9995 42.75C24.7526 42.75 25.4941 42.7636 26.223 42.792C27.6724 42.8433 29.0714 42.9472 30.4024 43.0982C31.4532 43.2167 32.4622 43.3625 33.4207 43.5356C33.298 43.6037 33.2561 43.7128 33.3977 43.8869H33.3956Z" fill="url(#paint4_linear_17949_260425)"/>
<path d="M30.3911 43.1976C31.3754 43.3086 32.3225 43.4435 33.2255 43.6023C33.2188 43.6195 33.2139 43.6378 33.2111 43.6575C33.2022 43.7202 33.2174 43.783 33.2497 43.8451C30.4375 45.1614 27.3022 45.8971 23.9985 45.8971C20.6876 45.8971 17.5457 45.1582 14.7288 43.8364C14.7473 43.7741 14.7519 43.7139 14.7402 43.6567C14.7368 43.6401 14.7321 43.6244 14.7264 43.6094C15.6447 43.448 16.6076 43.3093 17.6089 43.1976L17.6091 43.1976C18.9373 43.0468 20.3338 42.9432 21.7797 42.8919L21.78 42.8919C22.5075 42.8636 23.2477 42.85 23.9995 42.85C24.7514 42.85 25.4916 42.8636 26.2191 42.8919L26.2194 42.8919C27.6664 42.9432 29.0629 43.0468 30.3911 43.1976L30.3911 43.1976Z" stroke="#284104" stroke-width="0.2"/>
</g>
<path d="M23.9999 31.6109C28.2027 31.6109 31.6098 28.2037 31.6098 24.0008C31.6098 19.7978 28.2027 16.3906 23.9999 16.3906C19.797 16.3906 16.3899 19.7978 16.3899 24.0008C16.3899 28.2037 19.797 31.6109 23.9999 31.6109Z" fill="#353C4C"/>
<path d="M30.6371 21.3577C29.3513 19.1416 26.8583 17.6355 23.9993 17.6355C21.1404 17.6355 18.6506 19.1405 17.3647 21.3546C18.4188 18.7242 20.9956 16.8594 23.9993 16.8594C27.003 16.8594 29.583 18.7252 30.6371 21.3577Z" fill="#5F6F87"/>
<path d="M31.145 23.9981C31.145 27.9363 27.9409 31.1415 24.0007 31.1415C20.0604 31.1415 16.8574 27.9374 16.8574 23.9981C16.8574 23.8366 16.8616 23.675 16.8732 23.5156C17.1238 27.2305 20.2251 30.1755 24.0007 30.1755C27.7763 30.1755 30.8796 27.2305 31.1292 23.5156C31.1397 23.674 31.145 23.8355 31.145 23.9981Z" fill="#141822"/>
<path d="M41.6352 11.8721C41.6006 11.8711 41.5681 11.869 41.5355 11.8658C41.0426 11.827 40.5906 11.6686 40.1658 11.4369C36.2287 6.94167 30.4478 4.10255 24.0031 4.10255C17.5583 4.10255 11.7806 6.93957 7.84344 11.4337C7.41763 11.6665 6.96141 11.826 6.46744 11.8658C6.43597 11.869 6.40346 11.87 6.37305 11.8721C10.2504 6.30085 16.7014 2.65625 24.0031 2.65625C31.3047 2.65625 37.7568 6.30085 41.6352 11.8721Z" fill="white" fill-opacity="0.2"/>
<path d="M30.401 43.1031C28.4031 43.8279 26.2478 44.2222 23.9992 44.2222C21.7507 44.2222 19.5944 43.8268 17.5964 43.1031C18.9273 42.9521 20.3264 42.8483 21.7748 42.7969C22.5037 42.8839 23.2473 42.928 23.9992 42.928C24.7512 42.928 25.4938 42.8839 26.2216 42.7969C27.671 42.8483 29.0701 42.9521 30.401 43.1031Z" fill="white" fill-opacity="0.2"/>
<g filter="url(#filter4_d_17949_260425)">
<path d="M23.9987 29.6334C27.1723 29.6334 29.745 27.0607 29.745 23.887C29.745 20.7134 27.1723 18.1406 23.9987 18.1406C20.8251 18.1406 18.2524 20.7134 18.2524 23.887C18.2524 27.0607 20.8251 29.6334 23.9987 29.6334Z" fill="url(#paint5_linear_17949_260425)"/>
<path d="M29.645 23.887C29.645 27.0055 27.1171 29.5334 23.9987 29.5334C20.8804 29.5334 18.3524 27.0055 18.3524 23.887C18.3524 20.7686 20.8804 18.2406 23.9987 18.2406C27.1171 18.2406 29.645 20.7686 29.645 23.887Z" stroke="#284104" stroke-width="0.2"/>
</g>
<path d="M43.6937 27.0236C44.0094 28.1699 44.3356 29.353 43.8185 30.6325C43.5228 31.3646 42.991 31.9026 42.4268 32.4732C41.4546 33.4591 40.4488 34.4775 40.3355 36.7146C40.304 37.3197 40.3701 37.9259 40.5232 38.507C40.0051 38.1619 40.0345 39.0429 40.0345 39.0429C39.7839 38.2857 39.6737 37.4823 39.7146 36.6831C39.8405 34.2079 40.9784 33.0542 41.9842 32.0358C42.5233 31.4884 42.9921 31.0143 43.2406 30.3987C43.679 29.3152 43.3948 28.2822 43.0928 27.1883C42.5516 25.2249 41.9454 23.0255 45.699 20.3438C45.699 20.3438 45.2512 20.9017 45.8028 21.0339C42.6827 23.3549 43.1756 25.1431 43.6927 27.0236H43.6937Z" fill="#06070B"/>
<path d="M7.96954 39.0465C8.01045 38.1131 7.48081 38.5106 7.48081 38.5106C7.63498 37.9296 7.70001 37.3223 7.66854 36.7182C7.55527 34.4811 6.54949 33.4627 5.57727 32.4768C5.01303 31.9063 4.4813 31.3682 4.18554 30.6362C3.66744 29.3566 3.99466 28.1736 4.31034 27.0272C4.82844 25.1478 5.32137 23.3595 2.2002 21.0375C2.83471 20.9368 2.34598 20.3935 2.30717 20.3516C6.05761 23.0302 5.45142 25.2275 4.91025 27.1919C4.6082 28.2868 4.32398 29.3189 4.76237 30.4023C5.01093 31.0179 5.47869 31.492 6.01881 32.0395C7.02459 33.0579 8.16252 34.2115 8.28942 36.6867C8.33032 37.4859 8.21915 38.2893 7.96954 39.0465Z" fill="#06070B"/>
<path d="M34.3022 43.4352C31.3321 42.7692 27.8103 42.3906 24.0011 42.3906C20.1919 42.3906 16.6701 42.7703 13.7 43.4352C13.7 43.4352 14.8914 43.3031 14.603 43.8894C17.4326 43.3167 20.6502 43.0126 24 43.0126C27.3498 43.0126 30.5675 43.3178 33.3971 43.8894C32.9566 43.345 34.3001 43.4352 34.3001 43.4352H34.3022Z" fill="#06070B"/>
<path d="M42.1166 11.5281C41.5145 11.5868 40.6545 11.4641 39.6121 10.7551C39.2649 10.5191 38.8412 10.1363 38.3493 9.69265C36.5905 8.11 33.6487 5.45861 28.4373 4.24095L28.3922 4.23151C26.9575 3.89904 25.4787 3.73438 24.0009 3.73438C22.5232 3.73438 21.0455 3.89904 19.6087 4.23151L19.5646 4.24095C14.3532 5.45861 11.4114 8.11 9.65257 9.69265C9.16174 10.1363 8.73698 10.5181 8.39193 10.7551C7.3484 11.4641 6.4884 11.5868 5.88744 11.5281C5.88744 11.5281 6.25557 11.914 5.50464 12.1007C6.22935 12.2454 7.36308 12.2077 8.74223 11.269C9.12189 11.011 9.56133 10.6145 10.07 10.1562C11.8938 8.51274 14.6521 6.02916 19.7072 4.84926L19.7492 4.83982C22.5306 4.19585 25.4724 4.19585 28.2527 4.83877L28.2968 4.84926C33.3519 6.02916 36.1102 8.51274 37.934 10.1562C38.4427 10.6145 38.8821 11.011 39.2618 11.269C40.2801 11.9623 41.1632 12.1626 41.847 12.1626C42.0914 12.1626 42.3085 12.1374 42.4983 12.0986C41.7537 11.9528 42.1176 11.5281 42.1176 11.5281H42.1166Z" fill="#06070B"/>
<path d="M24 29.7918C20.7446 29.7918 18.0964 27.1436 18.0964 23.8881C18.0964 20.6326 20.7446 17.9844 24 17.9844C27.2554 17.9844 29.9036 20.6326 29.9036 23.8881C29.9036 27.1436 27.2554 29.7918 24 29.7918ZM24 18.3745C20.9596 18.3745 18.4855 20.8487 18.4855 23.8892C18.4855 26.9296 20.9596 29.4038 24 29.4038C27.0404 29.4038 29.5145 26.9296 29.5145 23.8892C29.5145 20.8487 27.0404 18.3745 24 18.3745Z" fill="#06070B"/>
<path d="M28.9396 22.68C28.067 20.9537 26.1824 19.7602 23.9988 19.7602C21.8153 19.7602 19.9285 20.9558 19.0559 22.6853C19.5971 20.4587 21.6044 18.8047 23.9988 18.8047C26.3932 18.8047 28.3974 20.4555 28.9396 22.6811V22.68Z" fill="white" fill-opacity="0.25"/>
<path d="M29.0956 24.6719C28.7642 27.189 26.6089 29.1324 24.0016 29.1324C21.3944 29.1324 19.2391 27.189 18.9077 24.6719C19.796 26.437 21.7426 27.662 24.0016 27.662C26.2607 27.662 28.2073 26.437 29.0956 24.6719Z" fill="white" fill-opacity="0.25"/>
<defs>
<filter id="filter0_d_17949_260425" x="3.88501" y="1" width="40.229" height="13.8828" filterUnits="userSpaceOnUse" color-interpolation-filters="sRGB">
<feFlood flood-opacity="0" result="BackgroundImageFix"/>
<feColorMatrix in="SourceAlpha" type="matrix" values="0 0 0 0 0 0 0 0 0 0 0 0 0 0 0 0 0 0 127 0" result="hardAlpha"/>
<feOffset dy="1"/>
<feGaussianBlur stdDeviation="1"/>
<feComposite in2="hardAlpha" operator="out"/>
<feColorMatrix type="matrix" values="0 0 0 0 0 0 0 0 0 0 0 0 0 0 0 0 0 0 0.1 0"/>
<feBlend mode="normal" in2="BackgroundImageFix" result="effect1_dropShadow_17949_260425"/>
<feBlend mode="normal" in="SourceGraphic" in2="effect1_dropShadow_17949_260425" result="shape"/>
</filter>
<filter id="filter1_d_17949_260425" x="0" y="19.8281" width="10.002" height="21.8438" filterUnits="userSpaceOnUse" color-interpolation-filters="sRGB">
<feFlood flood-opacity="0" result="BackgroundImageFix"/>
<feColorMatrix in="SourceAlpha" type="matrix" values="0 0 0 0 0 0 0 0 0 0 0 0 0 0 0 0 0 0 127 0" result="hardAlpha"/>
<feOffset dy="1"/>
<feGaussianBlur stdDeviation="1"/>
<feComposite in2="hardAlpha" operator="out"/>
<feColorMatrix type="matrix" values="0 0 0 0 0 0 0 0 0 0 0 0 0 0 0 0 0 0 0.1 0"/>
<feBlend mode="normal" in2="BackgroundImageFix" result="effect1_dropShadow_17949_260425"/>
<feBlend mode="normal" in="SourceGraphic" in2="effect1_dropShadow_17949_260425" result="shape"/>
</filter>
<filter id="filter2_d_17949_260425" x="37.969" y="19.7734" width="10.0344" height="22.0391" filterUnits="userSpaceOnUse" color-interpolation-filters="sRGB">
<feFlood flood-opacity="0" result="BackgroundImageFix"/>
<feColorMatrix in="SourceAlpha" type="matrix" values="0 0 0 0 0 0 0 0 0 0 0 0 0 0 0 0 0 0 127 0" result="hardAlpha"/>
<feOffset dy="1"/>
<feGaussianBlur stdDeviation="1"/>
<feComposite in2="hardAlpha" operator="out"/>
<feColorMatrix type="matrix" values="0 0 0 0 0 0 0 0 0 0 0 0 0 0 0 0 0 0 0.1 0"/>
<feBlend mode="normal" in2="BackgroundImageFix" result="effect1_dropShadow_17949_260425"/>
<feBlend mode="normal" in="SourceGraphic" in2="effect1_dropShadow_17949_260425" result="shape"/>
</filter>
<filter id="filter3_d_17949_260425" x="12.5469" y="41.75" width="22.8738" height="7.25" filterUnits="userSpaceOnUse" color-interpolation-filters="sRGB">
<feFlood flood-opacity="0" result="BackgroundImageFix"/>
<feColorMatrix in="SourceAlpha" type="matrix" values="0 0 0 0 0 0 0 0 0 0 0 0 0 0 0 0 0 0 127 0" result="hardAlpha"/>
<feOffset dy="1"/>
<feGaussianBlur stdDeviation="1"/>
<feComposite in2="hardAlpha" operator="out"/>
<feColorMatrix type="matrix" values="0 0 0 0 0 0 0 0 0 0 0 0 0 0 0 0 0 0 0.1 0"/>
<feBlend mode="normal" in2="BackgroundImageFix" result="effect1_dropShadow_17949_260425"/>
<feBlend mode="normal" in="SourceGraphic" in2="effect1_dropShadow_17949_260425" result="shape"/>
</filter>
<filter id="filter4_d_17949_260425" x="16.2524" y="17.1406" width="15.4924" height="15.4922" filterUnits="userSpaceOnUse" color-interpolation-filters="sRGB">
<feFlood flood-opacity="0" result="BackgroundImageFix"/>
<feColorMatrix in="SourceAlpha" type="matrix" values="0 0 0 0 0 0 0 0 0 0 0 0 0 0 0 0 0 0 127 0" result="hardAlpha"/>
<feOffset dy="1"/>
<feGaussianBlur stdDeviation="1"/>
<feComposite in2="hardAlpha" operator="out"/>
<feColorMatrix type="matrix" values="0 0 0 0 0 0 0 0 0 0 0 0 0 0 0 0 0 0 0.1 0"/>
<feBlend mode="normal" in2="BackgroundImageFix" result="effect1_dropShadow_17949_260425"/>
<feBlend mode="normal" in="SourceGraphic" in2="effect1_dropShadow_17949_260425" result="shape"/>
</filter>
<linearGradient id="paint0_linear_17949_260425" x1="23.9987" y1="2" x2="23.9987" y2="45.9995" gradientUnits="userSpaceOnUse">
<stop stop-color="white"/>
<stop offset="1" stop-color="#6C7B9B"/>
</linearGradient>
<linearGradient id="paint1_linear_17949_260425" x1="23.9996" y1="2" x2="23.9996" y2="11.882" gradientUnits="userSpaceOnUse">
<stop stop-color="#D1F06C"/>
<stop offset="0.48" stop-color="#5DAC15"/>
<stop offset="1" stop-color="#308C03"/>
</linearGradient>
<linearGradient id="paint2_linear_17949_260425" x1="5.00098" y1="20.8281" x2="5.00098" y2="38.6694" gradientUnits="userSpaceOnUse">
<stop stop-color="#D1F06C"/>
<stop offset="0.48" stop-color="#5DAC15"/>
<stop offset="1" stop-color="#308C03"/>
</linearGradient>
<linearGradient id="paint3_linear_17949_260425" x1="42.9862" y1="20.7734" x2="42.9862" y2="38.815" gradientUnits="userSpaceOnUse">
<stop stop-color="#D1F06C"/>
<stop offset="0.48" stop-color="#5DAC15"/>
<stop offset="1" stop-color="#308C03"/>
</linearGradient>
<linearGradient id="paint4_linear_17949_260425" x1="23.9838" y1="42.75" x2="23.9838" y2="45.9971" gradientUnits="userSpaceOnUse">
<stop stop-color="#D1F06C"/>
<stop offset="0.48" stop-color="#5DAC15"/>
<stop offset="1" stop-color="#308C03"/>
</linearGradient>
<linearGradient id="paint5_linear_17949_260425" x1="23.9987" y1="18.1406" x2="23.9987" y2="29.6334" gradientUnits="userSpaceOnUse">
<stop stop-color="#D1F06C"/>
<stop offset="0.48" stop-color="#5DAC15"/>
<stop offset="1" stop-color="#308C03"/>
</linearGradient>
</defs>
</svg>
