<svg width="200" height="201" viewBox="0 0 200 201" fill="none" xmlns="http://www.w3.org/2000/svg">
<circle cx="100" cy="100.5" r="92.5" stroke="#C80000" stroke-width="15"/>
<g clip-path="url(#clip0_20218_421666)">
<path d="M96.8805 54.1204C103.755 47.2458 112.005 43.8084 121.629 43.8084C131.254 43.8084 139.503 47.2458 146.378 54.1204C153.253 60.9951 156.69 69.2446 156.69 78.8691C156.69 88.4936 153.253 96.7432 146.378 103.618C140.466 109.53 133.746 112.881 126.218 113.672C118.69 114.463 111.764 113.277 105.439 110.114L59.1082 156.446L44.0527 141.39L59.0356 126.407L72.0286 113.414L90.384 95.0589C87.2216 88.7343 86.0357 81.8081 86.8263 74.2803C87.6169 66.7526 90.9683 60.0326 96.8805 54.1204ZM114.617 71.857C112.623 73.8506 111.627 76.188 111.627 78.8691C111.627 81.5503 112.623 83.8876 114.617 85.8813C116.611 87.8749 118.948 88.8718 121.629 88.8718C124.31 88.8718 126.648 87.8749 128.641 85.8813C130.635 83.8876 131.632 81.5503 131.632 78.8691C131.632 76.188 130.635 73.8506 128.641 71.857C126.648 69.8634 124.31 68.8665 121.629 68.8665C118.948 68.8665 116.611 69.8634 114.617 71.857Z" fill="white"/>
<rect x="87.1371" y="109.035" width="15" height="22.085" transform="rotate(135 87.1371 109.035)" fill="white"/>
<rect x="70.3454" y="125.828" width="15" height="22.085" transform="rotate(135 70.3454 125.828)" fill="white"/>
</g>
<line x1="37.5221" y1="34.4154" x2="173.084" y2="169.978" stroke="#C80000" stroke-width="15"/>
<defs>
<clipPath id="clip0_20218_421666">
<rect width="140" height="140" fill="white" transform="translate(200 99.4941) rotate(135)"/>
</clipPath>
</defs>
</svg>
