<svg width="25" height="24" viewBox="0 0 25 24" fill="none" xmlns="http://www.w3.org/2000/svg">
<path d="M12.0508 24L7.25078 19.2H16.8508L12.0508 24ZM2.45078 16.8C1.79078 16.8 1.22578 16.565 0.755781 16.095C0.285781 15.625 0.0507812 15.06 0.0507812 14.4V2.4C0.0507812 1.74 0.285781 1.175 0.755781 0.705C1.22578 0.235 1.79078 0 2.45078 0H21.6508C22.3108 0 22.8758 0.235 23.3458 0.705C23.8158 1.175 24.0508 1.74 24.0508 2.4V14.4C24.0508 15.06 23.8158 15.625 23.3458 16.095C22.8758 16.565 22.3108 16.8 21.6508 16.8H2.45078ZM2.45078 14.4H21.6508V2.4H2.45078V14.4ZM7.25078 13.2H16.8508V10.8H7.25078V13.2ZM3.65078 9.6H6.05078V7.2H3.65078V9.6ZM7.25078 9.6H9.65078V7.2H7.25078V9.6ZM10.8508 9.6H13.2508V7.2H10.8508V9.6ZM14.4508 9.6H16.8508V7.2H14.4508V9.6ZM18.0508 9.6H20.4508V7.2H18.0508V9.6ZM3.65078 6H6.05078V3.6H3.65078V6ZM7.25078 6H9.65078V3.6H7.25078V6ZM10.8508 6H13.2508V3.6H10.8508V6ZM14.4508 6H16.8508V3.6H14.4508V6ZM18.0508 6H20.4508V3.6H18.0508V6Z" fill="white"/>
</svg>
