<svg width="73" height="73" viewBox="0 0 73 73" fill="none" xmlns="http://www.w3.org/2000/svg">
<g clip-path="url(#clip0_13044_327407)">
<path d="M36.5 0C33.9815 0 31.9375 2.044 31.9375 4.5625V13.6875C31.9375 16.206 33.9815 18.25 36.5 18.25C39.0185 18.25 41.0625 16.206 41.0625 13.6875V4.5625C41.0625 2.044 39.0185 0 36.5 0ZM36.5 54.75C33.9815 54.75 31.9375 56.7894 31.9375 59.3125V68.4375C31.9375 70.9606 33.9815 73 36.5 73C39.0185 73 41.0625 70.9606 41.0625 68.4375V59.3125C41.0625 56.7894 39.0185 54.75 36.5 54.75ZM55.8541 23.5972L62.3055 17.1413C64.0894 15.3619 64.0894 12.4693 62.3055 10.6899C60.5261 8.906 57.6381 8.906 55.8541 10.6899L49.4028 17.1413C47.6188 18.9252 47.6188 21.8133 49.4028 23.5972C51.1867 25.3766 54.0747 25.3766 55.8541 23.5972ZM17.1413 49.4028L10.6899 55.8541C8.906 57.6381 8.906 60.5261 10.6899 62.3055C12.4693 64.0894 15.3574 64.0894 17.1413 62.3055L23.5927 55.8541C25.3766 54.0702 25.3766 51.1867 23.5927 49.4028C21.8133 47.6234 18.9252 47.6234 17.1413 49.4028ZM17.1413 10.6899C15.3574 8.906 12.4693 8.906 10.6899 10.6899C8.906 12.4693 8.906 15.3619 10.6899 17.1413L17.1413 23.5972C18.9252 25.3766 21.8133 25.3766 23.5927 23.5972C25.3766 21.8133 25.3766 18.9252 23.5927 17.1413L17.1413 10.6899ZM55.8541 49.4028C54.0702 47.6188 51.1867 47.6188 49.4028 49.4028C47.6188 51.1867 47.6188 54.0702 49.4028 55.8541L55.8541 62.3055C57.6381 64.0894 60.5261 64.0894 62.3055 62.3055C64.0894 60.5261 64.0894 57.6381 62.3055 55.8541L55.8541 49.4028ZM68.4375 31.9375H59.3125C56.7894 31.9375 54.75 33.9815 54.75 36.5C54.75 39.0185 56.7894 41.0625 59.3125 41.0625H68.4375C70.9606 41.0625 73 39.0185 73 36.5C73 33.9815 70.9606 31.9375 68.4375 31.9375ZM18.25 36.5C18.25 33.9815 16.206 31.9375 13.6875 31.9375H4.5625C2.044 31.9375 0 33.9815 0 36.5C0 39.0185 2.044 41.0625 4.5625 41.0625H13.6875C16.206 41.0625 18.25 39.0185 18.25 36.5Z" fill="white"/>
</g>
<defs>
<clipPath id="clip0_13044_327407">
<rect width="73" height="73" fill="white"/>
</clipPath>
</defs>
</svg>
