<svg width="272" height="129" viewBox="0 0 272 129" fill="none" xmlns="http://www.w3.org/2000/svg">
<path d="M0.615479 75.7597C2.54443 73.3337 4.36975 70.9969 6.24218 68.6954C12.3517 61.1821 18.5649 53.7534 24.5637 46.1554C28.862 40.7109 32.8707 35.043 37.7131 30.038C43.2291 24.3395 50.0216 21.314 57.7727 20.1197C64.0895 19.1465 70.4228 19.0243 76.968 19.4968C76.7325 19.9082 76.5441 20.2584 76.3368 20.597C72.2528 27.3228 67.2197 33.3433 62.2901 39.4391C58.0248 44.7144 53.7924 50.0132 50.3019 55.8551C50.104 56.1842 49.9298 56.5274 49.6777 56.9835C52.1696 57.5759 54.5578 58.1189 56.9366 58.7137C69.0992 61.7534 80.939 65.6675 91.9663 71.7492C97.9321 75.038 103.472 78.9216 108.559 83.4588C115.319 89.4864 122.017 95.5868 128.918 101.448C133.374 105.232 138.426 108.244 144.269 109.278C154.835 111.149 165.281 111.199 175.071 105.83C178.305 104.057 181.056 101.711 183.703 98.5536C182.361 98.5536 181.341 98.5325 180.326 98.5583C175.578 98.6712 170.832 98.8263 166.086 98.9133C158.307 99.0567 151.34 96.8704 145.327 91.7879C138.89 86.3433 132.326 81.0492 125.894 75.5975C114.007 65.5241 100.968 57.4301 86.276 52.042C80.9861 50.1025 75.8446 47.7634 70.4817 45.5419C71.0517 44.665 71.4803 43.9833 71.9302 43.3156C78.645 33.3527 86.2619 24.1797 95.5698 16.4971C103.964 9.56677 113.234 4.25149 123.958 1.90769C137.604 -1.07555 150.664 0.678191 163.067 7.21356C170.912 11.3464 178.015 16.5653 185.086 21.8476C191.996 27.0125 198.815 32.3113 206.321 36.6204C216.736 42.601 227.94 46.5222 239.582 49.3079C248.393 51.4143 257.331 52.7966 266.304 53.9626C267.93 54.1742 269.566 54.3176 271.385 54.5127C270.483 55.7281 269.698 56.8354 268.862 57.9027C262.171 66.4551 255.51 75.031 248.755 83.534C244.589 88.7788 240.399 94.0165 235.978 99.045C232.669 102.809 228.611 105.733 223.957 107.734C220.558 109.196 216.943 109.791 213.299 109.892C208.123 110.035 202.939 109.878 197.757 109.845C197.616 109.845 197.475 109.786 197.204 109.727C205.447 97.0702 215.711 85.9907 223.733 73.0939C221.503 72.5038 219.4 71.9443 217.294 71.3942C207.816 68.9117 198.414 66.1965 189.467 62.1271C179.372 57.5383 170.552 51.057 162.202 43.854C156.236 38.7079 150.315 33.4961 144.116 28.6369C138.782 24.4547 132.832 21.1964 126.082 19.8376C114.021 17.4092 103.109 19.7201 93.7634 28.0539C93.5302 28.2631 93.3135 28.4911 93.0992 28.7192C93.0521 28.7685 93.0379 28.8532 92.9249 29.1235C95.5416 29.3492 98.09 29.5843 100.641 29.7888C105.994 30.219 111.338 30.6633 116.536 32.1608C121.963 33.7241 126.617 36.7332 130.929 40.1937C137.472 45.4431 143.94 50.8054 150.186 56.4028C161.222 66.2929 173.771 73.4324 187.832 78.0424C192.705 79.641 197.503 81.4723 202.333 83.2002C202.621 83.3036 202.899 83.4376 203.325 83.6186C202.736 84.566 202.199 85.4594 201.634 86.3315C193.416 98.9932 183.47 109.998 170.912 118.545C164.779 122.718 158.227 125.845 150.892 127.225C144.889 128.353 138.843 128.699 132.743 128.395C128.268 128.172 123.821 127.843 119.492 126.602C113.093 124.768 107.212 121.801 101.79 118.023C94.7455 113.115 87.8611 107.973 80.9225 102.914C68.5904 93.9201 55.4222 86.5337 40.8055 81.8696C34.3521 79.8103 27.7221 78.7148 21.019 77.9672C14.4361 77.2337 7.84375 76.5779 1.25611 75.8867C1.11008 75.8702 0.966411 75.8326 0.615479 75.7621L0.615479 75.7597Z" fill="white"/>
</svg>
