<svg width="74" height="74" viewBox="0 0 74 74" fill="none" xmlns="http://www.w3.org/2000/svg">
<path d="M37 0.642578C34.4815 0.642578 32.4375 2.68658 32.4375 5.20508V14.3301C32.4375 16.8486 34.4815 18.8926 37 18.8926C39.5185 18.8926 41.5625 16.8486 41.5625 14.3301V5.20508C41.5625 2.68658 39.5185 0.642578 37 0.642578ZM37 55.3926C34.4815 55.3926 32.4375 57.432 32.4375 59.9551V69.0801C32.4375 71.6031 34.4815 73.6426 37 73.6426C39.5185 73.6426 41.5625 71.6031 41.5625 69.0801V59.9551C41.5625 57.432 39.5185 55.3926 37 55.3926ZM56.3541 24.2398L62.8055 17.7839C64.5894 16.0045 64.5894 13.1119 62.8055 11.3325C61.0261 9.54858 58.1381 9.54858 56.3541 11.3325L49.9028 17.7839C48.1188 19.5678 48.1188 22.4559 49.9028 24.2398C51.6867 26.0192 54.5747 26.0192 56.3541 24.2398ZM17.6413 50.0453L11.1899 56.4967C9.406 58.2806 9.406 61.1687 11.1899 62.9481C12.9693 64.732 15.8574 64.732 17.6413 62.9481L24.0927 56.4967C25.8766 54.7128 25.8766 51.8293 24.0927 50.0453C22.3133 48.266 19.4252 48.266 17.6413 50.0453ZM17.6413 11.3325C15.8574 9.54858 12.9693 9.54858 11.1899 11.3325C9.406 13.1119 9.406 16.0045 11.1899 17.7839L17.6413 24.2398C19.4252 26.0192 22.3133 26.0192 24.0927 24.2398C25.8766 22.4559 25.8766 19.5678 24.0927 17.7839L17.6413 11.3325ZM56.3541 50.0453C54.5702 48.2614 51.6867 48.2614 49.9028 50.0453C48.1188 51.8293 48.1188 54.7128 49.9028 56.4967L56.3541 62.9481C58.1381 64.732 61.0261 64.732 62.8055 62.9481C64.5894 61.1687 64.5894 58.2806 62.8055 56.4967L56.3541 50.0453ZM68.9375 32.5801H59.8125C57.2894 32.5801 55.25 34.6241 55.25 37.1426C55.25 39.6611 57.2894 41.7051 59.8125 41.7051H68.9375C71.4606 41.7051 73.5 39.6611 73.5 37.1426C73.5 34.6241 71.4606 32.5801 68.9375 32.5801ZM18.75 37.1426C18.75 34.6241 16.706 32.5801 14.1875 32.5801H5.0625C2.544 32.5801 0.5 34.6241 0.5 37.1426C0.5 39.6611 2.544 41.7051 5.0625 41.7051H14.1875C16.706 41.7051 18.75 39.6611 18.75 37.1426Z" fill="white"/>
</svg>
