<svg width="24" height="24" viewBox="0 0 24 24" fill="none" xmlns="http://www.w3.org/2000/svg">
<path d="M12.1319 7.53106C12.1319 8.0862 11.6795 8.53584 11.1209 8.53584H9.0989V16.0179C9.0989 16.5183 8.75466 16.9825 8.25776 17.0629C7.62437 17.1649 7.07692 16.6821 7.07692 16.0717V13.0573H5.05494V16.0717C5.05494 16.6821 4.50749 17.1649 3.87411 17.0629C3.37721 16.9825 3.03297 16.5183 3.03297 16.0179V8.53584H1.01099C0.452418 8.53584 0 8.0862 0 7.53106C0 6.97592 0.452418 6.52628 1.01099 6.52628H4.39073C3.57284 5.98622 3.03297 5.06333 3.03297 4.01434C3.03297 2.34942 4.39073 1 6.06593 1C7.74114 1 9.0989 2.34942 9.0989 4.01434C9.0989 5.06333 8.55903 5.98622 7.74114 6.52628H11.1209C11.6795 6.52628 12.1319 6.97592 12.1319 7.53106ZM22.989 12.2679H19.6093C20.4272 11.7278 20.967 10.805 20.967 9.75597C20.967 8.09105 19.6093 6.74163 17.9341 6.74163C16.2589 6.74163 14.9011 8.09105 14.9011 9.75597C14.9011 10.805 15.441 11.7278 16.2589 12.2679H12.8791C12.3205 12.2679 11.8681 12.7176 11.8681 13.2727C11.8681 13.8278 12.3205 14.2775 12.8791 14.2775H14.9011L13.101 19.645C12.9918 19.97 13.2355 20.3061 13.5802 20.3061H14.9011V21.7596C14.9011 22.2599 15.2453 22.7241 15.7422 22.8045C16.3756 22.9065 16.9231 22.4237 16.9231 21.8133V20.3061H18.9451V21.8133C18.9451 22.4237 19.4925 22.9065 20.1259 22.8045C20.6228 22.7241 20.967 22.2604 20.967 21.7596V20.3061H22.2879C22.6331 20.3061 22.8768 19.97 22.7676 19.645L20.967 14.2775H22.989C23.5476 14.2775 24 13.8278 24 13.2727C24 12.7176 23.5476 12.2679 22.989 12.2679Z" fill="#C80000"/>
</svg>
