<svg width="22" height="24" viewBox="0 0 22 24" fill="none" xmlns="http://www.w3.org/2000/svg">
<path d="M13.8533 17.0132C13.83 16.9632 13.7967 16.9165 13.75 16.8398C13.7233 16.9998 13.7033 17.1165 13.68 17.2332C13.06 20.2665 10.0534 22.3498 6.89339 21.7531C3.92674 21.1965 1.85009 18.4165 2.23009 15.4565C2.45009 13.7465 3.28008 12.3865 4.71674 11.3965C4.8234 11.3232 4.8634 11.2532 4.85007 11.1265C4.80007 10.5732 4.7634 10.0199 4.71674 9.46656C4.7034 9.30989 4.68674 9.15656 4.66674 8.97656C4.56007 9.02656 4.47674 9.06323 4.39674 9.10323C1.2301 10.6799 -0.719891 14.3432 0.250102 18.0865C1.01343 21.0331 3.52675 23.3465 6.56006 23.8798C6.79339 23.9198 7.02672 23.9598 7.26338 23.9998H8.70004C8.74671 23.9865 8.79338 23.9698 8.84337 23.9665C9.8067 23.8665 10.72 23.5965 11.58 23.1665C13.0933 22.4098 14.2633 21.2998 15.08 19.8298C15.1433 19.7132 15.1467 19.6232 15.0867 19.5032C14.67 18.6765 14.2633 17.8465 13.85 17.0165L13.8533 17.0132Z" fill="#C80000"/>
<path d="M20.6709 18.2407C19.8642 18.5274 19.0775 18.8074 18.2709 19.0941C17.2142 16.6908 16.1642 14.3008 15.1109 11.9008C12.6409 11.9175 10.1843 11.9308 7.70762 11.9475C7.67428 11.4941 7.64095 11.0541 7.60428 10.5875H8.69761C9.05094 10.5875 9.40094 10.5875 9.75427 10.5875C10.1143 10.5875 10.4709 10.5875 10.8309 10.5875C11.1843 10.5875 11.5343 10.5875 11.8876 10.5875C12.2443 10.5875 12.5976 10.5941 12.9542 10.5841V8.58081H7.40095C7.31762 7.13415 7.23762 5.71083 7.15762 4.28751C7.22095 4.27417 7.25429 4.26084 7.28762 4.25751C8.46094 4.08418 9.2576 2.95752 9.09094 1.83419C8.92761 0.730866 7.86762 -0.105795 6.74096 0.0108707C5.2543 0.164203 4.36431 1.66419 4.96097 3.01418C5.02097 3.15085 5.05097 3.28751 5.06097 3.43418C5.12097 4.31417 5.18097 5.19417 5.2443 6.07416C5.35097 7.52748 5.45763 8.98081 5.5643 10.4375C5.64096 11.5175 5.7143 12.5974 5.79096 13.6774C5.79763 13.7508 5.81096 13.8274 5.8243 13.9174H13.7776C14.8676 16.4374 15.9542 18.9441 17.0442 21.4607C18.4809 20.9041 19.9009 20.3541 21.3342 19.8007C21.1075 19.2674 20.8909 18.7607 20.6675 18.2407H20.6709Z" fill="#C80000"/>
</svg>
