<svg width="17" height="24" viewBox="0 0 17 24" fill="none" xmlns="http://www.w3.org/2000/svg">
<path d="M15.5876 12.252C15.1582 12.7319 14.5519 13.0098 13.8446 12.9845L13.4656 12.9593C13.3141 13.2119 13.2383 13.5151 13.2383 13.8182V23.2914C13.2383 23.6704 13.5414 23.9988 13.9456 23.9988C14.3245 23.9988 14.6529 23.6956 14.6529 23.2914V13.8182C14.6529 13.6414 14.8045 13.5151 14.9561 13.5151C15.1329 13.5151 15.2592 13.6414 15.2592 13.8182C15.2592 14.1971 15.5624 14.5255 15.9666 14.5255C16.3455 14.5255 16.6739 14.2224 16.6739 13.8182C16.6234 13.1109 16.1939 12.5046 15.5876 12.252Z" fill="#C80000"/>
<path d="M13.945 12.1501C14.6776 12.1501 15.3091 11.5691 15.3344 10.8112C15.3596 10.0534 14.7786 9.39655 13.9955 9.37129L12.2019 9.2955L11.3683 7.704C10.9893 6.99666 10.5094 6.36512 9.90307 5.85988L9.72623 5.70831C8.66523 4.79887 7.37687 4.21785 6.01273 3.99049L3.05708 3.53578C2.47605 3.45999 1.92029 3.73787 1.61715 4.24311L0.177216 6.84509C-0.201714 7.52717 0.0509059 8.36081 0.707717 8.73974C1.38979 9.11867 2.22343 8.86605 2.60236 8.20924L3.58758 6.4409L5.05277 6.66826L1.92029 10.887C1.49084 11.468 1.46558 12.2512 1.86977 12.8322L4.9012 17.2783V22.3307C4.9012 23.2654 5.65906 23.998 6.56849 23.998C7.50318 23.998 8.23578 23.2401 8.23578 22.3307V16.7478C8.23578 16.4194 8.13473 16.091 7.93263 15.8131L6.39165 13.5648C6.41692 13.5395 6.46744 13.489 6.4927 13.4385L9.3473 9.92705L10.0546 11.2912C10.282 11.7206 10.7367 12.0238 11.2419 12.0238L13.8692 12.1501C13.8945 12.1501 13.9197 12.1501 13.945 12.1501Z" fill="#C80000"/>
<path d="M12.0499 5.7092C13.6265 5.7092 14.9045 4.43115 14.9045 2.8546C14.9045 1.27805 13.6265 0 12.0499 0C10.4734 0 9.19531 1.27805 9.19531 2.8546C9.19531 4.43115 10.4734 5.7092 12.0499 5.7092Z" fill="#C80000"/>
</svg>
