<svg width="24" height="24" viewBox="0 0 24 24" fill="none" xmlns="http://www.w3.org/2000/svg">
<path d="M14.1021 5.47587H9.97833C9.67411 5.47587 9.4375 5.23926 9.4375 4.93505V0.540827C9.4375 0.236612 9.67411 0 9.97833 0H14.0683C14.3725 0 14.6092 0.236612 14.6092 0.540827V4.90125C14.643 5.20546 14.4063 5.47587 14.1021 5.47587Z" fill="#C80000"/>
<path d="M20.7937 3.17833C20.7937 3.17833 17.2446 3.17833 16.2305 3.21213C16.0953 3.21213 15.9939 3.31354 15.9939 3.48255V4.90222C15.9939 5.95007 15.1489 6.79511 14.101 6.79511H9.9772C8.92935 6.79511 8.08431 5.95007 8.08431 4.90222V3.44875C8.08431 3.31354 7.9829 3.17833 7.84769 3.17833C6.86744 3.14453 3.28446 3.14453 3.28446 3.14453C2.57463 3.14453 2 3.71916 2 4.429V22.7157C2 23.4255 2.57463 24.0002 3.28446 24.0002H20.7937C21.5036 24.0002 22.0782 23.4255 22.0782 22.7157V4.429C22.0782 3.75296 21.5036 3.17833 20.7937 3.17833ZM12.0391 8.06453C13.594 8.06453 14.8784 9.34899 14.8784 10.9039C14.8784 12.4587 13.594 13.7432 12.0391 13.7432C10.4842 13.7432 9.19976 12.4587 9.19976 10.9039C9.19976 9.34899 10.4842 8.06453 12.0391 8.06453ZM16.9742 19.3392H7.10406C6.86744 19.3392 6.69844 19.1364 6.69844 18.8998C6.86744 16.7365 10.349 14.2352 10.349 14.2352C10.349 14.2352 10.687 14.2352 10.7884 14.3366L11.7011 15.2492C11.8701 15.4182 12.1743 15.4182 12.3433 15.2492L13.256 14.3366C13.3574 14.2352 13.5602 14.1676 13.6954 14.2352C15.6897 14.9112 17.177 16.7027 17.346 18.8998C17.3798 19.1364 17.2108 19.3392 16.9742 19.3392Z" fill="#C80000"/>
</svg>
