<svg width="24" height="24" viewBox="0 0 24 24" fill="none" xmlns="http://www.w3.org/2000/svg">
<path fill-rule="evenodd" clip-rule="evenodd" d="M14.8385 16.7617C20.0286 17.4847 21.3759 20.4508 21.3759 24.0007H3C3 20.4508 4.34724 17.4847 9.53742 16.7617C10.116 17.6708 10.9653 18.2086 12.188 18.2086C13.4107 18.2086 14.2599 17.6708 14.8385 16.7617Z" fill="#C80000"/>
<path fill-rule="evenodd" clip-rule="evenodd" d="M16.4799 7.32227C17.4464 8.32768 18.0375 9.6733 18.0375 11.1522C18.0375 14.2651 15.4198 16.7886 12.1906 16.7886C8.96148 16.7886 6.34375 14.2651 6.34375 11.1522C6.34375 9.6733 6.93481 8.32768 7.90136 7.32227C9.14451 7.47672 10.6147 7.56603 12.1906 7.56603C13.7665 7.56603 15.2367 7.47672 16.4799 7.32227Z" fill="#C80000"/>
<path fill-rule="evenodd" clip-rule="evenodd" d="M16.3605 4.45508V5.87387C15.1501 6.03335 13.7186 6.12562 12.1841 6.12562C10.6497 6.12562 9.2182 6.03335 8.00781 5.87387V4.45508L10.9237 5.14449C11.7923 5.34987 12.576 5.34987 13.4446 5.14449L16.3605 4.45508Z" fill="#C80000"/>
<path fill-rule="evenodd" clip-rule="evenodd" d="M3.20009 2.05317L10.9797 0.152581C11.8124 -0.0508604 12.5636 -0.0508604 13.3962 0.152581L21.1758 2.05317C21.2944 2.08214 21.3759 2.19047 21.3759 2.31902C21.3759 2.44754 21.2944 2.55589 21.1758 2.58487L19.5678 2.97772V6.37051L20.4342 7.95574C20.5547 8.17557 20.4837 8.45709 20.2756 8.58437C20.0675 8.71167 19.801 8.63667 19.6805 8.41684L19.5678 8.21063V8.44837C19.5678 8.70306 19.3724 8.90953 19.1313 8.90953C18.8902 8.90953 18.6947 8.70306 18.6947 8.44837V8.21052L18.582 8.41673C18.4615 8.63656 18.195 8.71155 17.9869 8.58427C17.7789 8.45698 17.7079 8.17545 17.8284 7.95562L18.6947 6.3704V3.191L13.3962 4.48545C12.5636 4.68887 11.8124 4.68887 10.9797 4.48545L3.20009 2.58487C3.08156 2.55589 3 2.44754 3 2.31902C3 2.19047 3.0815 2.08214 3.20009 2.05317Z" fill="#C80000"/>
</svg>
