<svg width="20" height="24" viewBox="0 0 20 24" fill="none" xmlns="http://www.w3.org/2000/svg">
<path fill-rule="evenodd" clip-rule="evenodd" d="M18.8449 17.2949C17.795 15.9248 16.525 15.0351 14.7052 14.5303L13.0001 20.5C13.0001 21.0499 12.5499 21.5001 12.0001 21.5001C11.4504 21.5001 11.0002 21.0499 11.0002 20.5V15.7501C11.0002 15.0602 10.44 14.5 9.75009 14.5C9.06019 14.5 8.50012 15.0602 8.50012 15.7501V20.5C8.50012 21.0499 8.0499 21.5001 7.50017 21.5001C6.95028 21.5001 6.50006 21.0499 6.50006 20.5L4.79497 14.5303C2.97514 15.04 1.70514 15.9248 0.655333 17.2949C0.240274 17.8349 0.0147488 18.9199 0 19.5001C0.00495297 19.6501 0 19.8251 0 19.9999V21V22.0001C0 23.1051 0.895057 24 2.00006 24H17.5C18.605 24 19.5002 23.1051 19.5002 22.0001V21V19.9999C19.5002 19.8251 19.4953 19.6501 19.5002 19.5001C19.485 18.9199 19.2598 17.8349 18.8449 17.2949ZM4.50005 5.28999C4.50005 8.20999 6.32043 12.5 9.75009 12.5C13.1201 12.5 15 8.20999 15 5.28999C15 2.37011 12.65 0 9.75009 0C6.85018 0 4.50005 2.37011 4.50005 5.28999Z" fill="#C80000"/>
</svg>
