<svg width="68" height="72" viewBox="0 0 68 72" fill="none" xmlns="http://www.w3.org/2000/svg">
<path d="M50.5695 51.011C56.3611 51.011 61.075 55.7148 61.0639 61.5042C61.0639 67.2965 56.3497 72 50.5695 72C44.7924 72 40.0782 67.2965 40.0782 61.5042C40.0782 55.7148 44.7924 51.011 50.5695 51.011ZM42.1428 32.0982V2.29794e-05H61.7782C64.7119 2.29794e-05 67.1055 2.38559 67.1055 5.33096V32.0982H42.1428ZM37.7157 36.5288L67.1168 36.5177V61.5154H65.7667V61.5042C65.7667 53.1321 58.9544 46.3186 50.5809 46.3186C42.2102 46.3186 35.3978 53.1321 35.3978 61.5042V61.5154H0V0H37.7157V36.5288Z" fill="white"/>
<path d="M12.5806 8C15.3241 8 17.5483 10.1944 17.5483 12.9012C17.5483 15.6077 15.3241 17.8022 12.5806 17.8022C9.83703 17.8022 7.61292 15.6077 7.61292 12.9012C7.61292 10.1944 9.83705 8 12.5806 8ZM17.4574 21.812L19.3548 31.8368H29.0646C30.6856 31.8368 32 33.1333 32 34.7329L31.967 35.1408L32 35.1784V50.104C32 51.7035 30.6856 53 29.0646 53C27.4432 53 26.1289 51.7035 26.1289 50.104V38.0745H14.3871C12.7658 38.0745 11.4516 36.7777 11.4516 35.1784L8.96769 22.7031C8.96769 20.3654 10.8886 18.4704 13.258 18.4704C15.3177 18.4704 17.0385 19.9025 17.4531 21.8125L17.4574 21.812ZM6.25806 23.1487C7.38784 23.1487 8.32379 23.9673 8.48992 25.0358L10.4003 36.0033C10.7925 38.0695 12.6304 39.6333 14.8386 39.6336L22.9677 39.6338C24.2149 39.6338 25.2257 40.6312 25.2257 41.8614C25.2257 43.0919 24.2149 44.0892 22.9677 44.0892H14.8386C10.4148 44.0892 6.73386 40.9516 5.95727 36.8093L5.95079 36.8103L4.04 25.7961L4 25.3763C4 24.146 5.01097 23.1487 6.25806 23.1487Z" fill="#61A600"/>
</svg>
