<svg width="68" height="72" viewBox="0 0 68 72" fill="none" xmlns="http://www.w3.org/2000/svg">
<path d="M50.5695 51.011C56.3611 51.011 61.075 55.7148 61.0639 61.5042C61.0639 67.2965 56.3497 72 50.5695 72C44.7924 72 40.0782 67.2965 40.0782 61.5042C40.0782 55.7148 44.7924 51.011 50.5695 51.011ZM42.1428 32.0982V2.29794e-05H61.7782C64.7119 2.29794e-05 67.1055 2.38559 67.1055 5.33096V32.0982H42.1428ZM37.7157 36.5288L67.1168 36.5177V61.5154H65.7667V61.5042C65.7667 53.1321 58.9544 46.3186 50.5809 46.3186C42.2102 46.3186 35.3978 53.1321 35.3978 61.5042V61.5154H0V0H37.7157V36.5288Z" fill="white"/>
<path d="M19.2006 8.01123C21.4614 8.01123 23.2941 9.84424 23.2941 12.1054C23.2941 14.3665 21.4614 16.1995 19.2006 16.1995C16.9398 16.1995 15.1071 14.3665 15.1071 12.1054C15.1071 9.84424 16.9398 8.01123 19.2006 8.01123ZM24.0617 16.9673C26.6049 16.9673 28.6667 19.0293 28.6667 21.5733V23.4923V34.2395C28.6667 35.2288 27.8649 36.0307 26.8758 36.0307C25.8867 36.0307 25.085 35.2288 25.085 34.2395V23.4923H24.0617V35.9028V36.2865V53.3029C24.0617 54.5749 23.0307 55.6059 21.7589 55.6059C20.4874 55.6059 19.4564 54.5749 19.4564 53.3029V36.2865H18.9448V53.3029C18.9448 54.5749 17.9138 55.6059 16.6421 55.6059C15.3705 55.6059 14.3395 54.5749 14.3395 53.3029V36.2865V35.9028V23.4923H13.3162V34.2395C13.3162 35.2288 12.5143 36.0307 11.5253 36.0307C10.5362 36.0307 9.73438 35.2288 9.73438 34.2355V23.4923V21.5733C9.73438 19.0293 11.7962 16.9673 14.3395 16.9673H24.0617Z" fill="#61A600"/>
</svg>
