<svg width="68" height="72" viewBox="0 0 68 72" fill="none" xmlns="http://www.w3.org/2000/svg">
<path d="M50.5695 51.011C56.3611 51.011 61.075 55.7148 61.0639 61.5042C61.0639 67.2965 56.3497 72 50.5695 72C44.7924 72 40.0782 67.2965 40.0782 61.5042C40.0782 55.7148 44.7924 51.011 50.5695 51.011ZM42.1428 32.0982V2.29794e-05H61.7782C64.7119 2.29794e-05 67.1055 2.38559 67.1055 5.33096V32.0982H42.1428ZM37.7157 36.5288L67.1168 36.5177V61.5154H65.7667V61.5042C65.7667 53.1321 58.9544 46.3186 50.5809 46.3186C42.2102 46.3186 35.3978 53.1321 35.3978 61.5042V61.5154H0V0H37.7157V36.5288Z" fill="white"/>
<path d="M19.2006 8.00781C21.4614 8.00781 23.2941 9.84082 23.2941 12.102C23.2941 14.3631 21.4614 16.196 19.2006 16.196C16.9398 16.196 15.1071 14.3631 15.1071 12.102C15.1071 9.84082 16.9398 8.00781 19.2006 8.00781ZM24.0617 16.9639C26.6049 16.9639 28.6667 19.0259 28.6667 21.5698V23.4889V34.2361C28.6667 35.2254 27.8649 36.0273 26.8758 36.0273C25.8867 36.0273 25.085 35.2254 25.085 34.2361V23.4889H24.0617V35.8994V36.283V53.2995C24.0617 54.5714 23.0307 55.6025 21.7589 55.6025C20.4874 55.6025 19.4564 54.5714 19.4564 53.2995V36.283H18.9448V53.2995C18.9448 54.5714 17.9138 55.6025 16.6421 55.6025C15.3705 55.6025 14.3395 54.5714 14.3395 53.2995V36.283V35.8994V23.4889H13.3162V34.2361C13.3162 35.2254 12.5143 36.0273 11.5253 36.0273C10.5362 36.0273 9.73438 35.2254 9.73438 34.2321V23.4889V21.5698C9.73438 19.0259 11.7962 16.9639 14.3395 16.9639H24.0617Z" fill="#C80000"/>
</svg>
