<svg width="39" height="48" viewBox="0 0 39 48" fill="none" xmlns="http://www.w3.org/2000/svg">
<path fill-rule="evenodd" clip-rule="evenodd" d="M37.6899 34.5899C35.5901 31.8497 33.05 30.0702 29.4104 29.0606L26.0002 41C26.0002 42.0998 25.0998 43.0001 24.0001 43.0001C22.9008 43.0001 22.0003 42.0998 22.0003 41V31.5001C22.0003 30.1203 20.8801 29 19.5002 29C18.1204 29 17.0002 30.1203 17.0002 31.5001V41C17.0002 42.0998 16.0998 43.0001 15.0003 43.0001C13.9006 43.0001 13.0001 42.0998 13.0001 41L9.58994 29.0606C5.95028 30.08 3.41028 31.8497 1.31067 34.5899C0.480548 35.6699 0.0294977 37.8398 0 39.0002C0.00990594 39.3002 0 39.6503 0 39.9999V42V44.0002C0 46.2101 1.79011 48 4.00013 48H35C37.2099 48 39.0003 46.2101 39.0003 44.0002V42V39.9999C39.0003 39.6503 38.9906 39.3002 39.0003 39.0002C38.9701 37.8398 38.5196 35.6697 37.6899 34.5899ZM9.0001 10.58C9.0001 16.42 12.6409 25.0001 19.5002 25.0001C26.2403 25.0001 30 16.42 30 10.58C30 4.74021 25.3 0 19.5002 0C13.7004 0 9.0001 4.74021 9.0001 10.58Z" fill="#61A600"/>
</svg>
