<svg width="40" height="36" viewBox="0 0 40 36" fill="none" xmlns="http://www.w3.org/2000/svg">
<path d="M18.1546 1.06608L0.288617 32.0088C-0.531348 33.4302 0.493295 35.2058 2.13448 35.2058H37.8651C39.5063 35.2058 40.531 33.4302 39.711 32.0088L21.8463 1.06608C21.0263 -0.35536 18.9745 -0.35536 18.1546 1.06608Z" fill="url(#paint0_radial_3789_34791)"/>
<path d="M30.2236 28.663H9.77586L20.0007 10.9537L30.2236 28.663Z" fill="#00414E" stroke="url(#paint1_linear_3789_34791)" stroke-width="3"/>
<path d="M20.2746 8.42826L20.0008 7.95361L7.17773 30.163H7.73149L20.2746 8.42826Z" fill="#B0BEC5"/>
<path d="M21.8463 1.06608L39.711 32.0088C40.5322 33.4302 39.5063 35.2058 37.8651 35.2058H2.13448C0.493295 35.2058 -0.531348 33.4302 0.288617 32.0088L18.1546 1.06608C18.9745 -0.35536 21.0263 -0.35536 21.8463 1.06608ZM37.8651 34.5779C38.4088 34.5779 38.8961 34.2967 39.1673 33.8258C39.4385 33.3549 39.4385 32.7923 39.1673 32.3215L21.3026 1.37875C21.0314 0.907864 20.5441 0.627845 20.0004 0.627845C19.4567 0.627845 18.9695 0.907864 18.6983 1.37875L0.832331 32.3227C0.561102 32.7936 0.561102 33.3561 0.832331 33.827C1.10482 34.2979 1.59077 34.5792 2.13448 34.5792H37.8651V34.5779Z" fill="url(#paint2_linear_3789_34791)"/>
<defs>
<radialGradient id="paint0_radial_3789_34791" cx="0" cy="0" r="1" gradientUnits="userSpaceOnUse" gradientTransform="translate(15.9785 13.9645) scale(26.1887 26.1887)">
<stop stop-color="#EF7871"/>
<stop offset="0.44" stop-color="#D14C44"/>
<stop offset="0.99" stop-color="#B3261E"/>
</radialGradient>
<linearGradient id="paint1_linear_3789_34791" x1="15" y1="18.0005" x2="29" y2="30.5005" gradientUnits="userSpaceOnUse">
<stop stop-color="#FED000"/>
<stop offset="0.45" stop-color="#FFB000"/>
<stop offset="0.955" stop-color="#CB8C00"/>
</linearGradient>
<linearGradient id="paint2_linear_3789_34791" x1="6.28956" y1="12.8244" x2="33.7101" y2="40.2461" gradientUnits="userSpaceOnUse">
<stop stop-color="#B3261E"/>
<stop offset="0.2" stop-color="#B3261E"/>
<stop offset="0.63" stop-color="#B3261E"/>
<stop offset="0.99" stop-color="#B3261E"/>
</linearGradient>
</defs>
</svg>
