<svg width="40" height="40" viewBox="0 0 40 40" fill="none" xmlns="http://www.w3.org/2000/svg">
<path d="M39 31H21V35H39V31Z" fill="#FFD740"/>
<path d="M30 31H21V35H30V31Z" fill="#FFE57F"/>
<path d="M39 34H21V35H39V34Z" fill="#FFC400"/>
<path d="M23 31H22V34H23V31Z" fill="white"/>
<path d="M33 31H32V34H33V31Z" fill="#FFC400"/>
<path d="M35 31H34V34H35V31Z" fill="#FFC400"/>
<path d="M37 31H36V34H37V31Z" fill="#FFC400"/>
<path d="M39 31H38V34H39V31Z" fill="#FFC400"/>
<path d="M38 27H20V31H38V27Z" fill="#FFD740"/>
<path d="M29 27H20V31H29V27Z" fill="#FFE57F"/>
<path d="M38 30H20V31H38V30Z" fill="#FFC400"/>
<path d="M22 27H21V30H22V27Z" fill="white"/>
<path d="M32 27H31V30H32V27Z" fill="#FFC400"/>
<path d="M34 27H33V30H34V27Z" fill="#FFC400"/>
<path d="M36 27H35V30H36V27Z" fill="#FFC400"/>
<path d="M38 27H37V30H38V27Z" fill="#FFC400"/>
<path d="M21 23H3V27H21V23Z" fill="#FFD740"/>
<path d="M12 23H3V27H12V23Z" fill="#FFE57F"/>
<path d="M21 26H3V27H21V26Z" fill="#FFC400"/>
<path d="M5 23H4V26H5V23Z" fill="white"/>
<path d="M15 23H14V26H15V23Z" fill="#FFC400"/>
<path d="M17 23H16V26H17V23Z" fill="#FFC400"/>
<path d="M19 23H18V26H19V23Z" fill="#FFC400"/>
<path d="M21 23H20V26H21V23Z" fill="#FFC400"/>
<path d="M21 31H3V35H21V31Z" fill="#FFD740"/>
<path d="M12 31H3V35H12V31Z" fill="#FFE57F"/>
<path d="M21 34H3V35H21V34Z" fill="#FFC400"/>
<path d="M5 31H4V34H5V31Z" fill="white"/>
<path d="M15 31H14V34H15V31Z" fill="#FFC400"/>
<path d="M17 31H16V34H17V31Z" fill="#FFC400"/>
<path d="M19 31H18V34H19V31Z" fill="#FFC400"/>
<path d="M21 31H20V34H21V31Z" fill="#FFC400"/>
<path d="M20 27H2V31H20V27Z" fill="#FFD740"/>
<path d="M11 27H2V31H11V27Z" fill="#FFE57F"/>
<path d="M20 30H2V31H20V30Z" fill="#FFC400"/>
<path d="M4 27H3V30H4V27Z" fill="white"/>
<path d="M14 27H13V30H14V27Z" fill="#FFC400"/>
<path d="M16 27H15V30H16V27Z" fill="#FFC400"/>
<path d="M18 27H17V30H18V27Z" fill="#FFC400"/>
<path d="M20 27H19V30H20V27Z" fill="#FFC400"/>
<path d="M5.98914 20.0111C2.67614 16.6971 2.67614 11.3041 5.98914 7.99012C9.30314 4.67712 14.6961 4.67712 18.0101 7.99012C21.3231 11.3041 21.3231 16.6971 18.0101 20.0111C14.6961 23.3241 9.30414 23.3241 5.98914 20.0111Z" fill="#FFD740"/>
<path d="M12 6C16.411 6 20 9.589 20 14C20 18.411 16.411 22 12 22C7.589 22 4 18.411 4 14C4 9.589 7.589 6 12 6ZM12 5C7.029 5 3 9.03 3 14C3 18.97 7.029 23 12 23C16.971 23 21 18.97 21 14C21 9.03 16.971 5 12 5Z" fill="#FDD835"/>
<path d="M5.1341 18.563C3.7661 15.378 4.3671 11.553 6.9681 8.95297C9.7021 6.21897 13.7951 5.68997 17.0691 7.34697C17.0681 7.25397 17.0691 7.16097 17.0761 7.06797C13.7121 5.00797 9.2621 5.42598 6.3501 8.33698C3.5711 11.116 3.0591 15.304 4.8111 18.604C4.9171 18.586 5.0251 18.57 5.1341 18.563Z" fill="white"/>
<path d="M12 20.5C8.416 20.5 5.5 17.584 5.5 14C5.5 10.416 8.416 7.5 12 7.5C15.584 7.5 18.5 10.416 18.5 14C18.5 17.584 15.584 20.5 12 20.5Z" fill="#FFE57F"/>
<path d="M12 8C15.309 8 18 10.691 18 14C18 17.309 15.309 20 12 20C8.691 20 6 17.309 6 14C6 10.691 8.691 8 12 8ZM12 7C8.135 7 5 10.137 5 14C5 17.863 8.135 21 12 21C15.865 21 19 17.863 19 14C19 10.137 15.865 7 12 7Z" fill="#FFC400"/>
<path d="M12 11C12.719 11 13 11.521 13 12H15C15 11.186 14.326 10.381 13 10.106V9H11V10.092C9.674 10.332 9 11.101 9 12.5C9 13.813 10.031 15 12 15C12.577 15 13 15.438 13 16C13 16.595 12.666 17 12 17C11.334 17 11 16.633 11 16H9C9 17.245 9.684 17.78 11 17.94V19H13V17.925C14.326 17.725 15.025 17.051 15 15.5C15 14.125 14 13.001 12 13.001C11.437 13.001 11 12.688 11 12C11 11.482 11.281 11 12 11Z" fill="#FFAB00"/>
<path d="M12 6C16.411 6 20 9.589 20 14C20 18.411 16.411 22 12 22C7.589 22 4 18.411 4 14C4 9.589 7.589 6 12 6ZM12 5C7.029 5 3 9.03 3 14C3 18.97 7.029 23 12 23C16.971 23 21 18.97 21 14C21 9.03 16.971 5 12 5Z" fill="#FFC400"/>
<path d="M19.9891 25.0111C16.6761 21.6971 16.6761 16.3041 19.9891 12.9901C23.3031 9.67712 28.6961 9.67712 32.0101 12.9901C35.3231 16.3041 35.3231 21.6971 32.0101 25.0111C28.6961 28.3241 23.3041 28.3241 19.9891 25.0111Z" fill="#FFD740"/>
<path d="M26 11C30.411 11 34 14.589 34 19C34 23.411 30.411 27 26 27C21.589 27 18 23.411 18 19C18 14.589 21.589 11 26 11ZM26 10C21.029 10 17 14.03 17 19C17 23.97 21.029 28 26 28C30.971 28 35 23.97 35 19C35 14.03 30.971 10 26 10Z" fill="#FDD835"/>
<path d="M19.1341 23.563C17.7661 20.378 18.3671 16.553 20.9681 13.953C23.7021 11.219 27.7951 10.69 31.0691 12.347C31.0681 12.254 31.0691 12.161 31.0761 12.068C27.7121 10.008 23.2621 10.426 20.3501 13.337C17.5711 16.116 17.0591 20.304 18.8111 23.604C18.9171 23.586 19.0251 23.57 19.1341 23.563Z" fill="white"/>
<path d="M26 25.5C22.416 25.5 19.5 22.584 19.5 19C19.5 15.416 22.416 12.5 26 12.5C29.584 12.5 32.5 15.416 32.5 19C32.5 22.584 29.584 25.5 26 25.5Z" fill="#FFE57F"/>
<path d="M26 13C29.309 13 32 15.691 32 19C32 22.309 29.309 25 26 25C22.691 25 20 22.309 20 19C20 15.691 22.691 13 26 13ZM26 12C22.135 12 19 15.137 19 19C19 22.863 22.135 26 26 26C29.865 26 33 22.863 33 19C33 15.137 29.865 12 26 12Z" fill="#FFC400"/>
<path d="M26 16C26.719 16 27 16.521 27 17H29C29 16.186 28.326 15.381 27 15.106V14H25V15.092C23.674 15.332 23 16.101 23 17.5C23 18.813 24.031 20 26 20C26.577 20 27 20.438 27 21C27 21.595 26.666 22 26 22C25.334 22 25 21.633 25 21H23C23 22.245 23.684 22.78 25 22.94V24H27V22.925C28.326 22.725 29.025 22.051 29 20.5C29 19.125 28 18.001 26 18.001C25.437 18.001 25 17.688 25 17C25 16.482 25.281 16 26 16Z" fill="#FFAB00"/>
<path d="M26 11C30.411 11 34 14.589 34 19C34 23.411 30.411 27 26 27C21.589 27 18 23.411 18 19C18 14.589 21.589 11 26 11ZM26 10C21.029 10 17 14.03 17 19C17 23.97 21.029 28 26 28C30.971 28 35 23.97 35 19C35 14.03 30.971 10 26 10Z" fill="#FFC400"/>
</svg>
