<svg width="64" height="64" viewBox="0 0 64 64" fill="none" xmlns="http://www.w3.org/2000/svg">
<path d="M25.3538 32.5723C25.3538 33.6409 24.4829 34.5065 23.4077 34.5065H19.5154V48.9095C19.5154 49.8727 18.8527 50.7663 17.8962 50.9211C16.6769 51.1174 15.6231 50.188 15.6231 49.013V43.2104H11.7308V49.013C11.7308 50.188 10.6769 51.1174 9.45766 50.9211C8.50112 50.7663 7.83846 49.8727 7.83846 48.9095V34.5065H3.94615C2.8709 34.5065 2 33.6409 2 32.5723C2 31.5036 2.8709 30.6381 3.94615 30.6381H10.4521C8.87771 29.5985 7.83846 27.8219 7.83846 25.8026C7.83846 22.5976 10.4521 20 13.6769 20C16.9017 20 19.5154 22.5976 19.5154 25.8026C19.5154 27.8219 18.4761 29.5985 16.9017 30.6381H23.4077C24.4829 30.6381 25.3538 31.5036 25.3538 32.5723ZM46.2538 41.6907H39.7478C41.3223 40.6511 42.3615 38.8745 42.3615 36.8552C42.3615 33.6503 39.7478 31.0526 36.5231 31.0526C33.2983 31.0526 30.6846 33.6503 30.6846 36.8552C30.6846 38.8745 31.7239 40.6511 33.2983 41.6907H26.7923C25.7171 41.6907 24.8461 42.5563 24.8461 43.6249C24.8461 44.6936 25.7171 45.5591 26.7923 45.5591H30.6846L27.2195 55.8916C27.0093 56.5173 27.4783 57.1643 28.142 57.1643H30.6846V59.9621C30.6846 60.9254 31.3473 61.819 32.3038 61.9737C33.5231 62.17 34.5769 61.2406 34.5769 60.0656V57.1643H38.4692V60.0656C38.4692 61.2406 39.5231 62.17 40.7423 61.9737C41.6989 61.819 42.3615 60.9263 42.3615 59.9621V57.1643H44.9042C45.5688 57.1643 46.0378 56.5173 45.8276 55.8916L42.3615 45.5591H46.2538C47.3291 45.5591 48.2 44.6936 48.2 43.6249C48.2 42.5563 47.3291 41.6907 46.2538 41.6907Z" fill="#61A600"/>
<circle cx="49" cy="15" r="15" fill="#61A600"/>
<path fill-rule="evenodd" clip-rule="evenodd" d="M58.343 9.30986L45.3223 22.9817L39.6484 17.0241L41.2002 15.5463L45.3223 19.8745L56.7913 7.83203L58.343 9.30986Z" fill="white"/>
</svg>
