<svg width="21" height="20" viewBox="0 0 21 20" fill="none" xmlns="http://www.w3.org/2000/svg">
<path fill-rule="evenodd" clip-rule="evenodd" d="M20.0169 0.532533C20.7155 1.24258 20.7155 2.39379 20.0169 3.10383L3.91738 19.4675C3.21879 20.1775 2.08617 20.1775 1.38758 19.4675C0.689002 18.7574 0.689002 17.6062 1.38758 16.8962L17.4871 0.532533C18.1857 -0.177511 19.3183 -0.177511 20.0169 0.532533Z" fill="white"/>
<path fill-rule="evenodd" clip-rule="evenodd" d="M1.71041 0.532533C1.01183 1.24258 1.01183 2.39379 1.71041 3.10383L17.8099 19.4675C18.5085 20.1775 19.6411 20.1775 20.3397 19.4675C21.0383 18.7574 21.0383 17.6062 20.3397 16.8962L4.24021 0.532533C3.54163 -0.177511 2.409 -0.177511 1.71041 0.532533Z" fill="white"/>
</svg>
