<svg width="16" height="32" viewBox="0 0 16 32" fill="none" xmlns="http://www.w3.org/2000/svg">
<mask id="mask0_6661_95929" style="mask-type:alpha" maskUnits="userSpaceOnUse" x="0" y="0" width="16" height="32">
<path d="M16 0H0V32H16V0Z" fill="#D9D9D9"/>
</mask>
<g mask="url(#mask0_6661_95929)">
<path d="M14.1019 8H13.6019V5C13.6019 2.2 7.40193 0 -0.398071 0C-8.19807 0 -14.3981 2.2 -14.3981 5V8H-14.8981C-15.7262 8 -16.3981 8.67125 -16.3981 9.5V14.5C-16.3981 15.3281 -15.7262 16 -14.8981 16H-14.3981V26C-14.3981 27.1044 -13.5024 28 -12.3981 28V30C-12.3981 31.1044 -11.5024 32 -10.3981 32H-8.39807C-7.2937 32 -6.39807 31.1044 -6.39807 30V28H5.60193V30C5.60193 31.1044 6.49755 32 7.60193 32H9.60193C10.7063 32 11.6019 31.1044 11.6019 30V28H12.0019C13.0019 28 13.6019 27.2 13.6019 26.4V16H14.1019C14.9301 16 15.6019 15.3281 15.6019 14.5V9.5C15.6019 8.67125 14.9301 8 14.1019 8ZM-9.39807 25C-10.5024 25 -11.3981 24.1044 -11.3981 23C-11.3981 21.8956 -10.5024 21 -9.39807 21C-8.2937 21 -7.39807 21.8956 -7.39807 23C-7.39807 24.1044 -8.2937 25 -9.39807 25ZM-8.39807 18C-9.50245 18 -10.3981 17.1044 -10.3981 16V8C-10.3981 6.89562 -9.50245 6 -8.39807 6H7.60193C8.7063 6 9.60193 6.89562 9.60193 8V16C9.60193 17.1044 8.7063 18 7.60193 18H-8.39807ZM8.60193 25C7.49755 25 6.60193 24.1044 6.60193 23C6.60193 21.8956 7.49755 21 8.60193 21C9.7063 21 10.6019 21.8956 10.6019 23C10.6019 24.1044 9.7063 25 8.60193 25Z" fill="white"/>
</g>
</svg>
