<svg width="37" height="46" viewBox="0 0 37 46" fill="none" xmlns="http://www.w3.org/2000/svg">
<rect opacity="0.9" x="1" y="1" width="35" height="43" fill="#D5D5D5"/>
<path opacity="0.5" d="M2 1H36V15.3111L2 24V1Z" fill="url(#paint0_linear_13249_239134)"/>
<path d="M1 0.199219V45.7992H18.5641V0.199219H1ZM16.999 42.7024C16.999 43.5896 15.9412 44.309 14.6367 44.309H4.92744C3.62295 44.309 2.56511 43.5896 2.56511 42.7024V6.4808C2.56511 5.2106 4.07921 4.18086 5.94685 4.18086H13.6173C15.4849 4.18086 16.999 5.2106 16.999 6.4808V42.7024Z" fill="url(#paint1_linear_13249_239134)" stroke="#231F20" stroke-width="0.2" stroke-miterlimit="10"/>
<path d="M18.5645 0.199219V45.7992H36.1286V0.199219H18.5645ZM34.5635 42.7024C34.5635 43.5896 33.5056 44.309 32.2011 44.309H22.4919C21.1874 44.309 20.1296 43.5896 20.1296 42.7024V6.4808C20.1296 5.2106 21.6437 4.18086 23.5113 4.18086H31.1817C33.0494 4.18086 34.5635 5.2106 34.5635 6.4808V42.7024Z" fill="url(#paint2_linear_13249_239134)" stroke="#231F20" stroke-width="0.2" stroke-miterlimit="10"/>
<path style="mix-blend-mode:multiply" d="M19.8442 22.957V25.3724C19.8442 25.8533 19.2705 26.2434 18.5634 26.2434C17.8564 26.2434 17.2827 25.8533 17.2827 25.3724V22.957C17.2827 22.4761 17.8564 22.0859 18.5634 22.0859C19.2705 22.0859 19.8442 22.4761 19.8442 22.957Z" fill="url(#paint3_linear_13249_239134)"/>
<path d="M18.0044 22.7481V25.7461H19.1209V22.7481H18.0044Z" fill="black"/>
<path d="M19.1214 25.6484V26.4596C19.1214 26.6692 18.8713 26.8393 18.5632 26.8393C18.255 26.8393 18.0049 26.6692 18.0049 26.4596V25.6484H19.1214Z" fill="url(#paint4_linear_13249_239134)"/>
<path d="M18.0049 22.8432V22.032C18.0049 21.8225 18.255 21.6523 18.5632 21.6523C18.8713 21.6523 19.1214 21.8225 19.1214 22.032V22.8432H18.0049Z" fill="url(#paint5_linear_13249_239134)"/>
<path d="M18.1611 22.927V25.5643C18.1611 25.5806 18.1805 25.5938 18.2045 25.5938H18.9213C18.9453 25.5938 18.9646 25.5806 18.9646 25.5643V22.927C18.9646 22.9107 18.9453 22.8975 18.9213 22.8975H18.2045C18.1805 22.8975 18.1611 22.9107 18.1611 22.927Z" fill="url(#paint6_linear_13249_239134)"/>
<defs>
<linearGradient id="paint0_linear_13249_239134" x1="19" y1="1" x2="19" y2="24" gradientUnits="userSpaceOnUse">
<stop stop-color="white"/>
<stop offset="1" stop-color="#2F2F2F"/>
</linearGradient>
<linearGradient id="paint1_linear_13249_239134" x1="5.63594" y1="0.799218" x2="14.0359" y2="45.1992" gradientUnits="userSpaceOnUse">
<stop stop-color="#317712"/>
<stop offset="0.3" stop-color="#579720"/>
<stop offset="0.66" stop-color="#9FDA58"/>
<stop offset="1" stop-color="#347D13"/>
</linearGradient>
<linearGradient id="paint2_linear_13249_239134" x1="23.2004" y1="0.799218" x2="31.6004" y2="45.1992" gradientUnits="userSpaceOnUse">
<stop stop-color="#317712"/>
<stop offset="0.3" stop-color="#579720"/>
<stop offset="0.66" stop-color="#9FDA58"/>
<stop offset="1" stop-color="#347D13"/>
</linearGradient>
<linearGradient id="paint3_linear_13249_239134" x1="18.5634" y1="26.2434" x2="18.5634" y2="22.0859" gradientUnits="userSpaceOnUse">
<stop stop-color="#E6E7E8"/>
<stop offset="1" stop-color="#A7A9AC"/>
</linearGradient>
<linearGradient id="paint4_linear_13249_239134" x1="18.03" y1="26.2439" x2="19.1466" y2="26.2439" gradientUnits="userSpaceOnUse">
<stop stop-color="#414042"/>
<stop offset="1"/>
</linearGradient>
<linearGradient id="paint5_linear_13249_239134" x1="14.6504" y1="22.2473" x2="14.6504" y2="22.2473" gradientUnits="userSpaceOnUse">
<stop stop-color="#414042"/>
<stop offset="1"/>
</linearGradient>
<linearGradient id="paint6_linear_13249_239134" x1="18.1793" y1="24.2456" x2="18.9828" y2="24.2456" gradientUnits="userSpaceOnUse">
<stop stop-color="#A7A9AC"/>
<stop offset="1" stop-color="#414042"/>
</linearGradient>
</defs>
</svg>
