<svg width="41" height="40" viewBox="0 0 41 40" fill="none" xmlns="http://www.w3.org/2000/svg">
<path d="M20.0049 19.18C20.183 19.3246 20.4054 19.4034 20.6349 19.4034C20.8643 19.4034 21.0867 19.3246 21.2649 19.18L30.5549 11.18C30.2564 11.0711 29.9425 11.0104 29.6249 11H11.6248C11.3083 11.0039 10.9944 11.0579 10.6948 11.16L20.0049 19.18Z" fill="white"/>
<path d="M32.6252 13.9999C32.6221 13.4407 32.4628 12.8934 32.1652 12.4199L24.0452 19.4199L32.3252 26.3C32.5215 25.8946 32.624 25.4503 32.6252 25V13.9999Z" fill="white"/>
<path d="M9.08525 12.42C8.78764 12.8935 8.62831 13.4408 8.62524 14V25.0001C8.62789 25.4471 8.73039 25.8878 8.92525 26.2901L17.2053 19.4101L9.08525 12.42Z" fill="white"/>
<path d="M22.5053 20.73C21.9734 21.1614 21.31 21.3978 20.6252 21.4C19.9405 21.3978 19.2771 21.1614 18.7452 20.73L10.3452 27.7301C10.7468 27.9131 11.1839 28.0053 11.6252 28.0001H29.6253C30.0689 27.9959 30.506 27.8935 30.9053 27.7001L22.5053 20.73Z" fill="white"/>
</svg>
