<svg width="25" height="17" viewBox="0 0 25 17" fill="none" xmlns="http://www.w3.org/2000/svg">
<path d="M12.0049 8.18003C12.183 8.32456 12.4054 8.40343 12.6349 8.40343C12.8643 8.40343 13.0867 8.32456 13.2649 8.18003L22.5549 0.180001C22.2564 0.0711286 21.9425 0.0103709 21.6249 0H3.62483C3.30833 0.00393817 2.99444 0.0579394 2.69482 0.16L12.0049 8.18003Z" fill="white"/>
<path d="M24.6252 2.99993C24.6221 2.44068 24.4628 1.89342 24.1652 1.41992L16.0452 8.41995L24.3252 15.3C24.5215 14.8946 24.624 14.4503 24.6252 14V2.99993Z" fill="white"/>
<path d="M1.08525 1.41992C0.787638 1.89342 0.628309 2.44068 0.625244 2.99993V14C0.627893 14.4469 0.730391 14.8877 0.925245 15.29L9.20527 8.40994L1.08525 1.41992Z" fill="white"/>
<path d="M14.5053 9.72998C13.9734 10.1613 13.31 10.3978 12.6252 10.4C11.9405 10.3978 11.2771 10.1613 10.7452 9.72998L2.34521 16.73C2.74683 16.9131 3.18388 17.0053 3.62522 17H21.6253C22.0689 16.9959 22.506 16.8934 22.9053 16.7L14.5053 9.72998Z" fill="white"/>
</svg>
