<svg width="25" height="17" viewBox="0 0 25 17" fill="none" xmlns="http://www.w3.org/2000/svg">
<path d="M12.0046 8.18003C12.1828 8.32456 12.4052 8.40343 12.6346 8.40343C12.864 8.40343 13.0865 8.32456 13.2646 8.18003L22.5546 0.180001C22.2561 0.0711286 21.9422 0.0103709 21.6246 0H3.62458C3.30808 0.00393817 2.9942 0.0579394 2.69458 0.16L12.0046 8.18003Z" fill="#FED000"/>
<path d="M24.6251 2.99993C24.622 2.44068 24.4627 1.89342 24.1651 1.41992L16.045 8.41995L24.3251 15.3C24.5214 14.8946 24.6239 14.4503 24.6251 14V2.99993Z" fill="#FED000"/>
<path d="M1.08512 1.41992C0.787516 1.89342 0.628187 2.44068 0.625122 2.99993V14C0.627771 14.4469 0.730269 14.8877 0.925123 15.29L9.20515 8.40994L1.08512 1.41992Z" fill="#FED000"/>
<path d="M14.5053 9.73047C13.9734 10.1618 13.31 10.3982 12.6252 10.4005C11.9405 10.3982 11.2771 10.1618 10.7452 9.73047L2.34521 16.7305C2.74683 16.9136 3.18388 17.0057 3.62522 17.0005H21.6253C22.0689 16.9964 22.506 16.8939 22.9053 16.7005L14.5053 9.73047Z" fill="#FED000"/>
</svg>
