<svg width="24" height="25" viewBox="0 0 24 25" fill="none" xmlns="http://www.w3.org/2000/svg">
<path d="M24.0005 19.25V20.5625C24.0005 22.7373 20.84 24.5 16.9416 24.5C13.1125 24.5 9.99575 22.7997 9.88602 20.6787L9.88281 20.5625V19.25C9.88281 21.4248 13.0432 23.1875 16.9416 23.1875C20.84 23.1875 24.0005 21.4248 24.0005 19.25ZM16.9416 14C20.84 14 24.0005 15.7627 24.0005 17.9375C24.0005 20.1123 20.84 21.875 16.9416 21.875C13.0432 21.875 9.88281 20.1123 9.88281 17.9375C9.88281 15.7627 13.0432 14 16.9416 14Z" fill="white"/>
<path d="M14.1176 13.25V14.5625C14.1176 16.7373 10.9572 18.5 7.05882 18.5C3.22973 18.5 0.112941 16.7997 0.00320855 14.6787L0 14.5625V13.25C0 15.4248 3.16043 17.1875 7.05882 17.1875C10.9572 17.1875 14.1176 15.4248 14.1176 13.25ZM7.05882 8C10.9572 8 14.1176 9.76269 14.1176 11.9375C14.1176 14.1123 10.9572 15.875 7.05882 15.875C3.16043 15.875 0 14.1123 0 11.9375C0 9.76269 3.16043 8 7.05882 8Z" fill="white"/>
<path d="M18.3531 12.5L24.0002 6.5H20.7061V0.5H16.0002V6.5H12.7061L18.3531 12.5Z" fill="white"/>
</svg>
