<svg width="24" height="16" viewBox="0 0 24 16" fill="none" xmlns="http://www.w3.org/2000/svg">
<path fill-rule="evenodd" clip-rule="evenodd" d="M23.8792 5.23545C23.8 5.37308 23.6862 5.48755 23.549 5.56744C23.1693 5.78277 22.8535 6.09494 22.6338 6.47212C22.4141 6.84929 22.2983 7.27799 22.2983 7.71449C22.2983 8.151 22.4141 8.5797 22.6338 8.95687C22.8535 9.33405 23.1693 9.64622 23.549 9.86156C23.6862 9.94144 23.8 10.0559 23.8792 10.1935C23.9583 10.3312 24 10.4872 24 10.6459V14.521C24 14.6402 23.9765 14.7582 23.9309 14.8683C23.8853 14.9784 23.8185 15.0785 23.7342 15.1627C23.65 15.247 23.5499 15.3138 23.4398 15.3594C23.3297 15.405 23.2117 15.4285 23.0925 15.4285H16.9411V13.9159C16.9411 13.6752 16.8455 13.4444 16.6753 13.2742C16.5051 13.104 16.2743 13.0084 16.0336 13.0084C15.793 13.0084 15.5622 13.104 15.392 13.2742C15.2218 13.4444 15.1262 13.6752 15.1262 13.9159V15.4285H0.90747C0.788296 15.4285 0.670288 15.405 0.560185 15.3594C0.450081 15.3138 0.350038 15.247 0.26577 15.1627C0.181502 15.0785 0.114659 14.9784 0.0690591 14.8683C0.0234588 14.7582 -5.78026e-06 14.6402 5.3732e-06 14.521V10.6459C-7.0753e-05 10.4872 0.041495 10.3312 0.120552 10.1936C0.19961 10.056 0.313392 9.94146 0.450537 9.86156C0.83032 9.64632 1.14622 9.3342 1.36602 8.95704C1.58582 8.57988 1.70165 8.15117 1.7017 7.71464C1.70175 7.27811 1.58602 6.84937 1.3663 6.47216C1.14659 6.09495 0.830764 5.78276 0.451031 5.56744C0.313823 5.48755 0.199965 5.37308 0.120823 5.23545C0.0416797 5.09781 1.95335e-05 4.94183 3.97152e-09 4.78306V0.90747C-1.11456e-05 0.788296 0.0234537 0.670287 0.0690544 0.560183C0.114655 0.450078 0.181498 0.350035 0.265767 0.265767C0.350035 0.181498 0.450079 0.114655 0.560183 0.0690543C0.670287 0.0234536 0.788296 -1.11456e-05 0.90747 3.97154e-09H15.1262V1.51262C15.1262 1.75329 15.2218 1.98411 15.392 2.1543C15.5622 2.32448 15.793 2.42009 16.0336 2.42009C16.2743 2.42009 16.5051 2.32448 16.6753 2.1543C16.8455 1.98411 16.9411 1.75329 16.9411 1.51262V3.97154e-09H23.0925C23.2117 -1.04485e-05 23.3297 0.0234549 23.4398 0.0690559C23.5499 0.114657 23.65 0.1815 23.7342 0.265769C23.8185 0.350037 23.8853 0.45008 23.9309 0.560184C23.9765 0.670288 24 0.788296 24 0.90747V4.78306C24 4.94183 23.9583 5.09781 23.8792 5.23545ZM16.6753 11.4316C16.8455 11.2614 16.9411 11.0306 16.9411 10.7899V9.27733C16.9411 9.03665 16.8455 8.80584 16.6753 8.63565C16.5051 8.46547 16.2743 8.36986 16.0336 8.36986C15.793 8.36986 15.5621 8.46547 15.392 8.63565C15.2218 8.80584 15.1262 9.03665 15.1262 9.27733V10.7899C15.1262 11.0306 15.2218 11.2614 15.392 11.4316C15.5621 11.6018 15.793 11.6974 16.0336 11.6974C16.2743 11.6974 16.5051 11.6018 16.6753 11.4316ZM16.6753 6.79284C16.8455 6.62265 16.9411 6.39183 16.9411 6.15116V4.63854C16.9411 4.39786 16.8455 4.16705 16.6753 3.99686C16.5051 3.82668 16.2743 3.73107 16.0336 3.73107C15.793 3.73107 15.5621 3.82668 15.392 3.99686C15.2218 4.16705 15.1262 4.39786 15.1262 4.63854V6.15116C15.1262 6.39183 15.2218 6.62265 15.392 6.79284C15.5621 6.96302 15.793 7.05863 16.0336 7.05863C16.2743 7.05863 16.5051 6.96302 16.6753 6.79284ZM4.5625 11.3905C4.21938 11.0721 4 10.6176 4 10.1053V4.31579C4 2.28947 6.01375 2 8.5 2C10.9862 2 13 2.28947 13 4.31579V10.1053C13 10.6176 12.7806 11.0721 12.4375 11.3905V12.4211C12.4375 12.7395 12.1844 13 11.875 13H11.3125C11.0003 13 10.75 12.7395 10.75 12.4211V11.8421H6.25V12.4211C6.25 12.7395 5.99969 13 5.6875 13H5.125C4.81563 13 4.5625 12.7395 4.5625 12.4211V11.3905ZM5.125 9.81579C5.125 10.2963 5.50187 10.6842 5.96875 10.6842C6.43563 10.6842 6.8125 10.2963 6.8125 9.81579C6.8125 9.33526 6.43563 8.94737 5.96875 8.94737C5.50187 8.94737 5.125 9.33526 5.125 9.81579ZM10.1875 9.81579C10.1875 10.2963 10.5644 10.6842 11.0312 10.6842C11.4981 10.6842 11.875 10.2963 11.875 9.81579C11.875 9.33526 11.4981 8.94737 11.0312 8.94737C10.5644 8.94737 10.1875 9.33526 10.1875 9.81579ZM5.125 7.21053H11.875V4.31579H5.125V7.21053Z" fill="white"/>
</svg>
