<svg width="25" height="25" viewBox="0 0 25 25" fill="none" xmlns="http://www.w3.org/2000/svg">
<path d="M20.3571 0.5H4.64286C3.5 0.5 2.5 1.55 2.5 2.75V22.25C2.5 23.45 3.5 24.5 4.64286 24.5H20.3571C21.5 24.5 22.5 23.45 22.5 22.25V2.75C22.5 1.55 21.5 0.5 20.3571 0.5ZM8.21429 20.9C8.21429 21.2 7.92857 21.5 7.64286 21.5H5.92857C5.64286 21.5 5.35714 21.2 5.35714 20.9V19.1C5.35714 18.8 5.64286 18.5 5.92857 18.5H7.64286C7.92857 18.5 8.21429 18.8 8.21429 19.1V20.9ZM8.21429 14.9C8.21429 15.2 7.92857 15.5 7.64286 15.5H5.92857C5.64286 15.5 5.35714 15.2 5.35714 14.9V13.1C5.35714 12.8 5.64286 12.5 5.92857 12.5H7.64286C7.92857 12.5 8.21429 12.8 8.21429 13.1V14.9ZM13.9286 20.9C13.9286 21.2 13.6429 21.5 13.3571 21.5H11.6429C11.3571 21.5 11.0714 21.2 11.0714 20.9V19.1C11.0714 18.8 11.3571 18.5 11.6429 18.5H13.3571C13.6429 18.5 13.9286 18.8 13.9286 19.1V20.9ZM13.9286 14.9C13.9286 15.2 13.6429 15.5 13.3571 15.5H11.6429C11.3571 15.5 11.0714 15.2 11.0714 14.9V13.1C11.0714 12.8 11.3571 12.5 11.6429 12.5H13.3571C13.6429 12.5 13.9286 12.8 13.9286 13.1V14.9ZM19.6429 20.9C19.6429 21.2 19.3571 21.5 19.0714 21.5H17.3571C17.0714 21.5 16.7857 21.2 16.7857 20.9V13.1C16.7857 12.8 17.0714 12.5 17.3571 12.5H19.0714C19.3571 12.5 19.6429 12.8 19.6429 13.1V20.9ZM19.6429 8.9C19.6429 9.2 19.3571 9.5 19.0714 9.5H5.92857C5.64286 9.5 5.35714 9.2 5.35714 8.9V4.1C5.35714 3.8 5.64286 3.5 5.92857 3.5H19.0714C19.3571 3.5 19.6429 3.8 19.6429 4.1V8.9Z" fill="white"/>
</svg>
