<svg width="40" height="40" viewBox="0 0 40 40" fill="none" xmlns="http://www.w3.org/2000/svg">
<path d="M10.6615 17.5429L8.28271 17.5429C7.8083 17.5429 8.00374 18.5711 8.16745 18.6228L10.025 19.1282L10.6623 17.5421L10.6615 17.5429Z" fill="url(#paint0_linear_3985_38219)"/>
<path d="M31.4203 17.5429L33.799 17.5429C34.2734 17.5429 34.078 18.5711 33.9143 18.6228L32.0567 19.1282L31.4194 17.5421L31.4203 17.5429Z" fill="url(#paint1_linear_3985_38219)"/>
<path d="M28.2129 37.9628H31.274C31.3074 37.9628 31.3349 37.9461 31.3383 37.9244L31.5838 36.3934H28.1477V37.9202C28.1477 37.9436 28.1769 37.9628 28.2129 37.9628Z" fill="#191C20"/>
<path d="M10.7264 37.9628H13.7875C13.8234 37.9628 13.8526 37.9436 13.8526 37.9202L13.8526 36.3934H10.4165L10.6621 37.9244C10.6654 37.9461 10.6938 37.9628 10.7264 37.9628Z" fill="#191C20"/>
<path d="M28.6122 35.9436H31.1187L31.1187 39.9176C31.1187 39.9627 31.0819 40.0003 31.036 40.0003H28.694C28.6489 40.0003 28.6113 39.9636 28.6113 39.9176L28.6113 35.9436H28.6122Z" fill="url(#paint2_linear_3985_38219)"/>
<path d="M10.9269 35.9436H13.4334L13.4334 39.9176C13.4334 39.9627 13.3966 40.0003 13.3507 40.0003H11.0087C10.9636 40.0003 10.926 39.9636 10.926 39.9176L10.926 35.9436H10.9269Z" fill="url(#paint3_linear_3985_38219)"/>
<path d="M32.9895 34.7053C32.9895 35.7986 32.1192 36.6932 31.0267 36.7224C28.2145 36.7959 23.1463 36.9212 21.0424 36.9212C18.9384 36.9212 13.8702 36.7967 11.058 36.7224C9.96469 36.694 9.09521 35.7995 9.09521 34.7053L9.09521 23.0162C9.09521 20.4203 9.65649 9.64585 9.94047 6.75344C10.034 5.80545 10.7707 5.04957 11.7162 4.93598C13.6213 4.70629 17.0399 4.37888 21.0424 4.37888C25.4992 4.37888 28.6438 4.67872 30.3853 4.90591C31.3232 5.02785 32.0499 5.78123 32.1426 6.72254C32.4257 9.60241 32.9912 20.4103 32.9912 23.0162L32.9912 34.7053H32.9895Z" fill="url(#paint4_linear_3985_38219)"/>
<path d="M30.9656 27.9649C30.923 28.2497 30.6992 28.4685 30.4135 28.5078C29.1598 28.6782 25.5633 29.105 20.9996 29.105C16.4359 29.105 12.8119 28.6807 11.5832 28.5094C11.2992 28.4694 11.0771 28.2505 11.0345 27.9674C10.8048 26.4339 10.0999 21.5729 10.0999 19.58C10.0999 17.7984 10.4515 8.96921 10.6294 7.01978C10.687 6.38333 11.179 5.87217 11.8129 5.79366C13.3105 5.6074 16.3641 5.32175 20.9996 5.32175C25.6352 5.32175 28.6345 5.61742 30.2114 5.80368C30.8537 5.87969 31.3532 6.39502 31.4074 7.03982C31.5737 8.9976 31.8994 17.8051 31.8994 19.5808C31.8994 21.5729 31.1953 26.4306 30.9656 27.9665V27.9649Z" fill="url(#paint5_linear_3985_38219)"/>
<path style="mix-blend-mode:hard-light" opacity="0.5" d="M30.6759 26.8043C30.6341 27.0666 30.417 27.2695 30.1405 27.3055C28.9227 27.4625 25.4306 26.9655 20.9997 26.9655C16.5688 26.9655 13.0492 27.465 11.8564 27.3071C11.5808 27.2704 11.3653 27.0683 11.3236 26.8068C11.1006 25.3919 10.4165 20.9076 10.4165 19.0684C10.4165 17.4247 10.7581 8.91283 10.9302 7.11458C10.9861 6.52741 11.463 6.05634 12.0795 5.98367C13.5336 5.81162 16.4987 5.54768 20.9997 5.54768C25.5008 5.54768 28.4132 5.8208 29.9434 5.99203C30.5673 6.06219 31.0517 6.53743 31.1044 7.13212C31.2656 8.93789 31.5821 17.4297 31.5821 19.0684C31.5821 20.9059 30.8989 25.3878 30.675 26.8043H30.6759Z" fill="url(#paint6_linear_3985_38219)"/>
<path d="M31.5829 15.1983C31.5829 15.1983 26.3385 15.8573 21.1476 15.8573C15.9566 15.8573 10.4165 15.2167 10.4165 15.2167L10.5685 14.0123L31.4785 14.1083L31.5829 15.1983Z" fill="url(#paint7_linear_3985_38219)"/>
<path d="M31.515 14.6193C31.515 14.6193 26.3391 15.3977 21.1473 15.3977C15.9555 15.3977 10.5532 14.7713 10.5532 14.7713L10.5916 13.5535L31.419 13.5535L31.5142 14.6193H31.515Z" fill="url(#paint8_linear_3985_38219)"/>
<path d="M13.8363 33.3856L10.7852 33.3856C10.1237 33.3856 9.53155 32.9755 9.29602 32.3583C9.23421 32.1954 9.18994 31.5556 9.18994 31.5556C9.18994 31.4495 9.28182 31.3677 9.38706 31.381C10.1371 31.4754 12.8073 31.8488 13.5682 32.471C13.8046 32.6648 13.9165 33.0223 13.9633 33.2286C13.9817 33.3104 13.9199 33.3864 13.8363 33.3864V33.3856Z" fill="url(#paint9_linear_3985_38219)"/>
<path opacity="0.5" d="M10.7853 33.1338C10.2324 33.1338 9.72878 32.7856 9.53166 32.2677C9.50577 32.1992 9.47069 31.9077 9.44897 31.6405C11.015 31.8426 12.8601 32.2151 13.4096 32.6644C13.5174 32.753 13.6126 32.9192 13.6786 33.133L10.7862 33.133L10.7853 33.1338Z" fill="url(#paint10_linear_3985_38219)"/>
<path style="mix-blend-mode:soft-light" d="M12.5618 33.1464C12.292 33.1464 12.0798 32.9668 12.0798 32.7371C12.0798 32.5074 12.2911 32.3279 12.5618 32.3279C12.8324 32.3279 13.0437 32.5074 13.0437 32.7371C13.0437 32.9668 12.8324 33.1464 12.5618 33.1464Z" fill="url(#paint11_linear_3985_38219)"/>
<path style="mix-blend-mode:soft-light" d="M12.8584 32.7383C12.8584 32.862 12.7256 32.9614 12.5628 32.9614C12.3999 32.9614 12.2671 32.8611 12.2671 32.7383C12.2671 32.6156 12.3999 32.5153 12.5628 32.5153C12.7256 32.5153 12.8584 32.6156 12.8584 32.7383Z" fill="url(#paint12_linear_3985_38219)"/>
<path style="mix-blend-mode:soft-light" d="M11.0046 33.1471C10.5377 33.1471 10.1719 32.8698 10.1719 32.5157C10.1719 32.1615 10.5377 31.8842 11.0046 31.8842C11.4715 31.8842 11.8373 32.1615 11.8373 32.5157C11.8373 32.8698 11.4715 33.1471 11.0046 33.1471Z" fill="url(#paint13_linear_3985_38219)"/>
<path opacity="0.52" d="M11.6068 32.5164C11.6068 32.7378 11.337 32.9165 11.0054 32.9165C10.6738 32.9165 10.4041 32.7369 10.4041 32.5164C10.4041 32.2959 10.6738 32.1164 11.0054 32.1164C11.337 32.1164 11.6068 32.2959 11.6068 32.5164Z" fill="white"/>
<path style="mix-blend-mode:soft-light" d="M10.1714 32.0453C10.1714 32.2491 10.001 32.4145 9.79053 32.4145C9.58006 32.4145 9.40967 32.2491 9.40967 32.0453C9.40967 31.8415 9.58006 31.6762 9.79053 31.6762C10.001 31.6762 10.1714 31.8415 10.1714 32.0453Z" fill="url(#paint14_linear_3985_38219)"/>
<path opacity="0.52" d="M9.79131 32.6904C9.33945 32.0665 9.27012 31.5436 9.27514 31.4083C9.22586 31.4392 9.18994 31.491 9.18994 31.5553C9.18994 31.5553 9.23421 32.1951 9.29602 32.358C9.53155 32.9761 10.1237 33.3853 10.7852 33.3853L13.8363 33.3853C13.8689 33.3853 13.8956 33.372 13.9182 33.3528C13.9032 33.3528 11.8702 33.3812 10.5973 33.1932C10.1939 33.1331 9.92244 32.8708 9.79131 32.6904Z" fill="white"/>
<path style="mix-blend-mode:soft-light" d="M9.41797 31.3845C9.42549 31.5791 9.5491 31.9315 9.88987 32.223C10.3534 32.6198 13.7812 33.1543 13.8046 33.0992C13.8238 33.0532 13.7286 32.6974 13.4956 32.4193C12.6653 31.8346 10.1814 31.4805 9.4188 31.3836L9.41797 31.3845Z" fill="url(#paint15_linear_3985_38219)"/>
<g style="mix-blend-mode:soft-light" opacity="0.52">
<path d="M9.56763 31.4932C9.56763 31.5667 12.0934 32.0093 12.7332 32.244C13.3721 32.4787 13.5642 32.7661 13.6243 32.7385C13.6845 32.7109 13.3437 32.3159 12.7966 32.1162C12.2487 31.9166 9.56846 31.3896 9.56846 31.494L9.56763 31.4932Z" fill="white"/>
</g>
<g style="mix-blend-mode:soft-light">
<path d="M10.7097 31.9172C10.7097 31.9172 11.043 31.8829 11.2969 31.9748C11.5784 32.0767 11.7588 32.2429 11.7588 32.2429C11.7688 32.2104 11.5926 32.0149 11.3361 31.9314C11.1332 31.8646 10.7206 31.8754 10.7097 31.9172Z" fill="white"/>
</g>
<path d="M28.2772 33.3856H31.3283C31.9898 33.3856 32.582 32.9755 32.8175 32.3583C32.8793 32.1954 32.9236 31.5556 32.9236 31.5556C32.9236 31.4495 32.8317 31.3677 32.7265 31.381C31.9764 31.4754 29.3062 31.8488 28.5453 32.471C28.3089 32.6648 28.197 33.0223 28.1502 33.2286C28.1318 33.3104 28.1937 33.3864 28.2772 33.3864V33.3856Z" fill="url(#paint16_linear_3985_38219)"/>
<path opacity="0.5" d="M31.3273 33.1338C31.8802 33.1338 32.3839 32.7856 32.581 32.2677C32.6069 32.1992 32.642 31.9077 32.6637 31.6405C31.0976 31.8426 29.2526 32.2151 28.703 32.6644C28.5953 32.753 28.5001 32.9192 28.4341 33.133H31.3265L31.3273 33.1338Z" fill="url(#paint17_linear_3985_38219)"/>
<path style="mix-blend-mode:soft-light" d="M29.5513 33.1464C29.821 33.1464 30.0332 32.9668 30.0332 32.7371C30.0332 32.5074 29.8219 32.3279 29.5513 32.3279C29.2807 32.3279 29.0693 32.5074 29.0693 32.7371C29.0693 32.9668 29.2807 33.1464 29.5513 33.1464Z" fill="url(#paint18_linear_3985_38219)"/>
<path style="mix-blend-mode:soft-light" d="M29.2554 32.7377C29.2554 32.8613 29.3882 32.9607 29.551 32.9607C29.7139 32.9607 29.8467 32.8604 29.8467 32.7377C29.8467 32.6149 29.7139 32.5147 29.551 32.5147C29.3882 32.5147 29.2554 32.6149 29.2554 32.7377Z" fill="url(#paint19_linear_3985_38219)"/>
<path style="mix-blend-mode:soft-light" d="M31.1079 33.1471C31.5748 33.1471 31.9406 32.8698 31.9406 32.5157C31.9406 32.1615 31.5748 31.8842 31.1079 31.8842C30.641 31.8842 30.2751 32.1615 30.2751 32.5157C30.2751 32.8698 30.641 33.1471 31.1079 33.1471Z" fill="url(#paint20_linear_3985_38219)"/>
<path opacity="0.52" d="M30.5059 32.5157C30.5059 32.7371 30.7756 32.9158 31.1072 32.9158C31.4388 32.9158 31.7086 32.7362 31.7086 32.5157C31.7086 32.2952 31.4388 32.1157 31.1072 32.1157C30.7756 32.1157 30.5059 32.2952 30.5059 32.5157Z" fill="white"/>
<path style="mix-blend-mode:soft-light" d="M32.322 32.4145C32.5324 32.4145 32.7029 32.2492 32.7029 32.0453C32.7029 31.8414 32.5324 31.6762 32.322 31.6762C32.1117 31.6762 31.9412 31.8414 31.9412 32.0453C31.9412 32.2492 32.1117 32.4145 32.322 32.4145Z" fill="url(#paint21_linear_3985_38219)"/>
<path opacity="0.52" d="M32.3219 32.6904C32.7738 32.0665 32.8431 31.5436 32.8381 31.4083C32.8874 31.4392 32.9233 31.491 32.9233 31.5553C32.9233 31.5553 32.879 32.1951 32.8172 32.358C32.5817 32.9761 31.9895 33.3853 31.328 33.3853H28.2769C28.2443 33.3853 28.2176 33.372 28.1951 33.3528C28.2101 33.3528 30.2431 33.3812 31.5159 33.1932C31.9194 33.1331 32.1908 32.8708 32.3219 32.6904Z" fill="white"/>
<path style="mix-blend-mode:soft-light" d="M32.6954 31.3845C32.6879 31.5791 32.5643 31.9315 32.2235 32.223C31.76 32.6198 28.3322 33.1543 28.3088 33.0992C28.2896 33.0532 28.3848 32.6974 28.6178 32.4193C29.4481 31.8346 31.932 31.4805 32.6946 31.3836L32.6954 31.3845Z" fill="url(#paint22_linear_3985_38219)"/>
<g style="mix-blend-mode:soft-light" opacity="0.52">
<path d="M32.5457 31.4932C32.5457 31.5667 30.02 32.0093 29.3802 32.244C28.7413 32.4787 28.5492 32.7661 28.489 32.7385C28.4289 32.7109 28.7697 32.3159 29.3167 32.1162C29.8647 31.9166 32.5449 31.3896 32.5449 31.494L32.5457 31.4932Z" fill="white"/>
</g>
<g style="mix-blend-mode:soft-light">
<path d="M31.403 31.9172C31.403 31.9172 31.0697 31.8829 30.8158 31.9748C30.5343 32.0767 30.3539 32.2429 30.3539 32.2429C30.3439 32.2104 30.5201 32.0149 30.7765 31.9314C30.9795 31.8646 31.3921 31.8754 31.403 31.9172Z" fill="white"/>
</g>
<path style="mix-blend-mode:multiply" d="M30.4998 4.9262L30.4998 36.736C30.6827 36.731 30.8589 36.7268 31.0268 36.7226C32.1201 36.6942 32.9896 35.7997 32.9896 34.7055L32.9896 23.0165C32.9896 20.4114 32.4241 9.60266 32.141 6.72278C32.0525 5.82073 31.3809 5.09324 30.4998 4.9262Z" fill="url(#paint23_linear_3985_38219)"/>
<path d="M23.5073 34.949L18.4324 34.949C18.4223 34.949 18.4141 34.9573 18.4141 34.9674V36.1184C18.4141 36.1285 18.4223 36.1367 18.4324 36.1367L23.5073 36.1367C23.5175 36.1367 23.5257 36.1285 23.5257 36.1184V34.9674C23.5257 34.9573 23.5175 34.949 23.5073 34.949Z" fill="#E4E4E4"/>
<path d="M23.4406 36.168L18.5002 36.168C18.4359 36.168 18.3833 36.1153 18.3833 36.051V35.0345C18.3833 34.9702 18.4359 34.9176 18.5002 34.9176L23.4406 34.9176C23.5049 34.9176 23.5576 34.9702 23.5576 35.0345V36.051C23.5576 36.1153 23.5049 36.168 23.4406 36.168ZM18.5002 34.9803C18.4702 34.9803 18.4459 35.0045 18.4459 35.0345V36.051C18.4459 36.0811 18.4702 36.1053 18.5002 36.1053L23.4406 36.1053C23.4707 36.1053 23.4949 36.0811 23.4949 36.051V35.0345C23.4949 35.0045 23.4707 34.9803 23.4406 34.9803L18.5002 34.9803Z" fill="#727476"/>
<path d="M13.4604 35.4745H12.2969C12.2836 35.4745 12.2727 35.4854 12.2727 35.4988V36.1185C12.2727 36.1319 12.2836 36.1427 12.2969 36.1427H13.4604C13.4738 36.1427 13.4846 36.1319 13.4846 36.1185V35.4988C13.4846 35.4854 13.4738 35.4745 13.4604 35.4745Z" fill="#5B5D60"/>
<g style="mix-blend-mode:multiply">
<path d="M12.3625 35.544H13.4391C13.4533 35.544 13.4641 35.5557 13.4641 35.5691V36.1103C13.4641 36.1245 13.4524 36.1354 13.4391 36.1354H12.3625C12.3483 36.1354 12.3374 36.1237 12.3374 36.1103V35.5691C12.3374 35.5549 12.3491 35.544 12.3625 35.544Z" fill="white"/>
</g>
<g style="mix-blend-mode:multiply">
<path d="M13.4321 35.5476H12.3705C12.3567 35.5476 12.3455 35.5588 12.3455 35.5727V36.1039C12.3455 36.1177 12.3567 36.1289 12.3705 36.1289H13.4321C13.4459 36.1289 13.4572 36.1177 13.4572 36.1039V35.5727C13.4572 35.5588 13.4459 35.5476 13.4321 35.5476Z" fill="#F8F8F8"/>
</g>
<g style="mix-blend-mode:multiply">
<path d="M13.4261 35.551H12.3787C12.3653 35.551 12.3545 35.5619 12.3545 35.5753V36.0973C12.3545 36.1107 12.3653 36.1215 12.3787 36.1215H13.4261C13.4395 36.1215 13.4503 36.1107 13.4503 36.0973V35.5753C13.4503 35.5619 13.4395 35.551 13.4261 35.551Z" fill="#F1F1F1"/>
</g>
<g style="mix-blend-mode:multiply">
<path d="M13.4183 35.5545H12.3868C12.3734 35.5545 12.3625 35.5653 12.3625 35.5787V36.0899C12.3625 36.1032 12.3734 36.1141 12.3868 36.1141H13.4183C13.4317 36.1141 13.4425 36.1032 13.4425 36.0899V35.5787C13.4425 35.5653 13.4317 35.5545 13.4183 35.5545Z" fill="#EAEAEA"/>
</g>
<g style="mix-blend-mode:multiply">
<path d="M13.413 35.5572H12.3957C12.3828 35.5572 12.3723 35.5677 12.3723 35.5806V36.0834C12.3723 36.0963 12.3828 36.1068 12.3957 36.1068H13.413C13.4259 36.1068 13.4364 36.0963 13.4364 36.0834V35.5806C13.4364 35.5677 13.4259 35.5572 13.413 35.5572Z" fill="#E2E2E2"/>
</g>
<g style="mix-blend-mode:multiply">
<path d="M12.404 35.5607H13.4063C13.4188 35.5607 13.4297 35.5707 13.4297 35.584V36.0768C13.4297 36.0894 13.4196 36.1002 13.4063 36.1002H12.404C12.3915 36.1002 12.3806 36.0902 12.3806 36.0768V35.584C12.3806 35.5715 12.3906 35.5607 12.404 35.5607Z" fill="#DBDBDB"/>
</g>
<g style="mix-blend-mode:multiply">
<path d="M13.4 35.5641H12.412C12.3995 35.5641 12.3894 35.5742 12.3894 35.5866V36.0702C12.3894 36.0827 12.3995 36.0928 12.412 36.0928H13.4C13.4125 36.0928 13.4226 36.0827 13.4226 36.0702V35.5866C13.4226 35.5742 13.4125 35.5641 13.4 35.5641Z" fill="#D4D4D4"/>
</g>
<g style="mix-blend-mode:multiply">
<path d="M13.3932 35.5675H12.421C12.4085 35.5675 12.3984 35.5776 12.3984 35.5901V36.0628C12.3984 36.0753 12.4085 36.0854 12.421 36.0854H13.3932C13.4057 36.0854 13.4158 36.0753 13.4158 36.0628V35.5901C13.4158 35.5776 13.4057 35.5675 13.3932 35.5675Z" fill="#CDCDCD"/>
</g>
<g style="mix-blend-mode:multiply">
<path d="M13.3877 35.571H12.4297C12.4177 35.571 12.408 35.5807 12.408 35.5927V36.0562C12.408 36.0682 12.4177 36.0779 12.4297 36.0779H13.3877C13.3997 36.0779 13.4094 36.0682 13.4094 36.0562V35.5927C13.4094 35.5807 13.3997 35.571 13.3877 35.571Z" fill="#C6C6C6"/>
</g>
<g style="mix-blend-mode:multiply">
<path d="M13.3808 35.5744H12.4387C12.4267 35.5744 12.417 35.5841 12.417 35.5961V36.0496C12.417 36.0616 12.4267 36.0714 12.4387 36.0714H13.3808C13.3928 36.0714 13.4026 36.0616 13.4026 36.0496V35.5961C13.4026 35.5841 13.3928 35.5744 13.3808 35.5744Z" fill="#BFBFBF"/>
</g>
<g style="mix-blend-mode:multiply">
<path d="M13.3739 35.5771H12.4459C12.4344 35.5771 12.425 35.5865 12.425 35.598V36.0424C12.425 36.0539 12.4344 36.0632 12.4459 36.0632H13.3739C13.3854 36.0632 13.3948 36.0539 13.3948 36.0424V35.598C13.3948 35.5865 13.3854 35.5771 13.3739 35.5771Z" fill="#B8B8B8"/>
</g>
<g style="mix-blend-mode:multiply">
<path d="M13.367 35.5806H12.455C12.4434 35.5806 12.4341 35.5899 12.4341 35.6015V36.0358C12.4341 36.0473 12.4434 36.0567 12.455 36.0567H13.367C13.3786 36.0567 13.3879 36.0473 13.3879 36.0358V35.6015C13.3879 35.5899 13.3786 35.5806 13.367 35.5806Z" fill="#B0B0B0"/>
</g>
<g style="mix-blend-mode:multiply">
<path d="M13.3603 35.584H12.4624C12.4514 35.584 12.4424 35.593 12.4424 35.6041V36.0292C12.4424 36.0403 12.4514 36.0492 12.4624 36.0492H13.3603C13.3714 36.0492 13.3803 36.0403 13.3803 36.0292V35.6041C13.3803 35.593 13.3714 35.584 13.3603 35.584Z" fill="#A9A9A9"/>
</g>
<g style="mix-blend-mode:multiply">
<path d="M13.3548 35.5874H12.4719C12.4609 35.5874 12.4519 35.5964 12.4519 35.6075V36.0226C12.4519 36.0337 12.4609 36.0426 12.4719 36.0426H13.3548C13.3659 36.0426 13.3748 36.0337 13.3748 36.0226V35.6075C13.3748 35.5964 13.3659 35.5874 13.3548 35.5874Z" fill="#A2A2A2"/>
</g>
<g style="mix-blend-mode:multiply">
<path d="M13.3472 35.5909H12.4803C12.4692 35.5909 12.4602 35.5998 12.4602 35.6109V36.0152C12.4602 36.0262 12.4692 36.0352 12.4803 36.0352H13.3472C13.3583 36.0352 13.3673 36.0262 13.3673 36.0152V35.6109C13.3673 35.5998 13.3583 35.5909 13.3472 35.5909Z" fill="#9B9B9B"/>
</g>
<g style="mix-blend-mode:multiply">
<path d="M13.341 35.5943H12.4882C12.4776 35.5943 12.469 35.6029 12.469 35.6135V36.0086C12.469 36.0192 12.4776 36.0278 12.4882 36.0278H13.341C13.3516 36.0278 13.3602 36.0192 13.3602 36.0086V35.6135C13.3602 35.6029 13.3516 35.5943 13.341 35.5943Z" fill="#949494"/>
</g>
<g style="mix-blend-mode:multiply">
<path d="M12.4965 35.5971H13.3342C13.3443 35.5971 13.3535 35.6054 13.3535 35.6163V36.0021C13.3535 36.0122 13.3451 36.0214 13.3342 36.0214H12.4965C12.4865 36.0214 12.4773 36.013 12.4773 36.0021V35.6163C12.4773 35.6062 12.4856 35.5971 12.4965 35.5971Z" fill="#8D8D8D"/>
</g>
<g style="mix-blend-mode:multiply">
<path d="M13.3274 35.6005H12.5047C12.4946 35.6005 12.4863 35.6087 12.4863 35.6189V35.9947C12.4863 36.0049 12.4946 36.0131 12.5047 36.0131H13.3274C13.3376 36.0131 13.3458 36.0049 13.3458 35.9947V35.6189C13.3458 35.6087 13.3376 35.6005 13.3274 35.6005Z" fill="#868686"/>
</g>
<g style="mix-blend-mode:multiply">
<path d="M13.3203 35.6039H12.5135C12.5033 35.6039 12.4951 35.6121 12.4951 35.6223V35.9881C12.4951 35.9983 12.5033 36.0065 12.5135 36.0065H13.3203C13.3305 36.0065 13.3387 35.9983 13.3387 35.9881V35.6223C13.3387 35.6121 13.3305 35.6039 13.3203 35.6039Z" fill="#7E7E7E"/>
</g>
<g style="mix-blend-mode:multiply">
<path d="M13.3143 35.6074H12.5217C12.512 35.6074 12.5042 35.6152 12.5042 35.6249V35.9815C12.5042 35.9912 12.512 35.9991 12.5217 35.9991H13.3143C13.324 35.9991 13.3319 35.9912 13.3319 35.9815V35.6249C13.3319 35.6152 13.324 35.6074 13.3143 35.6074Z" fill="#777777"/>
</g>
<g style="mix-blend-mode:multiply">
<path d="M13.3081 35.6108H12.5305C12.5208 35.6108 12.5129 35.6186 12.5129 35.6283V35.9741C12.5129 35.9838 12.5208 35.9917 12.5305 35.9917H13.3081C13.3178 35.9917 13.3256 35.9838 13.3256 35.9741V35.6283C13.3256 35.6186 13.3178 35.6108 13.3081 35.6108Z" fill="#707070"/>
</g>
<g style="mix-blend-mode:multiply">
<path d="M12.5379 35.6142H13.3005C13.3097 35.6142 13.3172 35.6217 13.3172 35.6309V35.9684C13.3172 35.9775 13.3097 35.9851 13.3005 35.9851H12.5379C12.5288 35.9851 12.5212 35.9775 12.5212 35.9684V35.6309C12.5212 35.6217 12.5288 35.6142 12.5379 35.6142Z" fill="#696969"/>
</g>
<path d="M13.3824 35.5607H12.396C12.384 35.5607 12.3743 35.5704 12.3743 35.5824V36.0334C12.3743 36.0454 12.384 36.0551 12.396 36.0551H13.3824C13.3944 36.0551 13.4041 36.0454 13.4041 36.0334V35.5824C13.4041 35.5704 13.3944 35.5607 13.3824 35.5607Z" fill="url(#paint24_linear_3985_38219)"/>
<path d="M13.3789 35.5614H12.3992C12.3872 35.5614 12.3774 35.5711 12.3774 35.5831V36.0191C12.3774 36.0311 12.3872 36.0408 12.3992 36.0408H13.3789C13.3909 36.0408 13.4006 36.0311 13.4006 36.0191V35.5831C13.4006 35.5711 13.3909 35.5614 13.3789 35.5614Z" fill="url(#paint25_linear_3985_38219)"/>
<path d="M13.3768 35.5634H12.4013C12.3897 35.5634 12.3804 35.5728 12.3804 35.5843V36.0069C12.3804 36.0185 12.3897 36.0278 12.4013 36.0278H13.3768C13.3883 36.0278 13.3977 36.0185 13.3977 36.0069V35.5843C13.3977 35.5728 13.3883 35.5634 13.3768 35.5634Z" fill="url(#paint26_linear_3985_38219)"/>
<path d="M13.3728 35.5641H12.4039C12.3924 35.5641 12.3831 35.5735 12.3831 35.585V35.9934C12.3831 36.005 12.3924 36.0143 12.4039 36.0143H13.3728C13.3843 36.0143 13.3937 36.005 13.3937 35.9934V35.585C13.3937 35.5735 13.3843 35.5641 13.3728 35.5641Z" fill="url(#paint27_linear_3985_38219)"/>
<path d="M13.3712 35.5655H12.4065C12.3954 35.5655 12.3865 35.5745 12.3865 35.5855V35.9806C12.3865 35.9917 12.3954 36.0007 12.4065 36.0007H13.3712C13.3823 36.0007 13.3913 35.9917 13.3913 35.9806V35.5855C13.3913 35.5745 13.3823 35.5655 13.3712 35.5655Z" fill="url(#paint28_linear_3985_38219)"/>
<path d="M13.3679 35.5662H12.4099C12.3989 35.5662 12.3899 35.5752 12.3899 35.5862V35.9663C12.3899 35.9773 12.3989 35.9863 12.4099 35.9863H13.3679C13.379 35.9863 13.388 35.9773 13.388 35.9663V35.5862C13.388 35.5752 13.379 35.5662 13.3679 35.5662Z" fill="url(#paint29_linear_3985_38219)"/>
<path d="M13.3664 35.5682H12.4125C12.4019 35.5682 12.3933 35.5768 12.3933 35.5875V35.9541C12.3933 35.9647 12.4019 35.9733 12.4125 35.9733H13.3664C13.377 35.9733 13.3856 35.9647 13.3856 35.9541V35.5875C13.3856 35.5768 13.377 35.5682 13.3664 35.5682Z" fill="url(#paint30_linear_3985_38219)"/>
<path d="M13.3616 35.5689H12.4145C12.4039 35.5689 12.3953 35.5775 12.3953 35.5881V35.9398C12.3953 35.9504 12.4039 35.959 12.4145 35.959H13.3616C13.3722 35.959 13.3808 35.9504 13.3808 35.9398V35.5881C13.3808 35.5775 13.3722 35.5689 13.3616 35.5689Z" fill="url(#paint31_linear_3985_38219)"/>
<path d="M13.36 35.571H12.4171C12.4069 35.571 12.3987 35.5792 12.3987 35.5894V35.9276C12.3987 35.9378 12.4069 35.946 12.4171 35.946H13.36C13.3702 35.946 13.3784 35.9378 13.3784 35.9276V35.5894C13.3784 35.5792 13.3702 35.571 13.36 35.571Z" fill="url(#paint32_linear_3985_38219)"/>
<path d="M13.357 35.5717H12.4207C12.4106 35.5717 12.4023 35.5799 12.4023 35.5901V35.9133C12.4023 35.9234 12.4106 35.9317 12.4207 35.9317H13.357C13.3672 35.9317 13.3754 35.9234 13.3754 35.9133V35.5901C13.3754 35.5799 13.3672 35.5717 13.357 35.5717Z" fill="url(#paint33_linear_3985_38219)"/>
<path d="M13.3554 35.5731H12.4233C12.4136 35.5731 12.4058 35.5809 12.4058 35.5906V35.9005C12.4058 35.9102 12.4136 35.918 12.4233 35.918H13.3554C13.3651 35.918 13.373 35.9102 13.373 35.9005V35.5906C13.373 35.5809 13.3651 35.5731 13.3554 35.5731Z" fill="url(#paint34_linear_3985_38219)"/>
<path d="M13.3523 35.5737H12.4252C12.4159 35.5737 12.4084 35.5812 12.4084 35.5904V35.8869C12.4084 35.8962 12.4159 35.9037 12.4252 35.9037H13.3523C13.3615 35.9037 13.369 35.8962 13.369 35.8869V35.5904C13.369 35.5812 13.3615 35.5737 13.3523 35.5737Z" fill="url(#paint35_linear_3985_38219)"/>
<path d="M13.3491 35.5758H12.4278C12.4186 35.5758 12.4111 35.5833 12.4111 35.5925V35.874C12.4111 35.8832 12.4186 35.8907 12.4278 35.8907H13.3491C13.3583 35.8907 13.3658 35.8832 13.3658 35.874V35.5925C13.3658 35.5833 13.3583 35.5758 13.3491 35.5758Z" fill="url(#paint36_linear_3985_38219)"/>
<path d="M13.3467 35.5765H12.4304C12.4217 35.5765 12.4146 35.5836 12.4146 35.5924V35.8605C12.4146 35.8692 12.4217 35.8763 12.4304 35.8763H13.3467C13.3554 35.8763 13.3625 35.8692 13.3625 35.8605V35.5924C13.3625 35.5836 13.3554 35.5765 13.3467 35.5765Z" fill="url(#paint37_linear_3985_38219)"/>
<path d="M13.3442 35.5779H12.4338C12.4251 35.5779 12.418 35.585 12.418 35.5937V35.8468C12.418 35.8556 12.4251 35.8627 12.4338 35.8627H13.3442C13.353 35.8627 13.3601 35.8556 13.3601 35.8468V35.5937C13.3601 35.585 13.353 35.5779 13.3442 35.5779Z" fill="url(#paint38_linear_3985_38219)"/>
<path d="M13.3413 35.5792H12.4359C12.4276 35.5792 12.4209 35.586 12.4209 35.5943V35.8348C12.4209 35.8431 12.4276 35.8498 12.4359 35.8498H13.3413C13.3496 35.8498 13.3564 35.8431 13.3564 35.8348V35.5943C13.3564 35.586 13.3496 35.5792 13.3413 35.5792Z" fill="url(#paint39_linear_3985_38219)"/>
<path d="M13.3382 35.5806H12.4386C12.4303 35.5806 12.4236 35.5873 12.4236 35.5956V35.8212C12.4236 35.8295 12.4303 35.8362 12.4386 35.8362H13.3382C13.3465 35.8362 13.3532 35.8295 13.3532 35.8212V35.5956C13.3532 35.5873 13.3465 35.5806 13.3382 35.5806Z" fill="url(#paint40_linear_3985_38219)"/>
<path d="M13.3357 35.5813H12.4412C12.4334 35.5813 12.427 35.5876 12.427 35.5955V35.8076C12.427 35.8155 12.4334 35.8218 12.4412 35.8218H13.3357C13.3436 35.8218 13.3499 35.8155 13.3499 35.8076V35.5955C13.3499 35.5876 13.3436 35.5813 13.3357 35.5813Z" fill="url(#paint41_linear_3985_38219)"/>
<path d="M13.3333 35.5834H12.4446C12.4368 35.5834 12.4304 35.5897 12.4304 35.5976V35.7947C12.4304 35.8025 12.4368 35.8089 12.4446 35.8089H13.3333C13.3411 35.8089 13.3475 35.8025 13.3475 35.7947V35.5976C13.3475 35.5897 13.3411 35.5834 13.3333 35.5834Z" fill="url(#paint42_linear_3985_38219)"/>
<path d="M13.3301 35.584H12.4465C12.4391 35.584 12.4331 35.59 12.4331 35.5974V35.7812C12.4331 35.7885 12.4391 35.7945 12.4465 35.7945H13.3301C13.3375 35.7945 13.3435 35.7885 13.3435 35.7812V35.5974C13.3435 35.59 13.3375 35.584 13.3301 35.584Z" fill="url(#paint43_linear_3985_38219)"/>
<path d="M13.3286 35.5854H12.4491C12.4421 35.5854 12.4365 35.591 12.4365 35.5979V35.7683C12.4365 35.7752 12.4421 35.7809 12.4491 35.7809H13.3286C13.3355 35.7809 13.3411 35.7752 13.3411 35.7683V35.5979C13.3411 35.591 13.3355 35.5854 13.3286 35.5854Z" fill="url(#paint44_linear_3985_38219)"/>
<path d="M13.3246 35.5868H12.4517C12.4448 35.5868 12.4392 35.5924 12.4392 35.5993V35.7547C12.4392 35.7616 12.4448 35.7672 12.4517 35.7672H13.3246C13.3315 35.7672 13.3371 35.7616 13.3371 35.7547V35.5993C13.3371 35.5924 13.3315 35.5868 13.3246 35.5868Z" fill="#DBDBDB"/>
<path opacity="0.5" d="M12.4553 35.6456C12.457 35.6706 13.2881 35.7174 13.324 35.6765C13.3591 35.6355 13.349 35.5929 13.243 35.5863C13.1369 35.5796 12.4503 35.5846 12.4553 35.6456Z" fill="white"/>
<path d="M29.7028 35.4745H28.5394C28.526 35.4745 28.5151 35.4854 28.5151 35.4988V36.1185C28.5151 36.1319 28.526 36.1427 28.5394 36.1427H29.7028C29.7162 36.1427 29.7271 36.1319 29.7271 36.1185V35.4988C29.7271 35.4854 29.7162 35.4745 29.7028 35.4745Z" fill="#5B5D60"/>
<g style="mix-blend-mode:multiply">
<path d="M28.6046 35.5433H29.6813C29.6955 35.5433 29.7063 35.555 29.7063 35.5684V36.1096C29.7063 36.1238 29.6946 36.1347 29.6813 36.1347H28.6046C28.5904 36.1347 28.5796 36.123 28.5796 36.1096V35.5684C28.5796 35.5542 28.5913 35.5433 28.6046 35.5433Z" fill="white"/>
</g>
<g style="mix-blend-mode:multiply">
<path d="M29.6753 35.5467H28.6137C28.5998 35.5467 28.5886 35.5579 28.5886 35.5718V36.103C28.5886 36.1168 28.5998 36.128 28.6137 36.128H29.6753C29.6891 36.128 29.7003 36.1168 29.7003 36.103V35.5718C29.7003 35.5579 29.6891 35.5467 29.6753 35.5467Z" fill="#F8F8F8"/>
</g>
<g style="mix-blend-mode:multiply">
<path d="M29.6685 35.5502H28.6211C28.6078 35.5502 28.5969 35.561 28.5969 35.5744V36.0964C28.5969 36.1098 28.6078 36.1206 28.6211 36.1206H29.6685C29.6819 36.1206 29.6927 36.1098 29.6927 36.0964V35.5744C29.6927 35.561 29.6819 35.5502 29.6685 35.5502Z" fill="#F1F1F1"/>
</g>
<g style="mix-blend-mode:multiply">
<path d="M29.6622 35.5536H28.6307C28.6173 35.5536 28.6064 35.5644 28.6064 35.5778V36.089C28.6064 36.1023 28.6173 36.1132 28.6307 36.1132H29.6622C29.6756 36.1132 29.6864 36.1023 29.6864 36.089V35.5778C29.6864 35.5644 29.6756 35.5536 29.6622 35.5536Z" fill="#EAEAEA"/>
</g>
<g style="mix-blend-mode:multiply">
<path d="M29.6554 35.5563H28.6381C28.6252 35.5563 28.6147 35.5668 28.6147 35.5797V36.0825C28.6147 36.0955 28.6252 36.1059 28.6381 36.1059H29.6554C29.6684 36.1059 29.6788 36.0955 29.6788 36.0825V35.5797C29.6788 35.5668 29.6684 35.5563 29.6554 35.5563Z" fill="#E2E2E2"/>
</g>
<g style="mix-blend-mode:multiply">
<path d="M28.6469 35.5598H29.6492C29.6617 35.5598 29.6726 35.5698 29.6726 35.5832V36.0759C29.6726 36.0885 29.6626 36.0993 29.6492 36.0993H28.6469C28.6344 36.0993 28.6235 36.0893 28.6235 36.0759V35.5832C28.6235 35.5706 28.6336 35.5598 28.6469 35.5598Z" fill="#DBDBDB"/>
</g>
<g style="mix-blend-mode:multiply">
<path d="M29.6425 35.5632H28.6544C28.6419 35.5632 28.6318 35.5733 28.6318 35.5858V36.0694C28.6318 36.0818 28.6419 36.0919 28.6544 36.0919H29.6425C29.6549 36.0919 29.665 36.0818 29.665 36.0694V35.5858C29.665 35.5733 29.6549 35.5632 29.6425 35.5632Z" fill="#D4D4D4"/>
</g>
<g style="mix-blend-mode:multiply">
<path d="M29.6356 35.5666H28.6634C28.651 35.5666 28.6409 35.5767 28.6409 35.5892V36.0619C28.6409 36.0744 28.651 36.0845 28.6634 36.0845H29.6356C29.6481 36.0845 29.6582 36.0744 29.6582 36.0619V35.5892C29.6582 35.5767 29.6481 35.5666 29.6356 35.5666Z" fill="#CDCDCD"/>
</g>
<g style="mix-blend-mode:multiply">
<path d="M29.6301 35.5701H28.6721C28.6601 35.5701 28.6504 35.5798 28.6504 35.5918V36.0553C28.6504 36.0673 28.6601 36.0771 28.6721 36.0771H29.6301C29.6421 36.0771 29.6518 36.0673 29.6518 36.0553V35.5918C29.6518 35.5798 29.6421 35.5701 29.6301 35.5701Z" fill="#C6C6C6"/>
</g>
<g style="mix-blend-mode:multiply">
<path d="M29.6233 35.5735H28.6811C28.6691 35.5735 28.6594 35.5832 28.6594 35.5952V36.0488C28.6594 36.0607 28.6691 36.0705 28.6811 36.0705H29.6233C29.6353 36.0705 29.645 36.0607 29.645 36.0488V35.5952C29.645 35.5832 29.6353 35.5735 29.6233 35.5735Z" fill="#BFBFBF"/>
</g>
<g style="mix-blend-mode:multiply">
<path d="M29.6165 35.5763H28.6886C28.6771 35.5763 28.6677 35.5856 28.6677 35.5971V36.0415C28.6677 36.053 28.6771 36.0624 28.6886 36.0624H29.6165C29.6281 36.0624 29.6374 36.053 29.6374 36.0415V35.5971C29.6374 35.5856 29.6281 35.5763 29.6165 35.5763Z" fill="#B8B8B8"/>
</g>
<g style="mix-blend-mode:multiply">
<path d="M29.6095 35.5797H28.6974C28.6859 35.5797 28.6765 35.589 28.6765 35.6006V36.0349C28.6765 36.0464 28.6859 36.0558 28.6974 36.0558H29.6095C29.621 36.0558 29.6303 36.0464 29.6303 36.0349V35.6006C29.6303 35.589 29.621 35.5797 29.6095 35.5797Z" fill="#B0B0B0"/>
</g>
<g style="mix-blend-mode:multiply">
<path d="M29.6027 35.5831H28.7049C28.6938 35.5831 28.6848 35.5921 28.6848 35.6032V36.0283C28.6848 36.0394 28.6938 36.0483 28.7049 36.0483H29.6027C29.6138 36.0483 29.6228 36.0394 29.6228 36.0283V35.6032C29.6228 35.5921 29.6138 35.5831 29.6027 35.5831Z" fill="#A9A9A9"/>
</g>
<g style="mix-blend-mode:multiply">
<path d="M29.5972 35.5866H28.7144C28.7033 35.5866 28.6943 35.5955 28.6943 35.6066V36.0217C28.6943 36.0328 28.7033 36.0418 28.7144 36.0418H29.5972C29.6083 36.0418 29.6173 36.0328 29.6173 36.0217V35.6066C29.6173 35.5955 29.6083 35.5866 29.5972 35.5866Z" fill="#A2A2A2"/>
</g>
<g style="mix-blend-mode:multiply">
<path d="M29.5897 35.59H28.7227C28.7116 35.59 28.7026 35.599 28.7026 35.61V36.0143C28.7026 36.0254 28.7116 36.0343 28.7227 36.0343H29.5897C29.6007 36.0343 29.6097 36.0254 29.6097 36.0143V35.61C29.6097 35.599 29.6007 35.59 29.5897 35.59Z" fill="#9B9B9B"/>
</g>
<g style="mix-blend-mode:multiply">
<path d="M29.5837 35.5934H28.7309C28.7203 35.5934 28.7117 35.602 28.7117 35.6126V36.0077C28.7117 36.0183 28.7203 36.0269 28.7309 36.0269H29.5837C29.5943 36.0269 29.6029 36.0183 29.6029 36.0077V35.6126C29.6029 35.602 29.5943 35.5934 29.5837 35.5934Z" fill="#949494"/>
</g>
<g style="mix-blend-mode:multiply">
<path d="M28.7389 35.5962H29.5767C29.5867 35.5962 29.5959 35.6045 29.5959 35.6154V36.0013C29.5959 36.0113 29.5875 36.0205 29.5767 36.0205H28.7389C28.7289 36.0205 28.7197 36.0121 28.7197 36.0013V35.6154C28.7197 35.6054 28.7281 35.5962 28.7389 35.5962Z" fill="#8D8D8D"/>
</g>
<g style="mix-blend-mode:multiply">
<path d="M29.5706 35.5996H28.7479C28.7377 35.5996 28.7295 35.6078 28.7295 35.618V35.9938C28.7295 36.004 28.7377 36.0122 28.7479 36.0122H29.5706C29.5807 36.0122 29.5889 36.004 29.5889 35.9938V35.618C29.5889 35.6078 29.5807 35.5996 29.5706 35.5996Z" fill="#868686"/>
</g>
<g style="mix-blend-mode:multiply">
<path d="M29.5635 35.603H28.7567C28.7465 35.603 28.7383 35.6113 28.7383 35.6214V35.9872C28.7383 35.9974 28.7465 36.0056 28.7567 36.0056H29.5635C29.5736 36.0056 29.5819 35.9974 29.5819 35.9872V35.6214C29.5819 35.6113 29.5736 35.603 29.5635 35.603Z" fill="#7E7E7E"/>
</g>
<g style="mix-blend-mode:multiply">
<path d="M29.5568 35.6065H28.7641C28.7544 35.6065 28.7466 35.6143 28.7466 35.624V35.9807C28.7466 35.9903 28.7544 35.9982 28.7641 35.9982H29.5568C29.5664 35.9982 29.5743 35.9903 29.5743 35.9807V35.624C29.5743 35.6143 29.5664 35.6065 29.5568 35.6065Z" fill="#777777"/>
</g>
<g style="mix-blend-mode:multiply">
<path d="M29.5508 35.6099H28.7732C28.7635 35.6099 28.7556 35.6178 28.7556 35.6274V35.9732C28.7556 35.9829 28.7635 35.9908 28.7732 35.9908H29.5508C29.5604 35.9908 29.5683 35.9829 29.5683 35.9732V35.6274C29.5683 35.6178 29.5604 35.6099 29.5508 35.6099Z" fill="#707070"/>
</g>
<g style="mix-blend-mode:multiply">
<path d="M29.5438 35.614H28.7804C28.7712 35.614 28.7637 35.6215 28.7637 35.6307V35.9682C28.7637 35.9774 28.7712 35.9849 28.7804 35.9849H29.5438C29.553 35.9849 29.5605 35.9774 29.5605 35.9682V35.6307C29.5605 35.6215 29.553 35.614 29.5438 35.614Z" fill="#696969"/>
</g>
<path d="M28.6391 35.5598H29.6247C29.6372 35.5598 29.6464 35.5698 29.6464 35.5815V36.0317C29.6464 36.0442 29.6364 36.0534 29.6247 36.0534H28.6391C28.6266 36.0534 28.6174 36.0434 28.6174 36.0317V35.5815C28.6174 35.569 28.6275 35.5598 28.6391 35.5598Z" fill="url(#paint45_linear_3985_38219)"/>
<path d="M29.6213 35.5603H28.6416C28.6296 35.5603 28.6199 35.57 28.6199 35.582V36.018C28.6199 36.03 28.6296 36.0397 28.6416 36.0397H29.6213C29.6333 36.0397 29.643 36.03 29.643 36.018V35.582C29.643 35.57 29.6333 35.5603 29.6213 35.5603Z" fill="url(#paint46_linear_3985_38219)"/>
<path d="M28.6437 35.5624H29.6184C29.6301 35.5624 29.6393 35.5715 29.6393 35.5832V36.0059C29.6393 36.0176 29.6301 36.0267 29.6184 36.0267H28.6437C28.632 36.0267 28.6228 36.0176 28.6228 36.0059V35.5832C28.6228 35.5715 28.632 35.5624 28.6437 35.5624Z" fill="url(#paint47_linear_3985_38219)"/>
<path d="M29.6152 35.563H28.6464C28.6348 35.563 28.6255 35.5724 28.6255 35.5839V35.9923C28.6255 36.0039 28.6348 36.0132 28.6464 36.0132H29.6152C29.6268 36.0132 29.6361 36.0039 29.6361 35.9923V35.5839C29.6361 35.5724 29.6268 35.563 29.6152 35.563Z" fill="url(#paint48_linear_3985_38219)"/>
<path d="M28.649 35.5644H29.6128C29.6237 35.5644 29.6329 35.5736 29.6329 35.5845V35.9787C29.6329 35.9895 29.6237 35.9987 29.6128 35.9987H28.649C28.6381 35.9987 28.6289 35.9895 28.6289 35.9787V35.5845C28.6289 35.5736 28.6381 35.5644 28.649 35.5644Z" fill="url(#paint49_linear_3985_38219)"/>
<path d="M29.6104 35.5651H28.6524C28.6413 35.5651 28.6323 35.5741 28.6323 35.5851V35.9652C28.6323 35.9762 28.6413 35.9852 28.6524 35.9852H29.6104C29.6215 35.9852 29.6304 35.9762 29.6304 35.9652V35.5851C29.6304 35.5741 29.6215 35.5651 29.6104 35.5651Z" fill="url(#paint50_linear_3985_38219)"/>
<path d="M28.655 35.5673H29.6088C29.6196 35.5673 29.628 35.5757 29.628 35.5865V35.9524C29.628 35.9632 29.6196 35.9716 29.6088 35.9716H28.655C28.6441 35.9716 28.6357 35.9632 28.6357 35.9524V35.5857C28.6357 35.5748 28.6441 35.5665 28.655 35.5665V35.5673Z" fill="url(#paint51_linear_3985_38219)"/>
<path d="M29.6043 35.5678H28.6571C28.6465 35.5678 28.6379 35.5764 28.6379 35.5871V35.9387C28.6379 35.9493 28.6465 35.9579 28.6571 35.9579H29.6043C29.6149 35.9579 29.6235 35.9493 29.6235 35.9387V35.5871C29.6235 35.5764 29.6149 35.5678 29.6043 35.5678Z" fill="url(#paint52_linear_3985_38219)"/>
<path d="M29.6027 35.5699H28.6597C28.6496 35.5699 28.6414 35.5781 28.6414 35.5883V35.9266C28.6414 35.9367 28.6496 35.9449 28.6597 35.9449H29.6027C29.6129 35.9449 29.6211 35.9367 29.6211 35.9266V35.5883C29.6211 35.5781 29.6129 35.5699 29.6027 35.5699Z" fill="url(#paint53_linear_3985_38219)"/>
<path d="M29.5994 35.5706H28.6632C28.653 35.5706 28.6448 35.5788 28.6448 35.589V35.9122C28.6448 35.9224 28.653 35.9306 28.6632 35.9306H29.5994C29.6096 35.9306 29.6178 35.9224 29.6178 35.9122V35.589C29.6178 35.5788 29.6096 35.5706 29.5994 35.5706Z" fill="url(#paint54_linear_3985_38219)"/>
<path d="M29.5979 35.572H28.6657C28.656 35.572 28.6482 35.5798 28.6482 35.5895V35.8994C28.6482 35.9091 28.656 35.9169 28.6657 35.9169H29.5979C29.6075 35.9169 29.6154 35.9091 29.6154 35.8994V35.5895C29.6154 35.5798 29.6075 35.572 29.5979 35.572Z" fill="url(#paint55_linear_3985_38219)"/>
<path d="M29.594 35.5727H28.6668C28.6576 35.5727 28.6501 35.5801 28.6501 35.5894V35.8859C28.6501 35.8951 28.6576 35.9026 28.6668 35.9026H29.594C29.6032 35.9026 29.6107 35.8951 29.6107 35.8859V35.5894C29.6107 35.5801 29.6032 35.5727 29.594 35.5727Z" fill="url(#paint56_linear_3985_38219)"/>
<path d="M29.5915 35.5747H28.6703C28.661 35.5747 28.6536 35.5822 28.6536 35.5914V35.8729C28.6536 35.8821 28.661 35.8896 28.6703 35.8896H29.5915C29.6008 35.8896 29.6082 35.8821 29.6082 35.8729V35.5914C29.6082 35.5822 29.6008 35.5747 29.5915 35.5747Z" fill="url(#paint57_linear_3985_38219)"/>
<path d="M29.5891 35.5754H28.6729C28.6641 35.5754 28.657 35.5825 28.657 35.5913V35.8594C28.657 35.8681 28.6641 35.8752 28.6729 35.8752H29.5891C29.5979 35.8752 29.605 35.8681 29.605 35.8594V35.5913C29.605 35.5825 29.5979 35.5754 29.5891 35.5754Z" fill="url(#paint58_linear_3985_38219)"/>
<path d="M29.5867 35.5768H28.6763C28.6675 35.5768 28.6604 35.5839 28.6604 35.5926V35.8457C28.6604 35.8545 28.6675 35.8616 28.6763 35.8616H29.5867C29.5954 35.8616 29.6025 35.8545 29.6025 35.8457V35.5926C29.6025 35.5839 29.5954 35.5768 29.5867 35.5768Z" fill="url(#paint59_linear_3985_38219)"/>
<path d="M29.5842 35.5781H28.6789C28.6705 35.5781 28.6638 35.5849 28.6638 35.5932V35.8337C28.6638 35.842 28.6705 35.8488 28.6789 35.8488H29.5842C29.5925 35.8488 29.5993 35.842 29.5993 35.8337V35.5932C29.5993 35.5849 29.5925 35.5781 29.5842 35.5781Z" fill="url(#paint60_linear_3985_38219)"/>
<path d="M29.5806 35.5795H28.681C28.6727 35.5795 28.666 35.5863 28.666 35.5946V35.8201C28.666 35.8284 28.6727 35.8351 28.681 35.8351H29.5806C29.5889 35.8351 29.5956 35.8284 29.5956 35.8201V35.5946C29.5956 35.5863 29.5889 35.5795 29.5806 35.5795Z" fill="url(#paint61_linear_3985_38219)"/>
<path d="M29.5782 35.5802H28.6836C28.6758 35.5802 28.6694 35.5866 28.6694 35.5944V35.8066C28.6694 35.8144 28.6758 35.8208 28.6836 35.8208H29.5782C29.586 35.8208 29.5924 35.8144 29.5924 35.8066V35.5944C29.5924 35.5866 29.586 35.5802 29.5782 35.5802Z" fill="url(#paint62_linear_3985_38219)"/>
<path d="M29.5757 35.5823H28.6871C28.6792 35.5823 28.6729 35.5886 28.6729 35.5965V35.7936C28.6729 35.8014 28.6792 35.8078 28.6871 35.8078H29.5757C29.5836 35.8078 29.5899 35.8014 29.5899 35.7936V35.5965C29.5899 35.5886 29.5836 35.5823 29.5757 35.5823Z" fill="url(#paint63_linear_3985_38219)"/>
<path d="M29.5733 35.583H28.6896C28.6823 35.583 28.6763 35.5889 28.6763 35.5963V35.7801C28.6763 35.7875 28.6823 35.7934 28.6896 35.7934H29.5733C29.5807 35.7934 29.5867 35.7875 29.5867 35.7801V35.5963C29.5867 35.5889 29.5807 35.583 29.5733 35.583Z" fill="url(#paint64_linear_3985_38219)"/>
<path d="M29.571 35.5843H28.6915C28.6846 35.5843 28.679 35.5899 28.679 35.5969V35.7672C28.679 35.7742 28.6846 35.7798 28.6915 35.7798H29.571C29.5779 35.7798 29.5835 35.7742 29.5835 35.7672V35.5969C29.5835 35.5899 29.5779 35.5843 29.571 35.5843Z" fill="url(#paint65_linear_3985_38219)"/>
<path d="M29.5684 35.5857H28.6956C28.6887 35.5857 28.6831 35.5913 28.6831 35.5982V35.7536C28.6831 35.7605 28.6887 35.7661 28.6956 35.7661H29.5684C29.5754 35.7661 29.581 35.7605 29.581 35.7536V35.5982C29.581 35.5913 29.5754 35.5857 29.5684 35.5857Z" fill="#DBDBDB"/>
<path opacity="0.5" d="M28.697 35.6447C28.6987 35.6697 29.5298 35.7165 29.5657 35.6756C29.6008 35.6347 29.5907 35.5921 29.4847 35.5854C29.3786 35.5787 28.692 35.5837 28.697 35.6447Z" fill="white"/>
<path d="M34.6058 20.9935L33.8299 20.9935L33.6762 18.6323C33.6512 18.2464 33.3572 17.909 32.9237 17.7687L31.9014 17.5331L33.9452 17.5432C34.3102 17.5432 34.6058 17.7887 34.6058 18.0919V20.9935Z" fill="url(#paint66_linear_3985_38219)"/>
<path d="M7.47583 20.9935H8.25176L8.40544 18.6323C8.4305 18.2464 8.7245 17.909 9.15799 17.7687L10.1803 17.5331L8.1365 17.5432C7.7715 17.5432 7.47583 17.7887 7.47583 18.0919L7.47583 20.9935Z" fill="url(#paint67_linear_3985_38219)"/>
<path d="M8.96217 20.2649C9.0791 20.361 8.77173 23.8464 8.63893 23.9174C8.50696 23.9884 7.63331 24.1295 7.4245 23.3812C7.2157 22.6336 7.10962 20.5915 7.21152 20.523C7.31258 20.4545 8.69656 20.0461 8.96217 20.2649Z" fill="#3D4042"/>
<path d="M8.82969 20.2758C8.9508 20.3694 8.63926 23.8573 8.50646 23.9283C8.37449 23.9993 7.50084 24.1405 7.29203 23.3921C7.08322 22.6446 6.88527 20.9933 7.07905 20.5339C7.22438 20.189 8.50479 20.0244 8.82969 20.2758Z" fill="#212426"/>
<g style="mix-blend-mode:soft-light" opacity="0.12">
<path d="M8.34742 20.229C8.44598 20.3142 8.25388 23.8807 8.19458 23.9099C8.13527 23.9391 7.41781 23.9717 7.29169 23.3929C7.21819 23.0571 6.89245 20.9941 7.07871 20.5347C7.21151 20.2073 8.25722 20.1514 8.34742 20.2299V20.229Z" fill="#CCCAC7"/>
</g>
<g style="mix-blend-mode:soft-light" opacity="0.22">
<path d="M8.26795 20.2712C8.36484 20.3514 8.17023 23.7667 8.11427 23.8001C8.05831 23.8335 7.41267 23.8719 7.29574 23.3424C7.22558 23.0292 6.91822 20.9728 7.0886 20.5594C7.21138 20.262 8.17608 20.1952 8.26879 20.2721L8.26795 20.2712Z" fill="#CAC7C5"/>
</g>
<g style="mix-blend-mode:soft-light" opacity="0.32">
<path d="M8.18945 20.3138C8.28467 20.3889 8.08839 23.6538 8.03493 23.6898C7.97814 23.729 7.40935 23.7716 7.29993 23.2922C7.23395 23.0015 6.94496 20.9519 7.09864 20.5835C7.21056 20.3171 8.09424 20.2386 8.18945 20.3138Z" fill="#C8C5C4"/>
</g>
<g style="mix-blend-mode:soft-light" opacity="0.42">
<path d="M8.10971 20.3555C8.20325 20.4256 8.00447 23.5394 7.95435 23.5795C7.89839 23.6237 7.40477 23.6705 7.30371 23.2412C7.24107 22.9739 6.96962 20.9301 7.10827 20.6069C7.20933 20.3705 8.01199 20.2803 8.10971 20.3546V20.3555Z" fill="#C5C2C2"/>
</g>
<g style="mix-blend-mode:soft-light" opacity="0.51">
<path d="M8.0312 20.3982C8.12224 20.4642 7.92262 23.4268 7.87501 23.4702C7.81988 23.5203 7.4006 23.5713 7.30872 23.1921C7.24942 22.9473 6.99635 20.9102 7.11912 20.6329C7.21016 20.4275 7.93097 20.3256 8.03203 20.3991L8.0312 20.3982Z" fill="#C3C0C0"/>
</g>
<g style="mix-blend-mode:soft-light" opacity="0.61">
<path d="M7.95273 20.4405C8.0421 20.5015 7.84081 23.3137 7.79571 23.3597C7.74225 23.4148 7.3973 23.4699 7.31294 23.1408C7.25615 22.9187 7.02228 20.8882 7.12919 20.656C7.20938 20.4815 7.84916 20.3679 7.95273 20.4397V20.4405Z" fill="#C1BDBF"/>
</g>
<g style="mix-blend-mode:soft-light" opacity="0.71">
<path d="M7.87376 20.4837C7.96062 20.5405 7.75766 23.2015 7.7159 23.2508C7.66411 23.3118 7.39266 23.3711 7.31749 23.0921C7.26404 22.8933 7.04855 20.8687 7.13959 20.6824C7.20975 20.538 7.76685 20.4143 7.87376 20.4837Z" fill="#BFBBBD"/>
</g>
<g style="mix-blend-mode:soft-light" opacity="0.81">
<path d="M7.79545 20.5259C7.8798 20.5777 7.67684 23.0884 7.63675 23.141C7.58664 23.2078 7.38785 23.2713 7.3227 23.0425C7.27259 22.8662 7.07631 20.8492 7.15065 20.7072C7.21078 20.5936 7.68603 20.4583 7.79628 20.5259H7.79545Z" fill="#BCB8BB"/>
</g>
<g style="mix-blend-mode:soft-light" opacity="0.9">
<path d="M7.7169 20.568C7.79875 20.6156 7.59495 22.9751 7.55737 23.0311C7.50893 23.1038 7.38281 23.1714 7.32685 22.9918C7.27924 22.839 7.10217 20.8278 7.16063 20.7317C7.21075 20.649 7.60331 20.5029 7.7169 20.568Z" fill="#BAB6BA"/>
</g>
<g style="mix-blend-mode:soft-light">
<path d="M7.63702 20.6115C7.7172 20.655 7.51174 22.8633 7.47666 22.9218C7.42988 23.0003 7.37643 23.0721 7.33049 22.9427C7.28455 22.8132 7.1292 20.8087 7.17013 20.7569C7.21105 20.7051 7.52092 20.5472 7.63702 20.6115Z" fill="#B8B3B8"/>
</g>
<path d="M33.1649 20.2649C33.048 20.361 33.3554 23.8464 33.4882 23.9174C33.6201 23.9884 34.4938 24.1295 34.7026 23.3812C34.9114 22.6336 35.0175 20.5915 34.9156 20.523C34.8145 20.4545 33.4305 20.0461 33.1649 20.2649Z" fill="#3D4042"/>
<path d="M33.2989 20.2758C33.1778 20.3694 33.4893 23.8573 33.6221 23.9283C33.7541 23.9993 34.6278 24.1405 34.8366 23.3921C35.0454 22.6446 35.2433 20.9933 35.0495 20.5339C34.9042 20.189 33.6238 20.0244 33.2989 20.2758Z" fill="#212426"/>
<g style="mix-blend-mode:soft-light" opacity="0.12">
<path d="M33.7806 20.229C33.682 20.3142 33.8741 23.8807 33.9334 23.9099C33.9927 23.9391 34.7102 23.9717 34.8363 23.3929C34.9098 23.0571 35.2355 20.9941 35.0493 20.5347C34.9165 20.2073 33.8708 20.1514 33.7806 20.2299V20.229Z" fill="#CCCAC7"/>
</g>
<g style="mix-blend-mode:soft-light" opacity="0.22">
<path d="M33.8584 20.2712C33.7615 20.3514 33.9561 23.7667 34.0121 23.8001C34.068 23.8335 34.7137 23.8719 34.8306 23.3424C34.9008 23.0292 35.2081 20.9728 35.0378 20.5594C34.915 20.262 33.9503 20.1952 33.8576 20.2721L33.8584 20.2712Z" fill="#CAC7C5"/>
</g>
<g style="mix-blend-mode:soft-light" opacity="0.32">
<path d="M33.9378 20.3138C33.8426 20.3889 34.0389 23.6539 34.0923 23.6898C34.1491 23.729 34.7179 23.7716 34.8273 23.2922C34.8933 23.0015 35.1823 20.9519 35.0286 20.5835C34.9158 20.3171 34.033 20.2386 33.9378 20.3138Z" fill="#C8C5C4"/>
</g>
<g style="mix-blend-mode:soft-light" opacity="0.42">
<path d="M34.0171 20.3555C33.9236 20.4256 34.1224 23.5394 34.1725 23.5795C34.2284 23.6237 34.7221 23.6705 34.8231 23.2412C34.8858 22.9739 35.1572 20.9301 35.0186 20.6069C34.9175 20.3705 34.1148 20.2803 34.0171 20.3546V20.3555Z" fill="#C5C2C2"/>
</g>
<g style="mix-blend-mode:soft-light" opacity="0.51">
<path d="M34.0955 20.3982C34.0045 20.4642 34.2041 23.4268 34.2517 23.4702C34.3068 23.5203 34.7261 23.5713 34.818 23.1921C34.8773 22.9474 35.1304 20.9102 35.0076 20.6329C34.9165 20.4275 34.1957 20.3256 34.0947 20.3991L34.0955 20.3982Z" fill="#C3C0C0"/>
</g>
<g style="mix-blend-mode:soft-light" opacity="0.61">
<path d="M34.1745 20.4405C34.0851 20.5015 34.2864 23.3137 34.3315 23.3597C34.3849 23.4148 34.7299 23.4699 34.8143 23.1408C34.8711 22.9187 35.1049 20.8882 34.998 20.656C34.9178 20.4815 34.278 20.3679 34.1745 20.4397V20.4405Z" fill="#C1BDBF"/>
</g>
<g style="mix-blend-mode:soft-light" opacity="0.71">
<path d="M34.2528 20.4837C34.166 20.5405 34.3689 23.2015 34.4107 23.2508C34.4625 23.3118 34.7339 23.3711 34.8091 23.0921C34.8626 22.8933 35.078 20.8687 34.987 20.6825C34.9168 20.538 34.3598 20.4143 34.2528 20.4837Z" fill="#BFBBBD"/>
</g>
<g style="mix-blend-mode:soft-light" opacity="0.81">
<path d="M34.3321 20.5259C34.2477 20.5777 34.4507 23.0884 34.4908 23.141C34.5409 23.2079 34.7397 23.2713 34.8048 23.0425C34.8549 22.8662 35.0512 20.8492 34.9769 20.7072C34.9168 20.5936 34.4415 20.4583 34.3313 20.5259H34.3321Z" fill="#BCB8BB"/>
</g>
<g style="mix-blend-mode:soft-light" opacity="0.9">
<path d="M34.4113 20.568C34.3295 20.6156 34.5333 22.9751 34.5708 23.0311C34.6193 23.1038 34.7454 23.1714 34.8014 22.9919C34.849 22.839 35.026 20.8278 34.9676 20.7317C34.9175 20.649 34.5249 20.5029 34.4113 20.568Z" fill="#BAB6BA"/>
</g>
<g style="mix-blend-mode:soft-light">
<path d="M34.4896 20.6115C34.4094 20.655 34.6149 22.8633 34.65 22.9218C34.6967 23.0003 34.7502 23.0721 34.7961 22.9427C34.8421 22.8132 34.9974 20.8087 34.9565 20.7569C34.9156 20.7051 34.6057 20.5472 34.4896 20.6115Z" fill="#B8B3B8"/>
</g>
<mask id="mask0_3985_38219" style="mask-type:luminance" maskUnits="userSpaceOnUse" x="10" y="5" width="22" height="23">
<path d="M30.6759 26.8043C30.6341 27.0666 30.417 27.2695 30.1405 27.3055C28.9227 27.4625 25.4306 26.9655 20.9997 26.9655C16.5688 26.9655 13.0492 27.465 11.8564 27.3071C11.5808 27.2704 11.3653 27.0683 11.3236 26.8068C11.1006 25.3919 10.4165 20.9076 10.4165 19.0684C10.4165 17.4247 10.7581 8.91283 10.9302 7.11458C10.9861 6.52741 11.463 6.05634 12.0795 5.98367C13.5336 5.81162 16.4987 5.54768 20.9997 5.54768C25.5008 5.54768 28.4132 5.8208 29.9434 5.99203C30.5673 6.06219 31.0517 6.53743 31.1044 7.13212C31.2656 8.93789 31.5821 17.4297 31.5821 19.0684C31.5821 20.9059 30.8989 25.3878 30.675 26.8043H30.6759Z" fill="white"/>
</mask>
<g mask="url(#mask0_3985_38219)">
<g style="mix-blend-mode:multiply">
<path d="M10.7095 3.49303L10.8189 7.78445L13.9669 16.6947L13.9669 19.9646L19.2372 19.9646L19.8269 22.4803H22.0477L22.5088 19.9646L27.8752 19.9646L27.8752 16.7365L31.1484 7.62241L31.1484 3.49303L10.7095 3.49303ZM24.1016 19.1261L17.6035 19.1261V17.5333L24.1016 17.5333V19.1261Z" fill="#CDCDCE"/>
<path d="M31.8331 28.5513L9.86816 28.5513L9.86816 19.9635L19.237 19.9635L19.8258 22.4792L22.0467 22.4792L22.5077 19.9635L31.8331 19.9635L31.8331 28.5513Z" fill="#B0B0B3"/>
<path d="M30.536 19.9635L26.9829 19.9635L27.4239 16.6284C27.4598 16.3595 27.6887 16.159 27.9593 16.159L29.5588 16.159C29.8302 16.159 30.0591 16.3595 30.0941 16.6284L30.5351 19.9635H30.536Z" fill="#B0B0B3"/>
<path d="M26.5316 19.9635L22.9785 19.9635L23.4195 16.6284C23.4554 16.3595 23.6843 16.159 23.9549 16.159L25.5544 16.159C25.8258 16.159 26.0547 16.3595 26.0898 16.6284L26.5308 19.9635H26.5316Z" fill="#B0B0B3"/>
<path d="M18.7765 19.9635L15.2234 19.9635L15.6644 16.6284C15.7003 16.3595 15.9292 16.159 16.1998 16.159L17.7992 16.159C18.0707 16.159 18.2995 16.3595 18.3346 16.6284L18.7756 19.9635H18.7765Z" fill="#B0B0B3"/>
<path d="M14.7721 19.9635L11.219 19.9635L11.66 16.6284C11.6959 16.3595 11.9248 16.159 12.1962 16.159L13.7957 16.159C14.0671 16.159 14.296 16.3595 14.3319 16.6284L14.7729 19.9635H14.7721Z" fill="#B0B0B3"/>
</g>
<g style="mix-blend-mode:multiply">
<path d="M27.6683 23.4097C27.6249 23.0873 27.3501 22.8468 27.0252 22.8468H26.5617V22.633C26.8415 22.5436 27.0469 22.2847 27.0469 21.9765C27.0469 21.5956 26.7354 21.2841 26.3545 21.2841H24.8294C24.4485 21.2841 24.137 21.5956 24.137 21.9765C24.137 22.2847 24.3424 22.5444 24.6223 22.633V22.8468H24.1587C23.8338 22.8468 23.559 23.0873 23.5156 23.4097L22.9785 27.4172L28.2054 27.4172L27.6683 23.4097ZM24.8904 22.668H26.2936V22.8468H24.8904V22.668Z" fill="#B0B0B3"/>
</g>
<g style="mix-blend-mode:multiply">
<path d="M25.5914 31.325C23.9668 31.325 22.6455 30.0037 22.6455 28.3791C22.6455 26.7546 23.9668 25.4333 25.5914 25.4333C27.2159 25.4333 28.5372 26.7546 28.5372 28.3791C28.5372 30.0037 27.2159 31.325 25.5914 31.325ZM25.5914 25.9369C24.2441 25.9369 23.1483 27.0327 23.1483 28.3791C23.1483 29.7255 24.2441 30.8222 25.5914 30.8222C26.9386 30.8222 28.0336 29.7264 28.0336 28.3791C28.0336 27.0319 26.9378 25.9369 25.5914 25.9369Z" fill="#B0B0B3"/>
</g>
<g style="mix-blend-mode:multiply">
<path d="M24.1006 5.97914L17.6025 5.97914V4.38635L24.1006 4.38635V5.97914Z" fill="#CDCDCE"/>
<path d="M31.8328 14.4747L9.86792 14.4747L9.86792 11.893L19.2367 11.893L19.8255 12.6488L22.0464 12.6488L22.5075 11.893L31.8328 11.893L31.8328 14.4747Z" fill="#B0B0B3"/>
<path d="M30.5357 11.8985L26.9827 11.8985L27.4237 8.56339C27.4596 8.29445 27.6884 8.09399 27.959 8.09399H29.5585C29.83 8.09399 30.0588 8.29445 30.0939 8.56339L30.5349 11.8985H30.5357Z" fill="#B0B0B3"/>
<path d="M26.5313 11.8985L22.9783 11.8985L23.4193 8.56339C23.4552 8.29445 23.684 8.09399 23.9547 8.09399H25.5541C25.8256 8.09399 26.0544 8.29445 26.0895 8.56339L26.5305 11.8985H26.5313Z" fill="#B0B0B3"/>
<path d="M18.7762 11.8985L15.2231 11.8985L15.6641 8.56339C15.7001 8.29445 15.9289 8.09399 16.1995 8.09399H17.799C18.0704 8.09399 18.2993 8.29445 18.3344 8.56339L18.7754 11.8985H18.7762Z" fill="#B0B0B3"/>
<path d="M14.7718 11.8985L11.2188 11.8985L11.6598 8.56339C11.6957 8.29445 11.9245 8.09399 12.196 8.09399H13.7954C14.0669 8.09399 14.2957 8.29445 14.3317 8.56339L14.7727 11.8985H14.7718Z" fill="#B0B0B3"/>
</g>
</g>
<mask id="mask1_3985_38219" style="mask-type:luminance" maskUnits="userSpaceOnUse" x="10" y="5" width="22" height="23">
<path d="M30.6759 26.9595C30.6341 27.2218 30.417 27.4247 30.1405 27.4607C28.9227 27.6177 25.4306 27.1207 20.9997 27.1207C16.5688 27.1207 13.0492 27.6202 11.8564 27.4623C11.5808 27.4256 11.3653 27.2235 11.3236 26.962C11.1006 25.5471 10.4165 21.0628 10.4165 19.2236C10.4165 17.5799 10.7581 9.06803 10.9302 7.26978C10.9861 6.68261 11.463 6.21154 12.0795 6.13888C13.5336 5.96682 16.4987 5.70288 20.9997 5.70288C25.5008 5.70288 28.4132 5.97601 29.9434 6.14723C30.5673 6.21739 31.0517 6.69263 31.1044 7.28732C31.2656 9.09309 31.5821 17.5849 31.5821 19.2236C31.5821 21.0611 30.8989 25.543 30.675 26.9595H30.6759Z" fill="white"/>
</mask>
<g mask="url(#mask1_3985_38219)">
<path style="mix-blend-mode:hard-light" opacity="0.5" d="M20.7779 21.6109C25.5515 16.8373 25.5515 9.09775 20.7779 4.32414C16.0042 -0.449483 8.26468 -0.449483 3.49106 4.32414C-1.28256 9.09775 -1.28256 16.8373 3.49106 21.6109C8.26468 26.3846 16.0042 26.3846 20.7779 21.6109Z" fill="url(#paint68_radial_3985_38219)"/>
<path style="mix-blend-mode:soft-light" opacity="0.5" d="M30.6834 4.90261L25.6111 4.90261L25.6111 31.4772L30.6834 31.4772L30.6834 4.90261Z" fill="url(#paint69_linear_3985_38219)"/>
<path style="mix-blend-mode:soft-light" opacity="0.5" d="M17.9311 3.3252L9.87866 3.3252L9.87866 29.8998L17.9311 29.8998L17.9311 3.3252Z" fill="url(#paint70_linear_3985_38219)"/>
<path style="mix-blend-mode:hard-light" opacity="0.5" d="M32.072 19.3243C32.072 24.2271 31.773 28.2011 31.4047 28.2011C31.0363 28.2011 30.7373 24.2271 30.7373 19.3243C30.7373 14.4215 31.0363 5.71501 31.4047 5.71501C31.773 5.71501 32.072 14.4223 32.072 19.3243Z" fill="url(#paint71_radial_3985_38219)"/>
<g style="mix-blend-mode:soft-light">
<path d="M11.8561 27.4612C11.8561 27.4612 10.0027 11.7162 13.9667 8.07964C17.9308 4.44221 30.79 7.05481 30.7365 5.9782C30.6831 4.90242 11.7835 2.7801 10.1723 4.90242C8.56113 7.02474 9.0013 27.8312 11.8561 27.4612Z" fill="#9E9FA3"/>
</g>
<path style="mix-blend-mode:hard-light" opacity="0.5" d="M11.4077 17.8694C11.4077 20.9146 11.1087 23.3836 10.7403 23.3836C10.372 23.3836 10.073 20.9146 10.073 17.8694C10.073 14.8241 10.372 7.62274 10.7403 7.62274C11.1087 7.62274 11.4077 14.8241 11.4077 17.8694Z" fill="url(#paint72_radial_3985_38219)"/>
</g>
<path d="M20.8746 31.7653C20.4937 31.7653 20.1838 31.4554 20.1838 31.0746C20.1838 30.6937 20.4937 30.3838 20.8746 30.3838C21.2554 30.3838 21.5661 30.6937 21.5661 31.0746C21.5661 31.4554 21.2563 31.7653 20.8746 31.7653ZM20.8746 30.4239C20.5163 30.4239 20.2248 30.7154 20.2248 31.0746C20.2248 31.4337 20.5163 31.7252 20.8746 31.7252C21.2329 31.7252 21.5252 31.4337 21.5252 31.0746C21.5252 30.7154 21.2337 30.4239 20.8746 30.4239Z" fill="url(#paint73_linear_3985_38219)"/>
<path d="M24.0578 33.5159L17.8837 33.5159C17.4786 33.5159 17.1504 33.1877 17.1504 32.7826L24.7911 32.7826C24.7911 33.1877 24.4628 33.5159 24.0578 33.5159Z" fill="url(#paint74_linear_3985_38219)"/>
<path style="mix-blend-mode:multiply" d="M11.607 4.95367C10.7141 5.10985 10.0284 5.84235 9.939 6.75359C9.65503 9.646 9.09375 20.4205 9.09375 23.0164L9.09375 34.7055C9.09375 35.7988 9.96406 36.6933 11.0565 36.7225C11.2319 36.7267 11.4157 36.7317 11.607 36.7367L11.607 4.95367Z" fill="url(#paint75_linear_3985_38219)"/>
<rect x="8.83032" y="0.109875" width="25.0021" height="10.5009" fill="#019646"/>
<path d="M11.9738 8V2.18182H15.8261V3.19602H13.2039V4.58239H15.5704V5.59659H13.2039V8H11.9738ZM16.6535 8V2.18182H18.9489C19.3883 2.18182 19.7633 2.26042 20.0739 2.41761C20.3864 2.57292 20.6241 2.79356 20.787 3.07955C20.9518 3.36364 21.0341 3.69792 21.0341 4.08239C21.0341 4.46875 20.9508 4.80114 20.7841 5.07955C20.6175 5.35606 20.376 5.56818 20.0597 5.71591C19.7453 5.86364 19.3646 5.9375 18.9177 5.9375H17.3807V4.94886H18.7188C18.9537 4.94886 19.1487 4.91667 19.304 4.85227C19.4593 4.78788 19.5749 4.69129 19.6506 4.5625C19.7283 4.43371 19.7671 4.27367 19.7671 4.08239C19.7671 3.8892 19.7283 3.72633 19.6506 3.59375C19.5749 3.46117 19.4584 3.3608 19.3012 3.29261C19.1459 3.22254 18.9499 3.1875 18.7131 3.1875H17.8836V8H16.6535ZM19.7955 5.35227L21.2415 8H19.8836L18.4688 5.35227H19.7955ZM21.9035 8V2.18182H25.8239V3.19602H23.1336V4.58239H25.6222V5.59659H23.1336V6.9858H25.8353V8H21.9035ZM26.8019 8V2.18182H30.7224V3.19602H28.032V4.58239H30.5207V5.59659H28.032V6.9858H30.7337V8H26.8019Z" fill="white"/>
<defs>
<linearGradient id="paint0_linear_3985_38219" x1="10.6615" y1="18.3355" x2="7.98453" y2="18.3355" gradientUnits="userSpaceOnUse">
<stop/>
<stop offset="1" stop-color="#272725"/>
</linearGradient>
<linearGradient id="paint1_linear_3985_38219" x1="31.4203" y1="0.743872" x2="34.0972" y2="0.743872" gradientUnits="userSpaceOnUse">
<stop/>
<stop offset="1" stop-color="#272725"/>
</linearGradient>
<linearGradient id="paint2_linear_3985_38219" x1="29.865" y1="33.098" x2="29.865" y2="39.9285" gradientUnits="userSpaceOnUse">
<stop/>
<stop offset="0.58" stop-color="#010101"/>
<stop offset="0.79" stop-color="#080808"/>
<stop offset="0.94" stop-color="#141414"/>
<stop offset="1" stop-color="#1C1C1C"/>
</linearGradient>
<linearGradient id="paint3_linear_3985_38219" x1="12.1797" y1="0.744421" x2="12.1797" y2="0.744421" gradientUnits="userSpaceOnUse">
<stop/>
<stop offset="0.58" stop-color="#010101"/>
<stop offset="0.79" stop-color="#080808"/>
<stop offset="0.94" stop-color="#141414"/>
<stop offset="1" stop-color="#1C1C1C"/>
</linearGradient>
<linearGradient id="paint4_linear_3985_38219" x1="21.0415" y1="36.8385" x2="21.0415" y2="4.42064" gradientUnits="userSpaceOnUse">
<stop stop-color="#4B8927"/>
<stop offset="0.56" stop-color="#D0FF7C"/>
<stop offset="1" stop-color="#728100"/>
</linearGradient>
<linearGradient id="paint5_linear_3985_38219" x1="20.9996" y1="29.0457" x2="20.9996" y2="5.35098" gradientUnits="userSpaceOnUse">
<stop/>
<stop offset="1" stop-color="#272725"/>
</linearGradient>
<linearGradient id="paint6_linear_3985_38219" x1="10.789" y1="6.46811" x2="31.187" y2="26.7759" gradientUnits="userSpaceOnUse">
<stop stop-color="white"/>
<stop offset="0.15" stop-color="#F3F3F3"/>
<stop offset="0.42" stop-color="#D5D5D5"/>
<stop offset="0.77" stop-color="#A4A4A4"/>
<stop offset="1" stop-color="#808080"/>
</linearGradient>
<linearGradient id="paint7_linear_3985_38219" x1="20.9997" y1="4.6034" x2="20.9997" y2="36.9461" gradientUnits="userSpaceOnUse">
<stop/>
<stop offset="1" stop-color="#272725"/>
</linearGradient>
<linearGradient id="paint8_linear_3985_38219" x1="21.0337" y1="4.14382" x2="21.0337" y2="36.4865" gradientUnits="userSpaceOnUse">
<stop/>
<stop offset="1" stop-color="#272725"/>
</linearGradient>
<linearGradient id="paint9_linear_3985_38219" x1="9.18994" y1="32.3825" x2="13.9666" y2="32.3825" gradientUnits="userSpaceOnUse">
<stop stop-color="#959593"/>
<stop offset="0.46" stop-color="#C1C1C0"/>
<stop offset="0.73" stop-color="#D7D7D6"/>
<stop offset="0.84" stop-color="#D4D4D3"/>
<stop offset="0.9" stop-color="#CDCDCB"/>
<stop offset="0.94" stop-color="#C0C0BE"/>
<stop offset="0.98" stop-color="#ADADAB"/>
<stop offset="1" stop-color="#A2A2A0"/>
</linearGradient>
<linearGradient id="paint10_linear_3985_38219" x1="9.44897" y1="32.3872" x2="13.6786" y2="32.3872" gradientUnits="userSpaceOnUse">
<stop stop-color="#959593"/>
<stop offset="0.07" stop-color="#ABABA9"/>
<stop offset="0.17" stop-color="#C4C4C2"/>
<stop offset="0.27" stop-color="#D5D5D4"/>
<stop offset="0.37" stop-color="#E0E0DF"/>
<stop offset="0.49" stop-color="#E4E4E3"/>
<stop offset="0.69" stop-color="#E1E1E0"/>
<stop offset="0.79" stop-color="#DADAD8"/>
<stop offset="0.87" stop-color="#CCCCCB"/>
<stop offset="0.94" stop-color="#BABAB8"/>
<stop offset="1" stop-color="#A2A2A0"/>
</linearGradient>
<linearGradient id="paint11_linear_3985_38219" x1="12.0807" y1="32.738" x2="13.0437" y2="32.738" gradientUnits="userSpaceOnUse">
<stop stop-color="white"/>
<stop offset="1" stop-color="#1C1C1B"/>
</linearGradient>
<linearGradient id="paint12_linear_3985_38219" x1="12.2663" y1="0.743996" x2="12.8584" y2="0.743996" gradientUnits="userSpaceOnUse">
<stop stop-color="white"/>
<stop offset="1" stop-color="#1C1C1B"/>
</linearGradient>
<linearGradient id="paint13_linear_3985_38219" x1="10.1719" y1="32.5165" x2="11.8373" y2="32.5165" gradientUnits="userSpaceOnUse">
<stop stop-color="white"/>
<stop offset="1" stop-color="#1C1C1B"/>
</linearGradient>
<linearGradient id="paint14_linear_3985_38219" x1="9.40967" y1="32.0453" x2="10.1714" y2="32.0453" gradientUnits="userSpaceOnUse">
<stop stop-color="#C10000"/>
<stop offset="1" stop-color="#FDA101"/>
</linearGradient>
<linearGradient id="paint15_linear_3985_38219" x1="9.41797" y1="32.2439" x2="13.8063" y2="32.2439" gradientUnits="userSpaceOnUse">
<stop stop-color="white"/>
<stop offset="0.06" stop-color="#D9D9D9"/>
<stop offset="0.14" stop-color="#ADADAD"/>
<stop offset="0.23" stop-color="#868685"/>
<stop offset="0.32" stop-color="#656564"/>
<stop offset="0.41" stop-color="#4A4A49"/>
<stop offset="0.52" stop-color="#353534"/>
<stop offset="0.64" stop-color="#272726"/>
<stop offset="0.78" stop-color="#1E1E1D"/>
<stop offset="1" stop-color="#1C1C1B"/>
</linearGradient>
<linearGradient id="paint16_linear_3985_38219" x1="32.9227" y1="0.743892" x2="28.146" y2="0.743892" gradientUnits="userSpaceOnUse">
<stop stop-color="#959593"/>
<stop offset="0.46" stop-color="#C1C1C0"/>
<stop offset="0.73" stop-color="#D7D7D6"/>
<stop offset="0.84" stop-color="#D4D4D3"/>
<stop offset="0.9" stop-color="#CDCDCB"/>
<stop offset="0.94" stop-color="#C0C0BE"/>
<stop offset="0.98" stop-color="#ADADAB"/>
<stop offset="1" stop-color="#A2A2A0"/>
</linearGradient>
<linearGradient id="paint17_linear_3985_38219" x1="32.6645" y1="0.743616" x2="28.4349" y2="0.743616" gradientUnits="userSpaceOnUse">
<stop stop-color="#959593"/>
<stop offset="0.07" stop-color="#ABABA9"/>
<stop offset="0.17" stop-color="#C4C4C2"/>
<stop offset="0.27" stop-color="#D5D5D4"/>
<stop offset="0.37" stop-color="#E0E0DF"/>
<stop offset="0.49" stop-color="#E4E4E3"/>
<stop offset="0.69" stop-color="#E1E1E0"/>
<stop offset="0.79" stop-color="#DADAD8"/>
<stop offset="0.87" stop-color="#CCCCCB"/>
<stop offset="0.94" stop-color="#BABAB8"/>
<stop offset="1" stop-color="#A2A2A0"/>
</linearGradient>
<linearGradient id="paint18_linear_3985_38219" x1="30.0324" y1="0.743527" x2="29.0693" y2="0.743527" gradientUnits="userSpaceOnUse">
<stop stop-color="white"/>
<stop offset="1" stop-color="#1C1C1B"/>
</linearGradient>
<linearGradient id="paint19_linear_3985_38219" x1="29.8467" y1="0.74331" x2="29.2554" y2="0.74331" gradientUnits="userSpaceOnUse">
<stop stop-color="white"/>
<stop offset="1" stop-color="#1C1C1B"/>
</linearGradient>
<linearGradient id="paint20_linear_3985_38219" x1="31.9406" y1="32.5165" x2="30.2751" y2="32.5165" gradientUnits="userSpaceOnUse">
<stop stop-color="white"/>
<stop offset="1" stop-color="#1C1C1B"/>
</linearGradient>
<linearGradient id="paint21_linear_3985_38219" x1="32.7029" y1="0.743372" x2="31.9403" y2="0.743372" gradientUnits="userSpaceOnUse">
<stop stop-color="#C10000"/>
<stop offset="1" stop-color="#FDA101"/>
</linearGradient>
<linearGradient id="paint22_linear_3985_38219" x1="32.6954" y1="0.743978" x2="28.3063" y2="0.743978" gradientUnits="userSpaceOnUse">
<stop stop-color="white"/>
<stop offset="0.06" stop-color="#D9D9D9"/>
<stop offset="0.14" stop-color="#ADADAD"/>
<stop offset="0.23" stop-color="#868685"/>
<stop offset="0.32" stop-color="#656564"/>
<stop offset="0.41" stop-color="#4A4A49"/>
<stop offset="0.52" stop-color="#353534"/>
<stop offset="0.64" stop-color="#272726"/>
<stop offset="0.78" stop-color="#1E1E1D"/>
<stop offset="1" stop-color="#1C1C1B"/>
</linearGradient>
<linearGradient id="paint23_linear_3985_38219" x1="33.0029" y1="20.8307" x2="30.9767" y2="20.8307" gradientUnits="userSpaceOnUse">
<stop stop-color="#D2D5D5"/>
<stop offset="0.12" stop-color="#DCDEDE"/>
<stop offset="0.4" stop-color="#EFF0F0"/>
<stop offset="0.7" stop-color="#FBFBFB"/>
<stop offset="1" stop-color="white"/>
</linearGradient>
<linearGradient id="paint24_linear_3985_38219" x1="12.8896" y1="36.0476" x2="12.8896" y2="35.5381" gradientUnits="userSpaceOnUse">
<stop stop-color="#5A5A57"/>
<stop offset="0.25" stop-color="#8A8A87"/>
<stop offset="0.57" stop-color="#C1C1C0"/>
<stop offset="0.73" stop-color="#D7D7D6"/>
<stop offset="0.82" stop-color="#D4D4D3"/>
<stop offset="0.86" stop-color="#CDCDCB"/>
<stop offset="0.9" stop-color="#BFBFBE"/>
<stop offset="0.93" stop-color="#ADADAB"/>
<stop offset="0.96" stop-color="#959593"/>
<stop offset="0.98" stop-color="#777775"/>
<stop offset="1" stop-color="#5A5A57"/>
</linearGradient>
<linearGradient id="paint25_linear_3985_38219" x1="12.8894" y1="36.0341" x2="12.8894" y2="35.5405" gradientUnits="userSpaceOnUse">
<stop stop-color="#60605D"/>
<stop offset="0.23" stop-color="#8A8A87"/>
<stop offset="0.57" stop-color="#C1C1C0"/>
<stop offset="0.73" stop-color="#D7D7D6"/>
<stop offset="0.82" stop-color="#D4D4D3"/>
<stop offset="0.86" stop-color="#CDCDCB"/>
<stop offset="0.9" stop-color="#C0C0BE"/>
<stop offset="0.93" stop-color="#ADADAB"/>
<stop offset="0.96" stop-color="#959593"/>
<stop offset="0.98" stop-color="#777775"/>
<stop offset="1" stop-color="#60605D"/>
</linearGradient>
<linearGradient id="paint26_linear_3985_38219" x1="12.889" y1="36.0211" x2="12.889" y2="35.5426" gradientUnits="userSpaceOnUse">
<stop stop-color="#666664"/>
<stop offset="0.21" stop-color="#898987"/>
<stop offset="0.56" stop-color="#C1C1C0"/>
<stop offset="0.73" stop-color="#D7D7D6"/>
<stop offset="0.82" stop-color="#D4D4D3"/>
<stop offset="0.87" stop-color="#CDCDCB"/>
<stop offset="0.9" stop-color="#BFBFBE"/>
<stop offset="0.93" stop-color="#ADADAB"/>
<stop offset="0.96" stop-color="#949493"/>
<stop offset="0.99" stop-color="#777775"/>
<stop offset="1" stop-color="#666664"/>
</linearGradient>
<linearGradient id="paint27_linear_3985_38219" x1="12.8892" y1="36.0076" x2="12.8892" y2="35.5441" gradientUnits="userSpaceOnUse">
<stop stop-color="#6C6C6A"/>
<stop offset="0.18" stop-color="#8A8A88"/>
<stop offset="0.55" stop-color="#C2C2C1"/>
<stop offset="0.73" stop-color="#D8D8D7"/>
<stop offset="0.82" stop-color="#D5D5D4"/>
<stop offset="0.87" stop-color="#CECECC"/>
<stop offset="0.9" stop-color="#C0C0BF"/>
<stop offset="0.94" stop-color="#AEAEAC"/>
<stop offset="0.97" stop-color="#959594"/>
<stop offset="0.99" stop-color="#787876"/>
<stop offset="1" stop-color="#6C6C6A"/>
</linearGradient>
<linearGradient id="paint28_linear_3985_38219" x1="12.8893" y1="35.9931" x2="12.8893" y2="35.5463" gradientUnits="userSpaceOnUse">
<stop stop-color="#737370"/>
<stop offset="0.16" stop-color="#8B8B88"/>
<stop offset="0.54" stop-color="#C2C2C1"/>
<stop offset="0.73" stop-color="#D8D8D7"/>
<stop offset="0.82" stop-color="#D5D5D4"/>
<stop offset="0.87" stop-color="#CECECC"/>
<stop offset="0.91" stop-color="#C1C1BF"/>
<stop offset="0.94" stop-color="#AEAEAC"/>
<stop offset="0.97" stop-color="#969694"/>
<stop offset="1" stop-color="#737370"/>
</linearGradient>
<linearGradient id="paint29_linear_3985_38219" x1="12.8894" y1="35.9796" x2="12.8894" y2="35.5478" gradientUnits="userSpaceOnUse">
<stop stop-color="#797976"/>
<stop offset="0.13" stop-color="#8B8B88"/>
<stop offset="0.53" stop-color="#C2C2C1"/>
<stop offset="0.73" stop-color="#D8D8D7"/>
<stop offset="0.82" stop-color="#D5D5D4"/>
<stop offset="0.87" stop-color="#CECECC"/>
<stop offset="0.91" stop-color="#C1C1BF"/>
<stop offset="0.94" stop-color="#AEAEAC"/>
<stop offset="0.97" stop-color="#969694"/>
<stop offset="1" stop-color="#797976"/>
</linearGradient>
<linearGradient id="paint30_linear_3985_38219" x1="12.8894" y1="35.9667" x2="12.8894" y2="35.5499" gradientUnits="userSpaceOnUse">
<stop stop-color="#7F7F7D"/>
<stop offset="0.08" stop-color="#8A8A88"/>
<stop offset="0.52" stop-color="#C2C2C1"/>
<stop offset="0.73" stop-color="#D8D8D7"/>
<stop offset="0.82" stop-color="#D5D5D4"/>
<stop offset="0.88" stop-color="#CECECC"/>
<stop offset="0.91" stop-color="#C0C0BF"/>
<stop offset="0.95" stop-color="#AEAEAC"/>
<stop offset="0.98" stop-color="#969694"/>
<stop offset="1" stop-color="#7F7F7D"/>
</linearGradient>
<linearGradient id="paint31_linear_3985_38219" x1="12.8889" y1="35.9531" x2="12.8889" y2="35.5522" gradientUnits="userSpaceOnUse">
<stop stop-color="#858583"/>
<stop offset="0.05" stop-color="#8B8B89"/>
<stop offset="0.51" stop-color="#C2C2C2"/>
<stop offset="0.73" stop-color="#D8D8D8"/>
<stop offset="0.83" stop-color="#D5D5D5"/>
<stop offset="0.88" stop-color="#CECECD"/>
<stop offset="0.92" stop-color="#C1C1C0"/>
<stop offset="0.95" stop-color="#AEAEAD"/>
<stop offset="0.98" stop-color="#969695"/>
<stop offset="1" stop-color="#858583"/>
</linearGradient>
<linearGradient id="paint32_linear_3985_38219" x1="12.889" y1="35.9402" x2="12.889" y2="35.5543" gradientUnits="userSpaceOnUse">
<stop stop-color="#8B8B89"/>
<stop offset="0.49" stop-color="#C3C3C2"/>
<stop offset="0.73" stop-color="#D9D9D8"/>
<stop offset="0.83" stop-color="#D6D6D5"/>
<stop offset="0.88" stop-color="#CFCFCD"/>
<stop offset="0.92" stop-color="#C1C1C0"/>
<stop offset="0.96" stop-color="#AFAFAD"/>
<stop offset="0.99" stop-color="#979795"/>
<stop offset="1" stop-color="#8B8B89"/>
</linearGradient>
<linearGradient id="paint33_linear_3985_38219" x1="12.8893" y1="35.9267" x2="12.8893" y2="35.5558" gradientUnits="userSpaceOnUse">
<stop stop-color="#919190"/>
<stop offset="0.47" stop-color="#C3C3C2"/>
<stop offset="0.73" stop-color="#D9D9D8"/>
<stop offset="0.83" stop-color="#D6D6D5"/>
<stop offset="0.88" stop-color="#CECECD"/>
<stop offset="0.93" stop-color="#C1C1C0"/>
<stop offset="0.96" stop-color="#AEAEAD"/>
<stop offset="0.99" stop-color="#969695"/>
<stop offset="1" stop-color="#919190"/>
</linearGradient>
<linearGradient id="paint34_linear_3985_38219" x1="12.8894" y1="35.913" x2="12.8894" y2="35.5572" gradientUnits="userSpaceOnUse">
<stop stop-color="#979796"/>
<stop offset="0.45" stop-color="#C3C3C2"/>
<stop offset="0.73" stop-color="#D9D9D8"/>
<stop offset="0.83" stop-color="#D6D6D5"/>
<stop offset="0.89" stop-color="#CECECD"/>
<stop offset="0.93" stop-color="#C1C1C0"/>
<stop offset="0.97" stop-color="#AEAEAD"/>
<stop offset="1" stop-color="#979796"/>
</linearGradient>
<linearGradient id="paint35_linear_3985_38219" x1="12.8895" y1="35.8986" x2="12.8895" y2="35.5595" gradientUnits="userSpaceOnUse">
<stop stop-color="#9E9E9C"/>
<stop offset="0.43" stop-color="#C3C3C3"/>
<stop offset="0.73" stop-color="#D9D9D9"/>
<stop offset="0.84" stop-color="#D6D6D6"/>
<stop offset="0.89" stop-color="#CFCFCE"/>
<stop offset="0.94" stop-color="#C2C2C1"/>
<stop offset="0.97" stop-color="#B0B0AE"/>
<stop offset="1" stop-color="#9E9E9C"/>
</linearGradient>
<linearGradient id="paint36_linear_3985_38219" x1="12.8889" y1="35.8857" x2="12.8889" y2="35.5616" gradientUnits="userSpaceOnUse">
<stop stop-color="#A4A4A2"/>
<stop offset="0.4" stop-color="#C3C3C3"/>
<stop offset="0.73" stop-color="#D9D9D9"/>
<stop offset="0.84" stop-color="#D6D6D6"/>
<stop offset="0.9" stop-color="#CFCFCE"/>
<stop offset="0.94" stop-color="#C2C2C1"/>
<stop offset="0.98" stop-color="#B0B0AE"/>
<stop offset="1" stop-color="#A4A4A2"/>
</linearGradient>
<linearGradient id="paint37_linear_3985_38219" x1="12.889" y1="35.8722" x2="12.889" y2="35.5631" gradientUnits="userSpaceOnUse">
<stop stop-color="#AAAAA9"/>
<stop offset="0.36" stop-color="#C3C3C3"/>
<stop offset="0.73" stop-color="#D9D9D9"/>
<stop offset="0.84" stop-color="#D6D6D6"/>
<stop offset="0.9" stop-color="#CFCFCE"/>
<stop offset="0.95" stop-color="#C2C2C1"/>
<stop offset="0.99" stop-color="#AFAFAE"/>
<stop offset="1" stop-color="#AAAAA9"/>
</linearGradient>
<linearGradient id="paint38_linear_3985_38219" x1="12.889" y1="35.8585" x2="12.889" y2="35.5653" gradientUnits="userSpaceOnUse">
<stop stop-color="#B0B0AF"/>
<stop offset="0.32" stop-color="#C4C4C3"/>
<stop offset="0.73" stop-color="#DADAD9"/>
<stop offset="0.85" stop-color="#D7D7D6"/>
<stop offset="0.91" stop-color="#CFCFCE"/>
<stop offset="0.96" stop-color="#C2C2C1"/>
<stop offset="1" stop-color="#B0B0AF"/>
</linearGradient>
<linearGradient id="paint39_linear_3985_38219" x1="12.8895" y1="35.8457" x2="12.8895" y2="35.5675" gradientUnits="userSpaceOnUse">
<stop stop-color="#B6B6B5"/>
<stop offset="0.27" stop-color="#C4C4C4"/>
<stop offset="0.73" stop-color="#DADADA"/>
<stop offset="0.85" stop-color="#D7D7D7"/>
<stop offset="0.92" stop-color="#D0D0CF"/>
<stop offset="0.97" stop-color="#C3C3C2"/>
<stop offset="1" stop-color="#B6B6B5"/>
</linearGradient>
<linearGradient id="paint40_linear_3985_38219" x1="12.8888" y1="35.832" x2="12.8888" y2="35.5689" gradientUnits="userSpaceOnUse">
<stop stop-color="#BCBCBC"/>
<stop offset="0.18" stop-color="#C4C4C4"/>
<stop offset="0.73" stop-color="#DADADA"/>
<stop offset="0.86" stop-color="#D7D7D7"/>
<stop offset="0.93" stop-color="#CFCFCF"/>
<stop offset="0.98" stop-color="#C2C2C2"/>
<stop offset="1" stop-color="#BCBCBC"/>
</linearGradient>
<linearGradient id="paint41_linear_3985_38219" x1="12.8889" y1="35.8185" x2="12.8889" y2="35.5713" gradientUnits="userSpaceOnUse">
<stop stop-color="#C2C2C2"/>
<stop offset="0.06" stop-color="#C4C4C4"/>
<stop offset="0.73" stop-color="#DADADA"/>
<stop offset="0.87" stop-color="#D7D7D7"/>
<stop offset="0.94" stop-color="#CFCFCF"/>
<stop offset="1" stop-color="#C2C2C2"/>
</linearGradient>
<linearGradient id="paint42_linear_3985_38219" x1="12.889" y1="35.8055" x2="12.889" y2="35.5733" gradientUnits="userSpaceOnUse">
<stop stop-color="#C9C9C8"/>
<stop offset="0.73" stop-color="#DADADA"/>
<stop offset="0.88" stop-color="#D7D7D7"/>
<stop offset="0.96" stop-color="#D0D0CF"/>
<stop offset="1" stop-color="#C9C9C8"/>
</linearGradient>
<linearGradient id="paint43_linear_3985_38219" x1="12.8891" y1="35.7912" x2="12.8891" y2="35.5749" gradientUnits="userSpaceOnUse">
<stop stop-color="#CFCFCE"/>
<stop offset="0.73" stop-color="#DBDBDB"/>
<stop offset="0.89" stop-color="#D8D8D8"/>
<stop offset="0.98" stop-color="#D1D1D0"/>
<stop offset="1" stop-color="#CFCFCE"/>
</linearGradient>
<linearGradient id="paint44_linear_3985_38219" x1="12.8892" y1="35.7775" x2="12.8892" y2="35.5762" gradientUnits="userSpaceOnUse">
<stop stop-color="#D5D5D5"/>
<stop offset="0.73" stop-color="#DBDBDB"/>
<stop offset="0.94" stop-color="#D8D8D8"/>
<stop offset="1" stop-color="#D5D5D5"/>
</linearGradient>
<linearGradient id="paint45_linear_3985_38219" x1="29.1319" y1="0.743964" x2="29.1319" y2="0.743964" gradientUnits="userSpaceOnUse">
<stop stop-color="#5A5A57"/>
<stop offset="0.25" stop-color="#8A8A87"/>
<stop offset="0.57" stop-color="#C1C1C0"/>
<stop offset="0.73" stop-color="#D7D7D6"/>
<stop offset="0.82" stop-color="#D4D4D3"/>
<stop offset="0.86" stop-color="#CDCDCB"/>
<stop offset="0.9" stop-color="#BFBFBE"/>
<stop offset="0.93" stop-color="#ADADAB"/>
<stop offset="0.96" stop-color="#959593"/>
<stop offset="0.98" stop-color="#777775"/>
<stop offset="1" stop-color="#5A5A57"/>
</linearGradient>
<linearGradient id="paint46_linear_3985_38219" x1="29.1319" y1="0.743729" x2="29.1319" y2="0.743729" gradientUnits="userSpaceOnUse">
<stop stop-color="#60605D"/>
<stop offset="0.23" stop-color="#8A8A87"/>
<stop offset="0.57" stop-color="#C1C1C0"/>
<stop offset="0.73" stop-color="#D7D7D6"/>
<stop offset="0.82" stop-color="#D4D4D3"/>
<stop offset="0.86" stop-color="#CDCDCB"/>
<stop offset="0.9" stop-color="#C0C0BE"/>
<stop offset="0.93" stop-color="#ADADAB"/>
<stop offset="0.96" stop-color="#959593"/>
<stop offset="0.98" stop-color="#777775"/>
<stop offset="1" stop-color="#60605D"/>
</linearGradient>
<linearGradient id="paint47_linear_3985_38219" x1="29.1315" y1="0.744075" x2="29.1315" y2="0.744075" gradientUnits="userSpaceOnUse">
<stop stop-color="#666664"/>
<stop offset="0.21" stop-color="#898987"/>
<stop offset="0.56" stop-color="#C1C1C0"/>
<stop offset="0.73" stop-color="#D7D7D6"/>
<stop offset="0.82" stop-color="#D4D4D3"/>
<stop offset="0.87" stop-color="#CDCDCB"/>
<stop offset="0.9" stop-color="#BFBFBE"/>
<stop offset="0.93" stop-color="#ADADAB"/>
<stop offset="0.96" stop-color="#949493"/>
<stop offset="0.99" stop-color="#777775"/>
<stop offset="1" stop-color="#666664"/>
</linearGradient>
<linearGradient id="paint48_linear_3985_38219" x1="29.1316" y1="0.744007" x2="29.1316" y2="0.744007" gradientUnits="userSpaceOnUse">
<stop stop-color="#6C6C6A"/>
<stop offset="0.18" stop-color="#8A8A88"/>
<stop offset="0.55" stop-color="#C2C2C1"/>
<stop offset="0.73" stop-color="#D8D8D7"/>
<stop offset="0.82" stop-color="#D5D5D4"/>
<stop offset="0.87" stop-color="#CECECC"/>
<stop offset="0.9" stop-color="#C0C0BF"/>
<stop offset="0.94" stop-color="#AEAEAC"/>
<stop offset="0.97" stop-color="#959594"/>
<stop offset="0.99" stop-color="#787876"/>
<stop offset="1" stop-color="#6C6C6A"/>
</linearGradient>
<linearGradient id="paint49_linear_3985_38219" x1="29.1317" y1="0.743525" x2="29.1317" y2="0.743525" gradientUnits="userSpaceOnUse">
<stop stop-color="#737370"/>
<stop offset="0.16" stop-color="#8B8B88"/>
<stop offset="0.54" stop-color="#C2C2C1"/>
<stop offset="0.73" stop-color="#D8D8D7"/>
<stop offset="0.82" stop-color="#D5D5D4"/>
<stop offset="0.87" stop-color="#CECECC"/>
<stop offset="0.91" stop-color="#C1C1BF"/>
<stop offset="0.94" stop-color="#AEAEAC"/>
<stop offset="0.97" stop-color="#969694"/>
<stop offset="1" stop-color="#737370"/>
</linearGradient>
<linearGradient id="paint50_linear_3985_38219" x1="29.1318" y1="0.743472" x2="29.1318" y2="0.743472" gradientUnits="userSpaceOnUse">
<stop stop-color="#797976"/>
<stop offset="0.13" stop-color="#8B8B88"/>
<stop offset="0.53" stop-color="#C2C2C1"/>
<stop offset="0.73" stop-color="#D8D8D7"/>
<stop offset="0.82" stop-color="#D5D5D4"/>
<stop offset="0.87" stop-color="#CECECC"/>
<stop offset="0.91" stop-color="#C1C1BF"/>
<stop offset="0.94" stop-color="#AEAEAC"/>
<stop offset="0.97" stop-color="#969694"/>
<stop offset="1" stop-color="#797976"/>
</linearGradient>
<linearGradient id="paint51_linear_3985_38219" x1="29.1319" y1="0.74418" x2="29.1319" y2="0.74418" gradientUnits="userSpaceOnUse">
<stop stop-color="#7F7F7D"/>
<stop offset="0.08" stop-color="#8A8A88"/>
<stop offset="0.52" stop-color="#C2C2C1"/>
<stop offset="0.73" stop-color="#D8D8D7"/>
<stop offset="0.82" stop-color="#D5D5D4"/>
<stop offset="0.88" stop-color="#CECECC"/>
<stop offset="0.91" stop-color="#C0C0BF"/>
<stop offset="0.95" stop-color="#AEAEAC"/>
<stop offset="0.98" stop-color="#969694"/>
<stop offset="1" stop-color="#7F7F7D"/>
</linearGradient>
<linearGradient id="paint52_linear_3985_38219" x1="29.1316" y1="0.743834" x2="29.1316" y2="0.743834" gradientUnits="userSpaceOnUse">
<stop stop-color="#858583"/>
<stop offset="0.05" stop-color="#8B8B89"/>
<stop offset="0.51" stop-color="#C2C2C2"/>
<stop offset="0.73" stop-color="#D8D8D8"/>
<stop offset="0.83" stop-color="#D5D5D5"/>
<stop offset="0.88" stop-color="#CECECD"/>
<stop offset="0.92" stop-color="#C1C1C0"/>
<stop offset="0.95" stop-color="#AEAEAD"/>
<stop offset="0.98" stop-color="#969695"/>
<stop offset="1" stop-color="#858583"/>
</linearGradient>
<linearGradient id="paint53_linear_3985_38219" x1="29.1316" y1="0.743931" x2="29.1316" y2="0.743931" gradientUnits="userSpaceOnUse">
<stop stop-color="#8B8B89"/>
<stop offset="0.49" stop-color="#C3C3C2"/>
<stop offset="0.73" stop-color="#D9D9D8"/>
<stop offset="0.83" stop-color="#D6D6D5"/>
<stop offset="0.88" stop-color="#CFCFCD"/>
<stop offset="0.92" stop-color="#C1C1C0"/>
<stop offset="0.96" stop-color="#AFAFAD"/>
<stop offset="0.99" stop-color="#979795"/>
<stop offset="1" stop-color="#8B8B89"/>
</linearGradient>
<linearGradient id="paint54_linear_3985_38219" x1="29.1317" y1="0.743966" x2="29.1317" y2="0.743966" gradientUnits="userSpaceOnUse">
<stop stop-color="#919190"/>
<stop offset="0.47" stop-color="#C3C3C2"/>
<stop offset="0.73" stop-color="#D9D9D8"/>
<stop offset="0.83" stop-color="#D6D6D5"/>
<stop offset="0.88" stop-color="#CECECD"/>
<stop offset="0.93" stop-color="#C1C1C0"/>
<stop offset="0.96" stop-color="#AEAEAD"/>
<stop offset="0.99" stop-color="#969695"/>
<stop offset="1" stop-color="#919190"/>
</linearGradient>
<linearGradient id="paint55_linear_3985_38219" x1="29.1318" y1="0.743607" x2="29.1318" y2="0.743607" gradientUnits="userSpaceOnUse">
<stop stop-color="#979796"/>
<stop offset="0.45" stop-color="#C3C3C2"/>
<stop offset="0.73" stop-color="#D9D9D8"/>
<stop offset="0.83" stop-color="#D6D6D5"/>
<stop offset="0.89" stop-color="#CECECD"/>
<stop offset="0.93" stop-color="#C1C1C0"/>
<stop offset="0.97" stop-color="#AEAEAD"/>
<stop offset="1" stop-color="#979796"/>
</linearGradient>
<linearGradient id="paint56_linear_3985_38219" x1="29.1312" y1="0.743391" x2="29.1312" y2="0.743391" gradientUnits="userSpaceOnUse">
<stop stop-color="#9E9E9C"/>
<stop offset="0.43" stop-color="#C3C3C3"/>
<stop offset="0.73" stop-color="#D9D9D9"/>
<stop offset="0.84" stop-color="#D6D6D6"/>
<stop offset="0.89" stop-color="#CFCFCE"/>
<stop offset="0.94" stop-color="#C2C2C1"/>
<stop offset="0.97" stop-color="#B0B0AE"/>
<stop offset="1" stop-color="#9E9E9C"/>
</linearGradient>
<linearGradient id="paint57_linear_3985_38219" x1="29.1313" y1="0.743708" x2="29.1313" y2="0.743708" gradientUnits="userSpaceOnUse">
<stop stop-color="#A4A4A2"/>
<stop offset="0.4" stop-color="#C3C3C3"/>
<stop offset="0.73" stop-color="#D9D9D9"/>
<stop offset="0.84" stop-color="#D6D6D6"/>
<stop offset="0.9" stop-color="#CFCFCE"/>
<stop offset="0.94" stop-color="#C2C2C1"/>
<stop offset="0.98" stop-color="#B0B0AE"/>
<stop offset="1" stop-color="#A4A4A2"/>
</linearGradient>
<linearGradient id="paint58_linear_3985_38219" x1="29.1314" y1="0.743777" x2="29.1314" y2="0.743777" gradientUnits="userSpaceOnUse">
<stop stop-color="#AAAAA9"/>
<stop offset="0.36" stop-color="#C3C3C3"/>
<stop offset="0.73" stop-color="#D9D9D9"/>
<stop offset="0.84" stop-color="#D6D6D6"/>
<stop offset="0.9" stop-color="#CFCFCE"/>
<stop offset="0.95" stop-color="#C2C2C1"/>
<stop offset="0.99" stop-color="#AFAFAE"/>
<stop offset="1" stop-color="#AAAAA9"/>
</linearGradient>
<linearGradient id="paint59_linear_3985_38219" x1="29.1315" y1="0.743408" x2="29.1315" y2="0.743408" gradientUnits="userSpaceOnUse">
<stop stop-color="#B0B0AF"/>
<stop offset="0.32" stop-color="#C4C4C3"/>
<stop offset="0.73" stop-color="#DADAD9"/>
<stop offset="0.85" stop-color="#D7D7D6"/>
<stop offset="0.91" stop-color="#CFCFCE"/>
<stop offset="0.96" stop-color="#C2C2C1"/>
<stop offset="1" stop-color="#B0B0AF"/>
</linearGradient>
<linearGradient id="paint60_linear_3985_38219" x1="29.1315" y1="0.744084" x2="29.1315" y2="0.744084" gradientUnits="userSpaceOnUse">
<stop stop-color="#B6B6B5"/>
<stop offset="0.27" stop-color="#C4C4C4"/>
<stop offset="0.73" stop-color="#DADADA"/>
<stop offset="0.85" stop-color="#D7D7D7"/>
<stop offset="0.92" stop-color="#D0D0CF"/>
<stop offset="0.97" stop-color="#C3C3C2"/>
<stop offset="1" stop-color="#B6B6B5"/>
</linearGradient>
<linearGradient id="paint61_linear_3985_38219" x1="29.1312" y1="0.743367" x2="29.1312" y2="0.743367" gradientUnits="userSpaceOnUse">
<stop stop-color="#BCBCBC"/>
<stop offset="0.18" stop-color="#C4C4C4"/>
<stop offset="0.73" stop-color="#DADADA"/>
<stop offset="0.86" stop-color="#D7D7D7"/>
<stop offset="0.93" stop-color="#CFCFCF"/>
<stop offset="0.98" stop-color="#C2C2C2"/>
<stop offset="1" stop-color="#BCBCBC"/>
</linearGradient>
<linearGradient id="paint62_linear_3985_38219" x1="29.1313" y1="0.743475" x2="29.1313" y2="0.743475" gradientUnits="userSpaceOnUse">
<stop stop-color="#C2C2C2"/>
<stop offset="0.06" stop-color="#C4C4C4"/>
<stop offset="0.73" stop-color="#DADADA"/>
<stop offset="0.87" stop-color="#D7D7D7"/>
<stop offset="0.94" stop-color="#CFCFCF"/>
<stop offset="1" stop-color="#C2C2C2"/>
</linearGradient>
<linearGradient id="paint63_linear_3985_38219" x1="29.1314" y1="0.743766" x2="29.1314" y2="0.743766" gradientUnits="userSpaceOnUse">
<stop stop-color="#C9C9C8"/>
<stop offset="0.73" stop-color="#DADADA"/>
<stop offset="0.88" stop-color="#D7D7D7"/>
<stop offset="0.96" stop-color="#D0D0CF"/>
<stop offset="1" stop-color="#C9C9C8"/>
</linearGradient>
<linearGradient id="paint64_linear_3985_38219" x1="29.1315" y1="0.743508" x2="29.1315" y2="0.743508" gradientUnits="userSpaceOnUse">
<stop stop-color="#CFCFCE"/>
<stop offset="0.73" stop-color="#DBDBDB"/>
<stop offset="0.89" stop-color="#D8D8D8"/>
<stop offset="0.98" stop-color="#D1D1D0"/>
<stop offset="1" stop-color="#CFCFCE"/>
</linearGradient>
<linearGradient id="paint65_linear_3985_38219" x1="29.1317" y1="0.743536" x2="29.1317" y2="0.743536" gradientUnits="userSpaceOnUse">
<stop stop-color="#D5D5D5"/>
<stop offset="0.73" stop-color="#DBDBDB"/>
<stop offset="0.94" stop-color="#D8D8D8"/>
<stop offset="1" stop-color="#D5D5D5"/>
</linearGradient>
<linearGradient id="paint66_linear_3985_38219" x1="32.6464" y1="19.4358" x2="35.2916" y2="18.6841" gradientUnits="userSpaceOnUse">
<stop stop-color="#444443"/>
<stop offset="0.09" stop-color="#444443"/>
<stop offset="0.69" stop-color="#1C1C1B"/>
<stop offset="0.99"/>
</linearGradient>
<linearGradient id="paint67_linear_3985_38219" x1="9.43445" y1="19.4358" x2="6.7901" y2="18.6841" gradientUnits="userSpaceOnUse">
<stop/>
<stop offset="0.31" stop-color="#1C1C1B"/>
<stop offset="0.63" stop-color="#444443"/>
<stop offset="0.75" stop-color="#545453"/>
<stop offset="0.87" stop-color="#686867"/>
</linearGradient>
<radialGradient id="paint68_radial_3985_38219" cx="0" cy="0" r="1" gradientUnits="userSpaceOnUse" gradientTransform="translate(12.1345 12.9675) scale(12.2236)">
<stop stop-color="white"/>
<stop offset="0.02" stop-color="#F7F7F7"/>
<stop offset="0.16" stop-color="#D3D3D3"/>
<stop offset="0.3" stop-color="#B4B4B4"/>
<stop offset="0.45" stop-color="#9D9D9D"/>
<stop offset="0.6" stop-color="#8C8C8C"/>
<stop offset="0.78" stop-color="#838383"/>
<stop offset="1" stop-color="#808080"/>
</radialGradient>
<linearGradient id="paint69_linear_3985_38219" x1="25.6111" y1="18.1903" x2="30.6834" y2="18.1903" gradientUnits="userSpaceOnUse">
<stop stop-color="#98989D"/>
<stop offset="0.48" stop-color="#8A8A8C"/>
<stop offset="1" stop-color="#808080"/>
</linearGradient>
<linearGradient id="paint70_linear_3985_38219" x1="9.87866" y1="16.6121" x2="17.9311" y2="16.6121" gradientUnits="userSpaceOnUse">
<stop stop-color="white"/>
<stop offset="0.17" stop-color="#E5E5E5"/>
<stop offset="0.55" stop-color="#AEAEAE"/>
<stop offset="0.84" stop-color="#8C8C8C"/>
<stop offset="1" stop-color="#808080"/>
</linearGradient>
<radialGradient id="paint71_radial_3985_38219" cx="0" cy="0" r="1" gradientUnits="userSpaceOnUse" gradientTransform="translate(31.4794 16.8992) scale(0.753912 10.115)">
<stop stop-color="white"/>
<stop offset="0.17" stop-color="#E5E5E5"/>
<stop offset="0.55" stop-color="#AEAEAE"/>
<stop offset="0.84" stop-color="#8C8C8C"/>
<stop offset="1" stop-color="#808080"/>
</radialGradient>
<radialGradient id="paint72_radial_3985_38219" cx="0" cy="0" r="1" gradientUnits="userSpaceOnUse" gradientTransform="translate(11.0258 15.5752) scale(0.811277 6.80893)">
<stop stop-color="white"/>
<stop offset="0.17" stop-color="#E5E5E5"/>
<stop offset="0.55" stop-color="#AEAEAE"/>
<stop offset="0.84" stop-color="#8C8C8C"/>
<stop offset="1" stop-color="#808080"/>
</radialGradient>
<linearGradient id="paint73_linear_3985_38219" x1="20.183" y1="31.0737" x2="21.5653" y2="31.0737" gradientUnits="userSpaceOnUse">
<stop stop-color="#808080"/>
<stop offset="0.19" stop-color="#B1ACB3"/>
<stop offset="0.2" stop-color="#9A969C"/>
<stop offset="0.22" stop-color="#716E73"/>
<stop offset="0.25" stop-color="#4E4C4F"/>
<stop offset="0.28" stop-color="#313032"/>
<stop offset="0.3" stop-color="#1B1B1C"/>
<stop offset="0.33" stop-color="#0C0B0C"/>
<stop offset="0.37" stop-color="#020202"/>
<stop offset="0.42"/>
<stop offset="0.46" stop-color="#050404"/>
<stop offset="0.5" stop-color="#131211"/>
<stop offset="0.55" stop-color="#2B2A27"/>
<stop offset="0.6" stop-color="#4D4A45"/>
<stop offset="0.65" stop-color="#78746C"/>
<stop offset="0.71" stop-color="#ADA69B"/>
<stop offset="0.72" stop-color="#BFB8AC"/>
<stop offset="0.79" stop-color="#A6A19A"/>
<stop offset="0.86" stop-color="#918F8B"/>
<stop offset="0.93" stop-color="#848382"/>
<stop offset="1" stop-color="#808080"/>
</linearGradient>
<linearGradient id="paint74_linear_3985_38219" x1="20.9707" y1="33.495" x2="20.9707" y2="32.7893" gradientUnits="userSpaceOnUse">
<stop stop-color="#808080"/>
<stop offset="0.31" stop-color="#686A6B"/>
<stop offset="0.55" stop-color="#5B5D60"/>
<stop offset="0.99" stop-color="#2B2C2F"/>
</linearGradient>
<linearGradient id="paint75_linear_3985_38219" x1="9.17644" y1="20.8448" x2="11.1058" y2="20.8448" gradientUnits="userSpaceOnUse">
<stop stop-color="#D2D5D5"/>
<stop offset="0.12" stop-color="#DCDEDE"/>
<stop offset="0.4" stop-color="#EFF0F0"/>
<stop offset="0.7" stop-color="#FBFBFB"/>
<stop offset="1" stop-color="white"/>
</linearGradient>
</defs>
</svg>
