<svg width="39" height="40" viewBox="0 0 39 40" fill="none" xmlns="http://www.w3.org/2000/svg">
<g filter="url(#filter0_d_3789_34807)">
<rect opacity="0.9" x="6" y="2" width="28" height="36" fill="#D5D5D5"/>
<path opacity="0.5" d="M5 2.03117H33.8776V16.47L5 25.2364V2.03117Z" fill="url(#paint0_linear_3789_34807)"/>
<path d="M5 1V39H19.6368V1H5ZM18.3325 36.4193C18.3325 37.1586 17.451 37.7582 16.3639 37.7582H8.27286C7.18579 37.7582 6.30425 37.1586 6.30425 36.4193V6.23465C6.30425 5.17616 7.566 4.31804 9.12238 4.31804H15.5144C17.0708 4.31804 18.3325 5.17616 18.3325 6.23465V36.4193Z" fill="url(#paint1_linear_3789_34807)" stroke="#231F20" stroke-width="0.2" stroke-miterlimit="10"/>
<path d="M19.637 1V39H34.2737V1H19.637ZM32.9695 36.4193C32.9695 37.1586 32.0879 37.7582 31.0009 37.7582H22.9098C21.8228 37.7582 20.9412 37.1586 20.9412 36.4193V6.23465C20.9412 5.17616 22.203 4.31804 23.7593 4.31804H30.1514C31.7077 4.31804 32.9695 5.17616 32.9695 6.23465V36.4193Z" fill="url(#paint2_linear_3789_34807)" stroke="#231F20" stroke-width="0.2" stroke-miterlimit="10"/>
<path style="mix-blend-mode:multiply" d="M20.7034 19.9656V21.9784C20.7034 22.3792 20.2254 22.7043 19.6361 22.7043C19.0469 22.7043 18.5688 22.3792 18.5688 21.9784V19.9656C18.5688 19.5649 19.0469 19.2397 19.6361 19.2397C20.2254 19.2397 20.7034 19.5649 20.7034 19.9656Z" fill="url(#paint3_linear_3789_34807)"/>
<path d="M19.1704 19.7891V22.2874H20.1009V19.7891H19.1704Z" fill="black"/>
<path d="M20.1011 22.2081V22.884C20.1011 23.0587 19.8927 23.2004 19.6359 23.2004C19.3791 23.2004 19.1707 23.0587 19.1707 22.884V22.2081H20.1011Z" fill="url(#paint4_linear_3789_34807)"/>
<path d="M19.1707 19.8694V19.1934C19.1707 19.0188 19.3791 18.877 19.6359 18.877C19.8927 18.877 20.1011 19.0188 20.1011 19.1934V19.8694H19.1707Z" fill="url(#paint5_linear_3789_34807)"/>
<path d="M19.3013 19.9393V22.1371C19.3013 22.1507 19.3174 22.1617 19.3374 22.1617H19.9348C19.9547 22.1617 19.9709 22.1507 19.9709 22.1371V19.9393C19.9709 19.9258 19.9547 19.9148 19.9348 19.9148H19.3374C19.3174 19.9148 19.3013 19.9258 19.3013 19.9393Z" fill="url(#paint6_linear_3789_34807)"/>
</g>
<defs>
<filter id="filter0_d_3789_34807" x="0.899902" y="0.899994" width="37.4739" height="46.2" filterUnits="userSpaceOnUse" color-interpolation-filters="sRGB">
<feFlood flood-opacity="0" result="BackgroundImageFix"/>
<feColorMatrix in="SourceAlpha" type="matrix" values="0 0 0 0 0 0 0 0 0 0 0 0 0 0 0 0 0 0 127 0" result="hardAlpha"/>
<feOffset dy="4"/>
<feGaussianBlur stdDeviation="2"/>
<feComposite in2="hardAlpha" operator="out"/>
<feColorMatrix type="matrix" values="0 0 0 0 0 0 0 0 0 0 0 0 0 0 0 0 0 0 0.25 0"/>
<feBlend mode="normal" in2="BackgroundImageFix" result="effect1_dropShadow_3789_34807"/>
<feBlend mode="normal" in="SourceGraphic" in2="effect1_dropShadow_3789_34807" result="shape"/>
</filter>
<linearGradient id="paint0_linear_3789_34807" x1="19.4388" y1="2.03117" x2="19.4388" y2="25.2364" gradientUnits="userSpaceOnUse">
<stop stop-color="white"/>
<stop offset="1" stop-color="#2F2F2F"/>
</linearGradient>
<linearGradient id="paint1_linear_3789_34807" x1="8.86328" y1="1.5" x2="15.8633" y2="38.5" gradientUnits="userSpaceOnUse">
<stop stop-color="#317712"/>
<stop offset="0.3" stop-color="#579720"/>
<stop offset="0.66" stop-color="#9FDA58"/>
<stop offset="1" stop-color="#347D13"/>
</linearGradient>
<linearGradient id="paint2_linear_3789_34807" x1="23.5002" y1="1.5" x2="30.5002" y2="38.5" gradientUnits="userSpaceOnUse">
<stop stop-color="#317712"/>
<stop offset="0.3" stop-color="#579720"/>
<stop offset="0.66" stop-color="#9FDA58"/>
<stop offset="1" stop-color="#347D13"/>
</linearGradient>
<linearGradient id="paint3_linear_3789_34807" x1="19.6361" y1="22.7043" x2="19.6361" y2="19.2397" gradientUnits="userSpaceOnUse">
<stop stop-color="#E6E7E8"/>
<stop offset="1" stop-color="#A7A9AC"/>
</linearGradient>
<linearGradient id="paint4_linear_3789_34807" x1="19.1916" y1="22.7042" x2="20.1221" y2="22.7042" gradientUnits="userSpaceOnUse">
<stop stop-color="#414042"/>
<stop offset="1"/>
</linearGradient>
<linearGradient id="paint5_linear_3789_34807" x1="16.3752" y1="19.3728" x2="16.3752" y2="19.3728" gradientUnits="userSpaceOnUse">
<stop stop-color="#414042"/>
<stop offset="1"/>
</linearGradient>
<linearGradient id="paint6_linear_3789_34807" x1="19.3164" y1="21.0382" x2="19.986" y2="21.0382" gradientUnits="userSpaceOnUse">
<stop stop-color="#A7A9AC"/>
<stop offset="1" stop-color="#414042"/>
</linearGradient>
</defs>
</svg>
