<svg width="41" height="40" viewBox="0 0 41 40" fill="none" xmlns="http://www.w3.org/2000/svg">
<path d="M19.2761 8C18.9318 7.99982 18.626 8.22007 18.517 8.54673L17.7047 10.9836C17.3767 11.0991 17.0559 11.2315 16.7424 11.3819L14.4446 10.2338C14.1367 10.0799 13.7648 10.1403 13.5214 10.3838L11.2595 12.6457C11.016 12.8891 10.9556 13.2609 11.1095 13.5689L12.2561 15.862C12.1053 16.1771 11.9718 16.4993 11.8562 16.8289L9.42247 17.6412C9.0958 17.7502 8.87555 18.0561 8.87573 18.4004V21.5996C8.87555 21.9439 9.0958 22.2498 9.42247 22.3588L11.864 23.1726C11.9791 23.4986 12.1112 23.8169 12.2608 24.1286L11.1095 26.4311C10.9556 26.7391 11.016 27.1109 11.2595 27.3543L13.5214 29.6178C13.7648 29.8612 14.1367 29.9217 14.4446 29.7678L16.7424 28.6181C17.0556 28.7677 17.3756 28.8998 17.7031 29.0148L18.517 31.4548C18.626 31.7815 18.9318 32.0017 19.2761 32.0016H22.4753C22.8197 32.0017 23.1255 31.7815 23.2345 31.4548L24.0483 29.0102C24.3735 28.8956 24.6919 28.7638 25.0028 28.6149L27.3069 29.7678C27.6148 29.9217 27.9867 29.8612 28.2301 29.6178L30.492 27.3543C30.7354 27.1109 30.7958 26.7391 30.6419 26.4311L29.4938 24.1349C29.6443 23.8209 29.7766 23.4995 29.8921 23.171L32.329 22.3588C32.6557 22.2498 32.8759 21.9439 32.8757 21.5996V18.4004C32.8759 18.0561 32.6557 17.7502 32.329 17.6412L29.8906 16.8289C29.7751 16.5015 29.6425 16.1812 29.4922 15.8683L30.6419 13.5689C30.7958 13.2609 30.7354 12.8891 30.492 12.6457L28.2301 10.3838C27.9867 10.1403 27.6148 10.0799 27.3069 10.2338L25.0153 11.3788C24.6992 11.2277 24.3759 11.0947 24.0452 10.9789L23.2345 8.54673C23.1255 8.22007 22.8197 7.99982 22.4753 8H19.2761ZM20.8726 14.3968C23.9551 14.3968 26.4758 16.9175 26.4758 20C26.4758 23.0825 23.9551 25.597 20.8726 25.597C17.7901 25.597 15.2756 23.0825 15.2756 20C15.2756 16.9175 17.7901 14.3968 20.8726 14.3968Z" fill="white"/>
</svg>
