<svg width="25" height="24" viewBox="0 0 25 24" fill="none" xmlns="http://www.w3.org/2000/svg">
<path d="M11.2761 1.10426e-07C10.9318 -0.000180035 10.626 0.220066 10.517 0.546733L9.70468 2.9836C9.37673 3.09907 9.05593 3.23145 8.74243 3.38193L6.44459 2.23379C6.13665 2.07991 5.7648 2.14031 5.5214 2.38375L3.25949 4.64567C3.01605 4.88906 2.95564 5.26092 3.10953 5.56886L4.2561 7.86201C4.10528 8.17708 3.97181 8.49931 3.85621 8.82895L1.42247 9.64124C1.0958 9.75022 0.875553 10.056 0.875733 10.4004V13.5996C0.875552 13.9439 1.0958 14.2498 1.42247 14.3588L3.86402 15.1726C3.97909 15.4986 4.11123 15.8169 4.26079 16.1286L3.10953 18.4311C2.95564 18.7391 3.01605 19.1109 3.25949 19.3543L5.5214 21.6178C5.7648 21.8612 6.13665 21.9217 6.44459 21.7678L8.74243 20.6181C9.05561 20.7677 9.37558 20.8998 9.70312 21.0148L10.517 23.4548C10.626 23.7815 10.9318 24.0017 11.2761 24.0016H14.4753C14.8197 24.0017 15.1255 23.7815 15.2345 23.4548L16.0483 21.0102C16.3735 20.8956 16.6919 20.7638 17.0028 20.6149L19.3069 21.7678C19.6148 21.9217 19.9867 21.8612 20.2301 21.6178L22.492 19.3543C22.7354 19.1109 22.7958 18.7391 22.6419 18.4311L21.4938 16.1349C21.6443 15.8209 21.7766 15.4995 21.8921 15.171L24.329 14.3588C24.6557 14.2498 24.8759 13.9439 24.8757 13.5996V10.4004C24.8759 10.056 24.6557 9.75022 24.329 9.64124L21.8906 8.82895C21.7751 8.50152 21.6425 8.18125 21.4922 7.86826L22.6419 5.56886C22.7958 5.26092 22.7354 4.88906 22.492 4.64567L20.2301 2.38375C19.9867 2.14031 19.6148 2.07991 19.3069 2.23379L17.0153 3.37881C16.6992 3.22767 16.3759 3.09466 16.0452 2.97891L15.2345 0.546733C15.1255 0.220066 14.8197 -0.000180035 14.4753 1.10426e-07H11.2761ZM12.8726 6.39677C15.9551 6.39677 18.4758 8.91746 18.4758 12C18.4758 15.0825 15.9551 17.597 12.8726 17.597C9.79009 17.597 7.27563 15.0825 7.27563 12C7.27563 8.91746 9.79009 6.39677 12.8726 6.39677Z" fill="#FED000"/>
</svg>
