<svg width="80" height="80" viewBox="0 0 80 80" fill="none" xmlns="http://www.w3.org/2000/svg">
<mask id="mask0_3696_3708" style="mask-type:luminance" maskUnits="userSpaceOnUse" x="-3" y="-3" width="86" height="86">
<path d="M-2.66675 -2.66667H82.6526V82.6667H-2.66675V-2.66667Z" fill="white"/>
</mask>
<g mask="url(#mask0_3696_3708)">
</g>
<path d="M56.5734 55.5767C62.2172 55.5767 66.8109 60.1604 66.8 65.8021C66.8 71.4466 62.2061 76.0301 56.5734 76.0301C50.9437 76.0301 46.3498 71.4466 46.3498 65.8021C46.3498 60.1604 50.9437 55.5767 56.5734 55.5767ZM48.3617 37.1464V5.86721H67.4961C70.3549 5.86721 72.6874 8.19191 72.6874 11.0621V37.1464H48.3617ZM44.0475 41.464L72.6985 41.4531V65.813H71.3829V65.8021C71.3829 57.6437 64.7443 51.004 56.5845 51.004C48.4274 51.004 41.7888 57.6437 41.7888 65.8021V65.813H7.29419V5.86719H44.0475V41.464Z" fill="white"/>
<path d="M26.0046 13.6745C28.2077 13.6745 29.9936 15.4607 29.9936 17.6642C29.9936 19.8676 28.2077 21.6538 26.0046 21.6538C23.8015 21.6538 22.0156 19.8676 22.0156 17.6642C22.0156 15.4607 23.8015 13.6745 26.0046 13.6745ZM30.7416 22.402C33.22 22.402 35.2292 24.4114 35.2292 26.8905V28.7606V39.2335C35.2292 40.1976 34.4478 40.979 33.4839 40.979C32.5201 40.979 31.7389 40.1976 31.7389 39.2335V28.7606H30.7416V40.8544V41.2283V57.8105C30.7416 59.05 29.7369 60.0547 28.4976 60.0547C27.2586 60.0547 26.2539 59.05 26.2539 57.8105V41.2283H25.7553V57.8105C25.7553 59.05 24.7506 60.0547 23.5113 60.0547C22.2723 60.0547 21.2676 59.05 21.2676 57.8105V41.2283V40.8544V28.7606H20.2703V39.2335C20.2703 40.1976 19.4889 40.979 18.5251 40.979C17.5613 40.979 16.7799 40.1976 16.7799 39.2297V28.7606V26.8905C16.7799 24.4114 18.7891 22.402 21.2676 22.402H30.7416Z" fill="#C80000"/>
</svg>
