<svg width="140" height="40" viewBox="0 0 140 40" fill="none" xmlns="http://www.w3.org/2000/svg">
<path d="M139 1L1 1L0.999997 39L139 39L139 1Z" fill="white" stroke="white" stroke-width="2"/>
<path d="M136.389 3.57617L3.61089 3.57617L3.61088 36.4223L136.389 36.4223L136.389 3.57617Z" stroke="black"/>
<path d="M136.889 3.07617L74.6664 3.07617L74.6664 36.9223L136.889 36.9223L136.889 3.07617Z" fill="black"/>
<path d="M15.5547 3.07617L12.4436 3.07617L12.4436 36.9223H15.5547L15.5547 3.07617Z" fill="black"/>
<path d="M28 3.07617L24.8889 3.07617L24.8889 36.9223H28L28 3.07617Z" fill="black"/>
<path d="M40.4414 3.07617L37.3303 3.07617L37.3303 36.9223H40.4414L40.4414 3.07617Z" fill="black"/>
<path d="M52.8887 3.07617L49.7776 3.07617L49.7776 36.9223H52.8887L52.8887 3.07617Z" fill="black"/>
<path d="M65.3301 3.07617L62.219 3.07617L62.219 36.9223H65.3301L65.3301 3.07617Z" fill="black"/>
</svg>
