<svg width="24" height="24" viewBox="0 0 24 24" fill="none" xmlns="http://www.w3.org/2000/svg">
<path d="M21.5339 15.125C21.5339 15.125 18.7823 22 11.9632 22C5.14415 22 2.39258 15.125 2.39258 15.125C2.39258 15.125 7.29755 16.375 11.8436 16.375C16.3897 16.375 21.5339 15.125 21.5339 15.125Z" fill="white"/>
<path d="M23.1839 7.625C18.1593 6 14.2114 2 12.058 2C9.90464 2 5.95674 6 0.932136 7.625C0.0947023 7.875 -0.264198 8.875 0.214335 9.625C1.29104 11.125 2.48737 11.25 2.48737 13C2.48737 13 7.2727 14.25 12.058 14.25C16.8434 14.25 21.6287 13 21.6287 13C21.6287 11.25 22.825 11.125 23.7821 9.5C24.2606 8.875 23.9017 7.875 23.1839 7.625ZM12.058 12C10.7421 12 9.66537 9.625 9.66537 8.25C9.66537 8.25 10.7421 7 12.058 7C13.374 7 14.4507 8.25 14.4507 8.25C14.4507 9.625 13.374 12 12.058 12Z" fill="white"/>
</svg>
