<svg width="68" height="72" viewBox="0 0 68 72" fill="none" xmlns="http://www.w3.org/2000/svg">
<path d="M50.5695 51.011C56.3611 51.011 61.075 55.7148 61.0639 61.5042C61.0639 67.2965 56.3497 72 50.5695 72C44.7924 72 40.0782 67.2965 40.0782 61.5042C40.0782 55.7148 44.7924 51.011 50.5695 51.011ZM42.1428 32.0982V2.29794e-05H61.7782C64.7119 2.29794e-05 67.1055 2.38559 67.1055 5.33096V32.0982H42.1428ZM37.7157 36.5288L67.1168 36.5177V61.5154H65.7667V61.5042C65.7667 53.1321 58.9544 46.3186 50.5809 46.3186C42.2102 46.3186 35.3978 53.1321 35.3978 61.5042V61.5154H0V0H37.7157V36.5288Z" fill="white"/>
<path d="M15.9252 40.4583C15.7286 39.942 15.5766 39.3605 15.4689 38.7132C15.3615 38.0663 15.3078 37.4535 15.3078 36.8749C15.3078 35.9606 15.3968 35.1269 15.575 34.3741C15.7529 33.6214 16.0189 32.9106 16.3719 32.2419C16.7252 31.5732 17.169 30.937 17.7034 30.3337C18.2381 29.7301 18.8586 29.1296 19.5649 28.5326C20.3143 27.8917 20.9701 27.2992 21.5322 26.755C22.0944 26.2105 22.5735 25.6647 22.9699 25.1173C23.366 24.5696 23.6625 24.002 23.8591 23.4142C24.0554 22.8264 24.1538 22.1747 24.1538 21.4593C24.1538 20.8433 24.0448 20.2726 23.8267 19.747C23.6088 19.2211 23.2985 18.7686 22.8962 18.389C22.4936 18.0095 22.0023 17.7111 21.4217 17.4934C20.8412 17.2756 20.1945 17.1666 19.4819 17.1666C17.9462 17.1666 16.3519 17.512 14.6995 18.2026C13.047 18.8931 11.4805 19.9414 10 21.3471V12.6594C11.4867 11.7698 13.1069 11.1042 14.8609 10.6624C16.6147 10.2209 18.4285 10 20.3021 10C22.0959 10 23.7639 10.1991 25.3058 10.5973C26.8477 10.9955 28.193 11.6238 29.3419 12.4821C30.4905 13.3408 31.3876 14.4355 32.0324 15.7669C32.6776 17.0984 33 18.7003 33 20.5728C33 21.7611 32.868 22.8371 32.6039 23.8014C32.3395 24.7656 31.9541 25.6754 31.4475 26.5309C30.9406 27.3864 30.3107 28.2074 29.5582 28.9944C28.8057 29.7813 27.938 30.5947 26.9551 31.4347C26.2978 32.0008 25.7188 32.5266 25.2181 33.0117C24.7175 33.4968 24.303 33.9791 23.9743 34.4582C23.6456 34.937 23.3969 35.4442 23.2277 35.9793C23.0588 36.5143 22.9742 37.1208 22.9742 37.799C22.9742 38.2654 23.0357 38.7429 23.1587 39.2312C23.2817 39.7195 23.4505 40.1287 23.6656 40.4583H15.9252ZM20.0718 53C18.5358 53 17.2583 52.5364 16.2383 51.6095C15.2248 50.6453 14.7179 49.5069 14.7179 48.1941C14.7179 46.8444 15.2248 45.7152 16.2383 44.8069C17.2583 43.8987 18.5358 43.4445 20.0718 43.4445C21.5831 43.4445 22.8391 43.8987 23.8407 44.8069C24.8358 45.6965 25.3333 46.8257 25.3333 48.1941C25.3333 49.5815 24.8451 50.7293 23.8682 51.6376C22.8669 52.5459 21.6015 53 20.0718 53Z" fill="#202020"/>
</svg>
