<svg width="19" height="24" viewBox="0 0 19 24" fill="none" xmlns="http://www.w3.org/2000/svg">
<path d="M2.28475 14.3955C2.08865 14.3955 1.92969 14.5545 1.92969 14.7506V18.8474C1.92969 19.0435 2.08865 19.2024 2.28475 19.2024C2.48085 19.2024 2.63981 19.0435 2.63981 18.8474V14.7506C2.63981 14.5545 2.48085 14.3955 2.28475 14.3955Z" fill="white"/>
<path d="M3.7976 11.0283C2.76758 11.0283 1.92969 11.8662 1.92969 12.8962C1.92969 13.0923 2.08865 13.2513 2.28475 13.2513C2.48085 13.2513 2.63981 13.0923 2.63981 12.8962C2.63981 12.2579 3.15928 11.7384 3.7976 11.7384C3.9937 11.7384 4.15266 11.5795 4.15266 11.3834C4.15266 11.1873 3.9937 11.0283 3.7976 11.0283Z" fill="white"/>
<path d="M9.2756 0C5.81958 0 3.00781 2.81622 3.00781 6.27768V8.50201H3.71794H4.78262H5.49274V6.27768C5.49274 4.18644 7.19426 2.48492 9.2855 2.48492C11.3713 2.48492 13.0684 4.18643 13.0684 6.27768V8.50201H13.7785H14.8432H15.5533V6.27768C15.5533 2.81621 12.7371 0 9.2756 0Z" fill="white"/>
<path d="M15.7737 9.35449H15.7145H15.5528H14.8427H13.778H13.0679H5.49229H4.78217H3.71749H3.00736H2.78651C1.24989 9.35449 0 10.6044 0 12.1405V21.2146C0 22.7512 1.24989 24.0011 2.78651 24.0011H15.7737C17.3103 24.0011 18.5602 22.7512 18.5602 21.2146V12.1405C18.5602 10.6044 17.3103 9.35449 15.7737 9.35449ZM3.79475 11.7394C3.15644 11.7394 2.63697 12.2589 2.63697 12.8972C2.63697 13.0933 2.478 13.2522 2.2819 13.2522C2.0858 13.2522 1.92684 13.0933 1.92684 12.8972C1.92684 11.8672 2.76472 11.0293 3.79475 11.0293C3.99085 11.0293 4.14981 11.1882 4.14981 11.3843C4.14981 11.5804 3.99085 11.7394 3.79475 11.7394ZM1.92684 14.7527C1.92684 14.5566 2.0858 14.3976 2.2819 14.3976C2.478 14.3976 2.63697 14.5566 2.63697 14.7527V18.8495C2.63697 19.0456 2.478 19.2046 2.2819 19.2046C2.0858 19.2046 1.92684 19.0456 1.92684 18.8495V14.7527Z" fill="white"/>
</svg>
