<svg width="16" height="16" viewBox="0 0 16 16" fill="none" xmlns="http://www.w3.org/2000/svg">
<path d="M15.9111 7.64446C15.8222 7.55557 15.8222 7.46668 15.7333 7.37779L13.0667 4.71112C12.7111 4.35557 12.1778 4.35557 11.8222 4.71112C11.4667 5.06668 11.4667 5.60001 11.8222 5.95557L12.9778 7.11112H8.88889C8.35556 7.11112 8 7.46668 8 8.00001C8 8.53335 8.35556 8.8889 8.88889 8.8889H12.9778L11.8222 10.0445C11.4667 10.4 11.4667 10.9333 11.8222 11.2889C12 11.4667 12.2667 11.5556 12.4444 11.5556C12.6222 11.5556 12.8889 11.4667 13.0667 11.2889L15.7333 8.62224C15.8222 8.53335 15.9111 8.44446 15.9111 8.35557C16 8.0889 16 7.91112 15.9111 7.64446Z" fill="white"/>
<path d="M11.1111 13.4222C10.1333 13.9556 9.06667 14.2222 8 14.2222C4.53333 14.2222 1.77778 11.4667 1.77778 8C1.77778 4.53333 4.53333 1.77778 8 1.77778C9.06667 1.77778 10.1333 2.04444 11.1111 2.57778C11.5556 2.84444 12.0889 2.66667 12.3556 2.22222C12.6222 1.77778 12.4444 1.24444 12 0.977778C10.7556 0.355555 9.42222 0 8 0C3.55556 0 0 3.55556 0 8C0 12.4444 3.55556 16 8 16C9.42222 16 10.7556 15.6444 12 14.9333C12.4444 14.6667 12.5333 14.1333 12.3556 13.6889C12.0889 13.3333 11.5556 13.1556 11.1111 13.4222Z" fill="white"/>
</svg>
