<svg width="41" height="40" viewBox="0 0 41 40" fill="none" xmlns="http://www.w3.org/2000/svg">
<path d="M15.7615 8H10.307C9.10207 8 8.12524 8.97682 8.12524 10.1818V15.6363C8.12524 16.8413 9.10207 17.8181 10.307 17.8181H15.7615C16.9665 17.8181 17.9433 16.8413 17.9433 15.6363V10.1818C17.9433 8.97682 16.9665 8 15.7615 8Z" fill="white"/>
<path d="M29.9433 8H24.4888C23.2838 8 22.307 8.97682 22.307 10.1818V15.6363C22.307 16.8413 23.2838 17.8181 24.4888 17.8181H29.9433C31.1483 17.8181 32.1251 16.8413 32.1251 15.6363V10.1818C32.1251 8.97682 31.1483 8 29.9433 8Z" fill="white"/>
<path d="M15.7615 22.1816H10.307C9.10207 22.1816 8.12524 23.1585 8.12524 24.3634V29.8179C8.12524 31.0229 9.10207 31.9997 10.307 31.9997H15.7615C16.9665 31.9997 17.9433 31.0229 17.9433 29.8179V24.3634C17.9433 23.1585 16.9665 22.1816 15.7615 22.1816Z" fill="white"/>
<path d="M29.9433 22.1816H24.4888C23.2838 22.1816 22.307 23.1585 22.307 24.3634V29.8179C22.307 31.0229 23.2838 31.9997 24.4888 31.9997H29.9433C31.1483 31.9997 32.1251 31.0229 32.1251 29.8179V24.3634C32.1251 23.1585 31.1483 22.1816 29.9433 22.1816Z" fill="white"/>
</svg>
