<svg width="64" height="64" viewBox="0 0 64 64" fill="none" xmlns="http://www.w3.org/2000/svg">
<path fill-rule="evenodd" clip-rule="evenodd" d="M38.5491 49.7074C36.6242 47.1955 34.2958 45.5644 30.9595 44.6389L27.8335 55.5834C27.8335 56.5915 27.0081 57.4168 26.0001 57.4168C24.9924 57.4168 24.167 56.5915 24.167 55.5834V46.8751C24.167 45.6103 23.1401 44.5833 21.8752 44.5833C20.6104 44.5833 19.5836 45.6103 19.5836 46.8751V55.5834C19.5836 56.5915 18.7581 57.4168 17.7503 57.4168C16.7422 57.4168 15.9168 56.5915 15.9168 55.5834L12.7908 44.6389C9.45442 45.5734 7.12609 47.1955 5.20144 49.7074C4.4405 50.6974 4.02704 52.6865 4 53.7502C4.00908 54.0252 4 54.3461 4 54.6665V56.5V58.3335C4 60.3593 5.64094 62 7.66678 62H36.0833C38.1091 62 39.7503 60.3593 39.7503 58.3335V56.5V54.6665C39.7503 54.3461 39.7413 54.0252 39.7503 53.7502C39.7226 52.6865 39.3096 50.6973 38.5491 49.7074ZM12.2501 27.6983C12.2501 33.0516 15.5875 40.9167 21.8752 40.9167C28.0536 40.9167 31.5 33.0516 31.5 27.6983C31.5 22.3452 27.1917 18 21.8752 18C16.5587 18 12.2501 22.3452 12.2501 27.6983Z" fill="#61A600"/>
<circle cx="49" cy="15" r="15" fill="#61A600"/>
<path fill-rule="evenodd" clip-rule="evenodd" d="M58.3467 9.31035L45.3259 22.9821L39.6521 17.0246L41.2038 15.5468L45.3259 19.875L56.795 7.83252L58.3467 9.31035Z" fill="white"/>
</svg>
