<svg width="17" height="16" viewBox="0 0 17 16" fill="none" xmlns="http://www.w3.org/2000/svg">
<path d="M1.16797 13.9987L8.5013 1.33203L15.8346 13.9987H1.16797ZM8.5013 11.9987C8.69019 11.9987 8.84852 11.9348 8.9763 11.807C9.10408 11.6793 9.16797 11.5209 9.16797 11.332C9.16797 11.1431 9.10408 10.9848 8.9763 10.857C8.84852 10.7293 8.69019 10.6654 8.5013 10.6654C8.31241 10.6654 8.15408 10.7293 8.0263 10.857C7.89852 10.9848 7.83464 11.1431 7.83464 11.332C7.83464 11.5209 7.89852 11.6793 8.0263 11.807C8.15408 11.9348 8.31241 11.9987 8.5013 11.9987ZM7.83464 9.9987H9.16797V6.66536H7.83464V9.9987Z" fill="black"/>
</svg>
