<svg width="25" height="24" viewBox="0 0 25 24" fill="none" xmlns="http://www.w3.org/2000/svg">
<path d="M7.76105 0H2.30655C1.10158 0 0.124756 0.976825 0.124756 2.1818V7.6363C0.124756 8.84127 1.10158 9.8181 2.30655 9.8181H7.76105C8.96603 9.8181 9.94285 8.84127 9.94285 7.6363V2.1818C9.94285 0.976825 8.96603 0 7.76105 0Z" fill="#FED000"/>
<path d="M21.9427 0H16.4882C15.2832 0 14.3064 0.976825 14.3064 2.1818V7.6363C14.3064 8.84127 15.2832 9.8181 16.4882 9.8181H21.9427C23.1477 9.8181 24.1245 8.84127 24.1245 7.6363V2.1818C24.1245 0.976825 23.1477 0 21.9427 0Z" fill="#FED000"/>
<path d="M7.76105 14.1816H2.30655C1.10158 14.1816 0.124756 15.1585 0.124756 16.3634V21.8179C0.124756 23.0229 1.10158 23.9997 2.30655 23.9997H7.76105C8.96603 23.9997 9.94285 23.0229 9.94285 21.8179V16.3634C9.94285 15.1585 8.96603 14.1816 7.76105 14.1816Z" fill="#FED000"/>
<path d="M21.9427 14.1816H16.4882C15.2832 14.1816 14.3064 15.1585 14.3064 16.3634V21.8179C14.3064 23.0229 15.2832 23.9997 16.4882 23.9997H21.9427C23.1477 23.9997 24.1245 23.0229 24.1245 21.8179V16.3634C24.1245 15.1585 23.1477 14.1816 21.9427 14.1816Z" fill="#FED000"/>
</svg>
