<svg width="41" height="40" viewBox="0 0 41 40" fill="none" xmlns="http://www.w3.org/2000/svg">
<path d="M15.7611 8H10.3066C9.10158 8 8.12476 8.97682 8.12476 10.1818V15.6363C8.12476 16.8413 9.10158 17.8181 10.3066 17.8181H15.7611C16.966 17.8181 17.9429 16.8413 17.9429 15.6363V10.1818C17.9429 8.97682 16.966 8 15.7611 8Z" fill="#FED000"/>
<path d="M29.9427 8H24.4882C23.2832 8 22.3064 8.97682 22.3064 10.1818V15.6363C22.3064 16.8413 23.2832 17.8181 24.4882 17.8181H29.9427C31.1477 17.8181 32.1245 16.8413 32.1245 15.6363V10.1818C32.1245 8.97682 31.1477 8 29.9427 8Z" fill="#FED000"/>
<path d="M15.7611 22.1817H10.3066C9.10158 22.1817 8.12476 23.1585 8.12476 24.3635V29.818C8.12476 31.0229 9.10158 31.9998 10.3066 31.9998H15.7611C16.966 31.9998 17.9429 31.0229 17.9429 29.818V24.3635C17.9429 23.1585 16.966 22.1817 15.7611 22.1817Z" fill="#FED000"/>
<path d="M29.9427 22.1817H24.4882C23.2832 22.1817 22.3064 23.1585 22.3064 24.3635V29.818C22.3064 31.0229 23.2832 31.9998 24.4882 31.9998H29.9427C31.1477 31.9998 32.1245 31.0229 32.1245 29.818V24.3635C32.1245 23.1585 31.1477 22.1817 29.9427 22.1817Z" fill="#FED000"/>
</svg>
