<svg width="40" height="35" viewBox="0 0 40 35" fill="none" xmlns="http://www.w3.org/2000/svg">
<g filter="url(#filter0_di_3810_19683)">
<path d="M15.6699 2.5C17.5944 -0.833337 22.4056 -0.833334 24.3301 2.5L37.4385 25.2044C39.7356 29.183 35.9018 33.8933 31.5396 32.4519L21.5687 29.1572C20.55 28.8206 19.45 28.8206 18.4313 29.1572L8.46036 32.4519C4.09824 33.8933 0.264448 29.183 2.5615 25.2044L15.6699 2.5Z" fill="url(#paint0_linear_3810_19683)"/>
<path d="M15.8864 2.625C17.7147 -0.54167 22.2853 -0.541668 24.1136 2.625L37.222 25.3294C39.4042 29.109 35.7621 33.5838 31.6181 32.2145L21.6472 28.9198C20.5775 28.5663 19.4225 28.5663 18.3528 28.9198L8.38193 32.2145C4.2379 33.5838 0.595807 29.109 2.77801 25.3294L15.8864 2.625Z" stroke="url(#paint1_linear_3810_19683)" stroke-width="0.5"/>
</g>
<defs>
<filter id="filter0_di_3810_19683" x="0.873535" y="0" width="38.2529" height="36.7173" filterUnits="userSpaceOnUse" color-interpolation-filters="sRGB">
<feFlood flood-opacity="0" result="BackgroundImageFix"/>
<feColorMatrix in="SourceAlpha" type="matrix" values="0 0 0 0 0 0 0 0 0 0 0 0 0 0 0 0 0 0 127 0" result="hardAlpha"/>
<feOffset dy="1"/>
<feGaussianBlur stdDeviation="0.5"/>
<feComposite in2="hardAlpha" operator="out"/>
<feColorMatrix type="matrix" values="0 0 0 0 0 0 0 0 0 0 0 0 0 0 0 0 0 0 0.1 0"/>
<feBlend mode="normal" in2="BackgroundImageFix" result="effect1_dropShadow_3810_19683"/>
<feBlend mode="normal" in="SourceGraphic" in2="effect1_dropShadow_3810_19683" result="shape"/>
<feColorMatrix in="SourceAlpha" type="matrix" values="0 0 0 0 0 0 0 0 0 0 0 0 0 0 0 0 0 0 127 0" result="hardAlpha"/>
<feOffset dy="4"/>
<feGaussianBlur stdDeviation="2"/>
<feComposite in2="hardAlpha" operator="arithmetic" k2="-1" k3="1"/>
<feColorMatrix type="matrix" values="0 0 0 0 0.95 0 0 0 0 0.624907 0 0 0 0 0.126667 0 0 0 1 0"/>
<feBlend mode="normal" in2="shape" result="effect2_innerShadow_3810_19683"/>
</filter>
<linearGradient id="paint0_linear_3810_19683" x1="6.4049" y1="17.484" x2="40.7409" y2="35.6106" gradientUnits="userSpaceOnUse">
<stop stop-color="#D06C12"/>
<stop offset="0.415" stop-color="#FCC10F"/>
<stop offset="0.745" stop-color="#C87307"/>
<stop offset="1" stop-color="#FE9C28"/>
</linearGradient>
<linearGradient id="paint1_linear_3810_19683" x1="12" y1="1.5" x2="32.5" y2="34" gradientUnits="userSpaceOnUse">
<stop stop-color="#C76500"/>
<stop offset="1" stop-color="#FE9F32"/>
</linearGradient>
</defs>
</svg>
