<svg width="24" height="25" viewBox="0 0 24 25" fill="none" xmlns="http://www.w3.org/2000/svg">
<path d="M20.9591 4.19141H4.56094C3.72569 4.19141 2.92465 4.54395 2.33404 5.17147C1.74342 5.799 1.41162 6.6501 1.41162 7.53756V16.6529C1.41162 17.5098 1.73198 18.3316 2.30223 18.9374C2.87248 19.5433 3.6459 19.8837 4.45235 19.8837H4.88673V22.1729C4.88673 22.7899 5.11739 23.3815 5.52797 23.8178C5.93855 24.254 6.49541 24.4991 7.07606 24.4991H18.3354C18.9161 24.4991 19.4729 24.254 19.8835 23.8178C20.2941 23.3815 20.5247 22.7899 20.5247 22.1729V19.8837H20.9591C21.7656 19.8837 22.539 19.5433 23.1092 18.9374C23.6795 18.3316 23.9999 17.5098 23.9999 16.6529V7.42218C23.9999 6.56532 23.6795 5.74356 23.1092 5.13768C22.539 4.53179 21.7656 4.19141 20.9591 4.19141ZM18.7872 22.1729C18.7868 22.3001 18.739 22.4219 18.6544 22.5119C18.5698 22.6018 18.4551 22.6525 18.3354 22.6529H7.07606C6.95637 22.6525 6.84171 22.6018 6.75708 22.5119C6.67245 22.4219 6.62472 22.3001 6.62429 22.1729V12.9791C6.62472 12.8519 6.67245 12.7301 6.75708 12.6402C6.84171 12.5503 6.95637 12.4996 7.07606 12.4991H18.3354C18.4551 12.4996 18.5698 12.5503 18.6544 12.6402C18.739 12.7301 18.7868 12.8519 18.7872 12.9791V22.1729ZM20.199 9.72525C19.9332 9.74795 19.6672 9.68347 19.437 9.54052C19.2068 9.39756 19.0234 9.18301 18.9115 8.92582C18.7997 8.66862 18.7648 8.38117 18.8116 8.10225C18.8583 7.82332 18.9845 7.56635 19.1731 7.36602C19.3616 7.16568 19.6035 7.03162 19.866 6.98193C20.1285 6.93224 20.399 6.96931 20.6411 7.08814C20.8832 7.20697 21.0851 7.40183 21.2197 7.64644C21.3542 7.89104 21.4149 8.17362 21.3935 8.45602C21.3687 8.78385 21.2349 9.0916 21.016 9.32416C20.7971 9.55672 20.5075 9.6989 20.199 9.72525Z" fill="white"/>
<path d="M17.4838 0.5H7.9272C7.19634 0.501156 6.49025 0.781517 5.9378 1.28991C5.38535 1.7983 5.02338 2.50082 4.91797 3.26923H20.493C20.3876 2.50082 20.0256 1.7983 19.4732 1.28991C18.9207 0.781517 18.2146 0.501156 17.4838 0.5Z" fill="white"/>
</svg>
