<svg width="64" height="64" viewBox="0 0 64 64" fill="none" xmlns="http://www.w3.org/2000/svg">
<path d="M35.1703 48.2798C35.1178 48.1673 35.0428 48.0623 34.9378 47.8898C34.8778 48.2498 34.8328 48.5123 34.7803 48.7748C33.3853 55.5998 26.6203 60.2873 19.5103 58.9448C12.8353 57.6923 8.16274 51.4373 9.01775 44.7773C9.51275 40.9298 11.3803 37.8698 14.6128 35.6423C14.8528 35.4773 14.9428 35.3198 14.9128 35.0348C14.8003 33.7898 14.7178 32.5448 14.6128 31.2998C14.5828 30.9473 14.5453 30.6023 14.5003 30.1973C14.2603 30.3098 14.0728 30.3923 13.8928 30.4823C6.76774 34.0298 2.38023 42.2723 4.56273 50.6948C6.28024 57.3248 11.9353 62.5298 18.7603 63.7298C19.2853 63.8198 19.8103 63.9098 20.3428 63.9998H23.5753C23.6803 63.9698 23.7853 63.9323 23.8978 63.9248C26.0653 63.6998 28.1203 63.0923 30.0553 62.1248C33.4603 60.4223 36.0928 57.9248 37.9303 54.6173C38.0728 54.3548 38.0803 54.1523 37.9453 53.8823C37.0078 52.0223 36.0928 50.1548 35.1628 48.2873L35.1703 48.2798Z" fill="#61A600"/>
<path d="M50.5142 51.0421C48.6992 51.6871 46.9292 52.3171 45.1142 52.9621C42.7366 47.5545 40.3741 42.177 38.0041 36.777C32.4466 36.8145 26.9191 36.8445 21.3466 36.882C21.2716 35.862 21.1966 34.872 21.1141 33.822H23.5741C24.3691 33.822 25.1566 33.822 25.9516 33.822C26.7616 33.822 27.5641 33.822 28.3741 33.822C29.1691 33.822 29.9566 33.822 30.7516 33.822C31.5541 33.822 32.3491 33.837 33.1516 33.8145V29.307H20.6566C20.4691 26.052 20.2891 22.8495 20.1091 19.647C20.2516 19.617 20.3266 19.587 20.4016 19.5795C23.0416 19.1895 24.8341 16.6545 24.4591 14.127C24.0916 11.6445 21.7066 9.76196 19.1716 10.0245C15.8266 10.3695 13.8241 13.7445 15.1666 16.782C15.3016 17.0895 15.3691 17.397 15.3916 17.727C15.5266 19.707 15.6616 21.687 15.8041 23.667C16.0441 26.937 16.2841 30.207 16.5241 33.4845C16.6966 35.9145 16.8616 38.3445 17.0341 40.7745C17.0491 40.9395 17.0791 41.112 17.1091 41.3145H35.0041C37.4566 46.9845 39.9016 52.6246 42.3541 58.2871C45.5867 57.0346 48.7817 55.7971 52.0067 54.5521C51.4967 53.3521 51.0092 52.2121 50.5067 51.0421H50.5142Z" fill="#61A600"/>
<circle cx="49" cy="15" r="15" fill="#61A600"/>
<path fill-rule="evenodd" clip-rule="evenodd" d="M58.3464 9.31047L45.3257 22.9823L39.6519 17.0248L41.2036 15.5469L45.3257 19.8751L56.7947 7.83264L58.3464 9.31047Z" fill="white"/>
</svg>
