<svg width="48" height="48" viewBox="0 0 48 48" fill="none" xmlns="http://www.w3.org/2000/svg">
<path d="M12.5841 39.8625L3.33852 39.8392C1.88778 39.8359 0.605577 38.9612 0.166059 37.5721C0.0545267 37.22 0 36.8471 0 36.4768V30.7373C0 28.9253 1.49535 27.3731 3.33852 27.3748L12.4073 27.3864C12.998 27.3864 13.492 26.9212 13.492 26.3186V24.6141C13.4937 23.8034 13.706 23.0527 14.2934 22.4609C15.3707 21.3773 17.0883 21.4031 18.1557 22.4801L26.847 31.2516C27.7764 32.1888 28.0598 33.4922 27.6756 34.6565C27.4831 35.2408 27.1427 35.7019 26.7181 36.1305L18.1946 44.7315C17.6443 45.2866 16.9751 45.5321 16.3175 45.5346C14.8098 45.5388 13.5102 44.2953 13.5053 42.7664L13.4978 41.0253C13.4962 40.5267 13.1541 39.8625 12.5841 39.8625Z" fill="#231F20"/>
<path fill-rule="evenodd" clip-rule="evenodd" d="M3.34301 39.5606L12.5886 39.5839C13.1512 39.5856 13.775 40.2048 13.7783 40.9115L13.7857 42.7641C13.794 44.8832 16.4278 46.1258 18.0041 44.5344L26.6507 35.8087C27.8866 34.561 27.8676 32.6676 26.6565 31.4458L17.9652 22.6742C16.4195 21.1145 13.7725 22.1623 13.7725 24.4736V26.3172C13.7725 27.0696 13.1752 27.6638 12.4118 27.663L3.34301 27.6513C1.95918 27.6488 0.28125 28.745 0.28125 30.7358V36.4753C0.28125 38.2273 1.55354 39.5556 3.34301 39.5606Z" fill="#9F9F9F"/>
<path fill-rule="evenodd" clip-rule="evenodd" d="M3.34301 39.5614L12.5886 39.5847C13.1512 39.5855 13.775 40.2056 13.7774 40.9122L13.7849 42.7649C13.7931 44.8848 16.4269 46.1265 18.0032 44.5352L26.6507 35.8102C27.3868 35.067 27.6776 34.0949 27.5355 33.1719C23.2147 34.2222 18.0726 34.8315 12.5531 34.8315C8.14631 34.8315 3.9808 34.4436 0.28125 33.7512V36.4769C0.28125 38.2289 1.55354 39.5564 3.34301 39.5614Z" fill="white" fill-opacity="0.2"/>
<path fill-rule="evenodd" clip-rule="evenodd" d="M27.5471 34.0023C27.6611 33.0968 27.3604 32.1596 26.6556 31.4497L17.9652 22.6781C16.4195 21.1184 13.7725 22.1663 13.7725 24.4767V25.2266C13.7725 22.9153 16.4203 21.8675 17.9652 23.4272L26.6556 32.1988C27.1662 32.714 27.4636 33.3482 27.5471 34.0023ZM13.7725 26.3203C13.7725 27.0727 13.1752 27.6677 12.4118 27.6669L3.34301 27.6553C1.95836 27.6536 0.28125 28.7489 0.28125 30.7398V31.4896C0.28125 29.4988 1.95918 28.4027 3.34301 28.4043L12.4118 28.4168C13.1752 28.4176 13.7725 27.8242 13.7725 27.071V26.3211V26.3203Z" fill="#D9F4FF"/>
<path fill-rule="evenodd" clip-rule="evenodd" d="M3.34301 39.5641L12.5886 39.5874C13.1512 39.5882 13.775 40.2083 13.7774 40.9149L13.7849 42.7676C13.7931 44.8875 16.4269 46.1292 18.0032 44.5379L26.6507 35.8129C27.3785 35.0789 27.6702 34.1209 27.5405 33.207C27.4504 33.8421 27.1555 34.4588 26.6507 34.9682L18.0032 43.694C16.4261 45.2853 13.7923 44.0427 13.7849 41.9237L13.7774 40.071C13.7741 39.3644 13.1504 38.7443 12.5886 38.7435L3.34301 38.7193C1.55354 38.7152 0.28125 37.3868 0.28125 35.6348V36.4796C0.28125 38.2316 1.55354 39.5591 3.34301 39.5641Z" fill="#3D3D3D"/>
<path d="M35.4141 21.8056L44.6597 21.7815C46.1104 21.7781 47.3926 20.9034 47.8321 19.5143C47.9436 19.1622 47.9982 18.7894 47.9982 18.419V12.6803C47.9982 10.8684 46.5028 9.31536 44.6597 9.31785L35.5909 9.32951C35.0002 9.32951 34.5061 8.86425 34.5061 8.26084V6.5563C34.5045 5.74564 34.2921 4.99408 33.7047 4.40232C32.6274 3.31867 30.9098 3.34447 29.8424 4.42146L21.1512 13.193C20.2218 14.131 19.9384 15.4336 20.3226 16.5979C20.5159 17.1814 20.8555 17.6433 21.2801 18.0711L29.8036 26.6729C30.3538 27.228 31.023 27.4735 31.6807 27.476C33.1884 27.4802 34.488 26.2368 34.4929 24.7087L34.5003 22.9675C34.502 22.469 34.844 21.8048 35.4141 21.8048V21.8056Z" fill="#231F20"/>
<path fill-rule="evenodd" clip-rule="evenodd" d="M44.6657 21.5051L35.4202 21.5293C34.8575 21.5301 34.2338 22.1493 34.2313 22.8568L34.2239 24.7095C34.2156 26.8285 31.5818 28.0711 30.0047 26.4798L21.3581 17.754C20.1221 16.5072 20.1411 14.6137 21.3523 13.3911L30.0427 4.61954C31.5884 3.05982 34.2354 4.10768 34.2354 6.41813V8.26167C34.2354 9.01406 34.8319 9.60832 35.5961 9.60832L44.6649 9.59584C46.0487 9.59417 47.7267 10.6903 47.7267 12.6812V18.4198C47.7267 20.171 46.4544 21.5002 44.6649 21.5043L44.6657 21.5051Z" fill="url(#paint0_linear_13249_239152)"/>
<path fill-rule="evenodd" clip-rule="evenodd" d="M44.6573 21.5067L35.4117 21.5309C34.8491 21.5317 34.2254 22.1517 34.222 22.8584L34.2146 24.7102C34.2064 26.8301 31.5725 28.0719 29.9954 26.4813L21.348 17.7556C20.6119 17.0123 20.3211 16.0402 20.4632 15.1172C24.784 16.1675 29.926 16.7768 35.4456 16.7768C39.8523 16.7768 44.0178 16.3881 47.7174 15.6965V18.4222C47.7174 20.1742 46.4451 21.5026 44.6556 21.5067H44.6573Z" fill="white" fill-opacity="0.2"/>
<path fill-rule="evenodd" clip-rule="evenodd" d="M20.461 15.9444C20.347 15.0388 20.6477 14.1017 21.3525 13.3917L30.0429 4.61934C31.5886 3.05961 34.2356 4.10831 34.2356 6.41876V7.16866C34.2356 4.85737 31.5878 3.80951 30.0429 5.37007L21.3525 14.1416C20.8419 14.6568 20.5445 15.2902 20.461 15.9452V15.9444ZM34.2365 8.26229C34.2365 9.01469 34.8329 9.60978 35.5971 9.60895L44.6659 9.59646C46.0506 9.5948 47.7277 10.6909 47.7277 12.6809V13.4308C47.7277 11.4392 46.0497 10.3447 44.6659 10.3455L35.5971 10.3572C34.8338 10.358 34.2365 9.76375 34.2365 9.01136V8.26146V8.26229Z" fill="#ECFFDE"/>
<path fill-rule="evenodd" clip-rule="evenodd" d="M44.6572 21.5047L35.4116 21.5288C34.849 21.5296 34.2253 22.1497 34.222 22.8563L34.2145 24.7082C34.2063 26.828 31.5725 28.0698 29.9953 26.4793L21.3479 17.7535C20.62 17.0194 20.3284 16.0615 20.4581 15.1484C20.5482 15.7835 20.8431 16.4002 21.3479 16.9096L29.9953 25.6345C31.5725 27.2267 34.2063 25.9841 34.2145 23.8642L34.222 22.0115C34.2245 21.3049 34.849 20.6849 35.4116 20.684L44.6572 20.6607C46.4467 20.6557 47.719 19.3274 47.719 17.5762V18.4202C47.719 20.1722 46.4467 21.5005 44.6572 21.5047Z" fill="#61C200"/>
<defs>
<linearGradient id="paint0_linear_13249_239152" x1="29.4" y1="13.2023" x2="37.2" y2="26.4023" gradientUnits="userSpaceOnUse">
<stop stop-color="#4B8927"/>
<stop offset="1" stop-color="#D0FF7C"/>
</linearGradient>
</defs>
</svg>
