<svg width="40" height="40" viewBox="0 0 40 40" fill="none" xmlns="http://www.w3.org/2000/svg">
<path d="M36.6673 13.6071V12.3389C35.2408 12.3389 34.084 10.9784 34.084 9.30078L5.9959 9.30078C5.9959 10.9784 4.839 12.3389 3.41253 12.3389C3.38705 12.3389 3.35946 12.3389 3.33398 12.3389L3.33398 13.6096C3.91137 13.6096 4.37837 14.1663 4.37837 14.8503C4.37837 15.5343 3.91137 16.091 3.33398 16.091V17.2393C3.91137 17.2393 4.37837 17.796 4.37837 18.48C4.37837 19.164 3.91137 19.7207 3.33398 19.7207V20.8691C3.91137 20.8691 4.37837 21.4258 4.37837 22.1098C4.37837 22.7938 3.91137 23.3505 3.33398 23.3505L3.33398 24.4988C3.91137 24.4988 4.37837 25.0555 4.37837 25.7395C4.37837 26.4235 3.91137 26.9802 3.33398 26.9802V28.2709C3.35946 28.2709 3.38705 28.2709 3.41253 28.2709C4.839 28.2709 5.9959 29.6314 5.9959 31.309C5.9959 31.4488 5.98741 31.5836 5.97255 31.7184L34.1073 31.7184C34.0924 31.5836 34.084 31.4488 34.084 31.309C34.084 29.6314 35.2408 28.2709 36.6673 28.2709V26.9827C36.0899 26.9827 35.6229 26.426 35.6229 25.742C35.6229 25.058 36.0899 24.5013 36.6673 24.5013V23.353C36.0899 23.353 35.6229 22.7963 35.6229 22.1123C35.6229 21.4283 36.0899 20.8716 36.6673 20.8716V19.7232C36.0899 19.7232 35.6229 19.1665 35.6229 18.4825C35.6229 17.7985 36.0899 17.2418 36.6673 17.2418V16.0935C36.0899 16.0935 35.6229 15.5368 35.6229 14.8528C35.6229 14.1687 36.0899 13.6121 36.6673 13.6121V13.6071Z" fill="#703E19"/>
<path d="M36.6673 13.2106V11.9424C35.2408 11.9424 34.084 10.5819 34.084 8.9043L5.9959 8.9043C5.9959 10.5819 4.839 11.9424 3.41253 11.9424C3.38705 11.9424 3.35946 11.9424 3.33398 11.9424L3.33398 13.2131C3.91137 13.2131 4.37837 13.7698 4.37837 14.4538C4.37837 15.1378 3.91137 15.6945 3.33398 15.6945V16.8428C3.91137 16.8428 4.37837 17.3995 4.37837 18.0835C4.37837 18.7675 3.91137 19.3242 3.33398 19.3242V20.4726C3.91137 20.4726 4.37837 21.0293 4.37837 21.7133C4.37837 22.3973 3.91137 22.954 3.33398 22.954L3.33398 24.1023C3.91137 24.1023 4.37837 24.659 4.37837 25.343C4.37837 26.0271 3.91137 26.5838 3.33398 26.5838V27.8744C3.35946 27.8744 3.38705 27.8744 3.41253 27.8744C4.839 27.8744 5.9959 29.2349 5.9959 30.9125C5.9959 31.0523 5.98741 31.1871 5.97255 31.3219L34.1073 31.3219C34.0924 31.1871 34.084 31.0523 34.084 30.9125C34.084 29.2349 35.2408 27.8744 36.6673 27.8744V26.5862C36.0899 26.5862 35.6229 26.0296 35.6229 25.3455C35.6229 24.6615 36.0899 24.1048 36.6673 24.1048V22.9565C36.0899 22.9565 35.6229 22.3998 35.6229 21.7158C35.6229 21.0318 36.0899 20.4751 36.6673 20.4751V19.3267C36.0899 19.3267 35.6229 18.77 35.6229 18.086C35.6229 17.402 36.0899 16.8453 36.6673 16.8453V15.697C36.0899 15.697 35.6229 15.1403 35.6229 14.4563C35.6229 13.7723 36.0899 13.2156 36.6673 13.2156V13.2106Z" fill="url(#paint0_linear_6354_50636)"/>
<path d="M28.25 27.4216V27.1973L28.027 27.173L25.9015 26.9417L22.3726 21.4116C23.5878 20.9251 24.5271 20.246 25.1738 19.3656C25.872 18.4151 26.2141 17.25 26.2141 15.8859C26.2141 14.1435 25.7501 12.8059 24.7747 11.9277C24.2338 11.4346 23.4341 11.0821 22.4038 10.8512C21.3703 10.6196 20.0846 10.5059 18.5514 10.5059H12.2349H12.0305L11.9899 10.7063C11.8496 11.3993 11.7684 11.9659 11.7502 12.4011L11.7422 12.5928L11.9253 12.6501L13.9194 13.2747C13.9376 14.3907 13.9714 16.4387 14.0208 19.4186C14.0715 22.474 14.114 25.0948 14.1482 27.281C13.6937 27.4051 13.0119 27.6582 12.1128 28.0322L11.9313 28.1077L11.9618 28.3019L12.1968 29.7947L12.23 30.0059H12.4437H18.8907H19.0479L19.116 29.8642C19.5286 29.0061 19.741 28.1819 19.741 27.3944V27.1713L19.5193 27.146L17.8388 26.9545L17.9104 21.8901H18.3612L23.4035 29.8892L23.4771 30.0059H23.615H27.3997H27.5522L27.622 29.8702C28.0381 29.0612 28.25 28.2442 28.25 27.4216ZM18.9385 18.8116L18.9376 18.8116L17.9142 18.8333C17.9162 17.636 17.9324 15.9318 17.9627 13.7201H18.447C19.3424 13.7201 20.0426 13.7831 20.5552 13.9033C21.068 14.0285 21.4293 14.2574 21.6654 14.5758C21.9031 14.8964 22.0338 15.3345 22.0338 15.913C22.0338 17.1146 21.7352 17.8425 21.2258 18.2062C20.6889 18.5835 19.9349 18.7941 18.9385 18.8116Z" fill="url(#paint1_linear_6354_50636)" stroke="#FFF379" stroke-width="0.5"/>
<path d="M32.4849 29.9547L7.50242 29.9547V29.8324C7.50242 28.2971 6.70002 27.1837 5.5962 27.1837H5.49219L5.49219 13.5659H5.5962C6.80828 13.5659 7.87178 12.3277 7.87178 10.9172V10.7949L32.0943 10.7949L32.0986 10.9123C32.1516 12.3252 33.2279 13.5659 34.4039 13.5659H34.5079V27.1837H34.4039C33.2915 27.1837 32.4849 28.2971 32.4849 29.8324V29.9547ZM7.71045 29.7101L32.2769 29.7101C32.2981 28.9737 32.4998 28.2971 32.8521 27.7954C33.0411 27.5257 33.2682 27.3161 33.525 27.1688C33.7628 27.034 34.0239 26.9566 34.2977 26.9416V13.8081C34.0196 13.7931 33.7437 13.7157 33.4762 13.5784C33.1875 13.4286 32.9201 13.2189 32.6866 12.9518C32.4509 12.6822 32.262 12.3751 32.1262 12.0331C31.9967 11.7136 31.9203 11.3816 31.8948 11.0421L8.07768 11.0421C8.06494 11.3866 7.99489 11.7261 7.86965 12.0481C7.73804 12.3901 7.55124 12.6997 7.31562 12.9668C6.86772 13.4736 6.28397 13.7781 5.70022 13.8106L5.70022 26.9441C5.97405 26.9591 6.23302 27.0365 6.47077 27.1713C6.7255 27.316 6.95263 27.5282 7.13943 27.7979C7.48968 28.2971 7.68922 28.9737 7.70832 29.7126L7.71045 29.7101Z" fill="#FFF379"/>
<path d="M32.296 29.6969L7.70408 29.6969V29.5746C7.70408 28.1142 6.75946 26.9259 5.5962 26.9259H5.49219L5.49219 13.3081H5.5962C6.75734 13.3081 7.70408 12.1198 7.70408 10.6594V10.5371L32.2981 10.5371V10.6594C32.2981 12.1198 33.2427 13.3081 34.406 13.3081H34.51V26.9259H34.406C33.2449 26.9259 32.2981 28.1142 32.2981 29.5746V29.6969H32.296ZM7.90998 29.4523L32.0901 29.4523C32.1134 28.7258 32.3512 28.0493 32.7651 27.5326C33.179 27.0158 33.7203 26.7162 34.2999 26.6863V13.5528C33.7182 13.5203 33.1769 13.2232 32.7651 12.7065C32.3533 12.1897 32.1156 11.5107 32.0901 10.7867L7.90998 10.7867C7.88663 11.5132 7.64889 12.1897 7.23495 12.7065C6.82102 13.2232 6.27972 13.5228 5.70022 13.5528L5.70022 26.6863C6.28185 26.7187 6.82314 27.0158 7.23495 27.5326C7.64677 28.0493 7.88451 28.7283 7.90998 29.4523Z" fill="#703E19"/>
<defs>
<linearGradient id="paint0_linear_6354_50636" x1="2.95401" y1="20.1156" x2="37.0388" y2="20.1156" gradientUnits="userSpaceOnUse">
<stop offset="0.14" stop-color="#FED524"/>
<stop offset="0.42" stop-color="#FFD10F"/>
<stop offset="0.52" stop-color="#F3C62F"/>
<stop offset="0.53" stop-color="#F4CA40"/>
<stop offset="0.55" stop-color="#F8D76C"/>
<stop offset="0.57" stop-color="#FBE18E"/>
<stop offset="0.6" stop-color="#FDE9A7"/>
<stop offset="0.62" stop-color="#FEEDB6"/>
<stop offset="0.63" stop-color="#FFEFBC"/>
<stop offset="0.67" stop-color="#F8DF95"/>
<stop offset="0.74" stop-color="#EFC657"/>
<stop offset="0.78" stop-color="#E9B630"/>
<stop offset="0.81" stop-color="#E7B122"/>
</linearGradient>
<linearGradient id="paint1_linear_6354_50636" x1="20.0126" y1="-15.8972" x2="20.0126" y2="-15.8972" gradientUnits="userSpaceOnUse">
<stop offset="0.07" stop-color="#AC6D29"/>
<stop offset="0.41" stop-color="#7A491D"/>
<stop offset="0.8" stop-color="#492511"/>
<stop offset="1" stop-color="#36170D"/>
</linearGradient>
</defs>
</svg>
