<svg width="35" height="32" viewBox="0 0 35 32" fill="none" xmlns="http://www.w3.org/2000/svg">
<path d="M17.0535 0C14.2662 0.0022223 11.534 0.777189 9.16066 2.23879C6.78728 3.7004 4.86559 5.7914 3.60913 8.27948H7.77328C8.84079 6.81916 10.2372 5.6308 11.8495 4.81066C13.4618 3.99052 15.2446 3.56166 17.0535 3.55881C19.7683 3.56148 22.3948 4.52297 24.4697 6.27361C26.5445 8.02425 27.9343 10.4515 28.3939 13.1271L25.1768 13.1222L27.5933 17.3303L30.0049 21.5335L32.4409 17.34L34.8769 13.1466L31.9868 13.1368C31.5164 9.50761 29.7417 6.17344 26.994 3.75627C24.2463 1.3391 20.7131 0.00399915 17.0535 0ZM5.04437 10.4665L2.60837 14.6599L0.172363 18.8534L3.06237 18.8632C3.53285 22.4924 5.30747 25.8266 8.05519 28.2437C10.8029 30.6609 14.3361 31.996 17.9957 32C20.783 31.9978 23.5152 31.2228 25.8886 29.7612C28.2619 28.2996 30.1836 26.2086 31.4401 23.7205H27.2759C26.2084 25.1808 24.812 26.3692 23.1997 27.1893C21.5874 28.0095 19.8046 28.4383 17.9957 28.4412C15.281 28.4385 12.6544 27.477 10.5796 25.7264C8.50469 23.9757 7.11487 21.5485 6.65535 18.8729L9.87244 18.8778L7.45596 14.6697L5.04437 10.4665Z" fill="black"/>
</svg>
