<svg width="34" height="48" viewBox="0 0 34 48" fill="none" xmlns="http://www.w3.org/2000/svg">
<path d="M31.1735 24.5059C30.3146 25.4658 29.1019 26.0216 27.6872 25.9711L26.9293 25.9206C26.6262 26.4258 26.4746 27.0321 26.4746 27.6385V46.5856C26.4746 47.3435 27.0809 48.0003 27.8893 48.0003C28.6472 48.0003 29.304 47.394 29.304 46.5856V27.6385C29.304 27.2848 29.6072 27.0321 29.9104 27.0321C30.264 27.0321 30.5167 27.2848 30.5167 27.6385C30.5167 28.3963 31.123 29.0532 31.9314 29.0532C32.6893 29.0532 33.3461 28.4469 33.3461 27.6385C33.245 26.2237 32.3861 25.0111 31.1735 24.5059Z" fill="#61A600"/>
<path d="M27.8909 24.3028C29.3562 24.3028 30.6193 23.1407 30.6698 21.6249C30.7204 20.1091 29.5583 18.7955 27.992 18.7449L24.4047 18.5934L22.7373 15.4102C21.9794 13.9955 21.0194 12.7324 19.8068 11.7219L19.4531 11.4187C17.3311 9.59979 14.7543 8.4377 12.0259 7.98297L6.11437 7.07351C4.95228 6.92193 3.84072 7.47771 3.23441 8.48823L0.354444 13.6924C-0.403441 15.0566 0.101815 16.7239 1.41548 17.4818C2.77968 18.2397 4.44702 17.7344 5.20491 16.4208L7.17541 12.884L10.1059 13.3387L3.84072 21.7765C2.98178 22.9386 2.93125 24.5049 3.73966 25.667L9.80274 34.5595V44.6646C9.80274 46.5341 11.3185 47.9993 13.1374 47.9993C15.0069 47.9993 16.4721 46.4835 16.4721 44.6646V33.4984C16.4721 32.8416 16.27 32.1848 15.8658 31.629L12.7838 27.1322C12.8343 27.0817 12.9353 26.9806 12.9859 26.8796L18.6953 19.8565L20.11 22.5849C20.5647 23.4438 21.4742 24.0501 22.4847 24.0501L27.7394 24.3028C27.7899 24.3028 27.8404 24.3028 27.8909 24.3028Z" fill="#61A600"/>
<path d="M24.0981 11.4188C27.2513 11.4188 29.8075 8.86261 29.8075 5.7094C29.8075 2.55619 27.2513 0 24.0981 0C20.9449 0 18.3887 2.55619 18.3887 5.7094C18.3887 8.86261 20.9449 11.4188 24.0981 11.4188Z" fill="#61A600"/>
</svg>
