<svg width="64" height="64" viewBox="0 0 64 64" fill="none" xmlns="http://www.w3.org/2000/svg">
<path d="M31.8764 41.4843C31.0533 42.4043 29.8912 42.937 28.5354 42.8886L27.8091 42.8401C27.5186 43.3243 27.3733 43.9054 27.3733 44.4864V62.6443C27.3733 63.3706 27.9543 64.0001 28.7291 64.0001C29.4554 64.0001 30.0849 63.4191 30.0849 62.6443V44.4864C30.0849 44.1475 30.3754 43.9054 30.6659 43.9054C31.0049 43.9054 31.247 44.1475 31.247 44.4864C31.247 45.2128 31.828 45.8422 32.6028 45.8422C33.3291 45.8422 33.9585 45.2612 33.9585 44.4864C33.8617 43.1307 33.0386 41.9686 31.8764 41.4843Z" fill="#61A600"/>
<path d="M28.7291 41.2899C30.1333 41.2899 31.3439 40.1762 31.3923 38.7236C31.4407 37.2709 30.327 36.012 28.826 35.9636L25.3881 35.8183L23.7902 32.7678C23.0639 31.412 22.1439 30.2015 20.9818 29.2331L20.6428 28.9425C18.6091 27.1994 16.1397 26.0857 13.5249 25.6499L7.85968 24.7783C6.74599 24.6331 5.68073 25.1657 5.09968 26.1341L2.33968 31.1215C1.61336 32.4288 2.09757 34.0267 3.35652 34.753C4.66389 35.4794 6.26178 34.9952 6.9881 33.7362L8.87652 30.3467L11.6849 30.7825L5.68073 38.8688C4.85757 39.9825 4.80915 41.4836 5.58389 42.5973L11.3944 51.1194V60.8036C11.3944 62.5951 12.847 63.9993 14.5902 63.9993C16.3818 63.9993 17.786 62.5467 17.786 60.8036V50.1025C17.786 49.473 17.5923 48.8436 17.2049 48.3109L14.2512 44.0015C14.2997 43.953 14.3965 43.8562 14.4449 43.7594L19.9165 37.0288L21.2723 39.6436C21.7081 40.4667 22.5797 41.0478 23.5481 41.0478L28.5839 41.2899C28.6323 41.2899 28.6807 41.2899 28.7291 41.2899Z" fill="#61A600"/>
<path d="M25.0973 28.9431C28.1192 28.9431 30.5689 26.4934 30.5689 23.4716C30.5689 20.4497 28.1192 18 25.0973 18C22.0754 18 19.6257 20.4497 19.6257 23.4716C19.6257 26.4934 22.0754 28.9431 25.0973 28.9431Z" fill="#61A600"/>
<circle cx="49" cy="15" r="15" fill="#61A600"/>
<path fill-rule="evenodd" clip-rule="evenodd" d="M58.3467 9.31017L45.3259 22.982L39.6521 17.0245L41.2038 15.5466L45.3259 19.8748L56.795 7.83234L58.3467 9.31017Z" fill="white"/>
</svg>
