<svg width="64" height="64" viewBox="0 0 64 64" fill="none" xmlns="http://www.w3.org/2000/svg">
<path d="M31.8767 41.4844C31.0535 42.4044 29.8914 42.937 28.5356 42.8886L27.8093 42.8402C27.5188 43.3244 27.3735 43.9054 27.3735 44.4865V62.6444C27.3735 63.3707 27.9546 64.0001 28.7293 64.0001C29.4556 64.0001 30.0851 63.4191 30.0851 62.6444V44.4865C30.0851 44.1475 30.3756 43.9054 30.6662 43.9054C31.0051 43.9054 31.2472 44.1475 31.2472 44.4865C31.2472 45.2128 31.8283 45.8423 32.603 45.8423C33.3293 45.8423 33.9588 45.2612 33.9588 44.4865C33.8619 43.1307 33.0388 41.9686 31.8767 41.4844Z" fill="#61A600"/>
<path d="M28.7291 41.2901C30.1333 41.2901 31.3439 40.1764 31.3923 38.7238C31.4407 37.2712 30.327 36.0122 28.826 35.9638L25.3881 35.8185L23.7902 32.768C23.0639 31.4122 22.1439 30.2017 20.9818 29.2333L20.6428 28.9427C18.6091 27.1996 16.1397 26.0859 13.5249 25.6501L7.85968 24.7785C6.74599 24.6333 5.68073 25.1659 5.09968 26.1343L2.33968 31.1217C1.61336 32.4291 2.09757 34.0269 3.35652 34.7533C4.66389 35.4796 6.26178 34.9954 6.9881 33.7364L8.87652 30.347L11.6849 30.7827L5.68073 38.869C4.85757 39.9827 4.80915 41.4838 5.58389 42.5975L11.3944 51.1196V60.8038C11.3944 62.5953 12.847 63.9996 14.5902 63.9996C16.3818 63.9996 17.786 62.5469 17.786 60.8038V50.1027C17.786 49.4733 17.5923 48.8438 17.2049 48.3111L14.2512 44.0017C14.2997 43.9533 14.3965 43.8564 14.4449 43.7596L19.9165 37.029L21.2723 39.6438C21.7081 40.4669 22.5797 41.048 23.5481 41.048L28.5839 41.2901C28.6323 41.2901 28.6807 41.2901 28.7291 41.2901Z" fill="#61A600"/>
<path d="M25.0976 28.9431C28.1194 28.9431 30.5691 26.4934 30.5691 23.4716C30.5691 20.4497 28.1194 18 25.0976 18C22.0757 18 19.626 20.4497 19.626 23.4716C19.626 26.4934 22.0757 28.9431 25.0976 28.9431Z" fill="#61A600"/>
<circle cx="49" cy="15" r="15" fill="#61A600"/>
<path fill-rule="evenodd" clip-rule="evenodd" d="M58.3464 9.30986L45.3257 22.9817L39.6519 17.0241L41.2036 15.5463L45.3257 19.8745L56.7947 7.83203L58.3464 9.30986Z" fill="white"/>
</svg>
