<svg width="26" height="24" viewBox="0 0 26 24" fill="none" xmlns="http://www.w3.org/2000/svg">
<path fill-rule="evenodd" clip-rule="evenodd" d="M23.8841 5.03645L22.1955 7.37832C22.5534 7.99062 22.8388 8.63849 23.048 9.31318L26 9.84595V14.1495L23.0504 14.6803C22.846 15.3502 22.5599 16.0006 22.1955 16.622L23.8844 18.9632L20.649 22.0086L18.1608 20.4193C17.5013 20.762 16.8105 21.0316 16.0984 21.2243L15.5337 24H10.9604L10.3954 21.2217C9.67852 21.0251 8.99016 20.7562 8.33923 20.4187L5.85096 22.0086L2.61558 18.9632L4.30454 16.622C3.9401 16.0006 3.65397 15.3502 3.44959 14.6803L0.5 14.1495V9.84595L3.45199 9.31318C3.66118 8.63849 3.94662 7.99062 4.30454 7.37832L2.61592 5.03645L5.85096 1.99176L8.33923 3.58102C8.98981 3.24416 9.67817 2.97552 10.3954 2.77863L10.9604 0H15.5337L16.0984 2.77604C16.8105 2.96872 17.5013 3.23834 18.1608 3.58102L20.649 1.99176L23.8841 5.03645ZM17.672 11.0189C18.248 13.3152 16.737 15.6161 14.2972 16.1581C11.8574 16.7002 9.41268 15.2781 8.83674 12.9819C8.26079 10.6857 9.77174 8.38479 12.2115 7.84273C14.6513 7.30067 17.0961 8.7227 17.672 11.0189Z" fill="white"/>
</svg>
