<svg width="64" height="64" viewBox="0 0 64 64" fill="none" xmlns="http://www.w3.org/2000/svg">
<path d="M23.1787 29.5828H15.9621C15.4297 29.5828 15.0156 29.1687 15.0156 28.6363V20.9464C15.0156 20.4141 15.4297 20 15.9621 20H23.1196C23.652 20 24.066 20.4141 24.066 20.9464V28.5772C24.1252 29.1096 23.7111 29.5828 23.1787 29.5828Z" fill="#61A600"/>
<path d="M34.889 25.5611C34.889 25.5611 28.678 25.5611 26.9034 25.6203C26.6668 25.6203 26.4893 25.7977 26.4893 26.0935V28.5779C26.4893 30.4116 25.0105 31.8905 23.1768 31.8905H15.9601C14.1264 31.8905 12.6475 30.4116 12.6475 28.5779V26.0343C12.6475 25.7977 12.4701 25.5611 12.2335 25.5611C10.518 25.502 4.24781 25.502 4.24781 25.502C3.0056 25.502 2 26.5076 2 27.7498V59.7515C2 60.9937 3.0056 61.9993 4.24781 61.9993H34.889C36.1312 61.9993 37.1368 60.9937 37.1368 59.7515V27.7498C37.1368 26.5667 36.1312 25.5611 34.889 25.5611ZM19.5684 34.1119C22.2895 34.1119 24.5373 36.3598 24.5373 39.0808C24.5373 41.8018 22.2895 44.0496 19.5684 44.0496C16.8474 44.0496 14.5996 41.8018 14.5996 39.0808C14.5996 36.3598 16.8474 34.1119 19.5684 34.1119ZM28.2048 53.8427H10.9321C10.518 53.8427 10.2223 53.4878 10.2223 53.0737C10.518 49.2879 16.6108 44.9106 16.6108 44.9106C16.6108 44.9106 17.2023 44.9106 17.3798 45.0881L18.9769 46.6852C19.2727 46.9809 19.805 46.9809 20.1008 46.6852L21.6979 45.0881C21.8754 44.9106 22.2303 44.7923 22.4669 44.9106C25.9569 46.0937 28.5597 49.2288 28.8554 53.0737C28.9146 53.4878 28.6188 53.8427 28.2048 53.8427Z" fill="#61A600"/>
<circle cx="49" cy="15" r="15" fill="#61A600"/>
<path fill-rule="evenodd" clip-rule="evenodd" d="M58.343 9.30986L45.3223 22.9817L39.6484 17.0241L41.2002 15.5463L45.3223 19.8745L56.7913 7.83203L58.343 9.30986Z" fill="white"/>
</svg>
