<svg width="271" height="128" viewBox="0 0 271 128" fill="none" xmlns="http://www.w3.org/2000/svg">
                <path
                    d="M0 75.2597C1.92895 72.8337 3.75427 70.4969 5.6267 68.1954C11.7362 60.6821 17.9494 53.2534 23.9482 45.6554C28.2465 40.2109 32.2552 34.543 37.0976 29.538C42.6136 23.8395 49.4061 20.814 57.1573 19.6197C63.4741 18.6465 69.8073 18.5243 76.3526 18.9968C76.117 19.4082 75.9286 19.7584 75.7214 20.097C71.6374 26.8228 66.6042 32.8433 61.6746 38.9391C57.4093 44.2144 53.1769 49.5132 49.6864 55.3551C49.4886 55.6842 49.3143 56.0274 49.0623 56.4835C51.5541 57.0759 53.9423 57.6189 56.3212 58.2137C68.4837 61.2534 80.3235 65.1675 91.3508 71.2492C97.3167 74.538 102.856 78.4216 107.944 82.9588C114.703 88.9864 121.401 95.0868 128.302 100.948C132.759 104.732 137.811 107.744 143.654 108.778C154.22 110.649 164.665 110.699 174.456 105.33C177.69 103.557 180.441 101.211 183.088 98.0536C181.745 98.0536 180.726 98.0325 179.71 98.0583C174.962 98.1712 170.216 98.3263 165.471 98.4133C157.691 98.5567 150.724 96.3704 144.711 91.2879C138.275 85.8433 131.71 80.5492 125.278 75.0975C113.391 65.0241 100.353 56.9301 85.6605 51.542C80.3706 49.6025 75.2291 47.2634 69.8662 45.0419C70.4362 44.165 70.8648 43.4833 71.3147 42.8156C78.0295 32.8527 85.6464 23.6797 94.9544 15.9971C103.348 9.06677 112.619 3.75149 123.342 1.40769C136.989 -1.57555 150.048 0.178191 162.451 6.71356C170.297 10.8464 177.4 16.0653 184.47 21.3476C191.381 26.5125 198.199 31.8113 205.705 36.1204C216.12 42.101 227.324 46.0222 238.966 48.8079C247.777 50.9143 256.715 52.2966 265.689 53.4626C267.314 53.6742 268.951 53.8176 270.769 54.0127C269.867 55.2281 269.083 56.3354 268.247 57.4027C261.555 65.9551 254.895 74.531 248.14 83.034C243.974 88.2788 239.784 93.5165 235.363 98.545C232.054 102.309 227.995 105.233 223.342 107.234C219.943 108.696 216.328 109.291 212.684 109.392C207.507 109.535 202.323 109.378 197.142 109.345C197 109.345 196.859 109.286 196.588 109.227C204.832 96.5702 215.096 85.4907 223.118 72.5939C220.887 72.0038 218.784 71.4443 216.678 70.8942C207.201 68.4117 197.799 65.6965 188.851 61.6271C178.757 57.0383 169.936 50.557 161.587 43.354C155.621 38.2079 149.7 32.9961 143.501 28.1369C138.166 23.9547 132.217 20.6964 125.467 19.3376C113.405 16.9092 102.494 19.2201 93.1479 27.5539C92.9147 27.7631 92.698 27.9911 92.4837 28.2192C92.4366 28.2685 92.4225 28.3532 92.3094 28.6235C94.9261 28.8492 97.4745 29.0843 100.025 29.2888C105.379 29.719 110.723 30.1633 115.921 31.6608C121.347 33.2241 126.001 36.2332 130.314 39.6937C136.857 44.9431 143.324 50.3054 149.57 55.9028C160.607 65.7929 173.156 72.9324 187.217 77.5424C192.09 79.141 196.887 80.9723 201.718 82.7002C202.005 82.8036 202.283 82.9376 202.71 83.1186C202.121 84.066 201.584 84.9594 201.018 85.8315C192.801 98.4932 182.855 109.498 170.297 118.045C164.163 122.218 157.611 125.345 150.277 126.725C144.273 127.853 138.227 128.199 132.127 127.895C127.652 127.672 123.206 127.343 118.877 126.102C112.477 124.268 106.596 121.301 101.175 117.523C94.13 112.615 87.2456 107.473 80.307 102.414C67.9749 93.4201 54.8067 86.0337 40.19 81.3696C33.7366 79.3103 27.1066 78.2148 20.4036 77.4672C13.8206 76.7337 7.22827 76.0779 0.640629 75.3867C0.494603 75.3702 0.350933 75.3326 0 75.2621L0 75.2597Z"
                    fill="white"
                />
            </svg>
