<svg width="20" height="20" viewBox="0 0 20 20" fill="none" xmlns="http://www.w3.org/2000/svg">
<g filter="url(#filter0_d_3807_9408)">
<path d="M6.60665 15.4849C6.23703 15.4866 5.87681 15.3646 5.57988 15.1371C5.27775 14.9168 5.05278 14.6013 4.93864 14.2379C4.8245 13.8744 4.82733 13.4825 4.9467 13.1209L5.6141 11.0162C5.65408 10.8915 5.65463 10.7569 5.61566 10.6318C5.57669 10.5067 5.50023 10.3977 5.39734 10.3206L3.68606 9.01769C3.40009 8.79198 3.18861 8.48044 3.08056 8.12572C2.97251 7.77101 2.97317 7.39045 3.08245 7.03614C3.19173 6.68182 3.40429 6.37107 3.69104 6.14642C3.97778 5.92176 4.3247 5.79418 4.68431 5.78114H6.82912C6.95606 5.78114 7.07971 5.73945 7.18224 5.6621C7.28476 5.58475 7.36086 5.47573 7.39955 5.35078L8.06124 3.24614C8.17522 2.88393 8.39719 2.56829 8.69538 2.34444C8.99356 2.1206 9.35265 2.00005 9.72119 2.00005C10.0897 2.00005 10.4488 2.1206 10.747 2.34444C11.0452 2.56829 11.2672 2.88393 11.3811 3.24614L12.0428 5.35078C12.0815 5.47573 12.1576 5.58475 12.2601 5.6621C12.3627 5.73945 12.4863 5.78114 12.6133 5.78114H14.7581C15.1259 5.78192 15.4841 5.90279 15.7816 6.12648C16.079 6.35017 16.3004 6.66526 16.4143 7.02676C16.5281 7.38826 16.5286 7.7777 16.4155 8.13947C16.3025 8.50124 16.0818 8.81686 15.7848 9.04127L14.0736 10.3441C13.9707 10.4213 13.8942 10.5303 13.8552 10.6554C13.8163 10.7804 13.8168 10.9151 13.8568 11.0398L14.5185 13.1444C14.6308 13.5059 14.6299 13.8949 14.5159 14.2558C14.402 14.6168 14.1807 14.9313 13.8836 15.1547C13.5865 15.3781 13.2289 15.499 12.8615 15.5C12.4941 15.5011 12.1357 15.3823 11.8375 15.1607L10.1262 13.8578C10.0236 13.7802 9.8997 13.7383 9.77253 13.7383C9.64536 13.7383 9.52149 13.7802 9.41886 13.8578L7.70758 15.1607C7.3875 15.3961 6.99876 15.5106 6.60665 15.4849Z" fill="white"/>
<path d="M5.13797 10.8636L5.13749 10.8651L4.47093 12.9671C4.31968 13.4274 4.31642 13.9253 4.46161 14.3877C4.60656 14.8492 4.89263 15.2532 5.2805 15.5376C5.65863 15.8257 6.11779 15.9832 6.5914 15.9849C7.09656 16.0139 7.59478 15.8644 8.00389 15.5634L8.00393 15.5634L8.01046 15.5585L9.72043 14.2566C9.72057 14.2565 9.72071 14.2564 9.72085 14.2563C9.73765 14.2437 9.75574 14.2383 9.77253 14.2383C9.78932 14.2383 9.80741 14.2437 9.8242 14.2563C9.82434 14.2564 9.82448 14.2565 9.82462 14.2566L11.5346 15.5585L11.5346 15.5585L11.5392 15.562C11.923 15.8472 12.3863 16.0014 12.8629 16C13.3396 15.9987 13.8019 15.8418 14.1841 15.5543C14.5661 15.2671 14.848 14.8647 14.9927 14.4064C15.1374 13.9482 15.1386 13.4549 14.996 12.9961L14.9955 12.9945L14.3338 10.8898L14.3338 10.8898L14.3329 10.8872C14.3244 10.8604 14.3242 10.831 14.3326 10.8041L13.8552 10.6554L14.3326 10.8041C14.3409 10.7774 14.3564 10.757 14.3736 10.7441L14.3736 10.7441L14.3764 10.742L16.0863 9.44016C16.0866 9.43998 16.0868 9.4398 16.087 9.43962C16.4684 9.15113 16.7493 8.74767 16.8928 8.28859C17.0363 7.82935 17.0357 7.33546 16.8912 6.87656C16.7466 6.41753 16.4645 6.0145 16.0821 5.72688C15.6994 5.43907 15.2364 5.28216 14.7591 5.28114H14.7581H12.6133C12.6133 5.28114 12.6133 5.28114 12.6133 5.28114C12.5964 5.28114 12.5782 5.27569 12.5613 5.26295C12.5441 5.25001 12.5287 5.22964 12.5205 5.2029L12.5198 5.20082L11.8581 3.09618L11.8581 3.09607C11.7134 2.63613 11.4306 2.23239 11.0472 1.94458C10.6635 1.65656 10.1994 1.50005 9.72119 1.50005C9.24303 1.50005 8.77887 1.65656 8.3952 1.94458L8.69345 2.34187L8.3952 1.94458C8.0118 2.23239 7.72902 2.63613 7.5843 3.09607L7.58426 3.09618L6.92256 5.20082L6.92256 5.20082L6.92191 5.2029C6.91364 5.22964 6.89826 5.25001 6.8811 5.26295C6.86422 5.27569 6.84601 5.28114 6.82912 5.28114C6.82911 5.28114 6.8291 5.28114 6.82909 5.28114H4.68431H4.67524L4.66619 5.28147C4.19967 5.29839 3.75144 5.46391 3.38267 5.75283C3.01415 6.04155 2.74341 6.43889 2.60466 6.88877C2.46594 7.33853 2.4651 7.82117 2.60226 8.27142C2.73945 8.72179 3.00878 9.1201 3.37627 9.41017L3.37623 9.41023L3.38318 9.41552L5.09446 10.7184L5.09445 10.7184L5.09733 10.7206C5.11452 10.7335 5.12996 10.7538 5.1383 10.7805C5.14668 10.8074 5.14655 10.8368 5.13797 10.8636Z" stroke="black"/>
</g>
<defs>
<filter id="filter0_d_3807_9408" x="0" y="4.57764e-05" width="19.5" height="19.5" filterUnits="userSpaceOnUse" color-interpolation-filters="sRGB">
<feFlood flood-opacity="0" result="BackgroundImageFix"/>
<feColorMatrix in="SourceAlpha" type="matrix" values="0 0 0 0 0 0 0 0 0 0 0 0 0 0 0 0 0 0 127 0" result="hardAlpha"/>
<feOffset dy="1"/>
<feGaussianBlur stdDeviation="1"/>
<feComposite in2="hardAlpha" operator="out"/>
<feColorMatrix type="matrix" values="0 0 0 0 0 0 0 0 0 0 0 0 0 0 0 0 0 0 0.05 0"/>
<feBlend mode="normal" in2="BackgroundImageFix" result="effect1_dropShadow_3807_9408"/>
<feBlend mode="normal" in="SourceGraphic" in2="effect1_dropShadow_3807_9408" result="shape"/>
</filter>
</defs>
</svg>
