<svg width="41" height="32" viewBox="0 0 41 32" fill="none" xmlns="http://www.w3.org/2000/svg">
<mask id="mask0_3713_15512" style="mask-type:alpha" maskUnits="userSpaceOnUse" x="0" y="0" width="16" height="32">
<path d="M16 0H0V32H16V0Z" fill="#D9D9D9"/>
</mask>
<g mask="url(#mask0_3713_15512)">
<path d="M14.1021 8H13.6021V5C13.6021 2.2 7.40205 0 -0.397949 0C-8.19795 0 -14.3979 2.2 -14.3979 5V8H-14.8979C-15.7261 8 -16.3979 8.67125 -16.3979 9.5V14.5C-16.3979 15.3281 -15.7261 16 -14.8979 16H-14.3979V26C-14.3979 27.1044 -13.5023 28 -12.3979 28V30C-12.3979 31.1044 -11.5023 32 -10.3979 32H-8.39795C-7.29357 32 -6.39795 31.1044 -6.39795 30V28H5.60205V30C5.60205 31.1044 6.49767 32 7.60205 32H9.60205C10.7064 32 11.602 31.1044 11.602 30V28H12.0021C13.0021 28 13.6021 27.2 13.6021 26.4V16H14.1021C14.9302 16 15.6021 15.3281 15.6021 14.5V9.5C15.6021 8.67125 14.9302 8 14.1021 8ZM-9.39795 25C-10.5023 25 -11.3979 24.1044 -11.3979 23C-11.3979 21.8956 -10.5023 21 -9.39795 21C-8.29357 21 -7.39795 21.8956 -7.39795 23C-7.39795 24.1044 -8.29357 25 -9.39795 25ZM-8.39795 18C-9.50232 18 -10.3979 17.1044 -10.3979 16V8C-10.3979 6.89562 -9.50232 6 -8.39795 6H7.60205C8.70642 6 9.60205 6.89562 9.60205 8V16C9.60205 17.1044 8.70642 18 7.60205 18H-8.39795ZM8.60205 25C7.49767 25 6.60205 24.1044 6.60205 23C6.60205 21.8956 7.49767 21 8.60205 21C9.70642 21 10.6021 21.8956 10.6021 23C10.6021 24.1044 9.70642 25 8.60205 25Z" fill="white"/>
</g>
<path d="M38.837 13.0002C36.4401 12.8002 28.4154 13.0002 28.4154 13.0002V9.00019C28.4154 8.20019 27.5817 7.70019 26.9564 8.20019L20.3908 14.2002C19.8697 14.6002 19.8697 15.4002 20.3908 15.8002L26.9564 21.8002C27.5817 22.3002 28.4154 21.8002 28.4154 21.0002V17.0002C28.4154 17.0002 36.3358 17.2002 38.837 17.0002C39.9834 16.9002 40.9213 16.1002 40.9213 15.0002C40.9213 13.9002 39.9834 13.1002 38.837 13.0002Z" fill="#61A600"/>
</svg>
