<svg width="41" height="32" viewBox="0 0 41 32" fill="none" xmlns="http://www.w3.org/2000/svg">
<mask id="mask0_3713_15567" style="mask-type:alpha" maskUnits="userSpaceOnUse" x="0" y="0" width="16" height="32">
<path d="M16 0H0V32H16V0Z" fill="#D9D9D9"/>
</mask>
<g mask="url(#mask0_3713_15567)">
<path d="M14.1021 8H13.6021V5C13.6021 2.2 7.40205 0 -0.397949 0C-8.19795 0 -14.3979 2.2 -14.3979 5V8H-14.8979C-15.7261 8 -16.3979 8.67125 -16.3979 9.5V14.5C-16.3979 15.3281 -15.7261 16 -14.8979 16H-14.3979V26C-14.3979 27.1044 -13.5023 28 -12.3979 28V30C-12.3979 31.1044 -11.5023 32 -10.3979 32H-8.39795C-7.29357 32 -6.39795 31.1044 -6.39795 30V28H5.60205V30C5.60205 31.1044 6.49767 32 7.60205 32H9.60205C10.7064 32 11.602 31.1044 11.602 30V28H12.0021C13.0021 28 13.6021 27.2 13.6021 26.4V16H14.1021C14.9302 16 15.6021 15.3281 15.6021 14.5V9.5C15.6021 8.67125 14.9302 8 14.1021 8ZM-9.39795 25C-10.5023 25 -11.3979 24.1044 -11.3979 23C-11.3979 21.8956 -10.5023 21 -9.39795 21C-8.29357 21 -7.39795 21.8956 -7.39795 23C-7.39795 24.1044 -8.29357 25 -9.39795 25ZM-8.39795 18C-9.50232 18 -10.3979 17.1044 -10.3979 16V8C-10.3979 6.89562 -9.50232 6 -8.39795 6H7.60205C8.70642 6 9.60205 6.89562 9.60205 8V16C9.60205 17.1044 8.70642 18 7.60205 18H-8.39795ZM8.60205 25C7.49767 25 6.60205 24.1044 6.60205 23C6.60205 21.8956 7.49767 21 8.60205 21C9.70642 21 10.6021 21.8956 10.6021 23C10.6021 24.1044 9.70642 25 8.60205 25Z" fill="white"/>
</g>
<path d="M38.837 5.16149C36.4401 4.95504 28.4154 5.16149 28.4154 5.16149V1.03246C28.4154 0.206649 27.5817 -0.30948 26.9564 0.206649L20.3908 6.4002C19.8697 6.8131 19.8697 7.63891 20.3908 8.05181L26.9564 14.2454C27.5817 14.7615 28.4154 14.2454 28.4154 13.4196V9.29052C28.4154 9.29052 36.3358 9.49697 38.837 9.29052C39.9834 9.18729 40.9213 8.36149 40.9213 7.226C40.9213 6.09052 39.9834 5.26471 38.837 5.16149Z" fill="#61A600"/>
<path d="M22.163 26.8385C24.5599 27.045 32.5846 26.8385 32.5846 26.8385L32.5846 30.9675C32.5846 31.7934 33.4183 32.3095 34.0436 31.7934L40.6092 25.5998C41.1303 25.1869 41.1303 24.3611 40.6092 23.9482L34.0436 17.7546C33.4183 17.2385 32.5846 17.7546 32.5846 18.5804L32.5846 22.7095C32.5846 22.7095 24.6642 22.503 22.163 22.7095C21.0166 22.8127 20.0787 23.6385 20.0787 24.774C20.0787 25.9095 21.0166 26.7353 22.163 26.8385Z" fill="#61A600"/>
</svg>
