<svg width="31" height="40" viewBox="0 0 31 40" fill="none" xmlns="http://www.w3.org/2000/svg">
<path fill-rule="evenodd" clip-rule="evenodd" d="M19.7309 27.9336C28.3811 29.1386 30.6266 34.0821 30.6266 39.9986H0C0 34.0821 2.2454 29.1385 10.8957 27.9336C11.8601 29.4488 13.2754 30.3451 15.3134 30.3451C17.3512 30.3451 18.7666 29.4488 19.7309 27.9336Z" fill="#61A600"/>
<path fill-rule="evenodd" clip-rule="evenodd" d="M22.4625 12.2031C24.0734 13.8788 25.0585 16.1215 25.0585 18.5863C25.0585 23.7746 20.6956 27.9805 15.3137 27.9805C9.93175 27.9805 5.56885 23.7746 5.56885 18.5863C5.56885 16.1215 6.55396 13.8788 8.16488 12.2031C10.2368 12.4606 12.6871 12.6094 15.3137 12.6094C17.9402 12.6094 20.3905 12.4606 22.4625 12.2031Z" fill="#61A600"/>
<path fill-rule="evenodd" clip-rule="evenodd" d="M22.2725 7.42578V9.79044C20.2552 10.0562 17.8693 10.21 15.3119 10.21C12.7545 10.21 10.3686 10.0562 8.35132 9.79044V7.42578L13.2111 8.57481C14.6588 8.91711 15.9649 8.91711 17.4126 8.57481L22.2725 7.42578Z" fill="#61A600"/>
<path fill-rule="evenodd" clip-rule="evenodd" d="M0.333488 3.42195L13.2995 0.254302C14.6873 -0.0847675 15.9393 -0.0847675 17.3271 0.254302L30.2931 3.42195C30.4907 3.47024 30.6266 3.6508 30.6266 3.86504C30.6266 4.07924 30.4907 4.25983 30.2931 4.30812L27.6131 4.96288V10.6175L29.0571 13.2596C29.2579 13.626 29.1396 14.0952 28.7927 14.3073C28.4459 14.5195 28.0018 14.3945 27.801 14.0281L27.6131 13.6844V14.0806C27.6131 14.5051 27.2873 14.8493 26.8855 14.8493C26.4837 14.8493 26.1579 14.5051 26.1579 14.0806V13.6842L25.9701 14.0279C25.7693 14.3943 25.3251 14.5193 24.9783 14.3072C24.6315 14.095 24.5132 13.6258 24.714 13.2594L26.1579 10.6174V5.31835L17.3271 7.47577C15.9393 7.81481 14.6873 7.81481 13.2995 7.47577L0.333488 4.30812C0.13593 4.25983 0 4.07924 0 3.86504C4.31421e-08 3.6508 0.135839 3.47024 0.333488 3.42195Z" fill="#61A600"/>
</svg>
