<svg width="64" height="64" viewBox="0 0 64 64" fill="none" xmlns="http://www.w3.org/2000/svg">
<path fill-rule="evenodd" clip-rule="evenodd" d="M23.7309 49.9355C32.3811 51.1405 34.6266 56.0841 34.6266 62.0006H4C4 56.0841 6.2454 51.1405 14.8957 49.9355C15.8601 51.4507 17.2754 52.3471 19.3134 52.3471C21.3512 52.3471 22.7666 51.4507 23.7309 49.9355Z" fill="#61A600"/>
<path fill-rule="evenodd" clip-rule="evenodd" d="M26.4625 34.2031C28.0734 35.8788 29.0585 38.1215 29.0585 40.5863C29.0585 45.7746 24.6956 49.9805 19.3137 49.9805C13.9317 49.9805 9.56885 45.7746 9.56885 40.5863C9.56885 38.1215 10.554 35.8788 12.1649 34.2031C14.2368 34.4606 16.6871 34.6094 19.3137 34.6094C21.9402 34.6094 24.3905 34.4606 26.4625 34.2031Z" fill="#61A600"/>
<path fill-rule="evenodd" clip-rule="evenodd" d="M26.2722 29.4248V31.7895C24.2549 32.0553 21.869 32.209 19.3116 32.209C16.7542 32.209 14.3684 32.0553 12.3511 31.7895V29.4248L17.2109 30.5738C18.6586 30.9161 19.9647 30.9161 21.4124 30.5738L26.2722 29.4248Z" fill="#61A600"/>
<path fill-rule="evenodd" clip-rule="evenodd" d="M4.33349 25.422L17.2995 22.2543C18.6873 21.9152 19.9393 21.9152 21.3271 22.2543L34.2931 25.422C34.4907 25.4702 34.6266 25.6508 34.6266 25.865C34.6266 26.0792 34.4907 26.2598 34.2931 26.3081L31.6131 26.9629V32.6175L33.0571 35.2596C33.2579 35.626 33.1396 36.0952 32.7927 36.3073C32.4459 36.5195 32.0018 36.3945 31.801 36.0281L31.6131 35.6844V36.0806C31.6131 36.5051 31.2873 36.8493 30.8855 36.8493C30.4837 36.8493 30.1579 36.5051 30.1579 36.0806V35.6842L29.9701 36.0279C29.7693 36.3943 29.3251 36.5193 28.9783 36.3072C28.6315 36.095 28.5132 35.6258 28.714 35.2594L30.1579 32.6174V27.3183L21.3271 29.4758C19.9393 29.8148 18.6873 29.8148 17.2995 29.4758L4.33349 26.3081C4.13593 26.2598 4 26.0792 4 25.865C4 25.6508 4.13584 25.4702 4.33349 25.422Z" fill="#61A600"/>
<circle cx="49" cy="15" r="15" fill="#61A600"/>
<path fill-rule="evenodd" clip-rule="evenodd" d="M58.3464 9.30986L45.3257 22.9817L39.6519 17.0241L41.2036 15.5463L45.3257 19.8745L56.7947 7.83203L58.3464 9.30986Z" fill="white"/>
</svg>
