<svg width="41" height="40" viewBox="0 0 41 40" fill="none" xmlns="http://www.w3.org/2000/svg">
<path d="M31.924 17.5674C32.0612 17.4876 32.175 17.3731 32.2542 17.2354C32.3333 17.0978 32.375 16.9418 32.375 16.7831V12.9075C32.375 12.7883 32.3515 12.6703 32.3059 12.5602C32.2603 12.4501 32.1935 12.35 32.1092 12.2658C32.025 12.1815 31.9249 12.1147 31.8148 12.0691C31.7047 12.0235 31.5867 12 31.4675 12H25.3161V13.5126C25.3161 13.7533 25.2205 13.9841 25.0503 14.1543C24.8801 14.3245 24.6493 14.4201 24.4086 14.4201C24.168 14.4201 23.9372 14.3245 23.767 14.1543C23.5968 13.9841 23.5012 13.7533 23.5012 13.5126V12H9.28247C9.1633 12 9.04529 12.0235 8.93518 12.0691C8.82508 12.1147 8.72504 12.1815 8.64077 12.2658C8.5565 12.35 8.48966 12.4501 8.44405 12.5602C8.39845 12.6703 8.37499 12.7883 8.375 12.9075V16.7831C8.37502 16.9418 8.41668 17.0978 8.49582 17.2354C8.57497 17.3731 8.68882 17.4876 8.82603 17.5674C9.20576 17.7828 9.52159 18.0949 9.7413 18.4722C9.96102 18.8494 10.0767 19.2781 10.0767 19.7146C10.0766 20.1512 9.96082 20.5799 9.74102 20.957C9.52122 21.3342 9.20532 21.6463 8.82554 21.8616C8.68839 21.9415 8.57461 22.056 8.49555 22.1936C8.4165 22.3312 8.37493 22.4872 8.37501 22.6459V26.521C8.37499 26.6402 8.39846 26.7582 8.44406 26.8683C8.48966 26.9784 8.5565 27.0785 8.64077 27.1627C8.72504 27.247 8.82508 27.3138 8.93518 27.3594C9.04529 27.405 9.1633 27.4285 9.28247 27.4285H23.5012V25.9159C23.5012 25.6752 23.5968 25.4444 23.767 25.2742C23.9372 25.104 24.168 25.0084 24.4086 25.0084C24.6493 25.0084 24.8801 25.104 25.0503 25.2742C25.2205 25.4444 25.3161 25.6752 25.3161 25.9159V27.4285H31.4675C31.5867 27.4285 31.7047 27.405 31.8148 27.3594C31.9249 27.3138 32.025 27.247 32.1092 27.1627C32.1935 27.0785 32.2603 26.9784 32.3059 26.8683C32.3515 26.7582 32.375 26.6402 32.375 26.521V22.6459C32.375 22.4872 32.3333 22.3312 32.2542 22.1935C32.175 22.0559 32.0612 21.9414 31.924 21.8616C31.5443 21.6462 31.2285 21.3341 31.0088 20.9569C30.7891 20.5797 30.6733 20.151 30.6733 19.7145C30.6733 19.278 30.7891 18.8493 31.0088 18.4721C31.2285 18.0949 31.5443 17.7828 31.924 17.5674ZM25.3161 22.7899C25.3161 23.0306 25.2205 23.2614 25.0503 23.4316C24.8801 23.6018 24.6493 23.6974 24.4086 23.6974C24.168 23.6974 23.9371 23.6018 23.767 23.4316C23.5968 23.2614 23.5012 23.0306 23.5012 22.7899V21.2773C23.5012 21.0367 23.5968 20.8058 23.767 20.6357C23.9371 20.4655 24.168 20.3699 24.4086 20.3699C24.6493 20.3699 24.8801 20.4655 25.0503 20.6357C25.2205 20.8058 25.3161 21.0367 25.3161 21.2773V22.7899ZM25.3161 18.1512C25.3161 18.3918 25.2205 18.6227 25.0503 18.7928C24.8801 18.963 24.6493 19.0586 24.4086 19.0586C24.168 19.0586 23.9371 18.963 23.767 18.7928C23.5968 18.6227 23.5012 18.3918 23.5012 18.1512V16.6385C23.5012 16.3979 23.5968 16.167 23.767 15.9969C23.9371 15.8267 24.168 15.7311 24.4086 15.7311C24.6493 15.7311 24.8801 15.8267 25.0503 15.9969C25.2205 16.167 25.3161 16.3979 25.3161 16.6385V18.1512Z" fill="white"/>
</svg>
