<svg width="40" height="40" viewBox="0 0 40 40" fill="none" xmlns="http://www.w3.org/2000/svg">
<path d="M10.4867 33.2339L2.7821 33.2149C1.57315 33.2122 0.504647 32.4995 0.138382 31.3676C0.0454389 31.0807 0 30.7769 0 30.4751V25.7985C0 24.3221 1.24613 23.0573 2.7821 23.0587L10.3394 23.0682C10.8317 23.0682 11.2434 22.6891 11.2434 22.1981V20.8092C11.2448 20.1487 11.4217 19.537 11.9112 19.0548C12.8089 18.1718 14.2403 18.1929 15.1298 19.0704L22.3725 26.2176C23.147 26.9812 23.3831 28.0432 23.063 28.992C22.9026 29.4681 22.6189 29.8438 22.2651 30.193L15.1621 37.2012C14.7036 37.6535 14.146 37.8536 13.5979 37.8556C12.3415 37.859 11.2585 36.8458 11.2544 35.6L11.2482 34.1813C11.2468 33.7751 10.9618 33.2339 10.4867 33.2339Z" fill="#231F20"/>
<path fill-rule="evenodd" clip-rule="evenodd" d="M2.78584 32.9878L10.4905 33.0068C10.9593 33.0081 11.4791 33.5127 11.4819 34.0884L11.4881 35.598C11.495 37.3247 13.6898 38.3372 15.0034 37.0405L22.2089 29.9306C23.2388 28.914 23.223 27.3712 22.2137 26.3757L14.971 19.2285C13.6829 17.9576 11.4771 18.8114 11.4771 20.6947V22.1968C11.4771 22.8099 10.9793 23.2941 10.3432 23.2934L2.78584 23.2839C1.63265 23.2819 0.234375 24.175 0.234375 25.7972V30.4738C0.234375 31.9014 1.29462 32.9837 2.78584 32.9878Z" fill="#9F9F9F"/>
<path fill-rule="evenodd" clip-rule="evenodd" d="M2.78584 32.9875L10.4905 33.0065C10.9593 33.0072 11.4791 33.5124 11.4812 34.0882L11.4874 35.5978C11.4943 37.3251 13.6891 38.3369 15.0027 37.0403L22.2089 29.931C22.8223 29.3254 23.0647 28.5333 22.9463 27.7812C19.3456 28.6371 15.0605 29.1335 10.4609 29.1335C6.78859 29.1335 3.31734 28.8175 0.234375 28.2533V30.4742C0.234375 31.9018 1.29462 32.9835 2.78584 32.9875Z" fill="white" fill-opacity="0.2"/>
<path fill-rule="evenodd" clip-rule="evenodd" d="M22.9559 28.4595C23.0509 27.7217 22.8003 26.9581 22.213 26.3796L14.971 19.2324C13.6829 17.9615 11.4771 18.8153 11.4771 20.6979V21.3089C11.4771 19.4257 13.6836 18.5719 14.971 19.8427L22.213 26.9899C22.6385 27.4097 22.8864 27.9265 22.9559 28.4595ZM11.4771 22.2C11.4771 22.8131 10.9793 23.298 10.3432 23.2973L2.78584 23.2878C1.63197 23.2865 0.234375 24.1789 0.234375 25.8011V26.4121C0.234375 24.79 1.63265 23.8968 2.78584 23.8982L10.3432 23.9083C10.9793 23.909 11.4771 23.4255 11.4771 22.8118V22.2007V22.2Z" fill="#D9F4FF"/>
<path fill-rule="evenodd" clip-rule="evenodd" d="M2.78584 32.9884L10.4905 33.0074C10.9593 33.0081 11.4791 33.5133 11.4812 34.0891L11.4874 35.5987C11.4943 37.326 13.6891 38.3378 15.0027 37.0412L22.2089 29.9319C22.8154 29.3338 23.0585 28.5532 22.9504 27.8086C22.8753 28.326 22.6296 28.8286 22.2089 29.2436L15.0027 36.3535C13.6884 37.6501 11.4936 36.6376 11.4874 34.911L11.4812 33.4014C11.4784 32.8257 10.9586 32.3204 10.4905 32.3198L2.78584 32.3001C1.29462 32.2967 0.234375 31.2143 0.234375 29.7868V30.4751C0.234375 31.9027 1.29462 32.9844 2.78584 32.9884Z" fill="#3D3D3D"/>
<path d="M29.5117 18.5204L37.2164 18.5008C38.4253 18.4981 39.4938 17.7853 39.8601 16.6534C39.953 16.3666 39.9985 16.0628 39.9985 15.761V11.085C39.9985 9.60864 38.7524 8.34318 37.2164 8.34522L29.6591 8.35471C29.1668 8.35471 28.7551 7.97562 28.7551 7.48395V6.09506C28.7537 5.43453 28.5768 4.82214 28.0873 4.33997C27.1895 3.45699 25.7582 3.47802 24.8687 4.35557L17.626 11.5028C16.8515 12.2671 16.6153 13.3284 16.9355 14.2771C17.0966 14.7525 17.3795 15.1289 17.7334 15.4775L24.8363 22.4863C25.2949 22.9387 25.8525 23.1387 26.4005 23.1408C27.657 23.1442 28.74 22.131 28.7441 20.8859L28.7503 19.4672C28.7517 19.0609 29.0367 18.5198 29.5117 18.5198V18.5204Z" fill="#231F20"/>
<path fill-rule="evenodd" clip-rule="evenodd" d="M37.2214 18.2762L29.5168 18.2959C29.0479 18.2965 28.5282 18.8011 28.5261 19.3775L28.5199 20.8871C28.513 22.6137 26.3182 23.6262 25.0039 22.3296L17.7984 15.2197C16.7684 14.2038 16.7843 12.661 17.7936 11.6647L25.0356 4.51755C26.3237 3.24666 28.5295 4.10047 28.5295 5.98306V7.4852C28.5295 8.09826 29.0266 8.58248 29.6634 8.58248L37.2208 8.5723C38.3739 8.57095 39.7722 9.46409 39.7722 11.0863V15.7622C39.7722 17.1891 38.712 18.2721 37.2208 18.2755L37.2214 18.2762Z" fill="url(#paint0_linear_9779_450664)"/>
<path fill-rule="evenodd" clip-rule="evenodd" d="M37.2143 18.2766L29.5097 18.2963C29.0408 18.2969 28.521 18.8022 28.5183 19.3779L28.5121 20.8869C28.5052 22.6141 26.3104 23.626 24.9961 22.33L17.7899 15.2201C17.1765 14.6145 16.9341 13.8224 17.0525 13.0703C20.6532 13.9262 24.9383 14.4226 29.5379 14.4226C33.2102 14.4226 36.6815 14.1059 39.7644 13.5423V15.7633C39.7644 17.1909 38.7042 18.2732 37.213 18.2766H37.2143Z" fill="white" fill-opacity="0.2"/>
<path fill-rule="evenodd" clip-rule="evenodd" d="M17.0509 13.7452C16.9559 13.0073 17.2065 12.2437 17.7937 11.6653L25.0357 4.51738C26.3238 3.24649 28.5297 4.10098 28.5297 5.98357V6.5946C28.5297 4.71133 26.3232 3.85752 25.0357 5.12908L17.7937 12.2763C17.3682 12.6961 17.1204 13.2121 17.0509 13.7459V13.7452ZM28.5304 7.48571C28.5304 8.09877 29.0275 8.58366 29.6643 8.58298L37.2216 8.57281C38.3755 8.57146 39.7731 9.4646 39.7731 11.0861V11.6971C39.7731 10.0743 38.3748 9.18248 37.2216 9.18316L29.6643 9.19266C29.0281 9.19333 28.5304 8.70912 28.5304 8.09606V7.48503V7.48571Z" fill="#ECFFDE"/>
<path fill-rule="evenodd" clip-rule="evenodd" d="M37.2143 18.2768L29.5096 18.2965C29.0408 18.2972 28.521 18.8024 28.5182 19.3782L28.512 20.8871C28.5051 22.6144 26.3103 23.6262 24.996 22.3302L17.7898 15.2203C17.1833 14.6222 16.9403 13.8416 17.0483 13.0977C17.1234 13.6151 17.3692 14.1176 17.7898 14.5327L24.996 21.6419C26.3103 22.9392 28.5051 21.9267 28.512 20.1994L28.5182 18.6898C28.5203 18.1141 29.0408 17.6088 29.5096 17.6081L37.2143 17.5892C38.7055 17.5851 39.7657 16.5027 39.7657 15.0759V15.7635C39.7657 17.1911 38.7055 18.2734 37.2143 18.2768Z" fill="#61C200"/>
<defs>
<linearGradient id="paint0_linear_9779_450664" x1="24.5" y1="11.5109" x2="30.7858" y2="22.3902" gradientUnits="userSpaceOnUse">
<stop stop-color="#4B8927"/>
<stop offset="1" stop-color="#D0FF7C"/>
</linearGradient>
</defs>
</svg>
