<svg width="40" height="40" viewBox="0 0 40 40" fill="none" xmlns="http://www.w3.org/2000/svg">
<g clip-path="url(#clip0_3789_34777)">
<g filter="url(#filter0_di_3789_34777)">
<path d="M15.6699 6.5C17.5944 3.16666 22.4056 3.16667 24.3301 6.5L37.4385 29.2044C39.7356 33.183 35.9018 37.8933 31.5396 36.4519L21.5687 33.1572C20.55 32.8206 19.45 32.8206 18.4313 33.1572L8.46036 36.4519C4.09824 37.8933 0.264448 33.183 2.5615 29.2044L15.6699 6.5Z" fill="url(#paint0_linear_3789_34777)"/>
<path d="M15.8864 6.625C17.7147 3.45833 22.2853 3.45833 24.1136 6.625L37.222 29.3294C39.4042 33.109 35.7621 37.5838 31.6181 36.2145L21.6472 32.9198C20.5775 32.5663 19.4225 32.5663 18.3528 32.9198L8.38193 36.2145C4.2379 37.5838 0.595807 33.109 2.77801 29.3294L15.8864 6.625Z" stroke="url(#paint1_linear_3789_34777)" stroke-width="0.5"/>
</g>
<g opacity="0.7" filter="url(#filter1_f_3789_34777)">
<rect x="18.4983" y="6.26608" width="1" height="27.3045" transform="rotate(30.2737 18.4983 6.26608)" fill="white"/>
</g>
</g>
<defs>
<filter id="filter0_di_3789_34777" x="0.873535" y="4" width="38.2529" height="36.7175" filterUnits="userSpaceOnUse" color-interpolation-filters="sRGB">
<feFlood flood-opacity="0" result="BackgroundImageFix"/>
<feColorMatrix in="SourceAlpha" type="matrix" values="0 0 0 0 0 0 0 0 0 0 0 0 0 0 0 0 0 0 127 0" result="hardAlpha"/>
<feOffset dy="1"/>
<feGaussianBlur stdDeviation="0.5"/>
<feComposite in2="hardAlpha" operator="out"/>
<feColorMatrix type="matrix" values="0 0 0 0 0 0 0 0 0 0 0 0 0 0 0 0 0 0 0.1 0"/>
<feBlend mode="normal" in2="BackgroundImageFix" result="effect1_dropShadow_3789_34777"/>
<feBlend mode="normal" in="SourceGraphic" in2="effect1_dropShadow_3789_34777" result="shape"/>
<feColorMatrix in="SourceAlpha" type="matrix" values="0 0 0 0 0 0 0 0 0 0 0 0 0 0 0 0 0 0 127 0" result="hardAlpha"/>
<feOffset dy="4"/>
<feGaussianBlur stdDeviation="2"/>
<feComposite in2="hardAlpha" operator="arithmetic" k2="-1" k3="1"/>
<feColorMatrix type="matrix" values="0 0 0 0 0.95 0 0 0 0 0.624907 0 0 0 0 0.126667 0 0 0 1 0"/>
<feBlend mode="normal" in2="shape" result="effect2_innerShadow_3789_34777"/>
</filter>
<filter id="filter1_f_3789_34777" x="2.73315" y="4.26608" width="18.6287" height="28.085" filterUnits="userSpaceOnUse" color-interpolation-filters="sRGB">
<feFlood flood-opacity="0" result="BackgroundImageFix"/>
<feBlend mode="normal" in="SourceGraphic" in2="BackgroundImageFix" result="shape"/>
<feGaussianBlur stdDeviation="1" result="effect1_foregroundBlur_3789_34777"/>
</filter>
<linearGradient id="paint0_linear_3789_34777" x1="6.4049" y1="21.484" x2="40.7409" y2="39.6106" gradientUnits="userSpaceOnUse">
<stop stop-color="#D06C12"/>
<stop offset="0.415" stop-color="#FCC10F"/>
<stop offset="0.745" stop-color="#C87307"/>
<stop offset="1" stop-color="#FE9C28"/>
</linearGradient>
<linearGradient id="paint1_linear_3789_34777" x1="12" y1="5.5" x2="32.5" y2="38" gradientUnits="userSpaceOnUse">
<stop stop-color="#C76500"/>
<stop offset="1" stop-color="#FE9F32"/>
</linearGradient>
<clipPath id="clip0_3789_34777">
<rect width="40" height="40" fill="white"/>
</clipPath>
</defs>
</svg>
