<svg width="25" height="16" viewBox="0 0 25 16" fill="none" xmlns="http://www.w3.org/2000/svg">
<path d="M23.924 5.56744C24.0612 5.48755 24.175 5.37308 24.2542 5.23545C24.3333 5.09781 24.375 4.94183 24.375 4.78306V0.90747C24.375 0.788296 24.3515 0.670288 24.3059 0.560184C24.2603 0.45008 24.1935 0.350037 24.1092 0.265769C24.025 0.1815 23.9249 0.114657 23.8148 0.0690559C23.7047 0.0234549 23.5867 -1.04525e-05 23.4675 3.97437e-09H17.3161V1.51262C17.3161 1.75329 17.2205 1.98411 17.0503 2.1543C16.8801 2.32448 16.6493 2.42009 16.4086 2.42009C16.168 2.42009 15.9372 2.32448 15.767 2.1543C15.5968 1.98411 15.5012 1.75329 15.5012 1.51262V3.97437e-09H1.28247C1.1633 -1.11496e-05 1.04529 0.0234536 0.935183 0.0690543C0.825079 0.114655 0.725035 0.181498 0.640767 0.265767C0.556498 0.350035 0.489655 0.450078 0.444054 0.560183C0.398454 0.670287 0.374989 0.788296 0.375 0.90747V4.78306C0.37502 4.94183 0.41668 5.09781 0.495823 5.23545C0.574965 5.37308 0.688823 5.48755 0.826031 5.56744C1.20576 5.78276 1.52159 6.09495 1.7413 6.47216C1.96102 6.84937 2.07675 7.27811 2.0767 7.71464C2.07665 8.15117 1.96082 8.57988 1.74102 8.95704C1.52122 9.3342 1.20532 9.64632 0.825537 9.86156C0.688392 9.94146 0.57461 10.056 0.495552 10.1936C0.416495 10.3312 0.374929 10.4872 0.375005 10.6459V14.521C0.374994 14.6402 0.398459 14.7582 0.444059 14.8683C0.489659 14.9784 0.556502 15.0785 0.64077 15.1627C0.725038 15.247 0.825081 15.3138 0.935185 15.3594C1.04529 15.405 1.1633 15.4285 1.28247 15.4285H15.5012V13.9159C15.5012 13.6752 15.5968 13.4444 15.767 13.2742C15.9372 13.104 16.168 13.0084 16.4086 13.0084C16.6493 13.0084 16.8801 13.104 17.0503 13.2742C17.2205 13.4444 17.3161 13.6752 17.3161 13.9159V15.4285H23.4675C23.5867 15.4285 23.7047 15.405 23.8148 15.3594C23.9249 15.3138 24.025 15.247 24.1092 15.1627C24.1935 15.0785 24.2603 14.9784 24.3059 14.8683C24.3515 14.7582 24.375 14.6402 24.375 14.521V10.6459C24.375 10.4872 24.3333 10.3312 24.2542 10.1935C24.175 10.0559 24.0612 9.94144 23.924 9.86156C23.5443 9.64622 23.2285 9.33405 23.0088 8.95688C22.7891 8.5797 22.6733 8.151 22.6733 7.71449C22.6733 7.27799 22.7891 6.84929 23.0088 6.47212C23.2285 6.09494 23.5443 5.78277 23.924 5.56744ZM17.3161 10.7899C17.3161 11.0306 17.2205 11.2614 17.0503 11.4316C16.8801 11.6018 16.6493 11.6974 16.4086 11.6974C16.168 11.6974 15.9371 11.6018 15.767 11.4316C15.5968 11.2614 15.5012 11.0306 15.5012 10.7899V9.27733C15.5012 9.03665 15.5968 8.80584 15.767 8.63565C15.9371 8.46547 16.168 8.36986 16.4086 8.36986C16.6493 8.36986 16.8801 8.46547 17.0503 8.63565C17.2205 8.80584 17.3161 9.03665 17.3161 9.27733V10.7899ZM17.3161 6.15116C17.3161 6.39183 17.2205 6.62265 17.0503 6.79284C16.8801 6.96302 16.6493 7.05863 16.4086 7.05863C16.168 7.05863 15.9371 6.96302 15.767 6.79284C15.5968 6.62265 15.5012 6.39183 15.5012 6.15116V4.63854C15.5012 4.39786 15.5968 4.16705 15.767 3.99686C15.9371 3.82668 16.168 3.73107 16.4086 3.73107C16.6493 3.73107 16.8801 3.82668 17.0503 3.99686C17.2205 4.16705 17.3161 4.39786 17.3161 4.63854V6.15116Z" fill="#FED000"/>
</svg>
