<svg width="28" height="32" viewBox="0 0 28 32" fill="none" xmlns="http://www.w3.org/2000/svg">
<path fill-rule="evenodd" clip-rule="evenodd" d="M9.59875 1C9.59875 0.447716 10.0465 0 10.5988 0L17.7924 0C18.3447 0 18.7924 0.447715 18.7924 1L18.7924 2.4476C18.7924 2.99989 18.3447 3.4476 17.7924 3.4476L16.494 3.4476L16.494 4.60769C23.0225 5.69662 27.9988 11.372 27.9988 18.2096C27.9988 25.8258 21.8246 32 14.2084 32C6.59215 32 0.417969 25.8258 0.417969 18.2096C0.417969 11.3809 5.38126 5.7115 11.8972 4.612L11.8972 3.4476L10.5988 3.4476C10.0465 3.4476 9.59875 2.99989 9.59875 2.4476L9.59875 1Z" fill="#017A8D"/>
<path d="M5.72959 11.1513L14.9526 15.1804L11.8689 19.1267L5.72959 11.1513Z" fill="white"/>
<circle cx="13.906" cy="17.4998" r="4.49976" fill="white"/>
</svg>
