<svg width="26" height="18" viewBox="0 0 26 18" fill="none" xmlns="http://www.w3.org/2000/svg">
<path d="M12.8556 0C8.36125 0 4.0975 1.68188 0.82375 4.73063L0.25 5.265L0.806875 5.81625L2.62375 7.61625L3.14687 8.13375L3.68687 7.63875C6.19 5.33812 9.44125 4.06687 12.8444 4.06687C16.2475 4.06687 19.5044 5.33812 22.0019 7.63875L22.5419 8.13375L23.065 7.61625L24.8819 5.81625L25.4387 5.265L24.865 4.73063C21.6025 1.68188 17.3331 0 12.8556 0Z" fill="white"/>
<path d="M20.805 9.02289C18.6225 7.04852 15.8044 5.96289 12.8681 5.96289H12.8625H12.8456H12.3675L12.3619 5.97414C9.59438 6.08664 6.96187 7.16102 4.90312 9.02289L4.3125 9.55727L4.88063 10.1198L6.72 11.9423L7.23188 12.4485L7.77187 11.976C9.195 10.7273 11.0006 10.0354 12.8512 10.0354C14.7131 10.0354 16.5188 10.7273 17.9419 11.976L18.4819 12.4485L18.9937 11.9423L20.8331 10.1198L21.4012 9.55727L20.805 9.02289Z" fill="white"/>
<path d="M12.8619 17.9999L13.4019 17.4655L16.3719 14.5293L16.9681 13.9387L16.3156 13.4043C15.4494 12.763 14.4931 12.2793 12.8562 12.2793C11.225 12.2793 10.3306 12.808 9.39687 13.4043L8.75 13.9387L9.34625 14.5293L12.3162 17.4655L12.8619 17.9999Z" fill="white"/>
</svg>
