<svg width="25" height="25" viewBox="0 0 25 25" fill="none" xmlns="http://www.w3.org/2000/svg">
<path d="M7.7 17.3H17.3V7.7H7.7V17.3ZM12.5 24.5C10.84 24.5 9.28 24.185 7.82 23.555C6.36 22.925 5.09 22.07 4.01 20.99C2.93 19.91 2.075 18.64 1.445 17.18C0.815 15.72 0.5 14.16 0.5 12.5C0.5 10.84 0.815 9.28 1.445 7.82C2.075 6.36 2.93 5.09 4.01 4.01C5.09 2.93 6.36 2.075 7.82 1.445C9.28 0.815 10.84 0.5 12.5 0.5C14.16 0.5 15.72 0.815 17.18 1.445C18.64 2.075 19.91 2.93 20.99 4.01C22.07 5.09 22.925 6.36 23.555 7.82C24.185 9.28 24.5 10.84 24.5 12.5C24.5 14.16 24.185 15.72 23.555 17.18C22.925 18.64 22.07 19.91 20.99 20.99C19.91 22.07 18.64 22.925 17.18 23.555C15.72 24.185 14.16 24.5 12.5 24.5ZM12.5 22.1C15.18 22.1 17.45 21.17 19.31 19.31C21.17 17.45 22.1 15.18 22.1 12.5C22.1 9.82 21.17 7.55 19.31 5.69C17.45 3.83 15.18 2.9 12.5 2.9C9.82 2.9 7.55 3.83 5.69 5.69C3.83 7.55 2.9 9.82 2.9 12.5C2.9 15.18 3.83 17.45 5.69 19.31C7.55 21.17 9.82 22.1 12.5 22.1Z" fill="white"/>
</svg>
