<svg width="24" height="24" viewBox="0 0 24 24" fill="none" xmlns="http://www.w3.org/2000/svg">
<path d="M13.6612 1.00343C14.4697 0.963322 15.245 1.27481 15.9871 1.9379L21.3687 6.80977L21.9457 6.18705L24 8.04685L20.8699 11.5042L18.8149 9.63069L19.3256 9.06661L13.9153 4.16834C13.289 3.61009 12.512 3.35394 11.5836 3.39989C10.9682 3.43036 10.3765 3.57506 9.80908 3.83349C11.0175 2.01431 12.3015 1.07096 13.6612 1.00343Z" fill="white"/>
<path d="M17.5355 3.06521L20.0093 5.30469L20.4415 4.82725L17.9678 2.58778L17.5355 3.06521Z" fill="white"/>
<path d="M7.48344 13.8008L0.909668 20.7429L4.06315 23.5978L10.3308 16.3689L7.48344 13.8008Z" fill="white"/>
<path d="M13.8478 12.312L17.6915 7.87752L15.2034 5.625L11.1733 9.90004L13.8478 12.312Z" fill="white"/>
<path d="M21.1037 20.0993C21.1796 19.7731 21.2095 19.4495 21.1936 19.1278C21.1466 18.1817 20.7759 17.3939 20.0814 16.7654C19.3871 16.1368 18.5623 15.8461 17.6065 15.8936C17.2851 15.9096 16.9655 15.967 16.6479 16.0655L13.2489 13.0016L13.2639 12.9843L10.5618 10.5473L10.5575 10.5518L6.99883 7.33007C7.0661 7.01375 7.09149 6.69465 7.07575 6.37301C7.02777 5.40833 6.65662 4.61171 5.96231 3.98289C5.26799 3.35433 4.44751 3.0634 3.50137 3.11036C3.17058 3.12687 2.84691 3.18906 2.52983 3.2967L5.2784 5.78506L2.8431 8.48946L0.0940234 6.00135C0.0183724 6.32756 -0.0118373 6.65149 0.00415607 6.97288C0.0511206 7.91928 0.42176 8.70676 1.11633 9.33533C1.81064 9.96389 2.63112 10.2548 3.57727 10.2076C3.92658 10.1903 4.26854 10.1228 4.60338 10.0045L5.79628 11.0844L5.79882 11.0816L13.566 18.0867L13.5515 18.1027L14.2235 18.7138C14.1395 19.0588 14.1057 19.4012 14.1225 19.7411C14.1699 20.6967 14.5388 21.489 15.2283 22.1178C15.9183 22.7466 16.7408 23.0373 17.6963 22.9898C18.018 22.9738 18.3373 22.9116 18.6542 22.804L15.9056 20.3156L18.3546 17.6105L21.1037 20.0993Z" fill="white"/>
</svg>
