<svg width="272" height="169" viewBox="0 0 272 169" fill="none" xmlns="http://www.w3.org/2000/svg">
<path d="M0.615234 95.7597C2.54419 93.3337 4.36951 90.9969 6.24193 88.6954C12.3515 81.1821 18.5646 73.7534 24.5634 66.1554C28.8618 60.7109 32.8704 55.043 37.7128 50.038C43.2288 44.3395 50.0214 41.314 57.7725 40.1197C64.0893 39.1465 70.4226 39.0243 76.9678 39.4968C76.7323 39.9082 76.5439 40.2584 76.3366 40.597C72.2526 47.3228 67.2194 53.3433 62.2899 59.4391C58.0245 64.7144 53.7921 70.0132 50.3016 75.8551C50.1038 76.1842 49.9295 76.5274 49.6775 76.9835C52.1694 77.5759 54.5576 78.1189 56.9364 78.7137C69.0989 81.7534 80.9388 85.6675 91.966 91.7492C97.9319 95.038 103.471 98.9216 108.559 103.459C115.318 109.486 122.017 115.587 128.918 121.448C133.374 125.232 138.426 128.244 144.269 129.278C154.835 131.149 165.28 131.199 175.071 125.83C178.305 124.057 181.056 121.711 183.703 118.554C182.361 118.554 181.341 118.532 180.326 118.558C175.578 118.671 170.832 118.826 166.086 118.913C158.306 119.057 151.34 116.87 145.327 111.788C138.89 106.343 132.326 101.049 125.893 95.5975C114.007 85.5241 100.968 77.4301 86.2758 72.042C80.9859 70.1025 75.8444 67.7634 70.4814 65.5419C71.0514 64.665 71.4801 63.9833 71.9299 63.3156C78.6447 53.3527 86.2616 44.1797 95.5696 36.4971C103.964 29.5668 113.234 24.2515 123.957 21.9077C137.604 18.9245 150.664 20.6782 163.066 27.2136C170.912 31.3464 178.015 36.5653 185.086 41.8476C191.996 47.0125 198.814 52.3113 206.321 56.6204C216.736 62.601 227.939 66.5222 239.581 69.3079C248.392 71.4143 257.331 72.7966 266.304 73.9626C267.929 74.1742 269.566 74.3176 271.384 74.5127C270.482 75.7281 269.698 76.8354 268.862 77.9027C262.171 86.4551 255.51 95.031 248.755 103.534C244.589 108.779 240.399 114.016 235.978 119.045C232.669 122.809 228.611 125.733 223.957 127.734C220.558 129.196 216.943 129.791 213.299 129.892C208.122 130.035 202.938 129.878 197.757 129.845C197.616 129.845 197.474 129.786 197.203 129.727C205.447 117.07 215.711 105.991 223.733 93.0939C221.503 92.5038 219.399 91.9443 217.294 91.3942C207.816 88.9117 198.414 86.1965 189.466 82.1271C179.372 77.5383 170.551 71.057 162.202 63.854C156.236 58.7079 150.315 53.4961 144.116 48.6369C138.781 44.4547 132.832 41.1964 126.082 39.8376C114.021 37.4092 103.109 39.7201 93.7631 48.0539C93.5299 48.2631 93.3133 48.4911 93.0989 48.7192C93.0518 48.7685 93.0377 48.8532 92.9246 49.1235C95.5413 49.3492 98.0897 49.5843 100.64 49.7888C105.994 50.219 111.338 50.6633 116.536 52.1608C121.963 53.7241 126.617 56.7332 130.929 60.1937C137.472 65.4431 143.939 70.8054 150.186 76.4028C161.222 86.2929 173.771 93.4324 187.832 98.0424C192.705 99.641 197.503 101.472 202.333 103.2C202.621 103.304 202.898 103.438 203.325 103.619C202.736 104.566 202.199 105.459 201.634 106.332C193.416 118.993 183.47 129.998 170.912 138.545C164.779 142.718 158.226 145.845 150.892 147.225C144.889 148.353 138.843 148.699 132.743 148.395C128.268 148.172 123.821 147.843 119.492 146.602C113.093 144.768 107.212 141.801 101.79 138.023C94.7453 133.115 87.8609 127.973 80.9223 122.914C68.5902 113.92 55.422 106.534 40.8053 101.87C34.3519 99.8103 27.7218 98.7148 21.0188 97.9672C14.4359 97.2337 7.8435 96.5779 1.25586 95.8867C1.10984 95.8702 0.966167 95.8326 0.615234 95.7621L0.615234 95.7597Z" fill="#004250"/>
</svg>
