<svg width="272" height="169" viewBox="0 0 272 169" fill="none" xmlns="http://www.w3.org/2000/svg">
<path d="M0.615356 95.7597C2.54431 93.3337 4.36963 90.9969 6.24205 88.6954C12.3516 81.1821 18.5647 73.7534 24.5636 66.1554C28.8619 60.7109 32.8705 55.043 37.7129 50.038C43.2289 44.3395 50.0215 41.314 57.7726 40.1197C64.0894 39.1465 70.4227 39.0243 76.9679 39.4968C76.7324 39.9082 76.544 40.2584 76.3367 40.597C72.2527 47.3228 67.2195 53.3433 62.29 59.4391C58.0246 64.7144 53.7922 70.0132 50.3018 75.8551C50.1039 76.1842 49.9296 76.5274 49.6776 76.9835C52.1695 77.5759 54.5577 78.1189 56.9365 78.7137C69.099 81.7534 80.9389 85.6675 91.9662 91.7492C97.932 95.038 103.472 98.9216 108.559 103.459C115.318 109.486 122.017 115.587 128.918 121.448C133.374 125.232 138.426 128.244 144.269 129.278C154.835 131.149 165.28 131.199 175.071 125.83C178.305 124.057 181.056 121.711 183.703 118.554C182.361 118.554 181.341 118.532 180.326 118.558C175.578 118.671 170.832 118.826 166.086 118.913C158.307 119.057 151.34 116.87 145.327 111.788C138.89 106.343 132.326 101.049 125.894 95.5975C114.007 85.5241 100.968 77.4301 86.2759 72.042C80.986 70.1025 75.8445 67.7634 70.4816 65.5419C71.0515 64.665 71.4802 63.9833 71.93 63.3156C78.6449 53.3527 86.2618 44.1797 95.5697 36.4971C103.964 29.5668 113.234 24.2515 123.958 21.9077C137.604 18.9245 150.664 20.6782 163.067 27.2136C170.912 31.3464 178.015 36.5653 185.086 41.8476C191.996 47.0125 198.815 52.3113 206.321 56.6204C216.736 62.601 227.94 66.5222 239.582 69.3079C248.393 71.4143 257.331 72.7966 266.304 73.9626C267.929 74.1742 269.566 74.3176 271.385 74.5127C270.483 75.7281 269.698 76.8354 268.862 77.9027C262.171 86.4551 255.51 95.031 248.755 103.534C244.589 108.779 240.399 114.016 235.978 119.045C232.669 122.809 228.611 125.733 223.957 127.734C220.558 129.196 216.943 129.791 213.299 129.892C208.123 130.035 202.939 129.878 197.757 129.845C197.616 129.845 197.474 129.786 197.204 129.727C205.447 117.07 215.711 105.991 223.733 93.0939C221.503 92.5038 219.399 91.9443 217.294 91.3942C207.816 88.9117 198.414 86.1965 189.467 82.1271C179.372 77.5383 170.552 71.057 162.202 63.854C156.236 58.7079 150.315 53.4961 144.116 48.6369C138.782 44.4547 132.832 41.1964 126.082 39.8376C114.021 37.4092 103.109 39.7201 93.7632 48.0539C93.5301 48.2631 93.3134 48.4911 93.0991 48.7192C93.0519 48.7685 93.0378 48.8532 92.9248 49.1235C95.5414 49.3492 98.0898 49.5843 100.641 49.7888C105.994 50.219 111.338 50.6633 116.536 52.1608C121.963 53.7241 126.617 56.7332 130.929 60.1937C137.472 65.4431 143.94 70.8054 150.186 76.4028C161.222 86.2929 173.771 93.4324 187.832 98.0424C192.705 99.641 197.503 101.472 202.333 103.2C202.621 103.304 202.899 103.438 203.325 103.619C202.736 104.566 202.199 105.459 201.634 106.332C193.416 118.993 183.47 129.998 170.912 138.545C164.779 142.718 158.226 145.845 150.892 147.225C144.889 148.353 138.843 148.699 132.743 148.395C128.268 148.172 123.821 147.843 119.492 146.602C113.093 144.768 107.212 141.801 101.79 138.023C94.7454 133.115 87.861 127.973 80.9224 122.914C68.5903 113.92 55.4221 106.534 40.8054 101.87C34.352 99.8103 27.722 98.7148 21.0189 97.9672C14.436 97.2337 7.84363 96.5779 1.25599 95.8867C1.10996 95.8702 0.966289 95.8326 0.615356 95.7621L0.615356 95.7597Z" fill="white"/>
</svg>
